<svg width="150" height="30" viewBox="0 0 150 30" fill="none" xmlns="http://www.w3.org/2000/svg">
<path d="M46.4415 22.7427C44.0691 20.3958 41.0744 18.9003 37.7801 18.418C37.3599 18.3564 36.9684 18.6497 36.9078 19.0685C36.8464 19.4882 37.138 19.8799 37.5579 19.9417C40.2524 20.3359 42.739 21.4912 44.7732 23.2898C42.2707 25.4988 39.0574 26.7442 35.6808 26.8053C32.4711 26.8654 29.3715 25.8471 26.8559 23.9331C34.5194 22.9477 40.5028 16.3914 40.5455 8.50879C40.5467 8.30458 40.4645 8.10455 40.3206 7.96072C40.166 7.80511 39.9581 7.72018 39.7586 7.73442C36.4949 7.75504 33.378 8.77558 30.7442 10.6866C30.4008 10.9362 30.3245 11.4185 30.5736 11.7621C30.6946 11.9283 30.8728 12.0375 31.0755 12.0699C31.2785 12.1023 31.4825 12.0537 31.6489 11.9327C33.8012 10.3707 36.3278 9.46479 38.9786 9.30083C38.7611 12.7886 37.2529 16.0483 34.7064 18.5165C32.5018 20.653 29.7217 21.9934 26.7376 22.393C31.4636 16.2864 31.0869 7.44848 25.574 1.87521C25.4336 1.7331 25.234 1.65161 25.0264 1.65161C24.819 1.65161 24.6197 1.7331 24.4793 1.87496C22.1321 4.24766 20.6366 7.2423 20.1548 10.5357C20.0935 10.9554 20.3851 11.3471 20.807 11.4092C21.2269 11.4683 21.6174 11.1763 21.6783 10.7585C22.0727 8.06453 23.2278 5.57796 25.0261 3.54348C27.3208 6.14665 28.5443 9.50062 28.4795 13.0316C28.4233 16.0876 27.4023 18.9911 25.5777 21.3788C24.6008 13.7789 18.1243 7.81836 10.3411 7.73834C10.131 7.73687 9.93535 7.81516 9.78808 7.96096C9.64303 8.10454 9.55982 8.30384 9.55982 8.50805V9.93702C9.55982 9.9623 9.56105 9.98782 9.56375 10.0151C9.8303 12.6337 10.7699 15.1588 12.2808 17.318C12.5235 17.665 13.0039 17.7499 13.3531 17.5072C13.5215 17.3894 13.6342 17.2129 13.6698 17.0104C13.7056 16.8079 13.6604 16.6035 13.5424 16.4351C12.1893 14.502 11.3449 12.2417 11.0995 9.8975V9.30795C14.5472 9.53743 17.7709 11.0481 20.2106 13.5867C22.3184 15.7798 23.6416 18.5388 24.0377 21.4949C17.9748 16.8251 9.18846 17.2851 3.66871 22.6917C3.52095 22.8367 3.43923 23.0309 3.43825 23.2371C3.43702 23.4415 3.51949 23.6415 3.66381 23.7856L4.67111 24.7927C4.68976 24.8118 4.70939 24.8297 4.73197 24.8484C7.4851 27.0925 10.964 28.3283 14.5281 28.328H14.5293H14.558C17.3435 28.3258 20.0753 27.5775 22.4583 26.1637C22.6351 26.0589 22.7607 25.8913 22.8115 25.692C22.8626 25.4927 22.8326 25.2855 22.7281 25.1088C22.6235 24.9321 22.4559 24.8064 22.2566 24.7556C22.057 24.7043 21.8494 24.7345 21.6727 24.8393C19.5287 26.1112 17.0699 26.7852 14.5607 26.7881H14.5212C11.326 26.7864 8.2067 25.6824 5.73509 23.6789L5.31783 23.2621C7.92051 20.9822 11.261 19.7626 14.7755 19.818C18.4151 19.8767 21.83 21.3035 24.3914 23.8357C24.3924 23.8364 24.3932 23.8374 24.3939 23.8381L24.3941 23.8384C24.3956 23.8399 24.3971 23.8413 24.3985 23.8428C27.3377 26.7481 31.2493 28.3482 35.4147 28.3482C35.4152 28.3482 35.4162 28.3482 35.4167 28.3482C39.586 28.3479 43.5018 26.7459 46.4425 23.8372C46.5875 23.6936 46.6707 23.494 46.6707 23.2901C46.67 23.0856 46.5868 22.8863 46.4415 22.7427Z" fill="white"/>
<path d="M54.0342 9.89235V8.03759H65.0861V9.89235H60.6304V22.3179H58.4828V9.89235H54.0342Z" fill="white"/>
<path d="M67.3609 22.3179V11.6077H69.4458V22.3179H67.3609ZM68.4138 9.95511C68.0512 9.95511 67.7398 9.83425 67.4795 9.59252C67.2238 9.34615 67.096 9.05329 67.096 8.71395C67.096 8.36996 67.2238 8.0771 67.4795 7.83538C67.7398 7.58901 68.0512 7.46582 68.4138 7.46582C68.7764 7.46582 69.0855 7.58901 69.3412 7.83538C69.6015 8.0771 69.7317 8.36996 69.7317 8.71395C69.7317 9.05329 69.6015 9.34615 69.3412 9.59252C69.0855 9.83425 68.7764 9.95511 68.4138 9.95511Z" fill="white"/>
<path d="M72.2506 22.3179V11.6077H74.2518V13.3509H74.3843C74.6074 12.7605 74.9723 12.3003 75.479 11.9702C75.9857 11.6356 76.5923 11.4682 77.2989 11.4682C78.0148 11.4682 78.6145 11.6356 79.0979 11.9702C79.586 12.3049 79.9463 12.7651 80.1787 13.3509H80.2903C80.5459 12.7791 80.9527 12.3235 81.5105 11.9842C82.0683 11.6402 82.7331 11.4682 83.5047 11.4682C84.4763 11.4682 85.2688 11.7727 85.8824 12.3816C86.5007 12.9906 86.8098 13.9087 86.8098 15.1359V22.3179H84.725V15.3311C84.725 14.606 84.5274 14.0807 84.1323 13.7553C83.7371 13.4299 83.2653 13.2672 82.7168 13.2672C82.0381 13.2672 81.5105 13.4764 81.134 13.8947C80.7574 14.3085 80.5692 14.8407 80.5692 15.4915V22.3179H78.4913V15.1987C78.4913 14.6176 78.31 14.1504 77.9474 13.7971C77.5848 13.4438 77.113 13.2672 76.5319 13.2672C76.1368 13.2672 75.7719 13.3718 75.4372 13.581C75.1071 13.7855 74.8399 14.0714 74.6353 14.4386C74.4354 14.8059 74.3355 15.2312 74.3355 15.7146V22.3179H72.2506Z" fill="white"/>
<path d="M94.2202 22.534C93.1649 22.534 92.2562 22.3086 91.4938 21.8577C90.7361 21.4021 90.1504 20.7629 89.7367 19.9402C89.3276 19.1127 89.123 18.1435 89.123 17.0325C89.123 15.9354 89.3276 14.9686 89.7367 14.1318C90.1504 13.2951 90.7268 12.642 91.4659 12.1725C92.2097 11.703 93.0789 11.4682 94.0737 11.4682C94.678 11.4682 95.2638 11.5682 95.8309 11.768C96.398 11.9679 96.907 12.2817 97.3579 12.7094C97.8088 13.137 98.1644 13.6925 98.4248 14.3759C98.6851 15.0546 98.8152 15.8797 98.8152 16.8512V17.5903H90.3014V16.0284H96.7722C96.7722 15.4799 96.6606 14.9941 96.4375 14.5711C96.2144 14.1434 95.9006 13.8064 95.4962 13.56C95.0964 13.3137 94.6269 13.1905 94.0877 13.1905C93.502 13.1905 92.9906 13.3346 92.5537 13.6228C92.1214 13.9064 91.7867 14.2782 91.5496 14.7385C91.3172 15.194 91.2009 15.6891 91.2009 16.2237V17.4439C91.2009 18.1598 91.3265 18.7687 91.5775 19.2708C91.8331 19.7728 92.1888 20.1563 92.6443 20.4213C93.0999 20.6816 93.6321 20.8118 94.2411 20.8118C94.6362 20.8118 94.9965 20.756 95.3219 20.6444C95.6473 20.5282 95.9285 20.3562 96.1656 20.1284C96.4026 19.9006 96.5839 19.6194 96.7095 19.2847L98.6828 19.6403C98.5247 20.2214 98.2411 20.7304 97.8321 21.1674C97.4277 21.5997 96.9186 21.9367 96.305 22.1784C95.6961 22.4155 95.0011 22.534 94.2202 22.534Z" fill="white"/>
<path d="M107.439 15.3799V17.1859H101.108V15.3799H107.439Z" fill="white"/>
<path d="M112.302 8.03759V22.3179H110.218V8.03759H112.302Z" fill="white"/>
<path d="M115.107 22.3179V11.6077H117.192V22.3179H115.107ZM116.16 9.95511C115.797 9.95511 115.486 9.83425 115.226 9.59252C114.97 9.34615 114.842 9.05329 114.842 8.71395C114.842 8.36996 114.97 8.0771 115.226 7.83538C115.486 7.58901 115.797 7.46582 116.16 7.46582C116.523 7.46582 116.832 7.58901 117.087 7.83538C117.348 8.0771 117.478 8.36996 117.478 8.71395C117.478 9.05329 117.348 9.34615 117.087 9.59252C116.832 9.83425 116.523 9.95511 116.16 9.95511Z" fill="white"/>
<path d="M119.997 22.3179V11.6077H121.998V13.3509H122.131C122.354 12.7605 122.719 12.3003 123.225 11.9702C123.732 11.6356 124.339 11.4682 125.045 11.4682C125.761 11.4682 126.361 11.6356 126.844 11.9702C127.332 12.3049 127.693 12.7651 127.925 13.3509H128.036C128.292 12.7791 128.699 12.3235 129.257 11.9842C129.815 11.6402 130.479 11.4682 131.251 11.4682C132.222 11.4682 133.015 11.7727 133.629 12.3816C134.247 12.9906 134.556 13.9087 134.556 15.1359V22.3179H132.471V15.3311C132.471 14.606 132.274 14.0807 131.879 13.7553C131.483 13.4299 131.012 13.2672 130.463 13.2672C129.784 13.2672 129.257 13.4764 128.88 13.8947C128.504 14.3085 128.315 14.8407 128.315 15.4915V22.3179H126.238V15.1987C126.238 14.6176 126.056 14.1504 125.694 13.7971C125.331 13.4438 124.859 13.2672 124.278 13.2672C123.883 13.2672 123.518 13.3718 123.183 13.581C122.853 13.7855 122.586 14.0714 122.382 14.4386C122.182 14.8059 122.082 15.2312 122.082 15.7146V22.3179H119.997Z" fill="white"/>
<path d="M141.966 22.534C140.911 22.534 140.002 22.3086 139.24 21.8577C138.482 21.4021 137.897 20.7629 137.483 19.9402C137.074 19.1127 136.869 18.1435 136.869 17.0325C136.869 15.9354 137.074 14.9686 137.483 14.1318C137.897 13.2951 138.473 12.642 139.212 12.1725C139.956 11.703 140.825 11.4682 141.82 11.4682C142.424 11.4682 143.01 11.5682 143.577 11.768C144.144 11.9679 144.653 12.2817 145.104 12.7094C145.555 13.137 145.911 13.6925 146.171 14.3759C146.431 15.0546 146.561 15.8797 146.561 16.8512V17.5903H138.048V16.0284H144.518C144.518 15.4799 144.407 14.9941 144.184 14.5711C143.961 14.1434 143.647 13.8064 143.242 13.56C142.843 13.3137 142.373 13.1905 141.834 13.1905C141.248 13.1905 140.737 13.3346 140.3 13.6228C139.868 13.9064 139.533 14.2782 139.296 14.7385C139.063 15.194 138.947 15.6891 138.947 16.2237V17.4439C138.947 18.1598 139.073 18.7687 139.324 19.2708C139.579 19.7728 139.935 20.1563 140.391 20.4213C140.846 20.6816 141.378 20.8118 141.987 20.8118C142.382 20.8118 142.743 20.756 143.068 20.6444C143.394 20.5282 143.675 20.3562 143.912 20.1284C144.149 19.9006 144.33 19.6194 144.456 19.2847L146.429 19.6403C146.271 20.2214 145.987 20.7304 145.578 21.1674C145.174 21.5997 144.665 21.9367 144.051 22.1784C143.442 22.4155 142.747 22.534 141.966 22.534Z" fill="white"/>
</svg>
