<svg width="38" height="37" viewBox="0 0 38 37" fill="none" xmlns="http://www.w3.org/2000/svg">
<path d="M26.4591 18.5001C26.4591 22.7572 23.008 26.2084 18.7508 26.2084C14.4936 26.2084 11.0425 22.7572 11.0425 18.5001C11.0425 14.2429 14.4936 10.7917 18.7508 10.7917C23.008 10.7918 26.4591 14.2429 26.4591 18.5001Z" stroke="#FAD3B1" stroke-width="1.5"/>
<path d="M18.7502 3.08325L18.7502 5.39575M18.7502 31.6041L18.7502 33.9166M29.651 29.4015L28.0157 27.7663M9.4836 9.23336L7.84842 7.59818M34.1668 18.4999L31.8543 18.4999M5.64599 18.4999L3.33349 18.4999M29.6518 7.59835L28.0165 9.23354M9.48436 27.7664L7.84917 29.4017" stroke="#FAD3B1" stroke-width="1.5" stroke-linecap="round"/>
</svg>
