<svg width="37" height="37" viewBox="0 0 37 37" fill="none" xmlns="http://www.w3.org/2000/svg">
<path d="M33.917 6.9375H23.4994C22.2728 6.9375 21.0963 7.42478 20.229 8.29213L15.417 13.1042" stroke="#171310" stroke-width="1.5" stroke-linecap="round" stroke-linejoin="round"/>
<path d="M29.292 20.8125H33.917" stroke="#171310" stroke-width="1.5" stroke-linecap="round" stroke-linejoin="round"/>
<path d="M23.8962 11.5625L20.8128 14.6458C19.9614 15.4973 19.9614 16.8777 20.8128 17.7292C21.6643 18.5806 23.0447 18.5806 23.8962 17.7292L26.2087 15.4167C27.5356 16.7436 29.6362 16.8928 31.1375 15.7669L31.6045 15.4167" stroke="#171310" stroke-width="1.5" stroke-linecap="round" stroke-linejoin="round"/>
<path d="M29.292 16.9584V23.8959C29.292 26.8028 29.292 28.2563 28.3889 29.1594C27.4858 30.0625 26.0323 30.0625 23.1253 30.0625H9.25033C6.34336 30.0625 4.88988 30.0625 3.98677 29.1594C3.08366 28.2563 3.08366 26.8028 3.08366 23.8959V19.2709C3.08366 16.3639 3.08366 14.9104 3.98677 14.0073C4.88988 13.1042 6.34336 13.1042 9.25033 13.1042H22.3545" stroke="#171310" stroke-width="1.5" stroke-linecap="round" stroke-linejoin="round"/>
<path d="M13.4899 21.5834C13.4899 23.0734 14.6978 24.2813 16.1878 24.2813C17.6778 24.2813 18.8857 23.0734 18.8857 21.5834C18.8857 20.0933 17.6778 18.8854 16.1878 18.8854C14.6978 18.8854 13.4899 20.0933 13.4899 21.5834Z" stroke="#171310" stroke-width="1.5" stroke-linecap="round" stroke-linejoin="round"/>
</svg>
