<svg width="37" height="37" viewBox="0 0 37 37" fill="none" xmlns="http://www.w3.org/2000/svg">
<path d="M28.8427 5.38863C25.9254 3.93712 22.3556 3.08331 18.5 3.08331C14.6444 3.08331 11.0746 3.93712 8.15721 5.38863C6.72657 6.10045 6.01125 6.45636 5.31813 7.57539C4.625 8.69444 4.625 9.77797 4.625 11.945V17.3238C4.625 26.0857 11.6278 30.9573 15.6834 33.0438C16.8145 33.6257 17.38 33.9166 18.5 33.9166C19.62 33.9166 20.1855 33.6257 21.3165 33.0438C25.3721 30.9573 32.375 26.0857 32.375 17.3238V11.945C32.375 9.77798 32.375 8.69446 31.6819 7.57539C30.9887 6.45634 30.2734 6.10045 28.8427 5.38863Z" stroke="#171310" stroke-width="1.5" stroke-linecap="round" stroke-linejoin="round"/>
<path d="M13.875 17.7291C13.875 17.7291 16.0455 18.1175 16.9583 20.8125C16.9583 20.8125 19.2708 16.1875 23.125 14.6458" stroke="#171310" stroke-width="1.5" stroke-linecap="round" stroke-linejoin="round"/>
</svg>
