<svg width="278" height="290" viewBox="0 0 278 290" fill="none" xmlns="http://www.w3.org/2000/svg">
<path d="M242.029 0.741019C266.037 -0.257906 273.37 10.7405 272.37 24.7908L260.339 252.741H38.0128C22.3701 252.741 16.2794 234.407 19.7037 200.459C26.5673 132.414 34.9429 93.6271 47.429 24.7908C53.725 15.2479 55.0934 8.87603 79.8624 8.06052L242.029 0.741019Z" fill="#CFB58C"/>
<path d="M276.777 225.869L251.764 37.7604C249.444 23.4057 245.777 13.4057 222.748 9.74421C166.826 4.49768 121.53 3.37805 45.6542 0.739014C25.1104 0.739014 5.51047 9.07235 4.63242 37.7604C2.31009 113.636 -0.134186 167.788 0.130005 217.364C0.929016 239.391 5.83157 248.157 23.1422 256.887C128.046 276.133 185.452 286.509 234.755 289.406C266.444 289.406 281.11 265.739 276.777 225.869Z" fill="#8B3A2C"/>
</svg>
