<svg width="42" height="49" viewBox="0 0 42 49" fill="none" xmlns="http://www.w3.org/2000/svg">
<path d="M15.8016 25.5385H15.094C12.8066 25.5385 11.6629 25.5385 11.1753 24.7843C10.6878 24.0303 11.1523 22.9796 12.0814 20.8784L14.8743 14.5612C15.719 12.6507 16.1413 11.6955 16.9606 11.1603C17.7799 10.625 18.8198 10.625 20.8996 10.625H24.1208C26.6473 10.625 27.9105 10.625 28.3869 11.4503C28.8634 12.2757 28.2367 13.3782 26.9832 15.5834L25.3307 18.4904C24.7075 19.5866 24.396 20.1348 24.4003 20.5834C24.406 21.1665 24.716 21.7037 25.2169 21.9979C25.6023 22.2243 26.2302 22.2243 27.4862 22.2243C29.074 22.2243 29.868 22.2243 30.2814 22.4992C30.8186 22.8563 31.0998 23.4951 31.0012 24.1349C30.9254 24.6273 30.3914 25.2178 29.3233 26.3989L20.79 35.8348C19.1139 37.6882 18.2759 38.6149 17.7131 38.3217C17.1503 38.0283 17.4206 36.8059 17.9611 34.3608L19.0199 29.5715C19.4313 27.7098 19.6372 26.7789 19.1423 26.1587C18.6474 25.5385 17.6988 25.5385 15.8016 25.5385Z" stroke="#FAD3B1" stroke-width="1.5" stroke-linejoin="round"/>
</svg>
