<svg width="70" height="69" viewBox="0 0 70 69" fill="none" xmlns="http://www.w3.org/2000/svg">
<path fill-rule="evenodd" clip-rule="evenodd" d="M35 69C44.2826 69 53.185 65.3652 59.7487 58.8952C66.3125 52.4252 70 43.65 70 34.5C70 25.35 66.3125 16.5748 59.7487 10.1048C53.185 3.63481 44.2826 0 35 0C25.7174 0 16.815 3.63481 10.2513 10.1048C3.68749 16.5748 0 25.35 0 34.5C0 43.65 3.68749 52.4252 10.2513 58.8952C16.815 65.3652 25.7174 69 35 69ZM33.0531 22.287C32.3942 21.8537 31.6284 21.6048 30.8373 21.5669C30.0461 21.5291 29.2594 21.7036 28.561 22.0719C27.8626 22.4402 27.2788 22.9886 26.8718 23.6583C26.4648 24.3281 26.2499 25.0943 26.25 25.875V43.125C26.2499 43.9057 26.4648 44.6719 26.8718 45.3417C27.2788 46.0114 27.8626 46.5598 28.561 46.9281C29.2594 47.2964 30.0461 47.4709 30.8373 47.4331C31.6284 47.3952 32.3942 47.1463 33.0531 46.713L46.1781 38.088C46.7773 37.6942 47.2686 37.1606 47.6084 36.5347C47.9482 35.9088 48.126 35.2099 48.126 34.5C48.126 33.7901 47.9482 33.0912 47.6084 32.4653C47.2686 31.8394 46.7773 31.3058 46.1781 30.912L33.0531 22.287Z" fill="#F5F5F5"/>
</svg>
