<svg width="152" height="86" viewBox="0 0 152 86" fill="none" xmlns="http://www.w3.org/2000/svg">
<path d="M3.33165 71.8009C2.24473 71.8009 1.41772 71.5928 0.850634 71.1768C0.283545 70.7541 0 70.13 0 69.3046C0 69.1436 0.0101266 68.9758 0.0303798 68.8013C0.050633 68.6202 0.0742617 68.449 0.101266 68.288C0.135021 68.1202 0.165401 67.9726 0.192405 67.8451C0.219409 67.7176 0.239663 67.6237 0.253165 67.5633L1.56962 67.8149C1.54937 67.9223 1.52236 68.0598 1.48861 68.2276C1.45485 68.3954 1.42447 68.5732 1.39747 68.7611C1.37047 68.9423 1.35696 69.1167 1.35696 69.2845C1.35696 69.6334 1.43123 69.9085 1.57975 70.1099C1.72827 70.3045 1.95443 70.442 2.25823 70.5225C2.56203 70.5964 2.94346 70.6333 3.40254 70.6333H6.10634V66.748H7.4633V71.8009H3.33165ZM2.30886 67.1204V65.9729H3.66583V67.1204H2.30886ZM3.69621 67.1204V65.9729H5.05317V67.1204H3.69621Z" fill="white"/>
<path d="M10.3381 71.8009V70.6333H11.4926V71.8009H10.3381ZM8.99131 71.8009V64.6845H10.3381V71.8009H8.99131ZM11.4926 71.8009V70.6333C11.5736 70.6333 11.6276 70.687 11.6546 70.7943C11.6816 70.895 11.6951 71.0359 11.6951 71.2171C11.6951 71.3915 11.6816 71.5325 11.6546 71.6398C11.6276 71.7472 11.5736 71.8009 11.4926 71.8009Z" fill="white"/>
<path d="M11.4917 71.8009V70.6333H16.7474L16.1297 71.1567V69.3046C16.1297 68.9423 16.0892 68.6604 16.0082 68.4591C15.9272 68.2511 15.7854 68.1068 15.5828 68.0263C15.3871 67.9391 15.1137 67.8954 14.7626 67.8954C14.4858 67.8954 14.2124 67.9156 13.9423 67.9558C13.679 67.9894 13.4731 68.0364 13.3246 68.0967L14.1651 67.3116C14.1246 67.466 14.0841 67.6606 14.0436 67.8954C14.0099 68.1303 13.9795 68.3819 13.9525 68.6504C13.9255 68.9121 13.912 69.1704 13.912 69.4254C13.912 69.6603 13.9221 69.9052 13.9423 70.1602C13.9693 70.4152 13.9963 70.64 14.0234 70.8346C14.0571 71.0292 14.0841 71.1634 14.1044 71.2372L12.8183 71.5895C12.7913 71.4956 12.7575 71.3412 12.717 71.1265C12.6765 70.9117 12.6394 70.6568 12.6056 70.3615C12.5786 70.0662 12.5651 69.7542 12.5651 69.4254C12.5651 69.0899 12.582 68.7678 12.6158 68.4591C12.6495 68.1437 12.6866 67.8619 12.7271 67.6136C12.7744 67.3586 12.8183 67.1539 12.8588 66.9996C13.0208 66.9392 13.274 66.8788 13.6183 66.8184C13.9626 66.758 14.344 66.7278 14.7626 66.7278C15.3702 66.7278 15.8731 66.8117 16.2715 66.9795C16.6765 67.1472 16.9769 67.419 17.1727 67.7948C17.3753 68.1706 17.4765 68.6772 17.4765 69.3147V71.8009H11.4917ZM11.4917 71.8009C11.4107 71.8009 11.3567 71.7472 11.3297 71.6398C11.3027 71.5325 11.2892 71.3915 11.2892 71.2171C11.2892 71.0359 11.3027 70.895 11.3297 70.7943C11.3567 70.687 11.4107 70.6333 11.4917 70.6333V71.8009Z" fill="white"/>
<path d="M20.445 71.8009V70.6333H21.5994V71.8009H20.445ZM19.0981 71.8009V64.6845H20.445V71.8009H19.0981ZM21.5994 71.8009V70.6333C21.6804 70.6333 21.7344 70.687 21.7614 70.7943C21.7884 70.895 21.8019 71.0359 21.8019 71.2171C21.8019 71.3915 21.7884 71.5325 21.7614 71.6398C21.7344 71.7472 21.6804 71.8009 21.5994 71.8009Z" fill="white"/>
<path d="M26.8441 71.8009V70.6333H27.9175V71.8009H26.8441ZM21.5985 71.8009V70.6333H25.953L25.4973 71.0057V69.1436C25.4973 68.7409 25.369 68.4356 25.1124 68.2276C24.8627 68.0196 24.4643 67.9156 23.9175 67.9156C23.7622 67.9156 23.5496 67.929 23.2795 67.9558C23.0095 67.976 22.7158 68.0095 22.3985 68.0565L22.2669 66.9895C22.5572 66.9224 22.8508 66.8654 23.1479 66.8184C23.4517 66.7715 23.7487 66.748 24.039 66.748C24.5926 66.748 25.0787 66.8453 25.4973 67.0399C25.9158 67.2278 26.2432 67.4995 26.4795 67.8552C26.7226 68.2108 26.8441 68.6403 26.8441 69.1436V71.8009H21.5985ZM21.5985 71.8009C21.5175 71.8009 21.4635 71.7472 21.4365 71.6398C21.4095 71.5325 21.396 71.3915 21.396 71.2171C21.396 71.0359 21.4095 70.895 21.4365 70.7943C21.4635 70.687 21.5175 70.6333 21.5985 70.6333V71.8009ZM27.9175 71.8009V70.6333C27.9918 70.6333 28.0424 70.687 28.0694 70.7943C28.1032 70.895 28.12 71.0359 28.12 71.2171C28.12 71.3915 28.1032 71.5325 28.0694 71.6398C28.0424 71.7472 27.9918 71.8009 27.9175 71.8009Z" fill="white"/>
<path d="M33.9026 71.8009V70.6333H34.976V71.8009H33.9026ZM27.9175 71.8009V70.6333H33.1735L32.5557 71.1567V69.3046C32.5557 68.9423 32.5152 68.6604 32.4342 68.4591C32.3532 68.2511 32.2114 68.1068 32.0089 68.0263C31.8131 67.9391 31.5397 67.8954 31.1886 67.8954C30.9118 67.8954 30.6384 67.9156 30.3684 67.9558C30.1051 67.9894 29.8992 68.0364 29.7507 68.0967L30.5912 67.3116C30.5507 67.466 30.5102 67.6606 30.4697 67.8954C30.4359 68.1303 30.4055 68.3819 30.3785 68.6504C30.3515 68.9121 30.338 69.1704 30.338 69.4254C30.338 69.6603 30.3481 69.9052 30.3684 70.1602C30.3954 70.4152 30.4224 70.64 30.4494 70.8346C30.4832 71.0292 30.5102 71.1634 30.5304 71.2372L29.2443 71.5895C29.2173 71.4956 29.1836 71.3412 29.1431 71.1265C29.1026 70.9117 29.0654 70.6568 29.0317 70.3615C29.0047 70.0662 28.9912 69.7542 28.9912 69.4254C28.9912 69.0899 29.008 68.7678 29.0418 68.4591C29.0756 68.1437 29.1127 67.8619 29.1532 67.6136C29.2005 67.3586 29.2443 67.1539 29.2848 66.9996C29.4469 66.9392 29.7 66.8788 30.0443 66.8184C30.3886 66.758 30.7701 66.7278 31.1886 66.7278C31.7962 66.7278 32.2992 66.8117 32.6975 66.9795C33.1026 67.1472 33.403 67.419 33.5988 67.7948C33.8013 68.1706 33.9026 68.6772 33.9026 69.3147V71.8009H27.9175ZM27.9175 71.8009C27.8365 71.8009 27.7827 71.7472 27.7557 71.6398C27.7287 71.5325 27.7152 71.3915 27.7152 71.2171C27.7152 71.0359 27.7287 70.895 27.7557 70.7943C27.7827 70.687 27.8365 70.6333 27.9175 70.6333V71.8009ZM34.976 71.8009V70.6333C35.057 70.6333 35.111 70.687 35.138 70.7943C35.165 70.895 35.1785 71.0359 35.1785 71.2171C35.1785 71.3915 35.165 71.5325 35.138 71.6398C35.111 71.7472 35.057 71.8009 34.976 71.8009Z" fill="white"/>
<path d="M37.4799 71.8009V70.6333H38.5432V71.8009H37.4799ZM36.123 71.8009V64.6845H37.4799V71.8009H36.123ZM34.9787 71.8009V70.6333H36.123V71.8009H34.9787ZM34.9787 71.8009C34.8977 71.8009 34.8437 71.7472 34.8167 71.6398C34.7896 71.5325 34.7761 71.3915 34.7761 71.2171C34.7761 71.0359 34.7896 70.895 34.8167 70.7943C34.8437 70.687 34.8977 70.6333 34.9787 70.6333V71.8009ZM38.5432 71.8009V70.6333C38.6242 70.6333 38.6783 70.687 38.7053 70.7943C38.7323 70.895 38.7458 71.0359 38.7458 71.2171C38.7458 71.3915 38.7323 71.5325 38.7053 71.6398C38.6783 71.7472 38.6242 71.8009 38.5432 71.8009Z" fill="white"/>
<path d="M39.6831 71.8009V64.6845H41.0401V71.8009H39.6831ZM38.5388 71.8009V70.6333H39.6831V71.8009H38.5388ZM38.5388 71.8009C38.4578 71.8009 38.4038 71.7472 38.3768 71.6398C38.3498 71.5325 38.3363 71.3915 38.3363 71.2171C38.3363 71.0359 38.3498 70.895 38.3768 70.7943C38.4038 70.687 38.4578 70.6333 38.5388 70.6333V71.8009Z" fill="white"/>
<path d="M53.791 71.8009V70.6333H54.8543V71.8009H53.791ZM47.8366 71.8009C46.7497 71.8009 45.9227 71.5928 45.3556 71.1768C44.7885 70.7541 44.5049 70.13 44.5049 69.3046C44.5049 69.1436 44.5151 68.9758 44.5353 68.8013C44.5556 68.6202 44.5792 68.449 44.6062 68.288C44.64 68.1202 44.6704 67.9726 44.6974 67.8451C44.7244 67.7176 44.7446 67.6237 44.7581 67.5633L46.0746 67.8149C46.0543 67.9223 46.0273 68.0598 45.9936 68.2276C45.9598 68.3954 45.9294 68.5732 45.9024 68.7611C45.8754 68.9423 45.8619 69.1167 45.8619 69.2845C45.8619 69.6334 45.9362 69.9085 46.0847 70.1099C46.2332 70.3045 46.4594 70.442 46.7632 70.5225C47.067 70.5964 47.4484 70.6333 47.9075 70.6333H52.8391L52.4341 70.9856V67.6237L52.7784 67.9156H51.5024C51.1986 67.9156 50.9623 67.9525 50.7936 68.0263C50.6315 68.1001 50.5134 68.2377 50.4391 68.439C50.3716 68.6336 50.3379 68.9121 50.3379 69.2744C50.3379 69.6703 50.3716 69.9656 50.4391 70.1602C50.5134 70.3481 50.6315 70.4756 50.7936 70.5427C50.9623 70.6031 51.1986 70.6333 51.5024 70.6333V71.6801C50.9218 71.6801 50.4459 71.5996 50.0746 71.4385C49.71 71.2775 49.4366 71.0225 49.2543 70.6735C49.0788 70.3179 48.991 69.8515 48.991 69.2744C48.991 68.7242 49.0788 68.2612 49.2543 67.8854C49.4366 67.5096 49.71 67.2278 50.0746 67.0399C50.4459 66.8453 50.9218 66.748 51.5024 66.748H53.791V71.8009H47.8366ZM54.8543 71.8009V70.6333C54.9353 70.6333 54.9893 70.687 55.0164 70.7943C55.0434 70.895 55.0569 71.0359 55.0569 71.2171C55.0569 71.3915 55.0434 71.5325 55.0164 71.6398C54.9893 71.7472 54.9353 71.8009 54.8543 71.8009ZM50.9657 65.8219V64.6745H52.3227V65.8219H50.9657Z" fill="white"/>
<path d="M54.8561 71.8009V70.6333H57.0029C57.2932 70.6333 57.5734 70.5796 57.8434 70.4722C58.1135 70.3581 58.3599 70.2105 58.5827 70.0293C58.8122 69.8414 59.0113 69.6368 59.1801 69.4153C59.3557 69.1872 59.4907 68.9557 59.5852 68.7208C59.6865 68.4859 59.7371 68.2645 59.7371 68.0565V67.4123L60.3852 68.4792C60.0341 68.2914 59.6763 68.1504 59.3118 68.0565C58.9472 67.9625 58.5995 67.9156 58.2687 67.9156C57.9447 67.9156 57.597 67.9625 57.2257 68.0565C56.8611 68.1504 56.5067 68.2914 56.1624 68.4792L56.8105 67.4123V68.0565C56.8105 68.2645 56.8578 68.4859 56.9523 68.7208C57.0535 68.9557 57.1886 69.1872 57.3573 69.4153C57.5261 69.6368 57.7253 69.8414 57.9548 70.0293C58.1843 70.2105 58.4341 70.3581 58.7042 70.4722C58.9742 70.5796 59.251 70.6333 59.5346 70.6333H61.6206V71.8009H59.9599C59.4333 71.8009 58.9405 71.717 58.4814 71.5492C58.0223 71.3815 57.6071 71.16 57.2358 70.8849C56.8645 70.6031 56.5438 70.2977 56.2738 69.9689C56.0105 69.6334 55.808 69.3013 55.6662 68.9725C55.5244 68.6369 55.4535 68.3316 55.4535 68.0565V67.4828C55.7438 67.3217 56.051 67.1875 56.3751 67.0801C56.7059 66.9728 57.0333 66.8922 57.3573 66.8386C57.6881 66.7782 57.9919 66.748 58.2687 66.748C58.5523 66.748 58.8561 66.7782 59.1801 66.8386C59.5042 66.8922 59.8282 66.9728 60.1523 67.0801C60.4831 67.1875 60.7936 67.3217 61.0839 67.4828V68.0565C61.0839 68.3316 61.013 68.6369 60.8713 68.9725C60.7295 69.3013 60.5236 69.6334 60.2535 69.9689C59.9903 70.2977 59.673 70.6031 59.3016 70.8849C58.9303 71.16 58.5151 71.3815 58.0561 71.5492C57.597 71.717 57.1042 71.8009 56.5776 71.8009H54.8561ZM54.8561 71.8009C54.7751 71.8009 54.7211 71.7472 54.694 71.6398C54.667 71.5325 54.6535 71.3915 54.6535 71.2171C54.6535 71.0359 54.667 70.895 54.694 70.7943C54.7211 70.687 54.7751 70.6333 54.8561 70.6333V71.8009ZM61.6206 71.8009V70.6333C61.7016 70.6333 61.7557 70.687 61.7827 70.7943C61.8097 70.895 61.8232 71.0359 61.8232 71.2171C61.8232 71.3915 61.8097 71.5325 61.7827 71.6398C61.7557 71.7472 61.7016 71.8009 61.6206 71.8009Z" fill="white"/>
<path d="M70.1165 71.8009V70.6333H71.1899V71.8009H70.1165ZM67.5748 71.8009C67.298 71.8009 67.0212 71.7505 66.7444 71.6499C66.4743 71.5425 66.2245 71.3848 65.995 71.1768L66.8254 70.3212C66.9604 70.4286 67.0853 70.5091 67.2001 70.5628C67.3216 70.6098 67.4465 70.6333 67.5748 70.6333H69.4684L68.7697 71.2674V69.0328C68.7697 68.9255 68.7562 68.7644 68.7292 68.5497C68.7089 68.3283 68.6752 68.08 68.6279 67.8048C68.5874 67.523 68.5368 67.2378 68.476 66.9493L69.8127 66.748C69.86 66.9895 69.9039 67.2613 69.9444 67.5633C69.9916 67.8585 70.0321 68.1404 70.0659 68.4088C70.0997 68.6705 70.1165 68.8785 70.1165 69.0328V71.8009H67.5748ZM61.6206 71.8009V70.6333H63.0988L62.795 70.9453V67.7747H64.152V71.8009H61.6206ZM64.152 71.8009V70.6333H64.9722C65.1882 70.6333 65.3537 70.6031 65.4684 70.5427C65.5832 70.4756 65.6608 70.3447 65.7013 70.1501C65.7486 69.9488 65.7722 69.6502 65.7722 69.2543V67.2714H67.1292V69.2543C67.1292 69.8515 67.0515 70.338 66.8963 70.7138C66.7477 71.0896 66.5148 71.3647 66.1975 71.5392C65.8802 71.7136 65.4718 71.8009 64.9722 71.8009H64.152ZM61.6206 71.8009C61.5396 71.8009 61.4853 71.7472 61.4583 71.6398C61.4313 71.5325 61.4178 71.3915 61.4178 71.2171C61.4178 71.0359 61.4313 70.895 61.4583 70.7943C61.4853 70.687 61.5396 70.6333 61.6206 70.6333V71.8009ZM71.1899 71.8009V70.6333C71.271 70.6333 71.325 70.687 71.352 70.7943C71.379 70.895 71.3925 71.0359 71.3925 71.2171C71.3925 71.3915 71.379 71.5325 71.352 71.6398C71.325 71.7472 71.271 71.8009 71.1899 71.8009Z" fill="white"/>
<path d="M71.1931 71.8009V70.6333H76.4488L75.8311 71.1567V69.3046C75.8311 68.9423 75.7906 68.6604 75.7096 68.4591C75.6286 68.2511 75.4868 68.1068 75.2843 68.0263C75.0885 67.9391 74.8151 67.8954 74.464 67.8954C74.1872 67.8954 73.9138 67.9156 73.6437 67.9558C73.3805 67.9894 73.1745 68.0364 73.026 68.0967L73.8665 67.3116C73.826 67.466 73.7855 67.6606 73.745 67.8954C73.7113 68.1303 73.6809 68.3819 73.6539 68.6504C73.6269 68.9121 73.6134 69.1704 73.6134 69.4254C73.6134 69.6603 73.6235 69.9052 73.6437 70.1602C73.6707 70.4152 73.6978 70.64 73.7248 70.8346C73.7585 71.0292 73.7855 71.1634 73.8058 71.2372L72.5197 71.5895C72.4927 71.4956 72.4589 71.3412 72.4184 71.1265C72.3779 70.9117 72.3408 70.6568 72.307 70.3615C72.28 70.0662 72.2665 69.7542 72.2665 69.4254C72.2665 69.0899 72.2834 68.7678 72.3172 68.4591C72.3509 68.1437 72.3881 67.8619 72.4286 67.6136C72.4758 67.3586 72.5197 67.1539 72.5602 66.9996C72.7222 66.9392 72.9754 66.8788 73.3197 66.8184C73.664 66.758 74.0454 66.7278 74.464 66.7278C75.0716 66.7278 75.5746 66.8117 75.9729 66.9795C76.3779 67.1472 76.6784 67.419 76.8741 67.7948C77.0767 68.1706 77.1779 68.6772 77.1779 69.3147V71.8009H71.1931ZM71.1931 71.8009C71.1121 71.8009 71.0581 71.7472 71.0311 71.6398C71.0041 71.5325 70.9906 71.3915 70.9906 71.2171C70.9906 71.0359 71.0041 70.895 71.0311 70.7943C71.0581 70.687 71.1121 70.6333 71.1931 70.6333V71.8009Z" fill="white"/>
<path d="M80.4782 74.2971C80.3905 74.2971 80.296 74.2938 80.1947 74.2871C80.0934 74.2803 79.9888 74.2703 79.8808 74.2569L79.9314 73.1094C80.0394 73.1161 80.1407 73.1228 80.2352 73.1295C80.3365 73.1362 80.4107 73.1396 80.458 73.1396C80.7213 73.1396 80.9306 73.0356 81.0858 72.8276C81.2479 72.6195 81.3289 72.3276 81.3289 71.9519V66.748H82.6858V71.9519C82.6858 72.4082 82.5913 72.8141 82.4023 73.1698C82.22 73.5254 81.9635 73.8006 81.6327 73.9952C81.3019 74.1965 80.9171 74.2971 80.4782 74.2971Z" fill="white"/>
<path d="M85.625 71.8009V70.6333H86.7794V71.8009H85.625ZM84.2782 71.8009V64.6845H85.625V71.8009H84.2782ZM86.7794 71.8009V70.6333C86.8605 70.6333 86.9145 70.687 86.9415 70.7943C86.9685 70.895 86.982 71.0359 86.982 71.2171C86.982 71.3915 86.9685 71.5325 86.9415 71.6398C86.9145 71.7472 86.8605 71.8009 86.7794 71.8009Z" fill="white"/>
<path d="M95.2748 71.8009V70.6333H96.3482V71.8009H95.2748ZM92.733 71.8009C92.4562 71.8009 92.1794 71.7505 91.9026 71.6499C91.6326 71.5425 91.3828 71.3848 91.1533 71.1768L91.9836 70.3212C92.1187 70.4286 92.2435 70.5091 92.3583 70.5628C92.4798 70.6098 92.6047 70.6333 92.733 70.6333H94.6267L93.9279 71.2674V69.0328C93.9279 68.9255 93.9144 68.7644 93.8874 68.5497C93.8672 68.3283 93.8334 68.08 93.7862 67.8048C93.7457 67.523 93.695 67.2378 93.6343 66.9493L94.971 66.748C95.0182 66.9895 95.0621 67.2613 95.1026 67.5633C95.1499 67.8585 95.1904 68.1404 95.2242 68.4088C95.2579 68.6705 95.2748 68.8785 95.2748 69.0328V71.8009H92.733ZM86.7786 71.8009V70.6333H88.257L87.9533 70.9453V67.7747H89.3102V71.8009H86.7786ZM89.3102 71.8009V70.6333H90.1305C90.3465 70.6333 90.5119 70.6031 90.6267 70.5427C90.7414 70.4756 90.8191 70.3447 90.8596 70.1501C90.9068 69.9488 90.9305 69.6502 90.9305 69.2543V67.2714H92.2874V69.2543C92.2874 69.8515 92.2098 70.338 92.0545 70.7138C91.906 71.0896 91.6731 71.3647 91.3558 71.5392C91.0385 71.7136 90.6301 71.8009 90.1305 71.8009H89.3102ZM86.7786 71.8009C86.6976 71.8009 86.6435 71.7472 86.6165 71.6398C86.5895 71.5325 86.576 71.3915 86.576 71.2171C86.576 71.0359 86.5895 70.895 86.6165 70.7943C86.6435 70.687 86.6976 70.6333 86.7786 70.6333V71.8009ZM96.3482 71.8009V70.6333C96.4292 70.6333 96.4832 70.687 96.5102 70.7943C96.5372 70.895 96.5507 71.0359 96.5507 71.2171C96.5507 71.3915 96.5372 71.5325 96.5102 71.6398C96.4832 71.7472 96.4292 71.8009 96.3482 71.8009ZM91.0317 64.2819V63.2754H92.2064V64.2819H91.0317ZM90.0495 65.8219V64.6745H91.3558V65.8219H90.0495ZM91.8925 65.8219V64.6745H93.1988V65.8219H91.8925Z" fill="white"/>
<path d="M99.3083 71.8009V70.6333H100.574V71.8009H99.3083ZM100.574 71.8009V70.6333C100.655 70.6333 100.709 70.687 100.736 70.7943C100.763 70.895 100.777 71.0359 100.777 71.2171C100.777 71.3915 100.763 71.5325 100.736 71.6398C100.709 71.7472 100.655 71.8009 100.574 71.8009ZM96.3514 71.8009V70.6333H98.7514L97.9615 71.2875V66.748H99.3083V71.8009H96.3514ZM96.3514 71.8009C96.2703 71.8009 96.2163 71.7472 96.1893 71.6398C96.1623 71.5325 96.1488 71.3915 96.1488 71.2171C96.1488 71.0359 96.1623 70.895 96.1893 70.7943C96.2163 70.687 96.2703 70.6333 96.3514 70.6333V71.8009ZM96.7564 66.144V64.9966H98.1134V66.144H96.7564ZM98.1438 66.144V64.9966H99.5007V66.144H98.1438Z" fill="white"/>
<path d="M109.07 71.8009V70.6333H110.144V71.8009H109.07ZM106.529 71.8009C106.252 71.8009 105.975 71.7505 105.698 71.6499C105.428 71.5425 105.178 71.3848 104.949 71.1768L105.779 70.3212C105.914 70.4286 106.039 70.5091 106.154 70.5628C106.275 70.6098 106.4 70.6333 106.529 70.6333H108.422L107.723 71.2674V69.0328C107.723 68.9255 107.71 68.7644 107.683 68.5497C107.663 68.3283 107.629 68.08 107.582 67.8048C107.541 67.523 107.491 67.2378 107.43 66.9493L108.766 66.748C108.814 66.9895 108.858 67.2613 108.898 67.5633C108.945 67.8585 108.986 68.1404 109.02 68.4088C109.053 68.6705 109.07 68.8785 109.07 69.0328V71.8009H106.529ZM100.574 71.8009V70.6333H102.053L101.749 70.9453V67.7747H103.106V71.8009H100.574ZM103.106 71.8009V70.6333H103.926C104.142 70.6333 104.307 70.6031 104.422 70.5427C104.537 70.4756 104.615 70.3447 104.655 70.1501C104.702 69.9488 104.726 69.6502 104.726 69.2543V67.2714H106.083V69.2543C106.083 69.8515 106.005 70.338 105.85 70.7138C105.701 71.0896 105.469 71.3647 105.151 71.5392C104.834 71.7136 104.426 71.8009 103.926 71.8009H103.106ZM100.574 71.8009C100.493 71.8009 100.439 71.7472 100.412 71.6398C100.385 71.5325 100.372 71.3915 100.372 71.2171C100.372 71.0359 100.385 70.895 100.412 70.7943C100.439 70.687 100.493 70.6333 100.574 70.6333V71.8009ZM110.144 71.8009V70.6333C110.225 70.6333 110.279 70.687 110.306 70.7943C110.333 70.895 110.346 71.0359 110.346 71.2171C110.346 71.3915 110.333 71.5325 110.306 71.6398C110.279 71.7472 110.225 71.8009 110.144 71.8009Z" fill="white"/>
<path d="M116.132 71.8009V70.6333H117.205V71.8009H116.132ZM110.147 71.8009V70.6333H115.403L114.785 71.1567V69.3046C114.785 68.9423 114.744 68.6604 114.663 68.4591C114.582 68.2511 114.441 68.1068 114.238 68.0263C114.042 67.9391 113.769 67.8954 113.418 67.8954C113.141 67.8954 112.868 67.9156 112.598 67.9558C112.334 67.9894 112.128 68.0364 111.98 68.0967L112.82 67.3116C112.78 67.466 112.739 67.6606 112.699 67.8954C112.665 68.1303 112.635 68.3819 112.608 68.6504C112.581 68.9121 112.567 69.1704 112.567 69.4254C112.567 69.6603 112.577 69.9052 112.598 70.1602C112.625 70.4152 112.652 70.64 112.679 70.8346C112.712 71.0292 112.739 71.1634 112.76 71.2372L111.473 71.5895C111.446 71.4956 111.413 71.3412 111.372 71.1265C111.332 70.9117 111.295 70.6568 111.261 70.3615C111.234 70.0662 111.22 69.7542 111.22 69.4254C111.22 69.0899 111.237 68.7678 111.271 68.4591C111.305 68.1437 111.342 67.8619 111.382 67.6136C111.43 67.3586 111.473 67.1539 111.514 66.9996C111.676 66.9392 111.929 66.8788 112.273 66.8184C112.618 66.758 112.999 66.7278 113.418 66.7278C114.025 66.7278 114.528 66.8117 114.927 66.9795C115.332 67.1472 115.632 67.419 115.828 67.7948C116.03 68.1706 116.132 68.6772 116.132 69.3147V71.8009H110.147ZM110.147 71.8009C110.066 71.8009 110.012 71.7472 109.985 71.6398C109.958 71.5325 109.944 71.3915 109.944 71.2171C109.944 71.0359 109.958 70.895 109.985 70.7943C110.012 70.687 110.066 70.6333 110.147 70.6333V71.8009ZM117.205 71.8009V70.6333C117.286 70.6333 117.34 70.687 117.367 70.7943C117.394 70.895 117.408 71.0359 117.408 71.2171C117.408 71.3915 117.394 71.5325 117.367 71.6398C117.34 71.7472 117.286 71.8009 117.205 71.8009Z" fill="white"/>
<path d="M118.352 71.8009V64.6845H119.709V71.8009H118.352ZM117.208 71.8009V70.6333H118.352V71.8009H117.208ZM117.208 71.8009C117.127 71.8009 117.073 71.7472 117.046 71.6398C117.019 71.5325 117.005 71.3915 117.005 71.2171C117.005 71.0359 117.019 70.895 117.046 70.7943C117.073 70.687 117.127 70.6333 117.208 70.6333V71.8009Z" fill="white"/>
<path d="M121.333 71.8009V64.6845H122.68V71.8009H121.333Z" fill="white"/>
<path d="M133.67 71.8009V70.6333H134.733V71.8009H133.67ZM129.538 71.8009C128.451 71.8009 127.624 71.5928 127.057 71.1768C126.49 70.7541 126.207 70.13 126.207 69.3046C126.207 69.1436 126.217 68.9758 126.237 68.8013C126.257 68.6202 126.281 68.449 126.308 68.288C126.342 68.1202 126.372 67.9726 126.399 67.8451C126.426 67.7176 126.446 67.6237 126.46 67.5633L127.776 67.8149C127.756 67.9223 127.729 68.0598 127.695 68.2276C127.661 68.3954 127.631 68.5732 127.604 68.7611C127.577 68.9423 127.564 69.1167 127.564 69.2845C127.564 69.6334 127.638 69.9085 127.786 70.1099C127.935 70.3045 128.161 70.442 128.465 70.5225C128.769 70.5964 129.15 70.6333 129.609 70.6333H132.313V66.748H133.67V71.8009H129.538ZM134.733 71.8009V70.6333C134.814 70.6333 134.868 70.687 134.895 70.7943C134.922 70.895 134.936 71.0359 134.936 71.2171C134.936 71.3915 134.922 71.5325 134.895 71.6398C134.868 71.7472 134.814 71.8009 134.733 71.8009ZM129.336 73.9448V72.7974H130.693V73.9448H129.336Z" fill="white"/>
<path d="M137.689 71.8009V70.6333H138.954V71.8009H137.689ZM138.954 71.8009V70.6333C139.035 70.6333 139.089 70.687 139.116 70.7943C139.143 70.895 139.157 71.0359 139.157 71.2171C139.157 71.3915 139.143 71.5325 139.116 71.6398C139.089 71.7472 139.035 71.8009 138.954 71.8009ZM134.732 71.8009V70.6333H137.132L136.342 71.2875V66.748H137.689V71.8009H134.732ZM134.732 71.8009C134.651 71.8009 134.597 71.7472 134.57 71.6398C134.543 71.5325 134.529 71.3915 134.529 71.2171C134.529 71.0359 134.543 70.895 134.57 70.7943C134.597 70.687 134.651 70.6333 134.732 70.6333V71.8009ZM135.137 66.144V64.9966H136.494V66.144H135.137ZM136.524 66.144V64.9966H137.881V66.144H136.524Z" fill="white"/>
<path d="M144.949 71.8009V70.6333H146.012V71.8009H144.949ZM138.954 71.8009V70.6333H144.038L143.592 70.9956V69.6267C143.592 69.2778 143.555 68.9993 143.481 68.7913C143.407 68.5833 143.292 68.4323 143.137 68.3383C142.988 68.2444 142.799 68.1974 142.569 68.1974H140.352L139.511 66.9895L140.028 66.0232C140.088 65.9092 140.156 65.785 140.23 65.6508C140.304 65.5166 140.402 65.3556 140.524 65.1677C140.645 64.9798 140.801 64.7449 140.99 64.4631L142.124 65.0972C141.948 65.3589 141.807 65.577 141.699 65.7515C141.591 65.9192 141.499 66.0669 141.425 66.1944C141.351 66.3219 141.283 66.4494 141.223 66.5769L140.818 67.3318L140.615 67.0298H142.569C143.002 67.0298 143.369 67.1003 143.673 67.2412C143.977 67.3821 144.22 67.5767 144.402 67.825C144.591 68.0733 144.73 68.3517 144.818 68.6604C144.905 68.9691 144.949 69.2912 144.949 69.6267V71.8009H138.954ZM138.954 71.8009C138.873 71.8009 138.819 71.7472 138.792 71.6398C138.765 71.5325 138.752 71.3915 138.752 71.2171C138.752 71.0359 138.765 70.895 138.792 70.7943C138.819 70.687 138.873 70.6333 138.954 70.6333V71.8009ZM146.012 71.8009V70.6333C146.094 70.6333 146.148 70.687 146.175 70.7943C146.202 70.895 146.215 71.0359 146.215 71.2171C146.215 71.3915 146.202 71.5325 146.175 71.6398C146.148 71.7472 146.094 71.8009 146.012 71.8009Z" fill="white"/>
<path d="M146.015 71.8009V70.6333H151.271L150.653 71.1567V69.3046C150.653 68.9423 150.613 68.6604 150.532 68.4591C150.451 68.2511 150.309 68.1068 150.106 68.0263C149.911 67.9391 149.637 67.8954 149.286 67.8954C149.009 67.8954 148.736 67.9156 148.466 67.9558C148.203 67.9894 147.997 68.0364 147.848 68.0967L148.689 67.3116C148.648 67.466 148.608 67.6606 148.567 67.8954C148.533 68.1303 148.503 68.3819 148.476 68.6504C148.449 68.9121 148.435 69.1704 148.435 69.4254C148.435 69.6603 148.446 69.9052 148.466 70.1602C148.493 70.4152 148.52 70.64 148.547 70.8346C148.581 71.0292 148.608 71.1634 148.628 71.2372L147.342 71.5895C147.315 71.4956 147.281 71.3412 147.24 71.1265C147.2 70.9117 147.163 70.6568 147.129 70.3615C147.102 70.0662 147.089 69.7542 147.089 69.4254C147.089 69.0899 147.105 68.7678 147.139 68.4591C147.173 68.1437 147.21 67.8619 147.251 67.6136C147.298 67.3586 147.342 67.1539 147.382 66.9996C147.544 66.9392 147.797 66.8788 148.142 66.8184C148.486 66.758 148.867 66.7278 149.286 66.7278C149.894 66.7278 150.397 66.8117 150.795 66.9795C151.2 67.1472 151.5 67.419 151.696 67.7948C151.899 68.1706 152 68.6772 152 69.3147V71.8009H146.015ZM146.015 71.8009C145.934 71.8009 145.88 71.7472 145.853 71.6398C145.826 71.5325 145.813 71.3915 145.813 71.2171C145.813 71.0359 145.826 70.895 145.853 70.7943C145.88 70.687 145.934 70.6333 146.015 70.6333V71.8009Z" fill="white"/>
<path d="M24.7098 82.5375C24.24 82.5375 23.8727 82.4677 23.6081 82.3281C23.3488 82.1831 23.1652 81.963 23.0572 81.6678C22.9546 81.3672 22.9033 80.986 22.9033 80.5243C22.9033 80.0627 22.9546 79.6842 23.0572 79.3889C23.1652 79.0883 23.3488 78.8682 23.6081 78.7286C23.8727 78.5837 24.24 78.5112 24.7098 78.5112H26.3868V82.2153H25.7549V78.8092L26.079 79.083H24.7098C24.3966 79.083 24.1536 79.1205 23.9807 79.1957C23.8133 79.2708 23.6972 79.4131 23.6324 79.6225C23.5676 79.8265 23.5352 80.1271 23.5352 80.5243C23.5352 80.9216 23.5676 81.2249 23.6324 81.4343C23.6972 81.6383 23.8133 81.7778 23.9807 81.853C24.1536 81.9281 24.3966 81.9657 24.7098 81.9657H27.2617V82.5375H24.7098ZM27.2617 82.5375V81.9657C27.3319 81.9657 27.3752 81.9926 27.3914 82.0462C27.413 82.0946 27.4238 82.1617 27.4238 82.2476C27.4238 82.3335 27.413 82.4032 27.3914 82.4569C27.3752 82.5106 27.3319 82.5375 27.2617 82.5375ZM23.924 77.7865V77.0618H24.5559V77.7865H23.924ZM25.0339 77.7865V77.0618H25.6658V77.7865H25.0339Z" fill="white"/>
<path d="M28.243 82.5375V76.7639H28.8749V82.5375H28.243ZM27.2628 82.5375V81.9657H28.243V82.5375H27.2628ZM27.2628 82.5375C27.1925 82.5375 27.1493 82.5106 27.1331 82.4569C27.1115 82.4032 27.1007 82.3335 27.1007 82.2476C27.1007 82.1617 27.1115 82.0946 27.1331 82.0462C27.1493 81.9926 27.1925 81.9657 27.2628 81.9657V82.5375Z" fill="white"/>
<path d="M31.3814 84.317C31.1923 84.317 30.9898 84.3009 30.7738 84.2687C30.5631 84.2419 30.3309 84.2016 30.0771 84.1479L30.1743 83.6406C30.4605 83.6782 30.6982 83.7051 30.8872 83.7212C31.0816 83.7373 31.2463 83.7453 31.3814 83.7453C31.8296 83.7453 32.1564 83.6594 32.3616 83.4876C32.5668 83.3212 32.6695 83.077 32.6695 82.7549V78.8736L32.9935 79.083H31.6244C31.3112 79.083 31.0681 79.1205 30.8953 79.1957C30.7279 79.2708 30.6117 79.4131 30.5469 79.6225C30.4821 79.8265 30.4497 80.1271 30.4497 80.5243C30.4497 80.9216 30.4821 81.2249 30.5469 81.4343C30.6117 81.6383 30.7279 81.7778 30.8953 81.853C31.0681 81.9281 31.3112 81.9657 31.6244 81.9657H32.6695V82.5375H31.6244C31.1545 82.5375 30.7873 82.4677 30.5226 82.3281C30.2634 82.1831 30.0798 81.963 29.9717 81.6678C29.8691 81.3672 29.8178 80.986 29.8178 80.5243C29.8178 80.0627 29.8691 79.6842 29.9717 79.3889C30.0798 79.0883 30.2634 78.8682 30.5226 78.7286C30.7873 78.5837 31.1545 78.5112 31.6244 78.5112H33.3014V82.7468C33.3014 83.0796 33.2231 83.3642 33.0664 83.6004C32.9152 83.8366 32.6965 84.0137 32.4102 84.1318C32.124 84.2553 31.781 84.317 31.3814 84.317Z" fill="white"/>
<path d="M37.3676 82.5375V81.9657H38.2425V82.5375H37.3676ZM34.2324 82.5375V81.9657H37.2542L36.7357 82.4247V80.6693C36.7357 80.272 36.6898 79.958 36.5979 79.7271C36.5061 79.4963 36.3549 79.3326 36.1443 79.236C35.939 79.134 35.6609 79.083 35.3098 79.083H34.6536V78.5112H35.3098C35.7419 78.5112 36.1119 78.5783 36.4197 78.7125C36.7276 78.8468 36.9625 79.0722 37.1245 79.3889C37.2866 79.7003 37.3676 80.1271 37.3676 80.6693V82.5375H34.2324ZM38.2425 82.5375V81.9657C38.3127 81.9657 38.3559 81.9926 38.3721 82.0462C38.3937 82.0946 38.4045 82.1617 38.4045 82.2476C38.4045 82.3335 38.3937 82.4032 38.3721 82.4569C38.3559 82.5106 38.3127 82.5375 38.2425 82.5375Z" fill="white"/>
<path d="M39.224 82.5375V76.7639H39.8559V82.5375H39.224ZM38.2438 82.5375V81.9657H39.224V82.5375H38.2438ZM38.2438 82.5375C38.1736 82.5375 38.1304 82.5106 38.1142 82.4569C38.0926 82.4032 38.0817 82.3335 38.0817 82.2476C38.0817 82.1617 38.0926 82.0946 38.1142 82.0462C38.1304 81.9926 38.1736 81.9657 38.2438 81.9657V82.5375Z" fill="white"/>
<path d="M41.2525 82.5375V76.7639H41.8763V82.5375H41.2525Z" fill="white"/>
<path d="M53.6578 82.5375V81.9657H54.5328V82.5375H53.6578ZM47.031 84.5345C46.6043 84.5345 46.2182 84.4566 45.8725 84.3009C45.5269 84.1452 45.2541 83.9278 45.0543 83.6487C44.8545 83.3695 44.7545 83.0501 44.7545 82.6904C44.7545 82.5777 44.7626 82.4301 44.7788 82.2476C44.8004 82.0597 44.8248 81.853 44.8518 81.6275C44.8842 81.3967 44.9193 81.1659 44.9571 80.935C44.9949 80.6988 45.03 80.476 45.0624 80.2667L45.6862 80.3633C45.6268 80.7337 45.5728 81.0773 45.5242 81.394C45.481 81.7054 45.4459 81.9738 45.4188 82.1992C45.3972 82.4193 45.3864 82.5831 45.3864 82.6904C45.3864 82.9374 45.4539 83.1548 45.589 83.3427C45.7294 83.5359 45.9238 83.6863 46.1723 83.7936C46.4207 83.9064 46.7069 83.9627 47.031 83.9627C47.355 83.9627 47.6332 83.9117 47.8654 83.8097C48.0977 83.7077 48.2759 83.5655 48.4001 83.3829C48.5243 83.2004 48.5864 82.9857 48.5864 82.7388V79.3165H49.2183V82.7388C49.2183 83.1145 49.1184 83.4366 48.9186 83.7051C48.7242 83.9735 48.4622 84.1775 48.1328 84.317C47.8033 84.462 47.4361 84.5345 47.031 84.5345ZM49.2183 82.5375V81.9657H50.1257C50.3093 81.9657 50.4497 81.9389 50.547 81.8852C50.6442 81.8315 50.7117 81.7242 50.7495 81.5631C50.7873 81.4021 50.8062 81.1658 50.8062 80.8545V78.9139H51.4381V80.8545C51.4381 81.2732 51.3922 81.606 51.3004 81.853C51.214 82.0999 51.0735 82.2771 50.8791 82.3845C50.6901 82.4865 50.4389 82.5375 50.1257 82.5375H49.2183ZM51.8351 82.5375C51.6514 82.5375 51.4705 82.5026 51.2923 82.4328C51.1194 82.363 50.9493 82.2529 50.7819 82.1026L51.1951 81.6758C51.3193 81.7778 51.43 81.853 51.5272 81.9013C51.6298 81.9443 51.7324 81.9657 51.8351 81.9657H53.2771L53.034 82.2234V80.2989C53.034 80.2022 53.0232 80.0654 53.0016 79.8882C52.98 79.711 52.9503 79.5124 52.9125 79.2923C52.8801 79.0668 52.8423 78.8414 52.7991 78.6159L53.4148 78.5112C53.4526 78.6991 53.4904 78.9085 53.5282 79.1393C53.566 79.3702 53.5957 79.5903 53.6173 79.7996C53.6443 80.0036 53.6578 80.17 53.6578 80.2989V82.5375H51.8351ZM54.5328 82.5375V81.9657C54.603 81.9657 54.6462 81.9926 54.6624 82.0462C54.684 82.0946 54.6948 82.1617 54.6948 82.2476C54.6948 82.3335 54.684 82.4032 54.6624 82.4569C54.6462 82.5106 54.603 82.5375 54.5328 82.5375Z" fill="white"/>
<path d="M56.1455 82.5375V81.9657H57.0204V82.5375H56.1455ZM55.5136 82.5375V76.7639H56.1455V82.5375H55.5136ZM54.5328 82.5375V81.9657H55.5136V82.5375H54.5328ZM54.5328 82.5375C54.4626 82.5375 54.4199 82.5106 54.4037 82.4569C54.3821 82.4032 54.3713 82.3335 54.3713 82.2476C54.3713 82.1617 54.3821 82.0946 54.4037 82.0462C54.4199 81.9926 54.4626 81.9657 54.5328 81.9657V82.5375ZM57.0204 82.5375V81.9657C57.0907 81.9657 57.1339 81.9926 57.1501 82.0462C57.1717 82.0946 57.1825 82.1617 57.1825 82.2476C57.1825 82.3335 57.1717 82.4032 57.1501 82.4569C57.1339 82.5106 57.0907 82.5375 57.0204 82.5375Z" fill="white"/>
<path d="M61.0277 82.5375V81.9657H61.9026V82.5375H61.0277ZM57.0175 82.5375V81.9657H60.5902L60.3958 82.1348V80.1378C60.3958 79.7889 60.285 79.5285 60.0636 79.3567C59.8476 79.1796 59.5154 79.091 59.0672 79.091C58.9267 79.091 58.7242 79.1044 58.4596 79.1313C58.1949 79.1527 57.9168 79.185 57.6251 79.2279L57.5522 78.7125C57.7736 78.6589 58.0167 78.6132 58.2813 78.5757C58.546 78.5327 58.8025 78.5112 59.0509 78.5112C59.4614 78.5112 59.8125 78.5757 60.1041 78.7045C60.4012 78.828 60.628 79.0105 60.7846 79.2521C60.9466 79.4936 61.0277 79.7889 61.0277 80.1378V82.5375H57.0175ZM57.0175 82.5375C56.9473 82.5375 56.9041 82.5106 56.8879 82.4569C56.8663 82.4032 56.8555 82.3335 56.8555 82.2476C56.8555 82.1617 56.8663 82.0946 56.8879 82.0462C56.9041 81.9926 56.9473 81.9657 57.0175 81.9657V82.5375ZM61.9026 82.5375V81.9657C61.9728 81.9657 62.016 81.9926 62.0322 82.0462C62.0538 82.0946 62.0646 82.1617 62.0646 82.2476C62.0646 82.3335 62.0538 82.4032 62.0322 82.4569C62.016 82.5106 61.9728 82.5375 61.9026 82.5375ZM58.735 83.9869V83.2622H59.3669V83.9869H58.735Z" fill="white"/>
<path d="M61.8989 82.5375V81.9657H66.3303L65.8604 82.2959V80.5646C65.8604 80.1888 65.8172 79.8936 65.7308 79.6788C65.6443 79.4641 65.4958 79.3111 65.2852 79.2198C65.08 79.1286 64.7991 79.083 64.4427 79.083C64.2158 79.083 63.989 79.0991 63.7622 79.1313C63.5407 79.1635 63.3679 79.2064 63.2437 79.2601L63.6244 78.8736C63.592 79.0024 63.5596 79.1662 63.5272 79.3648C63.4948 79.5581 63.4678 79.7674 63.4462 79.9929C63.4246 80.2184 63.4138 80.4438 63.4138 80.6693C63.4138 80.9001 63.4246 81.1256 63.4462 81.3457C63.4678 81.5658 63.4921 81.7564 63.5191 81.9174C63.5461 82.0785 63.5677 82.1912 63.5839 82.2556L62.9844 82.4247C62.9628 82.3549 62.9358 82.2341 62.9034 82.0624C62.8764 81.8906 62.8494 81.6839 62.8224 81.4423C62.8008 81.2007 62.79 80.9431 62.79 80.6693C62.79 80.4062 62.8008 80.1512 62.8224 79.9043C62.8494 79.652 62.8791 79.4238 62.9115 79.2198C62.9493 79.0159 62.9844 78.8521 63.0168 78.7286C63.1357 78.6803 63.3247 78.632 63.5839 78.5837C63.8432 78.5354 64.1294 78.5112 64.4427 78.5112C64.8963 78.5112 65.2744 78.5783 65.5768 78.7125C65.8847 78.8468 66.1142 79.0642 66.2654 79.3648C66.4167 79.66 66.4923 80.06 66.4923 80.5646V82.5375H61.8989ZM61.8989 82.5375C61.8287 82.5375 61.7854 82.5106 61.7692 82.4569C61.7476 82.4032 61.7368 82.3335 61.7368 82.2476C61.7368 82.1617 61.7476 82.0946 61.7692 82.0462C61.7854 81.9926 61.8287 81.9657 61.8989 81.9657V82.5375Z" fill="white"/>
<path d="M70.7643 84.317C70.5753 84.317 70.3727 84.3009 70.1567 84.2687C69.9461 84.2419 69.7139 84.2016 69.46 84.1479L69.5572 83.6406C69.8435 83.6782 70.0811 83.7051 70.2701 83.7212C70.4646 83.7373 70.6293 83.7453 70.7643 83.7453C71.2126 83.7453 71.5393 83.6594 71.7446 83.4876C71.9498 83.3212 72.0524 83.077 72.0524 82.7549V78.8736L72.3765 79.083H71.0074C70.6941 79.083 70.4511 79.1205 70.2782 79.1957C70.1108 79.2708 69.9947 79.4131 69.9299 79.6225C69.8651 79.8265 69.8327 80.1271 69.8327 80.5243C69.8327 80.9216 69.8651 81.2249 69.9299 81.4343C69.9947 81.6383 70.1108 81.7778 70.2782 81.853C70.4511 81.9281 70.6941 81.9657 71.0074 81.9657H72.0524V82.5375H71.0074C70.5375 82.5375 70.1702 82.4677 69.9056 82.3281C69.6463 82.1831 69.4627 81.963 69.3547 81.6678C69.2521 81.3672 69.2008 80.986 69.2008 80.5243C69.2008 80.0627 69.2521 79.6842 69.3547 79.3889C69.4627 79.0883 69.6463 78.8682 69.9056 78.7286C70.1702 78.5837 70.5375 78.5112 71.0074 78.5112H72.6843V82.7468C72.6843 83.0796 72.606 83.3642 72.4494 83.6004C72.2982 83.8366 72.0794 84.0137 71.7932 84.1318C71.5069 84.2553 71.164 84.317 70.7643 84.317Z" fill="white"/>
<path d="M82.087 82.5375V76.7639H82.7189V82.5375H82.087ZM81.1068 82.5375V81.9657H82.087V82.5375H81.1068ZM81.1068 82.5375C81.0366 82.5375 80.9907 82.5106 80.9691 82.4569C80.9529 82.4032 80.9448 82.3335 80.9448 82.2476C80.9448 82.1617 80.9529 82.0946 80.9691 82.0462C80.9907 81.9926 81.0366 81.9657 81.1068 81.9657V82.5375ZM77.6232 84.5345C77.31 84.5345 77.0183 84.4888 76.7483 84.3976C76.4783 84.3117 76.2406 84.1882 76.0354 84.0272C75.8356 83.8715 75.6789 83.6836 75.5655 83.4635C75.4521 83.2434 75.3954 83.0018 75.3954 82.7388C75.3954 82.6314 75.4035 82.4891 75.4197 82.312C75.4413 82.1348 75.4656 81.9362 75.4926 81.7161C75.525 81.4906 75.5601 81.2625 75.5979 81.0316L76.2217 81.1202C76.1623 81.4799 76.1137 81.8074 76.0759 82.1026C76.0435 82.3979 76.0273 82.6072 76.0273 82.7307C76.0273 82.9723 76.0948 83.1843 76.2298 83.3669C76.3648 83.5547 76.5512 83.6997 76.7888 83.8017C77.0319 83.909 77.31 83.9627 77.6232 83.9627H79.9159C80.3264 83.9627 80.6369 83.85 80.8476 83.6245C81.0636 83.3991 81.1716 83.0689 81.1716 82.6341V82.3683H81.7954V82.6421C81.7954 83.0125 81.7225 83.34 81.5767 83.6245C81.4308 83.909 81.2175 84.1318 80.9367 84.2929C80.6612 84.4539 80.321 84.5345 79.9159 84.5345H77.6232ZM80.7017 82.5375C80.5181 82.5375 80.3318 82.5187 80.1427 82.4811C79.9591 82.4435 79.7755 82.3657 79.5919 82.2476L79.9483 81.7725C80.0239 81.8208 80.0968 81.861 80.167 81.8933C80.2373 81.9201 80.3156 81.9389 80.402 81.9496C80.4884 81.9604 80.5883 81.9657 80.7017 81.9657H82.2329V82.5375H80.7017ZM82.2329 82.5375V81.9657C82.3031 81.9657 82.3463 81.9926 82.3625 82.0462C82.3841 82.0946 82.3949 82.1617 82.3949 82.2476C82.3949 82.3335 82.3841 82.4032 82.3625 82.4569C82.3463 82.5106 82.3031 82.5375 82.2329 82.5375ZM77.7286 86V85.2753H78.3605V86H77.7286ZM78.8384 86V85.2753H79.4703V86H78.8384Z" fill="white"/>
<path d="M84.7324 82.5375V81.9657H85.7207V82.5375H84.7324ZM84.1086 82.5375V76.7639H84.7324V82.5375H84.1086ZM85.7207 82.5375V81.9657C85.7909 81.9657 85.8341 81.9926 85.8503 82.0462C85.8719 82.0946 85.8828 82.1617 85.8828 82.2476C85.8828 82.3335 85.8719 82.4032 85.8503 82.4569C85.8341 82.5106 85.7909 82.5375 85.7207 82.5375Z" fill="white"/>
<path d="M85.7207 82.5375V81.9657H86.8057C87.1297 81.9657 87.4403 81.9147 87.7373 81.8127C88.0344 81.7054 88.3071 81.5658 88.5555 81.394C88.804 81.2169 89.02 81.0236 89.2036 80.8142C89.3873 80.5995 89.5304 80.3821 89.633 80.162C89.7356 79.9419 89.7869 79.7352 89.7869 79.5419V79.0588L90.1272 79.5661C89.8139 79.4051 89.5061 79.2843 89.2036 79.2037C88.9012 79.1232 88.6068 79.083 88.3206 79.083C88.0344 79.083 87.74 79.1232 87.4376 79.2037C87.1351 79.2843 86.83 79.4051 86.5221 79.5661L86.8624 79.0588V79.5419C86.8624 79.7352 86.9137 79.9419 87.0163 80.162C87.1189 80.3821 87.2593 80.5995 87.4376 80.8142C87.6212 81.0236 87.8372 81.2169 88.0857 81.394C88.3341 81.5658 88.6068 81.7054 88.9039 81.8127C89.2009 81.9147 89.5115 81.9657 89.8355 81.9657H90.8725V82.5375H89.8355C89.4143 82.5375 89.02 82.4703 88.6528 82.3361C88.2855 82.2019 87.9533 82.0248 87.6563 81.8047C87.3593 81.5792 87.1027 81.335 86.8867 81.0719C86.676 80.8035 86.514 80.5378 86.4006 80.2747C86.2872 80.0063 86.2305 79.762 86.2305 79.5419V79.0588C86.4627 78.9353 86.6976 78.8333 86.9353 78.7528C87.1729 78.6723 87.4079 78.6132 87.6401 78.5757C87.8777 78.5327 88.1046 78.5112 88.3206 78.5112C88.542 78.5112 88.7689 78.5327 89.0011 78.5757C89.2333 78.6132 89.4683 78.6723 89.7059 78.7528C89.9436 78.8333 90.1785 78.9353 90.4107 79.0588V79.5419C90.4107 79.762 90.354 80.0063 90.2406 80.2747C90.1272 80.5378 89.9625 80.8035 89.7464 81.0719C89.5358 81.335 89.282 81.5792 88.9849 81.8047C88.6879 82.0248 88.3557 82.2019 87.9884 82.3361C87.6212 82.4703 87.2269 82.5375 86.8057 82.5375H85.7207ZM85.7207 82.5375C85.6505 82.5375 85.6067 82.5106 85.5905 82.4569C85.5689 82.4032 85.5581 82.3335 85.5581 82.2476C85.5581 82.1617 85.5689 82.0946 85.5905 82.0462C85.6067 81.9926 85.6505 81.9657 85.7207 81.9657V82.5375ZM90.8725 82.5375V81.9657C90.9427 81.9657 90.9859 81.9926 91.0021 82.0462C91.0237 82.0946 91.0345 82.1617 91.0345 82.2476C91.0345 82.3335 91.0237 82.4032 91.0021 82.4569C90.9859 82.5106 90.9427 82.5375 90.8725 82.5375Z" fill="white"/>
<path d="M91.8507 82.5375V76.7639H92.4826V82.5375H91.8507ZM90.8704 82.5375V81.9657H91.8507V82.5375H90.8704ZM90.8704 82.5375C90.8002 82.5375 90.757 82.5106 90.7408 82.4569C90.7192 82.4032 90.7084 82.3335 90.7084 82.2476C90.7084 82.1617 90.7192 82.0946 90.7408 82.0462C90.757 81.9926 90.8002 81.9657 90.8704 81.9657V82.5375Z" fill="white"/>
<path d="M93.8792 82.5375V76.7639H94.5029V82.5375H93.8792Z" fill="white"/>
<path d="M99.9007 82.5375C99.0959 82.5375 98.4938 82.3979 98.0941 82.1187C97.6944 81.8396 97.4946 81.4074 97.4946 80.8223C97.4946 80.6934 97.5027 80.5539 97.5189 80.4036C97.5405 80.2532 97.5648 80.1083 97.5918 79.9687C97.6188 79.8238 97.6431 79.7003 97.6647 79.5983C97.6863 79.4909 97.6998 79.4185 97.7052 79.3809L98.3209 79.4936C98.3047 79.5795 98.2804 79.6976 98.248 79.8479C98.221 79.9982 98.194 80.1593 98.167 80.3311C98.14 80.5029 98.1265 80.6666 98.1265 80.8223C98.1265 81.0907 98.1832 81.3108 98.2966 81.4826C98.41 81.649 98.5964 81.7725 98.8556 81.853C99.1148 81.9281 99.4632 81.9657 99.9007 81.9657H104.518L104.097 82.3281V78.8092L104.429 79.083H103.052C102.739 79.083 102.496 79.1205 102.323 79.1957C102.156 79.2708 102.039 79.4131 101.975 79.6225C101.91 79.8265 101.877 80.1271 101.877 80.5243C101.877 80.9216 101.91 81.2249 101.975 81.4343C102.039 81.6383 102.156 81.7778 102.323 81.853C102.496 81.9281 102.739 81.9657 103.052 81.9657V82.3764C102.582 82.3764 102.215 82.32 101.95 82.2073C101.691 82.0892 101.507 81.8959 101.399 81.6275C101.297 81.3537 101.245 80.986 101.245 80.5243C101.245 80.0627 101.297 79.6842 101.399 79.3889C101.507 79.0883 101.691 78.8682 101.95 78.7286C102.215 78.5837 102.582 78.5112 103.052 78.5112H104.729V82.5375H99.9007ZM102.858 77.7865V77.0618H103.49V77.7865H102.858Z" fill="white"/>
<path d="M106.829 82.5375V81.9657H107.817V82.5375H106.829ZM106.205 82.5375V76.7639H106.829V82.5375H106.205ZM107.817 82.5375V81.9657C107.887 81.9657 107.931 81.9926 107.947 82.0462C107.968 82.0946 107.979 82.1617 107.979 82.2476C107.979 82.3335 107.968 82.4032 107.947 82.4569C107.931 82.5106 107.887 82.5375 107.817 82.5375Z" fill="white"/>
<path d="M109.323 82.5375V81.9657H110.198V82.5375H109.323ZM107.817 82.5375V81.9657H108.983L108.692 82.1992V78.5112H109.323V82.5375H107.817ZM107.817 82.5375C107.747 82.5375 107.703 82.5106 107.687 82.4569C107.665 82.4032 107.655 82.3335 107.655 82.2476C107.655 82.1617 107.665 82.0946 107.687 82.0462C107.703 81.9926 107.747 81.9657 107.817 81.9657V82.5375ZM110.198 82.5375V81.9657C110.269 81.9657 110.312 81.9926 110.328 82.0462C110.35 82.0946 110.36 82.1617 110.36 82.2476C110.36 82.3335 110.35 82.4032 110.328 82.4569C110.312 82.5106 110.269 82.5375 110.198 82.5375ZM108.692 77.7865V77.0618H109.323V77.7865H108.692Z" fill="white"/>
<path d="M111.705 82.5375V81.9657H112.58V82.5375H111.705ZM110.198 82.5375V81.9657H111.365L111.073 82.1992V78.5112H111.705V82.5375H110.198ZM110.198 82.5375C110.128 82.5375 110.085 82.5106 110.068 82.4569C110.047 82.4032 110.036 82.3335 110.036 82.2476C110.036 82.1617 110.047 82.0946 110.068 82.0462C110.085 81.9926 110.128 81.9657 110.198 81.9657V82.5375ZM112.58 82.5375V81.9657C112.65 81.9657 112.693 81.9926 112.709 82.0462C112.731 82.0946 112.742 82.1617 112.742 82.2476C112.742 82.3335 112.731 82.4032 112.709 82.4569C112.693 82.5106 112.65 82.5375 112.58 82.5375ZM111.008 77.7865C110.922 77.6791 110.854 77.5745 110.806 77.4725C110.762 77.3705 110.741 77.2631 110.741 77.1504C110.741 76.9947 110.779 76.8551 110.854 76.7316C110.935 76.6082 111.04 76.5115 111.17 76.4418C111.3 76.372 111.44 76.3371 111.591 76.3371C111.678 76.3371 111.764 76.3505 111.851 76.3773C111.937 76.3988 112.013 76.431 112.077 76.474L111.867 76.8363C111.824 76.8095 111.78 76.7934 111.737 76.788C111.699 76.7773 111.659 76.7719 111.616 76.7719C111.491 76.7719 111.392 76.8068 111.316 76.8766C111.246 76.9464 111.211 77.0376 111.211 77.1504C111.211 77.2202 111.224 77.2873 111.251 77.3517C111.284 77.4161 111.329 77.4859 111.389 77.561L111.008 77.7865ZM110.587 77.7865V77.3597H112.183V77.7865H110.587Z" fill="white"/>
<path d="M114.086 82.5375V81.9657H114.961V82.5375H114.086ZM114.961 82.5375V81.9657C115.031 81.9657 115.074 81.9926 115.091 82.0462C115.112 82.0946 115.123 82.1617 115.123 82.2476C115.123 82.3335 115.112 82.4032 115.091 82.4569C115.074 82.5106 115.031 82.5375 114.961 82.5375ZM112.58 82.5375V81.9657H113.746L113.454 82.1992V78.5112H114.086V82.5375H112.58ZM112.58 82.5375C112.51 82.5375 112.466 82.5106 112.45 82.4569C112.428 82.4032 112.417 82.3335 112.417 82.2476C112.417 82.1617 112.428 82.0946 112.45 82.0462C112.466 81.9926 112.51 81.9657 112.58 81.9657V82.5375ZM112.903 77.7865V77.0618H113.535V77.7865H112.903ZM114.013 77.7865V77.0618H114.645V77.7865H114.013Z" fill="white"/>
<path d="M119.222 82.5375C119.038 82.5375 118.857 82.5026 118.679 82.4328C118.506 82.363 118.339 82.2529 118.177 82.1026L118.59 81.6758C118.714 81.7778 118.825 81.853 118.922 81.9013C119.019 81.9443 119.119 81.9657 119.222 81.9657H120.664L120.421 82.2234V80.2989C120.421 80.2022 120.41 80.0654 120.388 79.8882C120.372 79.711 120.345 79.5124 120.307 79.2923C120.275 79.0668 120.235 78.8414 120.186 78.6159L120.802 78.5112C120.839 78.6991 120.877 78.9085 120.915 79.1393C120.953 79.3702 120.985 79.5903 121.012 79.7996C121.039 80.0036 121.053 80.17 121.053 80.2989V82.5375H119.222ZM114.961 82.5375V81.9657H116.143L115.981 82.1268V79.3165H116.605V82.5375H114.961ZM116.605 82.5375V81.9657H117.521C117.704 81.9657 117.842 81.9389 117.934 81.8852C118.031 81.8315 118.099 81.7242 118.136 81.5631C118.174 81.4021 118.193 81.1658 118.193 80.8545V78.9139H118.825V80.8545C118.825 81.2732 118.779 81.606 118.687 81.853C118.601 82.0999 118.463 82.2771 118.274 82.3845C118.085 82.4865 117.834 82.5375 117.521 82.5375H116.605ZM114.961 82.5375C114.891 82.5375 114.847 82.5106 114.831 82.4569C114.809 82.4032 114.799 82.3335 114.799 82.2476C114.799 82.1617 114.809 82.0946 114.831 82.0462C114.847 81.9926 114.891 81.9657 114.961 81.9657V82.5375Z" fill="white"/>
<path d="M121.986 82.5375V81.9657H125.947L125.591 82.3281V76.7639H126.223V82.5375H121.986ZM123.282 81.9657V77.9073H123.906V81.9657H123.282ZM123.217 84.7036C123.131 84.5962 123.063 84.4915 123.014 84.3895C122.971 84.2875 122.95 84.1801 122.95 84.0674C122.95 83.9117 122.987 83.7722 123.063 83.6487C123.144 83.5252 123.249 83.4286 123.379 83.3588C123.509 83.289 123.649 83.2541 123.8 83.2541C123.887 83.2541 123.973 83.2649 124.06 83.2863C124.146 83.3132 124.222 83.3481 124.286 83.391L124.076 83.7534C124.033 83.7265 123.989 83.7077 123.946 83.697C123.908 83.6916 123.868 83.6889 123.825 83.6889C123.7 83.6889 123.6 83.7238 123.525 83.7936C123.455 83.8634 123.42 83.9547 123.42 84.0674C123.42 84.1372 123.433 84.2043 123.46 84.2687C123.492 84.3331 123.538 84.4029 123.598 84.4781L123.217 84.7036ZM122.796 84.7036V84.2768H124.392V84.7036H122.796Z" fill="white"/>
<path d="M127.653 82.5375V76.7639H128.277V82.5375H127.653Z" fill="white"/>
<path d="M68.7672 19.6906V53.0395H70.4193V22.4595C70.4193 21.7414 71.0048 21.1594 71.7273 21.1594C72.4498 21.1594 73.0353 21.7414 73.0353 22.4595V53.0395H74.6874V22.4595C74.6874 21.7414 75.2729 21.1594 75.9954 21.1594C76.7179 21.1594 77.3034 21.7414 77.3034 22.4595V53.0395H78.9556V22.4595C78.9556 21.7414 79.541 21.1594 80.2635 21.1594C80.986 21.1594 81.5715 21.7414 81.5715 22.4595V53.0395H83.2237V19.6906H68.7672Z" fill="white"/>
<path d="M83.7265 17.6009H68.263C68.0562 17.6009 67.8886 17.7674 67.8886 17.973V18.871C67.8886 19.0766 68.0562 19.2431 68.263 19.2431H83.7265C83.9333 19.2431 84.1009 19.0766 84.1009 18.871V17.973C84.1009 17.7674 83.9333 17.6009 83.7265 17.6009Z" fill="white"/>
<path d="M84.8919 53.4286H67.0984C66.8916 53.4286 66.724 53.5951 66.724 53.8007V54.6987C66.724 54.9043 66.8916 55.0708 67.0984 55.0708H84.8919C85.0987 55.0708 85.2662 54.9043 85.2662 54.6987V53.8007C85.2662 53.5951 85.0987 53.4286 84.8919 53.4286Z" fill="white"/>
<path d="M87.514 55.4594H64.478C64.2712 55.4594 64.1037 55.6259 64.1037 55.8315V57.3086C64.1037 57.5141 64.2712 57.6807 64.478 57.6807H87.5144C87.7212 57.6807 87.8887 57.5141 87.8887 57.3086V55.8315C87.8884 55.6259 87.7208 55.4594 87.514 55.4594Z" fill="white"/>
<path d="M89.2084 18.6574L76.2775 6.0772C76.1209 5.92476 75.8701 5.92476 75.7131 6.0772L62.7823 18.6574C62.6525 18.7838 62.6503 18.9904 62.7772 19.1194L63.5716 19.926C63.6985 20.055 63.9067 20.0572 64.0365 19.9311L75.9951 8.29666L87.9538 19.9311C88.0835 20.0572 88.2918 20.055 88.4186 19.926L89.2131 19.1194C89.3403 18.9904 89.3381 18.7834 89.2084 18.6574Z" fill="white"/>
<path d="M75.9965 10.8254C75.9965 10.8254 75.5354 12.9177 73.192 13.7604C75.5354 14.6032 75.9965 16.6955 75.9965 16.6955C75.9965 16.6955 76.4577 14.6032 78.8011 13.7604C76.4581 12.9177 75.9965 10.8254 75.9965 10.8254Z" fill="white"/>
<path d="M58.4206 12.0878C54.1151 14.1999 50.0668 14.2718 47.5962 14.0175C47.8059 13.6397 47.9288 13.4269 47.9288 12.9544C47.9288 11.564 46.8835 10.6641 45.5941 10.6641C44.3046 10.6641 43.2594 11.564 43.2594 12.9544C43.2594 14.1768 44.0673 15.1789 45.1387 15.4076C45.1794 15.4188 51.9523 17.0566 60.1745 14.2455C63.2735 13.1859 65.7855 12.5437 67.7052 12.1528L72.1339 7.84393C71.1825 7.88548 66.1853 8.27923 58.4206 12.0878ZM45.5712 14.352C45.5712 14.352 45.3622 13.4034 44.2999 13.0216C45.3622 12.6394 45.5712 11.6911 45.5712 11.6911C45.5712 11.6911 45.7802 12.6397 46.8425 13.0216C45.7802 13.4034 45.5712 14.352 45.5712 14.352Z" fill="white"/>
<path d="M106.386 10.6638C105.097 10.6638 104.052 11.5636 104.052 12.954C104.052 13.4265 104.174 13.6393 104.384 14.0171C101.914 14.2715 97.8657 14.1996 93.5597 12.0874C85.7951 8.27886 80.7979 7.88475 79.8461 7.84393L84.2748 12.1528C86.1941 12.5437 88.7061 13.1859 91.8055 14.2455C100.028 17.0563 106.801 15.4184 106.841 15.4076C107.913 15.1789 108.721 14.1765 108.721 12.9544C108.721 11.5636 107.676 10.6638 106.386 10.6638ZM106.41 14.3513C106.41 14.3513 106.201 13.4027 105.138 13.0208C106.201 12.6387 106.41 11.6904 106.41 11.6904C106.41 11.6904 106.619 12.639 107.681 13.0208C106.619 13.4027 106.41 14.3513 106.41 14.3513Z" fill="white"/>
<path d="M55.5044 39.5524H55.3168L46.1824 14.8617H44.9613L35.8272 39.5524H35.6396C35.3678 39.5524 35.2108 39.8638 35.3765 40.078C37.5466 42.8805 41.3008 44.7348 45.5718 44.7348C49.8428 44.7348 53.5971 42.8809 55.7671 40.078C55.9332 39.8638 55.7762 39.5524 55.5044 39.5524ZM54.5853 39.5524H45.9153V16.1163L54.5853 39.5524ZM45.2287 16.1163V39.5524H36.5591L45.2287 16.1163Z" fill="white"/>
<path d="M116.342 39.5514H116.155L107.043 14.9206H105.777L96.6651 39.5514H96.4779C96.2061 39.5514 96.0491 39.8628 96.2152 40.077C98.3852 42.8795 102.139 44.7337 106.41 44.7337C110.681 44.7337 114.436 42.8798 116.606 40.077C116.771 39.8628 116.614 39.5514 116.342 39.5514ZM115.424 39.5514H106.754V16.1153L115.424 39.5514ZM106.067 16.1153V39.5514H97.397L106.067 16.1153Z" fill="white"/>
<path d="M62.4595 11.754C64.2367 6.08471 69.566 1.95755 75.8472 1.95755C82.1527 1.95755 87.4977 6.11759 89.2537 11.8208L91.4805 12.5671C89.9384 5.39547 83.5159 0 75.8472 0C68.1308 0 61.6737 5.46194 60.1833 12.7001L62.4595 11.754Z" fill="white"/>
</svg>
