<svg width="19" height="19" viewBox="0 0 19 19" fill="none" xmlns="http://www.w3.org/2000/svg">
<path fill-rule="evenodd" clip-rule="evenodd" d="M16.0822 0.752628C16.703 0.89518 17.3316 1.1283 17.7496 1.54632C18.1676 1.96435 18.4007 2.59299 18.5433 3.21366C18.6905 3.85483 18.7628 4.58878 18.7927 5.31008C18.8527 6.75477 18.7454 8.23102 18.6761 8.98557C18.6328 9.4564 18.4402 9.89117 18.1393 10.2412C15.8931 12.8548 13.5646 15.234 11.0223 17.5103C9.85897 18.552 8.12205 18.563 6.91065 17.6251C4.91283 16.0782 3.21768 14.3831 1.67083 12.3852C0.732892 11.1738 0.743939 9.437 1.78553 8.27372C4.06191 5.7313 6.44114 3.40283 9.05467 1.15658C9.40471 0.855733 9.83948 0.663096 10.3104 0.619826C11.0649 0.55049 12.5411 0.443207 13.9858 0.503141C14.7071 0.533071 15.4411 0.605367 16.0822 0.752628ZM15.7013 4.83828C15.7013 4.15144 15.1445 3.59465 14.4577 3.59465C13.7708 3.59465 13.2141 4.15144 13.2141 4.83828C13.2141 5.52511 13.7708 6.0819 14.4577 6.0819C15.1445 6.0819 15.7013 5.52511 15.7013 4.83828ZM11.9953 8.18011C12.2383 7.93744 12.2386 7.54377 11.9959 7.30074C11.7533 7.0577 11.3596 7.05738 11.1166 7.30001L10.9364 7.47995C10.1649 7.07626 9.19098 7.18661 8.54106 7.83546C8.19505 8.18086 7.92401 8.62691 7.95355 9.17675C7.98197 9.70604 8.28247 10.1741 8.70091 10.5918C9.02922 10.9196 9.11246 11.1346 9.12125 11.2605C9.1283 11.3609 9.09646 11.5377 8.8101 11.8237C8.56369 12.0697 8.36828 12.1056 8.22162 12.0894C8.0465 12.0701 7.82024 11.9611 7.57335 11.7147C7.33668 11.4784 7.24181 11.1799 7.26434 10.9246C7.29453 10.5825 7.0417 10.2808 6.69961 10.2506C6.35752 10.2204 6.05573 10.4732 6.02553 10.8153C5.98699 11.252 6.08713 11.6998 6.31293 12.0958L6.14209 12.2663C5.89905 12.509 5.89873 12.9026 6.14136 13.1457C6.384 13.3887 6.7777 13.3891 7.02073 13.1464L7.17841 12.989C7.44836 13.1635 7.75276 13.2888 8.08518 13.3255C8.66351 13.3893 9.21867 13.1731 9.68876 12.7037C10.1189 12.2744 10.4032 11.7655 10.3619 11.1738C10.3223 10.6076 9.99278 10.1243 9.57948 9.71176C9.25639 9.38916 9.20001 9.19566 9.19537 9.1101C9.19189 9.04518 9.2117 8.92322 9.41972 8.71554C9.72416 8.41151 10.2366 8.40538 10.5638 8.73203C10.784 8.95191 10.8541 9.25875 10.7802 9.52828C10.6894 9.85942 10.8842 10.2016 11.2153 10.2924C11.5466 10.3832 11.8887 10.1884 11.9795 9.85718C12.1155 9.36139 12.0598 8.82381 11.8162 8.35886L11.9953 8.18011Z" fill="white"/>
</svg>
