<svg width="38" height="37" viewBox="0 0 38 37" fill="none" xmlns="http://www.w3.org/2000/svg">
<path d="M34.4166 18.5C34.4166 27.0144 27.5142 33.9167 18.9999 33.9167C10.4855 33.9167 3.58325 27.0144 3.58325 18.5M13.6041 4.05402C15.2835 3.42647 17.1017 3.08337 18.9999 3.08337C20.8982 3.08337 22.7164 3.42647 24.3958 4.05402" stroke="white" stroke-width="1.5" stroke-linecap="round" stroke-linejoin="round"/>
<path d="M12.0908 8.3763L12.9047 10.0176C13.0157 10.2461 13.3116 10.4652 13.5614 10.5072L15.0366 10.7543C15.98 10.9128 16.202 11.6029 15.5222 12.2837L14.3753 13.44C14.181 13.6358 14.0747 14.0135 14.1348 14.284L14.4631 15.7153C14.7221 16.8485 14.1256 17.2868 13.1313 16.6946L11.7486 15.8693C11.4988 15.7201 11.0873 15.7201 10.8329 15.8693L9.4502 16.6946C8.46056 17.2868 7.85937 16.8438 8.11835 15.7153L8.44668 14.284C8.50681 14.0135 8.40045 13.6358 8.20621 13.44L7.05934 12.2837C6.38416 11.6029 6.60151 10.9128 7.54491 10.7543L9.02012 10.5072C9.26521 10.4652 9.56118 10.2461 9.67217 10.0176L10.4861 8.3763C10.93 7.48573 11.6515 7.48573 12.0908 8.3763Z" stroke="white" stroke-width="1.5" stroke-linecap="round" stroke-linejoin="round"/>
<path d="M27.5073 8.3763L28.3211 10.0176C28.4321 10.2461 28.7281 10.4652 28.9779 10.5072L30.4531 10.7543C31.3964 10.9128 31.6184 11.6029 30.9386 12.2837L29.7917 13.44C29.5975 13.6358 29.4911 14.0135 29.5512 14.284L29.8796 15.7153C30.1386 16.8485 29.542 17.2868 28.5477 16.6946L27.165 15.8693C26.9153 15.7201 26.5038 15.7201 26.2494 15.8693L24.8667 16.6946C23.8771 17.2868 23.2759 16.8438 23.5349 15.7153L23.8632 14.284C23.9232 14.0135 23.817 13.6358 23.6227 13.44L22.4759 12.2837C21.8006 11.6029 22.018 10.9128 22.9614 10.7543L24.4366 10.5072C24.6817 10.4652 24.9777 10.2461 25.0887 10.0176L25.9026 8.3763C26.3466 7.48573 27.0679 7.48573 27.5073 8.3763Z" stroke="white" stroke-width="1.5" stroke-linecap="round" stroke-linejoin="round"/>
<path d="M12.8333 23.125C14.2394 24.9972 16.4782 26.2083 18.9999 26.2083C21.5216 26.2083 23.7604 24.9972 25.1666 23.125" stroke="white" stroke-width="1.5" stroke-linecap="round" stroke-linejoin="round"/>
</svg>
