<svg width="17" height="16" viewBox="0 0 17 16" fill="none" xmlns="http://www.w3.org/2000/svg">
<path d="M7.24543 0.690964C7.54478 -0.230346 8.84819 -0.230344 9.14754 0.690967L10.3967 4.53555C10.5306 4.94757 10.9146 5.22653 11.3478 5.22653L15.3902 5.22653C16.3589 5.22653 16.7617 6.46615 15.978 7.03555L12.7076 9.41163C12.3571 9.66628 12.2105 10.1176 12.3443 10.5297L13.5935 14.3743C13.8929 15.2956 12.8384 16.0617 12.0547 15.4923L8.78427 13.1162C8.43378 12.8616 7.95919 12.8616 7.6087 13.1162L4.3383 15.4923C3.55459 16.0617 2.50011 15.2956 2.79946 14.3742L4.04864 10.5297C4.18252 10.1176 4.03586 9.66628 3.68537 9.41163L0.414971 7.03555C-0.368743 6.46615 0.0340343 5.22653 1.00276 5.22653L5.04519 5.22653C5.47842 5.22653 5.86237 4.94757 5.99625 4.53555L7.24543 0.690964Z" fill="#0085F2"/>
</svg>
