<svg width="200" height="50" viewBox="0 0 200 50" fill="none" xmlns="http://www.w3.org/2000/svg">
<path d="M13.8407 43.5639C13.6748 43.398 13.4811 43.2685 13.2579 43.1756C13.0347 43.0843 12.7991 43.0371 12.548 43.0371C12.297 43.0371 12.0505 43.0827 11.832 43.1756C11.6135 43.267 11.4213 43.3964 11.257 43.5639C11.0911 43.7299 10.9625 43.9233 10.8695 44.1426C10.7765 44.3619 10.7285 44.5934 10.7285 44.84C10.7285 45.0867 10.775 45.3182 10.8695 45.5375C10.9625 45.7568 11.0927 45.9471 11.257 46.1101C11.4213 46.273 11.6135 46.4009 11.832 46.4984C12.0505 46.5943 12.2892 46.643 12.548 46.643C12.8069 46.643 13.0347 46.5943 13.2579 46.4984C13.4811 46.4024 13.6748 46.273 13.8407 46.1101C14.005 45.9471 14.1367 45.7568 14.2359 45.5375C14.3335 45.3182 14.3831 45.0867 14.3831 44.84C14.3831 44.5934 14.3335 44.3619 14.2359 44.1426C14.1383 43.9233 14.0065 43.7299 13.8407 43.5639Z" fill="#001E33"/>
<path d="M9.29169 43.5639C9.12585 43.398 8.93521 43.2685 8.71668 43.1756C8.49814 43.0843 8.2641 43.0371 8.01457 43.0371C7.76503 43.0371 7.51705 43.0827 7.29851 43.1756C7.07998 43.267 6.88624 43.3964 6.7173 43.5639C6.54836 43.7299 6.41662 43.9233 6.32207 44.1426C6.22908 44.3619 6.18103 44.5934 6.18103 44.84C6.18103 45.0867 6.22753 45.3182 6.32207 45.5375C6.41507 45.7568 6.54681 45.9471 6.7173 46.1101C6.88624 46.2715 7.07998 46.4009 7.29851 46.4984C7.51705 46.5943 7.75573 46.643 8.01457 46.643C8.2734 46.643 8.49814 46.5943 8.71668 46.4984C8.93521 46.4024 9.1274 46.273 9.29169 46.1101C9.45598 45.9471 9.58772 45.7568 9.68692 45.5375C9.78456 45.3182 9.83416 45.0867 9.83416 44.84C9.83416 44.5934 9.78456 44.3619 9.68692 44.1426C9.58928 43.9233 9.45753 43.7299 9.29169 43.5639Z" fill="#001E33"/>
<path d="M23.2269 33.5729H19.2669C19.0267 33.5729 18.7136 33.5333 18.3307 33.4541C17.9464 33.3749 17.517 33.2683 17.0397 33.1328C16.5623 32.9973 16.0555 32.8465 15.5208 32.679C14.9861 32.513 14.4529 32.3394 13.9213 32.1598C13.3912 31.9801 12.8735 31.8065 12.3698 31.6405C11.8661 31.4745 11.4089 31.3253 10.9981 31.1943V34.5064C11.8366 34.7607 12.5852 34.9967 13.2455 35.216C13.9058 35.4353 14.4653 35.6393 14.9241 35.8266C15.3828 36.0155 15.7331 36.1921 15.9749 36.3596C16.2151 36.5256 16.336 36.6794 16.336 36.8195C16.336 37.0038 16.2446 37.2185 16.0617 37.4636C15.8788 37.7088 15.5502 37.9464 15.0775 38.1733C14.6048 38.4017 13.9585 38.5936 13.137 38.7519C12.3156 38.9103 11.2678 38.988 9.99225 38.988C8.88562 38.988 7.93552 38.9118 7.14197 38.758C6.34842 38.6042 5.69436 38.3743 5.18134 38.0682C4.66832 37.7606 4.29169 37.3829 4.05146 36.9307C3.81122 36.4799 3.69033 35.9515 3.69033 35.347V31.6923H0V35.4657C0 36.4556 0.16429 37.3601 0.49442 38.1809C0.824551 39.0001 1.37477 39.7052 2.14662 40.2976C2.91847 40.8884 3.93986 41.3498 5.21079 41.6772C6.48171 42.0061 8.05797 42.1706 9.9411 42.1706C11.8242 42.1706 13.3555 42.0396 14.6172 41.7762C15.8788 41.5127 16.894 41.1579 17.6612 40.7118C18.4284 40.2641 18.9786 39.7494 19.3134 39.1676C19.6482 38.5844 19.8156 37.9692 19.8156 37.3205C19.8156 37.2322 19.8063 37.1347 19.7892 37.0251C19.7706 36.9154 19.7489 36.8256 19.7226 36.7555H26.9203V17.9567H23.2269V33.5744V33.5729Z" fill="#001E33"/>
<path d="M55.4991 33.5729H52.328C52.2117 33.5729 52.0707 33.5516 51.9064 33.5074C51.7405 33.4633 51.5763 33.3932 51.412 33.2973C51.2461 33.2013 51.088 33.0765 50.9377 32.9227C50.7858 32.7689 50.6649 32.5831 50.5766 32.3638C50.6308 32.0136 50.6572 31.6359 50.6572 31.2339C50.6572 30.34 50.5192 29.5177 50.2418 28.7685C49.9659 28.0193 49.5722 27.3736 49.0639 26.83C48.5555 26.2863 47.9464 25.8615 47.2381 25.5554C46.5282 25.2493 45.7424 25.0955 44.876 25.0955C44.1631 25.0955 43.4826 25.2006 42.8363 25.4107C42.19 25.6209 41.5933 25.9711 41.0508 26.463C40.5068 26.9533 40.0186 27.6005 39.5862 28.4015C39.1538 29.204 38.7895 30.1999 38.495 31.3923C38.3525 31.8476 38.2052 32.2176 38.0533 32.5024C37.9014 32.7871 37.7371 33.0079 37.5589 33.1663C37.3807 33.3247 37.1869 33.4313 36.9777 33.4892C36.7684 33.547 36.5375 33.5744 36.288 33.5744H35.3115C35.0883 33.5744 34.8915 33.5562 34.7226 33.5211C34.5536 33.4861 34.4126 33.4161 34.301 33.311C34.1894 33.2059 34.1042 33.0552 34.0468 32.8572C33.9879 32.6608 33.96 32.3988 33.96 32.0745V17.9567H30.2666V32.5618C30.2666 33.3689 30.3735 34.0404 30.5874 34.5795C30.8013 35.1185 31.102 35.548 31.491 35.8678C31.8785 36.1875 32.3388 36.416 32.8689 36.5515C33.3989 36.687 33.9864 36.7555 34.628 36.7555H37.1296C37.4334 36.7555 37.7201 36.7464 37.9929 36.7297C38.2641 36.7129 38.5276 36.6657 38.7818 36.5911C39.036 36.5165 39.2855 36.4053 39.5304 36.2561C39.7753 36.1068 40.0233 35.8967 40.2728 35.6256C41.1469 36.186 41.9699 36.5698 42.7418 36.7753C43.5136 36.9809 44.2514 37.0845 44.9566 37.0845C45.9733 37.0845 46.8692 36.8941 47.6457 36.5134C48.4222 36.1327 49.0639 35.5952 49.5722 34.9023C49.7691 35.2708 49.9799 35.5723 50.2077 35.8099C50.4355 36.0459 50.6696 36.2347 50.9098 36.3748C51.15 36.5149 51.3918 36.6139 51.6321 36.6703C51.7917 36.7083 51.9482 36.7327 52.1001 36.7449C52.1048 36.7449 52.1094 36.7449 52.1125 36.7449C52.1854 36.751 52.2567 36.754 52.3264 36.754H59.1909V17.9551H55.4975V33.5729H55.4991ZM46.7483 32.4948C46.6057 32.8374 46.4182 33.1024 46.1857 33.2897C45.9532 33.4785 45.6913 33.6049 45.3968 33.6704C45.1023 33.7358 44.8032 33.7693 44.5009 33.7693C44.0189 33.7693 43.5446 33.6886 43.0766 33.5257C42.6085 33.3643 42.173 33.1557 41.7715 32.9014C41.8258 32.1826 41.9451 31.5385 42.1327 30.9689C42.3202 30.3994 42.5542 29.9213 42.8348 29.536C43.1153 29.1507 43.4284 28.8553 43.7709 28.6482C44.1135 28.4426 44.4684 28.3391 44.8342 28.3391C45.1999 28.3391 45.5456 28.4304 45.8168 28.6147C46.088 28.799 46.3097 29.0289 46.4786 29.3045C46.6476 29.5801 46.77 29.8832 46.8459 30.2121C46.9219 30.541 46.9591 30.8547 46.9591 31.1517C46.9591 31.7029 46.8878 32.1506 46.7452 32.4917L46.7483 32.4948Z" fill="#001E33"/>
<path d="M66.2306 17.9567H62.5372V36.7555H66.2306V17.9567Z" fill="#001E33"/>
<path d="M82.6333 25.9163C82.8022 26.0792 82.996 26.2072 83.2145 26.3046C83.4331 26.4006 83.6717 26.4493 83.9306 26.4493C84.1894 26.4493 84.4141 26.4006 84.6327 26.3046C84.8512 26.2087 85.0434 26.0792 85.2077 25.9163C85.372 25.7549 85.5037 25.563 85.6029 25.3453C85.7006 25.126 85.7502 24.8945 85.7502 24.6478C85.7502 24.4011 85.7006 24.1697 85.6029 23.9504C85.5053 23.7311 85.3735 23.5392 85.2077 23.3717C85.0418 23.2057 84.8512 23.0763 84.6327 22.9834C84.4141 22.892 84.1801 22.8448 83.9306 22.8448C83.681 22.8448 83.4331 22.8905 83.2145 22.9834C82.996 23.0748 82.8022 23.2042 82.6333 23.3717C82.4644 23.5377 82.3326 23.7311 82.2381 23.9504C82.1451 24.1697 82.097 24.4011 82.097 24.6478C82.097 24.8945 82.1435 25.126 82.2381 25.3453C82.3311 25.5645 82.4628 25.7549 82.6333 25.9163Z" fill="#001E33"/>
<path d="M87.8379 33.6521C87.8379 35.0363 87.5124 36.0444 86.8614 36.6764C86.2105 37.3068 85.1844 37.622 83.7849 37.622C82.3853 37.622 81.4166 37.252 80.7471 36.5119C80.0775 35.7718 79.7443 34.7576 79.7443 33.4694V29.6441H76.0508V33.4435C76.0508 35.8358 76.6879 37.6616 77.9634 38.9179C79.239 40.1757 81.1562 40.8046 83.7167 40.8046C84.921 40.8046 86.0028 40.6691 86.9606 40.3965C87.92 40.1255 88.7337 39.6839 89.4017 39.0748C90.0713 38.4656 90.5828 37.6753 90.9408 36.7022C91.2973 35.7292 91.4755 34.5414 91.4755 33.1404L91.5298 26.0412H87.8363V33.6521H87.8379Z" fill="#001E33"/>
<path d="M113.673 26.83C113.165 26.2863 112.556 25.8615 111.847 25.5554C111.138 25.2493 110.35 25.0955 109.485 25.0955C108.772 25.0955 108.092 25.2006 107.446 25.4107C106.799 25.6209 106.203 25.9711 105.66 26.463C105.116 26.9533 104.628 27.6005 104.196 28.4015C103.763 29.204 103.399 30.1999 103.104 31.3923C102.988 31.8567 102.855 32.2313 102.703 32.5161C102.551 32.8008 102.384 33.0217 102.201 33.18C102.018 33.3384 101.816 33.4435 101.6 33.4952C101.381 33.5485 101.147 33.5744 100.897 33.5744H99.921C99.6978 33.5744 99.5009 33.5562 99.332 33.5211C99.1631 33.4861 99.022 33.4161 98.9104 33.311C98.7988 33.2059 98.7136 33.0552 98.6562 32.8572C98.5973 32.6608 98.5694 32.3988 98.5694 32.0745V17.9567H94.876V32.5618C94.876 33.3689 94.983 34.0404 95.1968 34.5795C95.4107 35.1185 95.7114 35.548 96.1004 35.8678C96.4879 36.1875 96.9482 36.416 97.4783 36.5515C98.0084 36.687 98.5958 36.7555 99.2374 36.7555H101.739C102.043 36.7555 102.33 36.7464 102.602 36.7297C102.874 36.7129 103.137 36.6657 103.391 36.5911C103.645 36.5165 103.895 36.4053 104.14 36.2561C104.385 36.1068 104.633 35.8967 104.882 35.6256C105.756 36.186 106.579 36.5698 107.351 36.7753C108.123 36.9809 108.861 37.0845 109.566 37.0845C110.414 37.0845 111.187 36.9459 111.888 36.6703C112.588 36.3946 113.188 36.0018 113.687 35.4931C114.186 34.9845 114.575 34.3708 114.851 33.6521C115.127 32.9333 115.267 32.1278 115.267 31.2339C115.267 30.34 115.129 29.5177 114.851 28.7685C114.575 28.0193 114.182 27.3736 113.673 26.83ZM111.358 32.4963C111.215 32.8389 111.028 33.1039 110.797 33.2912C110.564 33.48 110.302 33.6064 110.008 33.6719C109.713 33.7374 109.414 33.7709 109.112 33.7709C108.63 33.7709 108.156 33.6902 107.688 33.5272C107.219 33.3658 106.784 33.1572 106.383 32.9029C106.437 32.1841 106.556 31.54 106.744 30.9705C106.931 30.4009 107.165 29.9228 107.446 29.5375C107.726 29.1522 108.039 28.8568 108.382 28.6497C108.724 28.4441 109.079 28.3406 109.445 28.3406C109.811 28.3406 110.157 28.432 110.428 28.6162C110.699 28.8005 110.921 29.0304 111.09 29.306C111.259 29.5817 111.381 29.8847 111.457 30.2136C111.533 30.5425 111.57 30.8562 111.57 31.1532C111.57 31.7044 111.499 32.1521 111.356 32.4932L111.358 32.4963Z" fill="#001E33"/>
<path d="M123.856 18.9556H122.505C122.094 18.9556 121.818 18.8764 121.675 18.7196C121.533 18.5612 121.462 18.3693 121.462 18.1409C121.462 17.9125 121.531 17.713 121.669 17.5699C121.807 17.4252 122.046 17.3536 122.385 17.3536C122.466 17.3536 122.585 17.3643 122.746 17.3871C122.908 17.4085 123.098 17.442 123.321 17.4861V15.8293C123.143 15.7684 122.946 15.7136 122.732 15.6649C122.519 15.6161 122.269 15.5918 121.984 15.5918C121.699 15.5918 121.404 15.642 121.127 15.7425C120.851 15.843 120.603 15.9907 120.384 16.1826C120.166 16.376 119.989 16.6166 119.856 16.9059C119.723 17.1953 119.656 17.5288 119.656 17.9049C119.656 18.0541 119.676 18.2338 119.716 18.444C119.757 18.6541 119.817 18.8247 119.898 18.9571H118.867V20.6657H123.858V18.9571L123.856 18.9556Z" fill="#001E33"/>
<path d="M127.843 33.5729H125.327L123.32 22.0971H119.628L121.541 33.5729H116.965V36.754H131.536V17.9567H127.843V33.5729Z" fill="#001E33"/>
<path d="M138.574 17.9567H134.881V36.7555H138.574V17.9567Z" fill="#001E33"/>
<path d="M199.997 14.6889C197.63 21.2475 194.303 26.1372 190.995 29.7127C190.18 30.5959 189.365 31.3969 188.566 32.1248C183.493 36.7526 179.065 38.3744 179.065 38.3744C158.056 48.1872 147.847 36.3399 147.847 36.3399C155.984 31.6147 159.241 20.9308 159.241 20.9308C160.498 25.8007 157.317 32.9959 157.317 32.9959C157.317 32.9959 158.957 33.7009 161.756 34.1745V13.3001L169.007 8.50327L169.203 34.5126C170.315 34.4303 171.486 34.2841 172.705 34.0573V4.57751L180.324 0L180.064 31.8066C180.468 31.6314 180.876 31.4472 181.286 31.2523C182.212 30.8122 183.1 30.3538 183.951 29.8802V9.66669L191.125 13.664L191.035 25.024C197.171 19.909 199.882 14.9066 200 14.6889H199.997Z" fill="#0085F2"/>
<path d="M167.385 47.7091C174.509 46.1497 181.093 42.5453 186.52 37.7531C190.463 34.272 193.813 30.1741 196.589 25.7459C197.285 24.6373 197.945 23.5058 198.569 22.3576C198.697 22.1247 199.149 20.9308 199.458 21.0359C199.788 21.1485 199.388 22.4399 199.335 22.7185C198.869 25.2037 198.241 27.6615 197.44 30.063C195.372 36.2699 192.123 42.1448 187.559 46.9248C186.914 47.601 186.231 48.2634 185.397 48.6959C184.402 49.2121 183.258 49.3689 182.139 49.4938C177.133 50.0542 171.789 50.1121 167.382 47.7076L167.385 47.7091Z" fill="#0085F2"/>
</svg>
