<svg width="75" height="17" viewBox="0 0 75 17" fill="none" xmlns="http://www.w3.org/2000/svg">
<path fill-rule="evenodd" clip-rule="evenodd" d="M61.0005 4.94792C61.2868 5.43215 61.3805 5.98307 61.4115 6.60243L61.4521 7.42795V13.2005L61.4937 14.0269C61.5768 15.3765 62.5924 16.3744 63.9801 16.4593L64.8189 16.5V7.42795L64.8605 6.60243C64.895 5.99 64.9878 5.42868 65.2786 4.94099C65.5749 4.44077 66.0003 4.02576 66.5121 3.73761C67.0238 3.44946 67.6039 3.29833 68.1941 3.29938C68.7843 3.30044 69.3639 3.45364 69.8746 3.74361C70.3852 4.03358 70.8091 4.45011 71.1036 4.95139C71.3899 5.43561 71.4792 5.99693 71.5137 6.60243L71.5552 7.42535V13.2005L71.5968 14.0269C71.6834 15.3834 72.6911 16.3813 74.0832 16.4593L74.9221 16.5V6.60243C74.9221 4.85226 74.2128 3.17375 72.9502 1.93595C71.6877 0.698156 69.9752 0.00242386 68.1893 0.00173479C67.2335 0.000746906 66.2884 0.199673 65.4173 0.585224C64.5461 0.970774 63.769 1.53407 63.1377 2.23748C62.5062 1.53435 61.729 0.971187 60.858 0.585522C59.9869 0.199858 59.042 0.000546152 58.0862 0.000868387C56.6879 0.000868387 55.3903 0.41666 54.3154 1.13477C53.6596 0.417526 52.1923 0.000868387 51.3499 0.000868387V16.5L52.1923 16.4593C53.6012 16.3683 54.6195 15.3973 54.6743 14.0269L54.7194 13.2005V7.42795L54.7609 6.60243C54.7963 5.97961 54.8847 5.43215 55.1719 4.94446C55.4685 4.44455 55.8937 4.02963 56.4051 3.74113C56.9165 3.45263 57.4961 3.30065 58.0862 3.30035C58.6767 3.30047 59.2568 3.45276 59.7683 3.74194C60.2798 4.03112 60.7047 4.44702 61.0005 4.94792ZM3.36682 16.4602L4.20918 16.5H16.8358L16.7943 15.6771C16.6803 14.3206 15.7 13.3296 14.3114 13.2412L13.469 13.2005H5.89392L15.9935 3.29948L15.9519 2.47743C15.8865 1.10705 14.8647 0.116944 13.469 0.041581L12.6267 0.00433325L0 0.000868387L0.0415438 0.826388C0.152033 2.16991 1.14643 3.18167 2.52357 3.25964L3.36682 3.30035H10.9419L0.842367 13.2014L0.883911 14.0269C0.966998 15.3869 1.96847 16.3727 3.36682 16.4602ZM48.045 2.41592C48.8268 3.18195 49.447 4.09141 49.8701 5.09235C50.2932 6.0933 50.511 7.16613 50.511 8.24957C50.511 9.33301 50.2932 10.4058 49.8701 11.4068C49.447 12.4077 48.8268 13.3172 48.045 14.0832C46.4654 15.6299 44.3239 16.4987 42.091 16.4987C39.858 16.4987 37.7165 15.6299 36.1369 14.0832C32.8497 10.8617 32.8497 5.63744 36.1369 2.41592C36.918 1.65015 37.8454 1.04266 38.8661 0.628138C39.8868 0.213612 40.9808 0.000171003 42.0856 1.9887e-06C43.1923 -0.000750965 44.2882 0.212314 45.3108 0.62701C46.3334 1.04171 47.2625 1.64903 48.045 2.41592ZM45.6628 4.75215C46.6097 5.68077 47.1416 6.93983 47.1416 8.2526C47.1416 9.56537 46.6097 10.8244 45.6628 11.753C44.7153 12.681 43.4305 13.2022 42.091 13.2022C40.7514 13.2022 39.4666 12.681 38.5191 11.753C37.5722 10.8244 37.0403 9.56537 37.0403 8.2526C37.0403 6.93983 37.5722 5.68077 38.5191 4.75215C39.4666 3.82424 40.7514 3.303 42.091 3.303C43.4305 3.303 44.7153 3.82424 45.6628 4.75215ZM24.418 1.9887e-06C25.523 0.000284765 26.617 0.213862 27.6377 0.628538C28.6584 1.04321 29.5857 1.65086 30.3668 2.41679C33.6549 5.63744 33.6549 10.8626 30.3668 14.0832C28.7872 15.6299 26.6456 16.4987 24.4127 16.4987C22.1798 16.4987 20.0383 15.6299 18.4587 14.0832C15.1714 10.8617 15.1714 5.63744 18.4587 2.41592C19.2398 1.65015 20.1672 1.04266 21.1879 0.628138C22.2086 0.213612 23.3026 0.000171003 24.4074 1.9887e-06H24.418ZM27.9846 4.75042C28.9317 5.67908 29.4638 6.93832 29.4638 8.2513C29.4638 9.56428 28.9317 10.8235 27.9846 11.7522C27.037 12.6801 25.7523 13.2013 24.4127 13.2013C23.0732 13.2013 21.7884 12.6801 20.8408 11.7522C19.894 10.8236 19.3621 9.5645 19.3621 8.25173C19.3621 6.93896 19.894 5.67991 20.8408 4.75129C21.7884 3.82337 23.0732 3.30213 24.4127 3.30213C25.7523 3.30213 27.037 3.8225 27.9846 4.75042Z" fill="#001E33"/>
</svg>
