<svg width="37" height="33" viewBox="0 0 37 33" fill="none" xmlns="http://www.w3.org/2000/svg">
<path d="M29.7527 18.2222C30.3809 19.1119 30.75 20.1978 30.75 21.3698C30.75 24.3871 28.3031 26.8333 25.2849 26.8333C24.752 26.8333 24.237 26.757 23.75 26.615M30.7159 13.0556C33.8746 14.8102 36 18.0913 36 21.8497C36 27.4556 31.2715 32 25.4384 32C22.7826 32 20.3559 31.0579 18.5 29.5026M20.25 13.0556C20.25 16.8602 17.116 19.9444 13.25 19.9444C9.38401 19.9444 6.25 16.8602 6.25 13.0556C6.25 9.25093 9.38401 6.16667 13.25 6.16667C17.116 6.16667 20.25 9.25093 20.25 13.0556ZM25.5 13.0556C25.5 19.7137 20.0155 25.1111 13.25 25.1111C6.48451 25.1111 1 19.7137 1 13.0556C1 6.39746 6.48451 1 13.25 1C20.0155 1 25.5 6.39746 25.5 13.0556Z" stroke="white" stroke-width="2" stroke-linecap="round"/>
</svg>
