<svg width="37" height="37" viewBox="0 0 37 37" fill="none" xmlns="http://www.w3.org/2000/svg">
<path d="M19.5 11.5C19.5 10.9477 19.0523 10.5 18.5 10.5C17.9477 10.5 17.5 10.9477 17.5 11.5H19.5ZM18.5 18.5H17.5C17.5 18.7652 17.6053 19.0196 17.7929 19.2071L18.5 18.5ZM20.4179 21.8321C20.8084 22.2226 21.4416 22.2226 21.8321 21.8321C22.2226 21.4416 22.2226 20.8084 21.8321 20.4179L20.4179 21.8321ZM31.7045 26.2934L31.2293 27.1733L31.2293 27.1733L31.7045 26.2934ZM31.7045 33.4565L31.2293 32.5766L31.2293 32.5766L31.7045 33.4565ZM29.7544 34.5096L30.2296 35.3895L30.2296 35.3895L29.7544 34.5096ZM25.9268 35.8592L25.2943 36.6338L25.2944 36.6339L25.9268 35.8592ZM27.1455 31.1064L26.256 30.6496L26.2559 30.6497L27.1455 31.1064ZM27.1455 28.6435L26.2559 29.1002L26.2559 29.1002L27.1455 28.6435ZM25.9268 23.8906L25.2944 23.116L25.2943 23.1161L25.9268 23.8906ZM29.7544 25.2402L30.2296 24.3604L30.2296 24.3603L29.7544 25.2402ZM20.3971 36.9038C20.9466 36.8478 21.3465 36.357 21.2905 35.8075C21.2345 35.2581 20.7436 34.8581 20.1942 34.9142L20.3971 36.9038ZM34.6699 21.8012C34.5601 22.3424 34.9099 22.8702 35.4511 22.98C35.9924 23.0898 36.5202 22.7401 36.63 22.1988L34.6699 21.8012ZM17.5 11.5V18.5H19.5V11.5H17.5ZM17.7929 19.2071L20.4179 21.8321L21.8321 20.4179L19.2071 17.7929L17.7929 19.2071ZM31.2293 27.1733C32.6924 27.9633 33.6819 28.501 34.3209 28.9868C34.9443 29.4608 35 29.7108 35 29.8749H37C37 28.7771 36.3398 28.0095 35.5314 27.3948C34.7384 26.7919 33.5802 26.1697 32.1796 25.4135L31.2293 27.1733ZM35 29.8749C35 30.039 34.9443 30.289 34.3209 30.763C33.6819 31.2488 32.6924 31.7865 31.2293 32.5766L32.1796 34.3364C33.5802 33.5801 34.7384 32.958 35.5314 32.3551C36.3398 31.7404 37 30.9728 37 29.8749H35ZM31.2293 32.5766L29.2792 33.6298L30.2296 35.3895L32.1797 34.3364L31.2293 32.5766ZM29.2793 33.6297C28.1542 34.2373 27.3936 34.6459 26.8473 34.8614C26.5759 34.9685 26.4335 34.9958 26.3751 34.9995C26.3412 35.0017 26.4452 34.9915 26.5592 35.0846L25.2944 36.6339C25.6729 36.9428 26.1127 37.0203 26.5024 36.9955C26.8676 36.9722 27.2367 36.8578 27.5812 36.7219C28.2667 36.4515 29.1554 35.9696 30.2296 35.3895L29.2793 33.6297ZM26.5593 35.0847C26.5437 35.0719 26.4934 35.045 26.5006 34.8417C26.5089 34.6056 26.599 34.2696 26.7823 33.8458C26.9601 33.4348 27.1938 33.0116 27.427 32.6128C27.6397 32.249 27.8947 31.8366 28.0351 31.5631L26.2559 30.6497C26.1482 30.8595 25.965 31.1508 25.7003 31.6035C25.4561 32.0213 25.1734 32.5277 24.9467 33.0518C24.7255 33.5632 24.5231 34.1681 24.5018 34.7713C24.4794 35.4072 24.6626 36.1179 25.2943 36.6338L26.5593 35.0847ZM28.0351 31.5632C28.3148 31.0185 28.5212 30.4738 28.5193 29.8653C28.5175 29.2577 28.3082 28.7185 28.0351 28.1867L26.2559 29.1002C26.4767 29.5302 26.5189 29.7328 26.5193 29.8714C26.5198 30.009 26.4792 30.2149 26.256 30.6496L28.0351 31.5632ZM28.0351 28.1867C27.8947 27.9132 27.6397 27.5009 27.427 27.137C27.1938 26.7382 26.9601 26.3151 26.7823 25.9041C26.599 25.4802 26.5089 25.1443 26.5006 24.9082C26.4934 24.7048 26.5437 24.678 26.5593 24.6652L25.2943 23.1161C24.6626 23.632 24.4794 24.3427 24.5018 24.9786C24.5231 25.5818 24.7255 26.1867 24.9467 26.698C25.1734 27.2222 25.4561 27.7286 25.7003 28.1464C25.965 28.5991 26.1482 28.8903 26.2559 29.1002L28.0351 28.1867ZM26.5592 24.6653C26.4452 24.7584 26.3412 24.7482 26.3751 24.7503C26.4335 24.7541 26.5759 24.7814 26.8473 24.8885C27.3936 25.1039 28.1542 25.5126 29.2793 26.1201L30.2296 24.3603C29.1554 23.7803 28.2667 23.2983 27.5812 23.028C27.2367 22.8921 26.8676 22.7777 26.5024 22.7544C26.1127 22.7295 25.6729 22.807 25.2944 23.116L26.5592 24.6653ZM29.2792 26.1201L31.2293 27.1733L32.1797 25.4135L30.2296 24.3604L29.2792 26.1201ZM20.1942 34.9142C19.6376 34.9709 19.0723 35 18.5 35V37C19.1401 37 19.7731 36.9675 20.3971 36.9038L20.1942 34.9142ZM18.5 35C9.38729 35 2 27.6126 2 18.5H0C0 28.7172 8.28272 37 18.5 37V35ZM2 18.5C2 9.3873 9.38729 2 18.5 2V0C8.28272 0 0 8.28273 0 18.5H2ZM18.5 2C27.6126 2 35 9.3873 35 18.5H37C37 8.28273 28.7172 0 18.5 0V2ZM35 18.5C35 19.6314 34.8862 20.7353 34.6699 21.8012L36.63 22.1988C36.8726 21.003 37 19.7658 37 18.5H35Z" fill="white"/>
</svg>
