<svg width="20" height="20" viewBox="0 0 20 20" fill="none" xmlns="http://www.w3.org/2000/svg">
<path d="M10 5.34375C9.10998 5.34375 8.23995 5.60767 7.49993 6.10214C6.75991 6.5966 6.18314 7.29941 5.84254 8.12167C5.50195 8.94394 5.41283 9.84874 5.58647 10.7217C5.7601 11.5946 6.18868 12.3964 6.81802 13.0257C7.44736 13.6551 8.24918 14.0837 9.12209 14.2573C9.99501 14.4309 10.8998 14.3418 11.7221 14.0012C12.5443 13.6606 13.2471 13.0838 13.7416 12.3438C14.2361 11.6038 14.5 10.7338 14.5 9.84375C14.4988 8.65066 14.0243 7.50678 13.1806 6.66314C12.337 5.8195 11.1931 5.34499 10 5.34375ZM10 12.8438C9.40666 12.8438 8.82664 12.6678 8.33329 12.3382C7.83994 12.0085 7.45542 11.54 7.22836 10.9918C7.0013 10.4436 6.94189 9.84042 7.05764 9.25848C7.1734 8.67654 7.45912 8.14199 7.87868 7.72243C8.29824 7.30287 8.83279 7.01715 9.41473 6.90139C9.99667 6.78564 10.5999 6.84505 11.1481 7.07211C11.6962 7.29917 12.1648 7.68369 12.4944 8.17704C12.8241 8.67039 13 9.25041 13 9.84375C13 10.6394 12.6839 11.4025 12.1213 11.9651C11.5587 12.5277 10.7956 12.8438 10 12.8438ZM14.5 0.09375H5.5C4.10807 0.095239 2.77358 0.648841 1.78933 1.63308C0.805091 2.61733 0.251489 3.95182 0.25 5.34375V14.3438C0.251489 15.7357 0.805091 17.0702 1.78933 18.0544C2.77358 19.0387 4.10807 19.5923 5.5 19.5938H14.5C15.8919 19.5923 17.2264 19.0387 18.2107 18.0544C19.1949 17.0702 19.7485 15.7357 19.75 14.3438V5.34375C19.7485 3.95182 19.1949 2.61733 18.2107 1.63308C17.2264 0.648841 15.8919 0.095239 14.5 0.09375ZM18.25 14.3438C18.25 15.3383 17.8549 16.2921 17.1516 16.9954C16.4484 17.6987 15.4946 18.0938 14.5 18.0938H5.5C4.50544 18.0938 3.55161 17.6987 2.84835 16.9954C2.14509 16.2921 1.75 15.3383 1.75 14.3438V5.34375C1.75 4.34919 2.14509 3.39536 2.84835 2.6921C3.55161 1.98884 4.50544 1.59375 5.5 1.59375H14.5C15.4946 1.59375 16.4484 1.98884 17.1516 2.6921C17.8549 3.39536 18.25 4.34919 18.25 5.34375V14.3438ZM16 4.96875C16 5.19125 15.934 5.40876 15.8104 5.59377C15.6868 5.77877 15.5111 5.92297 15.3055 6.00811C15.1 6.09326 14.8738 6.11554 14.6555 6.07213C14.4373 6.02873 14.2368 5.92158 14.0795 5.76425C13.9222 5.60691 13.815 5.40646 13.7716 5.18823C13.7282 4.97 13.7505 4.7438 13.8356 4.53823C13.9208 4.33266 14.065 4.15696 14.25 4.03335C14.435 3.90973 14.6525 3.84375 14.875 3.84375C15.1734 3.84375 15.4595 3.96228 15.6705 4.17325C15.8815 4.38423 16 4.67038 16 4.96875Z" fill="#033E27"/>
</svg>
