<svg width="29" height="28" viewBox="0 0 29 28" fill="none" xmlns="http://www.w3.org/2000/svg">
<path d="M1 23.275L10.3326 16.9172C13.7422 14.5942 15.2578 14.5942 18.6674 16.9172L28 23.275M28 10.45L22.2417 14.6447C20.8455 15.6618 19.698 16.525 17.875 16.525M1 10.45L6.75826 14.6447C8.15439 15.6618 9.30197 16.525 11.125 16.525M1.02149 17.2688C1.11051 21.3638 1.15503 23.4112 2.68225 24.9275C4.20946 26.4438 6.33497 26.4964 10.586 26.6015C13.2031 26.6662 15.7969 26.6662 18.4141 26.6015C22.6651 26.4964 24.7905 26.4438 26.3178 24.9275C27.845 23.4112 27.8894 21.3638 27.9785 17.2688C28.0221 15.2626 27.9993 13.2761 27.9101 11.2493C27.8547 9.99051 27.8271 9.3611 27.5078 8.80278C27.1885 8.24448 26.6383 7.88412 25.5376 7.16342L20.4605 3.83886C17.5702 1.9463 16.1251 1 14.5 1C12.8749 1 11.4298 1.94628 8.53952 3.83886L3.46236 7.16342C2.36173 7.88412 1.81143 8.24448 1.4922 8.80278C1.17296 9.3611 1.14526 9.99053 1.08986 11.2493C1.00066 13.2761 0.977873 15.2626 1.02149 17.2688Z" stroke="#0D74E3" stroke-width="2" stroke-linejoin="round"/>
</svg>
