<svg width="29" height="29" viewBox="0 0 29 29" fill="none" xmlns="http://www.w3.org/2000/svg">
<path d="M17.5 1V5.5M25 4L22 7M28 11.5H23.5M10.2374 5.06834L9.6334 3.70937C9.23848 2.82082 9.04102 2.37652 8.7457 2.03651C8.37561 1.61041 7.89321 1.29691 7.35351 1.13178C6.92287 1 6.43669 1 5.46432 1C4.04187 1 3.33063 1 2.7336 1.27344C2.03031 1.59553 1.39515 2.29492 1.1421 3.0259C0.927266 3.64643 0.988796 4.28414 1.11187 5.55955C2.42187 19.1353 9.86472 26.5781 23.4405 27.8881C24.7159 28.0112 25.3535 28.0727 25.9741 27.8579C26.705 27.6049 27.4045 26.9696 27.7265 26.2664C28 25.6693 28 24.9581 28 23.5357C28 22.5632 28 22.0771 27.8683 21.6464C27.7031 21.1067 27.3896 20.6243 26.9635 20.2543C26.6234 19.9589 26.1791 19.7615 25.2905 19.3666L23.9317 18.7625C22.9693 18.3349 22.4883 18.1211 21.9993 18.0746C21.5314 18.0301 21.0597 18.0958 20.6217 18.2663C20.164 18.4445 19.7594 18.7816 18.9505 19.4557C18.1452 20.1268 17.7426 20.4623 17.2506 20.642C16.8145 20.8013 16.2379 20.8604 15.7784 20.7926C15.2603 20.7163 14.8634 20.5043 14.07 20.0801C11.6008 18.7607 10.2393 17.3992 8.91979 14.93C8.49571 14.1365 8.28367 13.7396 8.20731 13.2215C8.13961 12.7621 8.19862 12.1855 8.35795 11.7494C8.53768 11.2574 8.87322 10.8548 9.54429 10.0495C10.2184 9.24052 10.5555 8.83603 10.7337 8.37836C10.9043 7.94041 10.9699 7.4686 10.9254 7.00072C10.8789 6.51178 10.6651 6.03064 10.2374 5.06834Z" stroke="#0D74E3" stroke-width="2" stroke-linecap="round"/>
</svg>
