<svg width="15" height="15" viewBox="0 0 15 15" fill="none" xmlns="http://www.w3.org/2000/svg">
<path d="M7.5044 1.35138C9.50948 1.35138 9.74692 1.36017 10.5355 1.39535C11.2683 1.42759 11.6641 1.55071 11.9279 1.65331C12.2767 1.78816 12.5288 1.95232 12.7897 2.21321C13.0535 2.47704 13.2148 2.72621 13.3496 3.07504C13.4522 3.33887 13.5753 3.73754 13.6076 4.46746C13.6428 5.25894 13.6516 5.49639 13.6516 7.49853C13.6516 9.50362 13.6428 9.74106 13.6076 10.5296C13.5753 11.2625 13.4522 11.6582 13.3496 11.922C13.2148 12.2709 13.0506 12.523 12.7897 12.7839C12.5259 13.0477 12.2767 13.2089 11.9279 13.3438C11.6641 13.4464 11.2654 13.5695 10.5355 13.6017C9.74399 13.6369 9.50655 13.6457 7.5044 13.6457C5.49932 13.6457 5.26187 13.6369 4.47332 13.6017C3.74047 13.5695 3.34473 13.4464 3.08091 13.3438C2.73207 13.2089 2.47997 13.0448 2.21907 12.7839C1.95525 12.52 1.79402 12.2709 1.65918 11.922C1.55658 11.6582 1.43346 11.2595 1.40121 10.5296C1.36603 9.73813 1.35724 9.50068 1.35724 7.49853C1.35724 5.49345 1.36603 5.25601 1.40121 4.46746C1.43346 3.73461 1.55658 3.33887 1.65918 3.07504C1.79402 2.72621 1.95818 2.47411 2.21907 2.21321C2.4829 1.94938 2.73207 1.78816 3.08091 1.65331C3.34473 1.55071 3.7434 1.42759 4.47332 1.39535C5.26187 1.36017 5.49932 1.35138 7.5044 1.35138ZM7.5044 0C5.46707 0 5.21204 0.00879421 4.41176 0.0439711C3.61442 0.0791479 3.06625 0.20813 2.59136 0.392808C2.09595 0.586281 1.67676 0.841313 1.2605 1.2605C0.841313 1.67676 0.586281 2.09595 0.392808 2.58843C0.20813 3.06625 0.0791479 3.61149 0.0439711 4.40883C0.00879422 5.21204 0 5.46707 0 7.5044C0 9.54172 0.00879422 9.79676 0.0439711 10.597C0.0791479 11.3944 0.20813 11.9425 0.392808 12.4174C0.586281 12.9128 0.841313 13.332 1.2605 13.7483C1.67676 14.1645 2.09595 14.4225 2.58843 14.6131C3.06625 14.7977 3.61149 14.9267 4.40883 14.9619C5.20911 14.9971 5.46414 15.0059 7.50147 15.0059C9.53879 15.0059 9.79382 14.9971 10.5941 14.9619C11.3914 14.9267 11.9396 14.7977 12.4145 14.6131C12.907 14.4225 13.3262 14.1645 13.7424 13.7483C14.1587 13.332 14.4166 12.9128 14.6072 12.4204C14.7919 11.9425 14.9209 11.3973 14.956 10.6C14.9912 9.79969 15 9.54466 15 7.50733C15 5.47 14.9912 5.21497 14.956 4.4147C14.9209 3.61735 14.7919 3.06918 14.6072 2.59429C14.4225 2.09595 14.1675 1.67676 13.7483 1.2605C13.332 0.844245 12.9128 0.586281 12.4204 0.39574C11.9425 0.211061 11.3973 0.0820794 10.6 0.0469025C9.79676 0.00879422 9.54172 0 7.5044 0Z" fill="#F5F5F5"/>
<path d="M7.5044 3.6496C5.3762 3.6496 3.6496 5.3762 3.6496 7.5044C3.6496 9.6326 5.3762 11.3592 7.5044 11.3592C9.6326 11.3592 11.3592 9.6326 11.3592 7.5044C11.3592 5.3762 9.6326 3.6496 7.5044 3.6496ZM7.5044 10.0049C6.1237 10.0049 5.00391 8.88509 5.00391 7.5044C5.00391 6.12371 6.1237 5.00391 7.5044 5.00391C8.88509 5.00391 10.0049 6.12371 10.0049 7.5044C10.0049 8.88509 8.88509 10.0049 7.5044 10.0049Z" fill="#F5F5F5"/>
<path d="M12.4116 3.49714C12.4116 3.99548 12.007 4.39708 11.5116 4.39708C11.0133 4.39708 10.6117 3.99255 10.6117 3.49714C10.6117 2.9988 11.0162 2.5972 11.5116 2.5972C12.007 2.5972 12.4116 3.00173 12.4116 3.49714Z" fill="#F5F5F5"/>
</svg>
