<svg width="24" height="24" viewBox="0 0 24 24" fill="none" xmlns="http://www.w3.org/2000/svg">
<path d="M7 20C5.8954 20 5 19.1046 5 18C5 16.8954 5.8954 16 7 16C8.1046 16 9 16.8954 9 18C9 19.1046 8.1046 20 7 20Z" stroke="white"/>
<path d="M17 20C15.8954 20 15 19.1046 15 18C15 16.8954 15.8954 16 17 16C18.1046 16 19 16.8954 19 18C19 19.1046 18.1046 20 17 20Z" stroke="white"/>
<path d="M5 11H2V13C2 15.357 2 16.5355 2.7322 17.2678C3.2191 17.7546 3.9033 17.9178 5 17.9724M19 17.9724C20.0967 17.9178 20.7809 17.7546 21.2678 17.2678C22 16.5355 22 15.357 22 13V9C22 6.64298 22 5.46447 21.2678 4.73223C20.5355 4 19.357 4 17 4H13.7C12.5832 4 12.0248 4 11.5729 4.14683C10.6596 4.44358 9.9436 5.15964 9.6468 6.07295C9.5 6.52485 9.5 7.08323 9.5 8.2C9.5 9.42079 9.5 10.0312 9.8343 10.444C9.9002 10.5254 9.9746 10.5998 10.056 10.6657C10.4688 11 11.0792 11 12.3 11H16M9 18H15" stroke="white" stroke-linecap="round" stroke-linejoin="round"/>
<path d="M9.5 6H7.6788C6.2234 6 5.4958 6 4.9036 6.35371C4.3114 6.70742 3.9664 7.34811 3.2764 8.6295L2 11" stroke="white" stroke-linecap="round" stroke-linejoin="round"/>
<path d="M14 13C14 13 14.6721 12.4436 15.2627 11.9161C15.6802 11.5803 16 11.2926 16 11.0048C16 10.7498 15.7505 10.5128 15.3442 10.1415C14.7681 9.66187 14 9 14 9" stroke="white" stroke-linecap="round" stroke-linejoin="round"/>
</svg>
