<svg width="26" height="25" viewBox="0 0 26 25" fill="none" xmlns="http://www.w3.org/2000/svg">
<path d="M25.5143 7.68537C25.8085 7.39113 25.8087 6.91347 25.5143 6.61902L19.1781 0.283525C18.8836 -0.0108695 18.4064 -0.0108695 18.1119 0.283525L16.1304 2.26487L13.3382 3.11931L10.5915 2.22572L8.58636 0.220796C8.29187 -0.0735987 7.81451 -0.0735987 7.52012 0.220796L0.220759 7.5194C-0.0734857 7.81364 -0.0736867 8.2913 0.220759 8.58575L2.20955 10.5743L2.94018 13.3556C2.6677 13.5441 2.5719 13.6834 2.09464 14.1484C0.708518 15.5346 1.63503 17.8965 3.56923 18.0011C3.63015 19.1534 4.55058 20.0716 5.70227 20.134C5.76319 21.2862 6.68368 22.2045 7.83532 22.2668C7.86482 22.8245 8.09589 23.3447 8.49377 23.7425C9.37485 24.6235 10.8084 24.6236 11.6895 23.7425L12.2574 23.1748C12.2685 23.1636 12.2789 23.152 12.2898 23.1407L13.208 24.0588C14.089 24.94 15.5232 24.9404 16.4046 24.0589C16.7671 23.6965 16.9907 23.2325 17.0502 22.7313C17.0599 22.7314 17.0696 22.732 17.0793 22.732C17.6581 22.7319 18.2371 22.5116 18.6777 22.0711C19.0317 21.7172 19.2533 21.2663 19.3189 20.7786C19.3414 20.7792 19.3638 20.7802 19.3863 20.7802C19.9651 20.7801 20.544 20.5598 20.9846 20.1193C21.3319 19.772 21.5523 19.3315 21.6224 18.8542C21.6598 18.856 21.6971 18.857 21.7345 18.857C22.3133 18.857 22.8922 18.6367 23.3329 18.1961C24.2163 17.3127 24.2164 15.8831 23.3329 14.9996L21.2321 12.899L23.4458 9.75373L25.5143 7.68537ZM2.8869 9.11925L1.82015 8.0526L8.05321 1.82014L9.11996 2.88679L2.8869 9.11925ZM4.22417 16.2778C3.93093 16.5709 3.45398 16.5709 3.16094 16.2778C2.86715 15.9841 2.8671 15.5086 3.16094 15.2148L3.69328 14.6825C4.16375 14.2121 4.97667 14.546 4.97667 15.214C4.97667 15.6888 4.601 15.8456 4.22417 16.2778ZM6.35716 18.4106C6.06402 18.7037 5.58712 18.7037 5.29398 18.4106C5.00019 18.1169 5.00014 17.6414 5.29398 17.3477L7.42341 15.2184C7.7166 14.9253 8.19345 14.9252 8.48669 15.2184C8.78038 15.5121 8.78048 15.9875 8.48669 16.2813L6.35716 18.4106ZM8.49021 20.5434C8.19707 20.8366 7.72017 20.8365 7.42703 20.5434C7.13323 20.2497 7.13318 19.7743 7.42703 19.4805L9.02416 17.8836C9.3173 17.5905 9.79425 17.5905 10.0874 17.8836C10.3811 18.1773 10.3811 18.6527 10.0874 18.9465L8.49021 20.5434ZM11.1911 22.1085L10.6233 22.6762C10.3301 22.9694 9.85316 22.9694 9.55997 22.6762C9.26623 22.3825 9.26618 21.9071 9.56002 21.6134L10.1278 21.0455C10.421 20.7525 10.8979 20.7523 11.1911 21.0455C11.4849 21.3392 11.485 21.8147 11.1911 22.1085ZM22.2666 16.0659C22.5607 16.3598 22.5606 16.8358 22.2666 17.1297C21.9732 17.4231 21.4958 17.4232 21.2024 17.1297L19.4301 15.3576C19.0891 15.0167 18.6103 15.0413 18.3235 15.328C18.0291 15.6225 18.0291 16.0998 18.3235 16.3943L19.9184 17.989C20.2123 18.283 20.2125 18.7589 19.9183 19.0529C19.625 19.3464 19.1475 19.3464 18.8541 19.0529C18.2868 18.4827 18.3819 18.5798 17.2603 17.4573C16.9658 17.1629 16.4884 17.1629 16.194 17.4573C16.1937 17.4576 16.1935 17.4578 16.1933 17.4581C16.1932 17.4582 16.1933 17.458 16.1933 17.4581C15.8989 17.7526 15.8987 18.2302 16.1931 18.5247L17.6309 19.9622C17.9072 20.2601 17.897 20.7194 17.6115 21.0048C17.318 21.2982 16.8406 21.2983 16.5472 21.0048L15.1299 19.5876C14.8354 19.2932 14.3581 19.2932 14.0636 19.5876C13.7692 19.8821 13.7693 20.3594 14.0637 20.6539L14.0972 20.6875C14.0977 20.688 14.0981 20.6885 14.0986 20.689L15.3385 21.9288C15.6325 22.2228 15.6327 22.6986 15.3385 22.9928C15.0451 23.2861 14.5677 23.2862 14.2743 22.9927L12.9178 21.6363C12.9183 21.6165 12.9192 21.5968 12.9192 21.577C12.9192 20.9734 12.6842 20.4059 12.2574 19.9791C12.0453 19.7671 11.8011 19.6067 11.5404 19.4967C12.2217 18.2511 11.591 16.6342 10.1613 16.2391C10.3229 15.5037 10.1181 14.7172 9.55288 14.152C8.67186 13.2711 7.23824 13.2712 6.35716 14.152L6.26639 14.2428C5.93007 13.5371 5.23341 13.0255 4.39602 12.9625L3.7261 10.4125L10.3925 3.74675L11.9408 4.25044C9.527 6.66677 9.11041 7.08381 9.0519 7.14237C9.05205 7.14227 9.05226 7.14202 9.0519 7.14237C9.04848 7.14579 9.04597 7.1483 9.04477 7.14951C9.04462 7.14966 9.04492 7.14936 9.04477 7.14951C9.04431 7.14996 9.04441 7.14986 9.04396 7.15031C8.15102 8.043 8.15072 9.48838 9.04391 10.3813C9.93474 11.2722 11.3843 11.2722 12.2751 10.3814L14.4284 8.22827L22.2666 16.0659ZM20.1498 11.8168L14.9615 6.62898C14.667 6.33463 14.1896 6.33463 13.8952 6.62898L11.2088 9.31512C10.9059 9.61796 10.413 9.61801 10.1101 9.31507C9.80651 9.01153 9.80641 8.52025 10.1101 8.21666C10.11 8.21681 10.1103 8.21651 10.1101 8.21666C10.1107 8.21611 10.1123 8.21445 10.1147 8.21208C10.1146 8.21214 10.1148 8.21198 10.1147 8.21208C10.1151 8.21163 10.1152 8.21158 10.1154 8.21138C10.1153 8.21143 10.1154 8.21128 10.1154 8.21138C10.1639 8.16267 10.6005 7.72453 13.7413 4.57284L16.3179 3.7844L21.8852 9.35111L20.1498 11.8168ZM17.5969 2.93082L18.645 1.88282L23.9149 7.15217L22.8668 8.20017L17.5969 2.93082Z" fill="white"/>
<path d="M10.1154 8.21138C10.1144 8.21239 10.1123 8.21438 10.1101 8.21666C10.1109 8.21584 10.1136 8.21315 10.1154 8.21138Z" fill="white"/>
<path d="M9.04522 7.15035L9.05089 7.14468C9.04906 7.14651 9.04685 7.14872 9.04522 7.15035Z" fill="white"/>
</svg>
