<svg width="23" height="23" viewBox="0 0 23 23" fill="none" xmlns="http://www.w3.org/2000/svg">
<path d="M14.5832 17.7282H8.29237M0.953156 11.6516C0.953156 9.25224 0.953156 8.05258 1.49752 7.05807C2.04188 6.06356 3.0364 5.44633 5.02543 4.21189L7.12236 2.91047C9.22491 1.60557 10.2762 0.953125 11.4378 0.953125C12.5994 0.953125 13.6507 1.60557 15.7533 2.91047L17.8502 4.21188C19.8393 5.44633 20.8337 6.06356 21.3781 7.05807C21.9225 8.05258 21.9225 9.25224 21.9225 11.6516V13.2464C21.9225 17.3362 21.9225 19.3813 20.6941 20.6518C19.4658 21.9224 17.4887 21.9224 13.5347 21.9224H9.34088C5.38686 21.9224 3.40987 21.9224 2.18151 20.6518C0.953156 19.3813 0.953156 17.3362 0.953156 13.2464V11.6516Z" stroke="white" stroke-width="1.9063" stroke-linecap="round"/>
</svg>
