<svg width="24" height="26" viewBox="0 0 24 26" fill="none" xmlns="http://www.w3.org/2000/svg">
<path d="M23.3088 8.0899C23.3102 8.07537 23.3106 8.06084 23.311 8.04651C23.3114 8.03826 23.3121 8.03021 23.3121 8.02216C23.3121 8.01883 23.3119 8.01549 23.3119 8.01215C23.3119 8.00685 23.3117 8.00155 23.3116 7.99644C23.2998 6.51582 22.2703 5.27415 20.8895 4.93664V3.98438C20.8895 2.23261 19.4646 0.807557 17.713 0.807557C16.9124 0.807557 16.1806 1.106 15.6214 1.59626C15.0724 0.643414 14.044 0 12.8675 0C11.691 0 10.6626 0.643414 10.1136 1.59626C9.55442 1.1058 8.82265 0.807557 8.02216 0.807557C6.61341 0.807557 5.4165 1.72958 5.00183 3.00168C4.48486 2.63747 3.85558 2.42267 3.17663 2.42267C1.42505 2.42267 0 3.84772 0 5.5993V8.02216C0 8.38893 0.0632223 8.74117 0.178279 9.06926L1.64299 17.1187C1.64378 17.123 1.64457 17.1275 1.64555 17.1319C1.98227 18.8137 3.21413 20.3352 4.84534 21.1306V22.9623C4.84534 24.4912 6.08937 25.735 7.61829 25.735H15.6941C17.223 25.735 18.4668 24.4912 18.4668 22.9623V21.1306C20.0986 20.3352 21.3305 18.8133 21.6668 17.1317C21.6678 17.1273 21.6686 17.123 21.6693 17.1187L23.3002 8.15705C23.3015 8.1488 23.3021 8.14056 23.3033 8.13211C23.3055 8.11817 23.3076 8.10423 23.3088 8.0899ZM17.713 2.31547C18.6331 2.31547 19.3816 3.06412 19.3816 3.98418V4.84534H16.0441V3.98438C16.0441 3.06412 16.7928 2.31547 17.713 2.31547ZM11.1988 3.17663C11.1988 2.25656 11.9474 1.50791 12.8675 1.50791C13.7876 1.50791 14.5362 2.25656 14.5362 3.17663V4.84534H12.8675C12.2557 4.84534 11.6841 5.01969 11.1988 5.32049V3.17663ZM6.35345 3.98438C6.35345 3.06412 7.10191 2.31547 8.02197 2.31547C8.94222 2.31547 9.69088 3.06412 9.69088 3.98438V8.02216C9.69088 8.94222 8.94222 9.69088 8.02197 9.69088C7.10191 9.69088 6.35345 8.94222 6.35345 8.02216V3.98438ZM3.17663 3.93058C4.09688 3.93058 4.84554 4.67923 4.84554 5.5993V8.02216C4.84554 8.94222 4.09688 9.69088 3.17663 9.69088C2.48511 9.69088 1.89039 9.26796 1.63769 8.66695L1.50791 7.95403V5.5993C1.50791 4.67923 2.25656 3.93058 3.17663 3.93058ZM20.187 16.8419C19.9191 18.1676 18.8179 19.4087 17.4444 19.9317C17.1521 20.043 16.9589 20.3234 16.9589 20.6362V22.9621C16.9589 23.6597 16.3915 24.2271 15.6941 24.2271H7.61829C6.92088 24.2271 6.35325 23.6597 6.35325 22.9621V20.6362C6.35325 20.3234 6.16005 20.043 5.8677 19.9317C4.49467 19.4089 3.39339 18.1676 3.12518 16.8419L2.0616 10.9962C2.40873 11.1267 2.78433 11.1988 3.17663 11.1988C4.14675 11.1988 5.01616 10.7611 5.59949 10.0735C6.18263 10.7611 7.05203 11.1988 8.02216 11.1988C8.99229 11.1988 9.8617 10.7611 10.4448 10.0735C11.028 10.7611 11.8974 11.1988 12.8675 11.1988H17.713C18.1293 11.1988 18.467 10.8613 18.467 10.4448C18.467 10.0284 18.1293 9.69088 17.713 9.69088H12.8675C11.9474 9.69088 11.1988 8.94222 11.1988 8.02216C11.1988 7.10191 11.9474 6.35345 12.8675 6.35345H20.1357C21.0357 6.35345 21.7712 7.06971 21.8029 7.96228L20.187 16.8419Z" fill="white"/>
</svg>
