<svg width="29" height="23" viewBox="0 0 29 23" fill="none" xmlns="http://www.w3.org/2000/svg">
<path fill-rule="evenodd" clip-rule="evenodd" d="M3.37606 7.29994C1.44819 7.70753 0 9.41915 0 11.4676C0 13.516 1.44819 15.2276 3.37606 15.6352C5.04443 19.9051 9.20159 22.9352 14.0612 22.9352C18.9182 22.9352 23.0741 19.909 24.7451 15.6405C26.6861 15.246 28.15 13.5265 28.15 11.4676C28.15 9.40866 26.6861 7.69049 24.7438 7.29339C23.0741 3.02613 18.9182 0 14.0612 0C9.20159 0 5.04443 3.03006 3.37606 7.29994ZM4.14537 9.17669C4.55296 9.15703 4.90551 8.88836 5.03263 8.50174C6.279 4.70892 9.85164 1.96587 14.0612 1.96587C18.2695 1.96587 21.8435 4.70761 23.0898 8.50043C23.2183 8.89099 23.5747 9.15965 23.985 9.17538C25.2064 9.22518 26.1841 10.233 26.1841 11.4676C26.1841 12.7022 25.2064 13.71 23.985 13.7598C23.5747 13.7755 23.2183 14.0442 23.0898 14.4347C21.8435 18.2276 18.2695 20.9693 14.0612 20.9693C9.85164 20.9693 6.279 18.2263 5.03263 14.4334C4.90551 14.0468 4.55296 13.7781 4.14537 13.7585C2.93177 13.6995 1.96587 12.6956 1.96587 11.4676C1.96587 10.2396 2.93177 9.23567 4.14537 9.17669Z" fill="white"/>
<path fill-rule="evenodd" clip-rule="evenodd" d="M16.284 1.85316C16.3298 2.06154 16.3547 2.27779 16.3547 2.50059C16.3547 4.12833 15.0337 5.4494 13.4059 5.4494C12.8699 5.4494 12.3666 5.30654 11.9328 5.05491C11.4637 4.78362 10.8608 4.94351 10.5895 5.4127C10.3182 5.8832 10.4781 6.48476 10.9473 6.75605C11.6707 7.17543 12.5108 7.41527 13.4059 7.41527C16.1188 7.41527 18.3206 5.21349 18.3206 2.50059C18.3206 2.13101 18.28 1.7706 18.2014 1.42329C18.0834 0.893816 17.5566 0.560929 17.0271 0.678881C16.4989 0.798144 16.1647 1.32369 16.284 1.85316Z" fill="white"/>
<path fill-rule="evenodd" clip-rule="evenodd" d="M17.6784 11.6301C17.7571 11.1662 18.162 10.8123 18.6483 10.8123C19.1345 10.8123 19.5395 11.1662 19.6181 11.6301C19.7072 12.1661 20.2144 12.5265 20.7504 12.4374C21.2852 12.347 21.6456 11.8398 21.5564 11.3051C21.3219 9.91062 20.1083 8.84643 18.6483 8.84643C17.1883 8.84643 15.9747 9.91062 15.7401 11.3051C15.651 11.8398 16.0114 12.347 16.5461 12.4374C17.0821 12.5265 17.5893 12.1661 17.6784 11.6301Z" fill="white"/>
<path fill-rule="evenodd" clip-rule="evenodd" d="M9.80566 16.5471C10.6549 18.015 12.2433 19.0032 14.0611 19.0032C15.8789 19.0032 17.4673 18.015 18.3166 16.5471C18.5892 16.0779 18.428 15.4751 17.9588 15.2038C17.4896 14.9325 16.8867 15.0924 16.6154 15.5616C16.1056 16.4436 15.1515 17.0373 14.0611 17.0373C12.9707 17.0373 12.0166 16.4436 11.5068 15.5616C11.2355 15.0924 10.6326 14.9325 10.1634 15.2038C9.69426 15.4751 9.53306 16.0779 9.80566 16.5471Z" fill="white"/>
<path fill-rule="evenodd" clip-rule="evenodd" d="M8.50436 11.6301C8.583 11.1662 8.98797 10.8123 9.47419 10.8123C9.96042 10.8123 10.3654 11.1662 10.444 11.6301C10.5331 12.1661 11.0403 12.5265 11.5764 12.4374C12.1111 12.347 12.4715 11.8398 12.3824 11.3051C12.1478 9.91062 10.9342 8.84643 9.47419 8.84643C8.01421 8.84643 6.80061 9.91062 6.56601 11.3051C6.47689 11.8398 6.8373 12.347 7.37202 12.4374C7.90805 12.5265 8.41524 12.1661 8.50436 11.6301Z" fill="white"/>
</svg>
