<svg width="26" height="27" viewBox="0 0 26 27" fill="none" xmlns="http://www.w3.org/2000/svg">
<path d="M19.642 8.38722L20.2127 7.81665C21.158 6.87131 22.6907 6.87131 23.636 7.81665C24.5814 8.76199 24.5814 10.2947 23.636 11.24L23.0655 11.8106M19.642 8.38722C19.642 8.38722 19.7134 9.59967 20.7832 10.6695C21.8531 11.7392 23.0655 11.8106 23.0655 11.8106M19.642 8.38722L14.3966 13.6326C14.0413 13.9879 13.8636 14.1656 13.7108 14.3615C13.5307 14.5926 13.3762 14.8426 13.2501 15.1071C13.1433 15.3314 13.0637 15.5696 12.9049 16.0463L12.2316 18.0661M23.0655 11.8106L17.8201 17.0561C17.4647 17.4114 17.2871 17.5891 17.0912 17.7418C16.8601 17.922 16.6101 18.0765 16.3456 18.2025C16.1213 18.3094 15.8831 18.3889 15.4064 18.5478L13.3866 19.2211M12.2316 18.0661L12.067 18.5599C11.9888 18.7945 12.0499 19.0531 12.2247 19.228C12.3995 19.4028 12.6582 19.4639 12.8927 19.3857L13.3866 19.2211M12.2316 18.0661L13.3866 19.2211M7.10881 14.4946H10.1867M7.10881 9.57057H15.1113M7.10881 19.4204H8.95554M21.6715 2.39551C20.2292 0.953125 17.9076 0.953125 13.2646 0.953125H10.8023C6.15937 0.953125 3.8379 0.953125 2.39551 2.39551C0.953125 3.8379 0.953125 6.15937 0.953125 10.8023V15.727C0.953125 20.3699 0.953125 22.6915 2.39551 24.1338C3.8379 25.5762 6.15937 25.5762 10.8023 25.5762H13.2646C17.9076 25.5762 20.2292 25.5762 21.6715 24.1338C22.8326 22.9727 23.059 21.242 23.1032 18.1893" stroke="white" stroke-width="1.9063" stroke-linecap="round"/>
</svg>
