<svg width="29" height="29" viewBox="0 0 29 29" fill="none" xmlns="http://www.w3.org/2000/svg">
<path d="M23.3974 16.7022C22.8832 16.5895 22.375 16.9149 22.2622 17.4291C22.1494 17.9433 22.4749 18.4515 22.989 18.5643L23.1932 17.6333L23.3974 16.7022ZM23.6134 23.4905C23.1094 23.6422 22.8238 24.1739 22.9755 24.678C23.1273 25.182 23.659 25.4676 24.163 25.3158L23.8882 24.4032L23.6134 23.4905ZM16.2432 6.51317H15.2901C15.2901 9.05749 13.2275 11.1201 10.6832 11.1201V12.0732V13.0264C14.2803 13.0264 17.1964 10.1103 17.1964 6.51317H16.2432ZM10.6832 12.0732V11.1201C8.13888 11.1201 6.07631 9.05749 6.07631 6.51317H5.12316H4.17001C4.17001 10.1103 7.08606 13.0264 10.6832 13.0264V12.0732ZM5.12316 6.51317H6.07631C6.07631 3.96885 8.13888 1.90628 10.6832 1.90628V0.953125V-2.52128e-05C7.08606 -2.52128e-05 4.17001 2.91603 4.17001 6.51317H5.12316ZM10.6832 0.953125V1.90628C13.2275 1.90628 15.2901 3.96885 15.2901 6.51317H16.2432H17.1964C17.1964 2.91603 14.2803 -2.52128e-05 10.6832 -2.52128e-05V0.953125ZM15.5482 4.2079L16.3419 4.73566C16.9199 3.86642 17.9053 3.29691 19.0233 3.29691V2.34376V1.39061C17.2403 1.39061 15.6708 2.30215 14.7545 3.68014L15.5482 4.2079ZM19.0233 2.34376V3.29691C20.8 3.29691 22.2401 4.73715 22.2401 6.51379H23.1933H24.1464C24.1464 3.68435 21.8528 1.39061 19.0233 1.39061V2.34376ZM23.1933 6.51379H22.2401C22.2401 8.29043 20.8 9.73067 19.0233 9.73067V10.6838V11.637C21.8528 11.637 24.1464 9.34323 24.1464 6.51379H23.1933ZM19.0233 10.6838V9.73067C17.9053 9.73067 16.9199 9.16116 16.3419 8.29192L15.5482 8.81968L14.7545 9.34744C15.6708 10.7254 17.2403 11.637 19.0233 11.637V10.6838ZM20.4133 21.8045H19.4601C19.4601 22.8502 18.7097 23.9832 17.0905 24.9085C15.4983 25.8184 13.2349 26.4114 10.6832 26.4114V27.3646V28.3177C13.5052 28.3177 16.107 27.6661 18.0363 26.5636C19.9387 25.4766 21.3664 23.8296 21.3664 21.8045H20.4133ZM10.6832 27.3646V26.4114C8.13146 26.4114 5.86815 25.8184 4.27589 24.9085C2.65667 23.9832 1.90628 22.8502 1.90628 21.8045H0.953125H-2.52128e-05C-2.52128e-05 23.8296 1.42773 25.4766 3.3301 26.5636C5.25944 27.6661 7.86117 28.3177 10.6832 28.3177V27.3646ZM0.953125 21.8045H1.90628C1.90628 20.7588 2.65667 19.6258 4.27589 18.7006C5.86815 17.7907 8.13146 17.1976 10.6832 17.1976V16.2445V15.2913C7.86117 15.2913 5.25944 15.9429 3.3301 17.0454C1.42773 18.1325 -2.52128e-05 19.7795 -2.52128e-05 21.8045H0.953125ZM10.6832 16.2445V17.1976C13.2349 17.1976 15.4983 17.7907 17.0905 18.7006C18.7097 19.6258 19.4601 20.7588 19.4601 21.8045H20.4133H21.3664C21.3664 19.7795 19.9387 18.1325 18.0363 17.0454C16.107 15.9429 13.5052 15.2913 10.6832 15.2913V16.2445ZM23.1932 17.6333L22.989 18.5643C24.1005 18.808 24.9946 19.2278 25.589 19.7142C26.1841 20.2011 26.4101 20.6891 26.4101 21.1083H27.3633H28.3164C28.3164 19.9413 27.6766 18.9592 26.7962 18.2388C25.9152 17.5179 24.7243 16.9932 23.3974 16.7022L23.1932 17.6333ZM27.3633 21.1083H26.4101C26.4101 21.4882 26.2266 21.9195 25.7518 22.3607C25.2738 22.8046 24.5455 23.2099 23.6134 23.4905L23.8882 24.4032L24.163 25.3158C25.297 24.9744 26.3061 24.4476 27.0492 23.7573C27.7953 23.0642 28.3164 22.1591 28.3164 21.1083H27.3633Z" fill="white"/>
</svg>
