<svg width="38" height="37" viewBox="0 0 38 37" fill="none" xmlns="http://www.w3.org/2000/svg">
<path d="M13.8018 19.5385H13.0942C10.8068 19.5385 9.6631 19.5385 9.17559 18.7843C8.68809 18.0303 9.15259 16.9796 10.0816 14.8784L12.8745 8.56123C13.7192 6.65075 14.1415 5.6955 14.9609 5.16025C15.7802 4.625 16.82 4.625 18.8999 4.625H22.121C24.6475 4.625 25.9108 4.625 26.3871 5.45033C26.8637 6.27566 26.237 7.37823 24.9834 9.58335L23.3309 12.4904C22.7078 13.5866 22.3962 14.1348 22.4005 14.5834C22.4062 15.1665 22.7163 15.7037 23.2172 15.9979C23.6026 16.2243 24.2305 16.2243 25.4865 16.2243C27.0742 16.2243 27.8682 16.2243 28.2817 16.4992C28.8188 16.8563 29.1 17.4951 29.0015 18.1349C28.9256 18.6273 28.3916 19.2178 27.3235 20.3989L18.7903 29.8348C17.1142 31.6882 16.2761 32.6149 15.7134 32.3217C15.1506 32.0283 15.4208 30.8059 15.9613 28.3608L17.0201 23.5715C17.4316 21.7098 17.6374 20.7789 17.1425 20.1587C16.6477 19.5385 15.699 19.5385 13.8018 19.5385Z" stroke="white" stroke-width="1.5" stroke-linejoin="round"/>
</svg>
