<svg width="59" height="22" viewBox="0 0 59 22" fill="none" xmlns="http://www.w3.org/2000/svg">
<path d="M7.81 14.036C7.81 19.426 6.028 21.934 2.002 21.934C1.364 21.934 0.725999 21.912 -1.01328e-06 21.824V17.974C0.637999 18.084 1.364 18.15 1.914 18.15C3.85 18.15 4.62 16.984 4.62 14.168C4.62 12.21 4.202 9.98798 3.564 7.25998H6.996C7.502 9.45998 7.81 11.924 7.81 14.036ZM14.8375 15.84L14.0895 16.566H13.7815C10.7015 16.566 9.51345 14.982 9.51345 11.66V-2.14577e-05H13.0335V10.846C13.0335 12.32 13.4515 12.782 14.8375 12.782V15.84ZM16.5973 16.566H14.1113V13.442L14.8373 12.782H18.2253C17.8953 12.43 17.5433 12.056 17.2133 11.638L16.2453 10.428V6.92998C17.7413 6.55598 19.9413 6.18198 21.8773 6.18198C25.7273 6.18198 27.3553 7.10598 27.3773 9.56998C27.3993 10.692 26.9373 11.792 26.1233 12.782H28.7853V15.84L28.0593 16.566H27.5093C25.3973 16.566 23.6153 16.258 22.0533 15.576C20.4693 16.192 18.5993 16.566 16.5973 16.566ZM21.8773 9.67998C20.8873 9.67998 19.8533 9.76798 18.8633 9.87798C20.0293 11.264 20.9973 12.056 22.3173 12.43C24.0553 12.056 25.0233 11.418 25.0013 10.714C24.9793 9.98798 24.0113 9.67998 21.8773 9.67998ZM39.5166 4.13598C39.5166 4.90598 38.9226 5.52198 38.1306 5.52198C37.3386 5.52198 36.7226 4.90598 36.7226 4.13598C36.7226 3.34398 37.3386 2.72798 38.1306 2.72798C38.9226 2.72798 39.5166 3.34398 39.5166 4.13598ZM37.8666 7.08398C37.8666 7.85398 37.2726 8.46998 36.4806 8.46998C35.6886 8.46998 35.0726 7.85398 35.0726 7.08398C35.0726 6.29198 35.6886 5.67598 36.4806 5.67598C37.2726 5.67598 37.8666 6.29198 37.8666 7.08398ZM41.1666 7.08398C41.1666 7.85398 40.5726 8.46998 39.7806 8.46998C38.9886 8.46998 38.3726 7.85398 38.3726 7.08398C38.3726 6.29198 38.9886 5.67598 39.7806 5.67598C40.5726 5.67598 41.1666 6.29198 41.1666 7.08398ZM47.1726 15.84L46.4466 16.566C44.4886 16.566 43.2126 15.62 42.8826 13.97C42.6846 15.818 41.6506 16.83 40.0886 16.83C38.6806 16.83 37.5586 15.994 37.2286 14.52C36.9866 16.016 36.0186 16.83 34.5226 16.83C32.8506 16.83 31.6406 15.862 31.3546 14.212C31.0906 15.708 29.9246 16.566 28.0546 16.566V13.442L28.7806 12.782C30.1226 12.782 30.7166 12.232 30.7166 10.912V9.85598H33.9946V10.912C33.9946 12.298 34.3686 12.914 35.2486 12.914C35.9746 12.914 36.4366 12.298 36.4366 10.912L36.4146 9.85598H39.6926L39.7146 10.912C39.7146 12.298 40.1546 12.914 40.8806 12.914C41.6506 12.914 42.0686 12.232 42.0686 10.912V9.08598H45.3466V10.912C45.3466 12.232 45.8526 12.782 47.1726 12.782V15.84ZM47.7213 16.566H46.4453V13.442L47.1713 12.782C48.6013 12.782 48.9753 12.342 48.9753 10.604V-2.14577e-05H52.4733V10.758C52.4733 14.718 50.9553 16.566 47.7213 16.566ZM58.3455 -2.14577e-05V16.566H54.8475V-2.14577e-05H58.3455Z" fill="black"/>
</svg>
