<svg width="43" height="30" viewBox="0 0 43 30" fill="none" xmlns="http://www.w3.org/2000/svg">
<g clip-path="url(#clip0_1047_96)">
<path d="M40.3125 1.40625C40.3125 1.90676 40.7135 2.3125 41.2083 2.3125H42.1042C42.599 2.3125 43 1.90676 43 1.40625C43 0.905746 42.599 0.500004 42.1042 0.500004H41.2083C40.7135 0.500004 40.3125 0.905746 40.3125 1.40625Z" fill="white"/>
<path d="M14.3333 29.5H18.6851L17.4182 28.2183C17.0823 27.8785 16.6265 27.6875 16.1514 27.6875H14.3333C7.40675 27.6875 1.79167 22.0071 1.79167 15C1.79167 7.99288 7.40675 2.31251 14.3333 2.3125H28.6667C35.5933 2.3125 41.2083 7.99288 41.2083 15C41.2083 22.0071 35.5933 27.6875 28.6667 27.6875H23.3049C22.5921 27.6875 21.9085 27.4011 21.4045 26.8912L19.9203 25.3897C19.0802 24.5399 17.9409 24.0625 16.7529 24.0625H14.3333C9.38575 24.0625 5.375 20.0051 5.375 15C5.375 9.99489 9.38575 5.9375 14.3333 5.9375H28.6667C33.6142 5.9375 37.625 9.99489 37.625 15C37.625 20.0051 33.6142 24.0625 28.6667 24.0625H25.2239C24.5111 24.0625 23.8275 23.7761 23.3235 23.2662L21.8392 21.7647C20.9992 20.9149 19.8599 20.4375 18.672 20.4375H14.3333C11.3648 20.4375 8.95833 18.003 8.95833 15C8.95833 11.997 11.3648 9.5625 14.3333 9.5625H28.6667C31.6352 9.5625 34.0417 11.997 34.0417 15C34.0417 17.9664 31.6935 20.3781 28.775 20.4364L28.7745 20.4375H27.4635C26.7507 20.4375 26.0671 20.1511 25.5631 19.6412L24.0788 18.1397C23.3896 17.4424 22.4988 16.9959 21.545 16.858L21.5 16.8125H14.3333C13.3438 16.8125 12.5417 16.001 12.5417 15C12.5417 13.999 13.3438 13.1875 14.3333 13.1875H28.6667C29.6562 13.1875 30.4583 13.999 30.4583 15C30.4583 16.001 29.6562 16.8125 28.6667 16.8125H25.0833L26.3503 18.0942C26.6862 18.434 27.142 18.625 27.6171 18.625H28.6667C30.6457 18.625 32.25 17.002 32.25 15C32.25 12.998 30.6457 11.375 28.6667 11.375H14.3333C12.3543 11.375 10.75 12.998 10.75 15C10.75 17.002 12.3543 18.625 14.3333 18.625H20.9115C21.6243 18.625 22.3079 18.9114 22.8119 19.4213L24.2962 20.9228C25.1362 21.7726 26.2755 22.25 27.4635 22.25H29.1146V22.2361C32.864 22.0022 35.8333 18.8519 35.8333 15C35.8333 10.996 32.6247 7.75 28.6667 7.75H14.3333C10.3753 7.75 7.16667 10.996 7.16667 15C7.16667 19.0041 10.3753 22.25 14.3333 22.25H18.672C19.3848 22.25 20.0683 22.5364 20.5723 23.0463L22.0566 24.5478C22.8966 25.3976 24.0359 25.875 25.2239 25.875H28.6667C34.6037 25.875 39.4167 21.0061 39.4167 15C39.4167 8.99388 34.6037 4.125 28.6667 4.125H14.3333C8.39625 4.125 3.58333 8.99388 3.58333 15C3.58333 21.0061 8.39625 25.875 14.3333 25.875H16.7529C17.4657 25.875 18.1493 26.1614 18.6533 26.6713L20.1376 28.1728C20.9776 29.0226 22.1169 29.5 23.3049 29.5H28.6667C36.5827 29.5 43 23.0081 43 15C43 6.99187 36.5827 0.499999 28.6667 0.5L14.3333 0.500003C6.41725 0.500004 -6.92045e-07 6.99188 0 15C6.92046e-07 23.0081 6.41726 29.5 14.3333 29.5Z" fill="white"/>
</g>
<defs>
<clipPath id="clip0_1047_96">
<rect width="43" height="29" fill="white" transform="translate(0 0.5)"/>
</clipPath>
</defs>
</svg>
