<svg width="33" height="33" viewBox="0 0 33 33" fill="none" xmlns="http://www.w3.org/2000/svg">
<path d="M10.9447 15.2662C10.2872 15.2684 9.64127 15.4398 9.06917 15.764C9.87464 13.6791 11.2106 11.8407 12.9447 10.4306C13.0439 10.3489 13.1261 10.2485 13.1865 10.135C13.2469 10.0215 13.2844 9.8973 13.2967 9.76936C13.3091 9.64142 13.2962 9.51229 13.2587 9.38936C13.2211 9.26642 13.1598 9.15208 13.0781 9.05285C12.9963 8.95363 12.8959 8.87148 12.7824 8.81108C12.669 8.75068 12.5447 8.71322 12.4168 8.70084C12.2888 8.68846 12.1597 8.7014 12.0368 8.73892C11.9138 8.77644 11.7995 8.83781 11.7003 8.91952C8.14472 11.8084 6.5625 15.8084 6.5625 18.2884C6.56863 19.1653 6.82994 20.0214 7.31454 20.7523C7.79913 21.4831 8.48604 22.057 9.29139 22.404C9.8126 22.6565 10.3834 22.79 10.9625 22.7951C11.4722 22.8199 11.9817 22.7408 12.46 22.5628C12.9383 22.3848 13.3755 22.1116 13.745 21.7596C14.1145 21.4076 14.4087 20.9842 14.6097 20.5151C14.8107 20.046 14.9144 19.541 14.9144 19.0306C14.9144 18.5203 14.8107 18.0153 14.6097 17.5462C14.4087 17.0771 14.1145 16.6537 13.745 16.3017C13.3755 15.9497 12.9383 15.6764 12.46 15.4984C11.9817 15.3204 11.4722 15.2414 10.9625 15.2662H10.9447Z" fill="#E8DEBA"/>
<path d="M20.8476 15.2677C20.1899 15.2691 19.5438 15.4406 18.972 15.7654C19.7771 13.6827 21.1096 11.8449 22.8387 10.4321C22.9469 10.3541 23.038 10.2548 23.1064 10.1402C23.1748 10.0257 23.219 9.89835 23.2364 9.76607C23.2537 9.63379 23.2438 9.49936 23.2073 9.37105C23.1707 9.24274 23.1083 9.12327 23.0239 9.01999C22.9394 8.9167 22.8347 8.8318 22.7162 8.77049C22.5978 8.70918 22.468 8.67277 22.3349 8.6635C22.2018 8.65422 22.0682 8.67229 21.9424 8.71657C21.8165 8.76085 21.7011 8.83042 21.6031 8.92099C18.0476 11.8099 16.4653 15.8099 16.4653 18.2899C16.4695 19.1568 16.7232 20.0042 17.1961 20.7309C17.669 21.4575 18.341 22.0327 19.132 22.3877C19.6664 22.6475 20.2533 22.7813 20.8476 22.7788C21.3573 22.8035 21.8668 22.7245 22.3451 22.5465C22.8234 22.3685 23.2605 22.0953 23.63 21.7433C23.9996 21.3913 24.2938 20.9679 24.4948 20.4988C24.6958 20.0297 24.7994 19.5247 24.7994 19.0143C24.7994 18.504 24.6958 17.999 24.4948 17.5299C24.2938 17.0608 23.9996 16.6374 23.63 16.2854C23.2605 15.9334 22.8234 15.6601 22.3451 15.4821C21.8668 15.3041 21.3573 15.2251 20.8476 15.2499V15.2677Z" fill="#E8DEBA"/>
</svg>
