<svg width="14" height="17" viewBox="0 0 14 17" fill="none" xmlns="http://www.w3.org/2000/svg">
<path d="M14 5C14 7.48528 11.9853 9.5 9.5 9.5C7.01472 9.5 5 7.48528 5 5C5 2.51472 7.01472 0.5 9.5 0.5C11.9853 0.5 14 2.51472 14 5Z" fill="#77FF77"/>
<path d="M6 11.5C6 13.1569 4.65685 14.5 3 14.5C1.34315 14.5 0 13.1569 0 11.5C0 9.84315 1.34315 8.5 3 8.5C4.65685 8.5 6 9.84315 6 11.5Z" fill="#77FF77"/>
<path d="M14 14C14 15.3807 12.8807 16.5 11.5 16.5C10.1193 16.5 9 15.3807 9 14C9 12.6193 10.1193 11.5 11.5 11.5C12.8807 11.5 14 12.6193 14 14Z" fill="#77FF77"/>
</svg>
