<svg width="20" height="20" viewBox="0 0 20 20" fill="none" xmlns="http://www.w3.org/2000/svg">
<path d="M10 0.09375C8.07164 0.09375 6.18657 0.665578 4.58319 1.73692C2.97982 2.80826 1.73013 4.33101 0.992179 6.11259C0.254225 7.89417 0.061142 9.85457 0.437348 11.7459C0.813554 13.6372 1.74215 15.3745 3.10571 16.738C4.46928 18.1016 6.20656 19.0302 8.09787 19.4064C9.98919 19.7826 11.9496 19.5895 13.7312 18.8516C15.5127 18.1136 17.0355 16.8639 18.1068 15.2606C19.1782 13.6572 19.75 11.7721 19.75 9.84375C19.7473 7.25873 18.7192 4.78036 16.8913 2.95247C15.0634 1.12459 12.585 0.0964798 10 0.09375ZM10.75 18.0591V12.0938H13C13.1989 12.0938 13.3897 12.0147 13.5303 11.8741C13.671 11.7334 13.75 11.5427 13.75 11.3438C13.75 11.1448 13.671 10.9541 13.5303 10.8134C13.3897 10.6728 13.1989 10.5938 13 10.5938H10.75V8.34375C10.75 7.94593 10.908 7.56439 11.1893 7.28309C11.4706 7.00179 11.8522 6.84375 12.25 6.84375H13.75C13.9489 6.84375 14.1397 6.76473 14.2803 6.62408C14.421 6.48343 14.5 6.29266 14.5 6.09375C14.5 5.89484 14.421 5.70407 14.2803 5.56342C14.1397 5.42277 13.9489 5.34375 13.75 5.34375H12.25C11.4544 5.34375 10.6913 5.65982 10.1287 6.22243C9.56608 6.78504 9.25 7.5481 9.25 8.34375V10.5938H7C6.80109 10.5938 6.61033 10.6728 6.46967 10.8134C6.32902 10.9541 6.25 11.1448 6.25 11.3438C6.25 11.5427 6.32902 11.7334 6.46967 11.8741C6.61033 12.0147 6.80109 12.0938 7 12.0938H9.25V18.0591C7.13575 17.8661 5.17728 16.8654 3.78198 15.2653C2.38667 13.6651 1.66195 11.5887 1.75855 9.46784C1.85515 7.34699 2.76564 5.34502 4.30064 3.87835C5.83563 2.41168 7.87696 1.59322 10 1.59322C12.1231 1.59322 14.1644 2.41168 15.6994 3.87835C17.2344 5.34502 18.1449 7.34699 18.2415 9.46784C18.3381 11.5887 17.6133 13.6651 16.218 15.2653C14.8227 16.8654 12.8643 17.8661 10.75 18.0591Z" fill="#033E27"/>
</svg>
