<svg width="37" height="37" viewBox="0 0 37 37" fill="none" xmlns="http://www.w3.org/2000/svg">
<path d="M11.5 25.5L26.7602 24.2283C31.5351 23.8305 32.6069 22.7875 33.1361 18.0256L34.25 8M8 8H36M11.5 32.5C11.5 34.433 9.933 36 8 36C6.067 36 4.5 34.433 4.5 32.5C4.5 30.567 6.067 29 8 29C9.933 29 11.5 30.567 11.5 32.5ZM11.5 32.5H23.75M23.75 32.5C23.75 34.433 25.317 36 27.25 36C29.183 36 30.75 34.433 30.75 32.5C30.75 30.567 29.183 29 27.25 29C25.317 29 23.75 30.567 23.75 32.5ZM1 1H2.6905C4.34369 1 5.78475 2.09303 6.18571 3.65113L11.3924 23.8839C11.6555 24.9064 11.4304 25.9895 10.7794 26.8328L9.10623 29" stroke="white" stroke-width="2" stroke-linecap="round"/>
</svg>
