<svg width="776" height="125" viewBox="0 0 776 125" fill="none" xmlns="http://www.w3.org/2000/svg">
<path d="M722.892 99.6289C722.892 99.5801 722.867 99.5557 722.818 99.5557C722.818 99.5068 722.818 99.458 722.818 99.4092C722.818 98.7744 723.16 98.457 723.844 98.457C724.283 98.457 724.674 98.6279 725.016 98.9697C726.969 100.825 729.19 102.339 731.681 103.511C734.22 104.683 736.954 105.269 739.884 105.269C740.665 105.269 741.568 105.195 742.594 105.049C743.619 104.854 744.596 104.561 745.523 104.17C746.451 103.779 747.208 103.267 747.794 102.632C748.429 101.948 748.746 101.118 748.746 100.142C748.746 99.0674 748.478 98.0908 747.94 97.2119C747.403 96.2842 746.695 95.5273 745.816 94.9414C745.328 94.5996 744.474 94.0137 743.253 93.1836C742.032 92.3047 740.714 91.377 739.298 90.4004C737.931 89.4238 736.612 88.4961 735.343 87.6172C734.122 86.7383 733.268 86.1035 732.779 85.7129C730.582 84.0527 728.824 82.3682 727.506 80.6592C726.236 78.9502 725.26 77.1924 724.576 75.3857C723.893 73.5303 723.453 71.6016 723.258 69.5996C723.062 67.5977 722.965 65.4736 722.965 63.2275C722.965 59.8096 723.868 56.5869 725.675 53.5596C727.481 50.5322 729.85 47.8711 732.779 45.5762C735.758 43.2812 739.127 41.4746 742.887 40.1562C746.646 38.7891 750.479 38.1055 754.386 38.1055C757.608 38.1055 760.782 38.5938 763.907 39.5703C767.032 40.5469 769.938 42.207 772.623 44.5508C772.867 47.627 773.038 50.6543 773.136 53.6328C773.233 56.6113 773.38 59.7363 773.575 63.0078C773.575 63.6426 773.429 64.082 773.136 64.3262C772.843 64.5215 772.501 64.6191 772.11 64.6191C771.769 64.6191 771.476 64.4971 771.231 64.2529C770.108 63.1787 768.961 62.1289 767.789 61.1035C766.617 60.0293 765.372 59.1016 764.054 58.3203C762.784 57.4902 761.417 56.8311 759.952 56.3428C758.487 55.8057 756.925 55.5371 755.265 55.5371C754.239 55.5371 753.214 55.6348 752.188 55.8301C751.163 55.9766 750.235 56.2939 749.405 56.7822C748.575 57.2217 747.892 57.832 747.354 58.6133C746.866 59.3945 746.622 60.3955 746.622 61.6162C746.622 63.0322 746.793 64.2529 747.135 65.2783C747.477 66.3037 748.282 67.3047 749.552 68.2812L763.175 77.5098C765.665 79.2188 767.667 80.9033 769.181 82.5635C770.743 84.1748 771.964 85.7861 772.843 87.3975C773.722 89.0088 774.308 90.6201 774.601 92.2314C774.942 93.7939 775.113 95.3564 775.113 96.9189C775.113 101.313 774.088 105.195 772.037 108.564C770.035 111.885 767.423 114.668 764.2 116.914C760.978 119.111 757.315 120.771 753.214 121.895C749.161 123.066 745.084 123.652 740.982 123.652C737.857 123.652 734.83 123.311 731.9 122.627C729.02 121.992 726.334 120.991 723.844 119.624L722.892 99.6289Z" fill="#189D58"/>
<path d="M682.535 38.1055C687.174 38.1055 691.373 38.9844 695.133 40.7422C698.941 42.4512 702.188 44.6973 704.874 47.4805C707.608 50.2148 709.708 53.291 711.173 56.709C712.638 60.127 713.37 63.5449 713.37 66.9629C713.37 69.9902 712.442 73.042 710.587 76.1182C708.731 79.1455 706.119 81.8799 702.75 84.3213C699.43 86.7627 695.426 88.7402 690.738 90.2539C686.051 91.7676 680.899 92.5244 675.284 92.5244C672.354 92.5244 669.278 92.2314 666.056 91.6455C666.251 93.7451 666.861 95.5518 667.887 97.0654C668.912 98.5791 670.206 99.8242 671.769 100.801C673.331 101.777 675.089 102.51 677.042 102.998C679.044 103.438 681.095 103.657 683.194 103.657C685.538 103.657 687.784 103.462 689.933 103.071C692.13 102.632 694.229 102.07 696.231 101.387C698.233 100.703 700.162 99.9463 702.018 99.1162C703.873 98.2861 705.631 97.4561 707.291 96.626C707.73 96.5283 708.097 96.4551 708.39 96.4062C708.731 96.3086 709.049 96.2598 709.342 96.2598C709.342 96.2598 709.317 96.6504 709.269 97.4316C709.269 98.2129 709.269 99.3115 709.269 100.728C709.269 102.144 709.244 103.853 709.195 105.854C709.195 107.856 709.171 110.078 709.122 112.52C709.269 112.764 709.366 113.008 709.415 113.252C709.464 113.496 709.488 113.691 709.488 113.838C709.488 114.424 708.951 115.059 707.877 115.742C706.803 116.426 705.387 117.134 703.629 117.866C701.92 118.599 699.942 119.307 697.696 119.99C695.499 120.674 693.253 121.284 690.958 121.821C688.663 122.407 686.441 122.847 684.293 123.14C682.145 123.481 680.265 123.652 678.653 123.652C673.38 123.652 668.253 122.725 663.272 120.869C658.341 119.062 653.946 116.45 650.089 113.032C646.28 109.614 643.229 105.464 640.934 100.581C638.639 95.6982 637.491 90.2051 637.491 84.1016C637.491 77.7051 638.59 71.7236 640.787 66.1572C642.984 60.542 646.061 55.6592 650.016 51.5088C654.02 47.3584 658.78 44.0869 664.298 41.6943C669.815 39.3018 675.895 38.1055 682.535 38.1055ZM681.656 57.5879C679.654 57.5879 677.799 58.0273 676.09 58.9062C674.43 59.7363 672.892 60.957 671.476 62.5684C670.108 64.1309 668.912 66.0352 667.887 68.2812C666.861 70.4785 666.031 72.9199 665.396 75.6055C670.426 74.7266 674.601 73.7988 677.921 72.8223C681.241 71.8457 683.902 70.8691 685.904 69.8926C687.906 68.8672 689.322 67.8662 690.152 66.8896C690.982 65.8643 691.397 64.8877 691.397 63.96C691.397 63.0811 691.056 62.251 690.372 61.4697C689.737 60.6885 688.932 60.0049 687.955 59.4189C686.979 58.833 685.904 58.3936 684.732 58.1006C683.609 57.7588 682.584 57.5879 681.656 57.5879Z" fill="#189D58"/>
<path d="M611.124 63.374C610.44 68.501 609.781 73.6279 609.146 78.7549C608.561 83.833 608.194 88.5938 608.048 93.0371C608.048 94.9414 608.194 96.5283 608.487 97.7979C608.78 99.0674 609.195 100.068 609.732 100.801C610.318 101.533 611.002 102.07 611.783 102.412C612.564 102.705 613.443 102.852 614.42 102.852C615.982 102.852 617.691 102.632 619.547 102.192C621.402 101.704 623.258 101.094 625.113 100.361C625.699 100.117 626.188 99.9463 626.578 99.8486C627.018 99.7021 627.384 99.6289 627.677 99.6289C628.165 99.6289 628.482 99.8486 628.629 100.288C628.824 100.728 628.995 101.509 629.142 102.632C629.337 103.706 629.605 105.171 629.947 107.026C630.289 108.882 630.851 111.226 631.632 114.058C631.681 114.302 631.705 114.521 631.705 114.717C631.754 114.863 631.778 115.01 631.778 115.156C631.778 115.84 631.51 116.328 630.973 116.621C630.484 116.914 629.654 117.256 628.482 117.646C626.48 118.33 624.356 119.038 622.11 119.771C619.913 120.454 617.716 121.089 615.519 121.675C613.37 122.261 611.295 122.725 609.293 123.066C607.291 123.457 605.533 123.652 604.02 123.652C595.865 123.652 589.908 121.626 586.148 117.573C582.438 113.521 580.582 107.344 580.582 99.043C580.582 97.627 580.631 96.1865 580.729 94.7217C580.826 93.208 580.948 91.6455 581.095 90.0342C581.583 85.1514 581.998 80.5371 582.34 76.1914C582.73 71.7969 583.121 67.5977 583.512 63.5938H575.821C573.185 63.5938 571.28 63.4961 570.108 63.3008C568.937 63.0566 568.351 62.5928 568.351 61.9092C568.351 61.7139 568.595 61.2012 569.083 60.3711C569.571 59.4922 570.182 58.4668 570.914 57.2949C571.695 56.0742 572.525 54.7803 573.404 53.4131C574.283 52.0459 575.113 50.7764 575.895 49.6045C576.725 48.3838 577.433 47.334 578.019 46.4551C578.604 45.5762 578.971 45.0391 579.117 44.8438H584.317C584.757 41.1328 585.099 38.0322 585.343 35.542C585.636 33.0029 585.855 30.9033 586.002 29.2432C586.197 27.583 586.368 26.3135 586.515 25.4346C586.661 24.5068 586.808 23.8232 586.954 23.3838C587.149 22.9443 587.369 22.6758 587.613 22.5781C587.906 22.4316 588.272 22.3096 588.712 22.2119C590.909 21.7725 593.033 21.3818 595.084 21.04C597.135 20.6494 599.186 20.2588 601.236 19.8682C603.287 19.4775 605.362 19.0381 607.462 18.5498C609.61 18.0127 611.832 17.4023 614.127 16.7188C614.273 16.7188 614.371 16.7188 614.42 16.7188C614.469 16.6699 614.566 16.6455 614.713 16.6455C615.299 16.6455 615.592 16.8408 615.592 17.2314V17.3779C615.348 20.0635 614.957 23.7988 614.42 28.584C613.932 33.3691 613.37 38.7891 612.735 44.8438H632.364C632.755 44.8438 633.121 44.9902 633.463 45.2832C633.854 45.5273 634.049 45.9668 634.049 46.6016C634.049 46.8457 633.756 47.7246 633.17 49.2383C632.584 50.752 631.754 52.7295 630.68 55.1709L628.043 61.1035C627.701 61.8359 627.335 62.373 626.944 62.7148C626.603 63.0566 625.87 63.2764 624.747 63.374H611.124Z" fill="#189D58"/>
<path d="M528.727 88.7891C529.361 82.0996 529.996 75.4834 530.631 68.9404C531.266 62.3975 531.827 55.6836 532.315 48.7988C532.413 47.1875 532.56 46.0889 532.755 45.5029C532.999 44.8682 533.561 44.4531 534.439 44.2578C538.59 43.4277 542.936 42.5732 547.477 41.6943C552.018 40.7666 556.412 39.5947 560.66 38.1787C560.807 38.1299 561.026 38.1055 561.319 38.1055C561.856 38.1055 562.125 38.3008 562.125 38.6914L555.533 110.029C555.387 111.641 555.216 112.764 555.021 113.398C554.825 113.984 554.288 114.375 553.409 114.57C549.259 115.84 545.06 117.256 540.812 118.818C536.563 120.381 532.071 121.968 527.335 123.579C527.188 123.628 526.969 123.652 526.676 123.652C526.139 123.652 525.87 123.408 525.87 122.92C525.87 122.871 525.919 122.212 526.017 120.942C526.114 119.673 526.236 118.037 526.383 116.035C526.578 114.033 526.773 111.787 526.969 109.297C527.164 106.807 527.359 104.316 527.555 101.826C527.799 99.3359 528.019 96.9434 528.214 94.6484C528.409 92.3535 528.58 90.4004 528.727 88.7891ZM534.22 30.3418C534.366 28.2422 534.464 26.6309 534.513 25.5078C534.61 24.3848 534.684 23.5547 534.732 23.0176C534.781 22.4316 534.806 22.0654 534.806 21.9189C534.806 21.7725 534.806 21.6748 534.806 21.626C534.854 21.5283 534.879 21.3818 534.879 21.1865C534.928 20.9424 534.977 20.4785 535.025 19.7949C535.074 19.0625 535.147 18.0127 535.245 16.6455C535.343 15.2783 535.489 13.3984 535.685 11.0059C535.782 9.39453 535.929 8.2959 536.124 7.70996C536.368 7.0752 536.93 6.66016 537.809 6.46484C541.959 5.63477 546.305 4.78027 550.846 3.90137C555.387 2.97363 559.781 1.80176 564.029 0.385742C564.176 0.336914 564.396 0.3125 564.688 0.3125C564.835 0.605469 565.03 0.800781 565.274 0.898438L565.494 1.04492L563.883 21.1133C563.736 22.7246 563.541 23.8477 563.297 24.4824C563.102 25.1172 562.589 25.5078 561.759 25.6543C557.608 26.4355 553.409 27.29 549.161 28.2178C544.913 29.1455 540.421 30.0732 535.685 31.001C535.538 31.0498 535.318 31.0742 535.025 31.0742C534.488 31.0742 534.22 30.8301 534.22 30.3418Z" fill="#189D58"/>
<path d="M432.56 118.892C431.583 118.647 430.924 118.281 430.582 117.793C430.24 117.256 430.069 116.67 430.069 116.035C430.069 115.889 430.069 115.791 430.069 115.742C430.118 115.693 430.143 115.596 430.143 115.449C430.533 110.176 430.948 104.658 431.388 98.8965C431.876 93.0859 432.389 87.2021 432.926 81.2451C433.463 75.2393 434 69.2578 434.537 63.3008C435.074 57.3438 435.611 51.5576 436.148 45.9424H436.075C435.88 45.9424 435.318 46.1133 434.391 46.4551C433.512 46.748 432.486 47.0898 431.314 47.4805C430.191 47.8223 429.044 48.1396 427.872 48.4326C426.7 48.7256 425.748 48.8721 425.016 48.8721C424.381 48.8721 423.917 48.6279 423.624 48.1396C423.38 47.6514 423.258 47.1143 423.258 46.5283C423.258 46.0889 423.331 45.6738 423.478 45.2832C424.796 41.4746 426.163 37.9102 427.579 34.5898C428.995 31.2695 430.411 27.8516 431.827 24.3359C435.538 22.334 439.396 20.6006 443.399 19.1357C447.403 17.6221 451.432 16.377 455.484 15.4004C459.586 14.375 463.663 13.6182 467.716 13.1299C471.769 12.5928 475.699 12.3242 479.508 12.3242C484.83 12.3242 489.835 12.8857 494.522 14.0088C499.259 15.1318 503.36 16.8408 506.827 19.1357C510.343 21.3818 513.102 24.2383 515.104 27.7051C517.154 31.123 518.18 35.1514 518.18 39.79C518.18 41.792 517.74 43.7207 516.861 45.5762C515.982 47.4316 514.835 49.2139 513.419 50.9229C512.052 52.583 510.514 54.1455 508.805 55.6104C507.096 57.0264 505.411 58.3203 503.751 59.4922C506.095 61.2012 508.194 62.7637 510.05 64.1797C511.954 65.5469 513.565 66.9873 514.884 68.501C516.202 70.0146 517.203 71.7236 517.887 73.6279C518.57 75.4834 518.912 77.7539 518.912 80.4395C518.912 84.541 518.18 88.4717 516.715 92.2314C515.299 95.9424 513.321 99.4092 510.782 102.632C508.292 105.806 505.313 108.687 501.847 111.274C498.429 113.862 494.693 116.084 490.641 117.939C486.637 119.746 482.389 121.138 477.896 122.114C473.453 123.14 468.961 123.652 464.42 123.652C462.76 123.652 460.538 123.481 457.755 123.14C454.972 122.798 452.042 122.383 448.966 121.895C445.938 121.455 442.936 120.942 439.957 120.356C437.027 119.819 434.562 119.331 432.56 118.892ZM466.324 38.5449C465.396 44.3066 464.615 50.166 463.98 56.123C463.346 62.0312 462.784 67.793 462.296 73.4082C461.856 78.9746 461.466 84.2725 461.124 89.3018C460.782 94.3311 460.44 98.8232 460.099 102.778C462.052 102.778 464.151 102.681 466.397 102.485C468.692 102.241 470.963 101.851 473.209 101.313C475.455 100.776 477.628 100.093 479.728 99.2627C481.876 98.3838 483.756 97.3096 485.367 96.04C486.979 94.7705 488.272 93.2812 489.249 91.5723C490.226 89.8145 490.714 87.8125 490.714 85.5664C490.714 84.1992 490.299 83.0029 489.469 81.9775C488.639 80.9033 487.564 80 486.246 79.2676C484.977 78.4863 483.561 77.8516 481.998 77.3633C480.436 76.8262 478.897 76.4111 477.384 76.1182C475.919 75.7764 474.552 75.5322 473.282 75.3857C472.062 75.1904 471.134 75.0439 470.499 74.9463C469.815 74.8486 469.376 74.6045 469.181 74.2139C468.985 73.8232 468.888 73.335 468.888 72.749C468.888 72.1143 469.278 71.1621 470.06 69.8926C470.841 68.623 471.915 66.8896 473.282 64.6924L476.358 59.7852C477.677 59.2969 479.093 58.6865 480.606 57.9541C482.169 57.2217 483.609 56.3916 484.928 55.4639C486.246 54.4873 487.345 53.4131 488.224 52.2412C489.103 51.0205 489.542 49.7021 489.542 48.2861C489.542 44.2822 488.663 41.2305 486.905 39.1309C485.196 36.9824 482.706 35.9082 479.435 35.9082C475.724 35.9082 471.354 36.7871 466.324 38.5449Z" fill="#189D58"/>
<path d="M301.676 13.3496C301.676 13.0566 301.651 12.7881 301.603 12.5439C301.603 12.2998 301.603 12.0557 301.603 11.8115C301.603 11.3721 301.773 11.0059 302.115 10.7129C302.457 10.3711 303.287 10.0293 304.605 9.6875L325.187 4.78027C325.724 4.68262 326.432 4.46289 327.311 4.12109C328.189 3.7793 329.044 3.6084 329.874 3.6084C331.583 3.6084 332.438 4.38965 332.438 5.95215C332.438 6.0498 332.364 7.05078 332.218 8.95508C332.071 10.8594 331.876 13.2275 331.632 16.0596C331.388 18.8916 331.119 21.9922 330.826 25.3613C330.533 28.6816 330.24 31.8555 329.947 34.8828C329.654 37.9102 329.386 40.5713 329.142 42.8662C328.897 45.1123 328.702 46.5771 328.556 47.2607C330.851 45.9912 333.243 44.7949 335.733 43.6719C338.224 42.5488 340.714 41.5723 343.204 40.7422C345.743 39.9121 348.258 39.2773 350.748 38.8379C353.287 38.3496 355.729 38.1055 358.072 38.1055C361.051 38.1055 363.834 38.5449 366.422 39.4238C369.01 40.2539 371.256 41.6699 373.16 43.6719C375.113 45.625 376.627 48.2129 377.701 51.4355C378.824 54.6094 379.386 58.5156 379.386 63.1543C379.386 64.3262 379.361 65.5469 379.312 66.8164C379.264 68.0371 379.166 69.3066 379.02 70.625L375.87 100.581C375.626 102.632 375.479 104.78 375.431 107.026C375.382 109.224 375.357 111.494 375.357 113.838C375.357 114.229 375.357 114.57 375.357 114.863C375.406 115.107 375.431 115.327 375.431 115.522C375.431 115.962 375.235 116.304 374.845 116.548C374.503 116.792 373.697 117.109 372.428 117.5L354.483 122.48C353.946 122.627 353.238 122.847 352.359 123.14C351.48 123.481 350.626 123.652 349.796 123.652C348.966 123.652 348.331 123.457 347.892 123.066C347.452 122.725 347.232 122.017 347.232 120.942C347.574 117.28 347.843 114.326 348.038 112.08C348.282 109.834 348.453 108.052 348.551 106.733C348.697 105.366 348.819 104.341 348.917 103.657C349.015 102.925 349.088 102.29 349.137 101.753C349.186 101.167 349.259 100.532 349.356 99.8486C349.454 99.1162 349.552 98.0664 349.649 96.6992C349.796 95.332 349.967 93.5254 350.162 91.2793C350.406 89.0332 350.699 86.0791 351.041 82.417C351.236 80.4639 351.432 78.5352 351.627 76.6309C351.871 74.6777 351.993 72.8955 351.993 71.2842C351.993 69.2334 351.871 67.3779 351.627 65.7178C351.432 64.0088 351.041 62.5684 350.455 61.3965C349.918 60.1758 349.161 59.2236 348.185 58.54C347.208 57.8564 345.963 57.5146 344.449 57.5146C343.326 57.5146 341.788 57.7588 339.835 58.2471C337.931 58.7354 336.002 59.541 334.049 60.6641C332.145 61.7871 330.436 63.2764 328.922 65.1318C327.457 66.9385 326.627 69.1846 326.432 71.8701C326.041 75.6299 325.724 78.7061 325.479 81.0986C325.284 83.4912 325.113 85.4688 324.967 87.0312C324.82 88.5938 324.698 89.8389 324.601 90.7666C324.552 91.6943 324.503 92.5488 324.454 93.3301C324.405 93.5742 324.332 94.1846 324.234 95.1611C324.137 96.0889 324.015 97.2119 323.868 98.5303C323.722 99.8486 323.575 101.265 323.429 102.778C323.282 104.243 323.136 105.635 322.989 106.953C322.892 108.271 322.794 109.419 322.696 110.396C322.647 111.323 322.623 111.909 322.623 112.153C322.623 112.544 322.623 112.886 322.623 113.179C322.672 113.423 322.696 113.667 322.696 113.911C322.696 114.302 322.501 114.644 322.11 114.937C321.769 115.181 320.963 115.474 319.693 115.815L300.577 122.48C300.04 122.676 299.332 122.92 298.453 123.213C297.574 123.506 296.72 123.652 295.89 123.652C295.157 123.652 294.547 123.433 294.059 122.993C293.57 122.603 293.326 121.919 293.326 120.942L301.676 13.3496Z" fill="#189D58"/>
<path d="M230.558 99.6289C230.558 99.5801 230.533 99.5557 230.484 99.5557C230.484 99.5068 230.484 99.458 230.484 99.4092C230.484 98.7744 230.826 98.457 231.51 98.457C231.949 98.457 232.34 98.6279 232.682 98.9697C234.635 100.825 236.856 102.339 239.347 103.511C241.886 104.683 244.62 105.269 247.55 105.269C248.331 105.269 249.234 105.195 250.26 105.049C251.285 104.854 252.262 104.561 253.189 104.17C254.117 103.779 254.874 103.267 255.46 102.632C256.095 101.948 256.412 101.118 256.412 100.142C256.412 99.0674 256.144 98.0908 255.606 97.2119C255.069 96.2842 254.361 95.5273 253.482 94.9414C252.994 94.5996 252.14 94.0137 250.919 93.1836C249.698 92.3047 248.38 91.377 246.964 90.4004C245.597 89.4238 244.278 88.4961 243.009 87.6172C241.788 86.7383 240.934 86.1035 240.445 85.7129C238.248 84.0527 236.49 82.3682 235.172 80.6592C233.902 78.9502 232.926 77.1924 232.242 75.3857C231.559 73.5303 231.119 71.6016 230.924 69.5996C230.729 67.5977 230.631 65.4736 230.631 63.2275C230.631 59.8096 231.534 56.5869 233.341 53.5596C235.147 50.5322 237.516 47.8711 240.445 45.5762C243.424 43.2812 246.793 41.4746 250.553 40.1562C254.312 38.7891 258.146 38.1055 262.052 38.1055C265.274 38.1055 268.448 38.5938 271.573 39.5703C274.698 40.5469 277.604 42.207 280.289 44.5508C280.533 47.627 280.704 50.6543 280.802 53.6328C280.899 56.6113 281.046 59.7363 281.241 63.0078C281.241 63.6426 281.095 64.082 280.802 64.3262C280.509 64.5215 280.167 64.6191 279.776 64.6191C279.435 64.6191 279.142 64.4971 278.897 64.2529C277.774 63.1787 276.627 62.1289 275.455 61.1035C274.283 60.0293 273.038 59.1016 271.72 58.3203C270.45 57.4902 269.083 56.8311 267.618 56.3428C266.153 55.8057 264.591 55.5371 262.931 55.5371C261.905 55.5371 260.88 55.6348 259.854 55.8301C258.829 55.9766 257.901 56.2939 257.071 56.7822C256.241 57.2217 255.558 57.832 255.021 58.6133C254.532 59.3945 254.288 60.3955 254.288 61.6162C254.288 63.0322 254.459 64.2529 254.801 65.2783C255.143 66.3037 255.948 67.3047 257.218 68.2812L270.841 77.5098C273.331 79.2188 275.333 80.9033 276.847 82.5635C278.409 84.1748 279.63 85.7861 280.509 87.3975C281.388 89.0088 281.974 90.6201 282.267 92.2314C282.608 93.7939 282.779 95.3564 282.779 96.9189C282.779 101.313 281.754 105.195 279.703 108.564C277.701 111.885 275.089 114.668 271.866 116.914C268.644 119.111 264.981 120.771 260.88 121.895C256.827 123.066 252.75 123.652 248.648 123.652C245.523 123.652 242.496 123.311 239.566 122.627C236.686 121.992 234 120.991 231.51 119.624L230.558 99.6289Z" fill="#189D58"/>
<path d="M190.201 38.1055C194.84 38.1055 199.039 38.9844 202.799 40.7422C206.607 42.4512 209.854 44.6973 212.54 47.4805C215.274 50.2148 217.374 53.291 218.839 56.709C220.304 60.127 221.036 63.5449 221.036 66.9629C221.036 69.9902 220.108 73.042 218.253 76.1182C216.397 79.1455 213.785 81.8799 210.416 84.3213C207.096 86.7627 203.092 88.7402 198.404 90.2539C193.717 91.7676 188.565 92.5244 182.95 92.5244C180.021 92.5244 176.944 92.2314 173.722 91.6455C173.917 93.7451 174.527 95.5518 175.553 97.0654C176.578 98.5791 177.872 99.8242 179.435 100.801C180.997 101.777 182.755 102.51 184.708 102.998C186.71 103.438 188.761 103.657 190.86 103.657C193.204 103.657 195.45 103.462 197.599 103.071C199.796 102.632 201.896 102.07 203.897 101.387C205.899 100.703 207.828 99.9463 209.684 99.1162C211.539 98.2861 213.297 97.4561 214.957 96.626C215.396 96.5283 215.763 96.4551 216.056 96.4062C216.397 96.3086 216.715 96.2598 217.008 96.2598C217.008 96.2598 216.983 96.6504 216.935 97.4316C216.935 98.2129 216.935 99.3115 216.935 100.728C216.935 102.144 216.91 103.853 216.861 105.854C216.861 107.856 216.837 110.078 216.788 112.52C216.935 112.764 217.032 113.008 217.081 113.252C217.13 113.496 217.154 113.691 217.154 113.838C217.154 114.424 216.617 115.059 215.543 115.742C214.469 116.426 213.053 117.134 211.295 117.866C209.586 118.599 207.608 119.307 205.362 119.99C203.165 120.674 200.919 121.284 198.624 121.821C196.329 122.407 194.107 122.847 191.959 123.14C189.811 123.481 187.931 123.652 186.319 123.652C181.046 123.652 175.919 122.725 170.938 120.869C166.007 119.062 161.612 116.45 157.755 113.032C153.946 109.614 150.895 105.464 148.6 100.581C146.305 95.6982 145.157 90.2051 145.157 84.1016C145.157 77.7051 146.256 71.7236 148.453 66.1572C150.65 60.542 153.727 55.6592 157.682 51.5088C161.686 47.3584 166.446 44.0869 171.964 41.6943C177.481 39.3018 183.561 38.1055 190.201 38.1055ZM189.322 57.5879C187.32 57.5879 185.465 58.0273 183.756 58.9062C182.096 59.7363 180.558 60.957 179.142 62.5684C177.774 64.1309 176.578 66.0352 175.553 68.2812C174.527 70.4785 173.697 72.9199 173.062 75.6055C178.092 74.7266 182.267 73.7988 185.587 72.8223C188.907 71.8457 191.568 70.8691 193.57 69.8926C195.572 68.8672 196.988 67.8662 197.818 66.8896C198.648 65.8643 199.063 64.8877 199.063 63.96C199.063 63.0811 198.722 62.251 198.038 61.4697C197.403 60.6885 196.598 60.0049 195.621 59.4189C194.645 58.833 193.57 58.3936 192.398 58.1006C191.275 57.7588 190.25 57.5879 189.322 57.5879Z" fill="#189D58"/>
<path d="M141.861 60.2246C140.836 60.127 139.688 60.0293 138.419 59.9316C137.149 59.7852 135.807 59.7119 134.391 59.7119C132.242 59.7119 130.045 59.9072 127.799 60.2979C125.602 60.6396 123.551 61.3477 121.646 62.4219C119.742 63.4961 118.106 64.9854 116.739 66.8896C115.372 68.7451 114.493 71.1621 114.103 74.1406C113.761 77.7539 113.468 80.7324 113.224 83.0762C113.028 85.3711 112.882 87.2754 112.784 88.7891C112.687 90.2539 112.589 91.4502 112.491 92.3779C112.442 93.2568 112.394 94.0869 112.345 94.8682C112.345 95.0635 112.296 95.6006 112.198 96.4795C112.149 97.3584 112.052 98.3838 111.905 99.5557C111.759 100.728 111.612 101.997 111.466 103.364C111.368 104.731 111.246 106.001 111.1 107.173C110.953 108.345 110.831 109.37 110.733 110.249C110.685 111.128 110.66 111.665 110.66 111.86C110.66 112.251 110.66 112.593 110.66 112.886C110.709 113.13 110.733 113.374 110.733 113.618C110.733 114.009 110.538 114.351 110.147 114.644C109.806 114.888 109 115.181 107.73 115.522L88.3213 122.48C87.7842 122.676 87.0762 122.92 86.1973 123.213C85.3184 123.506 84.4639 123.652 83.6338 123.652C82.9502 123.652 82.3398 123.481 81.8027 123.14C81.3145 122.798 81.0703 122.212 81.0703 121.382L87.3691 48.7988C87.5156 47.1875 87.6865 46.0889 87.8818 45.5029C88.126 44.8682 88.6875 44.4531 89.5664 44.2578C94.0098 43.3789 98.5996 42.5 103.336 41.6211C108.072 40.6934 112.662 39.5215 117.105 38.1055C117.496 38.1055 117.716 38.1787 117.765 38.3252C117.862 38.4229 117.911 38.5938 117.911 38.8379C117.911 38.9355 117.887 39.082 117.838 39.2773C117.838 39.4727 117.765 39.9121 117.618 40.5957C117.521 41.2793 117.35 42.3291 117.105 43.7451C116.91 45.1123 116.617 47.041 116.227 49.5312C118.473 47.7734 120.938 46.1621 123.624 44.6973C126.358 43.2324 129.093 41.9873 131.827 40.9619C134.562 39.8877 137.198 39.0576 139.737 38.4717C142.276 37.8369 144.498 37.5195 146.402 37.5195L141.861 60.2246Z" fill="#189D58"/>
<path d="M74.2588 59.6387C74.0635 60.3711 73.6973 61.4209 73.1602 62.7881C72.623 64.1553 72.0127 65.7178 71.3291 67.4756C70.6455 69.1846 69.8887 71.0156 69.0586 72.9688C68.2285 74.873 67.4229 76.7529 66.6416 78.6084C66.2998 79.4385 65.8848 80.0488 65.3965 80.4395C64.957 80.8301 64.0293 81.0498 62.6133 81.0986L41.2266 81.4648L38.5898 113.984C38.541 114.424 38.4189 114.863 38.2236 115.303C38.0283 115.693 37.7354 116.011 37.3447 116.255C37.1982 116.353 36.6123 116.646 35.5869 117.134C34.6104 117.573 33.3652 118.11 31.8516 118.745C30.3379 119.38 28.6777 120.063 26.8711 120.796C25.0645 121.528 23.2822 122.188 21.5244 122.773C19.7666 123.408 18.1553 123.921 16.6904 124.312C15.2256 124.751 14.0781 124.971 13.248 124.971C12.2715 124.971 11.3682 124.775 10.5381 124.385C9.75684 124.043 9.36621 123.311 9.36621 122.188C9.31738 119.746 9.36621 117.061 9.5127 114.131C9.70801 111.152 9.92773 108.149 10.1719 105.122C10.416 102.046 10.6846 99.043 10.9775 96.1133C11.2705 93.1348 11.5146 90.4248 11.71 87.9834L12.2227 81.8311C8.12109 81.8311 5.19141 81.7334 3.43359 81.5381C1.67578 81.2939 0.796875 80.708 0.796875 79.7803C0.796875 79.1455 1.16309 78.3154 1.89551 77.29C2.9209 75.874 4.06836 74.165 5.33789 72.1631C6.65625 70.1611 7.90137 68.208 9.07324 66.3037C10.2939 64.3994 11.3438 62.7148 12.2227 61.25C13.1504 59.7852 13.7363 58.8818 13.9805 58.54L15.3721 38.3984C14.4443 38.3984 13.6387 38.4229 12.9551 38.4717C12.2715 38.4717 11.6367 38.4961 11.0508 38.5449C10.5137 38.5449 10.001 38.5693 9.5127 38.6182C9.02441 38.6182 8.51172 38.6182 7.97461 38.6182C5.63086 38.6182 3.94629 38.4961 2.9209 38.252C1.94434 37.959 1.45605 37.4463 1.45605 36.7139C1.45605 36.3721 1.74902 35.6641 2.33496 34.5898C2.9209 33.5156 3.62891 32.2949 4.45898 30.9277C5.33789 29.5117 6.26562 28.0469 7.24219 26.5332C8.26758 24.9707 9.1709 23.5303 9.95215 22.2119L14.3467 14.7412L47.6719 13.5693C51.9688 13.4229 56.2412 13.2764 60.4893 13.1299C64.7373 12.9346 68.6436 12.7637 72.208 12.6172C75.8213 12.4707 78.9219 12.3486 81.5098 12.251C84.0977 12.1045 85.9043 12.0068 86.9297 11.958C86.9785 11.958 87.1006 11.9824 87.2959 12.0312C87.54 12.0312 87.7842 12.1045 88.0283 12.251C88.2725 12.3486 88.4922 12.5439 88.6875 12.8369C88.9316 13.1299 89.0537 13.5449 89.0537 14.082C89.0537 14.375 88.7119 15.3516 88.0283 17.0117C87.3447 18.6719 86.3682 21.1377 85.0986 24.4092L81.876 32.9053C81.5342 33.7354 81.1436 34.3701 80.7041 34.8096C80.2646 35.249 79.3369 35.4932 77.9209 35.542C76.2607 35.5908 74.5762 35.6641 72.8672 35.7617C71.1582 35.8594 69.4004 35.957 67.5938 36.0547L45.3281 37.1533C45.0352 39.0576 44.8154 40.4736 44.6689 41.4014C44.5713 42.3291 44.498 43.1104 44.4492 43.7451C44.4492 44.3311 44.4492 44.9414 44.4492 45.5762C44.4492 46.1621 44.4248 47.1143 44.376 48.4326C44.3271 49.3604 44.2539 50.1416 44.1562 50.7764C44.1074 51.4111 44.0342 52.0459 43.9365 52.6807C43.8877 53.2666 43.8145 53.9014 43.7168 54.585C43.668 55.2686 43.6191 56.123 43.5703 57.1484C46.793 57.0508 49.9424 56.9531 53.0186 56.8555C56.1436 56.7578 59 56.6602 61.5879 56.5625C64.2246 56.4648 66.4951 56.3916 68.3994 56.3428C70.3037 56.2451 71.6465 56.1963 72.4277 56.1963C72.8184 56.1963 73.2578 56.3428 73.7461 56.6357C74.2344 56.9287 74.4785 57.4902 74.4785 58.3203C74.4785 58.7109 74.4053 59.1504 74.2588 59.6387Z" fill="#189D58"/>
</svg>
