<svg width="18" height="19" viewBox="0 0 18 19" fill="none" xmlns="http://www.w3.org/2000/svg">
<path d="M17.1389 17.6857L11.2701 8.46258L17.061 2.09227C17.192 1.94463 17.2595 1.75132 17.2489 1.55426C17.2383 1.35719 17.1505 1.17224 17.0044 1.03951C16.8584 0.906775 16.6659 0.836961 16.4687 0.845199C16.2715 0.853438 16.0855 0.939064 15.951 1.08352L10.4348 7.15102L6.63886 1.1857C6.57117 1.07916 6.47769 0.991426 6.36707 0.930626C6.25645 0.869827 6.13227 0.83793 6.00605 0.837891H1.50605C1.37157 0.837825 1.23956 0.873916 1.12382 0.942384C1.00808 1.01085 0.912878 1.10918 0.848183 1.22707C0.783488 1.34496 0.751679 1.47807 0.756086 1.61247C0.760494 1.74687 0.800956 1.87762 0.873235 1.99102L6.74199 11.2132L0.951048 17.5882C0.883423 17.6608 0.830889 17.7462 0.79649 17.8393C0.76209 17.9324 0.746511 18.0314 0.750654 18.1305C0.754797 18.2297 0.77858 18.3271 0.820625 18.417C0.86267 18.5069 0.92214 18.5875 0.995589 18.6543C1.06904 18.721 1.155 18.7725 1.24851 18.8058C1.34201 18.8391 1.44119 18.8535 1.54029 18.8482C1.6394 18.8428 1.73646 18.8179 1.82585 18.7747C1.91524 18.7316 1.99518 18.6712 2.06105 18.597L7.5773 12.5295L11.3732 18.4948C11.4415 18.6004 11.5352 18.6873 11.6458 18.7472C11.7564 18.8072 11.8803 18.8384 12.006 18.8379H16.506C16.6404 18.8378 16.7722 18.8017 16.8878 18.7333C17.0034 18.6649 17.0985 18.5667 17.1632 18.4489C17.2279 18.3312 17.2597 18.1983 17.2554 18.064C17.2512 17.9297 17.2109 17.7991 17.1389 17.6857ZM12.4176 17.3379L2.87199 2.33789H5.59074L15.1401 17.3379H12.4176Z" fill="#033E27"/>
</svg>
