<svg width="22" height="18" viewBox="0 0 22 18" fill="none" xmlns="http://www.w3.org/2000/svg">
<path d="M14.4163 8.21938L9.91625 5.21938C9.80327 5.144 9.67195 5.10072 9.53629 5.09415C9.40064 5.08757 9.26575 5.11796 9.14601 5.18206C9.02628 5.24616 8.9262 5.34158 8.85645 5.45811C8.7867 5.57465 8.74991 5.70794 8.75 5.84375V11.8438C8.74991 11.9796 8.7867 12.1129 8.85645 12.2294C8.9262 12.3459 9.02628 12.4413 9.14601 12.5054C9.26575 12.5695 9.40064 12.5999 9.53629 12.5934C9.67195 12.5868 9.80327 12.5435 9.91625 12.4681L14.4163 9.46813C14.5191 9.39967 14.6035 9.30684 14.6618 9.19792C14.7202 9.08899 14.7507 8.96733 14.7507 8.84375C14.7507 8.72018 14.7202 8.59852 14.6618 8.48959C14.6035 8.38066 14.5191 8.28784 14.4163 8.21938ZM10.25 10.4422V7.25L12.6481 8.84375L10.25 10.4422ZM20.9684 3.36125C20.8801 3.01564 20.7109 2.69599 20.4747 2.42866C20.2385 2.16133 19.9421 1.95399 19.61 1.82375C16.3962 0.582503 11.2812 0.593754 11 0.593754C10.7188 0.593754 5.60375 0.582503 2.39 1.82375C2.0579 1.95399 1.76153 2.16133 1.52534 2.42866C1.28915 2.69599 1.1199 3.01564 1.03156 3.36125C0.78875 4.29688 0.5 6.00688 0.5 8.84375C0.5 11.6806 0.78875 13.3906 1.03156 14.3263C1.11977 14.672 1.28895 14.9919 1.52515 15.2594C1.76136 15.5269 2.0578 15.7344 2.39 15.8647C5.46875 17.0525 10.2875 17.0938 10.9381 17.0938H11.0619C11.7125 17.0938 16.5341 17.0525 19.61 15.8647C19.9422 15.7344 20.2386 15.5269 20.4748 15.2594C20.711 14.9919 20.8802 14.672 20.9684 14.3263C21.2113 13.3888 21.5 11.6806 21.5 8.84375C21.5 6.00688 21.2113 4.29688 20.9684 3.36125ZM19.5163 13.955C19.4877 14.07 19.4323 14.1766 19.3545 14.2661C19.2768 14.3556 19.179 14.4253 19.0691 14.4697C16.1019 15.6153 11.0553 15.5947 11.0066 15.5947H11C10.9494 15.5947 5.90656 15.6134 2.9375 14.4697C2.8276 14.4253 2.72977 14.3556 2.65204 14.2661C2.57431 14.1766 2.51888 14.07 2.49031 13.955C2.2625 13.0991 2 11.5222 2 8.84375C2 6.16532 2.2625 4.58844 2.48375 3.73719C2.51179 3.62149 2.56697 3.51412 2.64473 3.42397C2.7225 3.33382 2.8206 3.26347 2.93094 3.21875C5.79219 2.11344 10.5866 2.09375 10.9794 2.09375H11.0047C11.0553 2.09375 16.1028 2.07688 19.0672 3.21875C19.1771 3.26311 19.2749 3.33288 19.3526 3.42234C19.4304 3.51181 19.4858 3.61842 19.5144 3.73344C19.7375 4.58844 20 6.16532 20 8.84375C20 11.5222 19.7375 13.0991 19.5163 13.9503V13.955Z" fill="#033E27"/>
</svg>
