<svg width="35" height="34" viewBox="0 0 35 34" fill="none" xmlns="http://www.w3.org/2000/svg">
<path d="M17.5834 1.72852C24.8508 1.72852 28.4847 1.72852 30.7423 3.98624C33.0001 6.24395 33.0001 9.87769 33.0001 17.1452C33.0001 24.4126 33.0001 28.0465 30.7423 30.3041C28.4847 32.5618 24.8508 32.5619 17.5834 32.5619C10.3159 32.5619 6.68218 32.5618 4.42447 30.3041C2.16675 28.0465 2.16675 24.4126 2.16675 17.1452C2.16675 9.87769 2.16675 6.24395 4.42447 3.98624C6.68218 1.72852 10.3159 1.72852 17.5834 1.72852ZM17.5834 1.72852L17.5828 9.43685M32.2299 9.4375H2.93823M25.2917 2.5V9.4375M9.87573 2.5V9.4375M21.1434 20.8596C21.1434 19.9483 20.2453 19.3336 18.4491 18.1044C16.6283 16.8584 15.7178 16.2355 15.0389 16.6929C14.3601 17.1503 14.3601 18.3867 14.3601 20.8596C14.3601 23.3326 14.3601 24.569 15.0389 25.0264C15.7178 25.4838 16.6283 24.8608 18.4491 23.6149C20.2453 22.3857 21.1434 21.771 21.1434 20.8596Z" stroke="#00322E" stroke-width="2.5" stroke-linecap="round"/>
</svg>
