<svg width="165" height="38" viewBox="0 0 165 38" fill="none" xmlns="http://www.w3.org/2000/svg">
<path d="M2.4822 22.9528H6.5601V24.9209H0V12.5453H2.4822V22.9528Z" fill="#1C3533"/>
<path d="M9.39662 13.9283C8.95928 13.9283 8.59286 13.7923 8.29736 13.5205C8.01368 13.2368 7.87184 12.8881 7.87184 12.4744C7.87184 12.0607 8.01368 11.7179 8.29736 11.4461C8.59286 11.1624 8.95928 11.0206 9.39662 11.0206C9.83396 11.0206 10.1945 11.1624 10.4782 11.4461C10.7737 11.7179 10.9214 12.0607 10.9214 12.4744C10.9214 12.8881 10.7737 13.2368 10.4782 13.5205C10.1945 13.7923 9.83396 13.9283 9.39662 13.9283ZM10.62 15.0985V24.9209H8.13779V15.0985H10.62Z" fill="#1C3533"/>
<path d="M18.5155 14.9566C19.6857 14.9566 20.6313 15.3289 21.3523 16.0736C22.0733 16.8064 22.4339 17.8348 22.4339 19.1586V24.9209H19.9517V19.4955C19.9517 18.7154 19.7566 18.1185 19.3666 17.7048C18.9765 17.2792 18.4446 17.0665 17.7709 17.0665C17.0853 17.0665 16.5416 17.2792 16.1397 17.7048C15.7496 18.1185 15.5546 18.7154 15.5546 19.4955V24.9209H13.0724V15.0985H15.5546V16.3218C15.8856 15.8963 16.3052 15.5653 16.8134 15.3289C17.3335 15.0807 17.9009 14.9566 18.5155 14.9566Z" fill="#1C3533"/>
<path d="M28.6417 14.9389C29.3745 14.9389 30.0187 15.0866 30.5743 15.3821C31.1298 15.6658 31.5672 16.0381 31.8863 16.4991V15.0985H34.3862V24.9918C34.3862 25.9019 34.203 26.7116 33.8366 27.4208C33.4702 28.1418 32.9205 28.7092 32.1877 29.1229C31.4549 29.5484 30.5684 29.7612 29.5282 29.7612C28.1334 29.7612 26.9869 29.4361 26.0886 28.786C25.2021 28.1359 24.6997 27.2494 24.5815 26.1265H27.046C27.176 26.5757 27.4538 26.9303 27.8793 27.1903C28.3167 27.4622 28.8426 27.5981 29.4573 27.5981C30.1783 27.5981 30.7634 27.3794 31.2126 26.9421C31.6617 26.5166 31.8863 25.8665 31.8863 24.9918V23.467C31.5672 23.928 31.1239 24.3121 30.5565 24.6195C30.001 24.9268 29.3627 25.0805 28.6417 25.0805C27.8143 25.0805 27.0578 24.8677 26.3723 24.4422C25.6867 24.0166 25.143 23.4197 24.7411 22.6514C24.351 21.8713 24.156 20.9789 24.156 19.9742C24.156 18.9813 24.351 18.1007 24.7411 17.3324C25.143 16.5641 25.6808 15.9731 26.3545 15.5594C27.0401 15.1457 27.8025 14.9389 28.6417 14.9389ZM31.8863 20.0097C31.8863 19.4069 31.7681 18.8927 31.5317 18.4672C31.2953 18.0298 30.9762 17.6989 30.5743 17.4743C30.1724 17.2379 29.741 17.1197 29.28 17.1197C28.819 17.1197 28.3935 17.232 28.0034 17.4565C27.6134 17.6811 27.2942 18.0121 27.046 18.4494C26.8096 18.8749 26.6914 19.3832 26.6914 19.9742C26.6914 20.5652 26.8096 21.0853 27.046 21.5344C27.2942 21.9718 27.6134 22.3087 28.0034 22.5451C28.4053 22.7815 28.8308 22.8997 29.28 22.8997C29.741 22.8997 30.1724 22.7874 30.5743 22.5628C30.9762 22.3264 31.2953 21.9954 31.5317 21.5699C31.7681 21.1326 31.8863 20.6125 31.8863 20.0097Z" fill="#1C3533"/>
<path d="M46.0833 15.0985V24.9209H43.5834V23.6798C43.2642 24.1053 42.8446 24.4422 42.3246 24.6904C41.8163 24.9268 41.2608 25.045 40.6579 25.045C39.8896 25.045 39.21 24.8854 38.619 24.5663C38.028 24.2353 37.5611 23.7566 37.2183 23.1301C36.8874 22.4919 36.7219 21.7354 36.7219 20.8607V15.0985H39.2041V20.5061C39.2041 21.2862 39.3991 21.889 39.7892 22.3146C40.1792 22.7283 40.7111 22.9351 41.3849 22.9351C42.0704 22.9351 42.6082 22.7283 42.9983 22.3146C43.3884 21.889 43.5834 21.2862 43.5834 20.5061V15.0985H46.0833Z" fill="#1C3533"/>
<path d="M47.8941 19.9742C47.8941 18.9813 48.0892 18.1007 48.4792 17.3324C48.8811 16.5641 49.4189 15.9731 50.0927 15.5594C50.7782 15.1457 51.5406 14.9389 52.3798 14.9389C53.1127 14.9389 53.7509 15.0866 54.2947 15.3821C54.8502 15.6776 55.2934 16.05 55.6244 16.4991V15.0985H58.1243V24.9209H55.6244V23.4847C55.3053 23.9457 54.862 24.3299 54.2947 24.6372C53.7391 24.9327 53.0949 25.0805 52.3621 25.0805C51.5347 25.0805 50.7782 24.8677 50.0927 24.4422C49.4189 24.0166 48.8811 23.4197 48.4792 22.6514C48.0892 21.8713 47.8941 20.9789 47.8941 19.9742ZM55.6244 20.0097C55.6244 19.4069 55.5062 18.8927 55.2698 18.4672C55.0334 18.0298 54.7143 17.6989 54.3124 17.4743C53.9105 17.2379 53.4791 17.1197 53.0181 17.1197C52.5571 17.1197 52.1316 17.232 51.7415 17.4565C51.3515 17.6811 51.0323 18.0121 50.7841 18.4494C50.5477 18.8749 50.4295 19.3832 50.4295 19.9742C50.4295 20.5652 50.5477 21.0853 50.7841 21.5344C51.0323 21.9718 51.3515 22.3087 51.7415 22.5451C52.1434 22.7815 52.5689 22.8997 53.0181 22.8997C53.4791 22.8997 53.9105 22.7874 54.3124 22.5628C54.7143 22.3264 55.0334 21.9954 55.2698 21.5699C55.5062 21.1326 55.6244 20.6125 55.6244 20.0097Z" fill="#1C3533"/>
<path d="M63.0308 22.9528H67.1087V24.9209H60.5486V12.5453H63.0308V22.9528Z" fill="#1C3533"/>
<path d="M77.8174 19.7969C77.8174 20.1515 77.7937 20.4706 77.7465 20.7543H70.5658C70.6249 21.4635 70.8731 22.0191 71.3105 22.4209C71.7478 22.8228 72.2856 23.0238 72.9239 23.0238C73.8459 23.0238 74.5019 22.6278 74.8919 21.8359H77.5692C77.2855 22.7815 76.7418 23.5616 75.938 24.1762C75.1342 24.779 74.1473 25.0805 72.9771 25.0805C72.0315 25.0805 71.1805 24.8736 70.424 24.4599C69.6793 24.0344 69.0942 23.4375 68.6687 22.6692C68.255 21.9009 68.0481 21.0144 68.0481 20.0097C68.0481 18.9932 68.255 18.1007 68.6687 17.3324C69.0824 16.5641 69.6616 15.9731 70.4062 15.5594C71.1509 15.1457 72.0079 14.9389 72.9771 14.9389C73.9109 14.9389 74.7442 15.1398 75.477 15.5417C76.2217 15.9436 76.795 16.5169 77.1968 17.2615C77.6105 17.9944 77.8174 18.8395 77.8174 19.7969ZM75.2465 19.0877C75.2347 18.4494 75.0042 17.9412 74.5551 17.5629C74.1059 17.1729 73.5563 16.9778 72.9062 16.9778C72.2915 16.9778 71.7715 17.167 71.3459 17.5452C70.9322 17.9116 70.6781 18.4258 70.5835 19.0877H75.2465Z" fill="#1C3533"/>
<path d="M78.9909 19.9742C78.9909 18.9813 79.1859 18.1007 79.576 17.3324C79.9779 16.5641 80.5157 15.9731 81.1894 15.5594C81.875 15.1457 82.6374 14.9389 83.4766 14.9389C84.2094 14.9389 84.8477 15.0866 85.3914 15.3821C85.947 15.6776 86.3902 16.05 86.7212 16.4991V15.0985H89.2211V24.9209H86.7212V23.4847C86.402 23.9457 85.9588 24.3299 85.3914 24.6372C84.8359 24.9327 84.1917 25.0805 83.4588 25.0805C82.6314 25.0805 81.875 24.8677 81.1894 24.4422C80.5157 24.0166 79.9779 23.4197 79.576 22.6514C79.1859 21.8713 78.9909 20.9789 78.9909 19.9742ZM86.7212 20.0097C86.7212 19.4069 86.603 18.8927 86.3666 18.4672C86.1302 18.0298 85.811 17.6989 85.4091 17.4743C85.0073 17.2379 84.5758 17.1197 84.1149 17.1197C83.6539 17.1197 83.2284 17.232 82.8383 17.4565C82.4482 17.6811 82.1291 18.0121 81.8809 18.4494C81.6445 18.8749 81.5263 19.3832 81.5263 19.9742C81.5263 20.5652 81.6445 21.0853 81.8809 21.5344C82.1291 21.9718 82.4482 22.3087 82.8383 22.5451C83.2402 22.7815 83.6657 22.8997 84.1149 22.8997C84.5758 22.8997 85.0073 22.7874 85.4091 22.5628C85.811 22.3264 86.1302 21.9954 86.3666 21.5699C86.603 21.1326 86.7212 20.6125 86.7212 20.0097Z" fill="#1C3533"/>
<path d="M94.1276 16.6232C94.4467 16.1032 94.8604 15.6954 95.3687 15.3999C95.8888 15.1044 96.4798 14.9566 97.1417 14.9566V17.5629H96.4857C95.7056 17.5629 95.1146 17.7461 94.7127 18.1126C94.3226 18.479 94.1276 19.1173 94.1276 20.0274V24.9209H91.6454V15.0985H94.1276V16.6232Z" fill="#1C3533"/>
<path d="M104.257 14.9566C105.427 14.9566 106.372 15.3289 107.093 16.0736C107.815 16.8064 108.175 17.8348 108.175 19.1586V24.9209H105.693V19.4955C105.693 18.7154 105.498 18.1185 105.108 17.7048C104.718 17.2792 104.186 17.0665 103.512 17.0665C102.826 17.0665 102.283 17.2792 101.881 17.7048C101.491 18.1185 101.296 18.7154 101.296 19.4955V24.9209H98.8136V15.0985H101.296V16.3218C101.627 15.8963 102.046 15.5653 102.555 15.3289C103.075 15.0807 103.642 14.9566 104.257 14.9566Z" fill="#1C3533"/>
<path d="M156.366 29.1798C156.366 29.1798 146.301 34.471 135.436 29.1798V15.3901H156.366V29.1798Z" fill="#1C3533"/>
<path d="M164.842 9.9826V3.76014L146.933 6.16154L149.87 13.7972L164.842 9.9826Z" fill="#124541"/>
<path d="M126.964 9.98174L132.763 8.06224L152.993 13.0093L145.902 14.8068L126.964 9.98174Z" fill="#1C3533"/>
<path d="M137.526 1.55151L144.703 0L164.841 3.75669L157.75 5.55426L137.526 1.55151Z" fill="#1C3533"/>
<path d="M132.779 5.25421L137.525 4.032L157.74 8.69273L150.65 10.4906L132.779 5.25421Z" fill="#1C3533"/>
<path d="M164.841 17.19L145.904 22.08V14.8062L164.841 9.98114V17.19Z" fill="#124541"/>
<path d="M126.964 17.19L145.901 22.08V14.8062L126.964 9.98174V17.19Z" fill="#1C3533"/>
<path d="M164.841 19.4231L145.904 24.3135V17.0394L164.841 12.2143V19.4231Z" fill="#124541"/>
<path d="M126.964 19.4231L145.901 24.3135V17.0394L126.964 12.2143V19.4231Z" fill="#1C3533"/>
<path d="M137.525 4.032L157.74 8.69273L157.741 5.56189L137.526 1.55151L137.525 4.032Z" fill="#1C3533"/>
<path d="M132.779 8.08396L152.994 13.0099V9.87874L132.779 5.25421V8.08396Z" fill="#1C3533"/>
<path d="M128.992 29.0096H131.051V12.9398L128.992 13.4545V29.0096Z" fill="#1C3533"/>
<path d="M133.271 32.2095C133.271 35.3203 130.024 37.8418 130.024 37.8418C130.024 37.8418 126.777 35.3203 126.777 32.2095C126.777 29.0988 130.024 26.577 130.024 26.577C130.024 26.577 133.271 29.0984 133.271 32.2095Z" fill="#114541"/>
</svg>
