<svg width="179" height="45" viewBox="0 0 179 45" fill="none" xmlns="http://www.w3.org/2000/svg">
<path d="M12.3874 38.9897C12.239 38.8412 12.0656 38.7253 11.8658 38.6422C11.6661 38.5604 11.4552 38.5182 11.2305 38.5182C11.0058 38.5182 10.7852 38.5591 10.5896 38.6422C10.394 38.724 10.222 38.8398 10.075 38.9897C9.92657 39.1383 9.81143 39.3114 9.7282 39.5076C9.64497 39.7039 9.60197 39.911 9.60197 40.1318C9.60197 40.3526 9.64358 40.5598 9.7282 40.756C9.81143 40.9523 9.92795 41.1227 10.075 41.2685C10.222 41.4143 10.394 41.5288 10.5896 41.616C10.7852 41.7019 10.9988 41.7455 11.2305 41.7455C11.4622 41.7455 11.6661 41.7019 11.8658 41.616C12.0656 41.5302 12.239 41.4143 12.3874 41.2685C12.5344 41.1227 12.6523 40.9523 12.7411 40.756C12.8285 40.5598 12.8729 40.3526 12.8729 40.1318C12.8729 39.911 12.8285 39.7039 12.7411 39.5076C12.6537 39.3114 12.5358 39.1383 12.3874 38.9897Z" fill="white"/>
<path d="M8.31606 38.9897C8.16764 38.8412 7.99702 38.7253 7.80143 38.6422C7.60584 38.5604 7.39637 38.5182 7.17304 38.5182C6.94971 38.5182 6.72776 38.5591 6.53217 38.6422C6.33658 38.724 6.16318 38.8398 6.01198 38.9897C5.86078 39.1383 5.74287 39.3114 5.65825 39.5076C5.57502 39.7039 5.53202 39.911 5.53202 40.1318C5.53202 40.3526 5.57364 40.5598 5.65825 40.756C5.74148 40.9523 5.85939 41.1227 6.01198 41.2685C6.16318 41.413 6.33658 41.5288 6.53217 41.616C6.72776 41.7019 6.94138 41.7455 7.17304 41.7455C7.4047 41.7455 7.60584 41.7019 7.80143 41.616C7.99702 41.5302 8.16903 41.4143 8.31606 41.2685C8.4631 41.1227 8.58101 40.9523 8.66979 40.756C8.75718 40.5598 8.80157 40.3526 8.80157 40.1318C8.80157 39.911 8.75718 39.7039 8.66979 39.5076C8.5824 39.3114 8.46449 39.1383 8.31606 38.9897Z" fill="white"/>
<path d="M20.7881 30.0478H17.2439C17.0289 30.0478 16.7487 30.0123 16.406 29.9414C16.062 29.8706 15.6778 29.7752 15.2505 29.6539C14.8233 29.5326 14.3697 29.3976 13.8911 29.2477C13.4125 29.0992 12.9353 28.9438 12.4595 28.783C11.9851 28.6222 11.5218 28.4668 11.071 28.3182C10.6201 28.1697 10.2109 28.0361 9.84334 27.9189V30.8832C10.5938 31.1108 11.2638 31.3221 11.8547 31.5183C12.4457 31.7146 12.9464 31.8972 13.357 32.0648C13.7676 32.2338 14.0811 32.3919 14.2975 32.5419C14.5125 32.6904 14.6207 32.8281 14.6207 32.9534C14.6207 33.1184 14.5389 33.3105 14.3752 33.53C14.2115 33.7494 13.9174 33.962 13.4944 34.1651C13.0713 34.3695 12.4928 34.5412 11.7576 34.683C11.0224 34.8247 10.0847 34.8942 8.94306 34.8942C7.95263 34.8942 7.10229 34.8261 6.39207 34.6884C5.68184 34.5508 5.09645 34.345 4.6373 34.071C4.17815 33.7957 3.84106 33.4577 3.62605 33.0529C3.41104 32.6495 3.30284 32.1766 3.30284 31.6355V28.3646H0V31.7418C0 32.6277 0.14704 33.4373 0.442506 34.1719C0.737973 34.9051 1.23042 35.5361 1.92123 36.0663C2.61204 36.5951 3.52618 37.0081 4.66365 37.3011C5.80113 37.5955 7.21188 37.7427 8.89729 37.7427C10.5827 37.7427 11.9532 37.6255 13.0824 37.3897C14.2115 37.1539 15.1201 36.8363 15.8068 36.437C16.4934 36.0363 16.9859 35.5757 17.2855 35.055C17.5851 34.5331 17.7349 33.9824 17.7349 33.4018C17.7349 33.3228 17.7266 33.2356 17.7113 33.1374C17.6947 33.0393 17.6753 32.9589 17.6517 32.8962H24.0937V16.0712H20.7881V30.0491V30.0478Z" fill="white"/>
<path d="M49.6717 30.0478H46.8335C46.7295 30.0478 46.6033 30.0287 46.4562 29.9891C46.3078 29.9496 46.1607 29.8869 46.0137 29.8011C45.8653 29.7152 45.7238 29.6034 45.5892 29.4658C45.4533 29.3281 45.3451 29.1619 45.266 28.9656C45.3146 28.6521 45.3382 28.3141 45.3382 27.9543C45.3382 27.1543 45.2147 26.4184 44.9664 25.7478C44.7195 25.0773 44.3671 24.4994 43.9122 24.0128C43.4572 23.5263 42.912 23.146 42.2781 22.8721C41.6427 22.5981 40.9395 22.4605 40.164 22.4605C39.5259 22.4605 38.917 22.5545 38.3385 22.7426C37.7601 22.9307 37.226 23.2442 36.7405 23.6844C36.2536 24.1232 35.8166 24.7025 35.4296 25.4193C35.0426 26.1376 34.7166 27.0289 34.4531 28.0961C34.3254 28.5036 34.1937 28.8348 34.0577 29.0896C33.9218 29.3445 33.7747 29.5421 33.6152 29.6839C33.4557 29.8256 33.2823 29.921 33.095 29.9728C32.9078 30.0246 32.7011 30.0491 32.4777 30.0491H31.6038C31.4041 30.0491 31.2279 30.0328 31.0767 30.0014C30.9255 29.9701 30.7993 29.9074 30.6994 29.8133C30.5995 29.7193 30.5232 29.5844 30.4719 29.4072C30.4192 29.2314 30.3942 28.997 30.3942 28.7067V16.0712H27.0886V29.1428C27.0886 29.8651 27.1843 30.4662 27.3757 30.9486C27.5672 31.4311 27.8363 31.8154 28.1845 32.1016C28.5312 32.3878 28.9432 32.5923 29.4176 32.7136C29.8921 32.8349 30.4178 32.8962 30.9921 32.8962H33.231C33.5029 32.8962 33.7595 32.888 34.0036 32.873C34.2464 32.858 34.4822 32.8158 34.7097 32.749C34.9372 32.6822 35.1605 32.5827 35.3797 32.4492C35.5989 32.3156 35.8208 32.1275 36.0441 31.8849C36.8265 32.3865 37.5631 32.7299 38.2539 32.9139C38.9447 33.0979 39.605 33.1906 40.2362 33.1906C41.1461 33.1906 41.9479 33.0202 42.6429 32.6795C43.3379 32.3388 43.9122 31.8577 44.3671 31.2376C44.5433 31.5674 44.732 31.8372 44.9359 32.0498C45.1398 32.2611 45.3493 32.4301 45.5643 32.5555C45.7793 32.6809 45.9957 32.7695 46.2107 32.8199C46.3536 32.854 46.4937 32.8758 46.6296 32.8867C46.6338 32.8867 46.6379 32.8867 46.6407 32.8867C46.7059 32.8921 46.7697 32.8948 46.8321 32.8948H52.9759V16.0699H49.6703V30.0478H49.6717ZM41.8397 29.0828C41.7121 29.3895 41.5443 29.6266 41.3362 29.7943C41.1281 29.9632 40.8937 30.0764 40.6301 30.135C40.3666 30.1936 40.0988 30.2236 39.8283 30.2236C39.3969 30.2236 38.9725 30.1513 38.5535 30.0055C38.1346 29.861 37.7448 29.6743 37.3855 29.4467C37.4341 28.8034 37.5409 28.2269 37.7087 27.7172C37.8766 27.2075 38.0861 26.7795 38.3371 26.4347C38.5882 26.0899 38.8684 25.8255 39.175 25.6401C39.4815 25.4561 39.7992 25.3635 40.1266 25.3635C40.4539 25.3635 40.7633 25.4452 41.006 25.6102C41.2488 25.7751 41.4472 25.9809 41.5984 26.2275C41.7496 26.4742 41.8591 26.7454 41.9271 27.0398C41.9951 27.3342 42.0284 27.615 42.0284 27.8807C42.0284 28.3741 41.9646 28.7748 41.837 29.0801L41.8397 29.0828Z" fill="white"/>
<path d="M59.2764 16.0712H55.9708V32.8962H59.2764V16.0712Z" fill="white"/>
<path d="M73.9568 23.1951C74.108 23.3409 74.2814 23.4554 74.477 23.5426C74.6726 23.6285 74.8862 23.6721 75.1179 23.6721C75.3495 23.6721 75.5507 23.6285 75.7462 23.5426C75.9418 23.4568 76.1138 23.3409 76.2609 23.1951C76.4079 23.0506 76.5258 22.8789 76.6146 22.684C76.702 22.4877 76.7464 22.2806 76.7464 22.0598C76.7464 21.839 76.702 21.6318 76.6146 21.4356C76.5272 21.2393 76.4093 21.0676 76.2609 20.9177C76.1124 20.7691 75.9418 20.6533 75.7462 20.5702C75.5507 20.4884 75.3412 20.4461 75.1179 20.4461C74.8945 20.4461 74.6726 20.487 74.477 20.5702C74.2814 20.6519 74.108 20.7678 73.9568 20.9177C73.8056 21.0662 73.6877 21.2393 73.6031 21.4356C73.5198 21.6318 73.4768 21.839 73.4768 22.0598C73.4768 22.2806 73.5184 22.4877 73.6031 22.684C73.6863 22.8803 73.8042 23.0506 73.9568 23.1951Z" fill="white"/>
<path d="M78.6149 30.1186C78.6149 31.3575 78.3236 32.2597 77.741 32.8253C77.1584 33.3896 76.2401 33.6717 74.9875 33.6717C73.7348 33.6717 72.8679 33.3405 72.2686 32.6781C71.6694 32.0158 71.3711 31.1081 71.3711 29.9551V26.5315H68.0655V29.9319C68.0655 32.073 68.6356 33.7071 69.7773 34.8315C70.9189 35.9573 72.6348 36.5202 74.9264 36.5202C76.0043 36.5202 76.9725 36.3989 77.8298 36.1549C78.6884 35.9123 79.4167 35.5171 80.0146 34.9719C80.6138 34.4267 81.0716 33.7194 81.392 32.8485C81.7111 31.9776 81.8706 30.9146 81.8706 29.6607L81.9191 23.3069H78.6135V30.1186H78.6149Z" fill="white"/>
<path d="M101.738 24.0128C101.283 23.5263 100.737 23.146 100.104 22.8721C99.4682 22.5981 98.7635 22.4605 97.9895 22.4605C97.3514 22.4605 96.7424 22.5545 96.1639 22.7426C95.5855 22.9307 95.0514 23.2442 94.5659 23.6844C94.079 24.1232 93.6421 24.7025 93.2551 25.4193C92.868 26.1376 92.5421 27.0289 92.2785 28.0961C92.1745 28.5118 92.0552 28.847 91.9192 29.1019C91.7833 29.3568 91.6335 29.5544 91.4698 29.6961C91.3061 29.8379 91.1258 29.9319 90.9316 29.9782C90.736 30.0259 90.5265 30.0491 90.3032 30.0491H89.4293C89.2295 30.0491 89.0533 30.0328 88.9021 30.0014C88.7509 29.9701 88.6247 29.9074 88.5248 29.8133C88.4249 29.7193 88.3487 29.5844 88.2973 29.4072C88.2446 29.2314 88.2196 28.997 88.2196 28.7067V16.0712H84.914V29.1428C84.914 29.8651 85.0097 30.4662 85.2012 30.9486C85.3926 31.4311 85.6617 31.8154 86.0099 32.1016C86.3567 32.3878 86.7687 32.5923 87.2431 32.7136C87.7175 32.8349 88.2432 32.8962 88.8175 32.8962H91.0564C91.3283 32.8962 91.5849 32.888 91.8291 32.873C92.0718 32.858 92.3076 32.8158 92.5351 32.749C92.7626 32.6822 92.9859 32.5827 93.2051 32.4492C93.4243 32.3156 93.6462 32.1275 93.8696 31.8849C94.6519 32.3865 95.3885 32.7299 96.0793 32.9139C96.7701 33.0979 97.4304 33.1906 98.0616 33.1906C98.8204 33.1906 99.5126 33.0666 100.14 32.8199C100.767 32.5732 101.303 32.2216 101.75 31.7664C102.197 31.3112 102.545 30.7619 102.792 30.1186C103.039 29.4753 103.164 28.7544 103.164 27.9543C103.164 27.1543 103.04 26.4184 102.792 25.7478C102.545 25.0773 102.193 24.4994 101.738 24.0128ZM99.6652 29.0842C99.5375 29.3908 99.3697 29.628 99.163 29.7956C98.9549 29.9646 98.7205 30.0777 98.4569 30.1363C98.1934 30.1949 97.9256 30.2249 97.6552 30.2249C97.2237 30.2249 96.7993 30.1527 96.3803 30.0069C95.9614 29.8624 95.5716 29.6757 95.2124 29.4481C95.2609 28.8048 95.3677 28.2283 95.5356 27.7186C95.7034 27.2088 95.9129 26.7809 96.1639 26.4361C96.415 26.0913 96.6952 25.8269 97.0018 25.6415C97.3084 25.4575 97.626 25.3648 97.9534 25.3648C98.2808 25.3648 98.5901 25.4466 98.8329 25.6115C99.0756 25.7764 99.274 25.9822 99.4252 26.2289C99.5764 26.4756 99.686 26.7468 99.7539 27.0412C99.8219 27.3356 99.8552 27.6163 99.8552 27.8821C99.8552 28.3755 99.7914 28.7762 99.6638 29.0815L99.6652 29.0842Z" fill="white"/>
<path d="M110.851 16.9653H109.642C109.274 16.9653 109.027 16.8944 108.9 16.754C108.772 16.6123 108.708 16.4406 108.708 16.2361C108.708 16.0317 108.771 15.8532 108.894 15.725C109.017 15.5956 109.231 15.5315 109.535 15.5315C109.607 15.5315 109.714 15.5411 109.858 15.5615C110.002 15.5806 110.173 15.6106 110.373 15.6501V14.1672C110.213 14.1127 110.037 14.0637 109.846 14.0201C109.654 13.9764 109.431 13.9546 109.176 13.9546C108.92 13.9546 108.657 13.9996 108.408 14.0896C108.162 14.1795 107.94 14.3117 107.744 14.4834C107.548 14.6565 107.39 14.8719 107.271 15.1308C107.152 15.3898 107.092 15.6882 107.092 16.0249C107.092 16.1584 107.11 16.3193 107.146 16.5073C107.182 16.6954 107.236 16.8481 107.308 16.9666H106.386V18.4958H110.853V16.9666L110.851 16.9653Z" fill="white"/>
<path d="M114.419 30.0478H112.168L110.371 19.7769H107.067L108.779 30.0478H104.684V32.8948H117.725V16.0712H114.419V30.0478Z" fill="white"/>
<path d="M124.024 16.0712H120.718V32.8962H124.024V16.0712Z" fill="white"/>
<path d="M178.997 13.1465C176.879 19.0165 173.901 23.3928 170.941 26.5929C170.211 27.3834 169.481 28.1003 168.767 28.7517C164.227 32.8936 160.264 34.3451 160.264 34.3451C141.46 43.1276 132.323 32.5242 132.323 32.5242C139.606 28.2952 142.52 18.733 142.52 18.733C143.645 23.0916 140.799 29.5313 140.799 29.5313C140.799 29.5313 142.266 30.1623 144.772 30.5862V11.9036L151.261 7.61043L151.437 30.8887C152.432 30.8151 153.48 30.6843 154.571 30.4812V4.09688L161.39 0L161.157 28.4669C161.519 28.3101 161.884 28.1452 162.251 27.9708C163.079 27.5769 163.874 27.1667 164.636 26.7428V8.65168L171.057 12.2293L170.977 22.3965C176.468 17.8185 178.895 13.3414 179 13.1465H178.997Z" fill="#0085F2"/>
<path d="M149.81 42.6996C156.185 41.304 162.078 38.078 166.936 33.789C170.465 30.6734 173.462 27.0058 175.947 23.0425C176.57 22.0503 177.161 21.0377 177.72 20.0101C177.833 19.8016 178.238 18.733 178.514 18.8271C178.81 18.9279 178.452 20.0837 178.405 20.3331C177.987 22.5573 177.426 24.7571 176.708 26.9064C174.858 32.4615 171.95 37.7196 167.865 41.9977C167.288 42.6029 166.676 43.1957 165.93 43.5828C165.04 44.0448 164.016 44.1852 163.014 44.2969C158.534 44.7985 153.751 44.8503 149.807 42.6983L149.81 42.6996Z" fill="#0085F2"/>
</svg>
