<svg width="145" height="31" viewBox="0 0 145 31" fill="none" xmlns="http://www.w3.org/2000/svg">
<path d="M24.0508 22.8422V30.4493L36.0531 22.8422V15.2109L24.0508 22.8422Z" fill="#001E33"/>
<path d="M12.0273 22.8422V30.4493L24.0538 22.8422V15.2109L12.0273 22.8422Z" fill="#001E33"/>
<path d="M0 22.8422V30.4493L12.0273 22.8422L12.0265 15.2109L0 22.8422Z" fill="#001E33"/>
<path d="M36.0531 0L24.0508 7.6071V15.2142L36.0531 7.6071V0Z" fill="#001E33"/>
<path d="M24.0538 0L12.0273 7.6071V15.2142L24.0538 7.6071V0Z" fill="#001E33"/>
<path d="M12.0265 0L0 7.6071V15.2142L12.0273 7.6071L12.0265 0Z" fill="#001E33"/>
<path d="M61.632 15.6996V22.9203H58.5409V15.941C58.5409 14.5162 57.8647 13.84 56.5848 13.84C55.6188 13.84 54.7977 14.2506 54.0732 15.0717V22.9203H50.9579V15.941C50.9579 14.5162 50.3059 13.84 49.026 13.84C48.0359 13.84 47.2148 14.2747 46.4903 15.1441V22.9203H43.375V11.4009H46.2971V12.4877C47.2631 11.6424 48.5913 11.1836 49.9437 11.1836C51.5134 11.1836 52.6726 11.7149 53.3246 12.7533C54.5804 11.6907 55.981 11.1836 57.4783 11.1836C60.1831 11.1836 61.632 12.7775 61.632 15.6996Z" fill="#001E33"/>
<path d="M72.957 17.1244C72.957 15.0958 71.5322 13.8159 69.89 13.8159C68.8516 13.8159 67.958 14.2264 67.2577 14.9992V19.3703C67.958 20.1189 68.7791 20.5053 69.7692 20.5053C71.5563 20.5053 72.957 19.2254 72.957 17.1244ZM75.2753 14.0091C75.8066 14.9268 76.0964 15.9411 76.0964 17.1244C76.0964 18.8873 75.3719 20.4812 74.3093 21.5196C73.2468 22.558 71.7978 23.1618 70.3005 23.1618C69.1413 23.1618 68.1512 22.7995 67.3301 22.0992V28.2573H64.2148V11.4009H67.2577V12.2945C68.1754 11.5458 69.1897 11.1836 70.3247 11.1836C72.3291 11.1836 74.1645 12.1979 75.2753 14.0091Z" fill="#001E33"/>
<path d="M86.142 19.3944V14.9268C85.4417 14.1781 84.5964 13.7917 83.5821 13.7917C81.9158 13.7917 80.491 15.0958 80.491 17.1485C80.491 19.2012 81.8917 20.4812 83.5821 20.4812C84.5964 20.5053 85.4658 20.1431 86.142 19.3944ZM86.2869 22.8961V21.906C85.4175 22.7512 84.3791 23.1618 83.1474 23.1618C81.0947 23.1618 79.2594 22.1233 78.1726 20.288C77.6172 19.3703 77.3516 18.356 77.3516 17.1727C77.3516 14.8543 78.5349 12.8982 80.322 11.9322C81.2155 11.4251 82.1573 11.1836 83.1716 11.1836C84.4032 11.1836 85.4417 11.5941 86.2869 12.3911V11.4009H89.2573V22.8961H86.2869Z" fill="#001E33"/>
<path d="M94.7854 11.4009V12.4635C95.7272 11.5217 96.7415 11.1836 98.5044 11.1836V14.154C98.2871 14.0815 97.9731 14.0574 97.635 14.0574C96.669 14.0574 95.6789 14.5404 94.9786 15.3856V22.9203H91.8633V11.4009H94.7854Z" fill="#001E33"/>
<path d="M107.949 11.3984V13.9824H105.365V22.8935H102.274V13.9824H99.8594V11.3984H102.274V7.55859H105.365V11.3984H107.949Z" fill="#001E33"/>
<path d="M109.783 22.8957H112.899V11.4006H109.783V22.8957ZM109.711 9.85499H112.971V6.69141H109.711V9.85499Z" fill="#001E33"/>
<path d="M126.039 20.5778C124.952 22.1475 123.068 23.1376 120.943 23.1376C118.697 23.1376 116.717 22.075 115.63 20.2638C115.075 19.3461 114.785 18.3319 114.785 17.1968C114.785 14.9268 115.944 12.9707 117.852 11.9564C118.794 11.4492 119.808 11.1836 120.943 11.1836C123.213 11.1836 124.904 12.053 126.039 13.7917L123.648 15.289C122.972 14.323 122.102 13.84 120.967 13.84C119.156 13.84 117.925 15.2649 117.925 17.221C117.925 19.1771 119.084 20.4812 120.943 20.4812C122.102 20.4812 123.044 19.9982 123.769 19.0563L126.039 20.5778Z" fill="#001E33"/>
<path d="M128.09 22.8944H131.205V5.67578H128.09V22.8944Z" fill="#001E33"/>
<path d="M139.15 13.72C140.599 13.72 141.516 14.4203 141.903 15.821H136.203C136.614 14.4686 137.652 13.72 139.15 13.72ZM141.951 19.1295C141.202 19.9989 140.236 20.4577 139.077 20.4577C137.459 20.4577 136.3 19.5642 136.058 17.8979H144.873C144.897 17.7288 144.897 17.5598 144.897 17.4149C144.897 13.5993 142.531 11.1602 139.077 11.1602C137.894 11.1602 136.831 11.4258 135.914 11.9812C134.054 13.068 133.016 14.9516 133.016 17.1734C133.016 18.7914 133.644 20.3128 134.658 21.3754C135.696 22.4621 137.29 23.1142 139.077 23.1142C141.178 23.1142 142.989 22.1965 144.149 20.5785L141.951 19.1295Z" fill="#001E33"/>
</svg>
