<svg width="124" height="32" viewBox="0 0 124 32" fill="none" xmlns="http://www.w3.org/2000/svg">
<path d="M87.8831 12.4536C86.0688 12.4536 84.774 13.107 84.1384 14.3443L83.7969 15.0144V12.7762H80.8448V26.3807H83.9499V18.2869C83.9499 16.3532 84.9467 15.2438 86.6832 15.2438C88.3393 15.2438 89.2886 16.324 89.2886 18.2063V26.3807H92.395V17.6224C92.395 14.3832 90.7087 12.4536 87.8831 12.4536ZM72.8242 12.4536C69.16 12.4536 66.8908 14.8642 66.8908 18.7443V20.6545C66.8908 24.3858 69.1864 26.7033 72.8822 26.7033C75.3544 26.7033 77.087 25.7482 78.1774 23.7838L76.2523 22.616C75.4467 23.7491 74.1598 24.4511 72.8835 24.4511C71.0125 24.4511 69.8957 23.2333 69.8957 21.1925V20.6517H78.5624V18.3954C78.5624 14.7808 76.3117 12.4536 72.8268 12.4536H72.8242ZM75.7368 18.4524H69.8852V18.1257C69.8852 15.886 70.9281 14.6502 72.8215 14.6502C74.6451 14.6502 75.7342 15.868 75.7342 17.9088L75.7368 18.4524ZM123.233 10.5365V7.93406H112.492V10.5365H116.258V23.7727H112.492V26.3752H123.233V23.7727H119.466V10.5365H123.233ZM41.7927 7.5587C36.9959 7.5587 34.0134 10.7103 34.0134 15.786V18.5302C34.0134 23.6045 36.9946 26.7575 41.7927 26.7575C46.5908 26.7575 49.572 23.6045 49.572 18.5302V15.786C49.5707 10.7047 46.5855 7.5587 41.7927 7.5587ZM46.3627 18.7179C46.3627 22.0878 44.6974 24.0202 41.7927 24.0202C38.888 24.0202 37.224 22.0878 37.224 18.7179V15.5969C37.224 12.227 38.8906 10.2946 41.794 10.2946C44.6974 10.2946 46.364 12.227 46.364 15.5969L46.3627 18.7179ZM59.3251 12.4536C57.6954 12.4536 56.2846 13.1654 55.5489 14.3568L55.2153 14.899V12.7762H52.2618V31.0616H55.3682V24.4386L55.7005 24.9585C56.3993 26.0512 57.764 26.7033 59.3515 26.7033C62.0294 26.7033 64.7311 24.8584 64.7311 20.7351V18.4218C64.7311 15.4509 63.0658 12.4536 59.3251 12.4536ZM61.6246 20.5752C61.6246 22.7676 60.4116 24.13 58.4602 24.13C56.6406 24.13 55.3709 22.6897 55.3709 20.6294V18.583C55.3709 16.4977 56.6511 15.0297 58.4865 15.0297C60.4235 15.0297 61.6273 16.3907 61.6273 18.583L61.6246 20.5752ZM100.979 7.93545L94.7117 26.3807H97.8669L99.0668 22.427H106.271L106.283 22.4659L107.47 26.3807H110.624L104.346 7.93406L100.979 7.93545ZM99.8368 19.8259L102.664 10.5004L105.462 19.8259H99.8368ZM27.9403 13.0848C28.2803 12.0087 28.3983 10.8685 28.2864 9.74039C28.1745 8.61233 27.8353 7.52249 27.2915 6.54385C26.4843 5.06478 25.2529 3.89387 23.7744 3.19963C22.2959 2.50539 20.6466 2.32361 19.0639 2.68046C18.3501 1.83166 17.4725 1.15343 16.49 0.691176C15.5074 0.228926 14.4425 -0.00667508 13.3666 0.000143901C11.7478 -0.00374184 10.1698 0.534618 8.85997 1.53757C7.55019 2.54052 6.57642 3.95621 6.07911 5.58044C5.02525 5.80837 4.0297 6.27093 3.15904 6.93719C2.28837 7.60345 1.56268 8.45805 1.03048 9.44383C0.219015 10.9205 -0.127161 12.6305 0.0417761 14.3278C0.210714 16.0251 0.886053 17.622 1.97059 18.8889C1.63192 19.964 1.5146 21.1029 1.62647 22.2297C1.73833 23.3564 2.0768 24.445 2.6193 25.4229C3.42574 26.9048 4.65778 28.0783 6.13771 28.7742C7.61765 29.4701 9.26897 29.6523 10.8535 29.2946C11.5667 30.1424 12.4432 30.82 13.4246 31.2822C14.4059 31.7444 15.4695 31.9806 16.5442 31.9749C18.163 31.9788 19.7411 31.4404 21.0509 30.4375C22.3607 29.4345 23.3344 28.0189 23.8317 26.3946C24.8854 26.1666 25.8807 25.704 26.7512 25.0377C27.6216 24.3715 28.3471 23.5169 28.8791 22.5312C29.6926 21.0551 30.0401 19.3445 29.8714 17.6465C29.7026 15.9485 29.0264 14.3511 27.9403 13.0848ZM16.5442 29.8896C15.2149 29.8908 13.9275 29.3987 12.9078 28.4994C12.9526 28.473 13.0396 28.4271 13.0897 28.3924L19.1286 24.7166C19.2801 24.6259 19.4059 24.4942 19.493 24.3351C19.5802 24.176 19.6255 23.9953 19.6243 23.8116V14.8337L22.1757 16.3865C22.1895 16.3934 22.2013 16.4039 22.2101 16.4171C22.2189 16.4303 22.2243 16.4456 22.2258 16.4616V23.8923C22.2258 25.4816 21.6274 27.006 20.5621 28.1306C19.4968 29.2551 18.0517 29.8878 16.5442 29.8896ZM4.33602 24.3927C3.67031 23.1797 3.42997 21.7587 3.65698 20.3778C3.70181 20.407 3.78092 20.4571 3.8363 20.4904L9.87647 24.1675C10.0268 24.2604 10.198 24.3093 10.3722 24.3093C10.5465 24.3093 10.7176 24.2604 10.868 24.1675L18.2372 19.6744V22.7801C18.2386 22.796 18.2361 22.8121 18.2298 22.8267C18.2236 22.8413 18.2139 22.854 18.2016 22.8635L12.0969 26.5781C10.7916 27.3706 9.24144 27.5848 7.78653 27.1738C6.33163 26.7628 5.09073 25.7601 4.33602 24.3858V24.3927ZM2.75379 10.4907C3.41638 9.27581 4.46337 8.34563 5.71124 7.86316V15.4314C5.71036 15.6151 5.7558 15.7957 5.84292 15.9547C5.93003 16.1138 6.05569 16.2455 6.20701 16.3365L13.5776 20.8241L11.017 22.3825C11.0045 22.3913 10.9901 22.3968 10.9751 22.3982C10.9602 22.3997 10.9451 22.3971 10.9313 22.3908L4.82783 18.6748C3.52371 17.8793 2.57227 16.5707 2.18242 15.0363C1.79257 13.5018 1.99617 11.867 2.74852 10.4907H2.75379ZM23.7183 15.6344L16.3478 11.1468L18.8965 9.59258C18.909 9.58384 18.9234 9.5785 18.9384 9.57705C18.9533 9.57559 18.9684 9.57806 18.9822 9.58424L25.0857 13.3003C26.0205 13.8698 26.7821 14.7083 27.2814 15.7176C27.7806 16.727 27.9968 17.8654 27.9047 18.9996C27.8125 20.1338 27.4159 21.2169 26.7611 22.122C26.1064 23.0272 25.2206 23.7169 24.2075 24.1105V16.5436C24.2095 16.3595 24.1649 16.1782 24.0782 16.0183C23.9915 15.8585 23.8659 15.726 23.7144 15.6344H23.7183ZM26.2591 11.6028C26.2143 11.5736 26.1352 11.5236 26.0798 11.4902L20.0397 7.81311C19.8893 7.72025 19.7182 7.67131 19.5439 7.67131C19.3696 7.67131 19.1985 7.72025 19.0481 7.81311L11.6776 12.2993V9.19498C11.6771 9.17899 11.6801 9.1631 11.6865 9.1486C11.693 9.13411 11.7025 9.12142 11.7145 9.11157L17.8179 5.39693C18.7531 4.82855 19.8225 4.55275 20.901 4.60181C21.9794 4.65087 23.0223 5.02276 23.9075 5.67396C24.7928 6.32516 25.4839 7.22874 25.8999 8.27895C26.3159 9.32916 26.4396 10.4826 26.2565 11.6042L26.2591 11.6028ZM10.2865 17.1414L7.73386 15.5885C7.72075 15.5809 7.70951 15.5701 7.70104 15.5571C7.69257 15.5441 7.68711 15.5291 7.68508 15.5135V8.08281C7.68426 6.94393 7.99136 5.82841 8.5704 4.867C9.14943 3.90559 9.9764 3.13813 10.9544 2.65459C11.9323 2.17105 13.0208 1.99147 14.0921 2.13689C15.1634 2.28232 16.1732 2.74672 17.0031 3.47566C16.9583 3.50208 16.8778 3.54795 16.8211 3.58271L10.7823 7.25842C10.631 7.34938 10.5053 7.48113 10.4182 7.64016C10.3311 7.7992 10.2856 7.97979 10.2865 8.16344V17.1414ZM11.6723 13.9898L14.9554 11.9907L18.2372 13.9898V17.9853L14.9541 19.9844L11.671 17.9853L11.6723 13.9898Z" fill="#001E33"/>
</svg>
