<svg width="67" height="25" viewBox="0 0 67 25" fill="none" xmlns="http://www.w3.org/2000/svg">
<path d="M8.875 15.95C8.875 22.075 6.85 24.925 2.275 24.925C1.55 24.925 0.825 24.9 0 24.8V20.425C0.725 20.55 1.55 20.625 2.175 20.625C4.375 20.625 5.25 19.3 5.25 16.1C5.25 13.875 4.775 11.35 4.05 8.25H7.95C8.525 10.75 8.875 13.55 8.875 15.95Z" fill="black"/>
<path d="M16.8607 18L16.0107 18.825H15.6607C12.1607 18.825 10.8107 17.025 10.8107 13.25V0H14.8107V12.325C14.8107 14 15.2857 14.525 16.8607 14.525V18Z" fill="black"/>
<path d="M18.8605 18.825H16.0355V15.275L16.8607 14.525H20.7105C20.3355 14.125 19.9355 13.7 19.5605 13.225L18.4605 11.85V7.875C20.1605 7.45 22.6605 7.025 24.8605 7.025C29.2355 7.025 31.0855 8.075 31.1105 10.875C31.1355 12.15 30.6105 13.4 29.6855 14.525H32.7105V18L31.8855 18.825H31.2605C28.8605 18.825 26.8355 18.475 25.0605 17.7C23.2605 18.4 21.1355 18.825 18.8605 18.825ZM24.8605 11C23.7355 11 22.5605 11.1 21.4355 11.225C22.7605 12.8 23.8605 13.7 25.3605 14.125C27.3355 13.7 28.4355 12.975 28.4105 12.175C28.3855 11.35 27.2855 11 24.8605 11Z" fill="black"/>
<path d="M44.9053 4.7C44.9053 5.575 44.2303 6.275 43.3303 6.275C42.4303 6.275 41.7303 5.575 41.7303 4.7C41.7303 3.8 42.4303 3.1 43.3303 3.1C44.2303 3.1 44.9053 3.8 44.9053 4.7ZM43.0303 8.05C43.0303 8.925 42.3553 9.625 41.4553 9.625C40.5553 9.625 39.8553 8.925 39.8553 8.05C39.8553 7.15 40.5553 6.45 41.4553 6.45C42.3553 6.45 43.0303 7.15 43.0303 8.05ZM46.7803 8.05C46.7803 8.925 46.1053 9.625 45.2053 9.625C44.3053 9.625 43.6053 8.925 43.6053 8.05C43.6053 7.15 44.3053 6.45 45.2053 6.45C46.1053 6.45 46.7803 7.15 46.7803 8.05ZM53.6053 18L52.7803 18.825C50.5553 18.825 49.1053 17.75 48.7303 15.875C48.5053 17.975 47.3303 19.125 45.5553 19.125C43.9553 19.125 42.6803 18.175 42.3053 16.5C42.0303 18.2 40.9303 19.125 39.2303 19.125C37.3303 19.125 35.9553 18.025 35.6303 16.15C35.3303 17.85 34.0053 18.825 31.8803 18.825V15.275L32.7053 14.525C34.2303 14.525 34.9053 13.9 34.9053 12.4V11.2H38.6303V12.4C38.6303 13.975 39.0553 14.675 40.0553 14.675C40.8803 14.675 41.4053 13.975 41.4053 12.4L41.3803 11.2H45.1053L45.1303 12.4C45.1303 13.975 45.6303 14.675 46.4553 14.675C47.3303 14.675 47.8053 13.9 47.8053 12.4V10.325H51.5303V12.4C51.5303 13.9 52.1053 14.525 53.6053 14.525V18Z" fill="black"/>
<path d="M54.2287 18.825H52.7787V15.275L53.6037 14.525C55.2287 14.525 55.6537 14.025 55.6537 12.05V0H59.6287V12.225C59.6287 16.725 57.9037 18.825 54.2287 18.825Z" fill="black"/>
<path d="M66.3018 0V18.825H62.3268V0H66.3018Z" fill="black"/>
</svg>
