<svg width="33" height="33" viewBox="0 0 33 33" fill="none" xmlns="http://www.w3.org/2000/svg">
<path d="M22.125 12.791C24.6794 12.791 26.75 10.7203 26.75 8.16602C26.75 5.61171 24.6794 3.54102 22.125 3.54102M8.07976 30.6495C9.52448 31.0597 11.1529 31.2904 12.8757 31.2904C18.8357 31.2904 23.6673 28.5294 23.6673 25.1237C23.6673 21.718 18.8357 18.957 12.8757 18.957C6.91558 18.957 2.08398 21.718 2.08398 25.1237C2.08398 25.656 2.20203 26.1726 2.42397 26.6654M26.75 20.5C29.4544 21.0931 31.375 22.595 31.375 24.3542C31.375 25.941 29.8122 27.3186 27.5208 28.0085M19.0423 8.16667C19.0423 11.5724 16.2814 14.3333 12.8757 14.3333C9.4699 14.3333 6.70898 11.5724 6.70898 8.16667C6.70898 4.76091 9.4699 2 12.8757 2C16.2814 2 19.0423 4.76091 19.0423 8.16667Z" stroke="#00322E" stroke-width="2.5" stroke-linecap="round"/>
</svg>
