<svg width="32" height="32" viewBox="0 0 32 32" fill="none" xmlns="http://www.w3.org/2000/svg">
<path d="M23.6922 0.896874C23.0141 0.767469 22.3594 1.21229 22.23 1.89041C22.1006 2.56853 22.5455 3.22316 23.2236 3.35256L23.4579 2.12472L23.6922 0.896874ZM25.6692 3.20827L24.6987 3.99611L24.6988 3.99627L25.6692 3.20827ZM26.2362 6.72959L24.9872 6.67999V6.68002L26.2362 6.72959ZM6.51323 6.72959L5.26422 6.77918V6.77918L6.51323 6.72959ZM7.08032 3.20827L8.05073 3.99619L8.05073 3.99618L7.08032 3.20827ZM10.1741 1.96997L9.9661 0.737395L9.96609 0.737396L10.1741 1.96997ZM19.121 2.82248C19.8097 2.87047 20.4069 2.35109 20.4549 1.6624C20.5029 0.973719 19.9835 0.376522 19.2948 0.328528L19.2079 1.5755L19.121 2.82248ZM27.635 6.17672L27.2397 7.36257L27.2397 7.36258L27.635 6.17672ZM30.1399 7.43454L29.1258 8.16535L29.1259 8.16552L30.1399 7.43454ZM30.541 10.2087L29.291 10.2086V10.2087H30.541ZM28.3551 14.0265L27.748 12.9338L27.748 12.9338L28.3551 14.0265ZM5.11502 6.17672L5.51031 7.36258L5.51031 7.36258L5.11502 6.17672ZM2.61004 7.43454L3.6241 8.16542L3.62411 8.16541L2.61004 7.43454ZM2.20899 10.2087H3.45899V10.2087L2.20899 10.2087ZM2.20899 10.3115H0.958985V10.3115L2.20899 10.3115ZM2.50256 12.6394L3.5799 12.0055L3.57989 12.0055L2.50256 12.6394ZM4.39497 14.0265L5.00205 12.9338L5.00201 12.9338L4.39497 14.0265ZM17.6251 22.7288C17.6251 22.0384 17.0654 21.4788 16.3751 21.4788C15.6847 21.4788 15.1251 22.0384 15.1251 22.7288H16.3751H17.6251ZM15.1251 25.5621C15.1251 26.2524 15.6847 26.8121 16.3751 26.8121C17.0654 26.8121 17.6251 26.2524 17.6251 25.5621H16.3751H15.1251ZM21.3328 29.8115V31.0615C21.7073 31.0615 22.062 30.8936 22.2995 30.604C22.5369 30.3144 22.632 29.9336 22.5585 29.5664L21.3328 29.8115ZM11.4161 29.8115L10.1904 29.5663C10.117 29.9336 10.212 30.3144 10.4494 30.604C10.6869 30.8936 11.0416 31.0615 11.4161 31.0615V29.8115ZM11.8967 27.4087L10.671 27.1635L10.671 27.1635L11.8967 27.4087ZM20.8523 27.4087L22.078 27.1636L22.078 27.1635L20.8523 27.4087ZM24.8751 31.0609C25.5654 31.0609 26.1251 30.5013 26.1251 29.8109C26.1251 29.1205 25.5654 28.5609 24.8751 28.5609V29.8109V31.0609ZM7.87505 28.5609C7.1847 28.5609 6.62505 29.1205 6.62505 29.8109C6.62505 30.5013 7.1847 31.0609 7.87505 31.0609V29.8109V28.5609ZM23.4579 2.12472L23.2236 3.35256C24.199 3.53871 24.4488 3.68828 24.6987 3.99611L25.6692 3.20827L26.6396 2.42043C25.8134 1.40271 24.8176 1.11164 23.6922 0.896874L23.4579 2.12472ZM25.6692 3.20827L24.6988 3.99627C25.0167 4.38765 25.0644 4.73794 24.9872 6.67999L26.2362 6.72959L27.4853 6.7792C27.5507 5.13286 27.6698 3.68894 26.6395 2.42027L25.6692 3.20827ZM26.2362 6.72959L24.9872 6.68002C24.8604 9.87526 24.4389 13.2942 23.1505 15.8826C22.516 17.1571 21.6918 18.1875 20.6259 18.9025C19.5682 19.6119 18.1966 20.0621 16.3748 20.0621V21.3121V22.5621C18.633 22.5621 20.502 21.9958 22.0184 20.9788C23.5264 19.9673 24.6096 18.5615 25.3885 16.9967C26.9268 13.9064 27.3561 10.034 27.4853 6.77916L26.2362 6.72959ZM16.3748 21.3121V20.0621C14.553 20.0621 13.1814 19.6119 12.1237 18.9025C11.0577 18.1875 10.2335 17.1571 9.59909 15.8826C8.31061 13.2942 7.8891 9.87525 7.76225 6.68001L6.51323 6.72959L5.26422 6.77918C5.39344 10.0341 5.82274 13.9064 7.36104 16.9967C8.14 18.5615 9.22317 19.9673 10.7312 20.9788C12.2476 21.9958 14.1166 22.5621 16.3748 22.5621V21.3121ZM6.51323 6.72959L7.76225 6.68001C7.68515 4.73805 7.73291 4.38762 8.05073 3.99619L7.08032 3.20827L6.10992 2.42035C5.07987 3.68897 5.19885 5.13275 5.26422 6.77918L6.51323 6.72959ZM7.08032 3.20827L8.05073 3.99618C8.37496 3.59686 8.65518 3.49391 10.382 3.20255L10.1741 1.96997L9.96609 0.737396C8.46653 0.990406 7.13354 1.15965 6.10992 2.42035L7.08032 3.20827ZM10.1741 1.96997L10.382 3.20255C11.9097 2.9448 13.9217 2.72876 16.3748 2.72876V1.47876V0.22876C13.7744 0.22876 11.6232 0.457806 9.9661 0.737395L10.1741 1.96997ZM16.3748 1.47876V2.72876C17.3627 2.72876 18.2791 2.76381 19.121 2.82248L19.2079 1.5755L19.2948 0.328528C18.3962 0.265907 17.4219 0.22876 16.3748 0.22876V1.47876ZM26.2911 5.72876L25.8958 6.91461L27.2397 7.36257L27.635 6.17672L28.0303 4.99087L26.6864 4.54291L26.2911 5.72876ZM27.635 6.17672L27.2397 7.36258C27.9683 7.60545 28.4146 7.7562 28.7358 7.90562C29.0278 8.04147 29.0959 8.12378 29.1258 8.16535L30.1399 7.43454L31.154 6.70372C30.7829 6.18878 30.2998 5.87594 29.7903 5.6389C29.3099 5.41542 28.7043 5.21553 28.0302 4.99086L27.635 6.17672ZM30.1399 7.43454L29.1259 8.16552C29.1559 8.20713 29.2125 8.29771 29.249 8.61769C29.2892 8.96961 29.2911 9.44063 29.291 10.2086L30.541 10.2087L31.791 10.2089C31.791 9.49841 31.793 8.86059 31.7329 8.33415C31.6691 7.77576 31.5251 7.21848 31.1539 6.70356L30.1399 7.43454ZM30.541 10.2087H29.291V10.3115H30.541H31.791V10.2087H30.541ZM30.541 10.3115H29.291C29.291 10.9459 29.2895 11.3305 29.2605 11.6214C29.2342 11.8844 29.1931 11.9663 29.1701 12.0054L30.2474 12.6394L31.3248 13.2733C31.5953 12.8136 31.701 12.3413 31.7481 11.8699C31.7924 11.4264 31.791 10.8965 31.791 10.3115H30.541ZM30.2474 12.6394L29.1701 12.0054C29.1471 12.0446 29.0954 12.1203 28.8782 12.271C28.6381 12.4376 28.3025 12.6257 27.748 12.9338L28.3551 14.0265L28.9621 15.1192C29.4735 14.8351 29.9374 14.579 30.3036 14.3249C30.6927 14.0548 31.0543 13.733 31.3248 13.2733L30.2474 12.6394ZM28.3551 14.0265L27.748 12.9338L23.559 15.2611L24.1661 16.3538L24.7732 17.4464L28.9621 15.1191L28.3551 14.0265ZM6.4589 5.72876L6.06361 4.54291L4.71973 4.99087L5.11502 6.17672L5.51031 7.36258L6.85419 6.91461L6.4589 5.72876ZM5.11502 6.17672L4.71974 4.99087C4.04576 5.21553 3.4401 5.41543 2.95973 5.6389C2.45022 5.87593 1.96709 6.18875 1.59597 6.70367L2.61004 7.43454L3.62411 8.16541C3.6541 8.1238 3.72217 8.04149 4.01422 7.90562C4.33542 7.7562 4.7817 7.60545 5.51031 7.36258L5.11502 6.17672ZM2.61004 7.43454L1.59599 6.70366C1.22486 7.21857 1.08088 7.77583 1.01714 8.33416C0.95706 8.86055 0.958965 9.49834 0.958985 10.2088L2.20899 10.2087L3.45899 10.2087C3.45896 9.44069 3.46084 8.96965 3.50102 8.61768C3.53755 8.29765 3.59411 8.20703 3.6241 8.16542L2.61004 7.43454ZM2.20899 10.2087H0.958985V10.3115H2.20899H3.45899V10.2087H2.20899ZM2.20899 10.3115L0.958985 10.3115C0.959006 10.8965 0.957585 11.4264 1.00192 11.87C1.04902 12.3413 1.15473 12.8136 1.42523 13.2733L2.50256 12.6394L3.57989 12.0055C3.55687 11.9663 3.51581 11.8844 3.48952 11.6213C3.46046 11.3305 3.45901 10.9458 3.45899 10.3114L2.20899 10.3115ZM2.50256 12.6394L1.42522 13.2733C1.69572 13.733 2.05729 14.0548 2.44644 14.3249C2.81267 14.579 3.27655 14.8351 3.78793 15.1192L4.39497 14.0265L5.00201 12.9338C4.44747 12.6257 4.1119 12.4376 3.87178 12.271C3.65458 12.1203 3.60291 12.0446 3.5799 12.0055L2.50256 12.6394ZM4.39497 14.0265L3.7879 15.1191L7.97682 17.4464L8.5839 16.3538L9.19098 15.2611L5.00205 12.9338L4.39497 14.0265ZM16.3751 22.7288H15.1251V25.5621H16.3751H17.6251V22.7288H16.3751ZM21.3328 29.8115V28.5615H11.4161V29.8115V31.0615H21.3328V29.8115ZM11.4161 29.8115L12.6418 30.0566L13.1224 27.6538L11.8967 27.4087L10.671 27.1635L10.1904 29.5663L11.4161 29.8115ZM11.8967 27.4087L13.1224 27.6539C13.138 27.5759 13.2065 27.5198 13.2858 27.5198V26.2698V25.0198C12.0146 25.0198 10.9203 25.9172 10.671 27.1635L11.8967 27.4087ZM13.2858 26.2698V27.5198H19.4631V26.2698V25.0198H13.2858V26.2698ZM19.4631 26.2698V27.5198C19.5425 27.5198 19.6109 27.5759 19.6265 27.6539L20.8523 27.4087L22.078 27.1635C21.8287 25.9172 20.7343 25.0198 19.4631 25.0198V26.2698ZM20.8523 27.4087L19.6265 27.6538L20.1071 30.0566L21.3328 29.8115L22.5585 29.5664L22.078 27.1636L20.8523 27.4087ZM24.8751 29.8109V28.5609H7.87505V29.8109V31.0609H24.8751V29.8109Z" fill="#00322E"/>
</svg>
