<svg width="26" height="26" viewBox="0 0 26 26" fill="none" xmlns="http://www.w3.org/2000/svg">
<path fill-rule="evenodd" clip-rule="evenodd" d="M25.418 12.3819C25.418 19.219 19.8317 24.7629 12.9406 24.7629C10.7523 24.7629 8.69605 24.204 6.90878 23.2222L0 25.4177L2.25185 18.7751C1.11545 16.9089 0.462016 14.7206 0.462016 12.3819C0.462016 5.54346 6.04833 0 12.9403 0C19.8317 0 25.418 5.54346 25.418 12.3819ZM12.9406 1.97194C7.15446 1.97194 2.44933 6.64098 2.44933 12.3819C2.44933 14.6587 3.19102 16.7685 4.44735 18.4854L3.13722 22.3506L7.16796 21.0698C8.8239 22.1564 10.8084 22.7907 12.9403 22.7907C18.7239 22.7907 23.4304 18.1212 23.4304 12.3817C23.4309 6.64098 18.7244 1.97194 12.9406 1.97194ZM19.2413 15.2336C19.164 15.107 18.96 15.031 18.6554 14.8792C18.3494 14.7278 16.8449 13.9927 16.5647 13.8921C16.2848 13.791 16.0792 13.7402 15.8766 14.0434C15.6726 14.3471 15.0862 15.0308 14.9072 15.2334C14.7292 15.4365 14.5513 15.4612 14.2453 15.3093C13.9389 15.158 12.9529 14.8364 11.7851 13.8036C10.8764 12.9979 10.2626 12.0054 10.083 11.7017C9.90558 11.3985 10.0653 11.2343 10.2169 11.0827C10.355 10.946 10.5234 10.7283 10.6761 10.5518C10.8294 10.3739 10.8801 10.2467 10.9821 10.0441C11.0841 9.84154 11.0334 9.66502 10.9561 9.51319C10.8801 9.36183 10.2679 7.8682 10.0127 7.25995C9.75934 6.65355 9.50411 6.67614 9.32457 6.67614C9.14666 6.67614 8.81645 6.729 8.81645 6.729C8.81645 6.729 8.2033 6.80492 7.9234 7.10858C7.64349 7.41178 6.85336 8.14694 6.85336 9.63917C6.85336 11.1326 7.94854 12.5764 8.10131 12.7776C8.25453 12.9806 10.2167 16.1451 13.3264 17.3602C16.4362 18.5751 16.4362 18.1697 16.9972 18.1184C17.557 18.0691 18.8063 17.3849 19.0616 16.676C19.3175 15.9672 19.3175 15.3594 19.2413 15.2336Z" fill="white"/>
</svg>
