<svg width="37" height="42" viewBox="0 0 37 42" fill="none" xmlns="http://www.w3.org/2000/svg">
<path d="M35.6722 14.1562C34.322 12.5507 32.3804 10.7914 29.8766 9.89856C25.1059 8.19724 21.1993 8.40361 19.8688 10.1723C19.2035 9.92648 18.5202 9.78525 17.8533 9.64621C16.8135 9.43163 15.8307 9.2269 15.0143 8.65486C14.5068 8.2996 14.0748 7.85511 13.6997 7.36245C12.6638 6.00216 12.1266 4.32821 12.0976 2.61867C12.096 2.51412 12.0954 2.41066 12.096 2.30884C12.0987 1.72586 12.1381 1.17627 12.2017 0.666641H10.9073C10.8492 1.18065 10.8142 1.72969 10.8131 2.30884C10.8115 3.19782 10.8881 4.15906 11.0819 5.17613C11.0918 5.23032 11.1022 5.28671 11.1137 5.3409C11.1137 5.3409 11.1137 5.34254 11.1148 5.34364C11.2331 5.93483 11.3935 6.54463 11.5994 7.17031C11.8364 7.88905 12.1414 8.61709 12.4973 9.34897C12.9343 10.7728 13.2918 12.3963 12.9211 13.9094C12.6835 14.8777 12.0785 15.678 11.4378 16.5248C11.0234 17.0723 10.599 17.6339 10.259 18.2628C8.10227 17.7943 4.99885 20.1541 2.46048 24.5114C1.12286 26.8083 0.774081 29.4052 0.777367 31.5028C0.781199 33.6514 3.09891 34.9925 4.96928 33.9344C6.79421 32.902 8.87703 31.3184 10.2125 29.0247C12.8319 24.5279 13.07 20.4218 11.3853 18.8535C11.6766 18.317 12.0555 17.8151 12.4519 17.2918C13.1423 16.3787 13.8563 15.435 14.1558 14.2121C14.2883 13.6729 14.3436 13.1321 14.3458 12.5951C15.3122 14.1075 16.3799 15.5932 17.3868 16.9934C18.7272 18.8584 20.0139 20.6473 20.7591 22.1001C18.5514 23.7281 18.3964 28.6345 21.07 34.2491C22.4186 37.0809 24.7161 39.15 26.7638 40.5448C28.8631 41.9741 31.724 40.622 31.9386 38.0919C32.1483 35.6215 31.9917 32.5298 30.6415 29.6942C28.0325 24.2142 24.5294 21.1164 21.928 21.5927C21.1516 20.0518 19.8562 18.2492 18.4194 16.2511C16.8798 14.1108 15.195 11.7652 13.9861 9.47487C14.0824 9.54986 14.1815 9.62486 14.2834 9.69602C15.3155 10.4191 16.4741 10.6594 17.5954 10.891C18.2289 11.0229 18.8367 11.1483 19.4023 11.3552C19.1515 13.6362 21.9795 16.6048 26.863 18.3455C29.3635 19.2372 31.9769 19.1047 34.0373 18.7172C36.1497 18.3198 37.0558 15.8006 35.6722 14.1562ZM6.00795 26.8954C6.02109 26.8461 6.04081 26.7744 6.07092 26.6852C6.08461 26.6397 6.10268 26.591 6.12184 26.5374C6.14046 26.4832 6.164 26.4262 6.18809 26.3649C6.21164 26.3036 6.2412 26.2401 6.27022 26.1722C6.28446 26.1378 6.30143 26.1044 6.31731 26.0688C6.33428 26.0343 6.35071 25.9976 6.36823 25.9615C6.43941 25.8164 6.52154 25.6615 6.61134 25.5006C6.70168 25.3396 6.80078 25.1738 6.90481 25.0041C7.11233 24.6642 7.33955 24.3116 7.54652 23.9542C7.75404 23.5973 7.93965 23.2332 8.08201 22.8785C8.15374 22.7012 8.21506 22.5255 8.26817 22.3607C8.28076 22.3169 8.2939 22.2737 8.3065 22.231C8.30924 22.2206 8.31252 22.2096 8.31581 22.1992L8.3169 22.1954V22.1943V22.1932L8.31909 22.1866L8.32347 22.1707C8.32895 22.1505 8.33497 22.1297 8.34045 22.1094C8.36289 22.0273 8.3848 21.9474 8.4056 21.8708C8.44831 21.7164 8.49102 21.573 8.53591 21.4482C8.58136 21.3228 8.6279 21.2155 8.67225 21.1312C8.71605 21.0464 8.75657 20.9823 8.78504 20.9407C8.81078 20.9046 8.82611 20.8838 8.82994 20.8789C8.82885 20.8849 8.82228 20.9101 8.81078 20.9528C8.80421 20.9769 8.79818 21.0075 8.78942 21.042C8.78504 21.0595 8.78176 21.0787 8.77738 21.0989C8.773 21.1186 8.76862 21.14 8.76478 21.163C8.74836 21.2533 8.73248 21.3633 8.71989 21.4903C8.70675 21.6173 8.69634 21.7607 8.6843 21.9195C8.67827 21.9994 8.67006 22.0826 8.66185 22.1696C8.65966 22.1915 8.65747 22.2134 8.65473 22.2359L8.65254 22.2523L8.65144 22.2605V22.266V22.2676L8.65035 22.272C8.64871 22.283 8.64761 22.2939 8.64597 22.3049C8.6394 22.3486 8.63338 22.3935 8.62681 22.4384C8.59505 22.6289 8.55125 22.8232 8.49156 23.0214C8.43243 23.2201 8.35742 23.421 8.26872 23.6186C8.18057 23.8162 8.07927 24.0111 7.97031 24.1994C7.75185 24.5771 7.50327 24.9285 7.26564 25.2477C7.14628 25.4075 7.0302 25.5597 6.9196 25.7037C6.86484 25.7754 6.81118 25.8454 6.75972 25.9133C6.73398 25.9473 6.70825 25.9807 6.68361 26.013C6.65897 26.0458 6.63488 26.0786 6.61079 26.1098C6.51606 26.2357 6.42901 26.3523 6.35399 26.4569C6.33483 26.4826 6.31621 26.5078 6.29869 26.5324C6.28117 26.5571 6.2642 26.5806 6.24832 26.6036C6.21547 26.649 6.18535 26.6906 6.15852 26.729C6.1317 26.7673 6.1076 26.8012 6.0868 26.8308C6.06654 26.8609 6.04847 26.8866 6.03424 26.9069C6.0085 26.943 5.99317 26.9643 5.98934 26.9693C5.99043 26.9632 5.997 26.9381 6.00795 26.8954ZM5.08974 23.3509C5.08919 23.3728 5.08755 23.3969 5.08645 23.4226C5.08536 23.4484 5.08372 23.4763 5.08262 23.5059C5.08153 23.5354 5.07715 23.5666 5.07441 23.6C5.07112 23.6329 5.06839 23.6679 5.06401 23.7046C5.05853 23.7407 5.0536 23.779 5.04758 23.819C5.04484 23.8387 5.04265 23.8595 5.03882 23.8797C5.03499 23.9005 5.03115 23.9213 5.02677 23.9427C5.01856 23.9854 5.01144 24.0303 5.00104 24.0757C4.99064 24.1211 4.98078 24.1682 4.96874 24.2164C4.95559 24.264 4.943 24.3133 4.92931 24.3642C4.91508 24.4145 4.8992 24.4654 4.88277 24.5185C4.8658 24.5705 4.84773 24.6242 4.82966 24.6784C4.8105 24.7326 4.78969 24.7873 4.76889 24.8437C4.74644 24.899 4.72344 24.9554 4.70044 25.0128C4.65281 25.1267 4.5997 25.2433 4.5433 25.3615C4.42941 25.5975 4.29965 25.8405 4.15784 26.0852C4.01767 26.3304 3.866 26.5779 3.71324 26.8269C3.56048 27.076 3.40662 27.3267 3.26098 27.5791C3.22375 27.642 3.1887 27.7055 3.15257 27.7685C3.11862 27.832 3.08248 27.8949 3.04908 27.959L3.0239 28.0066L3.0113 28.0301L3.00583 28.0405L3.00309 28.0455C2.98721 28.0788 2.97133 28.1122 2.95545 28.1456C2.94505 28.1724 2.93465 28.1993 2.9237 28.2255C2.92096 28.2321 2.91822 28.2398 2.91548 28.2474L2.90782 28.2704L2.89249 28.3159L2.88428 28.3389L2.8777 28.3624L2.86402 28.41C2.86018 28.4253 2.85471 28.4412 2.85088 28.4571L2.83993 28.5053C2.83171 28.5376 2.8235 28.5699 2.81802 28.6027C2.81145 28.6355 2.80434 28.6678 2.79886 28.7012C2.77477 28.8337 2.75834 28.9689 2.74301 29.103C2.71454 29.3723 2.69592 29.6417 2.67183 29.8995C2.64719 30.1573 2.61708 30.4047 2.56944 30.633C2.5563 30.6899 2.5448 30.7458 2.53002 30.8C2.5229 30.8268 2.51633 30.8536 2.50921 30.8799C2.501 30.9062 2.49279 30.9324 2.48512 30.9576C2.45337 31.06 2.41613 31.1558 2.37616 31.2428C2.29568 31.4174 2.19931 31.5576 2.10678 31.6578C2.08542 31.684 2.06133 31.7059 2.03998 31.7273C2.02903 31.7377 2.01808 31.7475 2.00767 31.7574C1.99782 31.7667 1.98796 31.776 1.97756 31.7842C1.95675 31.8001 1.93759 31.8154 1.92007 31.8291C1.90255 31.8422 1.88722 31.8548 1.87189 31.8641C1.84177 31.8833 1.81823 31.8975 1.8029 31.9068C1.79085 31.9145 1.78319 31.9189 1.78045 31.9205C1.78592 31.9139 1.80947 31.8866 1.84944 31.8395C1.86148 31.8269 1.87243 31.8105 1.88503 31.7935C1.89762 31.7765 1.91131 31.7579 1.92609 31.7377C1.93376 31.7278 1.94033 31.7169 1.94745 31.7054C1.95456 31.6939 1.96168 31.6818 1.9688 31.6698C1.98358 31.6457 2.00001 31.6211 2.0137 31.5921C2.07338 31.4804 2.12977 31.3392 2.16865 31.17C2.20862 31.0014 2.23216 30.806 2.24257 30.5903C2.24476 30.5361 2.2464 30.4808 2.24859 30.4245C2.24859 30.3681 2.25023 30.3106 2.24914 30.2515C2.24914 30.1338 2.24749 30.0106 2.24421 29.8836C2.23928 29.6291 2.23052 29.3576 2.23983 29.0685C2.24421 28.924 2.25297 28.7757 2.27159 28.6235C2.29075 28.4708 2.31867 28.3142 2.36357 28.1566L2.38109 28.0975L2.3904 28.0673C2.39314 28.0575 2.39642 28.0476 2.40026 28.0372C2.41559 27.9951 2.43147 27.9529 2.44789 27.9108C2.46322 27.8769 2.47801 27.8429 2.49334 27.809L2.49607 27.8024L2.50319 27.7876L2.50976 27.7745L2.5229 27.7493L2.54918 27.6979C2.61817 27.561 2.69264 27.4269 2.76875 27.295C2.92206 27.0306 3.08522 26.776 3.24838 26.5302C3.4121 26.2839 3.57526 26.0469 3.7324 25.8186C3.8879 25.5893 4.03629 25.3681 4.17043 25.1557C4.30458 24.9433 4.42613 24.7391 4.52961 24.5465C4.63419 24.3538 4.7218 24.1731 4.79298 24.0089C4.86361 23.8447 4.92165 23.6985 4.96326 23.5759C4.98626 23.5146 5.00268 23.4593 5.01856 23.4112C5.02677 23.3871 5.03389 23.3646 5.04046 23.3444C5.04648 23.3236 5.05196 23.3044 5.05689 23.2874C5.07769 23.2196 5.08864 23.1834 5.08864 23.1834C5.08864 23.1834 5.08864 23.2212 5.08974 23.2924V23.3509ZM10.6554 24.3855C10.6554 24.4463 10.6532 24.5049 10.6516 24.5684C10.6494 24.6308 10.6467 24.6954 10.6434 24.761C10.628 25.0243 10.5979 25.3188 10.4972 25.6276C10.4479 25.7819 10.3773 25.9374 10.2858 26.0868L10.2689 26.1153L10.2513 26.1427L10.2349 26.1673L10.2272 26.1799L10.2179 26.193C10.2053 26.2111 10.1928 26.2292 10.1802 26.2472C10.1676 26.2642 10.155 26.2812 10.1429 26.2987C10.092 26.3666 10.0389 26.4328 9.98469 26.4979C9.87682 26.6282 9.76129 26.7508 9.64686 26.8724C9.61839 26.9025 9.58992 26.9326 9.56144 26.9627L9.52367 27.0032L9.48151 27.0503C9.45468 27.0809 9.42237 27.1138 9.40156 27.1411C9.37802 27.1702 9.35448 27.1964 9.33093 27.2271C9.1393 27.4718 8.97887 27.7504 8.83651 28.0455C8.69415 28.341 8.5715 28.6536 8.44612 28.9667C8.41491 29.0456 8.3837 29.1238 8.35249 29.2021C8.32019 29.2804 8.28733 29.3581 8.25558 29.4358C8.18987 29.5908 8.12253 29.7451 8.04861 29.8946C7.90242 30.194 7.73706 30.4781 7.54597 30.7261C7.52134 30.7567 7.49889 30.7885 7.4737 30.8175C7.44851 30.847 7.42387 30.8766 7.39924 30.9056C7.3746 30.9346 7.34832 30.962 7.32368 30.9894C7.31054 31.0031 7.29794 31.0167 7.28535 31.0304L7.28042 31.0364L7.27823 31.0386L7.2733 31.043L7.264 31.0523L7.24538 31.0704C7.23279 31.083 7.22019 31.095 7.20815 31.1071C7.19555 31.1191 7.18406 31.1306 7.16982 31.1437C7.14244 31.1684 7.11507 31.1936 7.08769 31.2176C7.06086 31.2423 7.03348 31.2636 7.0072 31.2861C6.99351 31.297 6.98037 31.3085 6.96723 31.3195C6.95354 31.3299 6.93986 31.3397 6.92617 31.3501C6.89879 31.3704 6.87196 31.3906 6.84513 31.4103C6.81776 31.4289 6.79038 31.4475 6.76355 31.4656C6.74986 31.4749 6.73672 31.4842 6.72358 31.493C6.70989 31.5012 6.6962 31.5094 6.68251 31.5182C6.65569 31.5346 6.62886 31.551 6.60257 31.5663C6.5752 31.5811 6.54892 31.5959 6.52209 31.6101C6.50895 31.6172 6.49581 31.6244 6.48321 31.6315C6.46952 31.638 6.45638 31.6441 6.44324 31.6506C6.41696 31.6632 6.39123 31.6758 6.36604 31.6884C6.34085 31.7004 6.31402 31.7103 6.28939 31.7207C6.08735 31.8055 5.90283 31.8532 5.74952 31.8784C5.67396 31.8926 5.60442 31.897 5.54529 31.9035C5.48561 31.9057 5.43523 31.9079 5.39417 31.9079C5.31259 31.9046 5.26933 31.9024 5.26933 31.9024C5.26933 31.9024 5.31149 31.8926 5.39034 31.874C5.4095 31.8696 5.4314 31.8625 5.45494 31.8554C5.47849 31.8488 5.50422 31.8411 5.53215 31.8335C5.55952 31.8236 5.58909 31.8138 5.6203 31.8028C5.65151 31.793 5.68381 31.7793 5.71831 31.765C5.85519 31.7098 6.01507 31.6315 6.18426 31.5209C6.26913 31.4667 6.35509 31.4027 6.44324 31.3331C6.52866 31.2598 6.61845 31.1842 6.70277 31.0956C6.72467 31.0742 6.74603 31.0512 6.76683 31.0282C6.78764 31.0052 6.81064 30.9828 6.83035 30.9593C6.85006 30.9357 6.87032 30.9122 6.89058 30.8886C6.90043 30.8772 6.91138 30.8629 6.92179 30.8498C6.93274 30.8361 6.94314 30.8224 6.95409 30.8087L6.97052 30.7879L6.97818 30.7781L6.98256 30.7726C6.98256 30.7726 6.98311 30.7721 6.98475 30.7699C6.99406 30.7567 7.00337 30.7436 7.01268 30.7305C7.03239 30.7036 7.05265 30.6768 7.07181 30.6489C7.09043 30.621 7.10959 30.5925 7.12875 30.564C7.14792 30.5361 7.16544 30.5055 7.18351 30.4759C7.33079 30.2394 7.45727 29.9707 7.57554 29.6827C7.63358 29.5377 7.69107 29.3888 7.74692 29.2355C7.80222 29.0806 7.85916 28.924 7.91556 28.7658C8.03109 28.4467 8.15428 28.1166 8.30978 27.7926C8.46583 27.469 8.65582 27.151 8.89181 26.8702C8.92083 26.8346 8.95423 26.799 8.98489 26.7634C9.01774 26.7257 9.04512 26.6988 9.07524 26.6682L9.11904 26.6233L9.1267 26.6162L9.13492 26.608L9.14641 26.597L9.16941 26.5751C9.19953 26.5461 9.22964 26.5171 9.25921 26.4886C9.37857 26.3737 9.493 26.2631 9.59977 26.1536C9.65288 26.0983 9.70326 26.0431 9.75144 25.9872C9.76348 25.973 9.77498 25.9593 9.78703 25.9451C9.79798 25.9319 9.80893 25.9188 9.81988 25.9051L9.82809 25.8953L9.8374 25.8838L9.85547 25.8608L9.87135 25.8405L9.88613 25.8197C9.96717 25.7113 10.0323 25.5936 10.0876 25.4721C10.1429 25.35 10.1851 25.2231 10.2207 25.0966C10.2568 24.9702 10.2836 24.8432 10.3088 24.7194C10.3214 24.657 10.3329 24.5963 10.3439 24.5361C10.3543 24.4758 10.3652 24.4167 10.3756 24.3593C10.3964 24.2448 10.4129 24.1359 10.4293 24.033C10.4605 23.8277 10.4835 23.6471 10.501 23.4976C10.5185 23.3482 10.5311 23.23 10.5393 23.1495C10.5476 23.0685 10.5519 23.0258 10.5519 23.0258C10.5519 23.0258 10.5536 23.0362 10.5574 23.057C10.5612 23.0778 10.5667 23.1084 10.5727 23.1484C10.5853 23.2289 10.6029 23.3471 10.6182 23.4982C10.6335 23.6498 10.6472 23.8343 10.6532 24.0467C10.6571 24.1529 10.6565 24.2662 10.6554 24.3855ZM11.2292 20.0824C11.0655 20.3517 10.5169 20.3172 10.0028 20.0058C9.48917 19.6943 9.205 19.223 9.36817 18.9537C9.46836 18.7894 9.71147 18.7385 10.0022 18.7944C9.98633 18.8316 9.97045 18.8683 9.95512 18.906C9.93431 18.958 9.91351 19.0128 9.89325 19.0708C9.73009 19.5361 10.1353 20.0019 10.6176 19.8996L10.6291 19.8974C10.8476 19.8509 11.0223 19.6921 11.0962 19.4814C11.0973 19.4792 11.0984 19.477 11.0989 19.4742C11.2665 19.6976 11.325 19.9248 11.2292 20.0824ZM27.6525 28.2524C27.6541 28.2173 27.6552 28.1845 27.6563 28.1538C27.6574 28.1237 27.658 28.0953 27.6596 28.0695C27.6618 28.0444 27.6634 28.0208 27.6651 28C27.6728 27.9168 27.6771 27.8725 27.6771 27.8725C27.6771 27.8725 27.6864 27.9163 27.704 27.9978C27.7083 28.0181 27.7127 28.0411 27.7182 28.0663C27.7237 28.0909 27.7302 28.1183 27.7374 28.1473C27.7511 28.2058 27.7653 28.2721 27.7861 28.3465C27.8233 28.4954 27.8775 28.6733 27.9449 28.8731C28.0122 29.0735 28.0976 29.2952 28.2017 29.5322C28.3052 29.7692 28.4278 30.0216 28.5652 30.2849C28.7027 30.5482 28.8554 30.823 29.0164 31.1082C29.1785 31.3928 29.3477 31.6879 29.5163 31.9939C29.6844 32.2993 29.8519 32.6152 30.0058 32.9414C30.0825 33.1045 30.1575 33.2693 30.2254 33.4373L30.2511 33.5003L30.2637 33.5315L30.2703 33.5474L30.2774 33.566L30.2801 33.5737C30.2943 33.6153 30.3091 33.6569 30.3234 33.6979C30.3387 33.7494 30.3529 33.8003 30.3672 33.8517C30.371 33.8643 30.3737 33.8764 30.3765 33.8884L30.3841 33.924L30.3989 33.9957C30.4362 34.1862 30.4537 34.3729 30.4613 34.5546C30.4685 34.7358 30.4641 34.9115 30.4548 35.0817C30.4378 35.4228 30.4006 35.7419 30.3699 36.0413C30.354 36.1902 30.3392 36.3353 30.3277 36.4738C30.3212 36.5438 30.3173 36.6112 30.3124 36.678C30.3091 36.7447 30.3058 36.8099 30.3026 36.8739C30.2938 37.129 30.3026 37.3611 30.3327 37.5637C30.3622 37.7662 30.4143 37.9386 30.4739 38.0755C30.4871 38.1111 30.5041 38.1417 30.5194 38.1718C30.5265 38.1871 30.5342 38.2014 30.5413 38.2156C30.5479 38.2298 30.555 38.2435 30.5632 38.2556C30.5785 38.2808 30.5928 38.3043 30.6059 38.3256C30.619 38.347 30.6305 38.3672 30.6431 38.3837C30.6919 38.451 30.7181 38.4866 30.7181 38.4866C30.7181 38.4866 30.7088 38.48 30.6919 38.4674C30.6743 38.4548 30.6481 38.4357 30.6147 38.4099C30.5971 38.3979 30.5802 38.3815 30.561 38.364C30.5418 38.3459 30.5205 38.3267 30.498 38.3054C30.4865 38.2955 30.4756 38.2835 30.4646 38.2709C30.4537 38.2583 30.4422 38.2457 30.4301 38.2326C30.4066 38.2052 30.3809 38.1773 30.3579 38.1439C30.2588 38.0169 30.1591 37.8428 30.0814 37.6293C30.043 37.5226 30.0085 37.406 29.9812 37.2828C29.974 37.2522 29.9675 37.2204 29.9604 37.1887C29.9549 37.1569 29.9494 37.1246 29.9434 37.0923C29.9313 37.0267 29.9237 36.9604 29.9138 36.892C29.8799 36.6188 29.8689 36.3243 29.8645 36.0178C29.8618 35.7118 29.8662 35.3932 29.8596 35.0735C29.8541 34.9137 29.8487 34.7528 29.8328 34.5946C29.83 34.5551 29.8246 34.5163 29.8202 34.4769C29.8163 34.4375 29.8098 34.3986 29.8038 34.3603L29.795 34.3022C29.7923 34.2825 29.7879 34.2639 29.7846 34.2448L29.7731 34.1878L29.7676 34.1594L29.7605 34.132L29.7468 34.0767L29.7397 34.0488C29.7375 34.0395 29.7353 34.0302 29.7326 34.0225C29.7222 33.9902 29.7123 33.9574 29.7025 33.9251C29.6871 33.884 29.6718 33.8435 29.6565 33.8025L29.6537 33.7959L29.6483 33.7833L29.6357 33.7543L29.6105 33.6957C29.5782 33.6174 29.5415 33.5397 29.5075 33.4614C29.4714 33.3837 29.4364 33.3054 29.3986 33.2277C29.2518 32.9162 29.0952 32.6059 28.9397 32.2977C28.7842 31.9895 28.6298 31.6835 28.4886 31.3808C28.3457 31.0786 28.2165 30.7797 28.1059 30.4907C28.0511 30.3456 27.9996 30.2039 27.9547 30.0648C27.9334 29.9947 27.912 29.9263 27.8912 29.8584C27.8721 29.7906 27.8529 29.7243 27.8354 29.6581C27.8195 29.5924 27.8036 29.5278 27.7883 29.4643C27.7746 29.4008 27.7609 29.339 27.7489 29.2782C27.7379 29.2174 27.7275 29.1578 27.7177 29.1003C27.7078 29.0423 27.7007 28.9859 27.693 28.9311C27.6848 28.877 27.681 28.8233 27.6755 28.7724C27.6728 28.7472 27.67 28.722 27.6678 28.6974C27.6651 28.6728 27.6645 28.6481 27.6629 28.6246C27.6602 28.577 27.6574 28.5315 27.6552 28.4883C27.6536 28.4451 27.6536 28.4035 27.653 28.364C27.653 28.3246 27.6514 28.2879 27.653 28.2524H27.6525ZM23.5433 24.8689C23.5728 24.9209 23.6144 24.9997 23.6571 25.1043C23.7009 25.2083 23.7458 25.3386 23.7864 25.4907C23.8274 25.6424 23.8636 25.8153 23.8986 26.0015C23.9161 26.0934 23.9337 26.1898 23.9523 26.2888C23.9566 26.3135 23.9616 26.3381 23.9665 26.3627L23.9698 26.3814L23.9714 26.3901V26.3923L23.9731 26.3972C23.9758 26.4098 23.9785 26.4224 23.9813 26.4355C23.9917 26.487 24.0026 26.539 24.0136 26.5921C24.0601 26.7908 24.1149 27.0037 24.1817 27.22C24.3147 27.6519 24.4976 28.0985 24.7073 28.5392C24.9154 28.9804 25.1486 29.4178 25.36 29.8382C25.4656 30.0484 25.5664 30.2537 25.6567 30.4524C25.7471 30.6505 25.8281 30.8405 25.8977 31.0184C25.9152 31.0627 25.9311 31.1071 25.9469 31.1503C25.9628 31.193 25.9792 31.2346 25.9929 31.2762C26.0203 31.3589 26.0482 31.4366 26.0707 31.5116C26.0931 31.586 26.115 31.655 26.1314 31.7207C26.149 31.7853 26.1654 31.845 26.1774 31.8997C26.2037 32.0081 26.2201 32.094 26.2306 32.1531C26.2393 32.2046 26.2442 32.2353 26.2453 32.2418C26.241 32.2353 26.2251 32.209 26.1988 32.1646C26.184 32.1389 26.1654 32.1072 26.144 32.0699C26.1221 32.0333 26.0975 31.9906 26.0696 31.9429C26.0417 31.8953 26.0104 31.8428 25.9765 31.7864C25.9595 31.7579 25.942 31.7284 25.9239 31.6977C25.9053 31.6671 25.8862 31.6359 25.8664 31.603C25.7876 31.4727 25.6973 31.3271 25.5976 31.1689C25.5724 31.1301 25.5472 31.0895 25.5215 31.0485C25.4952 31.0074 25.4689 30.9658 25.4416 30.9231C25.3874 30.8383 25.3315 30.7507 25.2735 30.6609C25.1579 30.4803 25.0358 30.2898 24.9115 30.09C24.6624 29.6904 24.404 29.2525 24.1839 28.7866C24.0738 28.554 23.9742 28.3142 23.8893 28.0728C23.8044 27.8314 23.7354 27.5878 23.6856 27.3481C23.6347 27.1088 23.6018 26.8757 23.5832 26.6485C23.5799 26.5948 23.5772 26.5412 23.5739 26.4892C23.5739 26.4761 23.5728 26.4629 23.5717 26.4498V26.4427C23.5717 26.4427 23.5706 26.4361 23.5717 26.4361V26.4268L23.5706 26.4071C23.5695 26.3803 23.569 26.354 23.5684 26.3283C23.5674 26.2248 23.5657 26.1263 23.5668 26.0316C23.5679 25.8433 23.5695 25.673 23.5668 25.5225C23.5646 25.3719 23.5564 25.2406 23.5454 25.1327C23.5438 25.1054 23.5405 25.0796 23.5372 25.0555C23.534 25.0315 23.5323 25.0085 23.529 24.9877C23.5219 24.9461 23.5181 24.9099 23.5126 24.8804C23.5033 24.8289 23.4978 24.7983 23.4967 24.7917C23.5011 24.7983 23.517 24.8245 23.5438 24.8689H23.5433ZM23.8006 34.1692C23.8521 34.3608 23.903 34.5513 23.9534 34.7391C24.0043 34.9252 24.0574 35.1064 24.1111 35.2826C24.2222 35.633 24.3448 35.962 24.4949 36.2548C24.514 36.2915 24.531 36.3293 24.5513 36.3643C24.571 36.3993 24.5901 36.4349 24.6099 36.47C24.6296 36.5044 24.6509 36.5378 24.6712 36.5712C24.6816 36.5882 24.6914 36.6052 24.7018 36.6216V36.6232L24.7029 36.6238L24.7073 36.6309L24.7155 36.6435L24.733 36.6692C24.744 36.6867 24.7555 36.7037 24.767 36.7207C24.7779 36.7371 24.7894 36.7551 24.7998 36.7694C24.8217 36.7995 24.8431 36.829 24.8639 36.8586C24.8853 36.8882 24.9094 36.9172 24.9318 36.9462C24.9543 36.9752 24.9767 37.0042 25.0002 37.0316C25.0911 37.1444 25.1897 37.2423 25.2833 37.337C25.3797 37.4279 25.475 37.5117 25.5697 37.5834C25.758 37.7301 25.9387 37.8385 26.0948 37.9167C26.1336 37.9364 26.1703 37.9561 26.2065 37.9704C26.2421 37.9863 26.2755 38.0016 26.3067 38.0153C26.339 38.0273 26.3685 38.0388 26.3959 38.0492C26.4227 38.0591 26.4474 38.07 26.4704 38.0771C26.5613 38.1067 26.61 38.1226 26.61 38.1226C26.61 38.1226 26.5585 38.1204 26.4622 38.1165C26.414 38.1127 26.3548 38.105 26.2842 38.0963C26.2152 38.0831 26.1342 38.0716 26.046 38.047C25.8686 38.0027 25.6562 37.9282 25.4262 37.8089C25.3978 37.7936 25.3676 37.7799 25.3392 37.7629C25.3107 37.7459 25.2811 37.7284 25.2516 37.7109C25.2368 37.7022 25.222 37.6934 25.2072 37.6841C25.1924 37.6748 25.1776 37.6649 25.1629 37.6556C25.1333 37.6359 25.1032 37.6162 25.0725 37.596C25.043 37.5752 25.0128 37.5533 24.9827 37.5314C24.9679 37.5199 24.9526 37.5089 24.9373 37.4974C24.9225 37.4859 24.9077 37.4739 24.8929 37.4618C24.8628 37.4378 24.8327 37.4131 24.802 37.3885C24.7725 37.3628 24.7429 37.3365 24.7128 37.3097C24.698 37.2965 24.6821 37.2834 24.6673 37.2692C24.6531 37.2549 24.6383 37.2407 24.6235 37.2265C24.5945 37.1974 24.5644 37.1695 24.5348 37.1383C24.5058 37.1066 24.4763 37.0748 24.4461 37.0425C24.4303 37.0261 24.4182 37.0113 24.4045 36.9955C24.3908 36.9801 24.3777 36.9648 24.364 36.9495L24.3438 36.9259L24.3339 36.9144L24.329 36.9084L24.3262 36.9051L24.3208 36.898C24.3071 36.8811 24.2939 36.8635 24.2802 36.846C24.2534 36.811 24.2249 36.7759 24.1987 36.7398C24.1729 36.7031 24.1466 36.6659 24.1204 36.6287C24.0935 36.592 24.07 36.5526 24.0443 36.5143C23.8433 36.2034 23.6763 35.8525 23.5334 35.4857C23.4611 35.3023 23.3971 35.114 23.3352 34.9252C23.3045 34.8305 23.2739 34.7358 23.2432 34.64C23.2147 34.5453 23.1857 34.45 23.1567 34.3542C23.0395 33.9733 22.9251 33.5928 22.7866 33.231C22.648 32.8697 22.4865 32.5254 22.2845 32.2188C22.2598 32.1805 22.2347 32.1466 22.21 32.1104C22.1881 32.076 22.1536 32.0344 22.1246 31.9955L22.0802 31.9364L22.0392 31.8849C22.0085 31.8461 21.9779 31.8077 21.9477 31.7694C21.8251 31.6156 21.7008 31.4601 21.5864 31.2959C21.5289 31.2138 21.473 31.1306 21.4199 31.0458C21.4068 31.0244 21.3936 31.0031 21.3805 30.9817C21.3674 30.9593 21.3548 30.9363 21.3416 30.9138L21.3318 30.8974L21.3241 30.8821L21.3077 30.8514L21.2891 30.8175L21.2721 30.7825C21.179 30.5974 21.1111 30.4075 21.0679 30.2208C20.9797 29.8469 20.9731 29.4972 20.9808 29.1862C20.9835 29.108 20.9868 29.0319 20.9907 28.958C20.9945 28.883 20.9983 28.8146 21.0033 28.7428C21.0137 28.6016 21.0246 28.4686 21.0394 28.3438C21.0673 28.0942 21.1013 27.8779 21.1347 27.7011C21.1675 27.5249 21.1993 27.3875 21.2223 27.2939C21.2332 27.2468 21.2431 27.2112 21.2491 27.1877C21.2557 27.1636 21.2589 27.151 21.2589 27.151C21.2589 27.151 21.26 27.2025 21.2617 27.2982C21.2633 27.394 21.2666 27.5342 21.2721 27.7121C21.2787 27.8894 21.2874 28.1046 21.3049 28.3498C21.3137 28.4724 21.3225 28.6022 21.3362 28.739C21.3422 28.808 21.3493 28.878 21.3559 28.9503C21.3624 29.022 21.3706 29.0954 21.3789 29.1693C21.3964 29.3176 21.4155 29.4698 21.4457 29.6225C21.4758 29.7752 21.5125 29.9285 21.5656 30.0774C21.6192 30.2263 21.6838 30.3714 21.7687 30.5071L21.7846 30.5323L21.801 30.558L21.8202 30.587L21.8295 30.6013L21.8388 30.6139C21.8503 30.6308 21.8618 30.6478 21.8733 30.6648C21.8859 30.6823 21.8985 30.6998 21.9111 30.7173C21.9625 30.7874 22.0167 30.858 22.0737 30.9281C22.1881 31.0677 22.3124 31.2094 22.4416 31.3556C22.4739 31.3923 22.5062 31.4295 22.5391 31.4667L22.5637 31.4946L22.5763 31.5089L22.5823 31.5154L22.5856 31.5193L22.5933 31.5286L22.6409 31.5855C22.6732 31.6244 22.7028 31.6588 22.7378 31.7065C22.7707 31.7514 22.8063 31.7968 22.8369 31.8417C23.0877 32.1947 23.2799 32.5883 23.4316 32.9846C23.5838 33.3815 23.696 33.7822 23.8006 34.1692ZM21.0826 22.7937C21.1177 22.8785 21.1505 22.9623 21.1807 23.0444C21.2907 23.3449 21.6083 23.5146 21.9204 23.4424C22.216 23.3728 22.4137 23.1095 22.4137 22.8243C22.4137 22.7532 22.4011 22.6809 22.3754 22.6098C22.3305 22.4871 22.2806 22.3618 22.2264 22.2348C22.6179 22.1707 22.9415 22.2507 23.0516 22.4718C23.2175 22.8052 22.8369 23.3318 22.2013 23.6487C21.5656 23.9651 20.9162 23.952 20.7497 23.6192C20.6364 23.3914 20.7782 23.0734 21.0826 22.7937ZM21.2058 11.3174C21.0142 11.8867 20.6167 12.2672 20.3183 12.167C20.1453 12.109 20.044 11.9026 20.0259 11.6289C20.0358 11.6344 20.0467 11.6404 20.0577 11.6464C20.2526 11.7559 20.4886 11.7608 20.6835 11.6519L20.6939 11.6459C21.1237 11.405 21.1215 10.7881 20.6923 10.545C20.6391 10.5149 20.5871 10.4876 20.5373 10.4624C20.4968 10.4421 20.4563 10.4219 20.4152 10.4027C20.6041 10.1651 20.8269 10.0425 21.012 10.1044C21.3104 10.2051 21.3975 10.7481 21.2058 11.3174ZM22.6645 11.2287C22.6705 11.2298 22.6957 11.2364 22.7389 11.2474C22.7877 11.2605 22.8599 11.2829 22.9481 11.3202C23.0362 11.3563 23.1414 11.4077 23.2564 11.4745C23.3713 11.5408 23.4967 11.6229 23.6292 11.7137C23.6944 11.7586 23.7623 11.8052 23.8329 11.8539C23.8504 11.8659 23.8679 11.8774 23.8855 11.8895L23.8986 11.8988L23.9046 11.9026L23.9057 11.9037L23.9096 11.9059C23.9183 11.9119 23.9276 11.9185 23.9369 11.9245C23.9742 11.9486 24.0119 11.9738 24.0503 11.9989C24.1965 12.0904 24.3569 12.1851 24.5261 12.2743C24.8639 12.4538 25.2406 12.6126 25.6294 12.7516C26.0181 12.8912 26.4189 13.0138 26.7967 13.1397C26.9856 13.2027 27.169 13.2656 27.3415 13.3308C27.514 13.3954 27.6766 13.4605 27.8244 13.5262C27.8617 13.5421 27.8978 13.5596 27.9328 13.5755C27.9679 13.5919 28.0024 13.6067 28.0352 13.6236C28.1015 13.6565 28.165 13.6866 28.2225 13.7183C28.2805 13.749 28.3353 13.7774 28.384 13.807C28.4338 13.8355 28.4787 13.8612 28.5187 13.8869C28.5992 13.9362 28.6605 13.9778 28.7021 14.0074C28.7383 14.0325 28.7591 14.0479 28.764 14.0517C28.7585 14.0506 28.7333 14.044 28.6901 14.0331C28.6654 14.0265 28.6359 14.0188 28.6008 14.009C28.5658 13.9997 28.5253 13.9893 28.4798 13.9772C28.4349 13.9652 28.3851 13.9526 28.3303 13.9389C28.3035 13.9318 28.2756 13.9247 28.246 13.917C28.217 13.9099 28.1863 13.9028 28.1551 13.8951C28.0303 13.8639 27.889 13.8305 27.7346 13.7955C27.6963 13.7873 27.6569 13.7774 27.6169 13.7687C27.5769 13.7594 27.5359 13.7506 27.4943 13.7413C27.411 13.7227 27.3251 13.7041 27.2369 13.6844C27.0595 13.6455 26.8728 13.6039 26.6784 13.5585C26.2908 13.4682 25.8741 13.3598 25.4635 13.2125C25.2587 13.1386 25.0555 13.0549 24.8606 12.9602C24.6657 12.8666 24.4784 12.7615 24.3054 12.6482C24.1319 12.5348 23.9731 12.4144 23.8258 12.2896C23.7918 12.2595 23.7584 12.2294 23.725 12.1998C23.7168 12.1922 23.7086 12.1851 23.7004 12.1774L23.6971 12.1747L23.696 12.1736L23.6916 12.1703L23.6856 12.1643L23.6736 12.1528C23.6571 12.138 23.6413 12.1221 23.6254 12.1068C23.563 12.046 23.5027 11.9874 23.4474 11.9305C23.3352 11.8167 23.2345 11.7137 23.143 11.6251C23.0516 11.5364 22.9683 11.4625 22.8972 11.4039C22.8796 11.3891 22.8621 11.3754 22.8462 11.3629C22.8298 11.3503 22.815 11.3377 22.8003 11.3273C22.7718 11.3065 22.7471 11.2873 22.7263 11.2731C22.6902 11.2479 22.6688 11.2326 22.6639 11.2287H22.6645ZM32.4051 17.4423C32.3744 17.4691 32.3345 17.4998 32.2868 17.5364C32.2375 17.5698 32.1822 17.6109 32.1143 17.6492C31.9818 17.7286 31.8099 17.8107 31.6008 17.8764C31.5745 17.8846 31.5482 17.8939 31.5208 17.901C31.4934 17.9081 31.4661 17.9152 31.4376 17.9224C31.4234 17.9256 31.4091 17.9295 31.3949 17.9333C31.3807 17.936 31.3659 17.9388 31.3511 17.9421C31.3215 17.9481 31.292 17.9541 31.2618 17.9607C31.2312 17.9656 31.2005 17.9705 31.1693 17.9749C31.1534 17.9777 31.1375 17.9798 31.1217 17.982C31.1058 17.9842 31.0899 17.9859 31.0735 17.9875C31.0412 17.9908 31.0089 17.9941 30.9755 17.9974C30.9421 17.9995 30.9087 18.0017 30.8747 18.0039C30.8578 18.0045 30.8408 18.0061 30.8238 18.0067C30.8063 18.0067 30.7893 18.0067 30.7718 18.0067C30.7368 18.0067 30.7023 18.0078 30.6656 18.0067C30.6294 18.005 30.5928 18.0039 30.5555 18.0023C30.5364 18.0017 30.5199 18.0006 30.5024 17.999C30.4854 17.9979 30.4679 17.9968 30.4504 17.9952L30.4247 17.9935L30.4115 17.9924H30.4049L30.4017 17.9919L30.394 17.9908C30.3754 17.9886 30.3573 17.9864 30.3387 17.9837C30.3015 17.9787 30.2637 17.9749 30.2264 17.9689C30.1887 17.9623 30.1509 17.9558 30.1131 17.9492C30.0748 17.9432 30.037 17.9339 29.9987 17.9262C29.6926 17.8594 29.3827 17.7494 29.0777 17.6147C28.925 17.5479 28.7744 17.4735 28.6244 17.3974C28.5494 17.3585 28.4743 17.3202 28.3988 17.2814C28.3249 17.2414 28.2504 17.2014 28.1759 17.1615C27.8781 17.0033 27.5824 16.8434 27.2829 16.7093C26.984 16.5758 26.6817 16.4663 26.3773 16.4028C26.3395 16.3946 26.3045 16.3896 26.2678 16.3825C26.2344 16.3749 26.1884 16.371 26.1479 16.3645L26.086 16.3557L26.0307 16.3491C25.9891 16.3448 25.948 16.3398 25.907 16.3349C25.7416 16.3163 25.5741 16.2971 25.4071 16.267C25.3238 16.2522 25.2406 16.2358 25.1579 16.2167C25.1371 16.2112 25.1169 16.2063 25.0961 16.2013C25.0747 16.1959 25.0534 16.1898 25.0325 16.1844L25.0167 16.18L25.0024 16.1756L24.9745 16.1674L24.9433 16.1575L24.9121 16.1471C24.7456 16.0913 24.5918 16.0185 24.4544 15.9326C24.1778 15.7612 23.9649 15.5554 23.7836 15.3644C23.7382 15.3162 23.6949 15.2686 23.6528 15.222C23.6106 15.175 23.5717 15.1312 23.5318 15.0852C23.454 14.9943 23.3812 14.9084 23.3149 14.8246C23.1824 14.6582 23.074 14.5082 22.9886 14.3829C22.9026 14.2575 22.8391 14.1557 22.797 14.0862C22.7756 14.0517 22.7603 14.0243 22.7499 14.0063C22.7422 13.9926 22.7373 13.9844 22.7351 13.9805C22.7411 13.986 22.7718 14.0156 22.8238 14.0654C22.8818 14.1218 22.9673 14.2039 23.0773 14.3068C23.1868 14.4097 23.321 14.5329 23.4776 14.6697C23.5564 14.7376 23.6396 14.8104 23.7294 14.8843C23.7743 14.9215 23.8203 14.9598 23.8674 14.9992C23.9145 15.0381 23.9627 15.077 24.0119 15.1164C24.1111 15.1947 24.2134 15.2746 24.3229 15.3479C24.4319 15.4218 24.5458 15.4919 24.6668 15.5494C24.7878 15.6063 24.9132 15.6545 25.0451 15.6851L25.0698 15.6912L25.095 15.6966L25.1234 15.7027L25.1382 15.7054L25.1508 15.7076C25.1678 15.7109 25.1848 15.7141 25.2023 15.7169C25.2198 15.7202 25.2379 15.7235 25.2559 15.7262C25.3288 15.7377 25.4032 15.7475 25.4793 15.7552C25.6315 15.7705 25.7903 15.7815 25.9557 15.7919C25.9968 15.7946 26.0384 15.7974 26.08 15.8001L26.1117 15.8023L26.1276 15.8034H26.1353L26.1397 15.8039L26.1495 15.805L26.2125 15.8105C26.2546 15.8149 26.2935 15.8176 26.3428 15.8253C26.3893 15.8324 26.4375 15.8384 26.483 15.8466C26.8443 15.909 27.1948 16.03 27.5222 16.1767C27.8507 16.324 28.1573 16.4964 28.4513 16.6661C28.597 16.7504 28.741 16.8341 28.8839 16.9162C29.0252 16.9978 29.1653 17.0744 29.3028 17.1478C29.5787 17.2912 29.8487 17.4155 30.1142 17.5014C30.1471 17.5118 30.1799 17.5239 30.2128 17.5332C30.2462 17.5425 30.2785 17.5523 30.3113 17.5616C30.3436 17.5704 30.3765 17.5775 30.4088 17.5857C30.4247 17.5895 30.4405 17.5934 30.4559 17.5978H30.4592L30.4657 17.5994L30.4783 17.6021L30.504 17.6076C30.521 17.6109 30.538 17.6147 30.555 17.618C30.5719 17.6213 30.5895 17.6251 30.6042 17.6273C30.6349 17.6322 30.6656 17.6377 30.6962 17.6426C30.7263 17.6476 30.7581 17.6503 30.7888 17.6547C30.82 17.6585 30.8506 17.6623 30.8808 17.6645C31.0029 17.6782 31.1206 17.6782 31.2328 17.6788C31.3451 17.6755 31.4524 17.6689 31.552 17.6558C31.7524 17.6306 31.9254 17.5874 32.0656 17.5419C32.1007 17.5304 32.1346 17.52 32.1647 17.5069C32.1959 17.4954 32.225 17.4844 32.2518 17.474C32.2786 17.462 32.3027 17.4511 32.3251 17.4412C32.3476 17.4308 32.3689 17.4226 32.3865 17.4133C32.4494 17.381 32.4872 17.3624 32.496 17.3585C32.4889 17.3651 32.4577 17.3936 32.4051 17.4417V17.4423ZM35.1499 15.1262C35.1318 15.1284 35.105 15.1328 35.0694 15.1377C35.0513 15.141 35.0316 15.141 35.0097 15.1421C34.9873 15.1432 34.9632 15.1438 34.9369 15.1448C34.9237 15.1448 34.9101 15.1449 34.8964 15.1438C34.8821 15.1438 34.8673 15.1421 34.8526 15.1416C34.8224 15.1394 34.7896 15.1377 34.7562 15.1317C34.621 15.1147 34.4572 15.0699 34.2831 14.9883C34.1961 14.9472 34.1063 14.898 34.0159 14.8405C33.9935 14.8263 33.9705 14.8115 33.9475 14.7967C33.925 14.7808 33.9026 14.765 33.8796 14.7491C33.8331 14.7168 33.7887 14.6817 33.7422 14.6467C33.5582 14.5033 33.3759 14.3336 33.1903 14.1524C33.0057 13.9707 32.8179 13.7769 32.6225 13.5891C32.5239 13.4966 32.4242 13.4036 32.3208 13.3182C32.295 13.2963 32.2687 13.2766 32.2425 13.2552C32.2167 13.2339 32.1899 13.2147 32.1631 13.195L32.1231 13.1654C32.11 13.1556 32.0957 13.1468 32.0826 13.1375L32.0415 13.1102L32.0213 13.0965L32.0005 13.0844L31.9594 13.0593L31.9386 13.0467C31.9315 13.0423 31.9249 13.0385 31.9183 13.0352C31.8931 13.022 31.8674 13.0083 31.8422 12.9947C31.8088 12.9793 31.7749 12.9646 31.7415 12.9492L31.736 12.9465L31.725 12.9421L31.7004 12.9323L31.65 12.9125C31.5838 12.8852 31.5153 12.86 31.4485 12.8337C31.3801 12.8085 31.3122 12.7828 31.2438 12.7587C30.9695 12.6596 30.6902 12.5671 30.4126 12.4757C30.135 12.3838 29.8596 12.2923 29.594 12.1955C29.3279 12.0997 29.0723 11.9978 28.833 11.8906C28.7136 11.8369 28.5981 11.7822 28.488 11.7258C28.4333 11.6968 28.3791 11.6683 28.3265 11.6398C28.2745 11.6108 28.223 11.5824 28.1737 11.5534C28.1245 11.5232 28.0763 11.4937 28.0292 11.4652C27.9832 11.4351 27.9378 11.4066 27.8945 11.3771C27.8513 11.347 27.8096 11.318 27.7691 11.2895C27.7286 11.2605 27.6908 11.2309 27.6536 11.2025C27.6164 11.1751 27.5819 11.1455 27.5479 11.1182C27.5315 11.1045 27.5145 11.0908 27.4986 11.0777C27.4822 11.0645 27.4674 11.0503 27.4521 11.0372C27.4225 11.0103 27.3935 10.9846 27.3661 10.96C27.3393 10.9348 27.3147 10.9096 27.2906 10.8866C27.267 10.8631 27.244 10.8423 27.2238 10.8198C27.2035 10.7985 27.1844 10.7777 27.1668 10.7591C27.1493 10.7399 27.1329 10.7229 27.1187 10.7065C27.1044 10.6901 27.0918 10.6748 27.0803 10.6611C27.0409 10.6135 27.0179 10.5855 27.0124 10.579C27.0185 10.5828 27.0497 10.6025 27.1022 10.637C27.117 10.6463 27.1334 10.6573 27.1515 10.6693C27.1701 10.6808 27.1898 10.6934 27.2117 10.7065C27.255 10.7333 27.3032 10.7645 27.3601 10.7968C27.4713 10.8636 27.6098 10.9381 27.7697 11.0174C27.9301 11.0974 28.1135 11.1789 28.3177 11.2589C28.5214 11.3393 28.7454 11.4171 28.9852 11.4926C29.225 11.5687 29.4807 11.642 29.7474 11.717C30.0151 11.7904 30.2927 11.8665 30.5763 11.9491C30.8599 12.0312 31.149 12.121 31.436 12.2239C31.5794 12.2759 31.7229 12.3301 31.8641 12.3903L31.9172 12.4128L31.9435 12.4237L31.9567 12.4292L31.972 12.4363L31.9786 12.4396C32.012 12.4555 32.0454 12.4719 32.0788 12.4878C32.1182 12.5097 32.1576 12.5316 32.1965 12.554C32.2069 12.5595 32.2156 12.5649 32.2239 12.5704L32.2501 12.5874L32.3022 12.6213C32.4379 12.7133 32.56 12.8146 32.6728 12.9191C32.7856 13.0237 32.888 13.131 32.9844 13.2388C33.1777 13.4534 33.3468 13.6669 33.5067 13.8645C33.5867 13.9636 33.6644 14.0588 33.7405 14.1486C33.7778 14.1946 33.8161 14.2373 33.8528 14.2805C33.8905 14.3221 33.9278 14.3632 33.9645 14.4037C34.1112 14.5619 34.2552 14.6954 34.3943 14.7989C34.5333 14.9029 34.6675 14.9752 34.7852 15.0211C34.8142 15.0348 34.8427 15.043 34.8695 15.0518C34.8832 15.0567 34.8964 15.0611 34.909 15.0649C34.9216 15.0693 34.9341 15.0737 34.9462 15.0759C34.9703 15.0819 34.9927 15.0874 35.0135 15.0923C35.0343 15.0978 35.053 15.1027 35.0705 15.1049C35.14 15.1158 35.1772 15.1219 35.1772 15.1219C35.1772 15.1219 35.1679 15.1235 35.1499 15.1262Z" fill="#2C110D"/>
</svg>
