<svg width="39" height="39" viewBox="0 0 39 39" fill="none" xmlns="http://www.w3.org/2000/svg">
<path d="M19.1328 19.8586H19.1471M25.4591 19.8586H25.4733M12.8066 19.8586H12.8208" stroke="white" stroke-width="2" stroke-linecap="round" stroke-linejoin="round"/>
<path d="M34.1673 19.8586C34.1673 28.1658 27.4329 34.9002 19.1257 34.9002C16.5478 34.9002 14.1214 34.2517 12.0007 33.109C9.04262 31.5151 7.05213 32.9969 5.29669 33.2627C5.03041 33.3031 4.7652 33.2064 4.57477 33.0161C4.28572 32.7269 4.2307 32.28 4.39036 31.9036C5.07935 30.2797 5.71197 27.2024 4.84938 24.6086C4.35283 23.1155 4.08398 21.5184 4.08398 19.8586C4.08398 11.5513 10.8184 4.81689 19.1257 4.81689C27.4329 4.81689 34.1673 11.5513 34.1673 19.8586Z" stroke="white" stroke-width="1.5" stroke-linecap="round" stroke-linejoin="round"/>
</svg>
