<svg width="30" height="29" viewBox="0 0 30 29" fill="none" xmlns="http://www.w3.org/2000/svg">
<g clip-path="url(#clip0_1057_729)">
<path d="M29.0683 5.96555C28.0593 6.41264 26.9754 6.71472 25.836 6.85126C27.0117 6.14776 27.8913 5.04053 28.3106 3.73618C27.206 4.39229 25.9971 4.85412 24.7364 5.1016C23.8886 4.19639 22.7657 3.59641 21.5419 3.39479C20.3182 3.19318 19.0622 3.40122 17.9688 3.98661C16.8754 4.572 16.0059 5.50199 15.4952 6.6322C14.9846 7.7624 14.8613 9.02958 15.1446 10.237C12.9064 10.1246 10.7168 9.54288 8.71801 8.52952C6.71919 7.51616 4.95577 6.09383 3.54221 4.35485C3.05888 5.1886 2.78096 6.15526 2.78096 7.18476C2.78042 8.11155 3.00865 9.02414 3.4454 9.84156C3.88214 10.659 4.51391 11.356 5.28463 11.8707C4.39079 11.8422 3.51668 11.6007 2.73504 11.1662V11.2387C2.73495 12.5386 3.18458 13.7984 4.00764 14.8045C4.8307 15.8106 5.97648 16.5009 7.25059 16.7584C6.42141 16.9828 5.55208 17.0158 4.70825 16.8551C5.06773 17.9735 5.76796 18.9515 6.7109 19.6523C7.65385 20.353 8.79232 20.7413 9.96692 20.7628C7.97297 22.3281 5.51045 23.1772 2.9755 23.1734C2.52646 23.1735 2.0778 23.1473 1.63184 23.0949C4.20495 24.7493 7.20025 25.6273 10.2593 25.6239C20.6147 25.6239 26.2758 17.0472 26.2758 9.60868C26.2758 9.36701 26.2698 9.12293 26.2589 8.88126C27.36 8.08494 28.3105 7.09884 29.0658 5.96918L29.0683 5.96555Z" fill="white"/>
</g>
<defs>
<clipPath id="clip0_1057_729">
<rect width="29" height="29" fill="white" transform="translate(0.5)"/>
</clipPath>
</defs>
</svg>
