<svg width="20" height="21" viewBox="0 0 20 21" fill="none" xmlns="http://www.w3.org/2000/svg">
<g clip-path="url(#clip0_6_803)">
<path d="M6.29766 18.2506C13.843 18.2506 17.9711 11.9979 17.9711 6.57716C17.9711 6.40138 17.9672 6.22169 17.9594 6.04591C18.7624 5.46516 19.4554 4.74582 20.0059 3.92169C19.258 4.25444 18.4639 4.47176 17.6508 4.56622C18.5069 4.05303 19.148 3.24684 19.4551 2.29708C18.6497 2.77441 17.7688 3.11112 16.8504 3.29279C16.2316 2.63524 15.4133 2.19987 14.5223 2.05399C13.6312 1.9081 12.7169 2.05982 11.9206 2.48569C11.1244 2.91156 10.4907 3.58786 10.1174 4.41004C9.7441 5.23221 9.65205 6.15446 9.85547 7.03419C8.2246 6.95235 6.62914 6.5287 5.17251 5.79069C3.71588 5.05269 2.4306 4.01681 1.4 2.75021C0.876192 3.65331 0.715907 4.72198 0.951718 5.73902C1.18753 6.75606 1.80174 7.64515 2.66953 8.2256C2.01805 8.20491 1.38084 8.02951 0.810547 7.71388V7.76466C0.809963 8.7124 1.13761 9.6311 1.73778 10.3646C2.33796 11.0981 3.17363 11.6011 4.10273 11.7881C3.49924 11.9532 2.86584 11.9773 2.25156 11.8584C2.51374 12.6735 3.02384 13.3864 3.71067 13.8976C4.3975 14.4088 5.22679 14.6928 6.08281 14.71C4.62955 15.8515 2.83434 16.4707 0.986328 16.4678C0.658599 16.4673 0.331192 16.4472 0.00585938 16.4076C1.88324 17.6121 4.06714 18.2518 6.29766 18.2506Z" fill="#FCFCFC"/>
</g>
<defs>
<clipPath id="clip0_6_803">
<rect width="20" height="20.2506" fill="white" transform="translate(0.00585938)"/>
</clipPath>
</defs>
</svg>
