<svg width="152" height="87" viewBox="0 0 152 87" fill="none" xmlns="http://www.w3.org/2000/svg">
<path d="M3.33165 72.0515C2.24473 72.0515 1.41772 71.8434 0.850634 71.4274C0.283545 71.0046 0 70.3806 0 69.5552C0 69.3942 0.0101266 69.2264 0.0303798 69.0519C0.050633 68.8708 0.0742617 68.6996 0.101266 68.5386C0.135021 68.3708 0.165401 68.2232 0.192405 68.0957C0.219409 67.9682 0.239663 67.8743 0.253165 67.8139L1.56962 68.0655C1.54937 68.1729 1.52236 68.3104 1.48861 68.4782C1.45485 68.646 1.42447 68.8238 1.39747 69.0117C1.37047 69.1929 1.35696 69.3673 1.35696 69.5351C1.35696 69.884 1.43123 70.1591 1.57975 70.3605C1.72827 70.5551 1.95443 70.6926 2.25823 70.7731C2.56203 70.847 2.94346 70.8839 3.40254 70.8839H6.10634V66.9986H7.4633V72.0515H3.33165ZM2.30886 67.371V66.2235H3.66583V67.371H2.30886ZM3.69621 67.371V66.2235H5.05317V67.371H3.69621Z" fill="white"/>
<path d="M10.3381 72.0515V70.8839H11.4926V72.0515H10.3381ZM8.99131 72.0515V64.9351H10.3381V72.0515H8.99131ZM11.4926 72.0515V70.8839C11.5736 70.8839 11.6276 70.9375 11.6546 71.0449C11.6816 71.1456 11.6951 71.2865 11.6951 71.4677C11.6951 71.6421 11.6816 71.7831 11.6546 71.8904C11.6276 71.9978 11.5736 72.0515 11.4926 72.0515Z" fill="white"/>
<path d="M11.4917 72.0515V70.8839H16.7474L16.1297 71.4073V69.5552C16.1297 69.1928 16.0892 68.911 16.0082 68.7097C15.9272 68.5017 15.7854 68.3574 15.5828 68.2769C15.3871 68.1897 15.1137 68.146 14.7626 68.146C14.4858 68.146 14.2124 68.1662 13.9423 68.2064C13.679 68.24 13.4731 68.2869 13.3246 68.3473L14.1651 67.5622C14.1246 67.7166 14.0841 67.9112 14.0436 68.146C14.0099 68.3809 13.9795 68.6325 13.9525 68.901C13.9255 69.1627 13.912 69.421 13.912 69.676C13.912 69.9109 13.9221 70.1558 13.9423 70.4108C13.9693 70.6658 13.9963 70.8906 14.0234 71.0852C14.0571 71.2798 14.0841 71.414 14.1044 71.4878L12.8183 71.8401C12.7913 71.7461 12.7575 71.5918 12.717 71.3771C12.6765 71.1623 12.6394 70.9073 12.6056 70.6121C12.5786 70.3168 12.5651 70.0048 12.5651 69.676C12.5651 69.3405 12.582 69.0184 12.6158 68.7097C12.6495 68.3943 12.6866 68.1125 12.7271 67.8642C12.7744 67.6092 12.8183 67.4045 12.8588 67.2502C13.0208 67.1898 13.274 67.1294 13.6183 67.069C13.9626 67.0086 14.344 66.9784 14.7626 66.9784C15.3702 66.9784 15.8731 67.0623 16.2715 67.2301C16.6765 67.3978 16.9769 67.6696 17.1727 68.0454C17.3753 68.4212 17.4765 68.9278 17.4765 69.5653V72.0515H11.4917ZM11.4917 72.0515C11.4107 72.0515 11.3567 71.9978 11.3297 71.8904C11.3027 71.7831 11.2892 71.6421 11.2892 71.4677C11.2892 71.2865 11.3027 71.1456 11.3297 71.0449C11.3567 70.9375 11.4107 70.8839 11.4917 70.8839V72.0515Z" fill="white"/>
<path d="M20.445 72.0515V70.8839H21.5994V72.0515H20.445ZM19.0981 72.0515V64.9351H20.445V72.0515H19.0981ZM21.5994 72.0515V70.8839C21.6804 70.8839 21.7344 70.9375 21.7614 71.0449C21.7884 71.1456 21.8019 71.2865 21.8019 71.4677C21.8019 71.6421 21.7884 71.7831 21.7614 71.8904C21.7344 71.9978 21.6804 72.0515 21.5994 72.0515Z" fill="white"/>
<path d="M26.8441 72.0515V70.8839H27.9175V72.0515H26.8441ZM21.5985 72.0515V70.8839H25.953L25.4973 71.2563V69.3942C25.4973 68.9915 25.369 68.6862 25.1124 68.4782C24.8627 68.2702 24.4643 68.1662 23.9175 68.1662C23.7622 68.1662 23.5496 68.1796 23.2795 68.2064C23.0095 68.2266 22.7158 68.2601 22.3985 68.3071L22.2669 67.2401C22.5572 67.173 22.8508 67.116 23.1479 67.069C23.4517 67.022 23.7487 66.9986 24.039 66.9986C24.5926 66.9986 25.0787 67.0959 25.4973 67.2905C25.9158 67.4784 26.2432 67.7501 26.4795 68.1058C26.7226 68.4614 26.8441 68.8909 26.8441 69.3942V72.0515H21.5985ZM21.5985 72.0515C21.5175 72.0515 21.4635 71.9978 21.4365 71.8904C21.4095 71.7831 21.396 71.6421 21.396 71.4677C21.396 71.2865 21.4095 71.1456 21.4365 71.0449C21.4635 70.9375 21.5175 70.8839 21.5985 70.8839V72.0515ZM27.9175 72.0515V70.8839C27.9918 70.8839 28.0424 70.9375 28.0694 71.0449C28.1032 71.1456 28.12 71.2865 28.12 71.4677C28.12 71.6421 28.1032 71.7831 28.0694 71.8904C28.0424 71.9978 27.9918 72.0515 27.9175 72.0515Z" fill="white"/>
<path d="M33.9026 72.0515V70.8839H34.976V72.0515H33.9026ZM27.9175 72.0515V70.8839H33.1735L32.5557 71.4073V69.5552C32.5557 69.1928 32.5152 68.911 32.4342 68.7097C32.3532 68.5017 32.2114 68.3574 32.0089 68.2769C31.8131 68.1897 31.5397 68.146 31.1886 68.146C30.9118 68.146 30.6384 68.1662 30.3684 68.2064C30.1051 68.24 29.8992 68.2869 29.7507 68.3473L30.5912 67.5622C30.5507 67.7166 30.5102 67.9112 30.4697 68.146C30.4359 68.3809 30.4055 68.6325 30.3785 68.901C30.3515 69.1627 30.338 69.421 30.338 69.676C30.338 69.9109 30.3481 70.1558 30.3684 70.4108C30.3954 70.6658 30.4224 70.8906 30.4494 71.0852C30.4832 71.2798 30.5102 71.414 30.5304 71.4878L29.2443 71.8401C29.2173 71.7461 29.1836 71.5918 29.1431 71.3771C29.1026 71.1623 29.0654 70.9073 29.0317 70.6121C29.0047 70.3168 28.9912 70.0048 28.9912 69.676C28.9912 69.3405 29.008 69.0184 29.0418 68.7097C29.0756 68.3943 29.1127 68.1125 29.1532 67.8642C29.2005 67.6092 29.2443 67.4045 29.2848 67.2502C29.4469 67.1898 29.7 67.1294 30.0443 67.069C30.3886 67.0086 30.7701 66.9784 31.1886 66.9784C31.7962 66.9784 32.2992 67.0623 32.6975 67.2301C33.1026 67.3978 33.403 67.6696 33.5988 68.0454C33.8013 68.4212 33.9026 68.9278 33.9026 69.5653V72.0515H27.9175ZM27.9175 72.0515C27.8365 72.0515 27.7827 71.9978 27.7557 71.8904C27.7287 71.7831 27.7152 71.6421 27.7152 71.4677C27.7152 71.2865 27.7287 71.1456 27.7557 71.0449C27.7827 70.9375 27.8365 70.8839 27.9175 70.8839V72.0515ZM34.976 72.0515V70.8839C35.057 70.8839 35.111 70.9375 35.138 71.0449C35.165 71.1456 35.1785 71.2865 35.1785 71.4677C35.1785 71.6421 35.165 71.7831 35.138 71.8904C35.111 71.9978 35.057 72.0515 34.976 72.0515Z" fill="white"/>
<path d="M37.4799 72.0515V70.8839H38.5432V72.0515H37.4799ZM36.123 72.0515V64.9351H37.4799V72.0515H36.123ZM34.9787 72.0515V70.8839H36.123V72.0515H34.9787ZM34.9787 72.0515C34.8977 72.0515 34.8437 71.9978 34.8167 71.8904C34.7896 71.7831 34.7761 71.6421 34.7761 71.4677C34.7761 71.2865 34.7896 71.1456 34.8167 71.0449C34.8437 70.9375 34.8977 70.8839 34.9787 70.8839V72.0515ZM38.5432 72.0515V70.8839C38.6242 70.8839 38.6783 70.9375 38.7053 71.0449C38.7323 71.1456 38.7458 71.2865 38.7458 71.4677C38.7458 71.6421 38.7323 71.7831 38.7053 71.8904C38.6783 71.9978 38.6242 72.0515 38.5432 72.0515Z" fill="white"/>
<path d="M39.6831 72.0515V64.9351H41.0401V72.0515H39.6831ZM38.5388 72.0515V70.8839H39.6831V72.0515H38.5388ZM38.5388 72.0515C38.4578 72.0515 38.4038 71.9978 38.3768 71.8904C38.3498 71.7831 38.3363 71.6421 38.3363 71.4677C38.3363 71.2865 38.3498 71.1456 38.3768 71.0449C38.4038 70.9375 38.4578 70.8839 38.5388 70.8839V72.0515Z" fill="white"/>
<path d="M53.791 72.0515V70.8839H54.8543V72.0515H53.791ZM47.8366 72.0515C46.7497 72.0515 45.9227 71.8434 45.3556 71.4274C44.7885 71.0046 44.5049 70.3806 44.5049 69.5552C44.5049 69.3942 44.5151 69.2264 44.5353 69.0519C44.5556 68.8708 44.5792 68.6996 44.6062 68.5386C44.64 68.3708 44.6704 68.2232 44.6974 68.0957C44.7244 67.9682 44.7446 67.8743 44.7581 67.8139L46.0746 68.0655C46.0543 68.1729 46.0273 68.3104 45.9936 68.4782C45.9598 68.646 45.9294 68.8238 45.9024 69.0117C45.8754 69.1929 45.8619 69.3673 45.8619 69.5351C45.8619 69.884 45.9362 70.1591 46.0847 70.3605C46.2332 70.5551 46.4594 70.6926 46.7632 70.7731C47.067 70.847 47.4484 70.8839 47.9075 70.8839H52.8391L52.4341 71.2362V67.8743L52.7784 68.1662H51.5024C51.1986 68.1662 50.9623 68.2031 50.7936 68.2769C50.6315 68.3507 50.5134 68.4883 50.4391 68.6896C50.3716 68.8842 50.3379 69.1627 50.3379 69.525C50.3379 69.9209 50.3716 70.2162 50.4391 70.4108C50.5134 70.5987 50.6315 70.7262 50.7936 70.7933C50.9623 70.8537 51.1986 70.8839 51.5024 70.8839V71.9307C50.9218 71.9307 50.4459 71.8502 50.0746 71.6891C49.71 71.5281 49.4366 71.2731 49.2543 70.9241C49.0788 70.5685 48.991 70.1021 48.991 69.525C48.991 68.9748 49.0788 68.5117 49.2543 68.136C49.4366 67.7602 49.71 67.4784 50.0746 67.2905C50.4459 67.0959 50.9218 66.9986 51.5024 66.9986H53.791V72.0515H47.8366ZM54.8543 72.0515V70.8839C54.9353 70.8839 54.9893 70.9375 55.0164 71.0449C55.0434 71.1456 55.0569 71.2865 55.0569 71.4677C55.0569 71.6421 55.0434 71.7831 55.0164 71.8904C54.9893 71.9978 54.9353 72.0515 54.8543 72.0515ZM50.9657 66.0725V64.9251H52.3227V66.0725H50.9657Z" fill="white"/>
<path d="M54.8561 72.0515V70.8839H57.0029C57.2932 70.8839 57.5734 70.8302 57.8434 70.7228C58.1135 70.6087 58.3599 70.4611 58.5827 70.2799C58.8122 70.092 59.0113 69.8874 59.1801 69.6659C59.3557 69.4378 59.4907 69.2063 59.5852 68.9714C59.6865 68.7365 59.7371 68.5151 59.7371 68.3071V67.6629L60.3852 68.7298C60.0341 68.5419 59.6763 68.401 59.3118 68.3071C58.9472 68.2131 58.5995 68.1662 58.2687 68.1662C57.9447 68.1662 57.597 68.2131 57.2257 68.3071C56.8611 68.401 56.5067 68.5419 56.1624 68.7298L56.8105 67.6629V68.3071C56.8105 68.5151 56.8578 68.7365 56.9523 68.9714C57.0535 69.2063 57.1886 69.4378 57.3573 69.6659C57.5261 69.8874 57.7253 70.092 57.9548 70.2799C58.1843 70.4611 58.4341 70.6087 58.7042 70.7228C58.9742 70.8302 59.251 70.8839 59.5346 70.8839H61.6206V72.0515H59.9599C59.4333 72.0515 58.9405 71.9676 58.4814 71.7998C58.0223 71.6321 57.6071 71.4106 57.2358 71.1355C56.8645 70.8537 56.5438 70.5483 56.2738 70.2195C56.0105 69.884 55.808 69.5519 55.6662 69.223C55.5244 68.8875 55.4535 68.5822 55.4535 68.3071V67.7334C55.7438 67.5723 56.051 67.4381 56.3751 67.3307C56.7059 67.2234 57.0333 67.1428 57.3573 67.0891C57.6881 67.0288 57.9919 66.9986 58.2687 66.9986C58.5523 66.9986 58.8561 67.0288 59.1801 67.0891C59.5042 67.1428 59.8282 67.2234 60.1523 67.3307C60.4831 67.4381 60.7936 67.5723 61.0839 67.7334V68.3071C61.0839 68.5822 61.013 68.8875 60.8713 69.223C60.7295 69.5519 60.5236 69.884 60.2535 70.2195C59.9903 70.5483 59.673 70.8537 59.3016 71.1355C58.9303 71.4106 58.5151 71.6321 58.0561 71.7998C57.597 71.9676 57.1042 72.0515 56.5776 72.0515H54.8561ZM54.8561 72.0515C54.7751 72.0515 54.7211 71.9978 54.694 71.8904C54.667 71.7831 54.6535 71.6421 54.6535 71.4677C54.6535 71.2865 54.667 71.1456 54.694 71.0449C54.7211 70.9375 54.7751 70.8839 54.8561 70.8839V72.0515ZM61.6206 72.0515V70.8839C61.7016 70.8839 61.7557 70.9375 61.7827 71.0449C61.8097 71.1456 61.8232 71.2865 61.8232 71.4677C61.8232 71.6421 61.8097 71.7831 61.7827 71.8904C61.7557 71.9978 61.7016 72.0515 61.6206 72.0515Z" fill="white"/>
<path d="M70.1165 72.0515V70.8839H71.1899V72.0515H70.1165ZM67.5748 72.0515C67.298 72.0515 67.0212 72.0011 66.7444 71.9005C66.4743 71.7931 66.2245 71.6354 65.995 71.4274L66.8254 70.5718C66.9604 70.6792 67.0853 70.7597 67.2001 70.8134C67.3216 70.8604 67.4465 70.8839 67.5748 70.8839H69.4684L68.7697 71.518V69.2834C68.7697 69.1761 68.7562 69.015 68.7292 68.8003C68.7089 68.5789 68.6752 68.3306 68.6279 68.0554C68.5874 67.7736 68.5368 67.4884 68.476 67.1999L69.8127 66.9986C69.86 67.2401 69.9039 67.5119 69.9444 67.8139C69.9916 68.1091 70.0321 68.391 70.0659 68.6594C70.0997 68.9211 70.1165 69.1291 70.1165 69.2834V72.0515H67.5748ZM61.6206 72.0515V70.8839H63.0988L62.795 71.1959V68.0253H64.152V72.0515H61.6206ZM64.152 72.0515V70.8839H64.9722C65.1882 70.8839 65.3537 70.8537 65.4684 70.7933C65.5832 70.7262 65.6608 70.5953 65.7013 70.4007C65.7486 70.1994 65.7722 69.9008 65.7722 69.5049V67.522H67.1292V69.5049C67.1292 70.1021 67.0515 70.5886 66.8963 70.9644C66.7477 71.3402 66.5148 71.6153 66.1975 71.7898C65.8802 71.9642 65.4718 72.0515 64.9722 72.0515H64.152ZM61.6206 72.0515C61.5396 72.0515 61.4853 71.9978 61.4583 71.8904C61.4313 71.7831 61.4178 71.6421 61.4178 71.4677C61.4178 71.2865 61.4313 71.1456 61.4583 71.0449C61.4853 70.9375 61.5396 70.8839 61.6206 70.8839V72.0515ZM71.1899 72.0515V70.8839C71.271 70.8839 71.325 70.9375 71.352 71.0449C71.379 71.1456 71.3925 71.2865 71.3925 71.4677C71.3925 71.6421 71.379 71.7831 71.352 71.8904C71.325 71.9978 71.271 72.0515 71.1899 72.0515Z" fill="white"/>
<path d="M71.1931 72.0515V70.8839H76.4488L75.8311 71.4073V69.5552C75.8311 69.1928 75.7906 68.911 75.7096 68.7097C75.6286 68.5017 75.4868 68.3574 75.2843 68.2769C75.0885 68.1897 74.8151 68.146 74.464 68.146C74.1872 68.146 73.9138 68.1662 73.6437 68.2064C73.3805 68.24 73.1745 68.2869 73.026 68.3473L73.8665 67.5622C73.826 67.7166 73.7855 67.9112 73.745 68.146C73.7113 68.3809 73.6809 68.6325 73.6539 68.901C73.6269 69.1627 73.6134 69.421 73.6134 69.676C73.6134 69.9109 73.6235 70.1558 73.6437 70.4108C73.6707 70.6658 73.6978 70.8906 73.7248 71.0852C73.7585 71.2798 73.7855 71.414 73.8058 71.4878L72.5197 71.8401C72.4927 71.7461 72.4589 71.5918 72.4184 71.3771C72.3779 71.1623 72.3408 70.9073 72.307 70.6121C72.28 70.3168 72.2665 70.0048 72.2665 69.676C72.2665 69.3405 72.2834 69.0184 72.3172 68.7097C72.3509 68.3943 72.3881 68.1125 72.4286 67.8642C72.4758 67.6092 72.5197 67.4045 72.5602 67.2502C72.7222 67.1898 72.9754 67.1294 73.3197 67.069C73.664 67.0086 74.0454 66.9784 74.464 66.9784C75.0716 66.9784 75.5746 67.0623 75.9729 67.2301C76.3779 67.3978 76.6784 67.6696 76.8741 68.0454C77.0767 68.4212 77.1779 68.9278 77.1779 69.5653V72.0515H71.1931ZM71.1931 72.0515C71.1121 72.0515 71.0581 71.9978 71.0311 71.8904C71.0041 71.7831 70.9906 71.6421 70.9906 71.4677C70.9906 71.2865 71.0041 71.1456 71.0311 71.0449C71.0581 70.9375 71.1121 70.8839 71.1931 70.8839V72.0515Z" fill="white"/>
<path d="M80.4782 74.5477C80.3905 74.5477 80.296 74.5444 80.1947 74.5377C80.0934 74.5309 79.9888 74.5209 79.8808 74.5075L79.9314 73.36C80.0394 73.3667 80.1407 73.3734 80.2352 73.3801C80.3365 73.3868 80.4107 73.3902 80.458 73.3902C80.7213 73.3902 80.9306 73.2862 81.0858 73.0781C81.2479 72.8701 81.3289 72.5782 81.3289 72.2024V66.9986H82.6858V72.2024C82.6858 72.6588 82.5913 73.0647 82.4023 73.4204C82.22 73.776 81.9635 74.0512 81.6327 74.2458C81.3019 74.4471 80.9171 74.5477 80.4782 74.5477Z" fill="white"/>
<path d="M85.625 72.0515V70.8839H86.7794V72.0515H85.625ZM84.2782 72.0515V64.9351H85.625V72.0515H84.2782ZM86.7794 72.0515V70.8839C86.8605 70.8839 86.9145 70.9375 86.9415 71.0449C86.9685 71.1456 86.982 71.2865 86.982 71.4677C86.982 71.6421 86.9685 71.7831 86.9415 71.8904C86.9145 71.9978 86.8605 72.0515 86.7794 72.0515Z" fill="white"/>
<path d="M95.2748 72.0515V70.8839H96.3482V72.0515H95.2748ZM92.733 72.0515C92.4562 72.0515 92.1794 72.0011 91.9026 71.9005C91.6326 71.7931 91.3828 71.6354 91.1533 71.4274L91.9836 70.5718C92.1187 70.6792 92.2435 70.7597 92.3583 70.8134C92.4798 70.8604 92.6047 70.8839 92.733 70.8839H94.6267L93.9279 71.518V69.2834C93.9279 69.1761 93.9144 69.015 93.8874 68.8003C93.8672 68.5789 93.8334 68.3306 93.7862 68.0554C93.7457 67.7736 93.695 67.4884 93.6343 67.1999L94.971 66.9986C95.0182 67.2401 95.0621 67.5119 95.1026 67.8139C95.1499 68.1091 95.1904 68.391 95.2242 68.6594C95.2579 68.9211 95.2748 69.1291 95.2748 69.2834V72.0515H92.733ZM86.7786 72.0515V70.8839H88.257L87.9533 71.1959V68.0253H89.3102V72.0515H86.7786ZM89.3102 72.0515V70.8839H90.1305C90.3465 70.8839 90.5119 70.8537 90.6267 70.7933C90.7414 70.7262 90.8191 70.5953 90.8596 70.4007C90.9068 70.1994 90.9305 69.9008 90.9305 69.5049V67.522H92.2874V69.5049C92.2874 70.1021 92.2098 70.5886 92.0545 70.9644C91.906 71.3402 91.6731 71.6153 91.3558 71.7898C91.0385 71.9642 90.6301 72.0515 90.1305 72.0515H89.3102ZM86.7786 72.0515C86.6976 72.0515 86.6435 71.9978 86.6165 71.8904C86.5895 71.7831 86.576 71.6421 86.576 71.4677C86.576 71.2865 86.5895 71.1456 86.6165 71.0449C86.6435 70.9375 86.6976 70.8839 86.7786 70.8839V72.0515ZM96.3482 72.0515V70.8839C96.4292 70.8839 96.4832 70.9375 96.5102 71.0449C96.5372 71.1456 96.5507 71.2865 96.5507 71.4677C96.5507 71.6421 96.5372 71.7831 96.5102 71.8904C96.4832 71.9978 96.4292 72.0515 96.3482 72.0515ZM91.0317 64.5325V63.526H92.2064V64.5325H91.0317ZM90.0495 66.0725V64.9251H91.3558V66.0725H90.0495ZM91.8925 66.0725V64.9251H93.1988V66.0725H91.8925Z" fill="white"/>
<path d="M99.3083 72.0515V70.8839H100.574V72.0515H99.3083ZM100.574 72.0515V70.8839C100.655 70.8839 100.709 70.9375 100.736 71.0449C100.763 71.1456 100.777 71.2865 100.777 71.4677C100.777 71.6421 100.763 71.7831 100.736 71.8904C100.709 71.9978 100.655 72.0515 100.574 72.0515ZM96.3514 72.0515V70.8839H98.7514L97.9615 71.5381V66.9986H99.3083V72.0515H96.3514ZM96.3514 72.0515C96.2703 72.0515 96.2163 71.9978 96.1893 71.8904C96.1623 71.7831 96.1488 71.6421 96.1488 71.4677C96.1488 71.2865 96.1623 71.1456 96.1893 71.0449C96.2163 70.9375 96.2703 70.8839 96.3514 70.8839V72.0515ZM96.7564 66.3946V65.2472H98.1134V66.3946H96.7564ZM98.1438 66.3946V65.2472H99.5007V66.3946H98.1438Z" fill="white"/>
<path d="M109.07 72.0515V70.8839H110.144V72.0515H109.07ZM106.529 72.0515C106.252 72.0515 105.975 72.0011 105.698 71.9005C105.428 71.7931 105.178 71.6354 104.949 71.4274L105.779 70.5718C105.914 70.6792 106.039 70.7597 106.154 70.8134C106.275 70.8604 106.4 70.8839 106.529 70.8839H108.422L107.723 71.518V69.2834C107.723 69.1761 107.71 69.015 107.683 68.8003C107.663 68.5789 107.629 68.3306 107.582 68.0554C107.541 67.7736 107.491 67.4884 107.43 67.1999L108.766 66.9986C108.814 67.2401 108.858 67.5119 108.898 67.8139C108.945 68.1091 108.986 68.391 109.02 68.6594C109.053 68.9211 109.07 69.1291 109.07 69.2834V72.0515H106.529ZM100.574 72.0515V70.8839H102.053L101.749 71.1959V68.0253H103.106V72.0515H100.574ZM103.106 72.0515V70.8839H103.926C104.142 70.8839 104.307 70.8537 104.422 70.7933C104.537 70.7262 104.615 70.5953 104.655 70.4007C104.702 70.1994 104.726 69.9008 104.726 69.5049V67.522H106.083V69.5049C106.083 70.1021 106.005 70.5886 105.85 70.9644C105.701 71.3402 105.469 71.6153 105.151 71.7898C104.834 71.9642 104.426 72.0515 103.926 72.0515H103.106ZM100.574 72.0515C100.493 72.0515 100.439 71.9978 100.412 71.8904C100.385 71.7831 100.372 71.6421 100.372 71.4677C100.372 71.2865 100.385 71.1456 100.412 71.0449C100.439 70.9375 100.493 70.8839 100.574 70.8839V72.0515ZM110.144 72.0515V70.8839C110.225 70.8839 110.279 70.9375 110.306 71.0449C110.333 71.1456 110.346 71.2865 110.346 71.4677C110.346 71.6421 110.333 71.7831 110.306 71.8904C110.279 71.9978 110.225 72.0515 110.144 72.0515Z" fill="white"/>
<path d="M116.132 72.0515V70.8839H117.205V72.0515H116.132ZM110.147 72.0515V70.8839H115.403L114.785 71.4073V69.5552C114.785 69.1928 114.744 68.911 114.663 68.7097C114.582 68.5017 114.441 68.3574 114.238 68.2769C114.042 68.1897 113.769 68.146 113.418 68.146C113.141 68.146 112.868 68.1662 112.598 68.2064C112.334 68.24 112.128 68.2869 111.98 68.3473L112.82 67.5622C112.78 67.7166 112.739 67.9112 112.699 68.146C112.665 68.3809 112.635 68.6325 112.608 68.901C112.581 69.1627 112.567 69.421 112.567 69.676C112.567 69.9109 112.577 70.1558 112.598 70.4108C112.625 70.6658 112.652 70.8906 112.679 71.0852C112.712 71.2798 112.739 71.414 112.76 71.4878L111.473 71.8401C111.446 71.7461 111.413 71.5918 111.372 71.3771C111.332 71.1623 111.295 70.9073 111.261 70.6121C111.234 70.3168 111.22 70.0048 111.22 69.676C111.22 69.3405 111.237 69.0184 111.271 68.7097C111.305 68.3943 111.342 68.1125 111.382 67.8642C111.43 67.6092 111.473 67.4045 111.514 67.2502C111.676 67.1898 111.929 67.1294 112.273 67.069C112.618 67.0086 112.999 66.9784 113.418 66.9784C114.025 66.9784 114.528 67.0623 114.927 67.2301C115.332 67.3978 115.632 67.6696 115.828 68.0454C116.03 68.4212 116.132 68.9278 116.132 69.5653V72.0515H110.147ZM110.147 72.0515C110.066 72.0515 110.012 71.9978 109.985 71.8904C109.958 71.7831 109.944 71.6421 109.944 71.4677C109.944 71.2865 109.958 71.1456 109.985 71.0449C110.012 70.9375 110.066 70.8839 110.147 70.8839V72.0515ZM117.205 72.0515V70.8839C117.286 70.8839 117.34 70.9375 117.367 71.0449C117.394 71.1456 117.408 71.2865 117.408 71.4677C117.408 71.6421 117.394 71.7831 117.367 71.8904C117.34 71.9978 117.286 72.0515 117.205 72.0515Z" fill="white"/>
<path d="M118.352 72.0515V64.9351H119.709V72.0515H118.352ZM117.208 72.0515V70.8839H118.352V72.0515H117.208ZM117.208 72.0515C117.127 72.0515 117.073 71.9978 117.046 71.8904C117.019 71.7831 117.005 71.6421 117.005 71.4677C117.005 71.2865 117.019 71.1456 117.046 71.0449C117.073 70.9375 117.127 70.8839 117.208 70.8839V72.0515Z" fill="white"/>
<path d="M121.333 72.0515V64.9351H122.68V72.0515H121.333Z" fill="white"/>
<path d="M133.67 72.0515V70.8839H134.733V72.0515H133.67ZM129.538 72.0515C128.451 72.0515 127.624 71.8434 127.057 71.4274C126.49 71.0046 126.207 70.3806 126.207 69.5552C126.207 69.3942 126.217 69.2264 126.237 69.0519C126.257 68.8708 126.281 68.6996 126.308 68.5386C126.342 68.3708 126.372 68.2232 126.399 68.0957C126.426 67.9682 126.446 67.8743 126.46 67.8139L127.776 68.0655C127.756 68.1729 127.729 68.3104 127.695 68.4782C127.661 68.646 127.631 68.8238 127.604 69.0117C127.577 69.1929 127.564 69.3673 127.564 69.5351C127.564 69.884 127.638 70.1591 127.786 70.3605C127.935 70.5551 128.161 70.6926 128.465 70.7731C128.769 70.847 129.15 70.8839 129.609 70.8839H132.313V66.9986H133.67V72.0515H129.538ZM134.733 72.0515V70.8839C134.814 70.8839 134.868 70.9375 134.895 71.0449C134.922 71.1456 134.936 71.2865 134.936 71.4677C134.936 71.6421 134.922 71.7831 134.895 71.8904C134.868 71.9978 134.814 72.0515 134.733 72.0515ZM129.336 74.1954V73.048H130.693V74.1954H129.336Z" fill="white"/>
<path d="M137.689 72.0515V70.8839H138.954V72.0515H137.689ZM138.954 72.0515V70.8839C139.035 70.8839 139.089 70.9375 139.116 71.0449C139.143 71.1456 139.157 71.2865 139.157 71.4677C139.157 71.6421 139.143 71.7831 139.116 71.8904C139.089 71.9978 139.035 72.0515 138.954 72.0515ZM134.732 72.0515V70.8839H137.132L136.342 71.5381V66.9986H137.689V72.0515H134.732ZM134.732 72.0515C134.651 72.0515 134.597 71.9978 134.57 71.8904C134.543 71.7831 134.529 71.6421 134.529 71.4677C134.529 71.2865 134.543 71.1456 134.57 71.0449C134.597 70.9375 134.651 70.8839 134.732 70.8839V72.0515ZM135.137 66.3946V65.2472H136.494V66.3946H135.137ZM136.524 66.3946V65.2472H137.881V66.3946H136.524Z" fill="white"/>
<path d="M144.949 72.0515V70.8839H146.012V72.0515H144.949ZM138.954 72.0515V70.8839H144.038L143.592 71.2462V69.8773C143.592 69.5284 143.555 69.2499 143.481 69.0419C143.407 68.8338 143.292 68.6829 143.137 68.5889C142.988 68.495 142.799 68.448 142.569 68.448H140.352L139.511 67.2401L140.028 66.2738C140.088 66.1598 140.156 66.0356 140.23 65.9014C140.304 65.7672 140.402 65.6062 140.524 65.4183C140.645 65.2304 140.801 64.9955 140.99 64.7137L142.124 65.3478C141.948 65.6095 141.807 65.8276 141.699 66.0021C141.591 66.1698 141.499 66.3175 141.425 66.445C141.351 66.5725 141.283 66.7 141.223 66.8274L140.818 67.5824L140.615 67.2804H142.569C143.002 67.2804 143.369 67.3509 143.673 67.4918C143.977 67.6327 144.22 67.8273 144.402 68.0756C144.591 68.3239 144.73 68.6023 144.818 68.911C144.905 69.2197 144.949 69.5418 144.949 69.8773V72.0515H138.954ZM138.954 72.0515C138.873 72.0515 138.819 71.9978 138.792 71.8904C138.765 71.7831 138.752 71.6421 138.752 71.4677C138.752 71.2865 138.765 71.1456 138.792 71.0449C138.819 70.9375 138.873 70.8839 138.954 70.8839V72.0515ZM146.012 72.0515V70.8839C146.094 70.8839 146.148 70.9375 146.175 71.0449C146.202 71.1456 146.215 71.2865 146.215 71.4677C146.215 71.6421 146.202 71.7831 146.175 71.8904C146.148 71.9978 146.094 72.0515 146.012 72.0515Z" fill="white"/>
<path d="M146.015 72.0515V70.8839H151.271L150.653 71.4073V69.5552C150.653 69.1928 150.613 68.911 150.532 68.7097C150.451 68.5017 150.309 68.3574 150.106 68.2769C149.911 68.1897 149.637 68.146 149.286 68.146C149.009 68.146 148.736 68.1662 148.466 68.2064C148.203 68.24 147.997 68.2869 147.848 68.3473L148.689 67.5622C148.648 67.7166 148.608 67.9112 148.567 68.146C148.533 68.3809 148.503 68.6325 148.476 68.901C148.449 69.1627 148.435 69.421 148.435 69.676C148.435 69.9109 148.446 70.1558 148.466 70.4108C148.493 70.6658 148.52 70.8906 148.547 71.0852C148.581 71.2798 148.608 71.414 148.628 71.4878L147.342 71.8401C147.315 71.7461 147.281 71.5918 147.24 71.3771C147.2 71.1623 147.163 70.9073 147.129 70.6121C147.102 70.3168 147.089 70.0048 147.089 69.676C147.089 69.3405 147.105 69.0184 147.139 68.7097C147.173 68.3943 147.21 68.1125 147.251 67.8642C147.298 67.6092 147.342 67.4045 147.382 67.2502C147.544 67.1898 147.797 67.1294 148.142 67.069C148.486 67.0086 148.867 66.9784 149.286 66.9784C149.894 66.9784 150.397 67.0623 150.795 67.2301C151.2 67.3978 151.5 67.6696 151.696 68.0454C151.899 68.4212 152 68.9278 152 69.5653V72.0515H146.015ZM146.015 72.0515C145.934 72.0515 145.88 71.9978 145.853 71.8904C145.826 71.7831 145.813 71.6421 145.813 71.4677C145.813 71.2865 145.826 71.1456 145.853 71.0449C145.88 70.9375 145.934 70.8839 146.015 70.8839V72.0515Z" fill="white"/>
<path d="M24.7098 82.788C24.24 82.788 23.8727 82.7183 23.6081 82.5787C23.3488 82.4337 23.1652 82.2136 23.0572 81.9184C22.9546 81.6178 22.9033 81.2366 22.9033 80.7749C22.9033 80.3133 22.9546 79.9348 23.0572 79.6395C23.1652 79.3389 23.3488 79.1188 23.6081 78.9792C23.8727 78.8343 24.24 78.7618 24.7098 78.7618H26.3868V82.4659H25.7549V79.0598L26.079 79.3335H24.7098C24.3966 79.3335 24.1536 79.3711 23.9807 79.4463C23.8133 79.5214 23.6972 79.6637 23.6324 79.8731C23.5676 80.0771 23.5352 80.3777 23.5352 80.7749C23.5352 81.1722 23.5676 81.4755 23.6324 81.6849C23.6972 81.8889 23.8133 82.0284 23.9807 82.1036C24.1536 82.1787 24.3966 82.2163 24.7098 82.2163H27.2617V82.788H24.7098ZM27.2617 82.788V82.2163C27.3319 82.2163 27.3752 82.2432 27.3914 82.2968C27.413 82.3452 27.4238 82.4123 27.4238 82.4982C27.4238 82.5841 27.413 82.6538 27.3914 82.7075C27.3752 82.7612 27.3319 82.788 27.2617 82.788ZM23.924 78.0371V77.3124H24.5559V78.0371H23.924ZM25.0339 78.0371V77.3124H25.6658V78.0371H25.0339Z" fill="white"/>
<path d="M28.243 82.788V77.0145H28.8749V82.788H28.243ZM27.2628 82.788V82.2163H28.243V82.788H27.2628ZM27.2628 82.788C27.1925 82.788 27.1493 82.7612 27.1331 82.7075C27.1115 82.6538 27.1007 82.5841 27.1007 82.4982C27.1007 82.4123 27.1115 82.3452 27.1331 82.2968C27.1493 82.2432 27.1925 82.2163 27.2628 82.2163V82.788Z" fill="white"/>
<path d="M31.3814 84.5676C31.1923 84.5676 30.9898 84.5515 30.7738 84.5193C30.5631 84.4925 30.3309 84.4522 30.0771 84.3985L30.1743 83.8912C30.4605 83.9288 30.6982 83.9557 30.8872 83.9718C31.0816 83.9879 31.2463 83.9959 31.3814 83.9959C31.8296 83.9959 32.1564 83.91 32.3616 83.7382C32.5668 83.5718 32.6695 83.3276 32.6695 83.0055V79.1242L32.9935 79.3335H31.6244C31.3112 79.3335 31.0681 79.3711 30.8953 79.4463C30.7279 79.5214 30.6117 79.6637 30.5469 79.8731C30.4821 80.0771 30.4497 80.3777 30.4497 80.7749C30.4497 81.1722 30.4821 81.4755 30.5469 81.6849C30.6117 81.8889 30.7279 82.0284 30.8953 82.1036C31.0681 82.1787 31.3112 82.2163 31.6244 82.2163H32.6695V82.788H31.6244C31.1545 82.788 30.7873 82.7183 30.5226 82.5787C30.2634 82.4337 30.0798 82.2136 29.9717 81.9184C29.8691 81.6178 29.8178 81.2366 29.8178 80.7749C29.8178 80.3133 29.8691 79.9348 29.9717 79.6395C30.0798 79.3389 30.2634 79.1188 30.5226 78.9792C30.7873 78.8343 31.1545 78.7618 31.6244 78.7618H33.3014V82.9974C33.3014 83.3302 33.2231 83.6148 33.0664 83.851C32.9152 84.0872 32.6965 84.2643 32.4102 84.3824C32.124 84.5059 31.781 84.5676 31.3814 84.5676Z" fill="white"/>
<path d="M37.3676 82.788V82.2163H38.2425V82.788H37.3676ZM34.2324 82.788V82.2163H37.2542L36.7357 82.6753V80.9199C36.7357 80.5226 36.6898 80.2086 36.5979 79.9777C36.5061 79.7469 36.3549 79.5832 36.1443 79.4865C35.939 79.3846 35.6609 79.3335 35.3098 79.3335H34.6536V78.7618H35.3098C35.7419 78.7618 36.1119 78.8289 36.4197 78.9631C36.7276 79.0974 36.9625 79.3228 37.1245 79.6395C37.2866 79.9509 37.3676 80.3777 37.3676 80.9199V82.788H34.2324ZM38.2425 82.788V82.2163C38.3127 82.2163 38.3559 82.2432 38.3721 82.2968C38.3937 82.3452 38.4045 82.4123 38.4045 82.4982C38.4045 82.5841 38.3937 82.6538 38.3721 82.7075C38.3559 82.7612 38.3127 82.788 38.2425 82.788Z" fill="white"/>
<path d="M39.224 82.788V77.0145H39.8559V82.788H39.224ZM38.2438 82.788V82.2163H39.224V82.788H38.2438ZM38.2438 82.788C38.1736 82.788 38.1304 82.7612 38.1142 82.7075C38.0926 82.6538 38.0817 82.5841 38.0817 82.4982C38.0817 82.4123 38.0926 82.3452 38.1142 82.2968C38.1304 82.2432 38.1736 82.2163 38.2438 82.2163V82.788Z" fill="white"/>
<path d="M41.2525 82.788V77.0145H41.8763V82.788H41.2525Z" fill="white"/>
<path d="M53.6578 82.788V82.2163H54.5328V82.788H53.6578ZM47.031 84.785C46.6043 84.785 46.2182 84.7072 45.8725 84.5515C45.5269 84.3958 45.2541 84.1784 45.0543 83.8993C44.8545 83.6201 44.7545 83.3007 44.7545 82.941C44.7545 82.8283 44.7626 82.6807 44.7788 82.4982C44.8004 82.3103 44.8248 82.1036 44.8518 81.8781C44.8842 81.6473 44.9193 81.4165 44.9571 81.1856C44.9949 80.9494 45.03 80.7266 45.0624 80.5173L45.6862 80.6139C45.6268 80.9843 45.5728 81.3279 45.5242 81.6446C45.481 81.956 45.4459 82.2244 45.4188 82.4498C45.3972 82.6699 45.3864 82.8337 45.3864 82.941C45.3864 83.188 45.4539 83.4054 45.589 83.5933C45.7294 83.7865 45.9238 83.9369 46.1723 84.0442C46.4207 84.157 46.7069 84.2133 47.031 84.2133C47.355 84.2133 47.6332 84.1623 47.8654 84.0603C48.0977 83.9583 48.2759 83.8161 48.4001 83.6335C48.5243 83.451 48.5864 83.2363 48.5864 82.9894V79.5671H49.2183V82.9894C49.2183 83.3651 49.1184 83.6872 48.9186 83.9557C48.7242 84.2241 48.4622 84.4281 48.1328 84.5676C47.8033 84.7126 47.4361 84.785 47.031 84.785ZM49.2183 82.788V82.2163H50.1257C50.3093 82.2163 50.4497 82.1895 50.547 82.1358C50.6442 82.0821 50.7117 81.9747 50.7495 81.8137C50.7873 81.6526 50.8062 81.4164 50.8062 81.1051V79.1645H51.4381V81.1051C51.4381 81.5238 51.3922 81.8566 51.3004 82.1036C51.214 82.3505 51.0735 82.5277 50.8791 82.635C50.6901 82.737 50.4389 82.788 50.1257 82.788H49.2183ZM51.8351 82.788C51.6514 82.788 51.4705 82.7532 51.2923 82.6834C51.1194 82.6136 50.9493 82.5035 50.7819 82.3532L51.1951 81.9264C51.3193 82.0284 51.43 82.1036 51.5272 82.1519C51.6298 82.1949 51.7324 82.2163 51.8351 82.2163H53.2771L53.034 82.474V80.5495C53.034 80.4528 53.0232 80.3159 53.0016 80.1388C52.98 79.9616 52.9503 79.763 52.9125 79.5429C52.8801 79.3174 52.8423 79.092 52.7991 78.8665L53.4148 78.7618C53.4526 78.9497 53.4904 79.1591 53.5282 79.3899C53.566 79.6208 53.5957 79.8409 53.6173 80.0502C53.6443 80.2542 53.6578 80.4206 53.6578 80.5495V82.788H51.8351ZM54.5328 82.788V82.2163C54.603 82.2163 54.6462 82.2432 54.6624 82.2968C54.684 82.3452 54.6948 82.4123 54.6948 82.4982C54.6948 82.5841 54.684 82.6538 54.6624 82.7075C54.6462 82.7612 54.603 82.788 54.5328 82.788Z" fill="white"/>
<path d="M56.1455 82.788V82.2163H57.0204V82.788H56.1455ZM55.5136 82.788V77.0145H56.1455V82.788H55.5136ZM54.5328 82.788V82.2163H55.5136V82.788H54.5328ZM54.5328 82.788C54.4626 82.788 54.4199 82.7612 54.4037 82.7075C54.3821 82.6538 54.3713 82.5841 54.3713 82.4982C54.3713 82.4123 54.3821 82.3452 54.4037 82.2968C54.4199 82.2432 54.4626 82.2163 54.5328 82.2163V82.788ZM57.0204 82.788V82.2163C57.0907 82.2163 57.1339 82.2432 57.1501 82.2968C57.1717 82.3452 57.1825 82.4123 57.1825 82.4982C57.1825 82.5841 57.1717 82.6538 57.1501 82.7075C57.1339 82.7612 57.0907 82.788 57.0204 82.788Z" fill="white"/>
<path d="M61.0277 82.788V82.2163H61.9026V82.788H61.0277ZM57.0175 82.788V82.2163H60.5902L60.3958 82.3854V80.3884C60.3958 80.0395 60.285 79.7791 60.0636 79.6073C59.8476 79.4302 59.5154 79.3416 59.0672 79.3416C58.9267 79.3416 58.7242 79.355 58.4596 79.3819C58.1949 79.4033 57.9168 79.4355 57.6251 79.4785L57.5522 78.9631C57.7736 78.9095 58.0167 78.8638 58.2813 78.8262C58.546 78.7833 58.8025 78.7618 59.0509 78.7618C59.4614 78.7618 59.8125 78.8262 60.1041 78.9551C60.4012 79.0786 60.628 79.2611 60.7846 79.5026C60.9466 79.7442 61.0277 80.0395 61.0277 80.3884V82.788H57.0175ZM57.0175 82.788C56.9473 82.788 56.9041 82.7612 56.8879 82.7075C56.8663 82.6538 56.8555 82.5841 56.8555 82.4982C56.8555 82.4123 56.8663 82.3452 56.8879 82.2968C56.9041 82.2432 56.9473 82.2163 57.0175 82.2163V82.788ZM61.9026 82.788V82.2163C61.9728 82.2163 62.016 82.2432 62.0322 82.2968C62.0538 82.3452 62.0646 82.4123 62.0646 82.4982C62.0646 82.5841 62.0538 82.6538 62.0322 82.7075C62.016 82.7612 61.9728 82.788 61.9026 82.788ZM58.735 84.2375V83.5128H59.3669V84.2375H58.735Z" fill="white"/>
<path d="M61.8989 82.788V82.2163H66.3303L65.8604 82.5465V80.8152C65.8604 80.4394 65.8172 80.1442 65.7308 79.9294C65.6443 79.7147 65.4958 79.5617 65.2852 79.4704C65.08 79.3792 64.7991 79.3335 64.4427 79.3335C64.2158 79.3335 63.989 79.3497 63.7622 79.3819C63.5407 79.4141 63.3679 79.457 63.2437 79.5107L63.6244 79.1242C63.592 79.253 63.5596 79.4168 63.5272 79.6154C63.4948 79.8086 63.4678 80.018 63.4462 80.2435C63.4246 80.4689 63.4138 80.6944 63.4138 80.9199C63.4138 81.1507 63.4246 81.3762 63.4462 81.5963C63.4678 81.8164 63.4921 82.007 63.5191 82.168C63.5461 82.3291 63.5677 82.4418 63.5839 82.5062L62.9844 82.6753C62.9628 82.6055 62.9358 82.4847 62.9034 82.313C62.8764 82.1412 62.8494 81.9345 62.8224 81.6929C62.8008 81.4513 62.79 81.1937 62.79 80.9199C62.79 80.6568 62.8008 80.4018 62.8224 80.1549C62.8494 79.9026 62.8791 79.6744 62.9115 79.4704C62.9493 79.2664 62.9844 79.1027 63.0168 78.9792C63.1357 78.9309 63.3247 78.8826 63.5839 78.8343C63.8432 78.786 64.1294 78.7618 64.4427 78.7618C64.8963 78.7618 65.2744 78.8289 65.5768 78.9631C65.8847 79.0974 66.1142 79.3148 66.2654 79.6154C66.4167 79.9106 66.4923 80.3106 66.4923 80.8152V82.788H61.8989ZM61.8989 82.788C61.8287 82.788 61.7854 82.7612 61.7692 82.7075C61.7476 82.6538 61.7368 82.5841 61.7368 82.4982C61.7368 82.4123 61.7476 82.3452 61.7692 82.2968C61.7854 82.2432 61.8287 82.2163 61.8989 82.2163V82.788Z" fill="white"/>
<path d="M70.7643 84.5676C70.5753 84.5676 70.3727 84.5515 70.1567 84.5193C69.9461 84.4925 69.7139 84.4522 69.46 84.3985L69.5572 83.8912C69.8435 83.9288 70.0811 83.9557 70.2701 83.9718C70.4646 83.9879 70.6293 83.9959 70.7643 83.9959C71.2126 83.9959 71.5393 83.91 71.7446 83.7382C71.9498 83.5718 72.0524 83.3276 72.0524 83.0055V79.1242L72.3765 79.3335H71.0074C70.6941 79.3335 70.4511 79.3711 70.2782 79.4463C70.1108 79.5214 69.9947 79.6637 69.9299 79.8731C69.8651 80.0771 69.8327 80.3777 69.8327 80.7749C69.8327 81.1722 69.8651 81.4755 69.9299 81.6849C69.9947 81.8889 70.1108 82.0284 70.2782 82.1036C70.4511 82.1787 70.6941 82.2163 71.0074 82.2163H72.0524V82.788H71.0074C70.5375 82.788 70.1702 82.7183 69.9056 82.5787C69.6463 82.4337 69.4627 82.2136 69.3547 81.9184C69.2521 81.6178 69.2008 81.2366 69.2008 80.7749C69.2008 80.3133 69.2521 79.9348 69.3547 79.6395C69.4627 79.3389 69.6463 79.1188 69.9056 78.9792C70.1702 78.8343 70.5375 78.7618 71.0074 78.7618H72.6843V82.9974C72.6843 83.3302 72.606 83.6148 72.4494 83.851C72.2982 84.0872 72.0794 84.2643 71.7932 84.3824C71.5069 84.5059 71.164 84.5676 70.7643 84.5676Z" fill="white"/>
<path d="M82.087 82.788V77.0145H82.7189V82.788H82.087ZM81.1068 82.788V82.2163H82.087V82.788H81.1068ZM81.1068 82.788C81.0366 82.788 80.9907 82.7612 80.9691 82.7075C80.9529 82.6538 80.9448 82.5841 80.9448 82.4982C80.9448 82.4123 80.9529 82.3452 80.9691 82.2968C80.9907 82.2432 81.0366 82.2163 81.1068 82.2163V82.788ZM77.6232 84.785C77.31 84.785 77.0183 84.7394 76.7483 84.6482C76.4783 84.5623 76.2406 84.4388 76.0354 84.2777C75.8356 84.1221 75.6789 83.9342 75.5655 83.7141C75.4521 83.494 75.3954 83.2524 75.3954 82.9894C75.3954 82.882 75.4035 82.7397 75.4197 82.5626C75.4413 82.3854 75.4656 82.1868 75.4926 81.9667C75.525 81.7412 75.5601 81.5131 75.5979 81.2822L76.2217 81.3708C76.1623 81.7305 76.1137 82.058 76.0759 82.3532C76.0435 82.6485 76.0273 82.8578 76.0273 82.9813C76.0273 83.2229 76.0948 83.4349 76.2298 83.6174C76.3648 83.8053 76.5512 83.9503 76.7888 84.0523C77.0319 84.1596 77.31 84.2133 77.6232 84.2133H79.9159C80.3264 84.2133 80.6369 84.1006 80.8476 83.8751C81.0636 83.6497 81.1716 83.3195 81.1716 82.8847V82.6189H81.7954V82.8927C81.7954 83.2631 81.7225 83.5906 81.5767 83.8751C81.4308 84.1596 81.2175 84.3824 80.9367 84.5435C80.6612 84.7045 80.321 84.785 79.9159 84.785H77.6232ZM80.7017 82.788C80.5181 82.788 80.3318 82.7693 80.1427 82.7317C79.9591 82.6941 79.7755 82.6163 79.5919 82.4982L79.9483 82.0231C80.0239 82.0714 80.0968 82.1116 80.167 82.1439C80.2373 82.1707 80.3156 82.1895 80.402 82.2002C80.4884 82.211 80.5883 82.2163 80.7017 82.2163H82.2329V82.788H80.7017ZM82.2329 82.788V82.2163C82.3031 82.2163 82.3463 82.2432 82.3625 82.2968C82.3841 82.3452 82.3949 82.4123 82.3949 82.4982C82.3949 82.5841 82.3841 82.6538 82.3625 82.7075C82.3463 82.7612 82.3031 82.788 82.2329 82.788ZM77.7286 86.2506V85.5259H78.3605V86.2506H77.7286ZM78.8384 86.2506V85.5259H79.4703V86.2506H78.8384Z" fill="white"/>
<path d="M84.7324 82.788V82.2163H85.7207V82.788H84.7324ZM84.1086 82.788V77.0145H84.7324V82.788H84.1086ZM85.7207 82.788V82.2163C85.7909 82.2163 85.8341 82.2432 85.8503 82.2968C85.8719 82.3452 85.8828 82.4123 85.8828 82.4982C85.8828 82.5841 85.8719 82.6538 85.8503 82.7075C85.8341 82.7612 85.7909 82.788 85.7207 82.788Z" fill="white"/>
<path d="M85.7207 82.788V82.2163H86.8057C87.1297 82.2163 87.4403 82.1653 87.7373 82.0633C88.0344 81.956 88.3071 81.8164 88.5555 81.6446C88.804 81.4674 89.02 81.2742 89.2036 81.0648C89.3873 80.8501 89.5304 80.6327 89.633 80.4126C89.7356 80.1925 89.7869 79.9858 89.7869 79.7925V79.3094L90.1272 79.8167C89.8139 79.6556 89.5061 79.5349 89.2036 79.4543C88.9012 79.3738 88.6068 79.3335 88.3206 79.3335C88.0344 79.3335 87.74 79.3738 87.4376 79.4543C87.1351 79.5349 86.83 79.6556 86.5221 79.8167L86.8624 79.3094V79.7925C86.8624 79.9858 86.9137 80.1925 87.0163 80.4126C87.1189 80.6327 87.2593 80.8501 87.4376 81.0648C87.6212 81.2742 87.8372 81.4674 88.0857 81.6446C88.3341 81.8164 88.6068 81.956 88.9039 82.0633C89.2009 82.1653 89.5115 82.2163 89.8355 82.2163H90.8725V82.788H89.8355C89.4143 82.788 89.02 82.7209 88.6528 82.5867C88.2855 82.4525 87.9533 82.2754 87.6563 82.0553C87.3593 81.8298 87.1027 81.5855 86.8867 81.3225C86.676 81.0541 86.514 80.7884 86.4006 80.5253C86.2872 80.2569 86.2305 80.0126 86.2305 79.7925V79.3094C86.4627 79.1859 86.6976 79.0839 86.9353 79.0034C87.1729 78.9229 87.4079 78.8638 87.6401 78.8262C87.8777 78.7833 88.1046 78.7618 88.3206 78.7618C88.542 78.7618 88.7689 78.7833 89.0011 78.8262C89.2333 78.8638 89.4683 78.9229 89.7059 79.0034C89.9436 79.0839 90.1785 79.1859 90.4107 79.3094V79.7925C90.4107 80.0126 90.354 80.2569 90.2406 80.5253C90.1272 80.7884 89.9625 81.0541 89.7464 81.3225C89.5358 81.5855 89.282 81.8298 88.9849 82.0553C88.6879 82.2754 88.3557 82.4525 87.9884 82.5867C87.6212 82.7209 87.2269 82.788 86.8057 82.788H85.7207ZM85.7207 82.788C85.6505 82.788 85.6067 82.7612 85.5905 82.7075C85.5689 82.6538 85.5581 82.5841 85.5581 82.4982C85.5581 82.4123 85.5689 82.3452 85.5905 82.2968C85.6067 82.2432 85.6505 82.2163 85.7207 82.2163V82.788ZM90.8725 82.788V82.2163C90.9427 82.2163 90.9859 82.2432 91.0021 82.2968C91.0237 82.3452 91.0345 82.4123 91.0345 82.4982C91.0345 82.5841 91.0237 82.6538 91.0021 82.7075C90.9859 82.7612 90.9427 82.788 90.8725 82.788Z" fill="white"/>
<path d="M91.8507 82.788V77.0145H92.4826V82.788H91.8507ZM90.8704 82.788V82.2163H91.8507V82.788H90.8704ZM90.8704 82.788C90.8002 82.788 90.757 82.7612 90.7408 82.7075C90.7192 82.6538 90.7084 82.5841 90.7084 82.4982C90.7084 82.4123 90.7192 82.3452 90.7408 82.2968C90.757 82.2432 90.8002 82.2163 90.8704 82.2163V82.788Z" fill="white"/>
<path d="M93.8792 82.788V77.0145H94.5029V82.788H93.8792Z" fill="white"/>
<path d="M99.9007 82.788C99.0959 82.788 98.4938 82.6485 98.0941 82.3693C97.6944 82.0902 97.4946 81.658 97.4946 81.0729C97.4946 80.944 97.5027 80.8045 97.5189 80.6542C97.5405 80.5038 97.5648 80.3589 97.5918 80.2193C97.6188 80.0744 97.6431 79.9509 97.6647 79.8489C97.6863 79.7415 97.6998 79.6691 97.7052 79.6315L98.3209 79.7442C98.3047 79.8301 98.2804 79.9482 98.248 80.0985C98.221 80.2488 98.194 80.4099 98.167 80.5817C98.14 80.7535 98.1265 80.9172 98.1265 81.0729C98.1265 81.3413 98.1832 81.5614 98.2966 81.7332C98.41 81.8996 98.5964 82.0231 98.8556 82.1036C99.1148 82.1787 99.4632 82.2163 99.9007 82.2163H104.518L104.097 82.5787V79.0598L104.429 79.3335H103.052C102.739 79.3335 102.496 79.3711 102.323 79.4463C102.156 79.5214 102.039 79.6637 101.975 79.8731C101.91 80.0771 101.877 80.3777 101.877 80.7749C101.877 81.1722 101.91 81.4755 101.975 81.6849C102.039 81.8889 102.156 82.0284 102.323 82.1036C102.496 82.1787 102.739 82.2163 103.052 82.2163V82.627C102.582 82.627 102.215 82.5706 101.95 82.4579C101.691 82.3398 101.507 82.1465 101.399 81.8781C101.297 81.6043 101.245 81.2366 101.245 80.7749C101.245 80.3133 101.297 79.9348 101.399 79.6395C101.507 79.3389 101.691 79.1188 101.95 78.9792C102.215 78.8343 102.582 78.7618 103.052 78.7618H104.729V82.788H99.9007ZM102.858 78.0371V77.3124H103.49V78.0371H102.858Z" fill="white"/>
<path d="M106.829 82.788V82.2163H107.817V82.788H106.829ZM106.205 82.788V77.0145H106.829V82.788H106.205ZM107.817 82.788V82.2163C107.887 82.2163 107.931 82.2432 107.947 82.2968C107.968 82.3452 107.979 82.4123 107.979 82.4982C107.979 82.5841 107.968 82.6538 107.947 82.7075C107.931 82.7612 107.887 82.788 107.817 82.788Z" fill="white"/>
<path d="M109.323 82.788V82.2163H110.198V82.788H109.323ZM107.817 82.788V82.2163H108.983L108.692 82.4498V78.7618H109.323V82.788H107.817ZM107.817 82.788C107.747 82.788 107.703 82.7612 107.687 82.7075C107.665 82.6538 107.655 82.5841 107.655 82.4982C107.655 82.4123 107.665 82.3452 107.687 82.2968C107.703 82.2432 107.747 82.2163 107.817 82.2163V82.788ZM110.198 82.788V82.2163C110.269 82.2163 110.312 82.2432 110.328 82.2968C110.35 82.3452 110.36 82.4123 110.36 82.4982C110.36 82.5841 110.35 82.6538 110.328 82.7075C110.312 82.7612 110.269 82.788 110.198 82.788ZM108.692 78.0371V77.3124H109.323V78.0371H108.692Z" fill="white"/>
<path d="M111.705 82.788V82.2163H112.58V82.788H111.705ZM110.198 82.788V82.2163H111.365L111.073 82.4498V78.7618H111.705V82.788H110.198ZM110.198 82.788C110.128 82.788 110.085 82.7612 110.068 82.7075C110.047 82.6538 110.036 82.5841 110.036 82.4982C110.036 82.4123 110.047 82.3452 110.068 82.2968C110.085 82.2432 110.128 82.2163 110.198 82.2163V82.788ZM112.58 82.788V82.2163C112.65 82.2163 112.693 82.2432 112.709 82.2968C112.731 82.3452 112.742 82.4123 112.742 82.4982C112.742 82.5841 112.731 82.6538 112.709 82.7075C112.693 82.7612 112.65 82.788 112.58 82.788ZM111.008 78.0371C110.922 77.9297 110.854 77.8251 110.806 77.7231C110.762 77.6211 110.741 77.5137 110.741 77.401C110.741 77.2453 110.779 77.1057 110.854 76.9822C110.935 76.8588 111.04 76.7621 111.17 76.6924C111.3 76.6226 111.44 76.5877 111.591 76.5877C111.678 76.5877 111.764 76.6011 111.851 76.6279C111.937 76.6494 112.013 76.6816 112.077 76.7246L111.867 77.0869C111.824 77.0601 111.78 77.044 111.737 77.0386C111.699 77.0279 111.659 77.0225 111.616 77.0225C111.491 77.0225 111.392 77.0574 111.316 77.1272C111.246 77.197 111.211 77.2882 111.211 77.401C111.211 77.4708 111.224 77.5379 111.251 77.6023C111.284 77.6667 111.329 77.7365 111.389 77.8116L111.008 78.0371ZM110.587 78.0371V77.6103H112.183V78.0371H110.587Z" fill="white"/>
<path d="M114.086 82.788V82.2163H114.961V82.788H114.086ZM114.961 82.788V82.2163C115.031 82.2163 115.074 82.2432 115.091 82.2968C115.112 82.3452 115.123 82.4123 115.123 82.4982C115.123 82.5841 115.112 82.6538 115.091 82.7075C115.074 82.7612 115.031 82.788 114.961 82.788ZM112.58 82.788V82.2163H113.746L113.454 82.4498V78.7618H114.086V82.788H112.58ZM112.58 82.788C112.51 82.788 112.466 82.7612 112.45 82.7075C112.428 82.6538 112.417 82.5841 112.417 82.4982C112.417 82.4123 112.428 82.3452 112.45 82.2968C112.466 82.2432 112.51 82.2163 112.58 82.2163V82.788ZM112.903 78.0371V77.3124H113.535V78.0371H112.903ZM114.013 78.0371V77.3124H114.645V78.0371H114.013Z" fill="white"/>
<path d="M119.222 82.788C119.038 82.788 118.857 82.7532 118.679 82.6834C118.506 82.6136 118.339 82.5035 118.177 82.3532L118.59 81.9264C118.714 82.0284 118.825 82.1036 118.922 82.1519C119.019 82.1949 119.119 82.2163 119.222 82.2163H120.664L120.421 82.474V80.5495C120.421 80.4528 120.41 80.3159 120.388 80.1388C120.372 79.9616 120.345 79.763 120.307 79.5429C120.275 79.3174 120.235 79.092 120.186 78.8665L120.802 78.7618C120.839 78.9497 120.877 79.1591 120.915 79.3899C120.953 79.6208 120.985 79.8409 121.012 80.0502C121.039 80.2542 121.053 80.4206 121.053 80.5495V82.788H119.222ZM114.961 82.788V82.2163H116.143L115.981 82.3774V79.5671H116.605V82.788H114.961ZM116.605 82.788V82.2163H117.521C117.704 82.2163 117.842 82.1895 117.934 82.1358C118.031 82.0821 118.099 81.9747 118.136 81.8137C118.174 81.6526 118.193 81.4164 118.193 81.1051V79.1645H118.825V81.1051C118.825 81.5238 118.779 81.8566 118.687 82.1036C118.601 82.3505 118.463 82.5277 118.274 82.635C118.085 82.737 117.834 82.788 117.521 82.788H116.605ZM114.961 82.788C114.891 82.788 114.847 82.7612 114.831 82.7075C114.809 82.6538 114.799 82.5841 114.799 82.4982C114.799 82.4123 114.809 82.3452 114.831 82.2968C114.847 82.2432 114.891 82.2163 114.961 82.2163V82.788Z" fill="white"/>
<path d="M121.986 82.788V82.2163H125.947L125.591 82.5787V77.0145H126.223V82.788H121.986ZM123.282 82.2163V78.1579H123.906V82.2163H123.282ZM123.217 84.9541C123.131 84.8468 123.063 84.7421 123.014 84.6401C122.971 84.5381 122.95 84.4307 122.95 84.318C122.95 84.1623 122.987 84.0228 123.063 83.8993C123.144 83.7758 123.249 83.6792 123.379 83.6094C123.509 83.5396 123.649 83.5047 123.8 83.5047C123.887 83.5047 123.973 83.5154 124.06 83.5369C124.146 83.5638 124.222 83.5987 124.286 83.6416L124.076 84.004C124.033 83.9771 123.989 83.9583 123.946 83.9476C123.908 83.9422 123.868 83.9395 123.825 83.9395C123.7 83.9395 123.6 83.9744 123.525 84.0442C123.455 84.114 123.42 84.2053 123.42 84.318C123.42 84.3878 123.433 84.4549 123.46 84.5193C123.492 84.5837 123.538 84.6535 123.598 84.7287L123.217 84.9541ZM122.796 84.9541V84.5274H124.392V84.9541H122.796Z" fill="white"/>
<path d="M127.653 82.788V77.0145H128.277V82.788H127.653Z" fill="white"/>
<path d="M68.7672 19.9412V53.2901H70.4193V22.7101C70.4193 21.9919 71.0048 21.41 71.7273 21.41C72.4498 21.41 73.0353 21.9919 73.0353 22.7101V53.2901H74.6874V22.7101C74.6874 21.9919 75.2729 21.41 75.9954 21.41C76.7179 21.41 77.3034 21.9919 77.3034 22.7101V53.2901H78.9556V22.7101C78.9556 21.9919 79.541 21.41 80.2635 21.41C80.986 21.41 81.5715 21.9919 81.5715 22.7101V53.2901H83.2237V19.9412H68.7672Z" fill="white"/>
<path d="M83.7265 17.8515H68.263C68.0562 17.8515 67.8886 18.018 67.8886 18.2236V19.1216C67.8886 19.3272 68.0562 19.4937 68.263 19.4937H83.7265C83.9333 19.4937 84.1009 19.3272 84.1009 19.1216V18.2236C84.1009 18.018 83.9333 17.8515 83.7265 17.8515Z" fill="white"/>
<path d="M84.8919 53.6792H67.0984C66.8916 53.6792 66.724 53.8457 66.724 54.0513V54.9493C66.724 55.1549 66.8916 55.3214 67.0984 55.3214H84.8919C85.0987 55.3214 85.2662 55.1549 85.2662 54.9493V54.0513C85.2662 53.8457 85.0987 53.6792 84.8919 53.6792Z" fill="white"/>
<path d="M87.514 55.71H64.478C64.2712 55.71 64.1037 55.8765 64.1037 56.0821V57.5592C64.1037 57.7647 64.2712 57.9313 64.478 57.9313H87.5144C87.7212 57.9313 87.8887 57.7647 87.8887 57.5592V56.0821C87.8884 55.8765 87.7208 55.71 87.514 55.71Z" fill="white"/>
<path d="M89.2084 18.908L76.2775 6.3278C76.1209 6.17535 75.8701 6.17535 75.7131 6.3278L62.7823 18.908C62.6525 19.0344 62.6503 19.241 62.7772 19.37L63.5716 20.1766C63.6985 20.3056 63.9067 20.3078 64.0365 20.1817L75.9951 8.54725L87.9538 20.1817C88.0835 20.3078 88.2918 20.3056 88.4186 20.1766L89.2131 19.37C89.3403 19.241 89.3381 19.034 89.2084 18.908Z" fill="white"/>
<path d="M75.9965 11.076C75.9965 11.076 75.5354 13.1683 73.192 14.011C75.5354 14.8538 75.9965 16.9461 75.9965 16.9461C75.9965 16.9461 76.4577 14.8538 78.8011 14.011C76.4581 13.1683 75.9965 11.076 75.9965 11.076Z" fill="white"/>
<path d="M58.4206 12.3384C54.1151 14.4505 50.0668 14.5224 47.5962 14.2681C47.8059 13.8902 47.9288 13.6775 47.9288 13.205C47.9288 11.8146 46.8835 10.9147 45.5941 10.9147C44.3046 10.9147 43.2594 11.8146 43.2594 13.205C43.2594 14.4274 44.0673 15.4295 45.1387 15.6581C45.1794 15.6693 51.9523 17.3072 60.1745 14.496C63.2735 13.4365 65.7855 12.7942 67.7052 12.4034L72.1339 8.09453C71.1825 8.13607 66.1853 8.52982 58.4206 12.3384ZM45.5712 14.6026C45.5712 14.6026 45.3622 13.654 44.2999 13.2722C45.3622 12.89 45.5712 11.9417 45.5712 11.9417C45.5712 11.9417 45.7802 12.8903 46.8425 13.2722C45.7802 13.654 45.5712 14.6026 45.5712 14.6026Z" fill="white"/>
<path d="M106.386 10.9144C105.097 10.9144 104.052 11.8142 104.052 13.2046C104.052 13.6771 104.174 13.8899 104.384 14.2677C101.914 14.5221 97.8657 14.4502 93.5597 12.338C85.7951 8.52946 80.7979 8.13535 79.8461 8.09453L84.2748 12.4034C86.1941 12.7942 88.7061 13.4365 91.8055 14.496C100.028 17.3068 106.801 15.669 106.841 15.6582C107.913 15.4295 108.721 14.4271 108.721 13.205C108.721 11.8142 107.676 10.9144 106.386 10.9144ZM106.41 14.6019C106.41 14.6019 106.201 13.6533 105.138 13.2714C106.201 12.8893 106.41 11.941 106.41 11.941C106.41 11.941 106.619 12.8896 107.681 13.2714C106.619 13.6533 106.41 14.6019 106.41 14.6019Z" fill="white"/>
<path d="M55.5044 39.803H55.3168L46.1824 15.1123H44.9613L35.8272 39.803H35.6396C35.3678 39.803 35.2108 40.1144 35.3765 40.3286C37.5466 43.1311 41.3008 44.9854 45.5718 44.9854C49.8428 44.9854 53.5971 43.1315 55.7671 40.3286C55.9332 40.1144 55.7762 39.803 55.5044 39.803ZM54.5853 39.803H45.9153V16.3669L54.5853 39.803ZM45.2287 16.3669V39.803H36.5591L45.2287 16.3669Z" fill="white"/>
<path d="M116.342 39.802H116.155L107.043 15.1712H105.777L96.6651 39.802H96.4779C96.2061 39.802 96.0491 40.1134 96.2152 40.3276C98.3852 43.1301 102.139 44.9843 106.41 44.9843C110.681 44.9843 114.436 43.1304 116.606 40.3276C116.771 40.1134 116.614 39.802 116.342 39.802ZM115.424 39.802H106.754V16.3659L115.424 39.802ZM106.067 16.3659V39.802H97.397L106.067 16.3659Z" fill="white"/>
<path d="M62.4595 12.0046C64.2367 6.33531 69.566 2.20815 75.8472 2.20815C82.1527 2.20815 87.4977 6.36818 89.2537 12.0714L91.4805 12.8177C89.9384 5.64606 83.5159 0.250595 75.8472 0.250595C68.1308 0.250595 61.6737 5.71253 60.1833 12.9507L62.4595 12.0046Z" fill="white"/>
</svg>
