<svg width="20" height="21" viewBox="0 0 20 21" fill="none" xmlns="http://www.w3.org/2000/svg">
<g clip-path="url(#clip0_6_801)">
<path d="M20.0059 10.186C20.0059 4.66319 15.5287 0.186041 10.0059 0.186041C4.48301 0.186041 0.00585938 4.66319 0.00585938 10.186C0.00585938 15.1773 3.6627 19.3144 8.44336 20.0646V13.0767H5.9043V10.186H8.44336V7.98292C8.44336 5.47667 9.93633 4.09229 12.2205 4.09229C13.3143 4.09229 14.459 4.2876 14.459 4.2876V6.74854H13.198C11.9559 6.74854 11.5684 7.51944 11.5684 8.31104V10.186H14.3418L13.8984 13.0767H11.5684V20.0646C16.349 19.3144 20.0059 15.1773 20.0059 10.186Z" fill="#FCFCFC"/>
</g>
<defs>
<clipPath id="clip0_6_801">
<rect width="20" height="19.8785" fill="white" transform="translate(0.00585938 0.186041)"/>
</clipPath>
</defs>
</svg>
