<svg width="60" height="29" viewBox="0 0 60 29" fill="none" xmlns="http://www.w3.org/2000/svg">
<rect x="0.319149" y="0.319149" width="59.3617" height="28.3617" rx="7.34043" fill="white"/>
<rect x="0.319149" y="0.319149" width="59.3617" height="28.3617" rx="7.34043" stroke="#BDC0C2" stroke-width="0.638298"/>
<path d="M15.8252 7.63116C15.3016 8.2564 14.4638 8.74955 13.6261 8.6791C13.5214 7.83371 13.9315 6.93547 14.4115 6.38068C14.9351 5.73783 15.8514 5.27991 16.5932 5.24468C16.6804 6.1253 16.3401 6.98831 15.8252 7.63116ZM16.5844 8.84642C15.3714 8.77597 14.3329 9.54211 13.757 9.54211C13.1723 9.54211 12.2909 8.88164 11.3309 8.89926C10.083 8.91687 8.92237 9.63017 8.28532 10.7662C6.97631 13.0382 7.94497 16.4021 9.21035 18.2514C9.82995 19.1673 10.5717 20.1712 11.5491 20.136C12.4741 20.1007 12.8407 19.5283 13.9577 19.5283C15.0834 19.5283 15.4063 20.136 16.3837 20.1184C17.396 20.1007 18.0331 19.2025 18.6527 18.2867C19.3595 17.2475 19.6475 16.2348 19.665 16.182C19.6475 16.1644 17.7102 15.4158 17.6927 13.1615C17.6753 11.2769 19.2199 10.3787 19.2897 10.3259C18.417 9.02254 17.0557 8.88164 16.5844 8.84642ZM23.592 6.29262V20.0215H25.7039V15.3278H28.6273C31.2977 15.3278 33.1739 13.4785 33.1739 10.8014C33.1739 8.12431 31.3326 6.29262 28.6971 6.29262H23.592ZM25.7039 8.08909H28.1386C29.9712 8.08909 31.0184 9.07538 31.0184 10.8102C31.0184 12.545 29.9712 13.5401 28.1299 13.5401H25.7039V8.08909ZM37.0312 20.1272C38.3576 20.1272 39.5881 19.4491 40.1466 18.3747H40.1902V20.0215H42.145V13.1879C42.145 11.2065 40.5742 9.92958 38.1569 9.92958C35.9141 9.92958 34.2561 11.2241 34.195 13.0029H36.0974C36.2545 12.1576 37.0312 11.6028 38.0958 11.6028C39.3874 11.6028 40.1117 12.2104 40.1117 13.3288V14.0861L37.4762 14.2446C35.024 14.3943 33.6975 15.407 33.6975 17.1683C33.6975 18.9471 35.0676 20.1272 37.0312 20.1272ZM37.5984 18.498C36.4727 18.498 35.7571 17.952 35.7571 17.1154C35.7571 16.2524 36.4465 15.7505 37.7642 15.6712L40.1117 15.5215V16.2965C40.1117 17.5822 39.0296 18.498 37.5984 18.498ZM44.7543 23.7553C46.8138 23.7553 47.7825 22.9628 48.629 20.5587L52.3378 10.0617H50.1911L47.7039 18.1722H47.6603L45.1732 10.0617H42.9653L46.5433 20.0567L46.3513 20.6643C46.0284 21.6947 45.5048 22.091 44.5711 22.091C44.4052 22.091 44.0824 22.0733 43.9515 22.0557V23.7025C44.0736 23.7377 44.5972 23.7553 44.7543 23.7553Z" fill="black"/>
</svg>
