<svg width="60" height="29" viewBox="0 0 60 29" fill="none" xmlns="http://www.w3.org/2000/svg">
<rect x="0.319149" y="0.319149" width="59.3617" height="28.3617" rx="7.34043" fill="white"/>
<rect x="0.319149" y="0.319149" width="59.3617" height="28.3617" rx="7.34043" stroke="#BDC0C2" stroke-width="0.638298"/>
<path d="M28.2258 8.82258C28.2258 8.23568 28.7034 7.75806 29.2903 7.75806H31.0645V7.04839H29.2903C28.312 7.04839 27.5161 7.84429 27.5161 8.82258H27.0775L19 12.8614V14.8548H19.7097V16.2742H20.4194V21.9516H19.7097V23.371H19V25.5H36.7419V23.371H36.0323V21.9516H35.3226V16.2742H36.0323V14.8548H36.7419V12.8614L28.6644 8.82258H28.2258ZM20.4194 22.6613H22.5484V23.371H20.4194V22.6613ZM24.6774 16.2742V21.9516H23.9677V23.371H23.2581V21.9516H22.5484V16.2742H23.2581V14.8548H23.9677V16.2742H24.6774ZM28.9355 16.2742V21.9516H28.2258V23.371H27.5161V21.9516H26.8065V16.2742H27.5161V14.8548H28.2258V16.2742H28.9355ZM33.1935 16.2742V21.9516H32.4839V23.371H31.7742V21.9516H31.0645V16.2742H31.7742V14.8548H32.4839V16.2742H33.1935ZM35.3226 22.6613V23.371H33.1935V22.6613H35.3226ZM33.9032 21.9516V16.2742H34.6129V21.9516H33.9032ZM31.0645 15.5645H28.9355V14.8548H31.0645V15.5645ZM30.3548 16.2742V21.9516H29.6452V16.2742H30.3548ZM31.0645 22.6613V23.371H28.9355V22.6613H31.0645ZM26.8065 15.5645H24.6774V14.8548H26.8065V15.5645ZM26.0968 16.2742V21.9516H25.3871V16.2742H26.0968ZM26.8065 22.6613V23.371H24.6774V22.6613H26.8065ZM22.5484 15.5645H20.4194V14.8548H22.5484V15.5645ZM21.8387 16.2742V21.9516H21.129V16.2742H21.8387ZM36.0323 24.0806V24.7903H19.7097V24.0806H36.0323ZM35.3226 15.5645H33.1935V14.8548H35.3226V15.5645ZM36.0323 14.1452H19.7097V13.2999L27.245 9.53226H27.5161V12.0161H28.2258V9.53226H28.4969L36.0323 13.2999V14.1452Z" fill="black"/>
<path d="M33.9032 12.7258H21.8387V13.4355H33.9032V12.7258Z" fill="black"/>
<path d="M37.0968 3.5C34.9447 3.5 33.1935 5.25113 33.1935 7.40323C33.1935 9.55532 34.9447 11.3065 37.0968 11.3065C39.2489 11.3065 41 9.55532 41 7.40323C41 5.25113 39.2489 3.5 37.0968 3.5ZM37.0968 10.5968C35.3357 10.5968 33.9032 9.16429 33.9032 7.40323C33.9032 5.64216 35.3357 4.20968 37.0968 4.20968C38.8578 4.20968 40.2903 5.64216 40.2903 7.40323C40.2903 9.16429 38.8578 10.5968 37.0968 10.5968Z" fill="black"/>
<path d="M36.7419 6.33871H37.4516C37.6475 6.33871 37.8065 6.49768 37.8065 6.69355H38.5161C38.5161 6.10665 38.0385 5.62903 37.4516 5.62903V4.91935H36.7419V5.62903C36.155 5.62903 35.6774 6.10665 35.6774 6.69355C35.6774 7.28045 36.155 7.75806 36.7419 7.75806H37.4516C37.6475 7.75806 37.8065 7.91703 37.8065 8.1129C37.8065 8.30877 37.6475 8.46774 37.4516 8.46774H36.7419C36.5461 8.46774 36.3871 8.30877 36.3871 8.1129H35.6774C35.6774 8.69981 36.155 9.17742 36.7419 9.17742V9.8871H37.4516V9.17742C38.0385 9.17742 38.5161 8.69981 38.5161 8.1129C38.5161 7.526 38.0385 7.04839 37.4516 7.04839H36.7419C36.5461 7.04839 36.3871 6.88942 36.3871 6.69355C36.3871 6.49768 36.5461 6.33871 36.7419 6.33871Z" fill="black"/>
<path d="M32.4839 7.04839H31.7742V7.75806H32.4839V7.04839Z" fill="black"/>
<path d="M38.871 17.3387C38.871 17.9256 38.3934 18.4032 37.8065 18.4032H37.4516V19.1129H37.8065C38.7847 19.1129 39.5806 18.317 39.5806 17.3387V11.6613H38.871V17.3387Z" fill="black"/>
<path d="M36.7419 18.4032H36.0323V19.1129H36.7419V18.4032Z" fill="black"/>
</svg>
