<svg width="60" height="29" viewBox="0 0 60 29" fill="none" xmlns="http://www.w3.org/2000/svg">
<rect x="0.319149" y="0.319149" width="59.3617" height="28.3617" rx="7.34043" fill="white"/>
<rect x="0.319149" y="0.319149" width="59.3617" height="28.3617" rx="7.34043" stroke="#BDC0C2" stroke-width="0.638298"/>
<path fill-rule="evenodd" clip-rule="evenodd" d="M23.178 5.58078H37.9605V18.6783H23.178V5.58078Z" fill="#FCD770"/>
<path fill-rule="evenodd" clip-rule="evenodd" d="M32.894 5.58078V9.54578L30.5693 8.01321L28.244 9.54578V5.58078H32.894Z" fill="#FC6E51"/>
<path fill-rule="evenodd" clip-rule="evenodd" d="M26.6053 10.5188H34.5332V14.113H26.6053V10.5188Z" fill="#E6E7E7"/>
<path d="M41.4472 16.2977C42.7671 14.9777 42.7671 12.8376 41.4472 11.5176C40.1272 10.1977 37.9871 10.1977 36.6671 11.5176C35.3472 12.8376 35.3472 14.9777 36.6671 16.2977C37.9871 17.6176 40.1272 17.6176 41.4472 16.2977Z" fill="#69D6F4"/>
<path fill-rule="evenodd" clip-rule="evenodd" d="M40.8779 18.0273L40.8824 18.0354L40.8839 18.0384C41.0023 18.2664 41.018 18.5041 40.9302 18.7453C40.8423 18.987 40.6778 19.1587 40.4401 19.2572L32.3278 22.6164C31.4295 22.9886 30.554 23.0922 29.5932 22.9414L29.0265 22.8525C28.4563 22.7626 27.9672 22.6011 27.4559 22.333L26.4534 21.8074C25.8182 21.4743 25.1372 21.2889 24.4181 21.2889C23.9926 21.2889 23.5716 21.3539 23.1628 21.4713L21.8374 21.8511V16.2382L26.1371 14.7407C26.747 14.5284 27.3452 14.533 27.952 14.7544L32.0917 16.2662C32.4197 16.386 32.6538 16.6171 32.7777 16.9436C32.9296 17.3432 32.8595 17.6368 32.6604 18.0064C32.4202 18.4523 31.9363 18.6869 31.4376 18.5986L26.617 17.748C26.5616 17.7383 26.5093 17.7749 26.4996 17.8302C26.49 17.8856 26.5266 17.9379 26.5819 17.9481L31.4026 18.7986C31.9332 18.8921 32.4573 18.6773 32.761 18.2314L32.8158 18.1512L40.0227 17.5611C40.3837 17.5311 40.7093 17.7063 40.8779 18.0273Z" fill="#F0D0B4"/>
<path fill-rule="evenodd" clip-rule="evenodd" d="M21.6348 23.3182H17.6602V14.2273H19.5457V19.3582C19.5457 19.4146 19.5914 19.4598 19.6472 19.4598C19.7031 19.4598 19.7488 19.4141 19.7488 19.3582V14.2273H21.6343L21.6348 23.3182Z" fill="#FCD770"/>
<path fill-rule="evenodd" clip-rule="evenodd" d="M39.0609 13.6017C38.6892 13.6017 38.387 13.2995 38.387 12.9273C38.387 12.5556 38.6892 12.2529 39.0609 12.2529C39.3046 12.2529 39.5301 12.3865 39.6505 12.6013C39.7327 12.7481 39.9181 12.8009 40.0648 12.7186C40.2121 12.6363 40.2644 12.451 40.1821 12.3037C40.0054 11.9879 39.7073 11.7654 39.3656 11.6816V11.4668C39.3656 11.2988 39.2295 11.1622 39.0609 11.1622C38.8928 11.1622 38.7562 11.2988 38.7562 11.4668V11.6806C38.1951 11.8177 37.7777 12.3245 37.7777 12.9273C37.7777 13.6352 38.3535 14.2111 39.0609 14.2111C39.4331 14.2111 39.7353 14.5137 39.7353 14.8854C39.7353 15.2572 39.4331 15.5598 39.0609 15.5598C38.8177 15.5598 38.5922 15.4263 38.4718 15.2114C38.3896 15.0647 38.2042 15.0124 38.057 15.0947C37.9102 15.1769 37.8579 15.3623 37.9402 15.5095C38.1169 15.8254 38.415 16.0478 38.7562 16.1316V16.3459C38.7562 16.514 38.8928 16.6506 39.0609 16.6506C39.2295 16.6506 39.3656 16.514 39.3656 16.3459V16.1321C39.9272 15.995 40.3446 15.4882 40.3446 14.8854C40.3446 14.1775 39.7688 13.6017 39.0609 13.6017ZM42.1367 13.9064C42.1367 15.602 40.757 16.9822 39.0609 16.9822C37.3653 16.9822 35.9856 15.6025 35.9856 13.9064C35.9856 12.2103 37.3653 10.8306 39.0609 10.8306C40.757 10.8306 42.1367 12.2103 42.1367 13.9064ZM40.0395 17.7632C40.3228 17.7398 40.5696 17.8749 40.6991 18.1243L40.7037 18.1324C40.7961 18.3101 40.8078 18.4879 40.7392 18.6757C40.6707 18.8641 40.5478 18.9926 40.3624 19.0693L32.2501 22.4285C31.3843 22.787 30.5505 22.886 29.6247 22.7403L29.058 22.6514C28.5009 22.5636 28.05 22.4143 27.5503 22.1527L26.5479 21.6272C25.8598 21.2661 25.1473 21.0853 24.4181 21.0853C23.9865 21.0853 23.5487 21.1488 23.107 21.2757L22.0405 21.5814V16.3825L26.2041 14.9322C26.7703 14.7351 27.3193 14.7392 27.8824 14.9448L32.0221 16.4566C32.2943 16.5561 32.4847 16.744 32.5878 17.0152C32.7041 17.3204 32.6772 17.5464 32.4817 17.91C32.2826 18.2797 31.887 18.4716 31.4732 18.3985L26.6525 17.5479C26.487 17.5189 26.329 17.6291 26.2996 17.7952C26.2706 17.9607 26.3808 18.1192 26.5464 18.1481L31.367 18.9987C31.9871 19.1079 32.5827 18.854 32.9291 18.3457L40.0395 17.7632ZM34.2286 13.8084V10.8234H26.91V13.8084H34.2286ZM23.4827 15.2348L26.004 14.3568C26.1157 14.3177 26.227 14.2857 26.3382 14.2593C26.3143 14.2156 26.3006 14.1659 26.3006 14.1125V10.5188C26.3006 10.3507 26.4372 10.2141 26.6053 10.2141H34.5332C34.7013 10.2141 34.8379 10.3502 34.8379 10.5188V14.113C34.8379 14.2811 34.7013 14.4177 34.5332 14.4177H28.215L32.2313 15.8848C32.6711 16.0453 32.9915 16.3616 33.1581 16.7989C33.2921 17.1508 33.2886 17.4473 33.2205 17.7104L37.7284 17.3412C36.3532 16.806 35.3762 15.4684 35.3762 13.9069C35.3762 12.3728 36.3192 11.0545 37.6553 10.501V7.51504H33.1987V9.54578C33.1987 9.65801 33.1373 9.7611 33.0382 9.81391C32.993 9.83828 32.9433 9.85047 32.8935 9.85047C32.8351 9.85047 32.7767 9.83371 32.7259 9.8002L30.5688 8.37832L28.4116 9.8002C28.3181 9.86164 28.1983 9.86723 28.0993 9.81391C28.0007 9.7611 27.9393 9.65801 27.9393 9.54578V7.51504H23.4827V15.2348ZM23.4827 6.90516H27.9393V5.88496H23.4827V6.90516ZM28.5487 8.98008V5.88496H32.5893V8.98008L30.7368 7.75879C30.6353 7.69176 30.5032 7.69176 30.4012 7.75879L28.5487 8.98008ZM33.1987 6.90516H37.6553V5.88496H33.1987V6.90516ZM21.4317 14.4304H19.9519V19.3582C19.9519 19.5263 19.8153 19.6629 19.6472 19.6629C19.4791 19.6629 19.3425 19.5263 19.3425 19.3582V14.4304H17.8633V23.1145H21.4317V14.4304ZM40.6036 17.2518C40.8723 17.3646 41.0972 17.5682 41.2399 17.8429L41.244 17.8511C41.4151 18.1791 41.4385 18.5366 41.312 18.8845C41.1851 19.2323 40.9378 19.4908 40.5955 19.6325L32.4837 22.9916C31.5097 23.3948 30.5718 23.5066 29.5303 23.3431L28.9636 23.2537C28.345 23.1562 27.822 22.9835 27.2675 22.6925L26.265 22.167C25.3002 21.6612 24.3227 21.5616 23.2755 21.8618L22.0411 22.2162V23.4197C22.0411 23.5878 21.9045 23.7244 21.7364 23.7244H17.5586C17.3905 23.7244 17.2539 23.5878 17.2539 23.4197V14.1257C17.2539 13.9577 17.3905 13.8211 17.5586 13.8211H21.7364C21.9045 13.8211 22.0411 13.9577 22.0411 14.1257V15.737L22.8734 15.4471V5.58028C22.8734 5.41219 23.01 5.27559 23.178 5.27559H37.96C38.1286 5.27559 38.2646 5.41219 38.2646 5.58028V10.309C38.5216 10.2522 38.7877 10.2212 39.0609 10.2212C41.0932 10.2212 42.7461 11.8741 42.7461 13.9064C42.7461 15.3877 41.8671 16.6668 40.6036 17.2518ZM32.9748 12.3159C32.9748 12.5576 32.8397 12.7684 32.6406 12.877V11.7553C32.8392 11.8629 32.9748 12.0742 32.9748 12.3159ZM33.5836 12.3159C33.5836 13.004 33.024 13.5636 32.3359 13.5636C32.1679 13.5636 32.0312 13.427 32.0312 13.2589V11.3729C32.0312 11.2048 32.1673 11.0682 32.3359 11.0682C33.024 11.0677 33.5836 11.6278 33.5836 12.3159ZM31.0994 12.3159C31.0994 12.6678 30.813 12.9542 30.4606 12.9542C30.1087 12.9542 29.8223 12.6678 29.8223 12.3159C29.8223 11.9635 30.1087 11.6771 30.4606 11.6771C30.813 11.6776 31.0994 11.9635 31.0994 12.3159ZM31.7088 12.3159C31.7088 13.004 31.1492 13.5636 30.4611 13.5636C29.773 13.5636 29.2134 13.0035 29.2134 12.3159C29.2134 11.6278 29.7735 11.0677 30.4611 11.0677C31.1492 11.0677 31.7088 11.6278 31.7088 12.3159ZM28.1637 12.3159C28.1637 12.6678 28.4502 12.9542 28.8026 12.9542C28.9707 12.9542 29.1073 13.0908 29.1073 13.2589C29.1073 13.427 28.9712 13.5636 28.8026 13.5636C28.1145 13.5636 27.5549 13.0035 27.5549 12.3159C27.5549 11.6278 28.1145 11.0677 28.8026 11.0677C28.9707 11.0677 29.1073 11.2043 29.1073 11.3724C29.1073 11.5405 28.9712 11.6771 28.8026 11.6771C28.4502 11.6776 28.1637 11.9635 28.1637 12.3159Z" fill="#222124"/>
</svg>
