<svg width="60" height="29" viewBox="0 0 60 29" fill="none" xmlns="http://www.w3.org/2000/svg">
<rect x="0.319149" y="0.319149" width="59.3617" height="28.3617" rx="7.34043" fill="white"/>
<rect x="0.319149" y="0.319149" width="59.3617" height="28.3617" rx="7.34043" stroke="#BDC0C2" stroke-width="0.638298"/>
<path d="M26.9204 15.5731H10V21.4895H26.9204V15.5731Z" fill="#84B740"/>
<path d="M26.9204 7.5H10V13.4217H26.9204V7.5Z" fill="#259BD6"/>
<path d="M43.8407 20.2872L43.7654 20.303C43.5041 20.3557 43.4087 20.3768 43.2178 20.3768C42.7757 20.3768 42.2532 20.1395 42.2532 19.0217C42.2532 18.4469 42.3436 17.6823 43.1675 17.6823H43.1726C43.3132 17.6928 43.474 17.7087 43.7754 17.8036L43.8407 17.8247V20.2872ZM43.9764 14.7136L43.8407 14.7399V16.807L43.7202 16.7701L43.685 16.7595C43.5494 16.7173 43.2379 16.6224 42.9364 16.6224C41.2886 16.6224 40.942 17.9301 40.942 19.0269C40.942 20.5298 41.7458 21.3945 43.1474 21.3945C43.7403 21.3945 44.1773 21.3313 44.6194 21.1783C45.0264 21.0412 45.1721 20.8461 45.1721 20.4296V14.4974C44.7802 14.5712 44.3733 14.645 43.9764 14.7136Z" fill="#27292D"/>
<path d="M48.739 20.3241L48.6687 20.3452L48.4175 20.4137C48.1814 20.477 47.9704 20.5139 47.8096 20.5139C47.4228 20.5139 47.1917 20.3136 47.1917 19.9708C47.1917 19.7493 47.2871 19.375 47.9201 19.375H48.739V20.3241ZM48.1613 16.596C47.6539 16.596 47.1314 16.691 46.4833 16.9019L46.0613 17.0337L46.202 18.0356L46.6139 17.8932C47.046 17.7456 47.5835 17.6507 47.9854 17.6507C48.1663 17.6507 48.7189 17.6507 48.7189 18.2782V18.5524H47.9503C46.5486 18.5524 45.9005 19.0217 45.9005 20.0288C45.9005 20.8883 46.4984 21.4051 47.5031 21.4051C47.8146 21.4051 48.2467 21.3418 48.6184 21.2469L48.6385 21.2416L48.6586 21.2469L48.7842 21.268C49.1761 21.3418 49.583 21.4156 49.9799 21.4947V18.2043C49.9799 17.1392 49.367 16.596 48.1613 16.596Z" fill="#27292D"/>
<path d="M38.9776 20.3241L38.9073 20.3452L38.6561 20.4137C38.42 20.477 38.214 20.5139 38.0482 20.5139C37.6614 20.5139 37.4303 20.3136 37.4303 19.9708C37.4303 19.7493 37.5257 19.375 38.1537 19.375H38.9726L38.9776 20.3241ZM38.4049 16.596C37.8925 16.596 37.375 16.691 36.727 16.9019L36.3049 17.0337L36.4456 18.0356L36.8576 17.8932C37.2896 17.7456 37.8272 17.6507 38.2291 17.6507C38.4099 17.6507 38.9626 17.6507 38.9626 18.2782V18.5524H38.1939C36.7923 18.5524 36.1392 19.0217 36.1392 20.0288C36.1392 20.8883 36.737 21.4051 37.7468 21.4051C38.0583 21.4051 38.4903 21.3418 38.8621 21.2469L38.8822 21.2416L38.9023 21.2469L39.0229 21.268C39.4197 21.3418 39.8217 21.4156 40.2185 21.5V18.2096C40.2236 17.1339 39.6107 16.596 38.4049 16.596Z" fill="#27292D"/>
<path d="M33.6875 16.6066C33.0495 16.6066 32.522 16.8281 32.326 16.923L32.2758 16.9493L32.2306 16.9124C31.9593 16.7068 31.5624 16.6013 31.0098 16.6013C30.5225 16.6013 30.0653 16.6751 29.5679 16.8281C29.1409 16.9652 28.9751 17.1814 28.9751 17.5874V21.3471H30.3115V17.8721L30.3768 17.851C30.6481 17.7561 30.8088 17.7403 30.9646 17.7403C31.3514 17.7403 31.5473 17.9565 31.5473 18.3783V21.3524H32.8636V18.3203C32.8636 18.1411 32.8284 18.0356 32.8234 18.0145L32.7782 17.9249L32.8686 17.8827C33.0696 17.7878 33.2906 17.7403 33.5217 17.7403C33.788 17.7403 34.1045 17.851 34.1045 18.3783V21.3524H35.4157V18.2412C35.4157 17.1392 34.8531 16.6066 33.6875 16.6066Z" fill="#27292D"/>
<path d="M47.7543 11.3599C47.5584 11.3599 47.2318 11.3388 46.9756 11.2861L46.9003 11.2702V9.24011C46.9003 9.07137 46.8701 8.96591 46.8651 8.95009L46.8249 8.86573L46.9103 8.82881C46.9304 8.81827 46.9505 8.81299 46.9756 8.80245L46.9907 8.7919C47.0209 8.78136 47.051 8.77081 47.0811 8.76026C47.0962 8.75499 47.1063 8.74972 47.1163 8.74972C47.4127 8.66535 47.684 8.67589 47.8046 8.66535H47.8096C48.6285 8.66535 48.7239 9.42994 48.7239 10.0047C48.7189 11.1226 48.1914 11.3599 47.7543 11.3599ZM47.7493 7.5C47.7393 7.5 47.7242 7.5 47.7141 7.5C46.9455 7.5 46.1567 7.72147 45.8754 8.15386C45.7247 8.36478 45.6393 8.62844 45.6343 8.93955V11.033C45.6343 11.2122 45.5991 11.2808 45.5941 11.2966L45.5489 11.3863H43.1223V9.93089H43.1173C43.0872 8.39642 42.2231 7.55273 40.9721 7.55273H39.7513C39.7011 7.92712 39.6609 8.19077 39.6107 8.56516H40.8264C41.4645 8.56516 41.8011 9.13465 41.8011 10.01V11.4759L41.7157 11.4284C41.7006 11.4232 41.5951 11.3863 41.4293 11.3863H39.3293C39.2891 11.6657 39.2389 12.0296 39.1836 12.3934H45.6393C45.8603 12.346 46.1166 12.3038 46.3376 12.2669C46.6642 12.4356 47.272 12.5252 47.689 12.5252C49.0907 12.5252 50 11.5392 50 10.0205C49.995 8.5177 49.1158 7.53164 47.7493 7.5Z" fill="#27292D"/>
<path d="M36.4908 13.0104C37.8925 13.0104 38.5456 12.5252 38.5456 11.3282C38.5456 10.4687 37.9478 9.78324 36.943 9.78324H35.6518C35.265 9.78324 35.0339 9.55122 35.0339 9.16102C35.0339 8.89736 35.1294 8.57043 35.7624 8.57043H38.5858C38.6461 8.1855 38.6762 7.94294 38.7315 7.558H35.7975C34.431 7.558 33.7428 8.15913 33.7428 9.16102C33.7428 10.1524 34.3406 10.6691 35.3454 10.6691H36.6365C37.0234 10.6691 37.2545 10.9908 37.2545 11.3282C37.2545 11.5497 37.159 12.0085 36.531 12.0085H36.315L32.1804 11.9979H31.4268C30.7887 11.9979 30.3416 11.6183 30.3416 10.7377V10.1313C30.3416 9.21375 30.6883 8.64426 31.4268 8.64426H32.6526C32.7079 8.25405 32.743 8.00621 32.7933 7.6371H31.1203C29.8694 7.6371 29.0053 8.5177 28.9751 10.0522V10.7377C29.0053 12.2721 29.8694 13.0051 31.1203 13.0051H32.3411L34.5818 13.0104H36.4908Z" fill="#27292D"/>
</svg>
