<svg width="60" height="29" viewBox="0 0 60 29" fill="none" xmlns="http://www.w3.org/2000/svg">
<rect x="0.319149" y="0.319149" width="59.3617" height="28.3617" rx="7.34043" fill="white"/>
<rect x="0.319149" y="0.319149" width="59.3617" height="28.3617" rx="7.34043" stroke="#BDC0C2" stroke-width="0.638298"/>
<path d="M24.048 5.5C21.5102 5.50772 19.0794 6.46133 17.2892 8.15146C15.4991 9.8416 14.4959 12.1301 14.5 14.5145C14.5041 16.899 15.5151 19.1844 17.3111 20.8691C19.1071 22.5538 21.5412 23.5 24.079 23.5C26.6168 23.5 29.0509 22.5538 30.8469 20.8691C32.6429 19.1844 33.6539 16.899 33.658 14.5145C33.6621 12.1301 32.6589 9.8416 30.8688 8.15146C29.0786 6.46133 26.6478 5.50772 24.11 5.5L24.048 5.5Z" fill="#EB001B"/>
<path d="M35.89 5.5C33.3522 5.50772 30.9214 6.46133 29.1312 8.15146C27.3411 9.8416 26.3379 12.1301 26.342 14.5145C26.3461 16.899 27.3571 19.1844 29.1531 20.8691C30.9491 22.5538 33.3832 23.5 35.921 23.5C38.4588 23.5 40.8929 22.5538 42.6889 20.8691C44.4849 19.1844 45.4959 16.899 45.5 14.5145C45.5041 12.1301 44.5009 9.8416 42.7108 8.15146C40.9206 6.46133 38.4898 5.50772 35.952 5.5L35.89 5.5Z" fill="#F79E1B"/>
<path d="M30 7.42234C28.8589 8.26444 27.9364 9.3391 27.302 10.5652C26.6677 11.7913 26.338 13.1367 26.338 14.5C26.338 15.8633 26.6677 17.2088 27.302 18.4349C27.9364 19.6609 28.8589 20.7356 30 21.5777C31.1411 20.7356 32.0636 19.6609 32.698 18.4349C33.3323 17.2088 33.662 15.8633 33.662 14.5C33.662 13.1367 33.3323 11.7913 32.698 10.5652C32.0636 9.3391 31.1411 8.26444 30 7.42234Z" fill="#FF5F00"/>
</svg>
