<svg width="60" height="29" viewBox="0 0 60 29" fill="none" xmlns="http://www.w3.org/2000/svg">
<rect x="0.319149" y="0.319149" width="59.3617" height="28.3617" rx="7.34043" fill="white"/>
<rect x="0.319149" y="0.319149" width="59.3617" height="28.3617" rx="7.34043" stroke="#BDC0C2" stroke-width="0.638298"/>
<path d="M24.3263 11.46H21.8361C21.6657 11.46 21.5207 11.584 21.4942 11.7524L20.487 18.1447C20.467 18.2708 20.5646 18.3845 20.6924 18.3845H21.8812C22.0516 18.3845 22.1965 18.2606 22.2231 18.0918L22.4948 16.3677C22.521 16.199 22.6663 16.075 22.8363 16.075H23.6246C25.265 16.075 26.2117 15.2804 26.4589 13.7057C26.5703 13.0168 26.4636 12.4755 26.1414 12.0965C25.7875 11.6802 25.1597 11.46 24.3263 11.46ZM24.6136 13.7947C24.4774 14.6892 23.7947 14.6892 23.1345 14.6892H22.7587L23.0224 13.0187C23.038 12.9177 23.1254 12.8433 23.2274 12.8433H23.3996C23.8493 12.8433 24.2735 12.8433 24.4927 13.0999C24.6234 13.253 24.6634 13.4805 24.6136 13.7947Z" fill="#253B80"/>
<path d="M31.7699 13.7659H30.5775C30.4759 13.7659 30.3881 13.8402 30.3725 13.9412L30.3197 14.2751L30.2363 14.1541C29.9781 13.779 29.4024 13.6536 28.8279 13.6536C27.5101 13.6536 26.3846 14.6527 26.1654 16.0542C26.0515 16.7534 26.2135 17.4219 26.6097 17.8881C26.973 18.3167 27.493 18.4953 28.1116 18.4953C29.1734 18.4953 29.7622 17.8119 29.7622 17.8119L29.709 18.1436C29.689 18.2704 29.7866 18.3842 29.9137 18.3842H30.9878C31.1586 18.3842 31.3028 18.2602 31.3297 18.0915L31.9742 14.0057C31.9946 13.88 31.8974 13.7659 31.7699 13.7659ZM30.1077 16.0892C29.9927 16.7712 29.452 17.229 28.7623 17.229C28.4161 17.229 28.1393 17.1179 27.9616 16.9072C27.7854 16.698 27.7184 16.4002 27.7745 16.0685C27.8819 15.3923 28.4317 14.9195 29.1108 14.9195C29.4494 14.9195 29.7247 15.0322 29.906 15.2447C30.0877 15.4594 30.1598 15.759 30.1077 16.0892Z" fill="#253B80"/>
<path d="M38.1209 13.7659H36.9226C36.8083 13.7659 36.7008 13.8228 36.636 13.9179L34.9833 16.355L34.2827 14.013C34.2387 13.8665 34.1036 13.7659 33.9506 13.7659H32.7731C32.63 13.7659 32.5306 13.9059 32.5761 14.0407L33.896 17.9183L32.6551 19.6719C32.5575 19.8101 32.6558 20 32.8244 20H34.0213C34.1349 20 34.2412 19.9446 34.3057 19.8513L38.2913 14.0921C38.3867 13.9543 38.2888 13.7659 38.1209 13.7659Z" fill="#253B80"/>
<path d="M42.0883 11.46H39.5978C39.4277 11.46 39.2828 11.584 39.2562 11.7524L38.2491 18.1447C38.229 18.2708 38.3266 18.3845 38.4537 18.3845H39.7318C39.8505 18.3845 39.952 18.2978 39.9706 18.1797L40.2565 16.3677C40.2827 16.199 40.428 16.075 40.598 16.075H41.3859C43.0267 16.075 43.973 15.2804 44.2206 13.7057C44.3324 13.0168 44.225 12.4755 43.9027 12.0965C43.5492 11.6802 42.9218 11.46 42.0883 11.46ZM42.3756 13.7947C42.2398 14.6892 41.5571 14.6892 40.8966 14.6892H40.5212L40.7852 13.0187C40.8008 12.9177 40.8875 12.8433 40.9898 12.8433H41.162C41.6113 12.8433 42.0359 12.8433 42.2551 13.0999C42.3858 13.253 42.4255 13.4805 42.3756 13.7947Z" fill="#179BD7"/>
<path d="M49.5316 13.7659H48.3399C48.2376 13.7659 48.1505 13.8402 48.1352 13.9412L48.0825 14.2751L47.9987 14.1541C47.7405 13.779 47.1652 13.6536 46.5907 13.6536C45.2729 13.6536 44.1478 14.6527 43.9286 16.0542C43.815 16.7534 43.9763 17.4219 44.3724 17.8881C44.7366 18.3167 45.2558 18.4953 45.8744 18.4953C46.9362 18.4953 47.525 17.8119 47.525 17.8119L47.4718 18.1436C47.4518 18.2704 47.5494 18.3842 47.6772 18.3842H48.751C48.921 18.3842 49.0659 18.2602 49.0925 18.0915L49.7374 14.0057C49.757 13.88 49.6594 13.7659 49.5316 13.7659ZM47.8694 16.0892C47.7551 16.7712 47.2137 17.229 46.524 17.229C46.1785 17.229 45.901 17.1179 45.7233 16.9072C45.5471 16.698 45.4808 16.4002 45.5362 16.0685C45.6443 15.3923 46.1934 14.9195 46.8725 14.9195C47.2111 14.9195 47.4864 15.0322 47.6677 15.2447C47.8501 15.4594 47.9222 15.759 47.8694 16.0892Z" fill="#179BD7"/>
<path d="M50.9375 11.6354L49.9154 18.1447C49.8954 18.2708 49.993 18.3845 50.1201 18.3845H51.1476C51.3184 18.3845 51.4633 18.2606 51.4895 18.0918L52.4974 11.6999C52.5174 11.5738 52.4198 11.4597 52.2927 11.4597H51.1421C51.0405 11.46 50.9532 11.5344 50.9375 11.6354Z" fill="#179BD7"/>
<path d="M10.1457 19.6267L10.3361 18.4159L9.91192 18.406H7.88633L9.29401 9.47094C9.29838 9.44397 9.31258 9.41882 9.33334 9.40095C9.35409 9.38309 9.38067 9.37325 9.40834 9.37325H12.8238C13.9576 9.37325 14.7401 9.60945 15.1487 10.0757C15.3402 10.2944 15.4622 10.5229 15.5212 10.7744C15.5831 11.0383 15.5842 11.3536 15.5237 11.7382L15.5193 11.7662V12.0126L15.7109 12.1212C15.8722 12.2069 16.0003 12.305 16.0987 12.4172C16.2625 12.6042 16.3685 12.8419 16.4133 13.1236C16.4595 13.4134 16.4442 13.7582 16.3685 14.1486C16.2811 14.5977 16.1398 14.9888 15.949 15.3088C15.7735 15.6037 15.5499 15.8483 15.2845 16.0378C15.0311 16.2179 14.7299 16.3546 14.3895 16.4421C14.0596 16.5281 13.6835 16.5715 13.2709 16.5715H13.0051C12.815 16.5715 12.6304 16.64 12.4855 16.7628C12.3402 16.8882 12.2441 17.0595 12.2146 17.2469L12.1946 17.3559L11.8581 19.4901L11.8428 19.5684C11.8388 19.5932 11.8319 19.6056 11.8217 19.614C11.8126 19.6216 11.7995 19.6267 11.7868 19.6267H10.1457Z" fill="#253B80"/>
<path d="M15.8922 11.7947C15.882 11.8599 15.8704 11.9266 15.8572 11.9951C15.4068 14.3101 13.8659 15.1098 11.8978 15.1098H10.8958C10.6551 15.1098 10.4523 15.2848 10.4148 15.5224L9.90172 18.7796L9.75644 19.7029C9.73205 19.8589 9.8522 19.9996 10.0095 19.9996H11.7868C11.9972 19.9996 12.176 19.8465 12.2091 19.6388L12.2266 19.5484L12.5612 17.4226L12.5827 17.306C12.6155 17.0975 12.7946 16.9444 13.0051 16.9444H13.2709C14.9928 16.9444 16.3408 16.2445 16.7348 14.2193C16.8994 13.3733 16.8141 12.6669 16.3787 12.1701C16.2469 12.0203 16.0834 11.896 15.8922 11.7947Z" fill="#179BD7"/>
<path d="M15.421 11.6066C15.3522 11.5865 15.2812 11.5683 15.2084 11.5519C15.1352 11.5359 15.0602 11.5216 14.983 11.5092C14.7128 11.4655 14.4168 11.4447 14.0996 11.4447H11.4226C11.3567 11.4447 11.2941 11.4597 11.238 11.4866C11.1146 11.5461 11.0228 11.6631 11.0006 11.8063L10.4312 15.4171L10.4148 15.5224C10.4523 15.2848 10.6551 15.1098 10.8958 15.1098H11.8978C13.8659 15.1098 15.4068 14.3101 15.8572 11.9951C15.8707 11.9266 15.882 11.8599 15.8922 11.7947C15.7782 11.7341 15.6548 11.6824 15.5219 11.6383C15.4891 11.6273 15.4553 11.6168 15.421 11.6066Z" fill="#222D65"/>
<path d="M11.0006 11.8063C11.0228 11.6631 11.1146 11.5457 11.238 11.4866C11.2945 11.4597 11.3567 11.4451 11.4226 11.4451H14.0996C14.4168 11.4451 14.7128 11.4659 14.983 11.5096C15.0602 11.522 15.1352 11.5359 15.2084 11.5519C15.2812 11.5683 15.3522 11.5865 15.421 11.6066C15.4553 11.6168 15.4888 11.6277 15.5219 11.6383C15.6548 11.6824 15.7782 11.7341 15.8922 11.7947C16.0262 10.9392 15.8915 10.3567 15.4294 9.82925C14.92 9.24859 14.0006 9 12.8241 9H9.4087C9.16839 9 8.96339 9.17496 8.92625 9.41298L7.50364 18.4399C7.4756 18.6185 7.61324 18.7796 7.79311 18.7796H9.90172L10.4312 15.4171L11.0006 11.8063Z" fill="#253B80"/>
</svg>
