<svg width="60" height="29" viewBox="0 0 60 29" fill="none" xmlns="http://www.w3.org/2000/svg">
<rect x="0.319149" y="0.319149" width="59.3617" height="28.3617" rx="7.34043" fill="white"/>
<rect x="0.319149" y="0.319149" width="59.3617" height="28.3617" rx="7.34043" stroke="#BDC0C2" stroke-width="0.638298"/>
<path d="M28.776 11.6516C28.8016 11.6649 28.8208 11.6782 28.8465 11.6915C29.0131 11.7913 29.167 11.9044 29.3208 12.0241C29.3401 12.0374 29.3593 12.0507 29.3721 12.064C29.526 12.1771 29.6478 12.3235 29.7695 12.4698C29.7824 12.4832 29.7888 12.4965 29.8016 12.5098C30.1349 12.9222 30.4362 13.4478 30.558 13.9733C30.5409 14.0221 30.5195 14.0532 30.4939 14.0665C30.3721 14.1197 30.2503 14.1663 30.1285 14.2062C30.1093 14.2062 30.0901 14.2195 30.0708 14.2261C30.0324 14.2394 29.9939 14.2527 29.9554 14.266C29.8529 14.2993 29.7503 14.3326 29.6478 14.3658C29.6285 14.3658 29.6093 14.3791 29.5901 14.3858C29.449 14.4324 29.3016 14.4856 29.1606 14.5388C28.8443 14.6541 28.6456 14.7073 28.5644 14.6985C28.5067 14.6386 28.5003 14.592 28.4747 14.5188C28.2888 14.0066 27.9106 13.634 27.4362 13.4079C26.9555 13.1883 26.3401 13.2149 25.8529 13.3946C25.3017 13.6274 24.8914 14.0399 24.6542 14.6053C24.6158 14.7118 24.5773 14.8249 24.5388 14.9313C24.5324 14.9513 24.526 14.9712 24.5196 14.9912C24.3081 15.6165 24.4106 16.4148 24.6735 17.0135C24.682 17.0313 24.6906 17.0512 24.6991 17.0734C24.7055 17.0934 24.7183 17.1133 24.7247 17.1333C24.7953 17.2863 24.885 17.4127 24.994 17.5391C25.0068 17.5524 25.0196 17.5724 25.0324 17.5857C25.2504 17.8651 25.5388 18.038 25.8529 18.1711C25.8786 18.1844 25.9021 18.1955 25.9234 18.2044C26.4042 18.4172 26.9939 18.3707 27.4747 18.1777C27.6927 18.078 27.8914 17.9582 28.0709 17.7919C28.0837 17.7786 28.0965 17.7653 28.1157 17.752C28.3337 17.5458 28.4619 17.2796 28.5773 17.0002C28.6029 16.947 28.6307 16.9049 28.6606 16.8738C28.7952 16.8805 28.9042 16.9138 29.0324 16.9603C29.0516 16.9603 29.0644 16.9736 29.0837 16.9803C29.1413 17.0002 29.199 17.0202 29.2503 17.0402C29.2888 17.0535 29.3272 17.0668 29.3657 17.0801C29.4234 17.1 29.4811 17.12 29.5388 17.1399C29.6798 17.1932 29.8208 17.2397 29.9618 17.2863C30.1029 17.3329 30.2439 17.3861 30.3913 17.4327C30.4106 17.4327 30.4234 17.446 30.4426 17.4526C30.5067 17.4792 30.5516 17.4925 30.6029 17.5458C30.5195 18.0913 30.1798 18.6767 29.8144 19.0692C29.7824 19.1025 29.7567 19.1357 29.7311 19.169C29.7183 19.1823 29.7054 19.2022 29.6926 19.2155C29.667 19.2488 29.6413 19.2821 29.6157 19.3153C29.4747 19.4816 29.2824 19.5947 29.1093 19.7211C29.0708 19.7478 29.026 19.781 28.9875 19.8076C28.7503 19.9739 28.5132 20.107 28.2375 20.1935C28.2119 20.2001 28.1862 20.2134 28.1606 20.2201C26.9875 20.6259 25.6734 20.5394 24.5645 19.9673C24.2376 19.7943 23.9427 19.5881 23.6799 19.3286C23.635 19.2887 23.5901 19.2422 23.5389 19.2022C23.3337 19.016 23.1671 18.7831 23.0132 18.5503C22.9876 18.5104 22.9555 18.4705 22.9299 18.4305C22.8594 18.3241 22.7953 18.2177 22.7376 18.1046C22.7248 18.078 22.712 18.0513 22.6991 18.0247C22.5196 17.6655 22.3658 17.2797 22.2889 16.8872C22.2889 16.8672 22.2825 16.8472 22.2761 16.8273C22.2055 16.4747 22.1863 16.1221 22.1927 15.7562C22.1927 15.7363 22.1927 15.7163 22.1927 15.6897C22.1927 15.3238 22.2055 14.9579 22.2953 14.5987C22.2953 14.5787 22.3081 14.5588 22.3081 14.5388C22.4299 14.0465 22.603 13.5609 22.8786 13.1285C22.8914 13.1085 22.9043 13.0819 22.9171 13.0619C23.0196 12.8956 23.135 12.7426 23.2632 12.5896C23.2803 12.5674 23.2995 12.5452 23.3209 12.5231C24.6286 10.9797 27.0773 10.6204 28.776 11.6316V11.6516Z" fill="#470884"/>
<path d="M11.7954 11.2724C11.8147 11.2724 11.8339 11.2857 11.8531 11.2923C12.3275 11.4387 12.7698 11.6715 13.148 12.0042C13.1651 12.0175 13.18 12.0308 13.1928 12.0441C13.5967 12.3967 13.9236 12.9555 13.9813 13.5076C13.9728 13.552 13.9642 13.5919 13.9557 13.6274C13.7377 13.6806 13.5198 13.7272 13.2954 13.7738C13.1993 13.7937 13.1095 13.8203 13.0134 13.8403C12.8852 13.8735 12.7634 13.9068 12.6352 13.9334C12.6031 13.9401 12.5775 13.9467 12.5454 13.9534C12.5006 13.9667 12.4557 13.9733 12.4108 13.9866C12.3852 13.9911 12.3595 13.9977 12.3339 14.0066C12.2634 14.0199 12.1993 14.0199 12.1224 14.0199C12.1159 13.9933 12.1031 13.96 12.0967 13.9334C11.9621 13.521 11.7313 13.2282 11.3595 13.0287C10.9365 12.8158 10.398 12.8091 9.9493 12.9422C9.70572 13.0353 9.45572 13.2282 9.33393 13.4677C9.2506 13.6607 9.25701 13.7937 9.32111 13.9866C9.42367 14.2328 9.57751 14.3791 9.81469 14.4922C10.2249 14.6519 10.6737 14.7251 11.0967 14.8116C11.2249 14.8382 11.3595 14.8648 11.4877 14.8914C11.507 14.8914 11.5198 14.898 11.539 14.9047C12.18 15.0444 12.7954 15.2772 13.289 15.7363C13.3018 15.7451 13.3125 15.7562 13.3211 15.7695C13.648 16.0755 13.898 16.488 13.9877 16.9337C14.0069 17.0002 14.0198 17.0601 14.039 17.1266C14.1736 17.7254 14.039 18.4239 13.7441 18.9428C13.7313 18.9627 13.7249 18.9761 13.7121 18.996C13.7057 19.0093 13.6928 19.0293 13.6864 19.0426C13.5262 19.322 13.3146 19.5548 13.0582 19.7478C13.039 19.7677 13.0134 19.781 12.9941 19.801C12.8211 19.934 12.648 20.0205 12.4493 20.1003C12.4044 20.1203 12.3659 20.1403 12.3211 20.1602C12.1865 20.2267 12.0454 20.2667 11.9044 20.3066C11.8788 20.3132 11.8531 20.3199 11.8275 20.3332C11.4493 20.4396 11.0519 20.4795 10.6608 20.4995C10.6437 20.4995 10.6266 20.4995 10.6096 20.4995C10.2826 20.5061 9.94289 20.4463 9.62239 20.3797C9.60957 20.3797 9.59033 20.3797 9.57751 20.3731C9.01342 20.2533 8.42368 20.0205 7.9942 19.608C7.94933 19.5748 7.91087 19.5349 7.866 19.5016C7.68651 19.3486 7.53908 19.169 7.40447 18.9761C7.39165 18.9627 7.37883 18.9428 7.37242 18.9295C7.1737 18.6368 6.98781 18.1977 7.00063 17.8318C7.14806 17.7786 7.29549 17.7387 7.44934 17.7121C7.53908 17.6921 7.62241 17.6722 7.70575 17.6522C7.90446 17.599 8.10959 17.5524 8.31471 17.4992C8.35317 17.4925 8.39804 17.4792 8.4365 17.4726C8.4942 17.4593 8.5583 17.446 8.61599 17.4327C8.63308 17.4282 8.65231 17.4238 8.67368 17.4194C8.77624 17.3972 8.85317 17.3972 8.90445 17.4194C8.92368 17.4792 8.9365 17.5391 8.94932 17.599C9.01983 17.885 9.18008 18.1179 9.39803 18.3108C9.41085 18.3241 9.42367 18.3308 9.43649 18.3441C9.83392 18.69 10.4172 18.7698 10.9172 18.7299C11.2377 18.69 11.5326 18.5836 11.7506 18.3308C11.8018 18.2642 11.8467 18.1911 11.8852 18.1179C11.8916 18.1046 11.9044 18.0913 11.9108 18.078C11.9621 17.9316 11.9557 17.7254 11.9108 17.579C11.8852 17.5191 11.8531 17.4659 11.8211 17.4127C11.8147 17.3994 11.8083 17.3861 11.8018 17.3661C11.6801 17.1466 11.3916 17.0402 11.1672 16.967C11.1352 16.9537 11.1031 16.9404 11.0775 16.9271C11.0198 16.9005 10.9621 16.8872 10.898 16.8738C10.5647 16.8073 10.2378 16.7208 9.90443 16.6344C9.87879 16.6277 9.85315 16.621 9.8211 16.6144C9.35957 16.5013 8.91727 16.3549 8.50061 16.1221C8.47497 16.1088 8.45573 16.0955 8.43009 16.0888C8.28266 16.009 8.15446 15.9092 8.02625 15.7961C8.00916 15.7784 7.98993 15.7607 7.96856 15.7429C7.7378 15.5367 7.58395 15.3238 7.43652 15.0444C7.43011 15.0244 7.41729 15.0111 7.41088 14.9912C7.14806 14.4989 7.15447 13.8137 7.29549 13.2881C7.30831 13.2415 7.32754 13.1883 7.34678 13.1418C7.34678 13.1285 7.35319 13.1085 7.3596 13.0952C7.51344 12.5696 7.85959 12.104 8.29548 11.8046C8.31471 11.7913 8.33394 11.7713 8.35958 11.758C8.53266 11.6316 8.71855 11.5385 8.91086 11.452C8.94932 11.4321 8.98778 11.4121 9.01983 11.3921C9.10957 11.3456 9.20572 11.3256 9.30188 11.299C9.32111 11.299 9.33393 11.2923 9.35316 11.2857C9.37239 11.2857 9.38521 11.279 9.40444 11.2724C9.44931 11.2591 9.48777 11.2458 9.53264 11.2391C10.2634 11.0262 11.0583 11.0662 11.7826 11.2857L11.7954 11.2724Z" fill="#480984"/>
<path d="M15.0646 11.1992C15.0838 11.1992 15.1095 11.1992 15.1287 11.1992C15.1544 11.1992 15.18 11.1992 15.2056 11.1992C15.2313 11.1992 15.2569 11.1992 15.2826 11.1992C15.3531 11.1992 15.4236 11.1992 15.5005 11.1992C15.5774 11.1992 15.6544 11.1992 15.7313 11.1992C15.8851 11.1992 16.0326 11.1992 16.1864 11.1992C16.3082 11.1992 16.4364 11.1992 16.5582 11.1992C16.5753 11.1992 16.5924 11.1992 16.6095 11.1992C16.6479 11.1992 16.68 11.1992 16.7184 11.1992C17.0518 11.1992 17.3915 11.1992 17.7248 11.1992C18.0133 11.1992 18.3018 11.1992 18.5902 11.1992C18.9235 11.1992 19.2569 11.1992 19.5902 11.1992C19.6287 11.1992 19.6607 11.1992 19.6992 11.1992C19.7184 11.1992 19.7312 11.1992 19.7505 11.1992C19.8722 11.1992 19.994 11.1992 20.1222 11.1992C20.2697 11.1992 20.4235 11.1992 20.571 11.1992C20.6479 11.1992 20.7248 11.1992 20.8017 11.1992C21.2547 11.1992 21.5538 11.2081 21.6991 11.2258C21.7376 11.2657 21.7248 11.319 21.7248 11.3722C21.7248 11.3899 21.7248 11.4077 21.7248 11.4254C21.7248 11.4431 21.7248 11.4631 21.7248 11.4853C21.7248 11.5451 21.7248 11.6117 21.7248 11.6715C21.7248 11.7115 21.7248 11.758 21.7248 11.7979C21.7248 11.8911 21.7248 11.9776 21.7248 12.0707C21.7248 12.1838 21.7248 12.3035 21.7248 12.4166C21.7248 12.5031 21.7248 12.5962 21.7248 12.6827C21.7248 12.7226 21.7248 12.7692 21.7248 12.8091C21.7248 12.869 21.7248 12.9289 21.7248 12.9887C21.7248 13.0087 21.7248 13.022 21.7248 13.042C21.7248 13.1218 21.7162 13.1706 21.6991 13.1883C21.5132 13.2216 21.3274 13.2149 21.1415 13.2149C21.0902 13.2149 21.0389 13.2149 20.9876 13.2149C20.8594 13.2149 20.7376 13.2149 20.6094 13.2149C20.5004 13.2149 20.3979 13.2149 20.2889 13.2149C20.2376 13.2149 20.1928 13.2149 20.1415 13.2149C19.9812 13.2149 19.8274 13.2149 19.6671 13.2216C19.6351 13.2216 19.6094 13.2216 19.5774 13.2216C19.5005 13.2349 19.4812 13.2415 19.4364 13.3014C19.4278 13.3369 19.4257 13.3746 19.4299 13.4145C19.4299 13.4367 19.4299 13.4611 19.4299 13.4877C19.4299 13.5143 19.4299 13.5409 19.4299 13.5675C19.4299 13.5941 19.4299 13.6207 19.4299 13.654C19.4299 13.7338 19.4299 13.807 19.4299 13.8868C19.4299 13.9733 19.4299 14.0532 19.4299 14.1396C19.4299 14.286 19.4299 14.4324 19.4299 14.5787C19.4299 14.7916 19.4299 14.9978 19.4299 15.2107C19.4299 15.55 19.4299 15.8959 19.4299 16.2352C19.4299 16.5678 19.4299 16.9005 19.4299 17.2331C19.4299 17.2553 19.4299 17.2752 19.4299 17.293C19.4299 17.5191 19.4299 17.7387 19.4299 17.9649C19.4299 17.9848 19.4299 18.0048 19.4299 18.0247C19.4299 18.1046 19.4299 18.1844 19.4299 18.2576C19.4299 18.4838 19.4299 18.7166 19.4299 18.9428C19.4299 19.0891 19.4299 19.2288 19.4299 19.3752C19.4299 19.455 19.4299 19.5415 19.4299 19.6214C19.4299 19.7145 19.4299 19.801 19.4299 19.8941C19.4299 19.9207 19.4299 19.9473 19.4299 19.9739C19.4299 19.9961 19.4299 20.0205 19.4299 20.0471C19.4299 20.0671 19.4299 20.087 19.4299 20.107C19.4299 20.138 19.4214 20.1624 19.4043 20.1802C19.353 20.1802 19.3017 20.1802 19.2569 20.1868C19.244 20.1868 19.2248 20.1868 19.212 20.1868C19.1607 20.1868 19.1094 20.1868 19.0582 20.1868C19.0411 20.1868 19.024 20.1868 19.0069 20.1868C18.7184 20.1935 18.4235 20.2001 18.1351 20.2001C18.1159 20.2001 18.0966 20.2001 18.0838 20.2001C17.8851 20.2001 17.68 20.2001 17.4813 20.1868C17.4642 20.1868 17.4449 20.1868 17.4236 20.1868C17.3381 20.1824 17.2868 20.1713 17.2697 20.1536C17.2697 20.1203 17.2697 20.0804 17.2697 20.0471C17.2697 20.0205 17.2697 20.0005 17.2697 19.9739C17.2697 19.9473 17.2697 19.9207 17.2697 19.8941C17.2697 19.8675 17.2697 19.8409 17.2697 19.8076C17.2697 19.7278 17.2697 19.6546 17.2697 19.5748C17.2697 19.4883 17.2697 19.4085 17.2697 19.322C17.2697 19.1756 17.2697 19.0293 17.2697 18.8896C17.2697 18.6634 17.2697 18.4305 17.2697 18.2044C17.2697 18.1245 17.2697 18.0447 17.2697 17.9715C17.2697 17.9516 17.2697 17.9316 17.2697 17.9116C17.2697 17.6921 17.2697 17.4659 17.2697 17.2464C17.2697 17.2264 17.2697 17.2065 17.2697 17.1865C17.2697 16.8539 17.2697 16.5279 17.2697 16.1953C17.2697 15.856 17.2697 15.5167 17.2697 15.1774C17.2697 14.9712 17.2697 14.7583 17.2697 14.5521C17.2697 14.4057 17.2697 14.266 17.2697 14.1197C17.2697 14.0399 17.2697 13.9534 17.2697 13.8735C17.2697 13.7871 17.2697 13.6939 17.2697 13.6074C17.2697 13.5808 17.2697 13.5542 17.2697 13.5276C17.2697 13.501 17.2697 13.481 17.2697 13.4544C17.2697 13.4323 17.2697 13.4123 17.2697 13.3946C17.2569 13.328 17.2377 13.2948 17.1928 13.2482C17.1287 13.2415 17.071 13.2349 17.0069 13.2349C16.9877 13.2349 16.9684 13.2349 16.9492 13.2349C16.8851 13.2349 16.821 13.2349 16.7569 13.2349C16.712 13.2349 16.6672 13.2349 16.6223 13.2349C16.5069 13.2349 16.3915 13.2349 16.2761 13.2349C16.0902 13.2349 15.9044 13.2349 15.7185 13.2349C15.6544 13.2349 15.5903 13.2349 15.5262 13.2349C15.4877 13.2349 15.4492 13.2349 15.4044 13.2349C15.3851 13.2349 15.3659 13.2349 15.3531 13.2349C15.1309 13.2349 15.0048 13.2172 14.9749 13.1817C14.9749 13.1218 14.9749 13.0619 14.9749 13.0021C14.9749 12.9821 14.9749 12.9621 14.9749 12.9422C14.9749 12.8823 14.9749 12.8158 14.9749 12.7559C14.9749 12.7093 14.9749 12.6694 14.9749 12.6229C14.9749 12.5297 14.9749 12.4432 14.9749 12.3501C14.9749 12.2304 14.9749 12.1173 14.9749 11.9975C14.9749 11.9044 14.9749 11.8179 14.9749 11.7248C14.9749 11.6782 14.9749 11.6383 14.9749 11.5917C14.9749 11.5318 14.9749 11.472 14.9749 11.4121C14.9749 11.3921 14.9749 11.3788 14.9749 11.3589C14.9749 11.2569 15.0176 11.2059 15.1031 11.2059L15.0646 11.1992Z" fill="#470884"/>
<path d="M33.0964 8.50492C33.1157 8.50492 33.1349 8.50492 33.1605 8.50492C33.1862 8.50492 33.2054 8.50492 33.231 8.50492C33.2567 8.50492 33.2802 8.50492 33.3015 8.50492C33.3785 8.50492 33.4618 8.50492 33.5387 8.50492C33.5964 8.50492 33.6477 8.50492 33.7054 8.50492C33.8208 8.50492 33.9362 8.50492 34.0515 8.50492C34.199 8.50492 34.3464 8.50492 34.4938 8.50492C34.6092 8.50492 34.7246 8.50492 34.8336 8.50492C34.8849 8.50492 34.9426 8.50492 34.9938 8.50492C35.2438 8.50492 35.4938 8.50492 35.7438 8.51823C35.7631 8.51823 35.7759 8.51823 35.7951 8.51823C35.8977 8.51823 35.981 8.54484 36.0707 8.58475C36.1156 8.60471 36.1541 8.61136 36.2054 8.62467C36.5771 8.7178 36.8977 8.94399 37.1028 9.27662C37.3335 9.70238 37.3528 10.1747 37.2438 10.6404C37.2182 10.7136 37.1925 10.7801 37.1541 10.8533C37.1412 10.8732 37.1348 10.8932 37.122 10.9131C37.0066 11.1194 36.8912 11.2724 36.6861 11.3855C36.6412 11.4121 36.6028 11.4454 36.5707 11.4853C36.6028 11.5651 36.6348 11.5984 36.7053 11.6449C36.7246 11.6582 36.7438 11.6715 36.763 11.6848C36.8143 11.7181 36.872 11.7447 36.9233 11.778C37.0194 11.8312 37.0771 11.8977 37.1412 11.9842C37.1669 12.0153 37.1947 12.0463 37.2246 12.0773C37.3015 12.1638 37.34 12.2769 37.3848 12.3834C37.3912 12.4033 37.4041 12.4233 37.4105 12.4432C37.6092 12.9222 37.59 13.4744 37.4297 13.96C37.4041 14.0265 37.372 14.0864 37.34 14.1463C37.3271 14.1729 37.3143 14.1929 37.3015 14.2195C37.1476 14.4989 36.9746 14.6852 36.7118 14.8515C36.6989 14.8581 36.6861 14.8714 36.6733 14.8781C36.5643 14.9513 36.4618 14.9978 36.34 15.0377C36.3229 15.0422 36.3058 15.0488 36.2887 15.0577C36.1348 15.1109 35.981 15.1442 35.8207 15.1708C35.7823 15.1708 35.7438 15.1841 35.7054 15.1907C35.4297 15.2373 35.1477 15.2307 34.872 15.2307C34.8208 15.2307 34.7631 15.2307 34.7118 15.2307C34.6028 15.2307 34.4874 15.2307 34.3785 15.2307C34.2374 15.2307 34.09 15.2307 33.949 15.2307C33.84 15.2307 33.731 15.2307 33.6156 15.2307C33.5644 15.2307 33.5067 15.2307 33.4554 15.2307C33.3849 15.2307 33.308 15.2307 33.2374 15.2307C33.2182 15.2307 33.1926 15.2307 33.1733 15.2307C33.1541 15.2307 33.1349 15.2307 33.1157 15.2307C33.0986 15.2307 33.0815 15.2307 33.0644 15.2307C33.0473 15.2307 33.0259 15.2218 33.0003 15.2041C33.0003 15.1708 33.0003 15.1309 33.0003 15.0976C33.0003 15.0777 33.0003 15.051 33.0003 15.0244C33.0003 14.9978 33.0003 14.9712 33.0003 14.9446C33.0003 14.918 33.0003 14.8914 33.0003 14.8648C33.0003 14.7916 33.0003 14.7118 33.0003 14.6386C33.0003 14.5588 33.0003 14.4723 33.0003 14.3924C33.0003 14.2328 33.0003 14.0731 33.0003 13.9135C33.0003 13.7804 33.0003 13.654 33.0003 13.521C33.0003 13.501 33.0003 13.481 33.0003 13.4677C33.0003 13.4278 33.0003 13.3946 33.0003 13.3546C33.0003 13.0021 33.0003 12.6495 33.0003 12.2969C33.0003 11.9909 33.0003 11.6915 33.0003 11.3855C33.0003 11.0329 33.0003 10.6803 33.0003 10.3344C33.0003 10.2945 33.0003 10.2612 33.0003 10.2213C33.0003 10.2013 33.0003 10.1814 33.0003 10.1681C33.0003 10.035 33.0003 9.90861 33.0003 9.77556C33.0003 9.6159 33.0003 9.45624 33.0003 9.30323C33.0003 9.2234 33.0003 9.14357 33.0003 9.06374C33.0003 8.97725 33.0003 8.89077 33.0003 8.80429C33.0003 8.77768 33.0003 8.75107 33.0003 8.72446C33.0003 8.7045 33.0003 8.67789 33.0003 8.65128C33.0003 8.63132 33.0003 8.61136 33.0003 8.59141C33.0003 8.50492 33.0515 8.51823 33.1221 8.51823L33.0964 8.50492ZM33.9938 9.46954C33.9362 9.58929 33.9554 9.72899 33.9554 9.86204C33.9554 9.89531 33.9554 9.92857 33.9554 9.96183C33.9554 10.035 33.9554 10.1082 33.9554 10.1747C33.9554 10.2679 33.9554 10.361 33.9554 10.4475C33.9554 10.5206 33.9554 10.5872 33.9554 10.6604C33.9554 10.6936 33.9554 10.7269 33.9554 10.7601C33.9554 10.8067 33.9554 10.8533 33.9554 10.8998C33.9554 10.9265 33.9554 10.9531 33.9554 10.9797C33.9746 11.0728 34.0067 11.1127 34.0836 11.1659C34.1263 11.1793 34.1691 11.1837 34.2118 11.1793C34.2374 11.1793 34.2631 11.1793 34.2887 11.1793C34.3144 11.1793 34.3464 11.1793 34.372 11.1793C34.3977 11.1793 34.4297 11.1793 34.4618 11.1793C34.5195 11.1793 34.5836 11.1793 34.6413 11.1793C34.7182 11.1793 34.7951 11.1793 34.872 11.1793C35.2994 11.1881 35.6968 11.0883 36.0643 10.8799C36.2502 10.6803 36.3271 10.494 36.3271 10.2213C36.3143 9.96849 36.2118 9.79552 36.0259 9.62255C35.6733 9.33649 35.2182 9.37641 34.7951 9.37641C34.7118 9.37641 34.622 9.37641 34.5387 9.37641C34.481 9.37641 34.4297 9.37641 34.372 9.37641C34.3464 9.37641 34.3208 9.37641 34.2951 9.37641C34.1797 9.37641 34.0772 9.40523 33.9874 9.46289L33.9938 9.46954ZM34.0131 12.1173C33.9682 12.2037 33.9618 12.2836 33.9618 12.3767C33.9618 12.3967 33.9618 12.4166 33.9618 12.4366C33.9618 12.4965 33.9618 12.563 33.9618 12.6229C33.9618 12.6694 33.9618 12.7093 33.9618 12.7559C33.9618 12.849 33.9618 12.9422 33.9618 13.0287C33.9618 13.1484 33.9618 13.2615 33.9618 13.3812C33.9618 13.4744 33.9618 13.5609 33.9618 13.654C33.9618 13.7006 33.9618 13.7405 33.9618 13.7871C33.9618 13.8469 33.9618 13.9068 33.9618 13.9667C33.9618 13.9866 33.9618 13.9999 33.9618 14.0199C33.9618 14.1263 33.9746 14.1929 34.0387 14.2727C34.1156 14.3259 34.1349 14.3259 34.2246 14.3259C34.2503 14.3259 34.2695 14.3259 34.2951 14.3259C34.3208 14.3259 34.3464 14.3259 34.372 14.3259C34.3977 14.3259 34.4233 14.3259 34.4554 14.3259C34.5131 14.3259 34.5708 14.3259 34.6285 14.3259C34.7118 14.3259 34.8015 14.3259 34.8849 14.3259C34.9426 14.3259 34.9938 14.3259 35.0515 14.3259C35.0772 14.3259 35.1028 14.3259 35.1284 14.3259C35.5323 14.3259 35.9169 14.2461 36.2182 13.9467C36.3079 13.8469 36.372 13.7338 36.4361 13.6141C36.4425 13.5941 36.4554 13.5808 36.4618 13.5609C36.5707 13.3214 36.5451 13.022 36.481 12.7692C36.4425 12.6694 36.3912 12.5962 36.3207 12.5164C36.3079 12.4965 36.2951 12.4832 36.2759 12.4632C36.0387 12.1904 35.7182 12.0907 35.3784 12.064C35.2951 12.064 35.2118 12.064 35.1284 12.064C35.0964 12.064 35.0643 12.064 35.0387 12.064C34.9746 12.064 34.9105 12.064 34.8464 12.064C34.7631 12.064 34.6861 12.064 34.6028 12.064C34.5387 12.064 34.4746 12.064 34.4105 12.064C34.3656 12.064 34.3208 12.064 34.2759 12.064C34.2502 12.064 34.2225 12.064 34.1926 12.064C34.1669 12.064 34.1477 12.064 34.122 12.064C34.0793 12.0729 34.0409 12.0929 34.0067 12.1239L34.0131 12.1173Z" fill="#54B688"/>
<path d="M49.218 8.50492C49.2394 8.50492 49.2607 8.50492 49.2821 8.50492C49.3013 8.50492 49.327 8.50492 49.3462 8.50492C49.3911 8.50492 49.4359 8.50492 49.4808 8.50492C49.5513 8.50492 49.6154 8.50492 49.6859 8.50492C49.7308 8.50492 49.7693 8.50492 49.8141 8.50492C49.8334 8.50492 49.8526 8.50492 49.8782 8.50492C49.9723 8.50492 50.0278 8.51379 50.0449 8.53153C50.0449 8.5781 50.0449 8.62467 50.0449 8.67123C50.0449 8.7045 50.0449 8.73111 50.0449 8.76437C50.0449 8.79763 50.0449 8.8309 50.0449 8.87081C50.0449 8.90407 50.0449 8.94399 50.0449 8.97725C50.0449 9.05708 50.0449 9.13026 50.0449 9.21009C50.0449 9.32984 50.0449 9.45624 50.0449 9.57598C50.0449 9.92857 50.0449 10.2745 50.0449 10.6271C50.0449 10.82 50.0449 11.0129 50.0449 11.2059C50.0449 11.3256 50.0449 11.452 50.0449 11.5718C50.0449 11.6449 50.0449 11.7248 50.0449 11.7979C50.0449 11.8312 50.0449 11.8711 50.0449 11.9044C50.0449 11.9509 50.0449 12.0042 50.0449 12.0507C50.0449 12.0773 50.0449 12.104 50.0449 12.1306C50.0492 12.2281 50.0727 12.3168 50.1154 12.3967C50.1731 12.41 50.2372 12.4166 50.2949 12.4233C50.3141 12.4233 50.3398 12.4233 50.359 12.4233C50.4487 12.4277 50.5299 12.4078 50.6026 12.3634C50.6218 12.3368 50.6346 12.3035 50.6539 12.2769C50.6795 12.2437 50.7116 12.2037 50.7372 12.1705C50.8205 12.064 50.891 11.9576 50.968 11.8512C51.0641 11.7115 51.1667 11.5718 51.2628 11.432C51.3334 11.3323 51.4039 11.2325 51.4744 11.1327C51.6496 10.8843 51.7607 10.7357 51.8077 10.687C51.8462 10.687 51.891 10.687 51.9295 10.6803C51.9551 10.6803 51.9808 10.6803 52.0064 10.6803C52.0321 10.6803 52.0641 10.6803 52.0898 10.6803C52.1154 10.6803 52.1474 10.6803 52.1731 10.6803C52.4167 10.6737 52.6603 10.6737 52.9038 10.6737C52.9038 10.7801 52.891 10.8001 52.8269 10.8865C52.8077 10.9065 52.7949 10.9331 52.7756 10.9531C52.7564 10.9797 52.7372 10.9996 52.7179 11.0262C52.6987 11.0529 52.6795 11.0795 52.6603 11.0994C52.6346 11.1393 52.6026 11.1793 52.5769 11.2125C52.5192 11.2923 52.4615 11.3722 52.4039 11.452C52.3269 11.5584 52.25 11.6649 52.1667 11.7647C52.0321 11.9376 51.9039 12.1106 51.7757 12.2836C51.7372 12.3368 51.6987 12.39 51.6539 12.4499C51.6282 12.4898 51.5962 12.5231 51.5705 12.563C51.5577 12.5829 51.5449 12.5962 51.5321 12.6162C51.4851 12.6783 51.4551 12.747 51.4423 12.8224C51.468 12.8757 51.4936 12.9222 51.5321 12.9688C51.6923 13.1684 51.8333 13.3812 51.968 13.6074C52.0321 13.7072 52.1026 13.807 52.1667 13.9068C52.1923 13.9467 52.218 13.9866 52.2436 14.0265C52.3718 14.2128 52.5 14.4057 52.6282 14.5854C52.6731 14.6452 52.7115 14.7118 52.7564 14.7783C52.7756 14.8049 52.7949 14.8315 52.8141 14.8648C52.859 14.9313 52.8974 14.9978 52.9359 15.0643C52.9487 15.0777 52.9615 15.0976 52.9744 15.1109C52.9808 15.1242 52.9936 15.1375 53 15.1575C52.9936 15.1774 52.9872 15.2041 52.9744 15.2307C52.8141 15.2307 52.6603 15.244 52.5 15.244C52.4487 15.244 52.391 15.244 52.3398 15.244C52.2628 15.244 52.1859 15.244 52.109 15.244C52.0833 15.244 52.0641 15.244 52.0385 15.244C51.9359 15.244 51.8718 15.244 51.8013 15.1708C51.7628 15.1109 51.7244 15.051 51.6923 14.9845C51.6667 14.9446 51.641 14.9113 51.6154 14.8714C51.5192 14.7317 51.4295 14.5854 51.3334 14.439C51.2949 14.3791 51.25 14.3126 51.2116 14.2527C51.1539 14.1596 51.0898 14.0665 51.0321 13.9733C51.0193 13.9534 51 13.9268 50.9872 13.9001C50.9552 13.8536 50.9295 13.807 50.8975 13.7604C50.8013 13.6074 50.6987 13.4544 50.5834 13.3147C50.5748 13.3014 50.5641 13.2881 50.5513 13.2748C50.5064 13.2349 50.4808 13.2349 50.4231 13.2349C50.4039 13.2349 50.3847 13.2349 50.3718 13.2349C50.3547 13.2349 50.3355 13.2349 50.3141 13.2349C50.2949 13.2349 50.2757 13.2349 50.2564 13.2349C50.2394 13.2349 50.2223 13.2349 50.2052 13.2349C50.1859 13.2349 50.1731 13.2349 50.1539 13.2349C50.0962 13.2482 50.077 13.2682 50.0449 13.3147C50.0193 13.3946 50.0193 13.4744 50.0193 13.5609C50.0193 13.5808 50.0193 13.5941 50.0193 13.6141C50.0193 13.654 50.0193 13.6873 50.0193 13.7272C50.0193 13.7871 50.0193 13.8469 50.0193 13.9068C50.0193 14.0598 50.0193 14.2062 50.0193 14.3592C50.0193 14.4856 50.0193 14.612 50.0193 14.7384C50.0193 14.7982 50.0193 14.8581 50.0193 14.918C50.0193 14.9513 50.0193 14.9912 50.0193 15.0244C50.0193 15.0444 50.0193 15.0577 50.0193 15.0777C50.0193 15.153 50.0107 15.1996 49.9936 15.2174C49.9231 15.2174 49.859 15.2174 49.7885 15.2174C49.7693 15.2174 49.75 15.2174 49.7244 15.2174C49.6603 15.2174 49.5898 15.2174 49.5257 15.2174C49.4808 15.2174 49.4359 15.2174 49.3911 15.2174C49.2821 15.2174 49.1731 15.2174 49.0642 15.2174C49.0257 15.1375 49.0129 15.071 49.0129 14.9845C49.0129 14.9646 49.0129 14.9379 49.0129 14.9113C49.0129 14.8847 49.0129 14.8603 49.0129 14.8382C49.0129 14.8115 49.0129 14.7849 49.0129 14.7583C49.0129 14.6851 49.0129 14.612 49.0129 14.5321C49.0129 14.4523 49.0129 14.3725 49.0129 14.2926C49.0129 14.133 49.0129 13.98 49.0129 13.8203C49.0129 13.634 49.0129 13.4544 49.0129 13.2682C49.0129 12.9422 49.0129 12.6162 49.0129 12.2902C49.0129 11.9709 49.0129 11.6582 49.0129 11.3389C49.0129 11.319 49.0129 11.299 49.0129 11.279C49.0129 11.2591 49.0129 11.2391 49.0129 11.2192C49.0129 10.8599 49.0129 10.494 49.0129 10.1348C49.0129 10.0084 49.0129 9.882 49.0129 9.74895C49.0129 9.59594 49.0129 9.43628 49.0129 9.28327C49.0129 9.20344 49.0129 9.12361 49.0129 9.04378C49.0129 8.9573 49.0129 8.87081 49.0129 8.78433C49.0129 8.75772 49.0129 8.73111 49.0129 8.7045C49.0129 8.68454 49.0129 8.65793 49.0129 8.63797C49.0129 8.61801 49.0129 8.59806 49.0129 8.5781C49.0193 8.47166 49.1026 8.50492 49.1859 8.50492H49.218Z" fill="#54B688"/>
<path d="M38.7951 10.6604C38.8164 10.6604 38.8378 10.6604 38.8592 10.6604C38.8784 10.6604 38.904 10.6604 38.9233 10.6604C38.9938 10.6604 39.0707 10.6604 39.1412 10.6604C39.1925 10.6604 39.2438 10.6604 39.2951 10.6604C39.404 10.6604 39.513 10.6604 39.6156 10.6604C39.7502 10.6604 39.8912 10.6604 40.0258 10.6604C40.1348 10.6604 40.2374 10.6604 40.3463 10.6604C40.3976 10.6604 40.4489 10.6604 40.5002 10.6604C41.1754 10.6604 41.6497 10.7646 41.9232 10.973C42.0322 11.0861 42.1091 11.2258 42.1732 11.3722C42.186 11.3988 42.1989 11.4254 42.2053 11.452C42.2437 11.5651 42.2501 11.6649 42.2566 11.778C42.2566 11.7979 42.2566 11.8246 42.2566 11.8445C42.263 12.1439 42.263 12.4432 42.263 12.7426C42.263 12.7958 42.263 12.8424 42.263 12.8956C42.263 13.0752 42.263 13.2482 42.263 13.4278C42.263 13.5941 42.263 13.7604 42.263 13.9201C42.263 14.0598 42.263 14.2062 42.263 14.3459C42.263 14.4324 42.263 14.5122 42.263 14.5987C42.263 14.6918 42.263 14.7849 42.263 14.8781C42.263 14.9047 42.263 14.9313 42.263 14.9646C42.263 14.9912 42.263 15.0178 42.263 15.0444C42.263 15.0643 42.263 15.091 42.263 15.1109C42.263 15.1464 42.2459 15.1797 42.2117 15.2107C42.1412 15.2107 42.0771 15.2107 42.013 15.2107C41.9937 15.2107 41.9745 15.2107 41.9553 15.2107C41.9104 15.2107 41.8719 15.2107 41.8271 15.2107C41.763 15.2107 41.6989 15.2107 41.6348 15.2107C41.5963 15.2107 41.5514 15.2107 41.513 15.2107C41.4937 15.2107 41.4745 15.2107 41.4553 15.2107C41.3655 15.2107 41.3121 15.2018 41.295 15.1841C41.295 15.0976 41.2886 15.0045 41.2822 14.918C41.2822 14.898 41.2822 14.8781 41.2822 14.8581C41.2822 14.8382 41.2822 14.8249 41.2822 14.8049C41.2822 14.7739 41.2651 14.7428 41.2309 14.7118C41.1668 14.7118 41.1476 14.7317 41.1027 14.7783C41.0899 14.7982 41.0771 14.8115 41.0643 14.8315C40.8784 15.0577 40.622 15.1708 40.3527 15.2506C40.3271 15.2573 40.3079 15.2639 40.2822 15.2706C39.8335 15.3903 39.2822 15.3571 38.8784 15.1242C38.5707 14.918 38.3592 14.6585 38.2566 14.286C38.1733 13.8469 38.231 13.4345 38.4617 13.0553C38.6028 12.849 38.8271 12.6628 39.0707 12.6096C39.0963 12.6096 39.1284 12.6029 39.154 12.5962C39.1604 12.5896 39.1669 12.5829 39.1797 12.5696C39.2374 12.5563 39.2951 12.5497 39.3527 12.543C39.372 12.543 39.3912 12.543 39.404 12.5364C39.4617 12.5297 39.5258 12.5164 39.5835 12.5098C39.6027 12.5098 39.622 12.5098 39.6476 12.5031C40.013 12.4499 40.3848 12.4033 40.7502 12.3568C40.7694 12.3568 40.7886 12.3568 40.8079 12.3501C40.8463 12.3501 40.8784 12.3434 40.9168 12.3368C41.0322 12.3235 41.154 12.3102 41.2566 12.2437C41.3143 12.1439 41.2758 12.0042 41.2566 11.8977C41.2117 11.7713 41.1284 11.6782 41.0322 11.5917C40.9681 11.5718 40.9104 11.5651 40.8463 11.5651C40.8271 11.5651 40.8079 11.5651 40.7886 11.5651C40.7694 11.5651 40.7438 11.5651 40.7245 11.5651C40.7053 11.5651 40.6796 11.5651 40.654 11.5651C40.6027 11.5651 40.5579 11.5651 40.5066 11.5651C40.4297 11.5651 40.3527 11.5651 40.2758 11.5651C40.0835 11.5651 39.8976 11.5651 39.7053 11.5651C39.5451 11.5651 39.3848 11.5651 39.2245 11.5651C39.1476 11.5651 39.0707 11.5651 39.0002 11.5651C38.9553 11.5651 38.9104 11.5651 38.8656 11.5651C38.8463 11.5651 38.8207 11.5651 38.8015 11.5651C38.7075 11.5651 38.6519 11.5562 38.6348 11.5385C38.6348 11.4786 38.6348 11.4121 38.6348 11.3522C38.6348 11.3345 38.6348 11.3167 38.6348 11.299C38.6348 11.2591 38.6348 11.2192 38.6348 11.1793C38.6348 11.1194 38.6348 11.0595 38.6348 10.9996C38.6348 10.9597 38.6348 10.9198 38.6348 10.8865C38.6348 10.8666 38.6348 10.8533 38.6348 10.8333C38.6348 10.667 38.6476 10.6737 38.8079 10.6737L38.7951 10.6604ZM40.8399 13.1218C40.6668 13.1551 40.4938 13.1817 40.3271 13.2016C40.2886 13.2016 40.2566 13.2083 40.2181 13.2149C40.1668 13.2216 40.1156 13.2282 40.0579 13.2349C39.7438 13.2748 39.4938 13.3613 39.2822 13.6141C39.2117 13.7405 39.1925 13.8935 39.2117 14.0332C39.263 14.2195 39.4104 14.3658 39.5707 14.4656C39.8079 14.5854 40.1668 14.5654 40.4168 14.4922C40.7822 14.3525 41.1027 14.113 41.2758 13.7405C41.3078 13.634 41.3078 13.5343 41.3014 13.4212C41.3014 13.4012 41.3014 13.3746 41.3014 13.3546C41.3014 13.2704 41.2843 13.1883 41.2502 13.1085C41.122 13.0353 40.9681 13.0885 40.8335 13.1151L40.8399 13.1218Z" fill="#54B688"/>
<path d="M46.968 10.7136C46.9894 10.7224 47.0108 10.7335 47.0321 10.7468C47.359 10.9198 47.5514 11.1859 47.6924 11.5385C47.6988 11.5518 47.7052 11.5718 47.7116 11.5851C47.8526 11.9576 47.8078 12.41 47.8078 12.8025C47.8078 12.889 47.8078 12.9688 47.8078 13.0553C47.8078 13.195 47.8078 13.3347 47.8078 13.481C47.8078 13.6474 47.8078 13.807 47.8078 13.9733C47.8078 14.1463 47.8078 14.3193 47.8078 14.4989C47.8078 14.5521 47.8078 14.5987 47.8078 14.6519C47.8078 14.745 47.8078 14.8382 47.8078 14.9313C47.8078 14.9579 47.8078 14.9845 47.8078 15.0178C47.8078 15.0444 47.8078 15.071 47.8078 15.091C47.8078 15.1109 47.8078 15.1375 47.8078 15.1575C47.8078 15.1885 47.7992 15.2129 47.7821 15.2307C47.7116 15.2307 47.6411 15.2307 47.5706 15.2307C47.5514 15.2307 47.5257 15.2307 47.5065 15.2307C47.4616 15.2307 47.4167 15.2307 47.3719 15.2307C47.3014 15.2307 47.2373 15.2307 47.1667 15.2307C47.1219 15.2307 47.0834 15.2307 47.0385 15.2307C47.0172 15.2307 46.9958 15.2307 46.9744 15.2307C46.8804 15.2307 46.8249 15.2218 46.8078 15.2041C46.8078 15.1641 46.8078 15.1309 46.8078 15.091C46.8078 15.0688 46.8078 15.0444 46.8078 15.0178C46.8078 14.9912 46.8078 14.9646 46.8078 14.938C46.8078 14.9113 46.8078 14.8847 46.8078 14.8515C46.8078 14.7716 46.8078 14.6985 46.8078 14.6186C46.8078 14.5388 46.8078 14.459 46.8078 14.3791C46.8078 14.1064 46.8078 13.8336 46.8078 13.5609C46.8078 13.4079 46.8078 13.2615 46.8078 13.1085C46.8078 13.0287 46.8078 12.9488 46.8078 12.869C46.8078 12.7825 46.8078 12.6894 46.8078 12.6029C46.8078 12.5763 46.8078 12.5497 46.8078 12.5231C46.8078 12.2104 46.7244 11.9909 46.5193 11.7647C46.3206 11.5718 46.1283 11.4986 45.8591 11.4986C45.5001 11.5185 45.1668 11.6715 44.8975 11.9177C44.8847 11.931 44.8719 11.9443 44.8527 11.9576C44.7181 12.0907 44.5963 12.2304 44.5835 12.4299C44.5835 12.4832 44.5835 12.5364 44.5835 12.5829C44.5835 12.6096 44.5835 12.6428 44.5835 12.6694C44.5835 12.7493 44.5835 12.8224 44.5835 12.9023C44.5835 12.9821 44.5835 13.0619 44.5835 13.1418C44.5835 13.2948 44.5835 13.4478 44.5835 13.6008C44.5835 13.827 44.5835 14.0532 44.5835 14.2727C44.5835 14.306 44.5835 14.3392 44.5835 14.3725C44.5835 14.3858 44.5835 14.4057 44.5835 14.4191C44.5835 14.5122 44.5835 14.612 44.5835 14.7051C44.5835 14.7517 44.5835 14.7982 44.5835 14.8382C44.5835 14.8914 44.5835 14.9513 44.5835 15.0045C44.5835 15.0311 44.5835 15.051 44.5835 15.0777C44.5835 15.0998 44.5835 15.122 44.5835 15.1442C44.5835 15.1752 44.5749 15.1996 44.5578 15.2174C44.4873 15.2174 44.4168 15.2174 44.3463 15.2174C44.327 15.2174 44.3014 15.2174 44.2822 15.2174C44.2117 15.2174 44.1476 15.2174 44.077 15.2174C44.0322 15.2174 43.9873 15.2174 43.9424 15.2174C43.8335 15.2174 43.7181 15.2174 43.6091 15.2174C43.5706 15.1109 43.5578 15.0111 43.5578 14.898C43.5578 14.8781 43.5578 14.8648 43.5578 14.8448C43.5578 14.7849 43.5578 14.7317 43.5578 14.6718C43.5578 14.6319 43.5578 14.5854 43.5578 14.5455C43.5578 14.4324 43.5578 14.3193 43.5578 14.2062C43.5578 14.0864 43.5578 13.9667 43.5578 13.8536C43.5578 13.654 43.5578 13.4544 43.5578 13.2615C43.5578 13.0353 43.5578 12.8025 43.5578 12.5763C43.5578 12.3767 43.5578 12.1838 43.5578 11.9842C43.5578 11.8645 43.5578 11.7514 43.5578 11.6316C43.5578 11.5185 43.5578 11.4121 43.5578 11.299C43.5578 11.2591 43.5578 11.2192 43.5578 11.1793C43.5578 11.126 43.5578 11.0662 43.5578 11.0129C43.5578 10.9996 43.5578 10.9797 43.5578 10.9664C43.5578 10.8599 43.5771 10.7734 43.6091 10.6737C43.7437 10.6737 43.8783 10.6737 44.0129 10.6737C44.0578 10.6737 44.1027 10.6737 44.1476 10.6737C44.2117 10.6737 44.2822 10.6737 44.3463 10.6737C44.3655 10.6737 44.3847 10.6737 44.4104 10.6737C44.4617 10.6737 44.5065 10.6737 44.5578 10.6737C44.6091 10.7269 44.5899 10.8599 44.5899 10.9331C44.5899 10.9996 44.6048 11.0617 44.6347 11.1194C44.6475 11.126 44.654 11.1327 44.6668 11.1393C44.7501 11.1061 44.8014 11.0529 44.8655 10.9863C44.9552 10.8998 45.0257 10.8533 45.1411 10.8067C45.186 10.7868 45.2309 10.7601 45.2757 10.7335C45.3334 10.7069 45.3975 10.687 45.4616 10.667C45.4809 10.6604 45.5001 10.6537 45.5193 10.6404C45.9937 10.4608 46.5193 10.4807 46.9744 10.7136H46.968Z" fill="#54B688"/>
<path d="M44.8206 11.8844H44.8655C44.8334 11.9576 44.795 12.0108 44.7437 12.0707C44.6475 12.1771 44.5899 12.2636 44.5834 12.41C44.5834 12.4366 44.5834 12.4565 44.5834 12.4832C44.5834 12.5098 44.5834 12.5364 44.5834 12.563C44.5834 12.5896 44.5834 12.6229 44.5834 12.6495C44.5834 12.7293 44.5834 12.8025 44.5834 12.8823C44.5834 12.9621 44.5834 13.042 44.5834 13.1285C44.5834 13.2815 44.5834 13.4345 44.5834 13.5875C44.5834 13.7604 44.5834 13.9401 44.5834 14.113C44.5834 14.4723 44.5834 14.8315 44.5834 15.1907C44.5706 15.1974 44.5514 15.2041 44.5386 15.2174C44.5386 14.8382 44.5322 14.4523 44.5322 14.0731C44.5322 13.8935 44.5322 13.7205 44.5322 13.5409C44.5322 13.3879 44.5322 13.2349 44.5322 13.0752C44.5322 12.9954 44.5322 12.9089 44.5322 12.8291C44.5322 12.736 44.5322 12.6495 44.5322 12.5563C44.5322 12.5297 44.5322 12.5031 44.5322 12.4765C44.5322 12.2703 44.6027 12.1705 44.7373 12.0241C44.7565 11.9975 44.7822 11.9709 44.8014 11.9376C44.8142 11.9177 44.8334 11.8977 44.8463 11.8844H44.8206Z" fill="#57BB8E"/>
<path d="M8.4942 11.6982V11.7447C8.47496 11.758 8.44932 11.778 8.42368 11.7913C8.40445 11.7846 8.37881 11.778 8.35317 11.7647C8.40873 11.7159 8.4536 11.6915 8.48779 11.6915L8.4942 11.6982ZM8.35958 11.7913C8.33394 11.8778 8.29548 11.9044 8.23138 11.9576C8.21215 11.9709 8.19292 11.9909 8.17369 12.0108C8.116 12.0507 8.07112 12.064 8.00061 12.0773C8.17155 11.8911 8.29121 11.7979 8.35958 11.7979V11.7913ZM7.97497 12.0707L8.00061 12.1439C7.94292 12.2503 7.85959 12.3501 7.77626 12.4233H7.73139C7.76344 12.3235 7.80831 12.257 7.87882 12.1838C7.89805 12.1638 7.91728 12.1439 7.93651 12.1239C7.94933 12.1062 7.96429 12.0907 7.98138 12.0773L7.97497 12.0707ZM7.6801 12.4499C7.68651 12.4632 7.69292 12.4832 7.70575 12.4965C7.69292 12.4898 7.67369 12.4832 7.66087 12.4698L7.68651 12.4432L7.6801 12.4499Z" fill="#53178D"/>
<path d="M26.1478 20.4263H27.0965V20.4729C26.776 20.5061 26.4683 20.5061 26.1478 20.4729V20.4263Z" fill="#511492"/>
<path d="M10.1673 20.4263H11.0006V20.4729C10.7185 20.4995 10.4493 20.4995 10.1673 20.4729V20.4263Z" fill="#521494"/>
<path d="M23.7119 12.1904C23.6799 12.2636 23.6414 12.3168 23.5837 12.3701C23.5709 12.3834 23.5517 12.4033 23.5325 12.4166C23.5132 12.4366 23.5004 12.4499 23.4812 12.4698C23.4619 12.4898 23.4491 12.5031 23.4299 12.5231C23.3978 12.5563 23.3658 12.5829 23.3401 12.6162C23.3145 12.6428 23.2889 12.6694 23.2632 12.696C23.2419 12.7138 23.2162 12.7226 23.1863 12.7226C23.2248 12.6229 23.2889 12.5563 23.3594 12.4765C23.3722 12.4632 23.385 12.4499 23.3978 12.4366C23.5517 12.2681 23.6542 12.1838 23.7055 12.1838L23.7119 12.1904Z" fill="#51148A"/>
<path d="M44.5322 10.667L44.577 10.6936C44.5834 10.7734 44.5834 10.8533 44.5899 10.9331C44.5899 10.9996 44.6048 11.0617 44.6347 11.1194C44.6475 11.126 44.654 11.1327 44.6668 11.1393C44.6796 11.1305 44.6946 11.1238 44.7116 11.1194L44.8078 11.0728C44.795 11.1393 44.7886 11.1659 44.7373 11.2125C44.686 11.2169 44.6326 11.2169 44.577 11.2125C44.5257 11.1393 44.5258 11.1194 44.5258 11.0329C44.5258 11.0107 44.5258 10.9885 44.5258 10.9664C44.5258 10.9464 44.5258 10.9198 44.5258 10.8998C44.5258 10.8799 44.5258 10.8533 44.5258 10.8333C44.5258 10.7801 44.5258 10.7269 44.5258 10.667H44.5322Z" fill="#57BA8F"/>
<path d="M9.94289 12.9156V12.9621C9.93007 12.9666 9.91725 12.971 9.90443 12.9754C9.69931 13.0619 9.55187 13.195 9.39803 13.3613L9.35316 13.3347C9.36598 13.3147 9.38521 13.3014 9.39803 13.2815C9.43222 13.2415 9.45572 13.1972 9.46854 13.1484C9.48136 13.0996 9.507 13.0819 9.54546 13.0952C9.58393 13.1085 9.60102 13.0974 9.59675 13.0619C9.61598 13.0486 9.6288 13.042 9.64803 13.0287C9.66726 13.0154 9.68649 13.0087 9.69931 12.9954C9.71854 12.9821 9.73136 12.9754 9.75059 12.9621C9.76982 12.9555 9.78264 12.9422 9.80187 12.9355C9.83178 12.9222 9.87666 12.9156 9.93648 12.9156H9.94289Z" fill="#531298"/>
<path d="M37.4746 12.849H37.5194C37.5387 12.9222 37.5451 12.9821 37.5451 13.0553C37.5451 13.0752 37.5451 13.0952 37.5451 13.1218C37.5451 13.1418 37.5451 13.1684 37.5451 13.1883C37.5451 13.2083 37.5451 13.2349 37.5451 13.2548C37.5451 13.3679 37.5451 13.4677 37.5194 13.5808H37.4746V12.849Z" fill="#59BD90"/>
<path d="M25.2696 13.6673L25.3145 13.7139C25.2952 13.7272 25.2824 13.7471 25.2632 13.7604C25.1158 13.9001 24.9811 14.0399 24.8658 14.2062L24.8209 14.1796C24.8337 14.1596 24.8529 14.133 24.8658 14.113C24.9 14.0642 24.9235 14.0155 24.9363 13.9667C24.9683 13.9401 25.0004 13.9068 25.0324 13.8802C25.0623 13.858 25.0944 13.827 25.1286 13.7871C25.1735 13.7405 25.2183 13.7006 25.2696 13.6607V13.6673Z" fill="#541396"/>
<path d="M52.4423 11.3722C52.4487 11.3921 52.4551 11.4187 52.468 11.4454C52.4295 11.4986 52.3974 11.5451 52.3526 11.5917C52.3269 11.6183 52.3077 11.6449 52.2821 11.6715C52.2692 11.6848 52.2628 11.6982 52.25 11.7115C52.1923 11.7846 52.1346 11.8578 52.0833 11.9376L52.0385 11.911C52.0577 11.8778 52.0833 11.8379 52.1026 11.8046C52.1154 11.7846 52.1282 11.7647 52.141 11.7447C52.1539 11.7314 52.1667 11.7115 52.1731 11.6982H52.218C52.2222 11.6848 52.2286 11.6715 52.2372 11.6582C52.2949 11.5451 52.359 11.452 52.4487 11.3655L52.4423 11.3722Z" fill="#58BD92"/>
<path d="M24.9299 17.5125C25.0068 17.5458 25.0453 17.5923 25.1029 17.6588C25.1542 17.7187 25.2119 17.7719 25.276 17.8252C25.3337 17.8717 25.385 17.925 25.4299 17.9848L25.2952 17.9582L25.2696 17.885L25.1991 17.8385V17.7919C25.1863 17.7919 25.1735 17.7919 25.1606 17.7919C25.0837 17.7653 25.0452 17.7187 24.994 17.6588V17.5857H24.9235V17.5125H24.9299Z" fill="#5B1992"/>
<path d="M13.6031 19.1091C13.6095 19.1291 13.6159 19.1557 13.6287 19.1823C13.539 19.3286 13.3787 19.5681 13.2185 19.6214C13.2057 19.6214 13.1929 19.6214 13.18 19.628V19.5814C13.1993 19.5681 13.2249 19.5548 13.2441 19.5349C13.3146 19.4883 13.3275 19.4683 13.3595 19.3885C13.3894 19.353 13.4193 19.322 13.4493 19.2954H13.4941V19.2488H13.539L13.5582 19.2022L13.6031 19.1025V19.1091Z" fill="#4F118F"/>
<path d="M9.19931 18.1046C9.28265 18.1378 9.34034 18.1911 9.40444 18.2576C9.46213 18.3108 9.51982 18.364 9.58392 18.4106V18.4572C9.50059 18.4172 9.43008 18.3707 9.35957 18.3175C9.34034 18.3041 9.3147 18.2842 9.28906 18.2709V18.2243C9.25701 18.211 9.23136 18.1911 9.19931 18.1777V18.1046Z" fill="#5D1C91"/>
<path d="M8.74419 17.4194V17.4925C8.70573 17.4992 8.67368 17.5125 8.63522 17.5191C8.61599 17.5191 8.59676 17.5258 8.57753 17.5324C8.51984 17.5391 8.48137 17.5324 8.43009 17.5191V17.4726C8.57112 17.4371 8.67582 17.4216 8.74419 17.426V17.4194Z" fill="#591597"/>
<path d="M9.6929 14.439C9.76982 14.459 9.84674 14.4856 9.92366 14.5122C9.9493 14.5188 9.97494 14.5321 10.0006 14.5388C10.0198 14.5388 10.039 14.5521 10.0583 14.5588V14.6053C9.91084 14.6186 9.8211 14.5721 9.69931 14.4856V14.439H9.6929Z" fill="#5D1B93"/>
<path d="M13.039 19.6746C13.0582 19.6812 13.0839 19.6879 13.1095 19.7012C13.0198 19.801 12.93 19.8675 12.8146 19.934V19.8608C12.8595 19.8276 12.9044 19.7943 12.9493 19.7677C12.9813 19.7344 13.0134 19.7078 13.039 19.6746Z" fill="#531392"/>
<path d="M35.231 9.3498C35.2502 9.3498 35.2759 9.3498 35.2951 9.3498C35.3143 9.3498 35.3272 9.3498 35.3464 9.3498C35.3528 9.3631 35.3592 9.38306 35.372 9.39636C35.2438 9.40523 35.1156 9.41411 34.9874 9.42298V9.37641C35.0708 9.35645 35.1477 9.3498 35.231 9.3498Z" fill="#57BA88"/>
<path d="M44.7758 11.0662C44.7822 11.0861 44.7886 11.1127 44.8014 11.1393C44.7843 11.1615 44.7608 11.1859 44.7309 11.2125C44.701 11.2391 44.6476 11.2391 44.5706 11.2125V11.0928C44.6155 11.1061 44.6604 11.126 44.7052 11.1393L44.7758 11.0662Z" fill="#5FBB99"/>
<path d="M36.6861 11.319V11.3921C36.6477 11.4276 36.6092 11.4587 36.5707 11.4853C36.5771 11.5252 36.5836 11.5651 36.5964 11.605C36.5643 11.5917 36.5387 11.5718 36.5066 11.5584V11.4387H36.5771V11.3921C36.6156 11.3655 36.6541 11.3411 36.6925 11.319H36.6861Z" fill="#59BE90"/>
<path d="M27.308 11.1526C27.3786 11.1526 27.4362 11.1593 27.5068 11.1793V11.2258C27.4683 11.2258 27.4362 11.2258 27.3978 11.2258C27.3786 11.2258 27.3593 11.2258 27.3337 11.2258C27.2952 11.2258 27.2546 11.2081 27.2119 11.1726C27.1692 11.1371 27.2012 11.1282 27.308 11.146V11.1526Z" fill="#53158A"/>
<path d="M29.3144 19.5083C29.3208 19.5282 29.3272 19.5548 29.3401 19.5814C29.2567 19.6347 29.1734 19.6879 29.0901 19.7478V19.6746C29.1243 19.648 29.1627 19.6191 29.2055 19.5881C29.2482 19.557 29.2696 19.5415 29.2696 19.5415C29.2696 19.5415 29.2866 19.5304 29.3208 19.5083H29.3144Z" fill="#54128E"/>
<path d="M23.1414 12.7559C23.1478 12.7759 23.1542 12.8025 23.1671 12.8291H23.1222C23.1286 12.8091 23.135 12.7825 23.1478 12.7559H23.1414ZM23.0773 12.849C23.0837 12.869 23.0901 12.8956 23.103 12.9222C23.0901 12.9444 23.0752 12.9688 23.0581 12.9954H23.0132C23.0431 12.92 23.0666 12.8734 23.0837 12.8557L23.0773 12.849ZM22.9876 12.9887L23.0132 13.0353L22.9876 13.0819H22.9427L22.9876 12.9887Z" fill="#4E1386"/>
<path d="M28.2503 17.6588C28.2183 17.7453 28.1606 17.8052 28.0901 17.8717L28.0196 17.8451C28.0516 17.8119 28.0773 17.7852 28.1093 17.752C28.1264 17.7342 28.1435 17.7165 28.1606 17.6988C28.1777 17.681 28.2076 17.6677 28.2503 17.6588Z" fill="#511687"/>
<path d="M28.6606 16.8805C28.7183 16.8805 28.7824 16.8938 28.8401 16.9071V16.9537C28.8144 16.9537 28.7888 16.9537 28.7632 16.9537C28.7076 16.9537 28.6563 16.9692 28.6093 17.0002C28.6221 16.9382 28.6371 16.8982 28.6542 16.8805H28.6606Z" fill="#5C1995"/>
<path d="M37.0002 11.0395C37.0002 11.1194 36.9874 11.1327 36.9361 11.1992C36.9233 11.2125 36.9105 11.2258 36.8977 11.2458C36.8763 11.268 36.8506 11.279 36.8207 11.279C36.8271 11.2458 36.8336 11.2192 36.8464 11.1859H36.8912C36.8912 11.1726 36.9041 11.1593 36.9105 11.1393C36.9276 11.1083 36.9596 11.075 37.0066 11.0395H37.0002Z" fill="#59BF91"/>
<path d="M11.1416 11.1593H11.3467V11.2325C11.2698 11.2258 11.1993 11.2192 11.1224 11.2059L11.148 11.1593H11.1416Z" fill="#561790"/>
<path d="M8.8147 11.5119L8.76983 11.605H8.65445C8.71 11.5429 8.76342 11.5119 8.8147 11.5119ZM8.58394 11.605L8.65445 11.6316L8.56471 11.6782C8.57112 11.6582 8.57753 11.6316 8.59035 11.605H8.58394Z" fill="#54168E"/>
<path d="M10.0775 18.6434C10.1502 18.6567 10.2249 18.6723 10.3019 18.69V18.7366C10.2036 18.7366 10.1288 18.7277 10.0775 18.71V18.6368V18.6434Z" fill="#54148D"/>
<path d="M11.7762 18.3374L11.8018 18.384C11.757 18.4572 11.7185 18.4838 11.6416 18.5237H11.5967C11.6224 18.4438 11.6352 18.4372 11.6993 18.3906C11.7121 18.3773 11.7313 18.3707 11.7442 18.3574C11.757 18.3507 11.7634 18.3441 11.7762 18.3374Z" fill="#53188E"/>
<path d="M27.2119 18.2908V18.3374C27.1606 18.364 27.1221 18.364 27.0645 18.364C27.0474 18.364 27.0281 18.364 27.0068 18.364C26.9854 18.364 26.9704 18.364 26.9619 18.364V18.3175C27.0773 18.2997 27.1606 18.2908 27.2119 18.2908Z" fill="#521584"/>
<path d="M37.0707 14.5122C37.0323 14.612 36.9682 14.6585 36.8912 14.7251C36.8912 14.6763 36.8998 14.6408 36.9169 14.6186C36.934 14.5964 36.9468 14.5831 36.9553 14.5787C36.9682 14.5654 36.981 14.5521 36.9938 14.5388C37.0152 14.5211 37.0408 14.5122 37.0707 14.5122Z" fill="#59BF90"/>
<path d="M51.8782 12.0973H51.9231C51.891 12.1904 51.8526 12.257 51.7885 12.3301H51.7436C51.7821 12.2437 51.8269 12.1705 51.8782 12.0973Z" fill="#59C091"/>
<path d="M7.9301 12.1173H7.97497C7.97497 12.1661 7.96215 12.2037 7.93651 12.2304C7.91728 12.2437 7.90446 12.257 7.88523 12.2769C7.866 12.2902 7.85318 12.3035 7.83395 12.3235C7.82113 12.3368 7.80831 12.3435 7.79549 12.3568C7.78267 12.3501 7.76344 12.3435 7.75062 12.3301C7.78267 12.2969 7.80831 12.257 7.84036 12.2237C7.85745 12.206 7.87455 12.186 7.89164 12.1638C7.90446 12.1505 7.92369 12.1306 7.93651 12.1173H7.9301Z" fill="#5A1D92"/>
<path d="M46.3847 11.605C46.4146 11.6095 46.4445 11.6183 46.4744 11.6316C46.4809 11.6516 46.4873 11.6782 46.5001 11.7048C46.5193 11.7115 46.545 11.7181 46.5706 11.7314C46.577 11.7514 46.5834 11.778 46.5962 11.8046C46.5193 11.7713 46.4552 11.7248 46.3911 11.6649V11.6183L46.3847 11.605Z" fill="#5BC091"/>
<path d="M27.9362 17.9116V17.9848H27.8914L27.8465 18.078H27.776C27.808 17.9848 27.8529 17.9649 27.9362 17.9116Z" fill="#501487"/>
<path d="M34.0195 9.37641H34.1092V9.42298C34.0409 9.48507 33.9874 9.51611 33.949 9.51611C33.9789 9.44072 34.0024 9.39415 34.0195 9.37641Z" fill="#57BA8B"/>
<path d="M13.2185 15.683C13.289 15.7096 13.3082 15.7296 13.3531 15.8028C13.3211 15.8094 13.2954 15.8161 13.2634 15.8294C13.257 15.8094 13.2505 15.7828 13.2377 15.7562C13.2185 15.7429 13.1929 15.723 13.1672 15.7096L13.2121 15.683H13.2185Z" fill="#5A1694"/>
<path d="M51.6026 12.4698H51.6475C51.6218 12.5497 51.5898 12.6162 51.5321 12.6827H51.4872C51.5192 12.6096 51.5577 12.5364 51.6026 12.4698Z" fill="#59C08E"/>
<path d="M8.83393 17.3728L8.92368 17.3994C8.93009 17.4526 8.9365 17.5058 8.94932 17.5657C8.92795 17.5435 8.90445 17.5191 8.87881 17.4925V17.4194H8.83393V17.3728Z" fill="#591498"/>
<path d="M25.8145 18.1711C25.8658 18.1844 25.917 18.2044 25.9747 18.2177V18.2642C25.9234 18.2576 25.8722 18.2509 25.8145 18.2376V18.1644V18.1711Z" fill="#58188E"/>
<path d="M24.4812 14.9113H24.526C24.5196 14.9712 24.5132 15.0377 24.5004 15.0976H24.4555L24.4812 14.9113Z" fill="#53158F"/>
<path d="M7.02627 17.8185L7.07114 17.8451C7.07755 17.8983 7.09037 17.9516 7.09678 18.0114H7.05191L7.02627 17.8252V17.8185Z" fill="#501384"/>
<path d="M8.43009 17.4659L8.60958 17.4925C8.60317 17.5058 8.59676 17.5258 8.58394 17.5391H8.44932C8.44291 17.5191 8.4365 17.4925 8.42368 17.4659H8.43009Z" fill="#54118E"/>
<path d="M36.1861 10.7335V10.8067H36.1156L36.1861 10.7335ZM36.0964 10.8267C36.1028 10.8466 36.1092 10.8732 36.122 10.8998C36.09 10.9065 36.0643 10.9132 36.0323 10.9265C36.0515 10.8932 36.0772 10.8666 36.1028 10.8333L36.0964 10.8267Z" fill="#58BC8E"/>
</svg>
