<svg width="71" height="29" viewBox="0 0 71 29" fill="none" xmlns="http://www.w3.org/2000/svg">
<path d="M61.5564 28.748H9.10495C4.05149 28.748 0 24.7087 0 19.767V8.98107C0 3.99636 4.09505 0 9.10495 0H61.5564C66.6099 0 70.6614 4.03934 70.6614 8.98107V19.767C70.6614 24.7087 66.6099 28.748 61.5564 28.748Z" fill="#5AFEAE"/>
<path d="M57.9412 9.2389L54.3253 22.8609V22.9039H57.157L60.7729 9.28188H57.9412V9.2389ZM13.2441 16.9738C12.8085 17.1887 12.3729 17.2746 11.8937 17.2746C10.8917 17.2746 10.3253 17.1027 10.2382 16.2863V16.2433C10.2382 16.2003 10.2382 16.2003 10.2382 16.1573V9.32485L7.71147 9.62565C9.41048 9.28188 10.3689 7.99273 10.3689 6.66061V5.84414H7.53721V9.66862L7.36296 9.71159V16.7589C7.45008 18.7356 8.80058 19.9388 10.9352 19.9388C11.7194 19.9388 12.5471 19.767 13.2006 19.4662L13.2441 16.9738Z" fill="#292929"/>
<path d="M13.6798 8.72325L5.75107 9.92645V11.9031L13.6798 10.6999V8.72325ZM13.6798 11.6453L5.75107 12.8485V14.7393L13.6798 13.5361V11.6453ZM22.5669 12.5477C22.4362 10.3562 21.0422 9.02405 18.7768 9.02405C17.4699 9.02405 16.3808 9.53971 15.6402 10.4851C14.8996 11.4305 14.5075 12.8056 14.5075 14.4814C14.5075 16.1573 14.8996 17.5324 15.6402 18.4778C16.3808 19.4232 17.4699 19.8959 18.7768 19.8959C21.0422 19.8959 22.4362 18.6067 22.5669 16.3722V19.681H25.3986V9.28188L22.5669 9.71159V12.5477ZM22.7412 14.4814C22.7412 16.4152 21.6956 17.7043 20.0837 17.7043C18.4283 17.7043 17.4263 16.5011 17.4263 14.4814C17.4263 12.4618 18.4283 11.2586 20.0837 11.2586C20.8679 11.2586 21.5649 11.5594 22.0441 12.161C22.4798 12.7196 22.7412 13.5361 22.7412 14.4814ZM33.6323 9.02405C31.3669 9.02405 29.9729 10.3132 29.8422 12.5477V6.23089L27.0105 6.66061V19.681H29.8422V16.3722C29.9729 18.6067 31.3669 19.8959 33.6323 19.8959C36.2897 19.8959 37.9016 17.8762 37.9016 14.4814C37.9016 11.0867 36.2897 9.02405 33.6323 9.02405ZM32.3689 17.7043C30.757 17.7043 29.7115 16.4581 29.7115 14.4814C29.7115 13.5361 29.9729 12.7196 30.4085 12.161C30.8877 11.5594 31.5412 11.2586 32.3689 11.2586C34.0243 11.2586 35.0263 12.4618 35.0263 14.4814C35.0263 16.5011 34.0243 17.7043 32.3689 17.7043ZM45.5689 9.02405C43.3036 9.02405 41.9095 10.3132 41.7788 12.5477V6.23089L38.9471 6.66061V19.681H41.7788V16.3722C41.9095 18.6067 43.3036 19.8959 45.5689 19.8959C48.2263 19.8959 49.8382 17.8762 49.8382 14.4814C49.8382 11.0867 48.2263 9.02405 45.5689 9.02405ZM44.3055 17.7043C42.6936 17.7043 41.6481 16.4581 41.6481 14.4814C41.6481 13.5361 41.9095 12.7196 42.3451 12.161C42.8243 11.5594 43.4778 11.2586 44.3055 11.2586C45.961 11.2586 46.963 12.4618 46.963 14.4814C46.963 16.5011 45.961 17.7043 44.3055 17.7043ZM49.8382 9.2389H52.8441L55.2837 19.681H52.5828L49.8382 9.2389ZM63.0818 10.3132V9.49673H62.7332V9.32485H63.6481V9.49673H63.2996V10.3132H63.0818ZM63.6917 10.3132V9.28188H64.0402L64.2144 9.75457C64.258 9.88348 64.3016 9.92645 64.3016 9.96942C64.3016 9.92645 64.3451 9.88348 64.3887 9.75457L64.563 9.28188H64.9115V10.3132H64.6936V9.49673L64.3887 10.3132H64.1709L63.9095 9.49673V10.3132H63.6917Z" fill="#292929"/>
</svg>
