<svg width="27" height="35" viewBox="0 0 27 35" fill="none" xmlns="http://www.w3.org/2000/svg">
<path d="M1.29205 23.4748H25.7079C26.1973 23.4748 26.648 23.6541 27 23.9559V1.51775C27 0.682329 26.3304 0 25.5105 0H1.48951C0.669634 0 0 0.682329 0 1.51775V23.9515C0.351987 23.6585 0.79841 23.4748 1.29205 23.4748Z" fill="#045C4D"/>
<path d="M3.89761 6.66583C2.45962 6.66583 1.94881 5.72982 1.94881 4.92502C1.94881 3.89715 2.79444 3.17983 4.00922 3.17983H4.20238V2.87366H4.84626V6.00975H9.20318V3.17983H9.84706V6.00975H13.9078V3.17983H14.5388V6.66583H3.89761ZM3.81176 3.83592C3.22369 3.83592 2.59269 4.25144 2.59269 4.92502C2.59269 5.67296 3.20652 6.00975 3.81176 6.00975H4.20238V3.83592H3.81176ZM4.93211 2.01637C4.93211 1.7933 4.74754 1.61397 4.51574 1.61397C4.28394 1.61397 4.10366 1.78893 4.10366 2.01637C4.10366 2.24819 4.27965 2.42314 4.51574 2.42314C4.75183 2.42314 4.93211 2.24819 4.93211 2.01637ZM3.76884 2.01637C3.76884 1.7933 3.58855 1.61397 3.35676 1.61397C3.12496 1.61397 2.94467 1.78893 2.94467 2.01637C2.94467 2.24819 3.12067 2.42314 3.35676 2.42314C3.59285 2.42314 3.76884 2.24819 3.76884 2.01637ZM9.95008 7.52749C9.95008 7.30005 9.7655 7.12072 9.52512 7.12072C9.28474 7.12072 9.10016 7.30005 9.10016 7.52749C9.10016 7.76368 9.28044 7.94301 9.52512 7.94301C9.76979 7.94301 9.95008 7.76368 9.95008 7.52749ZM13.5687 7.54062C13.5687 7.31317 13.3884 7.13384 13.1566 7.13384C12.9248 7.13384 12.7445 7.31317 12.7445 7.54062C12.7445 7.76806 12.9205 7.94301 13.1566 7.94301C13.3927 7.94301 13.5687 7.76806 13.5687 7.54062ZM14.732 7.54062C14.732 7.31317 14.5474 7.13384 14.3156 7.13384C14.0838 7.13384 13.9035 7.31317 13.9035 7.54062C13.9035 7.76806 14.0795 7.94301 14.3156 7.94301C14.556 7.94301 14.732 7.77243 14.732 7.54062ZM15.7879 8.00862C15.6506 8.00862 15.5175 7.99113 15.3758 7.95176L15.2986 7.92989L15.466 7.30005L15.5432 7.32192C15.6548 7.35254 15.6935 7.35691 15.7665 7.35691C16.0455 7.35691 16.1399 7.26069 16.1399 6.6877V3.1842H16.7838V6.01412H20.6385V3.1842H21.2824V3.56911H23.3857C23.875 3.56911 24.2013 3.70033 24.4674 4.01525C24.6692 4.24706 24.7808 4.61447 24.7808 5.04311V6.67458H16.7108V6.70957C16.7366 7.2082 16.6464 7.56686 16.4447 7.78118C16.23 8.00862 15.9296 8.00862 15.7879 8.00862ZM21.2866 6.00975H24.1412V5.03437C24.1412 4.77193 24.0897 4.5926 23.9781 4.45264C23.8536 4.29955 23.6561 4.22082 23.39 4.22082H21.2866V6.00975ZM23.0981 2.57186C23.0981 2.34004 22.9135 2.16071 22.6731 2.16071C22.437 2.16071 22.2482 2.34441 22.2482 2.57186C22.2482 2.80805 22.4285 2.98738 22.6731 2.98738C22.9178 2.98738 23.0981 2.80805 23.0981 2.57186Z" fill="white"/>
<path d="M4.49857 9.75818C4.26248 9.75818 4.08649 9.58323 4.08649 9.35141C4.08649 9.12834 4.26677 8.94901 4.49857 8.94901C4.73466 8.94901 4.91494 9.12397 4.91494 9.35141C4.91924 9.58323 4.73895 9.75818 4.49857 9.75818ZM3.75596 9.34704C3.75596 9.12397 3.57568 8.94464 3.34388 8.94464C3.11208 8.94464 2.9318 9.1196 2.9318 9.34704C2.9318 9.57886 3.10779 9.75381 3.34388 9.75381C3.57997 9.75381 3.75596 9.58323 3.75596 9.34704ZM13.7704 14.8713C13.7704 14.6438 13.5901 14.4645 13.3583 14.4645C13.1265 14.4645 12.9463 14.6438 12.9463 14.8713C12.9463 15.0987 13.1223 15.2737 13.3583 15.2737C13.5944 15.2737 13.7704 15.1031 13.7704 14.8713ZM14.9337 14.8713C14.9337 14.6438 14.7491 14.4645 14.5173 14.4645C14.2855 14.4645 14.1052 14.6438 14.1052 14.8713C14.1052 15.0987 14.2812 15.2737 14.5173 15.2737C14.7577 15.2737 14.9337 15.1031 14.9337 14.8713ZM18.5265 9.5876C18.5265 9.36453 18.3463 9.1852 18.1145 9.1852C17.8827 9.1852 17.7024 9.36016 17.7024 9.5876C17.7024 9.81942 17.8784 9.99438 18.1145 9.99438C18.3506 9.99438 18.5265 9.81942 18.5265 9.5876ZM19.6898 9.5876C19.6898 9.36453 19.5052 9.1852 19.2734 9.1852C19.0417 9.1852 18.8614 9.36016 18.8614 9.5876C18.8614 9.81942 19.0374 9.99438 19.2734 9.99438C19.5095 9.99438 19.6898 9.81942 19.6898 9.5876ZM10.4437 14.0052L10.4523 13.9965H22.9307V8.87466H22.2868V13.3404H19.8529V10.5105H18.9601C17.7367 10.5105 16.9469 11.1928 16.9469 12.2513C16.9469 12.6493 17.0714 12.9992 17.3161 13.2879L17.3633 13.3448H14.3027V10.5105H13.6588V13.3404H10.8515L10.8644 13.2967C10.9288 13.1086 10.9588 12.9118 10.9588 12.7018C10.9588 11.639 10.169 10.8342 9.12591 10.8342C8.12146 10.8342 7.33593 11.6565 7.33593 12.7018C7.33593 12.903 7.36598 13.0999 7.43037 13.2967L7.44324 13.3404H4.83339V10.2043H4.18951V10.5105H3.99634C2.78156 10.5105 1.93593 11.2278 1.93593 12.2557C1.93593 13.0955 2.47679 13.9965 3.99634 13.9965H7.84245L7.85103 14.0052C8.19014 14.3552 8.64515 14.552 9.13021 14.552C9.62814 14.552 10.1089 14.3552 10.4437 14.0052ZM10.3192 12.6975C10.3192 13.3798 9.80843 13.8915 9.13021 13.8915C8.48633 13.8915 7.9841 13.3667 7.9841 12.6975C7.9841 12.0195 8.48633 11.4903 9.13021 11.4903C9.81701 11.4903 10.3192 11.9976 10.3192 12.6975ZM19.2134 11.1666V13.3404H18.269L18.2604 13.336C17.8397 13.0824 17.5951 12.6887 17.5951 12.2513C17.5951 11.5471 18.2003 11.1666 18.7669 11.1666H19.2134ZM4.18951 11.1666V13.3404H3.79889C3.19364 13.3404 2.57981 13.0036 2.57981 12.2557C2.57981 11.5821 3.21081 11.1666 3.79889 11.1666H4.18951ZM24.7851 8.87466H24.1412V13.9965H24.7851V8.87466Z" fill="white"/>
<path d="M4.51574 17.0889C4.27965 17.0889 4.10366 16.9139 4.10366 16.6821C4.10366 16.459 4.28394 16.2797 4.51574 16.2797C4.75183 16.2797 4.93211 16.4546 4.93211 16.6821C4.93211 16.9139 4.75183 17.0889 4.51574 17.0889ZM3.76884 16.6821C3.76884 16.459 3.58855 16.2797 3.35676 16.2797C3.12496 16.2797 2.94467 16.4546 2.94467 16.6821C2.94467 16.9139 3.12067 17.0889 3.35676 17.0889C3.59285 17.0889 3.76884 16.9139 3.76884 16.6821ZM8.78681 21.3272V17.8412H7.89396C6.67059 17.8412 5.88076 18.5235 5.88076 19.582C5.88076 19.98 6.00525 20.3299 6.24992 20.6142L6.29714 20.6711H4.85056V17.535H4.20668V17.8412H4.01351C2.79873 17.8412 1.9531 18.5585 1.9531 19.5864C1.9531 20.4261 2.49396 21.3272 4.01351 21.3272H8.78681ZM8.14293 18.4972V20.6711H7.19857L7.18998 20.6667C6.76932 20.413 6.52464 20.0194 6.52464 19.582C6.52464 19.0571 6.93672 18.4972 7.6965 18.4972H8.14293ZM4.20238 18.4972V20.6711H3.81176C3.20652 20.6711 2.59269 20.3343 2.59269 19.5864C2.59269 18.9128 3.22369 18.4972 3.81176 18.4972H4.20238ZM8.03561 16.9139C8.03561 16.6821 7.85103 16.4984 7.61065 16.4984C7.37456 16.4984 7.18569 16.6821 7.18569 16.9139C7.18569 17.1501 7.36598 17.3294 7.61065 17.3294C7.85103 17.325 8.03561 17.1501 8.03561 16.9139ZM14.3413 17.2376C14.3413 17.0057 14.1568 16.822 13.9164 16.822C13.6803 16.822 13.4914 17.0057 13.4914 17.2376C13.4914 17.4738 13.6717 17.6531 13.9164 17.6531C14.161 17.6487 14.3413 17.4738 14.3413 17.2376ZM20.3079 21.3359L20.3165 21.3272H22.9307V16.2053H22.2868V20.6711H20.72L20.7329 20.6273C20.7973 20.4393 20.8273 20.2424 20.8273 20.0325C20.8273 18.9696 20.0375 18.1648 18.9944 18.1648C17.99 18.1648 17.2044 18.9871 17.2044 20.0325C17.2044 20.2337 17.2345 20.4305 17.2989 20.6273L17.3118 20.6711H16.0283V19.6957C16.0283 19.2671 15.9167 18.904 15.7149 18.6678C15.4488 18.3573 15.1269 18.2217 14.6332 18.2217H12.5986V17.8368H11.9547V20.6667H10.4051V16.2053H9.76121V21.3272H17.7067L17.7153 21.3359C18.0544 21.6902 18.5094 21.8827 18.9944 21.8827C19.4967 21.8827 19.9731 21.6858 20.3079 21.3359ZM20.1835 20.0281C20.1835 20.7104 19.6727 21.2222 18.9944 21.2222C18.3506 21.2222 17.8483 20.6973 17.8483 20.0281C17.8483 19.3502 18.3506 18.8209 18.9944 18.8209C19.6855 18.8209 20.1835 19.3283 20.1835 20.0281ZM12.5943 18.8822H14.6289C14.8994 18.8822 15.0968 18.9609 15.217 19.114C15.3286 19.2539 15.3801 19.4333 15.3801 19.6957V20.6711H12.5943V18.8822ZM24.7851 16.2053H24.1412V21.3272H24.7851V16.2053Z" fill="white"/>
<path d="M25.8324 35H1.16757C0.523688 35 1.81941e-07 34.4664 1.81941e-07 33.8103V25.5655C1.81941e-07 24.9094 0.523688 24.3758 1.16757 24.3758H25.8324C26.4763 24.3758 27 24.9094 27 25.5655V33.8103C26.9957 34.4664 26.4763 35 25.8324 35Z" fill="#C5992C"/>
<path d="M5.91081 31.6758L4.27107 26.0204H1.97456C2.73863 28.3648 4.36979 33.386 4.39126 33.386H7.28442L9.65819 26.0204H7.38744L5.91081 31.6758Z" fill="white"/>
<path d="M25.0168 26.0204H17.4062L17.9771 27.7087H20.411V33.386H22.5959V27.7087H25.0211L25.0168 26.0204Z" fill="white"/>
<path d="M17.1272 28.2029L17.359 28.7234C17.359 28.7234 15.7107 30.1318 13.9636 33.3904C13.9636 33.3904 13.2038 32.0257 12.9291 31.6233L13.1995 30.5517L13.9507 31.4178C13.9507 31.4134 15.9296 29.0034 17.1272 28.2029Z" fill="#045C4D"/>
<path d="M14.4143 30.3943C14.8607 29.8869 15.4617 29.2352 16.0412 28.6972C15.5604 27.2451 15.1483 26.0204 15.1397 26.0204H12.2466L9.87281 33.386H12.1479L13.6202 27.4463C13.6202 27.4506 14.0151 28.9203 14.4143 30.3943Z" fill="white"/>
<path d="M14.9337 32.31C15.1097 32.9486 15.2299 33.386 15.2342 33.386H17.5908C17.5908 33.386 17.0671 31.7939 16.5005 30.0925C16.0626 30.6305 15.5175 31.3653 14.9337 32.31Z" fill="white"/>
</svg>
