<svg width="60" height="29" viewBox="0 0 60 29" fill="none" xmlns="http://www.w3.org/2000/svg">
<rect x="0.319149" y="0.319149" width="59.3617" height="28.3617" rx="7.34043" fill="white"/>
<rect x="0.319149" y="0.319149" width="59.3617" height="28.3617" rx="7.34043" stroke="#BDC0C2" stroke-width="0.638298"/>
<path d="M36.9617 7.5C33.6957 7.5 30.7768 9.09035 30.7768 12.028C30.7768 15.3972 35.9533 15.6299 35.9533 17.3228C35.9533 18.0356 35.0839 18.6735 33.5985 18.6735C31.491 18.6735 29.9157 17.7821 29.9157 17.7821L29.2416 20.747C29.2416 20.747 31.0563 21.5 33.4654 21.5C37.0363 21.5 39.8465 19.8318 39.8465 16.8436C39.8465 13.2831 34.6483 13.0574 34.6483 11.4865C34.6483 10.9281 35.3621 10.3165 36.8429 10.3165C38.5139 10.3165 39.8769 10.9649 39.8769 10.9649L40.5367 8.10162C40.5367 8.10162 39.0536 7.5 36.9617 7.5ZM7.0792 7.71626L7 8.14834C7 8.14834 8.37401 8.38449 9.61173 8.85593C11.2054 9.39614 11.3187 9.711 11.5871 10.6876L14.5115 21.2768H18.4319L24.4713 7.71626H20.5601L16.6793 16.9361L15.0958 9.12062C14.9508 8.22619 14.215 7.71582 13.3148 7.71582H7.07966L7.0792 7.71626ZM26.0442 7.71626L22.9761 21.2768H26.7059L29.7629 7.71626H26.0442ZM46.8459 7.71626C45.9467 7.71626 45.4701 8.16866 45.1206 8.95886L39.6563 21.2768H43.5675L44.324 19.2237H49.0888L49.5488 21.2768H53L49.9895 7.71626H46.8459ZM47.3548 11.3801L48.5142 16.4686H45.4084L47.3548 11.3801Z" fill="#1434CB"/>
</svg>
