<svg width="36" height="36" viewBox="0 0 36 36" fill="none" xmlns="http://www.w3.org/2000/svg">
<path d="M31.5 18C31.5 18.2984 31.3815 18.5845 31.1705 18.7955C30.9595 19.0065 30.6734 19.125 30.375 19.125H5.625C5.32663 19.125 5.04048 19.0065 4.82951 18.7955C4.61853 18.5845 4.5 18.2984 4.5 18C4.5 17.7016 4.61853 17.4155 4.82951 17.2045C5.04048 16.9935 5.32663 16.875 5.625 16.875H30.375C30.6734 16.875 30.9595 16.9935 31.1705 17.2045C31.3815 17.4155 31.5 17.7016 31.5 18ZM5.625 10.125H30.375C30.6734 10.125 30.9595 10.0065 31.1705 9.79549C31.3815 9.58452 31.5 9.29837 31.5 9C31.5 8.70163 31.3815 8.41548 31.1705 8.20451C30.9595 7.99353 30.6734 7.875 30.375 7.875H5.625C5.32663 7.875 5.04048 7.99353 4.82951 8.20451C4.61853 8.41548 4.5 8.70163 4.5 9C4.5 9.29837 4.61853 9.58452 4.82951 9.79549C5.04048 10.0065 5.32663 10.125 5.625 10.125ZM30.375 25.875H5.625C5.32663 25.875 5.04048 25.9935 4.82951 26.2045C4.61853 26.4155 4.5 26.7016 4.5 27C4.5 27.2984 4.61853 27.5845 4.82951 27.7955C5.04048 28.0065 5.32663 28.125 5.625 28.125H30.375C30.6734 28.125 30.9595 28.0065 31.1705 27.7955C31.3815 27.5845 31.5 27.2984 31.5 27C31.5 26.7016 31.3815 26.4155 31.1705 26.2045C30.9595 25.9935 30.6734 25.875 30.375 25.875Z" fill="white"/>
</svg>
