<svg width="27" height="22" viewBox="0 0 27 22" fill="none" xmlns="http://www.w3.org/2000/svg">
<path d="M26.4 2.53935C25.4182 2.97 24.3721 3.25545 23.2815 3.39405C24.4035 2.72415 25.2598 1.67145 25.6624 0.4026C24.6163 1.0263 23.4613 1.46685 22.2304 1.7127C21.2371 0.65505 19.8214 0 18.277 0C15.2806 0 12.8683 2.4321 12.8683 5.41365C12.8683 5.84265 12.9046 6.25515 12.9937 6.64785C8.4942 6.4284 4.51275 4.27185 1.8381 0.9867C1.37115 1.79685 1.09725 2.72415 1.09725 3.7224C1.09725 5.5968 2.0625 7.25835 3.5013 8.2203C2.63175 8.2038 1.7787 7.95135 1.056 7.5537C1.056 7.5702 1.056 7.59165 1.056 7.6131C1.056 10.2432 2.93205 12.4278 5.3922 12.9311C4.95165 13.0515 4.4715 13.1093 3.9732 13.1093C3.6267 13.1093 3.2769 13.0895 2.94855 13.0169C3.6498 15.1602 5.6397 16.736 8.0058 16.7871C6.1644 18.2276 3.82635 19.0955 1.29525 19.0955C0.8514 19.0955 0.4257 19.0757 0 19.0212C2.39745 20.5673 5.23875 21.45 8.3028 21.45C18.2622 21.45 23.7072 13.2 23.7072 6.0489C23.7072 5.80965 23.6989 5.57865 23.6874 5.3493C24.7615 4.587 25.6641 3.63495 26.4 2.53935Z" fill="white"/>
</svg>
