<svg width="168" height="48" viewBox="0 0 168 48" fill="none" xmlns="http://www.w3.org/2000/svg">
<path d="M29.1917 45.4366C37.1535 44.0301 43.7296 42.8663 43.8051 42.8503L43.9424 42.8212L36.4257 33.8802C32.2915 28.9627 28.9089 24.9202 28.9089 24.8969C28.9089 24.8528 36.6706 3.47884 36.7142 3.40279C36.7288 3.37737 42.0109 12.4967 49.5183 25.5086C56.5468 37.6906 62.3416 47.7347 62.3954 47.8289L62.4933 48L14.7157 47.9938L29.1917 45.4366ZM120.803 43.2743C117.166 43.0412 115.051 40.9705 114.491 37.0948C114.342 36.0638 114.341 36.037 114.326 29.3438L114.311 22.8658H117.53L117.543 29.1317C117.554 34.7789 117.561 35.4411 117.615 35.8383C117.834 37.4506 118.271 38.5348 119.013 39.3131C119.608 39.9359 120.303 40.3006 121.267 40.4941C121.721 40.5854 123.014 40.5856 123.428 40.4945C124.405 40.2796 125.187 39.8546 125.878 39.1645C126.665 38.3778 127.247 37.2618 127.528 35.9997L127.623 35.5744L127.644 22.9366H130.931V42.8035H127.678V41.2275C127.678 40.1566 127.667 39.6554 127.642 39.6637C127.622 39.6704 127.538 39.7981 127.456 39.9476C126.896 40.9696 125.962 41.9041 124.939 42.4672C123.713 43.1421 122.483 43.382 120.803 43.2743ZM157.712 43.2582C156.428 43.1618 155.077 42.7204 153.972 42.0371C151.644 40.5968 150.266 38.2228 149.862 34.9557C149.723 33.8251 149.706 32.3065 149.823 31.3458C150.083 29.1993 150.926 27.0921 152.127 25.5878C152.435 25.2021 153.134 24.5036 153.519 24.1957C154.561 23.3643 155.779 22.7828 157.072 22.4999C157.826 22.3351 159.153 22.2577 159.953 22.3319C161.964 22.5183 163.808 23.4652 165.06 24.9555C166.333 26.4697 167.033 28.5855 167.122 31.1908C167.136 31.5991 167.14 32.315 167.13 32.7816L167.112 33.63L153.025 33.6479V33.9622C153.025 34.919 153.257 36.0089 153.659 36.9361C154.006 37.7357 154.603 38.6089 155.092 39.0314C156.094 39.8978 157.321 40.4164 158.663 40.5412C159.161 40.5875 160.429 40.5388 160.996 40.4516C162.614 40.203 164.153 39.5683 165.395 38.6369C165.541 38.5273 165.681 38.4249 165.706 38.4094C165.742 38.3866 165.751 38.673 165.75 39.8764L165.749 41.3718L165.416 41.5776C164.01 42.4468 162.4 43.0049 160.696 43.2138C160.187 43.2762 158.32 43.304 157.712 43.2582ZM163.842 30.6466C163.842 29.0438 163.166 27.2633 162.211 26.3465C161.528 25.6922 160.704 25.2923 159.724 25.1405C159.26 25.0686 158.282 25.0963 157.793 25.1951C156.76 25.404 155.905 25.8584 155.159 26.5953C154.374 27.3708 153.786 28.3127 153.416 29.3859C153.283 29.7718 153.127 30.4054 153.079 30.7578L153.056 30.9257H163.842V30.6466ZM68.2968 42.7593C68.3051 42.735 70.6969 36.4515 73.612 28.7959L78.9122 14.8768L82.3182 14.8766L82.4595 15.2389C82.8913 16.3462 93.0701 42.7733 93.0701 42.787C93.0701 42.7961 92.2548 42.8033 91.2584 42.8032L89.4467 42.8028L86.5126 34.9911L74.6986 34.9909L74.6472 35.1235C74.619 35.1964 73.9922 36.9539 73.2544 39.0291L71.9128 42.8021L70.0973 42.8028C68.6603 42.8033 68.285 42.7943 68.2968 42.7593ZM85.4344 32.0103C85.4344 32.0041 84.4471 29.3276 83.2405 26.0626C80.983 19.9542 80.8567 19.5867 80.6784 18.606C80.5947 18.1462 80.5524 18.1334 80.5028 18.553C80.4673 18.8529 80.3134 19.5241 80.1948 19.8963C80.136 20.081 79.1194 22.8712 77.9358 26.0966C76.7521 29.3221 75.7837 31.9747 75.7837 31.9913C75.7837 32.008 77.9551 32.0216 80.6091 32.0216C83.263 32.0216 85.4344 32.0165 85.4344 32.0103ZM94.166 41.7861L105.936 25.6054L95.2795 25.5701L95.261 22.8658H110.675V23.7792L104.789 31.9136C101.552 36.3875 98.903 40.0556 98.903 40.0648C98.903 40.074 101.52 40.0815 104.718 40.0815H110.533V42.8035H94.166V41.7861ZM137.353 42.7799C137.34 42.7669 137.329 38.281 137.329 32.8111V22.8658H140.546V24.9161C140.546 26.0438 140.56 26.9664 140.576 26.9664C140.593 26.9664 140.671 26.7819 140.75 26.5562C141.112 25.5224 141.739 24.5564 142.547 23.7887C143.275 23.097 144.107 22.6834 145.088 22.5252C145.364 22.4807 145.597 22.4722 146.149 22.4866C146.842 22.5046 147.204 22.5552 147.625 22.6929L147.757 22.7362V26.0753L147.377 25.8851C146.706 25.5491 146.044 25.4161 145.247 25.4575C144.729 25.4845 144.389 25.551 143.975 25.7065C143.122 26.0264 142.431 26.5911 141.948 27.3618C141.249 28.4777 140.75 29.9119 140.603 31.2302C140.576 31.4667 140.561 33.3934 140.554 37.1916L140.545 42.8035H138.961C138.089 42.8035 137.365 42.7929 137.353 42.7799ZM0.522461 42.7101C0.522461 42.6975 4.06432 36.5491 8.39325 29.047L16.264 15.4068L25.4365 7.70924C30.4814 3.47558 34.6226 0.00650067 34.6392 0.000173904C34.6558 -0.00615161 34.5894 0.160879 34.4917 0.371354C34.394 0.58183 29.912 10.1953 24.5317 21.7346L14.7493 42.7151L7.63589 42.724C3.72351 42.7289 0.522461 42.7226 0.522461 42.7101Z" fill="#BDC0C2"/>
</svg>
