<svg width="106" height="48" viewBox="0 0 106 48" fill="none" xmlns="http://www.w3.org/2000/svg">
<path d="M63.1013 20.8416H60.4857C60.432 20.6275 60.3919 20.3792 60.3653 20.0974C60.312 19.5488 60.312 18.9964 60.3653 18.4478C60.3919 18.1666 60.432 17.9186 60.4857 17.7033H67.0041V38.344C66.6778 38.4007 66.3488 38.4408 66.0184 38.464C65.6902 38.4892 65.3612 38.5025 65.032 38.5039C64.7167 38.5019 64.4016 38.4886 64.0872 38.464C63.7569 38.4406 63.4281 38.4003 63.1019 38.3433V20.8407V20.8411L63.1013 20.8416ZM85.7932 26.0323C85.7932 25.281 85.6924 24.5637 85.4918 23.8791C85.2903 23.1956 84.9944 22.5989 84.6066 22.089C84.2169 21.5799 83.721 21.1704 83.1174 20.8621C82.5141 20.5536 81.7963 20.3992 80.9649 20.3992C79.3288 20.3992 78.0746 20.8961 77.203 21.8881C76.3313 22.8804 75.8018 24.2617 75.6137 26.0323H85.7934H85.7932ZM75.5737 29.0094C75.6274 31.2625 76.2108 32.9125 77.3239 33.958C78.4366 35.004 80.0798 35.5278 82.2526 35.5278C84.1564 35.5278 85.9672 35.192 87.6838 34.5215C87.8979 34.9238 88.0721 35.4134 88.2064 35.9901C88.3382 36.5516 88.4189 37.1239 88.4477 37.6999C87.5632 38.0764 86.59 38.3568 85.5313 38.545C84.471 38.7322 83.2977 38.8267 82.011 38.8267C80.1327 38.8267 78.5231 38.5643 77.1827 38.0418C75.8412 37.5182 74.7348 36.7805 73.8631 35.8288C72.9915 34.8768 72.3541 33.7501 71.9518 32.4489C71.5497 31.1484 71.3481 29.7198 71.3481 28.1641C71.3481 26.6353 71.5424 25.2067 71.9315 23.8787C72.3197 22.5517 72.9178 21.3981 73.7216 20.4191C74.5266 19.4397 75.539 18.6621 76.7596 18.0854C77.9795 17.5087 79.4211 17.2199 81.0849 17.2199C82.5063 17.2199 83.7535 17.4617 84.8268 17.9444C85.8992 18.4271 86.798 19.0911 87.5225 19.936C88.2465 20.7811 88.7963 21.787 89.172 22.9532C89.5472 24.1205 89.7357 25.3876 89.7357 26.7559C89.7357 27.1316 89.7214 27.527 89.6947 27.9425C89.6727 28.2982 89.646 28.6536 89.6146 29.0086H75.5728L75.5732 29.0092L75.5737 29.0094ZM94.1235 17.7033C94.4035 17.6524 94.6854 17.6122 94.9684 17.5828C95.236 17.5566 95.5183 17.5429 95.8133 17.5429C96.1084 17.5429 96.403 17.5566 96.6985 17.5828C96.9934 17.6101 97.2618 17.6504 97.5034 17.7033C97.5831 18.1058 97.6637 18.6361 97.7439 19.2925C97.8242 19.9498 97.8652 20.506 97.8652 20.9622C98.4282 20.0506 99.1726 19.2588 100.098 18.588C101.023 17.9179 102.21 17.5822 103.658 17.5822C103.873 17.5822 104.094 17.5893 104.322 17.6027C104.517 17.6132 104.712 17.6329 104.905 17.6625C104.959 17.9043 105 18.1595 105.026 18.4273C105.053 18.6953 105.066 18.9771 105.066 19.272C105.066 19.5941 105.046 19.9297 105.006 20.2776C104.967 20.614 104.921 20.9493 104.866 21.2833C104.648 21.2298 104.425 21.2028 104.201 21.2029H103.658C102.934 21.2029 102.243 21.3037 101.586 21.5045C100.928 21.706 100.338 22.0615 99.8154 22.5706C99.2929 23.0806 98.8767 23.7782 98.5688 24.6634C98.2597 25.5486 98.1059 26.6886 98.1059 28.0831V38.3433C97.7795 38.4 97.4505 38.4405 97.1199 38.4638C96.7583 38.4907 96.4295 38.5037 96.1346 38.5037C95.8056 38.5024 95.4767 38.4891 95.1487 38.4638C94.805 38.4388 94.4626 38.3987 94.1225 38.3435V17.7035L94.1235 17.7033ZM65.8855 6.68206C65.8856 7.16363 65.7986 7.64126 65.6289 8.09192C65.178 8.26168 64.7003 8.3487 64.2186 8.34879H64.2127C63.731 8.34886 63.2532 8.26191 62.8024 8.09213C62.6324 7.64138 62.5453 7.1636 62.5453 6.68185V6.67555C62.5453 6.17922 62.6364 5.70388 62.8014 5.26527C63.2522 5.09525 63.7302 5.0083 64.2121 5.0086H64.2175C64.7141 5.0086 65.1892 5.09968 65.6278 5.26527C65.7977 5.71603 65.8847 6.19382 65.8845 6.67555V6.68185H65.8851L65.8855 6.68206ZM70.8018 5.56558H66.9034L69.6597 2.80902C69.2263 2.20031 68.6941 1.66832 68.0853 1.23505L65.3285 3.99161V0.0929696C64.962 0.0313087 64.5909 0.000211876 64.2192 0H64.2121C63.8339 0 63.4635 0.032319 63.1025 0.0929696V3.99161L60.3451 1.23484C60.0415 1.45097 59.7564 1.69218 59.4931 1.95593L59.4918 1.95719C59.2285 2.22074 58.9875 2.50574 58.7714 2.80923L61.5288 5.56558H57.6295C57.6295 5.56558 57.5367 6.29801 57.5367 6.6766V6.68122C57.5367 7.05981 57.5688 7.43085 57.6297 7.79203H61.529L58.7711 10.5482C59.2049 11.1568 59.7371 11.6889 60.3457 12.1226L63.1027 9.36621V13.2651C63.4633 13.3255 63.8331 13.3574 64.2108 13.3578H64.2202C64.5915 13.3575 64.9622 13.3265 65.3283 13.2651V9.36621L68.0855 12.1232C68.3892 11.9069 68.6744 11.6657 68.9382 11.4021H68.9388C69.2021 11.1383 69.443 10.8531 69.6591 10.5494L66.9027 7.79224H70.802C70.8624 7.43127 70.8943 7.06149 70.8943 6.68373V6.67408C70.8943 6.30262 70.8633 5.93221 70.802 5.566L70.8018 5.56558ZM0.135254 37.7809L10.9986 20.8818H1.42256C1.34239 20.3992 1.30231 19.8632 1.30231 19.2728C1.30231 18.7098 1.34302 18.1861 1.4234 17.703H16.9134L17.1149 18.2271L6.17114 35.1656H16.4305C16.5109 35.7022 16.5514 36.2516 16.5514 36.8147C16.5514 37.3519 16.5111 37.8613 16.4307 38.344H0.336723L0.135254 37.7803V37.7809ZM31.4775 28.647C31.0752 28.5939 30.5655 28.5408 29.9487 28.4865C29.3317 28.4334 28.8087 28.4061 28.3802 28.4061C26.7168 28.4061 25.4494 28.7146 24.5783 29.3316C23.7059 29.949 23.2708 30.8873 23.2708 32.148C23.2708 32.9526 23.4177 33.583 23.713 34.0388C24.0077 34.4955 24.3768 34.8434 24.8194 35.085C25.2622 35.3263 25.7512 35.4741 26.2874 35.5278C26.8236 35.5813 27.3336 35.608 27.8163 35.608C28.4333 35.608 29.0702 35.5744 29.7275 35.5072C30.3844 35.4407 30.9678 35.3398 31.4778 35.2057V28.647H31.4775ZM31.4775 24.7448C31.4775 23.1616 31.0752 22.0619 30.2708 21.4449C29.4658 20.8279 28.2992 20.5194 26.7703 20.5194C25.8307 20.5194 24.9529 20.5937 24.135 20.741C23.3257 20.8863 22.5261 21.0809 21.7405 21.3238C21.2305 20.4386 20.9766 19.3799 20.9766 18.1452C21.8874 17.8506 22.8931 17.6227 23.9934 17.4617C25.0931 17.3005 26.1525 17.2199 27.1722 17.2199C29.8542 17.2199 31.8927 17.8306 33.2876 19.051C34.6819 20.2724 35.38 22.2235 35.38 24.9054V37.8208C34.4406 38.0353 33.301 38.2565 31.96 38.4846C30.6041 38.7135 29.2313 38.828 27.8561 38.8267C26.542 38.8267 25.3546 38.7064 24.2956 38.4648C23.2358 38.2229 22.3371 37.8348 21.5997 37.2976C20.8614 36.7616 20.2922 36.0774 19.8893 35.2462C19.4872 34.4145 19.2859 33.4088 19.2859 32.2283C19.2859 31.0753 19.5206 30.0625 19.99 29.1903C20.4513 28.3286 21.1055 27.5851 21.9015 27.0178C22.7061 26.442 23.6314 26.0122 24.6775 25.731C25.7239 25.4491 26.8232 25.3081 27.9766 25.3081C28.8349 25.3081 29.539 25.3286 30.0891 25.3689C30.6385 25.4088 31.1015 25.4558 31.4771 25.5095V24.745L31.4775 24.7448ZM43.7084 34.9635C44.2163 35.1511 44.7422 35.286 45.2778 35.366C45.8142 35.4468 46.5109 35.4869 47.3701 35.4869C48.3355 35.4869 49.2202 35.3331 50.0249 35.0246C50.8299 34.7167 51.5204 34.2401 52.0971 33.596C52.6738 32.9526 53.1296 32.1417 53.465 31.1616C53.8001 30.1832 53.9682 29.0235 53.9682 27.6816C53.9682 25.536 53.572 23.8327 52.7812 22.5719C51.9894 21.3114 50.6952 20.681 48.8987 20.681C48.2282 20.681 47.5839 20.8015 46.968 21.0432C46.3502 21.2846 45.8007 21.6468 45.3178 22.1295C44.8351 22.6122 44.4463 23.2229 44.1514 23.9603C43.8555 24.6986 43.7086 25.5763 43.7086 26.5958V34.9641V34.9637L43.7084 34.9635ZM39.7252 17.7028C39.998 17.6491 40.2729 17.609 40.5499 17.5824C40.8376 17.5558 41.1263 17.5424 41.4152 17.5425C41.6826 17.5425 41.964 17.5563 42.2597 17.5824C42.5544 17.6097 42.836 17.6502 43.1046 17.703C43.1311 17.7576 43.1651 17.9244 43.2053 18.2063C43.2452 18.4881 43.2855 18.7897 43.326 19.1112C43.3663 19.4334 43.4064 19.7425 43.4467 20.0367C43.487 20.3322 43.5071 20.52 43.5071 20.6004C43.7747 20.1717 44.0968 19.7555 44.4725 19.3532C44.8482 18.9507 45.2979 18.5887 45.8209 18.2672C46.3439 17.945 46.9336 17.6905 47.5911 17.5024C48.248 17.3148 48.9789 17.2201 49.7837 17.2201C50.9904 17.2201 52.1105 17.4216 53.1437 17.8241C54.1758 18.2271 55.0603 18.8497 55.7984 19.6949C56.5357 20.54 57.1122 21.613 57.5283 22.9135C57.9439 24.2155 58.1516 25.7509 58.1516 27.5209C58.1516 31.0613 57.1925 33.8315 55.2744 35.8294C53.3562 37.8279 50.6412 38.8267 47.1275 38.8267C46.5371 38.8267 45.934 38.7864 45.317 38.706C44.6996 38.6252 44.1636 38.5177 43.7073 38.3843V47.8395C43.3675 47.8948 43.0254 47.935 42.6819 47.9601C42.3195 47.9864 41.9907 48 41.6956 48C41.3667 47.9986 41.038 47.9853 40.7101 47.9601C40.3797 47.9367 40.0508 47.8964 39.7246 47.8395V17.703L39.7252 17.7028Z" fill="#BDC0C2"/>
</svg>
