<svg width="37" height="37" viewBox="0 0 37 37" fill="none" xmlns="http://www.w3.org/2000/svg">
<path d="M6.93717 26.9792C6.93717 29.1077 8.66276 30.8333 10.7913 30.8333C12.9199 30.8333 14.6455 29.1077 14.6455 26.9792C14.6455 24.8506 12.9199 23.125 10.7913 23.125C8.66276 23.125 6.93717 24.8506 6.93717 26.9792Z" stroke="#171310" stroke-width="1.5"/>
<path d="M22.3542 26.9792C22.3542 29.1077 24.0797 30.8333 26.2083 30.8333C28.3369 30.8333 30.0625 29.1077 30.0625 26.9792C30.0625 24.8506 28.3369 23.125 26.2083 23.125C24.0797 23.125 22.3542 24.8506 22.3542 26.9792Z" stroke="#171310" stroke-width="1.5"/>
<path d="M14.6462 26.9792H22.3545M6.93782 26.9792H5.76122C5.42221 26.9792 5.25263 26.9792 5.11018 26.9615C4.05969 26.8306 3.23227 26.0032 3.10139 24.9527C3.08366 24.8102 3.08366 24.6406 3.08366 24.3016V20.0417C3.08366 14.5073 7.57006 10.0209 13.1045 10.0209M13.8753 23.8959V10.7917C13.8753 8.61145 13.8753 7.52132 14.5526 6.844C15.23 6.16669 16.3201 6.16669 18.5003 6.16669H29.292C31.4722 6.16669 32.5624 6.16669 33.2397 6.844C33.917 7.52132 33.917 8.61145 33.917 10.7917V23.125C33.917 24.5659 33.917 25.2863 33.6072 25.8229C33.4042 26.1744 33.1123 26.4664 32.7607 26.6693C32.2241 26.9792 31.5037 26.9792 30.0628 26.9792" stroke="#171310" stroke-width="1.5" stroke-linecap="round" stroke-linejoin="round"/>
</svg>
