<svg width="37" height="37" viewBox="0 0 37 37" fill="none" xmlns="http://www.w3.org/2000/svg">
<path d="M10.7917 30.8334C9.08874 30.8334 7.70833 29.4529 7.70833 27.75C7.70833 26.0471 9.08874 24.6667 10.7917 24.6667C12.4946 24.6667 13.875 26.0471 13.875 27.75C13.875 29.4529 12.4946 30.8334 10.7917 30.8334Z" stroke="#171310" stroke-width="1.5"/>
<path d="M26.2087 30.8334C24.5058 30.8334 23.1253 29.4529 23.1253 27.75C23.1253 26.0471 24.5058 24.6667 26.2087 24.6667C27.9115 24.6667 29.292 26.0471 29.292 27.75C29.292 29.4529 27.9115 30.8334 26.2087 30.8334Z" stroke="#171310" stroke-width="1.5"/>
<path d="M7.70866 16.9584H3.08366V20.0417C3.08366 23.6754 3.08366 25.4922 4.21247 26.6212C4.9631 27.3717 6.01791 27.6233 7.70866 27.7075M29.292 27.7075C30.9828 27.6233 32.0375 27.3717 32.7881 26.6212C33.917 25.4922 33.917 23.6754 33.917 20.0417V13.875C33.917 10.2413 33.917 8.42441 32.7881 7.29554C31.6593 6.16669 29.8424 6.16669 26.2087 6.16669H21.1212C19.3994 6.16669 18.5386 6.16669 17.8419 6.39305C16.4339 6.85054 15.33 7.95447 14.8725 9.36248C14.6462 10.0592 14.6462 10.92 14.6462 12.6417C14.6462 14.5237 14.6462 15.4648 15.1615 16.1012C15.2631 16.2267 15.3778 16.3414 15.5033 16.443C16.1397 16.9584 17.0808 16.9584 18.9628 16.9584H24.667M13.8753 27.75H23.1253" stroke="#171310" stroke-width="1.5" stroke-linecap="round" stroke-linejoin="round"/>
<path d="M14.6455 9.25H11.8378C9.59408 9.25 8.47237 9.25 7.55939 9.7953C6.64642 10.3406 6.11454 11.3283 5.05079 13.3038L3.08301 16.9583" stroke="#171310" stroke-width="1.5" stroke-linecap="round" stroke-linejoin="round"/>
<path d="M21.5837 20.0417C21.5837 20.0417 22.6198 19.1839 23.5303 18.3707C24.174 17.853 24.667 17.4094 24.667 16.9657C24.667 16.5726 24.2824 16.2072 23.656 15.6348C22.7678 14.8954 21.5837 13.875 21.5837 13.875" stroke="#171310" stroke-width="1.5" stroke-linecap="round" stroke-linejoin="round"/>
</svg>
