<svg width="165" height="39" viewBox="0 0 165 39" fill="none" xmlns="http://www.w3.org/2000/svg">
<path d="M2.4822 23.5319H6.5601V25.5H0V13.1244H2.4822V23.5319Z" fill="#1C3533"/>
<path d="M9.39662 14.5074C8.95928 14.5074 8.59286 14.3715 8.29736 14.0996C8.01368 13.8159 7.87184 13.4672 7.87184 13.0535C7.87184 12.6398 8.01368 12.297 8.29736 12.0252C8.59286 11.7415 8.95928 11.5997 9.39662 11.5997C9.83396 11.5997 10.1945 11.7415 10.4782 12.0252C10.7737 12.297 10.9214 12.6398 10.9214 13.0535C10.9214 13.4672 10.7737 13.8159 10.4782 14.0996C10.1945 14.3715 9.83396 14.5074 9.39662 14.5074ZM10.62 15.6776V25.5H8.13779V15.6776H10.62Z" fill="#1C3533"/>
<path d="M18.5155 15.5357C19.6857 15.5357 20.6313 15.9081 21.3523 16.6527C22.0733 17.3856 22.4339 18.4139 22.4339 19.7377V25.5H19.9517V20.0746C19.9517 19.2945 19.7566 18.6976 19.3666 18.2839C18.9765 17.8584 18.4446 17.6456 17.7709 17.6456C17.0853 17.6456 16.5416 17.8584 16.1397 18.2839C15.7496 18.6976 15.5546 19.2945 15.5546 20.0746V25.5H13.0724V15.6776H15.5546V16.9009C15.8856 16.4754 16.3052 16.1445 16.8134 15.9081C17.3335 15.6598 17.9009 15.5357 18.5155 15.5357Z" fill="#1C3533"/>
<path d="M28.6417 15.518C29.3745 15.518 30.0187 15.6657 30.5743 15.9612C31.1298 16.2449 31.5672 16.6173 31.8863 17.0782V15.6776H34.3862V25.5709C34.3862 26.481 34.203 27.2907 33.8366 27.9999C33.4702 28.7209 32.9205 29.2883 32.1877 29.702C31.4549 30.1275 30.5684 30.3403 29.5282 30.3403C28.1334 30.3403 26.9869 30.0152 26.0886 29.3651C25.2021 28.715 24.6997 27.8285 24.5815 26.7056H27.046C27.176 27.1548 27.4538 27.5094 27.8793 27.7694C28.3167 28.0413 28.8426 28.1772 29.4573 28.1772C30.1783 28.1772 30.7634 27.9585 31.2126 27.5212C31.6617 27.0957 31.8863 26.4456 31.8863 25.5709V24.0461C31.5672 24.5071 31.1239 24.8913 30.5565 25.1986C30.001 25.5059 29.3627 25.6596 28.6417 25.6596C27.8143 25.6596 27.0578 25.4468 26.3723 25.0213C25.6867 24.5958 25.143 23.9988 24.7411 23.2305C24.351 22.4504 24.156 21.558 24.156 20.5533C24.156 19.5604 24.351 18.6798 24.7411 17.9115C25.143 17.1432 25.6808 16.5522 26.3545 16.1385C27.0401 15.7248 27.8025 15.518 28.6417 15.518ZM31.8863 20.5888C31.8863 19.986 31.7681 19.4718 31.5317 19.0463C31.2953 18.6089 30.9762 18.278 30.5743 18.0534C30.1724 17.817 29.741 17.6988 29.28 17.6988C28.819 17.6988 28.3935 17.8111 28.0034 18.0357C27.6134 18.2602 27.2942 18.5912 27.046 19.0285C26.8096 19.4541 26.6914 19.9623 26.6914 20.5533C26.6914 21.1443 26.8096 21.6644 27.046 22.1136C27.2942 22.5509 27.6134 22.8878 28.0034 23.1242C28.4053 23.3606 28.8308 23.4788 29.28 23.4788C29.741 23.4788 30.1724 23.3665 30.5743 23.1419C30.9762 22.9055 31.2953 22.5745 31.5317 22.149C31.7681 21.7117 31.8863 21.1916 31.8863 20.5888Z" fill="#1C3533"/>
<path d="M46.0833 15.6776V25.5H43.5834V24.2589C43.2642 24.6844 42.8446 25.0213 42.3246 25.2695C41.8163 25.5059 41.2608 25.6241 40.6579 25.6241C39.8896 25.6241 39.21 25.4645 38.619 25.1454C38.028 24.8144 37.5611 24.3357 37.2183 23.7093C36.8874 23.071 36.7219 22.3145 36.7219 21.4398V15.6776H39.2041V21.0852C39.2041 21.8653 39.3991 22.4682 39.7892 22.8937C40.1792 23.3074 40.7111 23.5142 41.3849 23.5142C42.0704 23.5142 42.6082 23.3074 42.9983 22.8937C43.3884 22.4682 43.5834 21.8653 43.5834 21.0852V15.6776H46.0833Z" fill="#1C3533"/>
<path d="M47.8941 20.5533C47.8941 19.5604 48.0892 18.6798 48.4792 17.9115C48.8811 17.1432 49.4189 16.5522 50.0927 16.1385C50.7782 15.7248 51.5406 15.518 52.3798 15.518C53.1127 15.518 53.7509 15.6657 54.2947 15.9612C54.8502 16.2567 55.2934 16.6291 55.6244 17.0782V15.6776H58.1243V25.5H55.6244V24.0639C55.3053 24.5248 54.862 24.909 54.2947 25.2163C53.7391 25.5118 53.0949 25.6596 52.3621 25.6596C51.5347 25.6596 50.7782 25.4468 50.0927 25.0213C49.4189 24.5958 48.8811 23.9988 48.4792 23.2305C48.0892 22.4504 47.8941 21.558 47.8941 20.5533ZM55.6244 20.5888C55.6244 19.986 55.5062 19.4718 55.2698 19.0463C55.0334 18.6089 54.7143 18.278 54.3124 18.0534C53.9105 17.817 53.4791 17.6988 53.0181 17.6988C52.5571 17.6988 52.1316 17.8111 51.7415 18.0357C51.3515 18.2602 51.0323 18.5912 50.7841 19.0285C50.5477 19.4541 50.4295 19.9623 50.4295 20.5533C50.4295 21.1443 50.5477 21.6644 50.7841 22.1136C51.0323 22.5509 51.3515 22.8878 51.7415 23.1242C52.1434 23.3606 52.5689 23.4788 53.0181 23.4788C53.4791 23.4788 53.9105 23.3665 54.3124 23.1419C54.7143 22.9055 55.0334 22.5745 55.2698 22.149C55.5062 21.7117 55.6244 21.1916 55.6244 20.5888Z" fill="#1C3533"/>
<path d="M63.0308 23.5319H67.1087V25.5H60.5486V13.1244H63.0308V23.5319Z" fill="#1C3533"/>
<path d="M77.8174 20.376C77.8174 20.7306 77.7937 21.0498 77.7465 21.3334H70.5658C70.6249 22.0426 70.8731 22.5982 71.3105 23.0001C71.7478 23.4019 72.2856 23.6029 72.9239 23.6029C73.8459 23.6029 74.5019 23.2069 74.8919 22.415H77.5692C77.2855 23.3606 76.7418 24.1407 75.938 24.7553C75.1342 25.3581 74.1473 25.6596 72.9771 25.6596C72.0315 25.6596 71.1805 25.4527 70.424 25.039C69.6793 24.6135 69.0942 24.0166 68.6687 23.2483C68.255 22.48 68.0481 21.5935 68.0481 20.5888C68.0481 19.5723 68.255 18.6798 68.6687 17.9115C69.0824 17.1432 69.6616 16.5522 70.4062 16.1385C71.1509 15.7248 72.0079 15.518 72.9771 15.518C73.9109 15.518 74.7442 15.7189 75.477 16.1208C76.2217 16.5227 76.795 17.096 77.1968 17.8406C77.6105 18.5735 77.8174 19.4186 77.8174 20.376ZM75.2465 19.6668C75.2347 19.0285 75.0042 18.5203 74.5551 18.142C74.1059 17.752 73.5563 17.5569 72.9062 17.5569C72.2915 17.5569 71.7715 17.7461 71.3459 18.1243C70.9322 18.4907 70.6781 19.0049 70.5835 19.6668H75.2465Z" fill="#1C3533"/>
<path d="M78.9909 20.5533C78.9909 19.5604 79.1859 18.6798 79.576 17.9115C79.9779 17.1432 80.5157 16.5522 81.1894 16.1385C81.875 15.7248 82.6374 15.518 83.4766 15.518C84.2094 15.518 84.8477 15.6657 85.3914 15.9612C85.947 16.2567 86.3902 16.6291 86.7212 17.0782V15.6776H89.2211V25.5H86.7212V24.0639C86.402 24.5248 85.9588 24.909 85.3914 25.2163C84.8359 25.5118 84.1917 25.6596 83.4588 25.6596C82.6314 25.6596 81.875 25.4468 81.1894 25.0213C80.5157 24.5958 79.9779 23.9988 79.576 23.2305C79.1859 22.4504 78.9909 21.558 78.9909 20.5533ZM86.7212 20.5888C86.7212 19.986 86.603 19.4718 86.3666 19.0463C86.1302 18.6089 85.811 18.278 85.4091 18.0534C85.0073 17.817 84.5758 17.6988 84.1149 17.6988C83.6539 17.6988 83.2284 17.8111 82.8383 18.0357C82.4482 18.2602 82.1291 18.5912 81.8809 19.0285C81.6445 19.4541 81.5263 19.9623 81.5263 20.5533C81.5263 21.1443 81.6445 21.6644 81.8809 22.1136C82.1291 22.5509 82.4482 22.8878 82.8383 23.1242C83.2402 23.3606 83.6657 23.4788 84.1149 23.4788C84.5758 23.4788 85.0073 23.3665 85.4091 23.1419C85.811 22.9055 86.1302 22.5745 86.3666 22.149C86.603 21.7117 86.7212 21.1916 86.7212 20.5888Z" fill="#1C3533"/>
<path d="M94.1276 17.2023C94.4467 16.6823 94.8604 16.2745 95.3687 15.979C95.8888 15.6835 96.4798 15.5357 97.1417 15.5357V18.142H96.4857C95.7056 18.142 95.1146 18.3252 94.7127 18.6917C94.3226 19.0581 94.1276 19.6964 94.1276 20.6065V25.5H91.6454V15.6776H94.1276V17.2023Z" fill="#1C3533"/>
<path d="M104.257 15.5357C105.427 15.5357 106.372 15.9081 107.093 16.6527C107.815 17.3856 108.175 18.4139 108.175 19.7377V25.5H105.693V20.0746C105.693 19.2945 105.498 18.6976 105.108 18.2839C104.718 17.8584 104.186 17.6456 103.512 17.6456C102.826 17.6456 102.283 17.8584 101.881 18.2839C101.491 18.6976 101.296 19.2945 101.296 20.0746V25.5H98.8136V15.6776H101.296V16.9009C101.627 16.4754 102.046 16.1445 102.555 15.9081C103.075 15.6598 103.642 15.5357 104.257 15.5357Z" fill="#1C3533"/>
<path d="M156.366 29.7589C156.366 29.7589 146.301 35.0501 135.436 29.7589V15.9692H156.366V29.7589Z" fill="#1C3533"/>
<path d="M164.842 10.5617V4.33924L146.933 6.74064L149.87 14.3763L164.842 10.5617Z" fill="#124541"/>
<path d="M126.964 10.5608L132.763 8.64134L152.993 13.5884L145.902 15.3859L126.964 10.5608Z" fill="#1C3533"/>
<path d="M137.526 2.13062L144.703 0.579102L164.841 4.33579L157.75 6.13336L137.526 2.13062Z" fill="#1C3533"/>
<path d="M132.779 5.83331L137.525 4.6111L157.74 9.27184L150.65 11.0697L132.779 5.83331Z" fill="#1C3533"/>
<path d="M164.841 17.7691L145.904 22.6591V15.3853L164.841 10.5602V17.7691Z" fill="#124541"/>
<path d="M126.964 17.7691L145.901 22.6591V15.3853L126.964 10.5608V17.7691Z" fill="#1C3533"/>
<path d="M164.841 20.0022L145.904 24.8926V17.6185L164.841 12.7934V20.0022Z" fill="#124541"/>
<path d="M126.964 20.0022L145.901 24.8926V17.6185L126.964 12.7934V20.0022Z" fill="#1C3533"/>
<path d="M137.525 4.6111L157.74 9.27184L157.741 6.14099L137.526 2.13062L137.525 4.6111Z" fill="#1C3533"/>
<path d="M132.779 8.66306L152.994 13.589V10.4578L132.779 5.83331V8.66306Z" fill="#1C3533"/>
<path d="M128.992 29.5887H131.051V13.5189L128.992 14.0336V29.5887Z" fill="#1C3533"/>
<path d="M133.271 32.7886C133.271 35.8994 130.024 38.4209 130.024 38.4209C130.024 38.4209 126.777 35.8994 126.777 32.7886C126.777 29.6779 130.024 27.1561 130.024 27.1561C130.024 27.1561 133.271 29.6775 133.271 32.7886Z" fill="#114541"/>
</svg>
