<svg width="176" height="34" viewBox="0 0 176 34" fill="none" xmlns="http://www.w3.org/2000/svg">
<path d="M90.9851 10.3438C95.7501 10.3438 98.5351 14.0662 98.5351 18.6921C98.5351 23.3287 95.7501 27.0404 90.9851 27.0404C88.6697 27.0404 86.9808 26.0608 86.1307 24.9724V32.0706H81.679V10.7139H85.7839V12.6622C86.813 11.2037 88.6697 10.3438 90.9851 10.3438ZM52.1903 5.85096C58.3491 5.85096 61.4685 10.0322 62.0284 13.6663H57.2933C56.7335 11.478 54.7097 9.95401 52.1502 9.95401C48.7508 9.95401 46.3032 12.6503 46.3032 16.4798C46.3032 20.2702 48.7508 22.9665 52.1502 22.9665C54.7097 22.9665 56.7335 21.4425 57.2933 19.2542H62.0284C61.4685 22.8884 58.3491 27.0695 52.1903 27.0695C46.0713 27.0695 41.832 22.3413 41.832 16.4798C41.832 10.5792 46.0713 5.85096 52.1903 5.85096ZM70.4172 10.3438C72.7325 10.3438 74.5781 11.1928 75.6184 12.6622V10.7139H79.7234V26.6703H75.6184V24.722C74.5892 26.1805 72.7325 27.0404 70.4172 27.0404C65.6523 27.0404 62.8671 23.3179 62.8671 18.6921C62.8671 14.0553 65.6523 10.3438 70.4172 10.3438ZM107.139 10.3438C109.454 10.3438 111.3 11.1928 112.34 12.6622V10.7139H116.445V26.6703H112.34V24.722C111.311 26.1805 109.454 27.0404 107.139 27.0404C102.374 27.0404 99.5887 23.3179 99.5887 18.6921C99.5887 14.0553 102.374 10.3438 107.139 10.3438ZM125.939 10.3438C131.04 10.3438 133.456 13.8486 133.769 16.5587H129.194C128.848 15.1873 127.539 14.186 125.906 14.186C123.523 14.186 122.148 16.0145 122.148 18.6921C122.148 21.3697 123.523 23.1982 125.906 23.1982C127.539 23.1982 128.848 22.1968 129.194 20.8255H133.769C133.456 23.5357 131.04 27.0404 125.939 27.0404C121.175 27.0404 117.707 23.4485 117.707 18.6921C117.707 13.9356 121.175 10.3438 125.939 10.3438ZM156.773 10.3438C162.029 10.3438 165.385 14.1533 165.385 18.6921C165.385 23.2309 162.029 27.0404 156.773 27.0404C151.516 27.0404 148.16 23.2309 148.16 18.6921C148.16 14.1533 151.516 10.3438 156.773 10.3438ZM175.159 10.5508C175.313 10.5508 175.69 10.5834 175.69 10.5834V14.6433C175.69 14.6433 175.225 14.5562 174.827 14.5562C172.262 14.5562 170.924 15.8079 170.924 18.7357V26.6922H166.523V10.7031H170.581V12.7712C171.166 11.8242 172.406 10.5508 175.159 10.5508ZM145.477 6.74217V10.7041H148.9V14.2306H145.477V26.6823H141.026V6.74217H145.477ZM139.036 10.7033V26.6706H134.584V10.7033H139.036ZM71.3567 14.1533C68.8848 14.1533 67.3188 16.1017 67.3188 18.6921C67.3188 21.2825 68.8848 23.2309 71.3567 23.2309C73.8288 23.2309 75.3947 21.2825 75.3947 18.6921C75.4058 16.1017 73.8399 14.1533 71.3567 14.1533ZM90.0455 14.1533C87.5736 14.1533 86.0075 16.1017 86.0075 18.6921C85.9964 21.2825 87.5624 23.2309 90.0455 23.2309C92.5175 23.2309 94.0834 21.2825 94.0834 18.6921C94.0834 16.1017 92.5175 14.1533 90.0455 14.1533ZM108.078 14.1533C105.606 14.1533 104.04 16.1017 104.04 18.6921C104.04 21.2825 105.606 23.2309 108.078 23.2309C110.55 23.2309 112.116 21.2825 112.116 18.6921C112.127 16.1017 110.561 14.1533 108.078 14.1533ZM156.773 14.1533C154.423 14.1533 152.612 15.8295 152.612 18.6921C152.612 21.5547 154.423 23.2309 156.773 23.2309C159.122 23.2309 160.933 21.5547 160.933 18.6921C160.933 15.8295 159.122 14.1533 156.773 14.1533ZM136.81 4.18359C138.376 4.18359 139.505 5.28291 139.505 6.80672C139.505 8.33052 138.376 9.39718 136.81 9.39718C135.244 9.39718 134.114 8.33052 134.114 6.80672C134.114 5.28291 135.244 4.18359 136.81 4.18359Z" fill="#001E33"/>
<path d="M5.21086 7.07422L0.040601 12.251L8.01398 20.2483L0 28.2863L5.15408 33.4653L13.1842 25.4251L21.1709 33.4079L26.3411 28.2311L5.21086 7.07422Z" fill="#001E33"/>
<path d="M18.3677 20.25L13.1836 25.4267L21.1702 33.4096L26.3405 28.2328L18.3677 20.25Z" fill="#001E33"/>
<path d="M18.3677 20.25L13.1836 25.4267L15.1792 27.4112L18.3677 20.25Z" fill="#001E33"/>
<path d="M25.4331 13.2008L33.4633 5.16058L28.2909 0L20.263 8.02409L12.2757 0.0406532L7.10547 5.21744L28.2358 26.3743L33.406 21.1975L25.4331 13.2008Z" fill="#001E33"/>
<path d="M15.0788 13.2032L20.263 8.0264L12.2757 0.0429688L7.10547 5.21975L15.0788 13.2032Z" fill="#001E33"/>
<path d="M15.082 13.2009L20.2662 8.02417L18.2701 6.03906L15.082 13.2009Z" fill="#001E33"/>
</svg>
