<svg width="102" height="30" viewBox="0 0 102 30" fill="none" xmlns="http://www.w3.org/2000/svg">
<path d="M16.4743 8.2944H13.4218L9.01083 19.5318H11.7746L12.4951 17.6283H16.6622L15.9078 15.5223H13.1606L14.9453 10.6866L18.1225 19.5318H20.8853L16.4743 8.2944ZM62.8742 19.5318V8.2944H65.3281V17.4258H70.1663V19.5318H62.8742ZM77.0183 19.5318V8.2944H79.4723V17.4258H84.3123V19.5318H77.0183ZM49.2846 10.3158C50.2603 10.317 51.1957 10.6981 51.8857 11.3755C52.5756 12.0529 52.9638 12.9713 52.965 13.9293C52.9638 14.8873 52.5756 15.8057 51.8857 16.4831C51.1957 17.1605 50.2603 17.5416 49.2846 17.5428C48.3088 17.5416 47.3734 17.1605 46.6835 16.4831C45.9935 15.8057 45.6054 14.8873 45.6042 13.9293C45.6054 12.9713 45.9935 12.0529 46.6835 11.3755C47.3734 10.6981 48.3088 10.317 49.2846 10.3158ZM49.2846 8.1171C47.7147 8.11758 46.2092 8.73009 45.0992 9.81998C43.9891 10.9099 43.3652 12.388 43.3647 13.9293C43.365 15.4708 43.9887 16.9491 45.0988 18.0392C46.2089 19.1293 47.7145 19.7419 49.2846 19.7424C50.8548 19.7422 52.3606 19.1296 53.4709 18.0395C54.5812 16.9494 55.2051 15.471 55.2053 13.9293C55.2048 12.3878 54.5809 10.9096 53.4706 9.81966C52.3603 8.72974 50.8546 8.11734 49.2846 8.1171ZM95.5918 10.3158C96.5676 10.317 97.503 10.6981 98.1929 11.3755C98.8829 12.0529 99.271 12.9713 99.2723 13.9293C99.271 14.8873 98.8829 15.8057 98.1929 16.4831C97.503 17.1605 96.5676 17.5416 95.5918 17.5428C94.6159 17.5418 93.6803 17.1609 92.9901 16.4834C92.3 15.806 91.9117 14.8875 91.9105 13.9293C91.9117 12.9711 92.3 12.0526 92.9901 11.3752C93.6803 10.6977 94.6159 10.3168 95.5918 10.3158ZM95.5918 8.1171C94.0218 8.11734 92.5161 8.72974 91.4058 9.81966C90.2955 10.9096 89.6716 12.3878 89.6711 13.9293C89.6713 15.471 90.2952 16.9494 91.4055 18.0395C92.5158 19.1296 94.0216 19.7422 95.5918 19.7424C97.162 19.7422 98.6679 19.1296 99.7782 18.0395C100.888 16.9494 101.512 15.471 101.513 13.9293C101.512 12.3878 100.888 10.9096 99.7778 9.81966C98.6676 8.72974 97.1619 8.11734 95.5918 8.1171ZM33.3612 8.3025H28.0225V19.5318H30.4608V15.6645H33.3612C35.3962 15.6645 37.0443 13.9761 37.0443 11.979C37.0443 9.9819 35.3943 8.2944 33.3612 8.2944V8.3025ZM33.3612 13.473H30.4608V10.5003H33.3612C34.1568 10.5003 34.804 11.2023 34.804 11.9853C34.804 12.7683 34.1568 13.4703 33.3612 13.4703V13.473ZM25.9197 22.95C25.818 22.9498 25.7179 22.9743 25.6283 23.0215C25.5387 23.0686 25.4625 23.1368 25.4063 23.22L24.5602 24.1272C23.3062 25.3584 21.8469 26.3232 20.2217 27.0072C18.5412 27.7056 16.7344 28.0638 14.9096 28.0602C13.0652 28.0602 11.2796 27.7065 9.5975 27.0072C7.9755 26.3352 6.50198 25.3602 5.25892 24.1362C4.01217 22.9155 3.01847 21.4688 2.33292 19.8765C1.62155 18.2178 1.25683 16.4356 1.26042 14.6358C1.25702 12.8442 1.6218 11.0703 2.33292 9.4203C3.01827 7.82786 4.01199 6.38119 5.25892 5.1606C6.51292 3.9294 7.97408 2.9646 9.5975 2.2878C11.278 1.58938 13.0848 1.23122 14.9096 1.2348C16.7539 1.2348 18.5396 1.5885 20.2217 2.2878C21.3994 2.77643 22.5008 3.42606 23.4933 4.2174C23.4383 4.3749 23.4016 4.5396 23.4016 4.7061C23.4016 5.00515 23.4919 5.29748 23.6611 5.54612C23.8303 5.79477 24.0709 5.98857 24.3523 6.10301C24.6337 6.21745 24.9433 6.24739 25.242 6.18905C25.5408 6.13071 25.8152 5.9867 26.0305 5.77525C26.2459 5.56379 26.3926 5.29438 26.452 5.00108C26.5114 4.70778 26.4809 4.40376 26.3644 4.12748C26.2478 3.8512 26.0504 3.61506 25.7972 3.44892C25.5439 3.28278 25.2462 3.1941 24.9416 3.1941C24.7369 3.1939 24.5343 3.23399 24.3457 3.312C21.7745 1.242 18.4855 3.70732e-07 14.9004 3.70732e-07C6.66417 -0.00179963 0 6.5511 0 14.6358C0 22.7205 6.67517 29.2734 14.9087 29.2734C19.5149 29.2734 23.6307 27.2214 26.3652 23.9994C26.4788 23.8878 26.5485 23.733 26.5485 23.562C26.548 23.3979 26.4814 23.2407 26.3632 23.1247C26.2451 23.0087 26.0849 22.9433 25.9178 22.9428L25.9197 22.95Z" fill="#001E33"/>
</svg>
