<svg width="136" height="34" viewBox="0 0 136 34" fill="none" xmlns="http://www.w3.org/2000/svg">
<path d="M52.1766 17.2261C52.6532 17.5665 53.039 17.9977 53.334 18.5424C53.6291 19.0644 53.7879 19.7453 53.7879 20.5623C53.7879 21.3793 53.6291 22.0828 53.3113 22.6729C52.9936 23.263 52.5624 23.7396 52.0631 24.1254C51.5411 24.5112 50.9738 24.7836 50.3156 24.9651C49.6575 25.1467 48.9993 25.2375 48.3184 25.2375C47.8192 25.2375 47.2972 25.1921 46.7979 25.0786C46.2986 24.9878 45.7993 24.8289 45.3454 24.6247C44.8915 24.4204 44.4603 24.1708 44.0518 23.8758C43.666 23.558 43.3028 23.2176 43.0078 22.8091L44.483 21.7424C44.8461 22.3325 45.3681 22.8091 46.0262 23.1949C46.6844 23.5807 47.456 23.785 48.3411 23.785C48.7723 23.785 49.2035 23.7169 49.6574 23.5807C50.1113 23.4445 50.4972 23.2403 50.8603 22.9907C51.2234 22.7183 51.5184 22.4006 51.7454 21.9921C51.9723 21.6063 52.0858 21.1523 52.0858 20.6304C52.0858 20.063 51.9723 19.5864 51.7454 19.2233C51.5184 18.8375 51.2007 18.5424 50.8376 18.2701C50.4518 18.0204 50.0206 17.8162 49.5213 17.6346C49.022 17.4758 48.5227 17.2942 47.978 17.1353C47.4106 16.9765 46.866 16.7722 46.344 16.568C45.7993 16.3637 45.3227 16.0687 44.8915 15.7282C44.4603 15.3878 44.1199 14.9566 43.8475 14.4573C43.5752 13.958 43.4617 13.3226 43.4617 12.5963C43.4617 11.8247 43.6206 11.1439 43.961 10.5765C44.2787 10.0091 44.7099 9.53251 45.2319 9.16939C45.7539 8.80627 46.344 8.53393 46.9794 8.37506C47.6149 8.2162 48.2504 8.12542 48.8631 8.12542C49.9979 8.12542 50.9738 8.32967 51.7908 8.71549C52.6078 9.1013 53.2206 9.5779 53.6291 10.0999L52.2674 11.1666C51.9043 10.6673 51.4277 10.2814 50.8603 9.98641C50.2929 9.69137 49.5894 9.53251 48.795 9.53251C48.3865 9.53251 47.9553 9.6006 47.5241 9.71407C47.0929 9.82755 46.7071 10.0318 46.3667 10.2814C46.0262 10.5311 45.7312 10.8488 45.527 11.2346C45.3227 11.6204 45.2092 12.0743 45.2092 12.5963C45.2092 13.1183 45.3227 13.5495 45.527 13.89C45.7312 14.2304 46.0036 14.5254 46.344 14.7524C46.6844 14.9793 47.0702 15.1836 47.5014 15.3424C47.9326 15.5013 48.3865 15.6602 48.8631 15.7963C49.4532 15.9779 50.0433 16.1821 50.6333 16.3864C51.1553 16.5907 51.7 16.8857 52.1766 17.2261ZM57.3511 11.0304V14.0715H55.0362V15.3878H57.3511V22.1055C57.3511 22.6956 57.4418 23.1949 57.6234 23.558C57.805 23.9211 58.0319 24.2162 58.3269 24.4204C58.622 24.6247 58.917 24.7836 59.2574 24.8516C59.5979 24.9197 59.9156 24.9651 60.2106 24.9651C60.5737 24.9651 60.9142 24.9424 61.2319 24.8743C61.5496 24.8289 61.8447 24.7382 62.117 24.6247L62.0489 23.263C61.822 23.3765 61.595 23.4445 61.3454 23.5126C61.0957 23.5807 60.8688 23.6034 60.6418 23.6034C60.4149 23.6034 60.1879 23.5807 59.9837 23.5126C59.7794 23.4672 59.5979 23.3538 59.439 23.2176C59.2801 23.0814 59.1667 22.8772 59.0986 22.6048C59.0078 22.3552 58.9851 22.0148 58.9851 21.6063V15.3424H62.117V14.0261H58.9851V11.0304H57.3511ZM72.1255 19.4275H71.6489C70.9908 19.4275 70.3099 19.4502 69.6291 19.5183C68.9482 19.5637 68.3354 19.6772 67.7908 19.836C67.2461 19.9949 66.7922 20.2219 66.4518 20.5396C66.1113 20.8573 65.9298 21.2431 65.9298 21.7651C65.9298 22.1509 65.9979 22.4687 66.1567 22.741C66.3156 23.0133 66.5198 23.2176 66.7695 23.3765C67.0191 23.5353 67.3142 23.6488 67.6092 23.7169C67.9269 23.785 68.222 23.8304 68.5397 23.8304C69.1071 23.8304 69.6291 23.7396 70.0603 23.5353C70.5142 23.3538 70.8773 23.0814 71.1723 22.7637C71.4674 22.4233 71.6943 22.0602 71.8532 21.6289C72.012 21.1977 72.1028 20.7438 72.1028 20.2673V19.4275H72.1255ZM73.6461 22.4006C73.6461 22.8091 73.6688 23.2403 73.6915 23.6942C73.7142 24.1481 73.7595 24.5112 73.8276 24.8289H72.3752C72.3298 24.5793 72.2844 24.2843 72.2617 23.9892C72.239 23.6715 72.2163 23.3765 72.2163 23.1041H72.1709C71.6716 23.8304 71.0815 24.3523 70.4461 24.6474C69.8106 24.9651 69.039 25.124 68.1312 25.124C67.7 25.124 67.2688 25.0559 66.8149 24.9424C66.361 24.8289 65.9525 24.6474 65.5667 24.375C65.2035 24.1027 64.8858 23.785 64.6362 23.3538C64.3865 22.9453 64.273 22.4233 64.273 21.8332C64.273 20.9935 64.5 20.3353 64.9312 19.8587C65.3624 19.3821 65.9525 19.019 66.6787 18.7694C67.4049 18.5197 68.2447 18.3836 69.1978 18.3155C70.151 18.2474 71.1269 18.202 72.1482 18.202V17.8616C72.1482 16.9311 71.8986 16.2502 71.3766 15.7963C70.8773 15.3424 70.1283 15.1155 69.1525 15.1155C68.4943 15.1155 67.8588 15.229 67.2915 15.4559C66.7241 15.6829 66.2475 16.0006 65.839 16.3864L64.9312 15.3424C65.3851 14.8885 65.9979 14.5254 66.7468 14.2304C67.4957 13.9353 68.3581 13.7992 69.3113 13.7992C69.9241 13.7992 70.4688 13.8899 70.9908 14.0488C71.5127 14.2077 71.9666 14.4573 72.3752 14.7751C72.761 15.0928 73.0787 15.5013 73.3056 16.0006C73.5326 16.4999 73.6461 17.0673 73.6461 17.7254V22.4006ZM81.9524 13.7765C81.1581 13.7765 80.4546 13.9807 79.8191 14.3665C79.1836 14.7524 78.7071 15.2743 78.3893 15.8871H78.3439C78.3439 15.6602 78.3439 15.3651 78.3212 15.0247C78.2986 14.6616 78.2758 14.3438 78.2532 14.0488H76.7099C76.7326 14.4119 76.7553 14.8204 76.778 15.297C76.8007 15.7509 76.8007 16.1368 76.8007 16.4318V24.8289H78.412V19.3141C78.412 18.5878 78.5028 17.975 78.6844 17.4758C78.8659 16.9538 79.0929 16.5453 79.3879 16.2048C79.6829 15.8871 80.0234 15.6375 80.4319 15.4786C80.8177 15.3197 81.2489 15.2517 81.6801 15.2517C81.907 15.2517 82.134 15.2743 82.3383 15.297C82.5652 15.3197 82.7241 15.3651 82.8148 15.3878L83.0191 13.89C82.8375 13.8446 82.6787 13.8219 82.4971 13.7992C82.3383 13.7992 82.1567 13.7765 81.9524 13.7765ZM95.1836 21.1297C95.3652 20.6077 95.4787 20.0403 95.4787 19.4502C95.4787 18.8602 95.3879 18.2928 95.1836 17.7708C95.0021 17.2488 94.7297 16.7722 94.3666 16.3864C94.0035 16.0006 93.5723 15.6829 93.0503 15.4559C92.5283 15.229 91.9382 15.1155 91.2574 15.1155C90.6446 15.1155 90.0773 15.229 89.5326 15.4559C89.0106 15.6829 88.5567 15.9779 88.1709 16.3864C87.7851 16.7722 87.49 17.2261 87.2858 17.7708C87.0815 18.2928 86.968 18.8602 86.968 19.4729C86.968 20.0857 87.0815 20.6531 87.2858 21.175C87.49 21.697 87.8078 22.1509 88.1709 22.5368C88.5567 22.9226 89.0106 23.2176 89.5326 23.4445C90.0546 23.6715 90.6219 23.785 91.2574 23.785C91.9156 23.785 92.5283 23.6715 93.0503 23.4445C93.5723 23.2176 94.0035 22.9226 94.3666 22.5141C94.707 22.1055 94.9794 21.6516 95.1836 21.1297ZM95.5921 15.4105C96.0914 15.9098 96.4772 16.5226 96.7496 17.2034C97.0219 17.8843 97.1581 18.6332 97.1581 19.4275C97.1581 20.2219 97.0219 20.9708 96.7496 21.6516C96.4772 22.3325 96.0914 22.9453 95.5921 23.4445C95.0928 23.9438 94.4801 24.3523 93.7765 24.6474C93.073 24.9424 92.2787 25.0786 91.4163 25.0786C90.5992 25.0786 89.8276 24.897 89.056 24.5566C88.2843 24.1935 87.6716 23.6942 87.195 22.9907H87.1496V24.8062H85.5383V7.42188H87.1496V15.9098H87.195C87.6716 15.2063 88.2843 14.6616 89.056 14.3212C89.8276 13.958 90.5992 13.7765 91.4163 13.7765C92.2787 13.7765 93.073 13.9126 93.7765 14.2077C94.4801 14.5027 95.0928 14.9112 95.5921 15.4105ZM108.755 22.446V14.0488H107.144V19.5637C107.144 20.2899 107.053 20.9027 106.849 21.4474C106.667 21.9694 106.395 22.4233 106.077 22.7637C105.76 23.1041 105.396 23.3765 104.988 23.5353C104.579 23.6942 104.171 23.785 103.74 23.785C103.15 23.785 102.673 23.6942 102.287 23.5126C101.901 23.3311 101.584 23.0814 101.357 22.741C101.13 22.4233 100.971 22.0148 100.88 21.5609C100.789 21.107 100.744 20.585 100.744 20.0176V14.0715H99.1326V20.6758C99.1326 22.0148 99.4957 23.0814 100.199 23.8985C100.903 24.7155 101.969 25.124 103.377 25.124C104.171 25.124 104.92 24.9197 105.646 24.5339C106.35 24.1481 106.872 23.6261 107.189 23.0133H107.235C107.235 23.2403 107.235 23.5353 107.257 23.8985C107.28 24.2616 107.303 24.5793 107.325 24.8743H108.869C108.846 24.5112 108.823 24.1027 108.801 23.6261C108.778 23.1268 108.755 22.741 108.755 22.446ZM116.789 13.7765C115.995 13.7765 115.291 13.9807 114.656 14.3665C114.02 14.7524 113.544 15.2743 113.226 15.8871H113.181C113.181 15.6602 113.181 15.3651 113.158 15.0247C113.135 14.6616 113.113 14.3438 113.09 14.0488H111.524C111.547 14.4119 111.569 14.8204 111.592 15.297C111.615 15.7509 111.615 16.1368 111.615 16.4318V24.8289H113.226V19.3141C113.226 18.5878 113.317 17.975 113.499 17.4758C113.68 16.9538 113.93 16.5453 114.202 16.2048C114.497 15.8871 114.838 15.6375 115.246 15.4786C115.632 15.3197 116.063 15.2517 116.494 15.2517C116.721 15.2517 116.948 15.2743 117.152 15.297C117.379 15.3197 117.538 15.3651 117.629 15.3878L117.833 13.89C117.652 13.8446 117.493 13.8219 117.311 13.7992C117.175 13.7992 116.994 13.7765 116.789 13.7765ZM123.462 18.6105C122.531 18.4289 121.873 18.202 121.442 17.9297C121.011 17.6573 120.806 17.2715 120.806 16.7722C120.806 16.4772 120.874 16.2275 121.011 16.0233C121.147 15.819 121.328 15.6375 121.555 15.5013C121.782 15.3651 122.032 15.2743 122.327 15.2063C122.622 15.1382 122.894 15.1155 123.189 15.1155C123.802 15.1155 124.369 15.2516 124.846 15.5467C125.323 15.8417 125.686 16.2048 125.935 16.636L127.184 15.7509C126.82 15.1382 126.276 14.6616 125.55 14.3212C124.823 13.9807 124.074 13.8219 123.28 13.8219C122.781 13.8219 122.281 13.89 121.805 14.0034C121.328 14.1169 120.897 14.3212 120.534 14.5708C120.171 14.8204 119.853 15.1382 119.649 15.5467C119.422 15.9325 119.308 16.4091 119.308 16.9538C119.308 17.4531 119.422 17.8843 119.626 18.2247C119.83 18.5651 120.103 18.8375 120.42 19.0644C120.738 19.2914 121.079 19.4502 121.464 19.5637C121.828 19.6772 122.191 19.768 122.531 19.8587C123.598 20.1084 124.415 20.358 124.982 20.6531C125.55 20.9481 125.822 21.3566 125.822 21.924C125.822 22.2871 125.754 22.5821 125.618 22.8091C125.481 23.036 125.277 23.2403 125.05 23.3992C124.823 23.558 124.528 23.6488 124.211 23.7169C123.893 23.785 123.552 23.8077 123.212 23.8077C122.554 23.8077 121.941 23.6488 121.374 23.3311C120.806 23.0133 120.398 22.6048 120.103 22.1282L118.809 23.0587C119.308 23.785 119.967 24.307 120.761 24.6474C121.555 24.9878 122.372 25.1467 123.212 25.1467C123.711 25.1467 124.233 25.0786 124.733 24.9651C125.232 24.8516 125.686 24.6701 126.072 24.3977C126.457 24.1254 126.798 23.785 127.025 23.3538C127.274 22.9226 127.388 22.4233 127.388 21.8105C127.388 20.9708 127.07 20.2899 126.457 19.7907C125.731 19.246 124.778 18.8829 123.462 18.6105ZM135.944 15.3651V14.0488H132.812V11.0077H131.201V14.0488H128.886V15.3651H131.201V22.0828C131.201 22.6729 131.291 23.1722 131.473 23.5353C131.655 23.8984 131.881 24.1935 132.176 24.4204C132.472 24.6247 132.767 24.7836 133.107 24.8516C133.447 24.9197 133.765 24.9651 134.06 24.9651C134.423 24.9651 134.764 24.9424 135.081 24.8743C135.399 24.8289 135.694 24.7382 135.967 24.6247L135.898 23.263C135.672 23.3765 135.445 23.4445 135.195 23.5126C134.945 23.5807 134.718 23.6034 134.491 23.6034C134.264 23.6034 134.037 23.5807 133.833 23.5126C133.629 23.4672 133.447 23.3538 133.289 23.2176C133.13 23.0814 133.016 22.8772 132.948 22.6048C132.857 22.3552 132.835 22.0148 132.835 21.6063V15.3197H135.944V15.3651Z" fill="#001E33"/>
<path d="M22.922 15.3418C22.7858 15.3872 22.6496 15.4326 22.5361 15.5007L14.8652 0.181561C15.6822 0.0680857 16.522 0 17.3617 0H17.3844L22.922 15.3418ZM21.6964 16.0454L8.87375 2.13333C8.07942 2.56454 7.33049 3.06382 6.60425 3.6085L21.4014 16.3404C21.4922 16.2269 21.5829 16.1362 21.6964 16.0454ZM20.834 17.1347L2.24681 8.46524C1.79291 9.23687 1.3844 10.0766 1.06666 10.9163L20.6751 17.5205C20.7205 17.3844 20.7659 17.2482 20.834 17.1347ZM20.4709 18.678C20.4709 18.6099 20.4936 18.5418 20.4936 18.4737L0 17.339C0.022695 18.2468 0.113475 19.1319 0.295035 20.017L20.4936 18.8822C20.4709 18.8142 20.4709 18.7461 20.4709 18.678ZM20.6751 19.8354L2.7234 25.8723C3.2 26.5985 3.74468 27.2794 4.33475 27.9149L20.8567 20.1986C20.7659 20.0851 20.7205 19.9489 20.6751 19.8354ZM21.4014 21.0156L9.1007 31.6141C9.80424 31.9773 10.5532 32.295 11.3248 32.5673L21.6964 21.3106C21.5829 21.2198 21.4922 21.1291 21.4014 21.0156ZM22.5361 21.8553L16.6581 33.5886C16.8851 33.5886 17.1347 33.634 17.3617 33.634C17.8383 33.634 18.2922 33.6113 18.7461 33.5659L22.922 22.0142C22.7858 21.9461 22.6723 21.9007 22.5361 21.8553Z" fill="#001E33"/>
<path d="M24.1253 22.2169C24.1933 22.2169 24.2614 22.1942 24.3295 22.1942L24.9196 31.953C24.3976 32.2027 23.8529 32.4296 23.3082 32.6112L23.921 22.1942C23.9891 22.1942 24.0572 22.2169 24.1253 22.2169ZM26.5536 21.3091L31.4784 26.6424C31.7281 26.302 31.955 25.9615 32.182 25.6211L26.8487 21.0367C26.7579 21.1275 26.6671 21.2183 26.5536 21.3091ZM27.7792 18.4722C27.7792 18.5403 27.8019 18.6084 27.8019 18.6764C27.8019 18.7445 27.7792 18.8126 27.7792 18.8807L34.5877 19.2665C34.6557 18.8807 34.7011 18.4949 34.7238 18.0864L27.7792 18.4722ZM26.8487 16.3162L33.521 10.5743C33.3167 10.0977 33.1125 9.64383 32.8628 9.18993L26.5309 16.0438C26.6671 16.1346 26.7579 16.2254 26.8487 16.3162ZM23.921 15.136C23.9891 15.136 24.0572 15.1133 24.1253 15.1133C24.1933 15.1133 24.2614 15.136 24.3295 15.136L25.1238 1.74597C24.4657 1.42824 23.7621 1.1332 23.0586 0.90625L23.921 15.136ZM25.3281 21.9899L28.1877 29.9559C28.5735 29.6608 28.9366 29.3431 29.2997 29.0254L25.7139 21.8537C25.6004 21.8991 25.4643 21.9445 25.3281 21.9899ZM27.416 20.197L33.521 23.0566C33.6799 22.6935 33.816 22.3303 33.9295 21.9672L27.5749 19.8339C27.5295 19.9474 27.4841 20.0835 27.416 20.197ZM27.5749 17.519L34.7011 15.1133C34.6557 14.6821 34.5877 14.2509 34.4969 13.8197L27.416 17.1332C27.4841 17.2467 27.5295 17.3828 27.5749 17.519ZM30.5479 5.83107C30.1394 5.37717 29.6855 4.92326 29.2316 4.51475L25.3281 15.3403C25.4643 15.3857 25.6004 15.4311 25.7139 15.4991L30.5479 5.83107Z" fill="#001E33"/>
</svg>
