<svg width="38" height="29" viewBox="0 0 38 29" fill="none" xmlns="http://www.w3.org/2000/svg">
<path d="M37.1113 14.6572V26.0461C37.1113 27.3052 36.0926 28.3239 34.8336 28.3239H2.94466C1.68562 28.3239 0.666885 27.3052 0.666885 26.0461V14.6572H37.1113ZM23.4447 21.4906H28.0002C29.2593 21.4906 30.278 20.4718 30.278 19.2128C30.278 17.9537 29.2593 16.935 28.0002 16.935H23.4447C22.1856 16.935 21.1669 17.9537 21.1669 19.2128C21.1669 20.4718 22.1856 21.4906 23.4447 21.4906Z" fill="#FFFDF8"/>
<path d="M0.666885 10.1004V3.26704C0.666885 2.00799 1.68562 0.989258 2.94466 0.989258H34.8336C36.0926 0.989258 37.1113 2.00799 37.1113 3.26704V10.1004H0.666885Z" fill="#FFFDF8"/>
</svg>
