<svg width="36" height="37" viewBox="0 0 36 37" fill="none" xmlns="http://www.w3.org/2000/svg">
<g clip-path="url(#clip0_973_618)">
<path d="M35.7645 18.1955L30.7177 13.1488V6.01154C30.7177 5.86045 30.5953 5.73803 30.4442 5.73803H23.3069L18.2603 0.691222C18.1576 0.588603 17.976 0.588603 17.8735 0.691222L12.8269 5.73803H5.68924C5.53816 5.73803 5.41574 5.86045 5.41574 6.01154V13.1488L0.369145 18.1955C0.262368 18.3024 0.262368 18.4755 0.369145 18.5822L5.41574 23.6289V30.7662C5.41574 30.9173 5.53816 31.0397 5.68924 31.0397H12.8268L17.8734 36.0865C17.9247 36.1378 17.9942 36.1666 18.0668 36.1666C18.1394 36.1666 18.209 36.1377 18.2603 36.0865L23.3069 31.0397H30.4442C30.5953 31.0397 30.7177 30.9173 30.7177 30.7662V23.6289L35.7645 18.5822C35.8158 18.5309 35.8446 18.4615 35.8446 18.3888C35.8446 18.3163 35.8158 18.2467 35.7645 18.1955ZM26.7829 21.9991V27.1046H21.6769L18.0668 30.7149L14.4568 27.1046H9.35059V21.9991L5.74077 18.3888L9.35059 14.7786V9.67299H14.4568L18.0668 6.06274L21.6769 9.67299H26.7829V14.7786L30.3929 18.3888L26.7829 21.9991Z" fill="white"/>
<path d="M25.3303 11.1268H21.075L18.0668 8.11816L15.0584 11.1268H10.8033V15.3813L7.79492 18.3899L10.8033 21.3984V25.653H15.0584L18.0668 28.6616L21.0749 25.653H25.3302V21.3984L28.3385 18.3899L25.3302 15.3813V11.1268H25.3303ZM23.2883 19.7252H21.2904L22.703 21.1376L22.7756 23.0988L20.8145 23.0261L19.4019 21.6136V23.6112L18.0668 25.0492L16.7315 23.6111V21.6133L15.3189 23.026L13.3578 23.0986L13.4304 21.1375L14.843 19.7249L12.8453 19.7251L11.4074 18.3897L12.8453 17.0544L14.843 17.0542L13.4304 15.6418L13.3578 13.6807L15.3189 13.7533L16.7315 15.1659V13.1683L18.0668 11.7302L19.402 13.1683V15.1659L20.8146 13.7533L22.7757 13.6807L22.7031 15.6418L21.2905 17.0544H23.2884L24.726 18.3897L23.2883 19.7252Z" fill="white"/>
<path d="M16.7832 15.2899L14.9678 17.1052V19.672L16.783 21.4872H19.3502L21.1652 19.6722V17.105L19.3502 15.2899H16.7832Z" fill="white"/>
</g>
<defs>
<clipPath id="clip0_973_618">
<rect width="35.5556" height="35.5556" fill="white" transform="translate(0.289062 0.612305)"/>
</clipPath>
</defs>
</svg>
