<svg width="22" height="22" viewBox="0 0 22 22" fill="none" xmlns="http://www.w3.org/2000/svg">
<path fill-rule="evenodd" clip-rule="evenodd" d="M7.191 1.32429C8.23367 1.27629 8.56611 1.26562 11.2221 1.26562C13.8781 1.26562 14.2106 1.27718 15.2523 1.32429C16.2941 1.3714 17.0052 1.53763 17.6274 1.77851C18.279 2.02474 18.8701 2.40962 19.359 2.9074C19.8568 3.3954 20.2408 3.98563 20.4861 4.63807C20.7279 5.26029 20.8932 5.9714 20.9412 7.0114C20.9892 8.05585 20.9999 8.38829 20.9999 11.0434C20.9999 13.6994 20.9883 14.0318 20.9412 15.0745C20.8941 16.1145 20.7279 16.8256 20.4861 17.4478C20.2408 18.1004 19.8561 18.6916 19.359 19.1803C18.8701 19.6781 18.279 20.0621 17.6274 20.3074C17.0052 20.5492 16.2941 20.7145 15.2541 20.7625C14.2106 20.8105 13.8781 20.8212 11.2221 20.8212C8.56611 20.8212 8.23367 20.8096 7.191 20.7625C6.151 20.7154 5.43989 20.5492 4.81767 20.3074C4.16515 20.062 3.57395 19.6774 3.08522 19.1803C2.58778 18.692 2.20284 18.1011 1.95722 17.4487C1.71634 16.8265 1.551 16.1154 1.503 15.0754C1.455 14.031 1.44434 13.6985 1.44434 11.0434C1.44434 8.3874 1.45589 8.05496 1.503 7.01318C1.55011 5.9714 1.71634 5.26029 1.95722 4.63807C2.2032 3.9857 2.58844 3.39479 3.08611 2.90651C3.57415 2.40918 4.16476 2.02424 4.81678 1.77851C5.439 1.53763 6.15011 1.37229 7.19011 1.32429H7.191ZM15.1732 3.08429C14.1421 3.03718 13.8328 3.0274 11.2221 3.0274C8.61145 3.0274 8.30211 3.03718 7.271 3.08429C6.31722 3.12785 5.79989 3.28696 5.455 3.42118C4.999 3.59896 4.67278 3.80963 4.33056 4.15185C4.00615 4.46745 3.7565 4.85165 3.59989 5.27629C3.46567 5.62118 3.30656 6.13851 3.263 7.09229C3.21589 8.1234 3.20611 8.43274 3.20611 11.0434C3.20611 13.6541 3.21589 13.9634 3.263 14.9945C3.30656 15.9483 3.46567 16.4656 3.59989 16.8105C3.75634 17.2345 4.00611 17.6194 4.33056 17.935C4.64611 18.2594 5.031 18.5092 5.455 18.6656C5.79989 18.7998 6.31722 18.959 7.271 19.0025C8.30211 19.0496 8.61056 19.0594 11.2221 19.0594C13.8337 19.0594 14.1421 19.0496 15.1732 19.0025C16.127 18.959 16.6443 18.7998 16.9892 18.6656C17.4452 18.4878 17.7714 18.2772 18.1137 17.935C18.4381 17.6194 18.6879 17.2345 18.8443 16.8105C18.9786 16.4656 19.1377 15.9483 19.1812 14.9945C19.2283 13.9634 19.2381 13.6541 19.2381 11.0434C19.2381 8.43274 19.2283 8.1234 19.1812 7.09229C19.1377 6.13851 18.9786 5.62118 18.8443 5.27629C18.6666 4.82029 18.4559 4.49407 18.1137 4.15185C17.798 3.82747 17.4138 3.57781 16.9892 3.42118C16.6443 3.28696 16.127 3.12785 15.1732 3.08429ZM9.97323 14.0576C10.6707 14.348 11.4473 14.3871 12.1705 14.1685C12.8937 13.9498 13.5185 13.4869 13.9382 12.8587C14.358 12.2306 14.5466 11.4762 14.4719 10.7244C14.3973 9.97259 14.0639 9.27005 13.5288 8.73674C13.1877 8.39583 12.7752 8.13479 12.3211 7.97242C11.867 7.81005 11.3825 7.75039 10.9026 7.79773C10.4226 7.84507 9.95914 7.99823 9.5455 8.24619C9.13185 8.49414 8.77833 8.83073 8.51038 9.23171C8.24243 9.6327 8.06673 10.0881 7.99591 10.5651C7.92509 11.0422 7.96092 11.529 8.10082 11.9905C8.24072 12.4521 8.48121 12.8768 8.80498 13.2343C9.12875 13.5917 9.52774 13.8729 9.97323 14.0576ZM7.66834 7.48962C8.13502 7.02294 8.68906 6.65274 9.29882 6.40017C9.90858 6.1476 10.5621 6.0176 11.2221 6.0176C11.8821 6.0176 12.5356 6.1476 13.1454 6.40017C13.7552 6.65274 14.3092 7.02294 14.7759 7.48962C15.2426 7.95631 15.6128 8.51035 15.8653 9.12011C16.1179 9.72987 16.2479 10.3834 16.2479 11.0434C16.2479 11.7034 16.1179 12.3569 15.8653 12.9667C15.6128 13.5765 15.2426 14.1305 14.7759 14.5972C13.8334 15.5397 12.555 16.0692 11.2221 16.0692C9.88919 16.0692 8.61086 15.5397 7.66834 14.5972C6.72582 13.6547 6.19631 12.3763 6.19631 11.0434C6.19631 9.71048 6.72582 8.43215 7.66834 7.48962ZM17.3626 6.76607C17.4782 6.65698 17.5708 6.52579 17.6348 6.38027C17.6989 6.23475 17.7331 6.07786 17.7354 5.9189C17.7377 5.75993 17.7081 5.60211 17.6483 5.45479C17.5886 5.30747 17.4998 5.17363 17.3874 5.06122C17.275 4.9488 17.1412 4.86008 16.9938 4.80031C16.8465 4.74054 16.6887 4.71094 16.5297 4.71325C16.3708 4.71557 16.2139 4.74976 16.0684 4.8138C15.9228 4.87784 15.7917 4.97042 15.6826 5.08607C15.4704 5.31098 15.3542 5.60973 15.3587 5.9189C15.3632 6.22806 15.4881 6.5233 15.7067 6.74193C15.9253 6.96056 16.2206 7.08538 16.5297 7.08989C16.8389 7.0944 17.1376 6.97824 17.3626 6.76607Z" fill="#010101"/>
</svg>
