<svg width="18" height="17" viewBox="0 0 18 17" fill="none" xmlns="http://www.w3.org/2000/svg">
<path d="M7.66821 0.631881C7.94195 -0.210585 9.13381 -0.210585 9.40755 0.631881L10.7962 4.90567C10.9186 5.28243 11.2697 5.53752 11.6659 5.53752H16.1596C17.0454 5.53752 17.4137 6.67105 16.6971 7.19173L13.0616 9.83307C12.7411 10.0659 12.607 10.4787 12.7294 10.8554L14.118 15.1292C14.3918 15.9717 13.4275 16.6722 12.7109 16.1516L9.07537 13.5102C8.75487 13.2774 8.32089 13.2774 8.0004 13.5102L4.36489 16.1516C3.64825 16.6722 2.68401 15.9717 2.95774 15.1292L4.34638 10.8554C4.4688 10.4787 4.33469 10.0659 4.0142 9.83307L0.378696 7.19173C-0.337949 6.67105 0.0303581 5.53752 0.91618 5.53752H5.40991C5.80606 5.53752 6.15716 5.28243 6.27958 4.90567L7.66821 0.631881Z" fill="#FF7F22"/>
</svg>
