<svg width="32" height="36" viewBox="0 0 32 36" fill="none" xmlns="http://www.w3.org/2000/svg">
<path d="M18.0844 11.4398C14.6602 11.5664 6.16645 12.5297 6.16645 19.7016C6.16645 27.4008 15.8907 27.7172 19.0688 22.7391C19.5258 23.4563 21.5579 25.3758 22.2539 26.0297L26.2477 22.0922C28.1813 22.0922 23.9766 20.3133 23.9766 18.3797V8.03672C23.9766 6.25781 22.2539 2.25 16.0805 2.25C9.89301 2.25 6.60942 6.11719 6.60942 9.58359L11.7774 10.0617C12.9235 6.58125 15.5883 6.58125 15.5883 6.58125C18.45 6.57422 18.0844 8.67656 18.0844 11.4398V11.4398M18.0844 17.543C18.0844 23.168 12.1641 22.3242 12.1641 18.7523C12.1641 15.4336 15.7149 14.7656 18.0844 14.6883V17.543V17.543M27.6469 29.0391C27.1055 29.7422 22.725 33.75 15.3774 33.75Cnan nan 2.40473 28.7227 0.682073 26.6484C0.203948 26.107 0.752385 25.8539 1.06879 26.0648C6.2227 29.1938 14.2735 34.3477 27.2602 28.1953C27.7875 27.9352 28.1954 28.3359 27.6469 29.0391V29.0391M30.4454 29.1938C29.9883 30.3047 29.3204 31.0781 28.9547 31.3734C28.568 31.6898 28.2868 31.5633 28.4977 31.1063Cnan nan 29.8547 27.8367 29.3907 27.2391C28.9336 26.6555 26.7891 26.9367 26.0157 27.0141C25.2563 27.0844 25.1016 27.1547 25.0313 26.993C24.8696 26.5922 26.5571 25.9031 27.668 25.7625C28.7719 25.6359 30.5508 25.7062 30.9024 26.1633C31.1625 26.5219 30.9024 28.0688 30.4454 29.1938V29.1938" fill="#634D3B"/>
</svg>
