<svg width="34" height="30" viewBox="0 0 34 30" fill="none" xmlns="http://www.w3.org/2000/svg">
<path d="M27.1875 9.375C27.7031 9.375 28.125 9.79688 28.125 10.3125V19.6875C28.125 20.2031 27.7031 20.625 27.1875 20.625H4.6875C4.17188 20.625 3.75 20.2031 3.75 19.6875V10.3125C3.75 9.79688 4.17188 9.375 4.6875 9.375H27.1875V9.375M4.6875 5.625C2.09766 5.625 0 7.72266 0 10.3125V19.6875C0 22.2773 2.09766 24.375 4.6875 24.375H27.1875C29.7773 24.375 31.875 22.2773 31.875 19.6875V18.75C32.9121 18.75 33.75 17.9121 33.75 16.875V13.125C33.75 12.0879 32.9121 11.25 31.875 11.25V10.3125C31.875 7.72266 29.7773 5.625 27.1875 5.625H4.6875V5.625M26.25 11.25H5.625V18.75H26.25V11.25V11.25" fill="#967859"/>
</svg>
