<svg width="34" height="30" viewBox="0 0 34 30" fill="none" xmlns="http://www.w3.org/2000/svg">
<path d="M17.6426 2.03904C18.3164 2.34373 18.75 3.0117 18.75 3.74998V26.25C18.75 26.9883 18.3164 27.6562 17.6426 27.9609C16.9688 28.2656 16.1777 28.1426 15.627 27.6504L7.72266 20.625H3.75C1.68164 20.625 0 18.9433 0 16.875V13.125C0 11.0566 1.68164 9.37498 3.75 9.37498H7.72266L15.627 2.34959C16.1777 1.8574 16.9688 1.74021 17.6426 2.03904V2.03904M24.9023 9.78513L28.125 13.0078L31.3477 9.78513C31.8984 9.23435 32.7891 9.23435 33.334 9.78513Cnan nan 33.8848 11.2265 33.334 11.7715L30.1113 14.9941L33.334 18.2168C33.8848 18.7676 33.8848 19.6582 33.334 20.2031Cnan nan 31.8926 20.7539 31.3477 20.2031L28.125 16.9804L24.9023 20.2031C24.3516 20.7539 23.4609 20.7539 22.916 20.2031Cnan nan 22.3652 18.7617 22.916 18.2168L26.1387 14.9941L22.916 11.7715C22.3652 11.2207 22.3652 10.3301 22.916 9.78513Cnan nan 24.3574 9.23435 24.9023 9.78513V9.78513" fill="#967859"/>
</svg>
