<svg width="16" height="16" viewBox="0 0 16 16" fill="none" xmlns="http://www.w3.org/2000/svg">
<path d="M8.7031 6.7375L0.718726 14.7188C0.424976 15.0125 0.424976 15.4875 0.718726 15.7781C1.01248 16.0687 1.48748 16.0719 1.7781 15.7781L3.55935 13.9969H5.68435C7.23748 13.9969 8.74373 13.5469 10.0281 12.7156C10.375 12.4906 10.2 11.9969 9.78435 11.9969C9.62498 11.9969 9.49685 11.8688 9.49685 11.7094C9.49685 11.5813 9.58123 11.4719 9.69998 11.4344L12.2312 10.675C12.3094 10.65 12.3812 10.6094 12.4406 10.55L13.1406 9.85C13.4562 9.53438 13.2312 8.99687 12.7875 8.99687H11.7812C11.6219 8.99687 11.4937 8.86875 11.4937 8.70938C11.4937 8.58125 11.5781 8.47187 11.6969 8.43437L15.1969 7.38438C15.3219 7.34688 15.4281 7.2625 15.4875 7.14375C15.825 6.4875 16 5.75313 16 5C16 3.71875 15.4906 2.49063 14.5844 1.58438L14.4125 1.4125C13.5094 0.509375 12.2812 0 11 0C9.71873 0 8.4906 0.509375 7.58435 1.41562L4.34373 4.65625C2.84373 6.15625 1.99998 8.19062 1.99998 10.3125V12.0406L7.92498 6.11875C8.11873 5.925 8.43748 5.925 8.63123 6.11875C8.79998 6.2875 8.82185 6.54375 8.69998 6.7375H8.7031" fill="#967859"/>
</svg>
