<svg width="16" height="16" viewBox="0 0 16 16" fill="none" xmlns="http://www.w3.org/2000/svg">
<path d="M4.46563 4.4656C6.40938 2.52185 9.55 2.51248 11.5063 4.43435L10.2188 5.71873C10.0031 5.93435 9.94062 6.25623 10.0562 6.53748C10.1719 6.81873 10.4469 6.99998 10.75 6.99998H14.4844V6.99998H14.75C15.1656 6.99998 15.5 6.6656 15.5 6.24998V2.24998C15.5 1.94685 15.3188 1.67185 15.0375 1.55623C14.7563 1.4406 14.4344 1.5031 14.2188 1.71873L12.9187 3.01873C10.1812 0.315605 5.77187 0.32498 3.05 3.04998C2.2875 3.81248 1.7375 4.70935 1.4 5.66873C1.21562 6.1906 1.49062 6.75935 2.00937 6.94373C2.52812 7.1281 3.1 6.8531 3.28437 6.33435C3.525 5.6531 3.91563 5.01248 4.46563 4.4656V4.4656M0.5 9.74998V9.98748V10.0094V13.75C0.5 14.0531 0.68125 14.3281 0.9625 14.4437Cnan nan 1.56562 14.4969 1.78125 14.2812L3.08125 12.9812C5.81875 15.6844 10.2281 15.675 12.95 12.95C13.7125 12.1875 14.2656 11.2906 14.6031 10.3344C14.7875 9.81248 14.5125 9.24373 13.9937 9.05935Cnan nan 12.9031 9.14998 12.7188 9.66873C12.4781 10.35 12.0875 10.9906 11.5375 11.5375C9.59375 13.4812 6.45312 13.4906 4.49688 11.5687L5.78125 10.2812C5.99688 10.0656 6.05937 9.74373 5.94375 9.46248Cnan nan 5.55312 8.99998 5.25 8.99998H1.5125H1.49063H1.25C0.834375 8.99998 0.5 9.33435 0.5 9.74998V9.74998" fill="#967859"/>
</svg>
