<svg width="16" height="16" viewBox="0 0 16 16" fill="none" xmlns="http://www.w3.org/2000/svg">
<path d="M15.529 11.4563C15.4236 11.1695 15.2227 11.0161 14.9942 10.889C14.9512 10.8638 14.9117 10.8436 14.878 10.8281C14.8098 10.7929 14.74 10.7588 14.6706 10.7227C13.9581 10.3449 13.4016 9.86831 13.0157 9.30334C12.9061 9.1443 12.811 8.9757 12.7316 8.79959C12.6987 8.70544 12.7004 8.65197 12.7239 8.60312C12.7473 8.5655 12.7783 8.53317 12.815 8.50819C12.9374 8.42722 13.0637 8.34506 13.1493 8.28966C13.302 8.19084 13.4229 8.11256 13.5008 8.05716C13.7933 7.85256 13.9979 7.63528 14.1258 7.39222C14.3063 7.05258 14.3303 6.6512 14.1914 6.2925C13.9976 5.78256 13.516 5.46597 12.9324 5.46597C12.8093 5.46586 12.6866 5.47885 12.5662 5.50472C12.5341 5.51172 12.5019 5.51906 12.4705 5.52722C12.476 5.17847 12.4682 4.81034 12.4372 4.44803C12.3271 3.17434 11.8811 2.50669 11.4161 1.97428C11.1184 1.64064 10.7677 1.35838 10.3781 1.13884C9.67236 0.735844 8.87221 0.53125 8.00002 0.53125C7.12783 0.53125 6.33127 0.735844 5.62502 1.13884C5.23448 1.35845 4.88304 1.64127 4.58499 1.97581C4.11999 2.50825 3.67399 3.17706 3.56396 4.44959C3.53296 4.81191 3.52521 5.18194 3.53024 5.52875C3.49899 5.52062 3.46708 5.51313 3.4349 5.50628C3.31457 5.4804 3.19182 5.46741 3.06874 5.46753C2.48477 5.46753 2.00233 5.78413 1.80936 6.29406C1.66981 6.6529 1.69314 7.05467 1.8733 7.39494C2.00158 7.63788 2.20618 7.85528 2.49874 8.05988C2.57624 8.11413 2.69752 8.19238 2.85018 8.29238C2.93271 8.34584 3.0533 8.42413 3.17143 8.50238C3.21279 8.52912 3.24795 8.5644 3.27455 8.60584C3.29936 8.65659 3.30011 8.71125 3.2633 8.81209C3.18501 8.98449 3.09152 9.14957 2.98393 9.30538C2.60652 9.85753 2.06633 10.3256 1.37661 10.7003C1.01111 10.894 0.631271 11.0234 0.470927 11.4594C0.350052 11.7884 0.429083 12.1627 0.736365 12.4781C0.84914 12.5959 0.979944 12.6949 1.12386 12.7715C1.42331 12.936 1.74173 13.0634 2.07205 13.1508C2.14023 13.1684 2.20495 13.1973 2.26349 13.2365C2.37546 13.3345 2.35958 13.4821 2.50877 13.6983C2.58365 13.8101 2.6788 13.9068 2.7893 13.9836C3.1024 14.1998 3.45424 14.2133 3.82702 14.2277C4.16377 14.2405 4.54543 14.2552 4.98136 14.3989C5.16193 14.4586 5.34949 14.5741 5.56686 14.7089C6.08883 15.0297 6.80336 15.4688 7.99918 15.4688C9.19499 15.4688 9.91455 15.0274 10.4404 14.7054C10.6562 14.5729 10.8426 14.4585 11.0181 14.4004C11.4541 14.2563 11.8357 14.2419 12.1725 14.2292C12.5452 14.2148 12.8971 14.2012 13.2102 13.985C13.3411 13.8938 13.4501 13.7747 13.5295 13.6363C13.6368 13.4538 13.6341 13.3263 13.7349 13.2372C13.7898 13.1999 13.8505 13.1722 13.9146 13.155C14.2495 13.0674 14.5722 12.9388 14.8756 12.7722C15.0285 12.6902 15.1662 12.5824 15.2825 12.4537L15.2864 12.449C15.5747 12.1406 15.6471 11.7771 15.529 11.4563V11.4563M14.4661 12.0274C13.8178 12.3855 13.3869 12.3471 13.0517 12.5629C12.7669 12.7462 12.9355 13.1415 12.7285 13.2841C12.4743 13.4596 11.723 13.2716 10.7523 13.5921C9.95174 13.8568 9.44102 14.6178 8.00111 14.6178Cnan nan 6.06249 13.8584 5.24874 13.5902C4.27999 13.2697 3.52711 13.4577 3.27252 13.2821C3.06599 13.1395 3.23377 12.7443 2.94936 12.561C2.61377 12.3452 2.1829 12.3835 1.53499 12.0274C1.1223 11.7996 1.35636 11.6587 1.49393 11.5919C3.84215 10.455 4.21683 8.69963 4.23349 8.56941C4.25365 8.41172 4.27611 8.28772 4.10252 8.12728C3.93474 7.97228 3.19036 7.51166 2.98377 7.36741C2.64199 7.12872 2.49165 6.89041 2.60252 6.59747C2.68002 6.39481 2.86911 6.31847 3.06749 6.31847C3.1302 6.31866 3.1927 6.32568 3.2539 6.33941C3.6289 6.42066 3.99324 6.60869 4.20365 6.65947C4.22898 6.66596 4.25499 6.66948 4.28115 6.66994C4.39365 6.66994 4.43302 6.61334 4.42527 6.48472C4.40127 6.07434 4.34315 5.27456 4.40783 4.52709C4.49658 3.49869 4.8279 2.98913 5.22158 2.53847C5.41068 2.32184 6.29921 1.38297 7.99836 1.38297Cnan nan 10.5884 2.31797 10.7775 2.53381C11.1716 2.98447 11.5032 3.49403 11.5912 4.52244C11.6559 5.26991 11.6001 6.07009 11.5738 6.48006C11.5649 6.61528 11.6056 6.66528 11.7179 6.66528C11.7441 6.66485 11.7701 6.66134 11.7954 6.65481C12.0062 6.60406 12.3704 6.41613 12.7454 6.33475C12.8066 6.32103 12.8691 6.31401 12.9318 6.31381C13.1314 6.31381 13.3193 6.39131 13.3968 6.59281C13.5076 6.88575 13.3581 7.12406 13.0159 7.36278C12.8094 7.50691 12.065 7.96725 11.8971 8.12262C11.7231 8.28306 11.746 8.407 11.7662 8.56478C11.7828 8.69691 12.1571 10.4523 14.5057 11.5872C14.6447 11.6566 14.8787 11.7976 14.4661 12.0274V12.0274" fill="#F2EFE9"/>
</svg>
