<svg width="31" height="32" viewBox="0 0 31 32" fill="none" xmlns="http://www.w3.org/2000/svg">
<path d="M30.3945 18.625H27.7305V17.7637C27.7305 17.4185 27.4594 17.1387 27.125 17.1387C26.7906 17.1387 26.5195 17.4185 26.5195 17.7637V18.625H16.1055V17.7637C16.1055 17.4185 15.8344 17.1387 15.5 17.1387C15.1656 17.1387 14.8945 17.4185 14.8945 17.7637V18.625H4.48047V17.7637C4.48047 17.4185 4.20943 17.1387 3.875 17.1387C3.54057 17.1387 3.26953 17.4185 3.26953 17.7637V18.625H0.605469C0.271042 18.625 0 18.9048 0 19.25C0 19.5952 0.271042 19.875 0.605469 19.875H30.3945C30.729 19.875 31 19.5952 31 19.25C31 18.9048 30.729 18.625 30.3945 18.625Z" fill="#3F3E3B"/>
<path d="M30.3945 15.875C30.5537 15.875 30.71 15.8081 30.8226 15.6919C30.9352 15.5757 31 15.4146 31 15.25C31 15.0857 30.9352 14.9243 30.8226 14.8081C30.71 14.6919 30.5537 14.625 30.3945 14.625C30.2354 14.625 30.079 14.6919 29.9664 14.8081C29.8539 14.9243 29.7891 15.0857 29.7891 15.25C29.7891 15.4146 29.8539 15.5757 29.9664 15.6919C30.079 15.8081 30.2354 15.875 30.3945 15.875Z" fill="#3F3E3B"/>
<path d="M0.605469 15.875H9.08984V16.6738C9.08984 17.019 9.36088 17.2988 9.6953 17.2988C10.0295 17.2988 10.3008 17.019 10.3008 16.6738V15.875H20.7148V16.6738C20.7148 17.019 20.9859 17.2988 21.3203 17.2988C21.6545 17.2988 21.9258 17.019 21.9258 16.6738V15.875H27.9727C28.3071 15.875 28.5781 15.5952 28.5781 15.25C28.5781 14.9048 28.3071 14.625 27.9727 14.625H0.605469C0.271042 14.625 0 14.9048 0 15.25C0 15.5952 0.271042 15.875 0.605469 15.875Z" fill="#3F3E3B"/>
<path d="M4.35679 21.2288C4.18934 20.9299 3.81896 20.8279 3.52947 21.0007C3.24022 21.1736 3.14136 21.5562 3.30881 21.8547C3.94242 22.9854 3.94242 24.3899 3.30881 25.5205C2.45855 27.0371 2.45855 28.9214 3.30881 30.4382C3.42115 30.6384 3.62431 30.7503 3.83339 30.7503C3.93627 30.7503 4.04057 30.7232 4.13612 30.666C4.42561 30.4932 4.52447 30.1109 4.35702 29.812C3.72317 28.6817 3.72317 27.2769 4.35702 26.1465C5.20704 24.6297 5.20704 22.7454 4.35679 21.2288Z" fill="#3F3E3B"/>
<path d="M27.6912 21.2288C27.5237 20.9299 27.1534 20.8279 26.8639 21.0007C26.5744 21.1736 26.4755 21.5559 26.643 21.8547C27.2768 22.9854 27.2768 24.3899 26.643 25.5203C25.793 27.0371 25.793 28.9214 26.643 30.4382C26.7553 30.6384 26.9587 30.7503 27.1678 30.7503C27.2707 30.7503 27.375 30.7232 27.4705 30.666C27.7598 30.4932 27.8586 30.1109 27.6912 29.812C27.0576 28.6817 27.0576 27.2771 27.6912 26.1465C28.5415 24.6297 28.5415 22.7454 27.6912 21.2288Z" fill="#3F3E3B"/>
<path d="M12.1349 21.2288C11.9675 20.9299 11.5971 20.8279 11.3076 21.0007C11.0184 21.1736 10.9195 21.5562 11.0869 21.8547C11.7206 22.9854 11.7206 24.3899 11.0869 25.5205C10.2367 27.0371 10.2367 28.9214 11.0869 30.4382C11.1993 30.6384 11.4024 30.7503 11.6115 30.7503C11.7144 30.7503 11.8187 30.7232 11.9143 30.666C12.2037 30.4932 12.3026 30.1109 12.1352 29.812C11.5013 28.6817 11.5013 27.2769 12.1352 26.1465C12.9852 24.6297 12.9852 22.7454 12.1349 21.2288Z" fill="#3F3E3B"/>
<path d="M19.3899 22.1675C19.4807 22.1675 19.5732 22.1462 19.6602 22.1013C19.9587 21.9473 20.08 21.5727 19.9317 21.2644C19.7903 20.9687 19.4476 20.8357 19.1505 20.9673C18.8431 21.1033 18.7007 21.4707 18.8324 21.7878C18.8388 21.8032 18.8462 21.8186 18.8537 21.8335C18.9616 22.0454 19.1718 22.1675 19.3899 22.1675Z" fill="#3F3E3B"/>
<path d="M19.9831 23.4189C19.6501 23.3904 19.3573 23.6462 19.3296 23.9902C19.2861 24.5334 19.1297 25.0483 18.8651 25.5202C18.0148 27.0371 18.0148 28.9214 18.8651 30.438C18.9772 30.6382 19.1806 30.7502 19.3897 30.7502C19.4925 30.7502 19.5968 30.7229 19.6924 30.666C19.9819 30.4931 20.0807 30.1108 19.9131 29.812C19.2794 28.6814 19.2794 27.2768 19.9131 26.1465C20.2631 25.522 20.4788 24.812 20.5365 24.0932C20.5639 23.7492 20.3163 23.4472 19.9831 23.4189Z" fill="#3F3E3B"/>
<path d="M1.86985 4.49438C2.13427 4.70557 2.51458 4.65552 2.71917 4.38257L3.23145 3.69873C3.25652 4.23706 3.40599 4.76392 3.66781 5.2312C4.03724 5.88989 4.03724 6.70801 3.66781 7.3667L3.30879 8.00732C2.50158 9.44702 2.50158 11.2361 3.30879 12.6758C3.42113 12.876 3.62429 12.9878 3.83337 12.9878C3.93625 12.9878 4.04055 12.9607 4.1361 12.9038C4.42559 12.731 4.52446 12.3486 4.35701 12.0498C3.7662 10.9961 3.7662 9.68701 4.35701 8.6333L4.71603 7.99268C5.30163 6.94775 5.30163 5.6499 4.71603 4.60522C4.56324 4.33252 4.47195 4.02783 4.44641 3.71509L4.94663 4.38257C5.06583 4.54175 5.24487 4.62524 5.4258 4.62524C5.55517 4.62524 5.68573 4.58252 5.79594 4.49438C6.06036 4.2832 6.10884 3.89062 5.90426 3.61768L4.3116 1.49268C4.19689 1.3396 4.02021 1.25024 3.8329 1.25024C3.64534 1.25024 3.46843 1.3396 3.35396 1.49268L1.7613 3.61768C1.55671 3.89062 1.6052 4.2832 1.86985 4.49438Z" fill="#3F3E3B"/>
<path d="M9.64777 4.49438C9.91243 4.70557 10.2925 4.65552 10.4971 4.38257L11.0096 3.69873C11.0347 4.23706 11.1839 4.76367 11.446 5.2312C11.8152 5.88989 11.8152 6.70801 11.446 7.36646L11.0869 8.00708C10.2797 9.44702 10.2797 11.2358 11.0869 12.6758C11.199 12.876 11.4024 12.9878 11.6115 12.9878C11.7144 12.9878 11.8187 12.9607 11.9143 12.9038C12.2035 12.7307 12.3024 12.3484 12.1349 12.0498C11.5444 10.9961 11.5444 9.68677 12.1349 8.6333L12.4942 7.99268C13.0798 6.94775 13.0798 5.6499 12.4942 4.60522C12.3412 4.33252 12.2499 4.02783 12.2246 3.71509L12.7245 4.38232C12.844 4.5415 13.023 4.625 13.204 4.625C13.3333 4.625 13.4639 4.58228 13.5741 4.49438C13.8385 4.2832 13.887 3.89062 13.6824 3.61768L12.0898 1.49268C11.975 1.3396 11.7984 1.25 11.6111 1.25C11.4235 1.25 11.2468 1.3396 11.1321 1.49268L9.53945 3.61768C9.33487 3.89062 9.38335 4.2832 9.64777 4.49438Z" fill="#3F3E3B"/>
<path d="M17.4259 4.49438C17.5364 4.58252 17.6667 4.625 17.796 4.625C17.977 4.625 18.156 4.54175 18.2755 4.38257L18.7877 3.69873C18.8128 4.23706 18.962 4.76392 19.2241 5.2312C19.5933 5.88989 19.5933 6.70801 19.2241 7.3667L18.8651 8.00732C18.0579 9.44702 18.0579 11.2361 18.8651 12.6758C18.9774 12.876 19.1806 12.988 19.3897 12.988C19.4925 12.988 19.5968 12.9607 19.6924 12.9038C19.9819 12.731 20.0807 12.3486 19.9131 12.0498C19.3225 10.9961 19.3225 9.68701 19.9131 8.6333L20.2723 7.99268C20.8579 6.948 20.8579 5.6499 20.2723 4.60522C20.1195 4.33252 20.028 4.02783 20.0027 3.71509L20.5029 4.38257C20.7075 4.65552 21.0876 4.70557 21.3522 4.49438C21.6167 4.2832 21.6651 3.89062 21.4606 3.61768L19.8679 1.49268C19.7532 1.3396 19.5765 1.25 19.3892 1.25C19.2016 1.25 19.025 1.3396 18.9103 1.49268L17.3176 3.61768C17.113 3.89062 17.1615 4.2832 17.4259 4.49438Z" fill="#3F3E3B"/>
<path d="M25.204 4.49438C25.3143 4.58252 25.4448 4.625 25.5742 4.625C25.7551 4.625 25.9342 4.54175 26.0536 4.38257L26.5659 3.69873C26.5909 4.23706 26.7402 4.76367 27.0022 5.2312C27.3714 5.88989 27.3714 6.70801 27.0022 7.36646L26.6432 8.00708C25.836 9.44702 25.836 11.2358 26.6432 12.6758C26.7553 12.876 26.9587 12.9878 27.1678 12.9878C27.2707 12.9878 27.375 12.9607 27.4705 12.9038C27.76 12.7307 27.8589 12.3484 27.6912 12.0498C27.1006 10.9961 27.1006 9.68677 27.6912 8.6333L28.0505 7.99268C28.6361 6.94775 28.6361 5.6499 28.0505 4.60522C27.8977 4.33252 27.8064 4.02783 27.7808 3.71509L28.2811 4.38232C28.4856 4.65552 28.866 4.70557 29.1304 4.49438C29.3948 4.2832 29.4433 3.89062 29.2387 3.61768L27.6463 1.49268C27.5316 1.3396 27.3546 1.25 27.1673 1.25C26.98 1.25 26.8031 1.3396 26.6884 1.49268L25.0957 3.61768C24.8911 3.89062 24.9396 4.2832 25.204 4.49438Z" fill="#3F3E3B"/>
</svg>
