<svg width="25" height="24" viewBox="0 0 25 24" fill="none" xmlns="http://www.w3.org/2000/svg">
<path d="M5 10.2653V6H20V10.2653C20 13.4401 20 15.0275 19.0237 16.0137C18.0474 17 16.476 17 13.3333 17H11.6667C8.52397 17 6.95262 17 5.97631 16.0137C5 15.0275 5 13.4401 5 10.2653Z" stroke="#F9F5EC" stroke-width="1.5" stroke-linecap="round" stroke-linejoin="round"/>
<path d="M5 6L5.72115 4.46154C6.28045 3.26838 6.56009 2.6718 7.12692 2.3359C7.69375 2 8.42084 2 9.875 2H15.125C16.5792 2 17.3062 2 17.8731 2.3359C18.4399 2.6718 18.7196 3.26838 19.2788 4.46154L20 6" stroke="#F9F5EC" stroke-width="1.5" stroke-linecap="round"/>
<path d="M11 9H14" stroke="#F9F5EC" stroke-width="1.5" stroke-linecap="round"/>
<path d="M12.5 19.5V22M12.5 19.5H7.5M12.5 19.5H17.5M7.5 19.5H5C3.61929 19.5 2.5 20.6193 2.5 22M7.5 19.5V22M17.5 19.5H20C21.3807 19.5 22.5 20.6193 22.5 22M17.5 19.5V22" stroke="#F9F5EC" stroke-width="1.5" stroke-linecap="round" stroke-linejoin="round"/>
</svg>
