<svg width="25" height="24" viewBox="0 0 25 24" fill="none" xmlns="http://www.w3.org/2000/svg">
<path d="M20 17.5C20 18.8807 18.8807 20 17.5 20C16.1193 20 15 18.8807 15 17.5C15 16.1193 16.1193 15 17.5 15C18.8807 15 20 16.1193 20 17.5Z" stroke="#F9F5EC" stroke-width="1.5"/>
<path d="M10 17.5C10 18.8807 8.88071 20 7.5 20C6.11929 20 5 18.8807 5 17.5C5 16.1193 6.11929 15 7.5 15C8.88071 15 10 16.1193 10 17.5Z" stroke="#F9F5EC" stroke-width="1.5"/>
<path d="M15 17.5H10M20 17.5H20.7632C20.9831 17.5 21.0931 17.5 21.1855 17.4885C21.8669 17.4036 22.4036 16.8669 22.4885 16.1855C22.5 16.0931 22.5 15.9831 22.5 15.7632V13C22.5 9.41015 19.5899 6.5 16 6.5M15.5 15.5V7C15.5 5.58579 15.5 4.87868 15.0607 4.43934C14.6213 4 13.9142 4 12.5 4H5.5C4.08579 4 3.37868 4 2.93934 4.43934C2.5 4.87868 2.5 5.58579 2.5 7V15C2.5 15.9346 2.5 16.4019 2.70096 16.75C2.83261 16.978 3.02197 17.1674 3.25 17.299C3.59808 17.5 4.06538 17.5 5 17.5" stroke="#F9F5EC" stroke-width="1.5" stroke-linecap="round" stroke-linejoin="round"/>
</svg>
