<svg width="127" height="48" viewBox="0 0 127 48" fill="none" xmlns="http://www.w3.org/2000/svg">
<path d="M17.8071 14.1805H10.0171V11.0235H30.0251V14.1805H21.6201V36.9765H17.8071V14.1805Z" fill="black"/>
<path d="M37.7776 10.5315V20.4125C39.3083 18.7178 41.2353 17.8705 43.5586 17.8705C48.1233 17.8705 50.4056 20.5492 50.4056 25.9065V36.9765H46.8796V26.1115C46.8796 22.6402 45.3489 20.9045 42.2876 20.9045C41.4403 20.9045 40.5793 21.1095 39.7046 21.5195C38.8299 21.9295 38.1876 22.4215 37.7776 22.9955V36.9765H34.2516V12.4175L37.7776 10.5315Z" fill="black"/>
<path d="M64.4654 37.4685C61.6501 37.4685 59.3677 36.4162 57.6184 34.3115C56.1151 32.5075 55.3634 30.3072 55.3634 27.7105C55.3634 24.7038 56.2791 22.2712 58.1104 20.4125C59.7504 18.7178 61.8551 17.8705 64.4244 17.8705C67.3764 17.8705 69.6997 18.9502 71.3944 21.1095C72.7884 22.9135 73.4854 25.1138 73.4854 27.7105C73.4854 30.6898 72.5287 33.1225 70.6154 35.0085C68.9207 36.6485 66.8707 37.4685 64.4654 37.4685ZM64.3834 34.6805C66.0234 34.6805 67.3217 34.0518 68.2784 32.7945C69.2624 31.5372 69.7544 29.8425 69.7544 27.7105C69.7544 25.4965 69.2351 23.7335 68.1964 22.4215C67.2397 21.1915 65.9824 20.5765 64.4244 20.5765C62.8391 20.5765 61.5544 21.2325 60.5704 22.5445C59.5864 23.8565 59.0944 25.5785 59.0944 27.7105C59.0944 30.0065 59.6411 31.7832 60.7344 33.0405C61.6911 34.1338 62.9074 34.6805 64.3834 34.6805Z" fill="black"/>
<path d="M81.4019 36.9765H78.6549V12.4175L82.1809 10.5315V20.3305C83.4109 18.6905 85.1739 17.8705 87.4699 17.8705C90.2306 17.8705 92.4036 18.8818 93.9889 20.9045C95.3283 22.5992 95.9979 24.7312 95.9979 27.3005C95.9979 30.6898 95.0139 33.3138 93.0459 35.1725C91.4606 36.7032 89.5336 37.4685 87.2649 37.4685C86.1716 37.4685 85.0919 37.2362 84.0259 36.7715C82.9599 36.2795 82.2219 35.7055 81.8119 35.0495L81.4019 36.9765ZM82.1809 24.2255V31.6055C82.3723 32.4528 82.9053 33.1908 83.7799 33.8195C84.6546 34.4482 85.5976 34.7625 86.6089 34.7625C88.2763 34.7625 89.6293 34.1065 90.6679 32.7945C91.7066 31.4825 92.2259 29.7878 92.2259 27.7105C92.2259 25.3325 91.6793 23.5148 90.5859 22.2575C89.6293 21.1642 88.3993 20.6175 86.8959 20.6175C85.8573 20.6175 84.8869 20.9592 83.9849 21.6425C83.0829 22.3258 82.4816 23.1868 82.1809 24.2255Z" fill="black"/>
<path d="M116.983 28.8585H103.863C104.054 30.6625 104.71 32.0975 105.831 33.1635C106.952 34.2022 108.387 34.7215 110.136 34.7215C111.831 34.7215 113.553 34.2022 115.302 33.1635L116.368 35.1725C114.455 36.7032 112.186 37.4685 109.562 37.4685C106.555 37.4685 104.164 36.5255 102.387 34.6395C100.747 32.8902 99.9269 30.5942 99.9269 27.7515C99.9269 24.8542 100.815 22.4352 102.592 20.4945C104.205 18.7452 106.186 17.8705 108.537 17.8705C111.407 17.8705 113.607 18.9502 115.138 21.1095C116.368 22.8315 116.983 25.0045 116.983 27.6285V28.8585ZM103.74 26.1115H113.375C113.32 24.3348 112.869 22.9682 112.022 22.0115C111.202 21.0275 110.081 20.5355 108.66 20.5355C107.293 20.5355 106.159 21.0412 105.257 22.0525C104.382 23.0638 103.877 24.4168 103.74 26.1115Z" fill="black"/>
</svg>
