<svg width="26" height="26" viewBox="0 0 26 26" fill="none" xmlns="http://www.w3.org/2000/svg">
<path d="M23.2742 5.33276H16.3662C15.5528 5.33276 14.7727 5.65588 14.1975 6.23104L11.0066 9.42196" stroke="white" stroke-width="0.994669" stroke-linecap="round" stroke-linejoin="round"/>
<path d="M20.2073 14.5334H23.2742" stroke="white" stroke-width="0.994669" stroke-linecap="round" stroke-linejoin="round"/>
<path d="M16.6292 8.39972L14.5846 10.4443C14.02 11.0089 14.02 11.9243 14.5846 12.4889C15.1492 13.0535 16.0646 13.0535 16.6292 12.4889L18.1626 10.9555C19.0425 11.8354 20.4355 11.9343 21.431 11.1877L21.7407 10.9555" stroke="white" stroke-width="0.994669" stroke-linecap="round" stroke-linejoin="round"/>
<path d="M20.2072 11.9777V16.5781C20.2072 18.5057 20.2072 19.4696 19.6083 20.0684C19.0095 20.6673 18.0456 20.6673 16.118 20.6673H6.91726C4.98962 20.6673 4.02579 20.6673 3.42693 20.0684C2.82807 19.4696 2.82807 18.5057 2.82807 16.5781V13.5112C2.82807 11.5835 2.82807 10.6197 3.42693 10.0208C4.02579 9.422 4.98962 9.422 6.91726 9.422H15.6068" stroke="white" stroke-width="0.994669" stroke-linecap="round" stroke-linejoin="round"/>
<path d="M9.72795 15.0446C9.72795 16.0327 10.5289 16.8337 11.517 16.8337C12.505 16.8337 13.306 16.0327 13.306 15.0446C13.306 14.0566 12.505 13.2556 11.517 13.2556C10.5289 13.2556 9.72795 14.0566 9.72795 15.0446Z" stroke="white" stroke-width="0.994669" stroke-linecap="round" stroke-linejoin="round"/>
</svg>
