<svg width="25" height="26" viewBox="0 0 25 26" fill="none" xmlns="http://www.w3.org/2000/svg">
<path d="M19.4207 4.30566C17.4862 3.34315 15.119 2.77698 12.5623 2.77698C10.0056 2.77698 7.63839 3.34315 5.70385 4.30566C4.75518 4.77768 4.28084 5.01369 3.82123 5.75573C3.3616 6.49779 3.3616 7.21629 3.3616 8.6533V12.2201C3.3616 18.0302 8.00525 21.2606 10.6946 22.6441C11.4446 23.0301 11.8196 23.223 12.5623 23.223C13.305 23.223 13.68 23.0301 14.4299 22.6441C17.1193 21.2606 21.763 18.0302 21.763 12.2201V8.6533C21.763 7.2163 21.763 6.4978 21.3034 5.75573C20.8437 5.01368 20.3694 4.77768 19.4207 4.30566Z" stroke="white" stroke-width="0.994669" stroke-linecap="round" stroke-linejoin="round"/>
<path d="M9.49527 12.4888C9.49527 12.4888 10.9346 12.7463 11.5399 14.5334C11.5399 14.5334 13.0733 11.4665 15.6291 10.4442" stroke="white" stroke-width="0.994669" stroke-linecap="round" stroke-linejoin="round"/>
</svg>
