<svg width="25" height="26" viewBox="0 0 25 26" fill="none" xmlns="http://www.w3.org/2000/svg">
<path d="M5.06526 18.6227C5.06526 20.0342 6.20952 21.1785 7.62101 21.1785C9.0325 21.1785 10.1768 20.0342 10.1768 18.6227C10.1768 17.2112 9.0325 16.067 7.62101 16.067C6.20952 16.067 5.06526 17.2112 5.06526 18.6227Z" stroke="white" stroke-width="0.994669"/>
<path d="M15.2882 18.6227C15.2882 20.0342 16.4325 21.1785 17.844 21.1785C19.2555 21.1785 20.3997 20.0342 20.3997 18.6227C20.3997 17.2112 19.2555 16.067 17.844 16.067C16.4325 16.067 15.2882 17.2112 15.2882 18.6227Z" stroke="white" stroke-width="0.994669"/>
<path d="M10.1771 18.6227H15.2886M5.06558 18.6227H4.28536C4.06055 18.6227 3.9481 18.6227 3.85364 18.6109C3.15705 18.5241 2.60838 17.9755 2.52158 17.2789C2.50983 17.1844 2.50983 17.072 2.50983 16.8472V14.0223C2.50983 10.3524 5.48482 7.3774 9.15477 7.3774M9.66592 16.5781V7.88855C9.66592 6.44281 9.66592 5.71993 10.115 5.27079C10.5642 4.82166 11.2871 4.82166 12.7328 4.82166H19.8889C21.3347 4.82166 22.0575 4.82166 22.5067 5.27079C22.9558 5.71993 22.9558 6.44281 22.9558 7.88855V16.0669C22.9558 17.0224 22.9558 17.5001 22.7504 17.856C22.6158 18.0891 22.4222 18.2827 22.1891 18.4172C21.8332 18.6227 21.3555 18.6227 20.4001 18.6227" stroke="white" stroke-width="0.994669" stroke-linecap="round" stroke-linejoin="round"/>
</svg>
