<svg width="26" height="26" viewBox="0 0 26 26" fill="none" xmlns="http://www.w3.org/2000/svg">
<path d="M8.1324 21.1784C7.00317 21.1784 6.08781 20.263 6.08781 19.1338C6.08781 18.0045 7.00317 17.0892 8.1324 17.0892C9.26164 17.0892 10.177 18.0045 10.177 19.1338C10.177 20.263 9.26164 21.1784 8.1324 21.1784Z" stroke="white" stroke-width="0.994669"/>
<path d="M18.3557 21.1784C17.2265 21.1784 16.3111 20.263 16.3111 19.1338C16.3111 18.0045 17.2265 17.0892 18.3557 17.0892C19.4849 17.0892 20.4003 18.0045 20.4003 19.1338C20.4003 20.263 19.4849 21.1784 18.3557 21.1784Z" stroke="white" stroke-width="0.994669"/>
<path d="M6.0882 11.9777H3.0213V14.0223C3.0213 16.4318 3.0213 17.6366 3.76983 18.3853C4.26759 18.8829 4.96704 19.0498 6.0882 19.1056M20.4004 19.1056C21.5216 19.0498 22.221 18.8829 22.7187 18.3853C23.4673 17.6366 23.4673 16.4318 23.4673 14.0223V9.93309C23.4673 7.52351 23.4673 6.31872 22.7187 5.57015C21.9702 4.82159 20.7654 4.82159 18.3558 4.82159H14.9822C13.8405 4.82159 13.2696 4.82159 12.8077 4.9717C11.874 5.27507 11.142 6.00709 10.8386 6.94077C10.6885 7.40275 10.6885 7.97358 10.6885 9.11525C10.6885 10.3633 10.6885 10.9873 11.0303 11.4093C11.0977 11.4925 11.1737 11.5686 11.2569 11.6359C11.6789 11.9777 12.303 11.9777 13.551 11.9777H17.3335M10.1774 19.1338H16.3112" stroke="white" stroke-width="0.994669" stroke-linecap="round" stroke-linejoin="round"/>
<path d="M10.6885 6.86621H8.82667C7.33881 6.86621 6.59499 6.86621 5.98958 7.22781C5.38418 7.58941 5.03148 8.24438 4.3261 9.55435L3.02123 11.9777" stroke="white" stroke-width="0.994669" stroke-linecap="round" stroke-linejoin="round"/>
<path d="M15.2882 14.0222C15.2882 14.0222 15.9753 13.4534 16.5791 12.9142C17.0059 12.5709 17.3328 12.2768 17.3328 11.9825C17.3328 11.7219 17.0778 11.4796 16.6624 11.1C16.0735 10.6097 15.2882 9.93304 15.2882 9.93304" stroke="white" stroke-width="0.994669" stroke-linecap="round" stroke-linejoin="round"/>
</svg>
