<svg width="113" height="24" viewBox="0 0 113 24" fill="none" xmlns="http://www.w3.org/2000/svg">
<path d="M29.2867 23.9354H26.7905V3.83247H29.2867V23.9354ZM86.6891 23.9354H84.1929V3.83247H86.6891V23.9354ZM81.6975 6.34488H75.4592V23.9373H72.9612V6.34488H66.7229V3.83431H81.6975V6.34488ZM54.2445 6.34488V11.3715H60.4828V13.8849H54.2445V21.4221H64.2276V23.9345H51.7482V3.83247H64.2276V6.3458L54.2445 6.34488ZM49.2529 3.83431V23.9354H47.2271L34.2782 8.33127V23.9373H31.7829V3.83247H33.8051L46.7567 19.4293V3.83431H49.2529ZM20.7138 23.9345L19.036 21.9141H19.0341L14.4536 16.3964H17.7262L19.3483 18.3496C22.4812 14.8808 22.5908 9.6169 19.6096 6.01749C16.6265 2.41717 11.4623 1.58307 7.512 4.06421C3.56078 6.54444 2.0318 11.5794 3.9316 15.8611C5.82867 20.142 10.5718 22.3574 15.0445 21.0515L16.7589 23.1161C15.3834 23.6586 13.9184 23.9373 12.4405 23.9345C5.90174 23.9354 0.585938 18.5832 0.585938 12.0006C0.585938 5.41606 5.90356 0.063851 12.4414 0.063851C18.9775 0.063851 24.2951 5.4179 24.2951 12.0006C24.2979 15.0951 23.1014 18.0701 20.9613 20.291L23.9864 23.9354L20.7138 23.9345ZM109.312 23.9345L103.052 16.3954H106.324L107.946 18.3487C111.079 14.8799 111.19 9.61598 108.207 6.01657C105.224 2.41625 100.06 1.58215 96.1096 4.06329C92.1584 6.54352 90.6294 11.5785 92.5292 15.8602C94.4272 20.1411 99.1694 22.3564 103.643 21.0506L105.357 23.1151C103.98 23.6577 102.516 23.9364 101.036 23.9336C94.5011 23.9336 89.1826 18.5814 89.1826 11.9987C89.1826 5.41606 94.5011 0.0620117 101.038 0.0620117C107.574 0.0620117 112.894 5.41606 112.894 11.9987C112.894 15.0933 111.697 18.0682 109.557 20.2891L112.582 23.9336H109.31L109.312 23.9345Z" fill="#AEB7C1"/>
</svg>
