<svg width="112" height="38" viewBox="0 0 112 38" fill="none" xmlns="http://www.w3.org/2000/svg">
<path d="M55.8329 0.777762C56.6215 0.53925 57.5408 0.692369 58.1609 1.2592C58.6866 1.75537 58.9102 2.4974 58.9131 3.21147C58.916 10.2299 58.9146 17.2483 58.9146 24.2668C58.8768 25.318 59.0961 26.4973 58.4542 27.4116C57.8152 28.3554 56.4733 28.6042 55.4887 28.1065C54.6856 27.7017 54.2557 26.7682 54.2659 25.8863C54.2688 18.6264 54.2659 11.365 54.2673 4.10515C54.2761 3.45734 54.2005 2.7845 54.4271 2.16467C54.6522 1.51686 55.1794 0.97505 55.8329 0.777762ZM37.3877 14.0152C38.5669 12.3103 40.5318 11.259 42.5592 11.0603C44.7129 10.8188 47.0888 11.1898 48.7575 12.6901C50.307 14.0711 50.9983 16.1868 51.1392 18.223C51.1827 19.0239 51.2989 19.9029 50.8865 20.6302C50.5655 21.2044 49.8583 21.3561 49.257 21.3605C46.2654 21.3664 43.2722 21.3561 40.2806 21.3649C40.4708 22.4927 40.9922 23.7014 42.0974 24.1755C43.6397 24.841 45.3795 24.4493 46.9218 23.9812C47.5332 23.7971 48.1649 23.5689 48.8126 23.6602C49.716 23.8575 50.3579 24.8395 50.2547 25.7582C50.1676 26.4576 49.5983 26.9611 49.0305 27.2938C47.9878 27.8798 46.7954 28.1139 45.6235 28.2538C43.4044 28.5158 41.0009 28.3406 39.097 27.048C37.2105 25.8112 36.13 23.6101 35.8642 21.3929C35.5578 18.8664 35.9035 16.1294 37.3877 14.0152ZM41.7851 15.0649C40.6698 15.6597 40.3939 17.0363 40.282 18.1965C42.4633 18.198 44.6461 18.1936 46.8274 18.198C46.7446 17.0142 46.3554 15.6759 45.2444 15.0826C44.1814 14.5526 42.8555 14.5585 41.7851 15.0649ZM19.3694 11.1854C20.1696 10.9572 21.1165 11.0941 21.7163 11.711C22.2246 12.2175 22.4279 12.9551 22.425 13.6604C22.4293 16.2663 22.4235 18.8708 22.4264 21.4753C22.4206 22.4146 22.7997 23.4158 23.6086 23.934C24.3202 24.4022 25.2075 24.4449 26.0281 24.3478C26.7324 24.2579 27.4353 23.9237 27.8448 23.3172C28.3067 22.6546 28.372 21.8154 28.3807 21.0292C28.3822 18.4762 28.3793 15.9233 28.3807 13.3718C28.388 12.4825 28.9166 11.5903 29.7488 11.2635C30.6535 10.8939 31.8211 11.0691 32.4543 11.8656C32.9481 12.4413 33.0439 13.2349 33.0309 13.971C33.0149 16.3208 33.0483 18.6721 33.0149 21.0233C32.967 23.0345 32.4296 25.1855 30.9193 26.5901C29.3 28.1036 26.9778 28.4702 24.8532 28.3863C22.8955 28.3185 20.8144 27.7223 19.4812 26.1852C18.2584 24.7836 17.7995 22.8607 17.7792 21.0292C17.7821 18.4762 17.7748 15.9233 17.7821 13.3718C17.7937 12.4045 18.4385 11.4563 19.3694 11.1854ZM76.4405 11.2105C78.6218 10.9322 80.9992 11.0338 82.922 12.2308C84.245 13.0346 85.1454 14.423 85.5346 15.9203C85.8018 16.9112 85.8904 17.9447 85.8919 18.9695C85.889 21.225 85.8904 23.4806 85.8919 25.7361C85.9049 26.4826 85.6653 27.2688 85.1018 27.7753C84.2697 28.5291 82.9089 28.5468 82.0448 27.84C81.4784 27.3733 81.1822 26.621 81.204 25.8878C81.2112 23.6293 81.204 21.3708 81.2083 19.1123C81.2127 18.117 81.249 17.0246 80.6521 16.1736C80.1641 15.4418 79.2797 15.1062 78.436 15.0752C77.6023 15.0502 76.6918 15.2122 76.0673 15.8173C75.4864 16.4047 75.2845 17.2675 75.2874 18.0772C75.2918 20.6361 75.286 23.195 75.2918 25.7523C75.2932 26.3619 75.1625 26.9935 74.7864 27.4838C73.9877 28.5659 72.213 28.6557 71.2981 27.6796C70.8406 27.2114 70.6373 26.54 70.6416 25.8922C70.6402 24.174 70.6431 22.4573 70.6416 20.7392C70.6576 19.1697 70.5371 17.5708 70.9553 16.0381C71.3039 14.5791 72.1375 13.2246 73.3661 12.3662C74.281 11.7361 75.3528 11.3754 76.4405 11.2105ZM91.4976 13.0641C93.0835 11.6507 95.243 11.0367 97.327 11.0883C99.3689 11.0912 101.451 11.5152 103.241 12.5414C104.064 12.9949 104.681 13.8738 104.661 14.8485C104.661 19.7086 104.659 24.5701 104.662 29.4316C104.632 31.6312 103.936 33.9648 102.24 35.4356C100.537 36.9226 98.2027 37.3584 96.0156 37.329C94.3339 37.2569 92.6391 36.8269 91.1912 35.9391C90.6684 35.599 90.1746 35.175 89.8711 34.6185C89.3163 33.5805 89.9611 32.0994 91.1026 31.8388C91.942 31.7063 92.7291 32.123 93.4843 32.4336C94.5096 32.8915 95.6279 33.1506 96.7519 33.1094C97.7104 33.1079 98.7386 32.865 99.4342 32.1553C100.081 31.4737 100.278 30.4902 100.271 29.5744C100.268 28.7264 100.263 27.8798 100.269 27.0318C98.9565 28.2022 97.1135 28.4834 95.4231 28.373C93.6528 28.2626 91.9159 27.4617 90.757 26.0836C89.1261 24.1887 88.6439 21.5519 88.7761 19.1049C88.8894 16.8449 89.7752 14.5555 91.4976 13.0641ZM96.3889 15.1135C95.6787 15.2372 94.9874 15.5552 94.4864 16.0882C93.57 17.0952 93.3623 18.5337 93.3638 19.8514C93.3827 21.0366 93.4742 22.3248 94.1988 23.3083C94.8857 24.2138 96.1057 24.4199 97.1658 24.336C98.1795 24.2859 99.1801 23.7264 99.6463 22.7901C100.518 21.1146 100.208 19.1623 100.269 17.3455C100.237 16.8052 100.429 16.1073 99.8961 15.7569C98.9027 15.0149 97.5695 14.9354 96.3889 15.1135ZM0.668599 12.4354C1.16092 11.4681 2.37501 11.0912 3.37853 11.2988C4.17582 11.449 4.74366 12.166 4.94262 12.9301C5.86045 16.0705 6.78118 19.2094 7.69321 22.3528C7.74258 22.5368 7.82827 22.7106 7.92702 22.8725C8.88842 19.6556 9.82078 16.4297 10.7618 13.2054C10.939 12.5149 11.2672 11.7891 11.9353 11.4652C13.0085 10.969 14.4854 11.3209 15.0939 12.3839C15.4817 13.0891 15.383 13.9519 15.1027 14.6762C13.7971 18.3614 12.5162 22.0554 11.2149 25.742C10.9419 26.4517 10.6805 27.207 10.1359 27.7576C9.57244 28.3009 8.74755 28.3553 8.0098 28.3612C7.19072 28.3657 6.2787 28.2891 5.64987 27.6913C5.07332 27.1304 4.77125 26.3545 4.49822 25.611C3.20716 21.9126 1.92626 18.2112 0.629388 14.5172C0.388312 13.8518 0.330221 13.0773 0.668599 12.4354ZM63.9845 11.4107C64.9618 11.0176 66.2035 11.3165 66.799 12.2234C67.1533 12.7254 67.2346 13.363 67.2317 13.9651C67.2259 17.8917 67.2288 21.8198 67.2303 25.7464C67.2288 26.4031 67.0676 27.0892 66.6261 27.5883C65.7896 28.5894 64.0789 28.6174 63.2075 27.6501C62.7892 27.1746 62.5758 26.5341 62.5801 25.901C62.5816 21.8242 62.583 17.746 62.5801 13.6692C62.5554 12.7269 63.0942 11.7508 63.9845 11.4107Z" fill="#AEB7C1"/>
<path d="M107.848 2.44145C108.583 2.20588 109.394 2.20588 110.129 2.44439C111.042 2.74179 111.765 3.5707 111.925 4.53211C112.025 5.35807 111.989 6.27089 111.489 6.97023C110.516 8.35124 108.403 8.5397 107.076 7.5989C105.369 6.31064 105.719 3.07453 107.848 2.44145Z" fill="#AEB7C1"/>
</svg>
