<svg width="151" height="38" viewBox="0 0 151 38" fill="none" xmlns="http://www.w3.org/2000/svg">
<path d="M54.8612 9.2143C60.2485 9.2143 63.8127 12.8058 63.8127 18.3574C63.8127 23.9089 60.347 27.9385 54.7188 27.9385H47.6836V9.2143H54.8612ZM51.204 25.0696H54.5437C58.4144 25.0696 60.1773 22.2336 60.1773 18.3848C60.1773 15.1053 58.5458 12.0886 54.5656 12.0886H51.204V25.0696Z" fill="white"/>
<path d="M69.1233 21.6697C69.1288 23.7775 70.1909 25.5843 72.255 25.5843C74.0617 25.5843 74.6037 24.774 74.9979 23.8761H78.3704C77.8613 25.6062 76.3502 28.2615 72.1619 28.2615C67.6451 28.2615 65.7289 24.7904 65.7289 21.1605C65.7289 16.8737 67.9188 13.6928 72.3042 13.6928C76.9853 13.6928 78.5621 17.1967 78.5621 20.5036C78.5621 20.958 78.5621 21.281 78.5183 21.6697H69.1233ZM75.184 19.529C75.1567 17.684 74.3409 16.162 72.2933 16.162C70.2457 16.162 69.3916 17.58 69.2054 19.529H75.184Z" fill="white"/>
<path d="M84.6994 14.0213V27.9001C84.6994 31.8421 83.8727 33.5886 80.314 33.5886C80.0348 33.5886 79.5092 33.5612 79.2136 33.5338V30.8018C79.3559 30.8073 79.5037 30.8073 79.6297 30.8073C81.0203 30.8073 81.3324 30.216 81.3324 28.5571V14.0213H84.6994ZM81.3324 11.4262V8.13574H84.6994V11.4262H81.3324Z" fill="white"/>
<path d="M88.1048 8.13574H91.4719V11.4262H88.1048V8.13574ZM88.1048 14.0213H91.4719V27.9385H88.1048V14.0213Z" fill="white"/>
<path d="M108.055 9.2143V12.1269H98.7754V17.2241H107.47V20.1367H98.7754V27.9439H95.3372V9.2143H108.055Z" fill="white"/>
<path d="M110.223 27.9385V8.13574H113.59V27.9385H110.223Z" fill="white"/>
<path d="M129.61 20.9525C129.61 25.097 127.163 28.2615 122.81 28.2615C118.458 28.2615 116.12 25.1791 116.12 21.0182C116.12 16.8573 118.638 13.6982 122.98 13.6982C126.999 13.6982 129.61 16.589 129.61 20.9525ZM119.547 20.9799C119.547 23.783 120.823 25.5843 122.898 25.5843C124.973 25.5843 126.183 23.8213 126.183 20.9963C126.183 18.0125 124.995 16.37 122.843 16.37C120.691 16.37 119.547 17.9577 119.547 20.9744V20.9799Z" fill="white"/>
<path d="M134.209 14.0213C135.622 19.9232 136.41 23.2848 136.662 24.9163H136.706C136.979 23.4545 137.576 20.8375 139.361 14.0213H142.531C144.31 21.2098 144.841 23.3177 145.044 24.7357H145.071C145.372 23.2848 145.843 21.1989 147.65 14.0213H151.001L146.818 27.9385H143.204C141.989 22.7264 141.102 19.3045 140.795 17.58H140.768C140.538 19.2498 139.618 22.7647 138.277 27.9385H134.62L130.639 14.0213H134.209Z" fill="white"/>
<path d="M22.4104 17.1638C22.4104 17.1638 22.4104 17.1638 22.4158 17.1638C22.6512 17.2131 22.8921 17.235 23.144 17.235H36.7491C36.7491 15.9867 36.6123 14.7713 36.3604 13.5997H23.1385V0.388718C21.9669 0.136873 20.7515 0 19.5032 0V13.6051C19.5032 15.3626 20.7515 16.8244 22.4049 17.1638H22.4104Z" fill="#77FF77"/>
<path d="M26.2483 10.0081C26.3961 10.1888 26.5603 10.353 26.741 10.5009C27.1899 10.8732 27.7265 11.136 28.3178 11.2564C28.3178 11.2564 28.3178 11.2564 28.3232 11.2564C28.5477 11.3002 28.7831 11.3276 29.024 11.3276C29.035 11.3276 29.0405 11.3276 29.0514 11.3276H35.7089C35.2381 10.0355 34.6139 8.82007 33.8693 7.69224H29.0514V2.8798C28.8981 2.77578 28.7339 2.6827 28.5751 2.58415C28.4273 2.49108 28.274 2.39801 28.1207 2.30493C27.8853 2.16806 27.6444 2.03666 27.398 1.91074C27.294 1.85599 27.1899 1.80672 27.0859 1.75744C26.9052 1.66985 26.7246 1.58225 26.5384 1.50012C26.4454 1.45632 26.3523 1.418 26.2592 1.3742C25.98 1.25375 25.7008 1.13878 25.4161 1.03476V7.69224C25.4161 8.32186 25.5748 8.90767 25.8541 9.42231C25.9636 9.63036 26.095 9.82198 26.2428 10.0027L26.2483 10.0081Z" fill="#77FF77"/>
<path d="M13.6012 0.388718V13.6106H0.384812C0.341013 13.8187 0.302688 14.0322 0.264364 14.2457C0.22604 14.4592 0.19319 14.6727 0.165816 14.8863C0.154866 14.9465 0.149391 15.0122 0.138441 15.0724C0.116542 15.2531 0.094642 15.4392 0.0782173 15.6199C0.0672675 15.7458 0.0563177 15.8717 0.0453679 15.9922C0.0344181 16.1291 0.0234683 16.2659 0.0179934 16.4028C0.00156865 16.682 -0.00390625 16.9558 -0.00390625 17.235H13.6012C15.605 17.235 17.2366 15.609 17.2366 13.5997V0C15.9883 0 14.7729 0.136873 13.6012 0.388718Z" fill="#77FF77"/>
<path d="M7.69381 11.3331C7.77593 11.3331 7.86353 11.3276 7.94565 11.3221C8.0442 11.3166 8.13728 11.3057 8.23035 11.2893C8.23035 11.2893 8.23582 11.2893 8.2413 11.2893C8.30152 11.2783 8.36722 11.2728 8.42745 11.2619C9.01874 11.1414 9.55528 10.8786 10.0042 10.5063C10.1849 10.3585 10.3491 10.1943 10.497 10.0136C10.5736 9.926 10.6393 9.82745 10.705 9.73438C10.7652 9.64678 10.8145 9.55919 10.8693 9.46611C10.8747 9.45516 10.8802 9.44421 10.8857 9.43326C10.8966 9.41684 10.9021 9.39494 10.9131 9.37851C10.9514 9.30734 10.9842 9.24164 11.0171 9.17047C11.028 9.14309 11.0445 9.11024 11.0554 9.08287C11.0937 8.98432 11.132 8.88577 11.1649 8.78175C11.1977 8.67772 11.2196 8.5737 11.247 8.46968C11.2525 8.43683 11.258 8.40398 11.2634 8.37113C11.2799 8.29448 11.2908 8.21236 11.3018 8.13571C11.3018 8.10286 11.3127 8.07001 11.3127 8.03716C11.3237 7.92766 11.3291 7.81816 11.3291 7.70867V1.04023C10.0371 1.51107 8.82164 2.13521 7.69381 2.8798V7.69772H2.87589C2.12583 8.82555 1.50717 10.041 1.03633 11.3331H7.69381Z" fill="#77FF77"/>
<path d="M14.3349 20.0546C14.3349 20.0546 14.3349 20.0546 14.3294 20.0546C14.094 20.0053 13.8531 19.9834 13.6012 19.9834H-0.00390625C-0.00390625 21.2317 0.132966 22.4471 0.384812 23.6187H13.6067V36.8406C14.7783 37.0925 15.9938 37.2294 17.242 37.2294V23.6242C17.242 21.8668 15.9938 20.405 14.3403 20.0655L14.3349 20.0546Z" fill="#77FF77"/>
<path d="M10.497 27.2103C10.3491 27.0296 10.1849 26.8654 10.0042 26.7175C9.55528 26.3452 9.01874 26.0824 8.42745 25.962C8.42745 25.962 8.42745 25.962 8.42197 25.962C8.1975 25.9182 7.96208 25.8908 7.72118 25.8908C7.71023 25.8908 7.70476 25.8908 7.69381 25.8908H1.03633C1.50717 27.1829 2.13131 28.3983 2.87589 29.5262H7.69381V34.3441C7.84711 34.4481 8.01135 34.5412 8.17013 34.6397C8.31795 34.7328 8.47125 34.8259 8.62454 34.9189C8.85996 35.0558 9.10086 35.1872 9.34723 35.3131C9.45125 35.3679 9.55528 35.4172 9.6593 35.4664C9.83997 35.554 10.0206 35.6416 10.2068 35.7238C10.2999 35.7676 10.3929 35.8059 10.486 35.8497C10.7652 35.9701 11.0445 36.0851 11.3291 36.1891V29.5316C11.3291 28.902 11.1704 28.3162 10.8912 27.8016C10.7817 27.5935 10.6503 27.4019 10.5024 27.2212L10.497 27.2103Z" fill="#77FF77"/>
<path d="M32.6648 19.9834H23.144C21.1402 19.9834 19.5087 21.6094 19.5087 23.6187V37.2239C20.7569 37.2239 21.9724 37.087 23.144 36.8352V23.6133H36.3659C36.4097 23.4052 36.448 23.1917 36.4863 22.9782C36.5247 22.7647 36.5575 22.5511 36.5849 22.3376C36.5958 22.2774 36.6013 22.2117 36.6123 22.1515C36.6342 21.9708 36.656 21.7846 36.6725 21.604C36.6834 21.4781 36.6944 21.3521 36.7053 21.2317C36.7163 21.0948 36.7272 20.9579 36.7327 20.8211C36.7491 20.5418 36.7546 20.2681 36.7546 19.9889H32.6703L32.6648 19.9834Z" fill="#77FF77"/>
<path d="M32.6867 25.8908H29.0569C28.9748 25.8908 28.8872 25.8963 28.805 25.9018C28.7065 25.9072 28.6134 25.9182 28.5203 25.9346C28.5203 25.9346 28.5149 25.9346 28.5094 25.9346C28.4492 25.9456 28.3835 25.951 28.3232 25.962C27.732 26.0824 27.1954 26.3452 26.7465 26.7175C26.5658 26.8654 26.4016 27.0296 26.2537 27.2103C26.1771 27.2979 26.1114 27.3964 26.0457 27.4895C25.9855 27.5771 25.9362 27.6647 25.8814 27.7578C25.876 27.7687 25.8705 27.7797 25.865 27.7906C25.8541 27.807 25.8486 27.8289 25.8376 27.8454C25.7993 27.9165 25.7665 27.9822 25.7336 28.0534C25.7227 28.0808 25.7062 28.1136 25.6953 28.141C25.657 28.2396 25.6186 28.3381 25.5858 28.4421C25.5529 28.5462 25.531 28.6502 25.5037 28.7542C25.4982 28.7871 25.4927 28.8199 25.4872 28.8527C25.4708 28.9294 25.4599 29.0115 25.4489 29.0882C25.4489 29.121 25.438 29.1539 25.438 29.1867C25.427 29.2962 25.4215 29.4057 25.4215 29.5152V36.1727C26.7136 35.7019 27.9291 35.0777 29.0569 34.3331V29.5152H33.8748C34.6249 28.3874 35.2435 27.172 35.7144 25.8799H32.6867V25.8908Z" fill="#77FF77"/>
</svg>
