<svg width="108" height="31" viewBox="0 0 108 31" fill="none" xmlns="http://www.w3.org/2000/svg">
<path d="M39.0769 7.96711C42.9142 7.96711 45.4529 10.8451 45.4529 15.2937C45.4529 19.7423 42.9844 22.9713 38.9755 22.9713H33.9643V7.96711H39.0769ZM36.4719 20.6724H38.8507C41.6078 20.6724 42.8635 18.3998 42.8635 15.3156C42.8635 12.6877 41.7014 10.2704 38.8663 10.2704H36.4719V20.6724Z" fill="white"/>
<path d="M49.2356 17.9479C49.2395 19.637 49.9961 21.0848 51.4663 21.0848C52.7532 21.0848 53.1392 20.4355 53.42 19.716H55.8222C55.4596 21.1023 54.3832 23.2301 51.4 23.2301C48.1827 23.2301 46.8178 20.4486 46.8178 17.5399C46.8178 14.1048 48.3777 11.5558 51.5014 11.5558C54.8356 11.5558 55.9587 14.3636 55.9587 17.0135C55.9587 17.3776 55.9587 17.6365 55.9275 17.9479H49.2356ZM53.5526 16.2326C53.5331 14.7541 52.952 13.5344 51.4935 13.5344C50.0351 13.5344 49.4267 14.6707 49.2941 16.2326H53.5526Z" fill="white"/>
<path d="M60.3303 11.8191V22.9406C60.3303 26.0993 59.7414 27.4988 57.2066 27.4988C57.0077 27.4988 56.6334 27.4769 56.4228 27.455V25.2658C56.5242 25.2701 56.6295 25.2701 56.7192 25.2701C57.7097 25.2701 57.932 24.7963 57.932 23.467V11.8191H60.3303ZM57.932 9.73954V7.10284H60.3303V9.73954H57.932Z" fill="white"/>
<path d="M62.7559 7.10284H65.1543V9.73954H62.7559V7.10284ZM62.7559 11.8191H65.1543V22.9713H62.7559V11.8191Z" fill="white"/>
<path d="M76.9665 7.96711V10.3011H70.3565V14.3856H76.5492V16.7195H70.3565V22.9757H67.9074V7.96711H76.9665Z" fill="white"/>
<path d="M78.5108 22.9713V7.10284H80.9091V22.9713H78.5108Z" fill="white"/>
<path d="M92.3196 17.3732C92.3196 20.6943 90.5765 23.2301 87.4762 23.2301C84.3759 23.2301 82.7108 20.7601 82.7108 17.4259C82.7108 14.0916 84.5046 11.5602 87.5971 11.5602C90.4595 11.5602 92.3196 13.8766 92.3196 17.3732ZM85.152 17.3952C85.152 19.6414 86.0606 21.0848 87.5386 21.0848C89.0166 21.0848 89.8784 19.6721 89.8784 17.4083C89.8784 15.0173 89.0322 13.7012 87.4996 13.7012C85.967 13.7012 85.152 14.9734 85.152 17.3908V17.3952Z" fill="white"/>
<path d="M95.5954 11.8191C96.6015 16.5484 97.1631 19.2422 97.3425 20.5495H97.3737C97.5687 19.3782 97.9937 17.2811 99.265 11.8191H101.523C102.79 17.5794 103.169 19.2685 103.313 20.4048H103.332C103.547 19.2422 103.882 17.5706 105.169 11.8191H107.556L104.576 22.9713H102.003C101.137 18.7947 100.505 16.0527 100.287 14.6707H100.267C100.103 16.0088 99.4483 18.8254 98.4929 22.9713H95.8879L93.0528 11.8191H95.5954Z" fill="white"/>
<path d="M15.9654 14.3373C15.9654 14.3373 15.9654 14.3373 15.9693 14.3373C16.137 14.3768 16.3086 14.3943 16.488 14.3943H26.1788C26.1788 13.3941 26.0813 12.4201 25.9019 11.4812H16.4841V0.894986C15.6495 0.693176 14.7838 0.583496 13.8947 0.583496V11.4856C13.8947 12.8939 14.7838 14.0653 15.9615 14.3373H15.9654Z" fill="#6140EF"/>
<path d="M18.6991 8.60326C18.8044 8.74803 18.9214 8.87965 19.0501 8.9981C19.3699 9.29643 19.752 9.50702 20.1732 9.60353C20.1732 9.60353 20.1732 9.60353 20.1771 9.60353C20.337 9.63863 20.5047 9.66057 20.6763 9.66057C20.6841 9.66057 20.688 9.66057 20.6958 9.66057H25.4378C25.1025 8.62519 24.6579 7.65124 24.1275 6.74748H20.6958V2.89115C20.5866 2.8078 20.4696 2.73321 20.3565 2.65424C20.2512 2.57966 20.142 2.50508 20.0328 2.4305C19.8651 2.32082 19.6936 2.21553 19.5181 2.11462C19.444 2.07075 19.3699 2.03126 19.2958 1.99178C19.1671 1.92159 19.0384 1.85139 18.9058 1.78558C18.8395 1.75049 18.7732 1.71977 18.7069 1.68468C18.508 1.58816 18.3092 1.49603 18.1064 1.41267V6.74748C18.1064 7.25201 18.2195 7.72143 18.4183 8.13383C18.4963 8.30054 18.5899 8.45409 18.6952 8.59887L18.6991 8.60326Z" fill="#6140EF"/>
<path d="M9.69079 0.894986V11.49H0.27688C0.245682 11.6567 0.218384 11.8278 0.191086 11.9989C0.163788 12.17 0.14039 12.3411 0.120891 12.5122C0.113092 12.5605 0.109192 12.6131 0.101393 12.6614C0.0857937 12.8062 0.0701948 12.9553 0.0584957 13.1001C0.0506963 13.201 0.0428968 13.3019 0.0350974 13.3984C0.027298 13.5081 0.0194986 13.6178 0.0155989 13.7275C0.00389971 13.9512 0 14.1706 0 14.3943H9.69079C11.1181 14.3943 12.2802 13.0913 12.2802 11.4812V0.583496C11.3911 0.583496 10.5253 0.693176 9.69079 0.894986Z" fill="#6140EF"/>
<path d="M5.483 9.66495C5.54149 9.66495 5.60389 9.66057 5.66238 9.65618C5.73258 9.65179 5.79887 9.64302 5.86517 9.62986C5.86517 9.62986 5.86907 9.62986 5.87297 9.62986C5.91586 9.62108 5.96266 9.61669 6.00556 9.60792C6.42673 9.5114 6.8089 9.30082 7.12868 9.00249C7.25737 8.88404 7.37436 8.75242 7.47965 8.60764C7.53425 8.53745 7.58104 8.45848 7.62784 8.3839C7.67074 8.3137 7.70583 8.24351 7.74483 8.16893C7.74873 8.16015 7.75263 8.15138 7.75653 8.1426C7.76433 8.12944 7.76823 8.11189 7.77603 8.09873C7.80333 8.0417 7.82672 7.98905 7.85012 7.93202C7.85792 7.91008 7.86962 7.88376 7.87742 7.86182C7.90472 7.78285 7.93202 7.70389 7.95541 7.62053C7.97881 7.53717 7.99441 7.45382 8.01391 7.37046C8.01781 7.34414 8.02171 7.31781 8.02561 7.29149C8.03731 7.23007 8.04511 7.16426 8.05291 7.10284C8.05291 7.07652 8.06071 7.0502 8.06071 7.02387C8.06851 6.93613 8.07241 6.84839 8.07241 6.76064V1.41706C7.15207 1.79436 6.28634 2.2945 5.483 2.89115V6.75187H2.05125C1.51699 7.65563 1.07632 8.62958 0.740946 9.66495H5.483Z" fill="#6140EF"/>
<path d="M10.2133 16.6537C10.2133 16.6537 10.2133 16.6537 10.2094 16.6537C10.0418 16.6142 9.87017 16.5967 9.69079 16.5967H0C0 17.597 0.0974928 18.5709 0.27688 19.5098H9.69469V30.1048C10.5292 30.3066 11.395 30.4163 12.2841 30.4163V19.5142C12.2841 18.1059 11.395 16.9345 10.2172 16.6625L10.2133 16.6537Z" fill="#6140EF"/>
<path d="M7.47965 22.3878C7.37436 22.243 7.25737 22.1114 7.12868 21.9929C6.8089 21.6946 6.42673 21.484 6.00556 21.3875C6.00556 21.3875 6.00556 21.3875 6.00166 21.3875C5.84177 21.3524 5.67408 21.3305 5.5025 21.3305C5.4947 21.3305 5.4908 21.3305 5.483 21.3305H0.740946C1.07632 22.3658 1.52089 23.3398 2.05125 24.2435H5.483V28.1043C5.59219 28.1876 5.70918 28.2622 5.82227 28.3412C5.92756 28.4158 6.03676 28.4903 6.14595 28.5649C6.31364 28.6746 6.48522 28.7799 6.66071 28.8808C6.7348 28.9247 6.8089 28.9641 6.88299 29.0036C7.01168 29.0738 7.14037 29.144 7.27296 29.2098C7.33926 29.2449 7.40556 29.2756 7.47185 29.3107C7.67074 29.4073 7.86962 29.4994 8.07241 29.5827V24.2479C8.07241 23.7434 7.95931 23.274 7.76043 22.8616C7.68243 22.6949 7.58884 22.5413 7.48355 22.3965L7.47965 22.3878Z" fill="#6140EF"/>
<path d="M23.2696 16.5967H16.488C15.0607 16.5967 13.8986 17.8997 13.8986 19.5098V30.4119C14.7877 30.4119 15.6534 30.3022 16.488 30.1004V19.5054H25.9058C25.937 19.3387 25.9643 19.1676 25.9916 18.9965C26.0189 18.8254 26.0423 18.6543 26.0618 18.4832C26.0696 18.4349 26.0735 18.3823 26.0813 18.334C26.0969 18.1892 26.1125 18.0401 26.1242 17.8953C26.132 17.7944 26.1398 17.6935 26.1476 17.597C26.1554 17.4873 26.1632 17.3776 26.1671 17.2679C26.1788 17.0442 26.1827 16.8248 26.1827 16.6011H23.2735L23.2696 16.5967Z" fill="#6140EF"/>
<path d="M23.2852 21.3305H20.6997C20.6412 21.3305 20.5788 21.3348 20.5203 21.3392C20.4501 21.3436 20.3838 21.3524 20.3175 21.3656C20.3175 21.3656 20.3136 21.3656 20.3097 21.3656C20.2668 21.3743 20.22 21.3787 20.1771 21.3875C19.7559 21.484 19.3738 21.6946 19.054 21.9929C18.9253 22.1114 18.8083 22.243 18.703 22.3878C18.6484 22.458 18.6016 22.5369 18.5548 22.6115C18.5119 22.6817 18.4768 22.7519 18.4378 22.8265C18.4339 22.8353 18.43 22.844 18.4261 22.8528C18.4183 22.866 18.4144 22.8835 18.4066 22.8967C18.3793 22.9537 18.3559 23.0064 18.3326 23.0634C18.3248 23.0853 18.3131 23.1117 18.3053 23.1336C18.278 23.2126 18.2507 23.2915 18.2273 23.3749C18.2039 23.4582 18.1883 23.5416 18.1688 23.625C18.1649 23.6513 18.161 23.6776 18.1571 23.7039C18.1454 23.7653 18.1376 23.8312 18.1298 23.8926C18.1298 23.9189 18.122 23.9452 18.122 23.9715C18.1142 24.0593 18.1103 24.147 18.1103 24.2348V29.5696C19.0306 29.1923 19.8963 28.6921 20.6997 28.0955V24.2348H24.1314C24.6657 23.331 25.1064 22.3571 25.4417 21.3217H23.2852V21.3305Z" fill="#6140EF"/>
</svg>
