<svg width="113" height="40" viewBox="0 0 113 40" fill="none" xmlns="http://www.w3.org/2000/svg">
<path d="M0.894531 9.57324C0.894531 9.00422 1.07633 7.59455 2.92902 7.59455C3.11082 7.59455 3.55427 7.59455 3.99748 7.8131C5.00913 8.2962 5.00913 9.13639 5.00913 10.4535C6.78221 8.34246 8.99874 7.37601 11.8403 7.37601C17.5122 7.37601 21.7178 11.6841 21.7178 19.2087C21.7178 24.6621 19.3192 31.0817 12.3291 31.0817C8.64631 31.0817 6.91886 29.6322 5.00913 27.958V37.1504C5.00913 37.7263 4.83874 39.1754 2.92902 39.1754C2.57683 39.1754 2.2244 39.0895 1.9176 38.9568C1.03118 38.4742 0.894531 37.812 0.894531 37.1504V9.57324ZM11.3517 10.7644C7.18027 10.7644 4.92976 13.928 4.92976 18.984C4.92976 24.0865 7.05527 27.826 11.3063 27.826C13.648 27.826 15.1595 26.641 16.0007 25.4959C17.2396 23.8217 17.5124 21.3599 17.5124 19.2951C17.5124 16.9655 17.3306 10.7644 11.3517 10.7644ZM42.8481 27.8718C40.1427 30.8169 36.8238 31.082 34.6983 31.082C32.391 31.082 29.1972 30.7773 26.6737 28.0044C23.9343 25.0133 23.8435 20.9632 23.8435 19.3416C23.8435 17.2305 24.0593 13.5308 26.5826 10.6719C29.3334 7.64105 33.016 7.37625 34.9145 7.37625C41.427 7.37625 45.7692 11.5123 45.7692 19.0305C45.7692 21.0094 45.553 24.8807 42.8481 27.8718ZM39.9267 25.4497C41.4726 23.471 41.5636 20.6583 41.5636 19.2951C41.5636 15.0264 40.1427 10.7644 34.7439 10.7644C33.539 10.7644 31.1973 10.9364 29.5152 13.266C28.356 14.9405 28.0035 17.2699 28.0035 19.3416C28.0035 21.5784 28.4016 24.0006 29.6404 25.5823C30.5269 26.6809 32.2545 27.826 34.7779 27.826C36.7786 27.826 38.7221 27.0382 39.9267 25.4497ZM52.2708 11.7306C53.1118 9.22253 55.6465 7.59455 58.2611 7.59455C58.7381 7.59455 60.6929 7.59455 60.6929 9.57324C60.6929 11.1153 59.4536 11.3801 58.8293 11.466C57.7266 11.6381 56.5669 11.817 55.3737 12.5649C52.4526 14.5898 52.4526 17.6673 52.4526 20.308V29.0568C52.4526 29.7648 52.3159 30.9033 50.4181 30.9033C48.5994 30.9033 48.4176 29.6721 48.4176 29.0568V9.44107C48.4176 8.91147 48.5994 7.59455 50.3724 7.59455C52.1004 7.59455 52.2708 8.91147 52.2708 9.44107V11.7306ZM66.4901 11.2874H64.1371C63.6485 11.2874 62.4553 11.1153 62.4553 9.57324C62.4553 7.99152 63.6485 7.85935 64.1371 7.85935H66.5355V2.71015C66.5355 2.14114 66.7063 0.824219 68.5248 0.824219C70.4343 0.824219 70.5593 2.09488 70.5593 2.71015V7.85935H73.3103C73.8447 7.85935 74.9921 7.99152 74.9921 9.57324C74.9921 11.1153 73.7989 11.2874 73.3103 11.2874H70.5593V22.4585C70.5593 25.099 70.6047 25.4103 70.7413 25.933C71.0481 27.2103 71.8892 27.4288 73.094 27.5213C74.1508 27.5608 75.2654 27.6537 75.2654 29.1892C75.2654 30.7308 73.8447 30.9031 72.6508 30.9031C66.4903 30.9031 66.4903 27.6073 66.4903 24.179L66.4901 11.2874ZM80.4023 20.3472C80.4822 22.3261 80.9254 24.0863 82.1303 25.5422C83.6308 27.3889 85.4495 27.6934 87.2225 27.6934C90.7233 27.6934 91.9619 25.8934 92.7571 24.6621C93.4627 23.471 93.6898 23.0341 94.6675 23.0341C95.6336 23.0341 96.9634 23.6034 96.9634 24.8804C96.9634 25.0591 96.9634 25.1851 96.9183 25.3173C96.7474 26.1579 95.9857 27.1241 95.5088 27.6533C92.4512 31.0815 88.4619 31.0815 87.2225 31.0815C84.3352 31.0815 81.4147 30.5123 79.1523 28.004C77.163 25.7603 76.2309 22.5904 76.2309 19.427C76.2309 13.8813 79.2433 7.41519 87.0859 7.41519C88.0636 7.41519 89.041 7.50794 89.9619 7.72625C91.9622 8.20935 93.6901 9.1758 95.0658 11.0221C96.5204 13.047 97.2821 15.906 97.2821 18.368C97.2821 20.2146 95.8612 20.3467 95.2811 20.3467L80.4023 20.3472ZM93.11 17.0514C92.9398 14.1463 91.3369 10.9364 87.1322 10.9364C86.1995 10.9364 84.3805 11.0226 82.8351 12.386C81.062 13.928 80.664 16.0391 80.4368 17.0516L93.11 17.0514ZM104.011 11.7306C104.863 9.22253 107.387 7.59455 110 7.59455C110.478 7.59455 112.433 7.59455 112.433 9.57324C112.433 11.1153 111.194 11.3801 110.569 11.466C109.466 11.6381 108.318 11.817 107.114 12.5649C104.192 14.5898 104.192 17.6673 104.192 20.308V29.0568C104.192 29.7648 104.056 30.9033 102.158 30.9033C100.339 30.9033 100.157 29.6721 100.157 29.0568V9.44107C100.157 8.91147 100.339 7.59455 102.112 7.59455C103.84 7.59455 104.01 8.91147 104.01 9.44107L104.011 11.7306Z" fill="#AEB7C1"/>
</svg>
