<svg width="90" height="18" viewBox="0 0 90 18" fill="none" xmlns="http://www.w3.org/2000/svg">
<path d="M51.939 13.5941H46.2996V10.4853H51.9421C52.8699 10.5002 53.6188 11.1821 53.6188 12.0338C53.6188 12.8854 52.8669 13.5941 51.939 13.5941ZM46.2996 4.47932H51.8421C52.6002 4.48821 53.2428 5.06292 53.2428 5.81637C53.2428 6.56667 52.5697 7.16519 51.8087 7.15629H46.2996V4.47932ZM55.1257 8.82675C56.1687 8.10615 56.5628 6.91212 56.5628 5.59902C56.5628 3.12749 54.4435 1.1473 51.8451 1.1473H42.4339V16.9261H52.215V16.9321C54.962 16.9321 57.248 14.8508 57.248 12.3019C57.248 10.6404 56.2293 9.41035 55.1257 8.82675ZM69.6398 1.11172V9.98231C69.6398 12.695 68.0267 13.8324 66.0439 13.8324C64.058 13.8324 62.457 12.6979 62.457 9.98519V1.11172H58.4517V10.009C58.4517 15.6846 61.8475 17.3371 66.0439 17.3371C70.2431 17.3371 73.6419 15.6846 73.6419 10.009V1.11172H69.6398ZM83.6931 7.26072C80.4518 6.56982 79.3573 6.2631 79.3573 5.25371C79.3573 4.36339 80.5307 3.91379 82.3832 3.91379C84.1326 3.91379 86.2459 4.6463 87.486 5.37579L88.7503 2.16586C86.8705 1.39763 84.6087 0.662109 81.6191 0.662109C77.6989 0.662109 75.2519 2.91329 75.2519 5.66458C75.2519 8.41902 77.2682 9.63098 81.2644 10.4618C84.363 11.1049 85.2028 11.492 85.2028 12.4388C85.2028 13.3858 83.9597 13.7341 82.2801 13.7341C80.106 13.7341 78.0141 13.0224 76.0432 12.1916L74.8517 15.3211C77.2076 16.3931 79.6544 17.2536 82.5711 17.2536C87.4313 17.2536 89.4143 14.9727 89.4143 12.3137C89.4143 9.94933 87.7469 8.12709 83.6931 7.26072ZM8.33924 1.14716L0.222656 16.9232L5.04347 16.9262L6.25633 14.3893H11.7925L10.0705 10.932H7.8845L9.94315 6.61745L15.1278 16.9262H19.9609L11.5288 1.1473L8.33924 1.14716ZM40.9513 6.39381C40.9513 3.52043 38.9441 1.18877 34.8175 1.18877H26.4826V16.9676L30.3453 16.9646V4.52093H35.0843C36.4851 4.52093 37.0672 5.37265 37.0672 6.38505C37.0672 7.40032 36.4548 8.21331 35.054 8.21331H31.7399L36.755 16.9647H40.7208C40.7208 16.9647 37.2886 11.2446 37.3067 11.2416C39.7839 10.4853 40.9513 8.64211 40.9513 6.39381ZM20.7886 16.932H24.7846V1.1562H20.7886V16.932Z" fill="#AEB7C1"/>
</svg>
