<svg width="115" height="44" viewBox="0 0 115 44" fill="none" xmlns="http://www.w3.org/2000/svg">
<path d="M106.444 15.0837C107.034 13.2239 109.626 11.7129 111.158 11.7129C112.454 11.7129 113.279 12.4103 113.279 13.6889V15.5486C113.279 16.7109 112.101 17.4083 110.804 17.4083C107.975 17.4083 106.561 19.8492 106.561 22.755V27.8693C106.561 29.1469 105.972 29.8453 104.795 29.8453H102.555C101.377 29.8453 100.669 29.1469 100.669 27.8693V13.8051C100.669 12.5265 101.377 11.8291 102.555 11.8291H104.559C105.736 11.8291 106.444 12.5265 106.444 13.8051V15.0837Z" fill="#AEB7C1"/>
<path d="M67.0825 15.0846C67.6717 13.2249 70.2643 11.7148 71.9142 11.7148C73.0917 11.7148 73.9166 12.4122 73.9166 13.6908V15.5505C73.9166 16.7129 72.857 17.4103 71.5607 17.4103C68.7323 17.4103 67.3191 19.8512 67.3191 22.757V27.8713C67.3191 29.1498 66.7289 29.8472 65.4336 29.8472H63.1935C62.016 29.8472 61.4268 29.1498 61.4268 27.8713V13.807C61.4268 12.5285 62.016 11.8311 63.1935 11.8311H65.1969C66.4922 11.8311 67.0825 12.5285 67.0825 13.807V15.0846Z" fill="#AEB7C1"/>
<path d="M95.7201 9.85429C93.1265 9.85429 91.123 7.7621 91.123 5.3212C91.123 2.76407 93.1265 0.671875 95.7201 0.671875C98.1949 0.671875 100.198 2.76407 100.198 5.3212C100.198 7.7621 98.1949 9.85429 95.7201 9.85429Z" fill="#AEB7C1"/>
<path d="M17.8226 9.85429C15.3478 9.85429 13.2266 7.7621 13.2266 5.3212C13.2266 2.76407 15.3478 0.671875 17.8226 0.671875C20.4153 0.671875 22.4187 2.76407 22.4187 5.3212C22.4187 7.7621 20.2974 9.85429 17.8226 9.85429ZM83.9351 18.688H84.5243V18.4555C84.5243 16.9445 83.228 16.4796 81.9307 16.4796C80.7532 16.4796 79.4559 16.8283 78.5141 17.177C77.3356 17.7581 76.5107 17.5257 75.9214 16.3634L75.45 15.5497C74.8608 14.5036 75.0975 13.5738 76.275 12.9926C77.6891 12.4114 79.8104 11.5978 82.5209 11.5978C87.5883 11.5978 90.7692 14.3874 90.7692 18.8042V27.8704C90.7692 29.149 90.0622 29.8464 88.7668 29.8464H86.9991C85.7028 29.8464 85.1135 29.149 85.1135 27.8704V27.2893L84.9967 27.4065C84.9967 27.4065 83.228 30.1951 79.5747 30.1951C76.0383 30.1951 73.4466 27.8714 73.4466 24.8484C73.4466 20.0828 79.4569 18.688 83.9351 18.688ZM80.9889 26.0107C82.9913 26.0107 84.5243 24.0347 84.5243 22.4075V21.9425H83.9351C81.696 21.9425 78.8676 22.5237 78.8676 24.3834C78.8676 25.3143 79.6926 26.0107 80.9889 26.0107Z" fill="#AEB7C1"/>
<path d="M3.4455 16.9433H2.85626C1.67779 16.9433 0.970703 16.3621 0.970703 15.0835V14.2699C0.970703 12.9913 1.67779 12.2939 2.85626 12.2939H3.56335V9.03942C3.56335 7.76085 4.27043 7.17969 5.44891 7.17969H7.45231C8.74864 7.17969 9.45572 7.76085 9.45572 9.03942V12.2939H11.2234C12.4019 12.2939 13.109 12.9913 13.109 14.2699V15.0835C13.109 16.3621 12.4019 16.9433 11.2234 16.9433H9.45572V22.4062C9.45572 23.9173 10.3985 24.4994 11.4591 24.7309C12.8733 24.8471 13.3447 25.313 13.3447 26.5916V28.2189C13.3447 29.6127 12.4019 30.0786 10.8699 30.0786C8.27725 30.0786 3.4455 28.8 3.4455 23.5686V16.9433Z" fill="#AEB7C1"/>
<path d="M14.876 13.8061C14.876 12.5275 15.4652 11.8301 16.7615 11.8301H18.8828C20.1791 11.8301 20.8862 12.5275 20.8862 13.8061V27.8703C20.8862 29.1489 20.1791 29.8463 18.8828 29.8463H16.7615C15.4652 29.8463 14.876 29.1489 14.876 27.8703V13.8061ZM92.7732 13.8061C92.7732 12.5275 93.3624 11.8301 94.5399 11.8301H96.78C97.9575 11.8301 98.6656 12.5275 98.6656 13.8061V27.8703C98.6656 29.1489 97.9575 29.8463 96.78 29.8463H94.5399C93.3624 29.8463 92.7732 29.1489 92.7732 27.8703V13.8061ZM51.7622 11.5977C57.1832 11.5977 60.0116 15.3171 60.0116 20.0827C60.0116 21.1288 59.1857 22.1749 58.0082 22.1749H48.6982C49.1696 24.2671 50.9373 25.3132 52.8229 25.3132C54.0013 25.3132 55.1798 24.8482 56.1226 24.4995C57.1832 23.9174 58.0082 24.0346 58.5974 25.1969L59.1866 26.1268C59.658 27.1729 59.5412 28.1028 58.4805 28.6839C57.1832 29.4985 55.063 30.3122 52.3515 30.3122C45.9877 30.3122 42.5701 25.7781 42.5701 20.8963C42.5701 15.6658 46.1056 11.5977 51.7622 11.5977ZM54.3549 18.6879C54.3549 17.1768 53.4121 15.8983 51.7622 15.8983C49.9945 15.8983 49.1696 17.1768 48.8161 18.6879H54.3549ZM35.1457 28.1028V31.0086C35.6171 30.5446 36.3242 30.3112 37.1492 30.3112H39.2704C40.0953 30.3112 40.8024 30.5437 41.156 31.0086V13.5736C41.156 12.2951 40.4489 11.5977 39.2704 11.5977H37.0313C35.9707 11.5977 35.2636 12.1788 35.1457 13.2249V13.3412C35.1457 13.3412 34.0851 11.5977 30.4318 11.5977C25.7179 11.5977 22.3004 15.3171 22.3004 20.8963C22.3004 26.4755 25.4823 30.3122 30.314 30.3122C33.1423 30.3122 34.5565 28.8002 35.1457 28.1028ZM31.7282 25.3141C29.6069 25.3141 28.0749 23.6869 28.0749 20.8963C28.0749 18.2229 29.8426 16.5957 31.7282 16.5957C34.0851 16.5957 35.3814 18.8041 35.3814 20.8963C35.3814 24.0346 33.4959 25.3141 31.7282 25.3141Z" fill="#AEB7C1"/>
<path d="M41.157 33.9154C41.157 32.6368 40.4499 31.9395 39.2714 31.9395H37.1502C36.5609 31.9395 36.0895 32.1719 35.736 32.5206C35.5003 32.8693 35.3825 33.219 35.3825 33.9154C35.3825 35.0777 34.7932 35.8914 34.3218 36.3563C33.8504 36.8212 33.1434 37.0537 32.0827 37.0537C30.9043 37.0537 30.1972 36.8222 29.7258 36.3563C29.3722 35.8923 28.6652 35.3112 28.783 33.9154C28.783 33.218 28.5473 32.8693 28.3116 32.6368C28.0759 32.1729 27.4867 31.9395 26.8974 31.9395H24.7762C23.4799 31.9395 22.8906 32.6368 22.8906 33.9154V34.729L23.0085 35.5427C23.2442 39.3784 27.4867 42.7491 32.0827 42.8654C36.5609 42.7501 40.8034 39.3784 41.157 35.5427V33.9154Z" fill="#AEB7C1"/>
</svg>
