<svg width="20" height="20" viewBox="0 0 20 20" fill="none" xmlns="http://www.w3.org/2000/svg">
<path d="M9.99772 1.04163C10.8721 1.04163 11.5609 1.70207 12.0006 2.59322L13.469 5.55426C13.5135 5.6459 13.6191 5.77494 13.7777 5.89299C13.9362 6.01092 14.0915 6.07597 14.1936 6.09313L16.8516 6.5384C17.8117 6.69973 18.6165 7.17037 18.8777 7.98988C19.1387 8.80871 18.7563 9.65963 18.0658 10.3513L18.0651 10.352L16.0002 12.434C15.9184 12.5165 15.8267 12.672 15.7692 12.8745C15.7121 13.0756 15.7071 13.2589 15.733 13.3772L15.7333 13.3789L16.3241 15.9545C16.5691 17.0264 16.4879 18.0894 15.7319 18.6451C14.9732 19.2027 13.9366 18.9555 12.9947 18.3946L10.5031 16.9075C10.3985 16.845 10.2188 16.7943 10.0019 16.7943C9.78656 16.7943 9.60314 16.8443 9.49164 16.9091L9.49006 16.91L7.00337 18.3943C6.06268 18.9572 5.02726 19.2 4.26857 18.6418C3.51305 18.086 3.42776 17.025 3.67357 15.9539L4.26422 13.3789L4.26458 13.3772C4.29048 13.2589 4.28542 13.0756 4.22831 12.8745C4.17081 12.672 4.07913 12.5165 3.99729 12.434L1.93085 10.3505C1.24485 9.65879 0.863649 8.80862 1.1226 7.991C1.3823 7.171 2.1855 6.69979 3.14625 6.53834L5.80207 6.09345L5.80292 6.09331C5.90028 6.07642 6.05322 6.01209 6.21137 5.89386C6.36982 5.77541 6.47563 5.64608 6.52024 5.55426L6.52249 5.54968L7.98899 2.59243L7.98957 2.59127C8.43347 1.70086 9.12431 1.04163 9.99772 1.04163Z" fill="#D2D2D2"/>
</svg>
