<svg width="87" height="33" viewBox="0 0 87 33" fill="none" xmlns="http://www.w3.org/2000/svg">
<g clip-path="url(#clip0_637_458)">
<path d="M16.3245 32.4524C18.1176 32.4524 19.8505 32.1586 21.5248 31.5721C23.1992 30.9855 24.7 30.2449 26.0291 29.3503C27.3582 28.4567 28.4114 27.5136 29.1888 26.5221H29.377C28.9129 27.1229 28.405 27.7028 27.8533 28.2637C26.2986 29.7905 24.5338 30.9617 22.5589 31.7774C20.584 32.5931 18.5058 33.001 16.3245 33.001C14.1431 33.001 12.065 32.5931 10.0901 31.7774C8.1152 30.9617 6.35039 29.7905 4.79568 28.2637C3.24097 26.7113 2.05255 24.9525 1.23135 22.9884C0.410145 21.0252 0 18.9594 0 16.7938C0 14.6281 0.410145 12.5632 1.23226 10.5991C2.05346 8.63503 3.24096 6.88387 4.79659 5.34377C6.33852 3.79131 8.0878 2.5906 10.0435 1.7426C11.9992 0.89459 14.0929 0.509564 16.3254 0.58752C19.1836 0.717763 21.4563 0.731073 23.1426 0.626498C24.8288 0.521923 26.3872 0.313724 27.8158 0L28.2671 6.90954H28.1538C27.7026 6.12618 27.2102 5.4512 26.6777 4.88364C26.1442 4.31609 25.4271 3.74853 24.5246 3.18097C23.6221 2.61342 22.4968 2.13047 21.1485 1.73214C19.8002 1.3338 18.1925 1.13511 16.3245 1.13511C14.1431 1.13511 12.2495 1.54581 10.6446 2.36814C9.03963 3.19048 7.71054 4.31894 6.65731 5.75447C5.60409 7.18999 4.8176 8.85653 4.29693 10.755C3.77625 12.6535 3.51683 14.6794 3.51683 16.8327C3.51683 18.986 3.77717 21.0243 4.29693 22.9104C4.81669 24.7966 5.60409 26.4536 6.65731 27.8825C7.71054 29.3114 9.03963 30.4303 10.6446 31.2393C12.2495 32.0484 14.1422 32.4524 16.3245 32.4524Z" fill="black"/>
<path d="M37.3684 30.0443C37.3684 30.6965 37.5877 31.2479 38.0271 31.6985C38.4655 32.1491 38.999 32.3735 39.6256 32.3735V32.4515H31.6328V32.3735C32.2467 32.3735 32.7737 32.1482 33.2122 31.6985C33.6507 31.2479 33.8708 30.6975 33.8708 30.0443V2.91669C33.8708 2.26452 33.6516 1.71598 33.2122 1.27296C32.7728 0.816637 32.2467 0.587523 31.6328 0.587523V0.509567H34.6609C35.4136 0.509567 36.0531 0.783363 36.5792 1.33191C37.1063 1.8795 37.3694 2.54592 37.3694 3.32833V30.0453L37.3684 30.0443Z" fill="black"/>
<path d="M51.7002 32.7262C49.7317 32.7262 47.9322 32.2242 46.3026 31.2194C44.673 30.2145 43.3713 28.8645 42.4003 27.1676C41.4283 25.4716 40.9424 23.5921 40.9424 21.53C40.9424 19.468 41.4283 17.6256 42.4003 15.9619C43.3722 14.2982 44.6666 12.9711 46.2843 11.9786C47.9021 10.987 49.7071 10.4394 51.7002 10.3348C53.6687 10.3092 55.2828 10.6476 56.5425 11.353C57.8022 12.0575 58.7458 12.8665 59.3733 13.7801C60 14.6937 60.3516 15.4571 60.4265 16.0703C60.4512 16.1749 60.464 16.2661 60.464 16.3441C60.464 16.3831 60.4576 16.422 60.4448 16.461C60.432 16.5133 60.4074 16.5523 60.3699 16.5789C60.3325 16.6055 60.2886 16.6179 60.2384 16.6179H44.9296C44.5789 18.119 44.4035 19.7561 44.4035 21.531C44.4035 23.4618 44.6976 25.077 45.2877 26.3757C45.8769 27.6743 46.6479 28.6887 47.6006 29.4188C48.5534 30.1499 49.5974 30.6395 50.732 30.8866C51.8665 31.1348 52.9946 31.1709 54.1173 30.9941C55.239 30.8182 56.2639 30.4655 57.192 29.9369C58.12 29.4083 58.8472 28.7467 59.3733 27.95L59.6364 27.93C58.6581 29.3655 57.4834 30.5235 56.1104 31.4038C54.7375 32.2841 53.2677 32.7252 51.7002 32.7252V32.7262ZM51.7002 10.8824C50.4588 10.8824 49.4029 11.1011 48.5314 11.5384C47.66 11.9757 46.942 12.5794 46.3784 13.3485C45.8139 14.1185 45.3818 15.0255 45.0804 16.0693H55.1988C55.725 16.0693 56.1013 15.8935 56.3269 15.5408C56.5525 15.1881 56.6274 14.7574 56.5525 14.2488C56.4776 13.7402 56.2484 13.2278 55.8665 12.7125C55.4838 12.1972 54.9449 11.7628 54.2488 11.411C53.5527 11.0583 52.7032 10.8824 51.7002 10.8824Z" fill="black"/>
<path d="M76.6556 10.8824C74.5994 10.8824 72.778 11.5089 71.1922 12.761C69.6055 14.014 68.5057 15.632 67.8919 17.6151V30.0443C67.8919 30.6965 68.1111 31.2479 68.5505 31.6985C68.9889 32.1491 69.5224 32.3735 70.149 32.3735V32.4515H62.1562V32.3735C62.7701 32.3735 63.2972 32.1482 63.7356 31.6985C64.1741 31.2479 64.3942 30.6975 64.3942 30.0443V13.0357C64.3942 12.3836 64.175 11.8293 63.7356 11.372C63.2962 10.9157 62.7701 10.6866 62.1562 10.6866V10.6086H65.1844C65.9371 10.6086 66.5765 10.8862 67.1026 11.4405C67.6288 11.9957 67.8928 12.664 67.8928 13.4464V16.1083C68.6948 14.3733 69.8741 12.9768 71.4288 11.9196C72.9835 10.8625 74.7264 10.3339 76.6575 10.3339H76.789C78.3181 10.3339 79.6856 10.6761 80.8886 11.3616C82.0926 12.047 83.0389 13.0025 83.7286 14.2288C84.4182 15.4552 84.7626 16.8708 84.7626 18.4765V30.0443C84.7626 30.6965 84.9819 31.2479 85.4212 31.6985C85.8597 32.1491 86.3868 32.3735 87.0006 32.3735V32.4515H79.027V32.3735C79.6162 32.3735 80.1204 32.171 80.5406 31.767C80.9608 31.3629 81.1955 30.8467 81.2458 30.2212V18.4774C81.2458 17.1731 81.0795 15.9401 80.747 14.7783C80.4145 13.6175 79.9167 12.6773 79.2517 11.9596C78.5867 11.2418 77.7664 10.8834 76.7881 10.8834H76.6566L76.6556 10.8824Z" fill="black"/>
</g>
<defs>
<clipPath id="clip0_637_458">
<rect width="87" height="33" fill="white"/>
</clipPath>
</defs>
</svg>
