<svg width="31" height="30" viewBox="0 0 31 30" fill="none" xmlns="http://www.w3.org/2000/svg">
<path d="M7.375 8.75C7.78576 9.98229 8.27368 11.2297 8.449 12.5239C8.57495 13.4535 8.52549 14.396 8.42656 16.281L8 24.4084C8 25.2904 8.14981 25.7615 8.94364 26.187C12.2095 27.9376 18.7905 27.9376 22.0564 26.187C22.8503 25.7615 23 25.2904 23 24.4084L22.5735 16.281C22.4745 14.396 22.425 13.4535 22.551 12.5239C22.7264 11.2297 23.2143 9.98229 23.625 8.75" stroke="#3F3E3B" stroke-width="1.5" stroke-linecap="round" stroke-linejoin="round"/>
<path d="M7.96385 23.1416C7.38063 23.4321 6.79898 23.8122 6.12071 23.7399C4.97504 23.6177 4.70839 23.0641 4.47526 21.6788L3.12448 13.6515C2.94385 12.5781 2.94425 12.5697 3.22916 11.5191L3.90128 9.04036C4.35625 7.3624 4.58375 6.52342 5.12921 5.88346C5.67468 5.2435 6.46879 4.88388 8.05703 4.16465L11.2377 2.72426C11.7311 2.50086 11.735 2.5 12.2769 2.5H18.7231C19.265 2.5 19.269 2.50086 19.7623 2.72426L22.943 4.16465C24.5313 4.88388 25.3254 5.2435 25.8708 5.88346C26.4163 6.52342 26.6437 7.3624 27.0987 9.04036L27.7709 11.5191C28.0557 12.5697 28.0561 12.5781 27.8755 13.6515L26.5247 21.6788C26.2912 23.0666 26.0233 23.6186 24.8753 23.7401C24.1664 23.8151 23.6487 23.4487 23.0321 23.1416" stroke="#3F3E3B" stroke-width="1.5" stroke-linecap="round" stroke-linejoin="round"/>
<path d="M11.75 3.125C11.75 3.125 12.8844 5.51846 13.8257 6.01698C14.3084 6.27254 14.9125 6.24946 15.5 6.24946C16.0875 6.24946 16.6916 6.27254 17.1743 6.01698C18.1156 5.51846 19.25 3.125 19.25 3.125" stroke="#3F3E3B" stroke-width="1.5" stroke-linecap="round" stroke-linejoin="round"/>
</svg>
