<svg width="31" height="30" viewBox="0 0 31 30" fill="none" xmlns="http://www.w3.org/2000/svg">
<path d="M11.7507 22.8132C11.1287 22.8132 10.8177 22.8132 10.7107 23.0069C10.6037 23.2006 10.7506 23.4341 11.0443 23.9011C12.7585 26.6267 15.7931 28.4382 19.2507 28.4382C24.601 28.4382 28.9382 24.101 28.9382 18.7507C28.9382 15.2931 27.1267 12.2586 24.4011 10.5443C23.9341 10.2506 23.7006 10.1037 23.5069 10.2107C23.3132 10.3177 23.3132 10.6287 23.3132 11.2507C23.3132 17.6365 18.1365 22.8132 11.7507 22.8132Z" fill="#3F3E3B"/>
<path fill-rule="evenodd" clip-rule="evenodd" d="M4.5156 10.5719C4.49494 10.7951 4.48438 11.0213 4.48438 11.25C4.48438 14.4167 6.51025 17.1102 9.33666 18.1052C9.37023 17.2999 9.50213 16.5199 9.72066 15.777L4.5156 10.5719ZM5.29005 7.92128L10.7803 13.4115C11.5686 12.1422 12.6422 11.0686 13.9115 10.2803L8.42128 4.79005C7.08022 5.48248 5.98248 6.58022 5.29005 7.92128ZM11.0719 4.0156L16.277 9.22066C17.0199 9.00213 17.7999 8.87024 18.6052 8.83666C17.6102 6.01025 14.9167 3.98438 11.75 3.98438C11.5213 3.98438 11.2951 3.99494 11.0719 4.0156ZM19.0156 11.25C18.787 11.25 18.5608 11.2606 18.3375 11.2812L18.9844 11.9281C19.005 11.7049 19.0156 11.4787 19.0156 11.25ZM18.21 14.5788L15.6869 12.0557C14.3459 12.7481 13.2481 13.8459 12.5557 15.1869L15.0788 17.71C16.4198 17.0175 17.5175 15.9198 18.21 14.5788ZM12.4281 18.4844L11.7812 17.8375C11.7606 18.0608 11.75 18.287 11.75 18.5156C11.9787 18.5156 12.2049 18.505 12.4281 18.4844ZM2.0625 11.25C2.0625 5.89974 6.39974 1.5625 11.75 1.5625C17.1003 1.5625 21.4375 5.89974 21.4375 11.25C21.4375 16.6003 17.1003 20.9375 11.75 20.9375C6.39974 20.9375 2.0625 16.6003 2.0625 11.25Z" fill="#3F3E3B"/>
</svg>
