<svg width="31" height="30" viewBox="0 0 31 30" fill="none" xmlns="http://www.w3.org/2000/svg">
<path d="M25.6125 1.5625H5.3875C4.50566 1.5625 3.65993 1.91281 3.03637 2.53637C2.41281 3.15993 2.0625 4.00566 2.0625 4.8875V25.1125C2.0625 25.9943 2.41281 26.8401 3.03637 27.4636C3.65993 28.0872 4.50566 28.4375 5.3875 28.4375H25.6125C26.4943 28.4375 27.3401 28.0872 27.9636 27.4636C28.5872 26.8401 28.9375 25.9943 28.9375 25.1125V4.8875C28.9375 4.00566 28.5872 3.15993 27.9636 2.53637C27.3401 1.91281 26.4943 1.5625 25.6125 1.5625ZM5.3875 3.4375H25.6125C25.9971 3.4375 26.3659 3.59027 26.6378 3.8622C26.9097 4.13412 27.0625 4.50294 27.0625 4.8875V6.875H3.9375V4.8875C3.9375 4.50294 4.09027 4.13412 4.3622 3.8622C4.63412 3.59027 5.00294 3.4375 5.3875 3.4375ZM25.6125 26.5625H5.3875C5.00294 26.5625 4.63412 26.4097 4.3622 26.1378C4.09027 25.8659 3.9375 25.4971 3.9375 25.1125V8.75H27.0625V25.1125C27.0625 25.4971 26.9097 25.8659 26.6378 26.1378C26.3659 26.4097 25.9971 26.5625 25.6125 26.5625Z" fill="#3F3E3B"/>
<path d="M15.5 10.3125C14.0784 10.3125 12.6888 10.734 11.5068 11.5238C10.3249 12.3136 9.40362 13.4361 8.85962 14.7495C8.31561 16.0628 8.17328 17.508 8.45061 18.9022C8.72794 20.2964 9.41248 21.5771 10.4177 22.5823C11.4229 23.5875 12.7036 24.2721 14.0978 24.5494C15.492 24.8267 16.9372 24.6844 18.2505 24.1404C19.5639 23.5964 20.6864 22.6751 21.4762 21.4932C22.266 20.3112 22.6875 18.9216 22.6875 17.5C22.6842 15.5948 21.9259 13.7685 20.5787 12.4213C19.2315 11.0741 17.4052 10.3158 15.5 10.3125ZM15.5 22.8125C14.4493 22.8125 13.4222 22.5009 12.5485 21.9172C11.6749 21.3334 10.994 20.5037 10.5919 19.533C10.1898 18.5623 10.0846 17.4941 10.2896 16.4636C10.4946 15.4331 11.0005 14.4865 11.7435 13.7435C12.4865 13.0005 13.4331 12.4946 14.4636 12.2896C15.4941 12.0846 16.5623 12.1898 17.533 12.5919C18.5037 12.994 19.3334 13.6749 19.9172 14.5485C20.5009 15.4222 20.8125 16.4493 20.8125 17.5C20.8092 18.9079 20.2484 20.2573 19.2529 21.2529C18.2573 22.2484 16.908 22.8092 15.5 22.8125Z" fill="#3F3E3B"/>
<path d="M7.375 5.625H8.625C8.79076 5.625 8.94973 5.55915 9.06694 5.44194C9.18415 5.32473 9.25 5.16576 9.25 5C9.25 4.83424 9.18415 4.67527 9.06694 4.55806C8.94973 4.44085 8.79076 4.375 8.625 4.375H7.375C7.20924 4.375 7.05027 4.44085 6.93306 4.55806C6.81585 4.67527 6.75 4.83424 6.75 5C6.75 5.16576 6.81585 5.32473 6.93306 5.44194C7.05027 5.55915 7.20924 5.625 7.375 5.625Z" fill="#3F3E3B"/>
</svg>
