<svg width="15" height="15" viewBox="0 0 15 15" fill="none" xmlns="http://www.w3.org/2000/svg">
<path d="M7.49985 0C3.35783 0 0 3.35783 0 7.49985C0 11.017 2.42155 13.9683 5.68819 14.7789V9.7918H4.14172V7.49985H5.68819V6.51227C5.68819 3.95962 6.84346 2.77644 9.34961 2.77644C9.8248 2.77644 10.6447 2.86974 10.9801 2.96274V5.0402C10.8031 5.0216 10.4956 5.0123 10.1137 5.0123C8.88402 5.0123 8.40883 5.47819 8.40883 6.68927V7.49985H10.8586L10.4377 9.7918H8.40883V14.9448C12.1225 14.4963 15 11.3344 15 7.49985C14.9997 3.35783 11.6419 0 7.49985 0Z" fill="#F5F5F5"/>
</svg>
