<svg width="150" height="74" viewBox="0 0 150 74" fill="none" xmlns="http://www.w3.org/2000/svg">
<path d="M70.8519 28.058C68.7957 26.9286 66.5923 26.3661 64.2373 26.3661C62.9572 26.3661 61.579 26.5848 60.0981 27.0223L47.5736 30.8125V26.3661H41.512V44.6652H32.5736C31.9001 44.6652 31.3024 44.3884 30.7806 43.8303C30.2587 43.2723 30 42.625 30 41.8839V15.5H23.8894V52.75C23.8894 53.9286 23.4657 54.5179 22.6271 54.5179H13.537C12.19 54.5179 10.9545 54.1875 9.82605 53.5312C8.69759 52.875 7.80553 51.9732 7.14987 50.8259C6.4942 49.6786 6.16414 48.433 6.16414 47.0848V38.442H0V47.0848C0 49.5447 0.606601 51.8125 1.8198 53.8839C3.03301 55.9554 4.67886 57.5982 6.77074 58.8125C8.85816 60.0268 11.1151 60.6339 13.537 60.6339H25.3033C26.5834 60.6339 27.6851 60.1785 28.6128 59.2678C29.5406 58.3571 30 57.2455 30 55.933V49.616C30.2364 49.9553 30.5888 50.2321 31.0616 50.4509C31.5343 50.6696 32.0384 50.7813 32.5781 50.7813H72.4219C73.8002 50.7813 74.9822 50.2857 75.959 49.2902C76.9358 48.2946 77.422 47.1071 77.422 45.7277V39.4598C77.422 36.9687 76.8153 34.7098 75.6021 32.6875C74.4915 30.7321 72.9081 29.1919 70.8564 28.0625L70.8519 28.058ZM71.3559 43.4509C71.3559 43.7902 71.2444 44.0759 71.0259 44.3081C70.8073 44.5447 70.5442 44.6607 70.2453 44.6607H47.5691V37.1294L61.86 32.7812C62.8011 32.5446 63.595 32.4286 64.2328 32.4286C65.5129 32.4286 66.6994 32.7143 67.7922 33.2857C68.8849 33.8571 69.7368 34.6696 70.3435 35.7098C71.017 36.7545 71.3515 38 71.3515 39.4509V43.442L71.3559 43.4509Z" fill="#F5F5F5"/>
<path d="M94.3354 26.2632C92.1142 26.2632 90.0759 26.8034 88.2248 27.8793C86.3738 28.9596 84.9064 30.4239 83.8314 32.2766C82.752 34.1292 82.2168 36.1695 82.2168 38.3927C82.2168 40.6159 82.7565 42.723 83.8314 44.6114C84.9108 46.4998 86.3738 47.9998 88.2248 49.1114C90.0759 50.223 92.1142 50.7811 94.3354 50.7811H99.438L99.389 51.3882C99.1526 52.6695 98.6664 53.6471 97.926 54.3212C96.7485 55.4016 95.3078 56.1069 93.6084 56.4462C91.909 56.781 89.612 56.9507 86.7128 56.9507H85.0446V63.0176C88.207 63.0489 90.785 62.9596 92.7699 62.7409C94.7547 62.5221 96.4719 62.098 97.9215 61.4775C99.3667 60.8525 100.714 59.9507 101.963 58.7721C104.487 56.5132 105.749 53.5177 105.749 49.7766V26.2721H94.3354V26.2632ZM99.5897 44.6605H94.3354C92.6494 44.6605 91.2222 44.0534 90.0446 42.8391C88.8671 41.6248 88.2783 40.1427 88.2783 38.3927C88.2783 36.6427 88.8582 35.2409 90.0223 34.098C91.182 32.9507 92.6227 32.3793 94.3399 32.3793H99.5941V44.6605H99.5897Z" fill="#F5F5F5"/>
<path d="M150 49.3304C150 62.9599 138.969 74 125.357 74H125.352V49.3304H150Z" fill="#0D74E3"/>
<path d="M125.352 24.6697C125.352 11.0402 136.382 0 150 0V49.3348C136.382 49.3348 125.352 38.2947 125.352 24.6697Z" fill="#0D74E3"/>
</svg>
