<svg width="81" height="48" viewBox="0 0 81 48" fill="none" xmlns="http://www.w3.org/2000/svg">
<path d="M22.6203 17.4327C22.6203 18.4205 22.7271 19.2214 22.914 19.8087C23.1276 20.396 23.3945 21.0367 23.7683 21.7308C23.9018 21.9444 23.9552 22.158 23.9552 22.3448C23.9552 22.6118 23.795 22.8788 23.4479 23.1457L21.7661 24.267C21.5258 24.4271 21.2855 24.5072 21.072 24.5072C20.805 24.5072 20.538 24.3738 20.2711 24.1335C19.8973 23.733 19.577 23.3059 19.31 22.8788C19.043 22.4249 18.7761 21.9177 18.4824 21.3037C16.4001 23.7597 13.7839 24.9878 10.6337 24.9878C8.3912 24.9878 6.60254 24.3471 5.29442 23.0656C3.9863 21.7842 3.31889 20.0756 3.31889 17.9399C3.31889 15.6707 4.11978 13.8287 5.74826 12.4405C7.37673 11.0523 9.53914 10.3582 12.2889 10.3582C13.1965 10.3582 14.1309 10.4383 15.1187 10.5717C16.1064 10.7052 17.1209 10.9188 18.1887 11.1591V9.21023C18.1887 7.18131 17.7616 5.76641 16.934 4.93882C16.0797 4.11123 14.6381 3.71079 12.5825 3.71079C11.6481 3.71079 10.6871 3.81757 9.69932 4.05784C8.71155 4.29811 7.75048 4.59177 6.81611 4.96552C6.38897 5.15239 6.06861 5.25918 5.88174 5.31257C5.69487 5.36596 5.56138 5.39266 5.4546 5.39266C5.08085 5.39266 4.89398 5.1257 4.89398 4.56507V3.25695C4.89398 2.82981 4.94737 2.50945 5.08085 2.32258C5.21433 2.13571 5.4546 1.94883 5.82835 1.76196C6.76272 1.28142 7.88396 0.880979 9.19208 0.560623C10.5002 0.213571 11.8884 0.0533926 13.3567 0.0533926C16.5336 0.0533926 18.8562 0.774193 20.3512 2.2158C21.8194 3.6574 22.5669 5.8465 22.5669 8.78309V17.4327H22.6203ZM11.7816 21.4905C12.6626 21.4905 13.5703 21.3304 14.5314 21.01C15.4924 20.6897 16.3467 20.1023 17.0675 19.3014C17.4946 18.7942 17.815 18.2336 17.9752 17.5929C18.1354 16.9522 18.2421 16.178 18.2421 15.2703V14.1491C17.4679 13.9622 16.6404 13.802 15.7861 13.6952C14.9318 13.5884 14.1042 13.535 13.2766 13.535C11.488 13.535 10.1798 13.8821 9.29887 14.6029C8.41789 15.3237 7.99075 16.3382 7.99075 17.673C7.99075 18.9277 8.31111 19.8621 8.97851 20.5028C9.61923 21.1702 10.5536 21.4905 11.7816 21.4905ZM33.2188 24.3738C32.7382 24.3738 32.4179 24.2937 32.2043 24.1068C31.9908 23.9466 31.8039 23.5729 31.6437 23.0656L25.3701 2.42937C25.2099 1.89544 25.1298 1.54839 25.1298 1.36151C25.1298 0.934372 25.3434 0.694105 25.7705 0.694105H28.3867C28.894 0.694105 29.241 0.774194 29.4279 0.961068C29.6415 1.12125 29.8017 1.49499 29.9618 2.00222L34.4468 19.6752L38.6114 2.00222C38.7449 1.4683 38.9051 1.12125 39.1187 0.961068C39.3322 0.80089 39.706 0.694105 40.1865 0.694105H42.3222C42.8295 0.694105 43.1765 0.774194 43.3901 0.961068C43.6037 1.12125 43.7905 1.49499 43.8973 2.00222L48.1153 19.8888L52.7338 2.00222C52.894 1.4683 53.0809 1.12125 53.2677 0.961068C53.4813 0.80089 53.8284 0.694105 54.3089 0.694105H56.7916C57.2188 0.694105 57.459 0.907675 57.459 1.36151C57.459 1.49499 57.4324 1.62848 57.4057 1.78865C57.379 1.94883 57.3256 2.1624 57.2188 2.45606L50.785 23.0923C50.6248 23.6263 50.4379 23.9733 50.2243 24.1335C50.0108 24.2937 49.6637 24.4004 49.2099 24.4004H46.914C46.4068 24.4004 46.0597 24.3204 45.8461 24.1335C45.6326 23.9466 45.4457 23.5996 45.3389 23.0656L41.201 5.8465L37.0898 23.0389C36.9563 23.5729 36.7961 23.9199 36.5825 24.1068C36.3689 24.2937 35.9952 24.3738 35.5147 24.3738H33.2188ZM67.5236 25.0946C66.1354 25.0946 64.7471 24.9344 63.4123 24.614C62.0775 24.2937 61.0364 23.9466 60.3423 23.5462C59.9151 23.3059 59.6215 23.0389 59.5147 22.7987C59.4079 22.5584 59.3545 22.2914 59.3545 22.0512V20.6897C59.3545 20.129 59.5681 19.8621 59.9685 19.8621C60.1287 19.8621 60.2889 19.8888 60.449 19.9422C60.6092 19.9956 60.8495 20.1023 61.1164 20.2091C62.0241 20.6096 63.0119 20.9299 64.053 21.1435C65.1209 21.3571 66.1621 21.4639 67.2299 21.4639C68.9118 21.4639 70.2199 21.1702 71.1276 20.5829C72.0352 19.9956 72.5158 19.1413 72.5158 18.0467C72.5158 17.2992 72.2755 16.6852 71.795 16.178C71.3144 15.6707 70.4068 15.2169 69.0986 14.7898L65.2277 13.5884C63.2789 12.9744 61.8372 12.0667 60.9563 10.8654C60.0753 9.69077 59.6215 8.38265 59.6215 6.99444C59.6215 5.87319 59.8617 4.88543 60.3423 4.03115C60.8228 3.17686 61.4635 2.42937 62.2644 1.84205C63.0653 1.22803 63.973 0.774194 65.0408 0.453838C66.1087 0.133482 67.2299 0 68.4045 0C68.9919 0 69.6059 0.0266963 70.1932 0.106785C70.8072 0.186874 71.3678 0.29366 71.9285 0.400445C72.4624 0.533927 72.9696 0.667408 73.4501 0.827586C73.9307 0.987764 74.3044 1.14794 74.5714 1.30812C74.9451 1.52169 75.2121 1.73526 75.3723 1.97553C75.5325 2.1891 75.6125 2.48276 75.6125 2.85651V4.11123C75.6125 4.67186 75.399 4.96552 74.9985 4.96552C74.785 4.96552 74.4379 4.85873 73.9841 4.64516C72.4624 3.95106 70.7538 3.604 68.8584 3.604C67.3367 3.604 66.1354 3.84427 65.3078 4.3515C64.4802 4.85873 64.053 5.63293 64.053 6.72748C64.053 7.47497 64.32 8.11569 64.8539 8.62292C65.3879 9.13015 66.3756 9.63738 67.7905 10.0912L71.5814 11.2925C73.5035 11.9066 74.8917 12.7608 75.7193 13.8554C76.5469 14.9499 76.9474 16.2047 76.9474 17.5929C76.9474 18.7408 76.7071 19.782 76.2533 20.6897C75.7727 21.5973 75.132 22.3982 74.3044 23.0389C73.4768 23.7063 72.4891 24.1869 71.3411 24.5339C70.1398 24.9077 68.8851 25.0946 67.5236 25.0946Z" fill="#BDC0C2"/>
<path fill-rule="evenodd" clip-rule="evenodd" d="M72.5692 38.069C63.7861 44.5562 51.0252 48 40.053 48C24.676 48 10.8206 42.3137 0.3556 32.8632C-0.471987 32.1157 0.275511 31.1012 1.26327 31.6885C12.5825 38.2558 26.5447 42.2336 40.9874 42.2336C50.7316 42.2336 61.4368 40.2047 71.2878 36.04C72.7561 35.3726 74.0108 37.0011 72.5692 38.069Z" fill="#BDC0C2"/>
<path fill-rule="evenodd" clip-rule="evenodd" d="M76.2266 33.9043C75.1053 32.4627 68.805 33.2102 65.9485 33.5573C65.0942 33.6641 64.9607 32.9166 65.7349 32.356C70.7538 28.832 79.003 29.8465 79.9641 31.0211C80.9251 32.2225 79.6971 40.4716 74.9985 44.4227C74.2777 45.0367 73.5836 44.7164 73.904 43.9155C74.9718 41.2725 77.3478 35.3192 76.2266 33.9043Z" fill="#BDC0C2"/>
</svg>
