<svg width="186" height="48" viewBox="0 0 186 48" fill="none" xmlns="http://www.w3.org/2000/svg">
<path d="M48.7467 36.3409V0H54.4058V14.3182C56.1785 11.6591 58.8376 10.3636 62.383 10.3636C65.383 10.3636 67.7694 11.25 69.4058 13.0227C71.0421 14.7955 71.8603 17.3182 71.8603 20.5227V36.3409H66.2012V21.3409C66.2012 17.1818 64.3603 15.1364 60.6785 15.1364C58.8376 15.1364 57.3376 15.6818 56.1103 16.8409C54.9512 17.9318 54.3376 19.5 54.3376 21.5455V36.4091L48.7467 36.3409Z" fill="#BDC0C2"/>
<path d="M98.5897 33.204C96.067 35.7267 92.9306 36.954 89.1124 36.954C85.2943 36.954 82.1579 35.7267 79.6352 33.204C77.1124 30.6813 75.817 27.4767 75.817 23.6586C75.817 19.7722 77.1124 16.6358 79.6352 14.1131C82.1579 11.5904 85.2943 10.3631 89.1124 10.3631C92.9306 10.3631 96.067 11.5904 98.5897 14.1131C101.112 16.6358 102.34 19.7722 102.34 23.6586C102.34 27.5449 101.112 30.7495 98.5897 33.204ZM83.7943 30.0676C85.1579 31.6358 86.9306 32.454 89.1806 32.454C91.4306 32.454 93.2033 31.6358 94.567 30.0676C95.9306 28.4995 96.6124 26.3858 96.6124 23.6586C96.6124 20.9995 95.9306 18.8858 94.567 17.3176C93.2033 15.7495 91.4306 14.9313 89.2488 14.9313C86.9988 14.9313 85.2261 15.6813 83.8624 17.2495C82.4988 18.8176 81.817 20.9313 81.817 23.5904C81.7488 26.3176 82.4306 28.4995 83.7943 30.0676Z" fill="#BDC0C2"/>
<path d="M115.43 37.0225C110.248 37.0225 107.657 34.227 107.657 28.6361V15.7497H103.702V10.977H107.793L109.089 3.47701H113.316V10.977H123.407V15.7497H113.316V28.4316C113.316 30.7497 114.202 31.9088 115.907 31.9088C117.543 31.9088 118.975 30.477 120.27 27.5452L124.634 29.7952C122.452 34.6361 119.384 37.0225 115.43 37.0225Z" fill="#BDC0C2"/>
<path d="M126.409 48C123.886 48 121.841 47.3182 120.204 45.8864L122.318 41.4545C123.341 42.6136 124.432 43.2273 125.591 43.2273C127.159 43.2273 127.977 42.2046 127.977 40.2273V10.9773H133.636V40.2273C133.636 42.9546 132.954 44.9318 131.591 46.0909C130.227 47.3864 128.523 48 126.409 48ZM130.773 6.68182C129.818 6.68182 128.932 6.34091 128.25 5.72727C127.909 5.38636 127.636 5.04546 127.5 4.63637C127.295 4.22727 127.227 3.75 127.295 3.34091C127.295 2.86364 127.364 2.45455 127.568 2.04545C127.773 1.63636 127.977 1.22727 128.318 0.954547C129 0.34091 129.886 0 130.841 0C131.795 0 132.682 0.34091 133.364 0.954547C133.704 1.29546 133.977 1.63636 134.114 2.04545C134.318 2.45455 134.386 2.93182 134.386 3.34091C134.386 3.81818 134.318 4.22727 134.114 4.63637C133.909 5.04546 133.704 5.38636 133.364 5.72727C133.023 6.06818 132.614 6.27273 132.204 6.47727C131.727 6.61364 131.25 6.75 130.773 6.68182Z" fill="#BDC0C2"/>
<path d="M147.613 37.0233C144.75 37.0233 142.364 36.2733 140.591 34.8414C138.818 33.4096 137.932 31.4323 137.932 29.046C137.932 26.796 138.886 24.9551 140.727 23.3869C142.568 21.8187 144.954 21.0687 147.75 21.0687C150.614 21.0687 153.068 22.0233 155.045 23.8642V20.796C155.045 18.9551 154.568 17.5914 153.682 16.5687C152.727 15.546 151.432 15.0687 149.727 15.0687C146.25 15.0687 144.136 16.8414 143.318 20.3187L138.136 19.2278C138.818 16.5005 140.182 14.3869 142.295 12.8187C144.341 11.2505 146.932 10.4324 150 10.4324C153.341 10.4324 156 11.3187 157.909 13.0914C159.818 14.8642 160.841 17.4551 160.841 20.796V36.4096H155.318V33.2051C153.409 35.7278 150.886 37.0233 147.613 37.0233ZM148.704 32.796C151.227 32.796 153.341 31.5687 155.113 29.046V28.2278C153.341 26.1142 151.227 25.0914 148.704 25.0914C147.273 25.0914 146.045 25.4324 145.159 26.1824C144.75 26.5233 144.409 26.9324 144.136 27.4096C143.932 27.8869 143.795 28.4323 143.795 28.9778C143.795 29.5233 143.864 30.0687 144.136 30.546C144.341 31.0233 144.682 31.4323 145.159 31.7733C145.977 32.4551 147.204 32.796 148.704 32.796Z" fill="#BDC0C2"/>
<path d="M166.227 36.3412V10.9775H171.75V15.3412C173.113 12.1366 175.568 10.5003 178.977 10.5003C181.023 10.5003 182.659 11.1821 184.023 12.4775C185.386 13.773 186 15.6139 186 17.7957C186 19.1594 185.727 20.4548 185.318 21.7503L180.136 21.2048C180.273 20.523 180.341 19.8412 180.341 19.0912C180.341 16.5003 179.25 15.1366 177.068 15.1366C175.636 15.1366 174.341 15.8866 173.386 17.4548C172.364 19.023 171.886 21.0684 171.886 23.5912V36.2048H166.227V36.3412Z" fill="#BDC0C2"/>
<path d="M13.4977 14.8636C17.725 12.5455 23.4523 9.34091 23.4523 0H16.4296C16.4296 5.18182 13.9068 6.61364 10.0205 8.72727C5.79319 11.0455 0.065918 14.25 0.065918 23.5909H7.02046C7.08865 18.4091 9.61137 17.0455 13.4977 14.8636Z" fill="#BDC0C2"/>
<path d="M25.5649 12.7495C25.5649 17.9313 23.0421 19.3631 19.1558 21.4767C14.9285 23.7949 9.20122 26.9995 9.20122 36.3404H16.1558C16.1558 31.1586 18.6785 29.7267 22.5649 27.6131C26.7921 25.2949 32.5194 22.0904 32.5194 12.7495H25.5649Z" fill="#BDC0C2"/>
</svg>
