<svg width="8" height="48" viewBox="0 0 8 48" fill="none" xmlns="http://www.w3.org/2000/svg">
<path d="M-143.415 7.94699V21.4806H-155.848V7.94699H-161.747V40.2535H-155.847V27.1591H-143.417V40.2535H-137.515V7.94699H-143.415ZM-118.628 29.8115C-118.628 31.1064 -119.143 32.3483 -120.058 33.2639C-120.974 34.1796 -122.216 34.694 -123.511 34.694C-124.806 34.694 -126.048 34.1796 -126.963 33.2639C-127.879 32.3483 -128.393 31.1064 -128.393 29.8115V15.9729H-133.99V29.8115C-133.99 32.5881 -132.887 35.251 -130.924 37.2143C-128.961 39.1777 -126.298 40.2807 -123.521 40.2807C-120.745 40.2807 -118.082 39.1777 -116.118 37.2143C-114.155 35.251 -113.052 32.5881 -113.052 29.8115V15.9729H-118.628V29.8115ZM-77.1556 17.3989C-77.1556 14.5613 -75.2793 13.6622 -73.2241 13.6622C-71.5666 13.6622 -69.3788 14.9238 -67.9464 16.4536L-64.2816 12.1324C-66.1116 9.65725 -69.8228 7.94699 -72.8616 7.94699C-78.9346 7.94699 -83.326 11.5032 -83.326 17.3989C-83.326 28.3376 -69.9569 24.866 -69.9569 30.9884C-69.9569 32.8759 -71.7901 34.5431 -73.8884 34.5431C-77.1988 34.5431 -78.2719 32.9254 -79.7921 31.2136L-83.861 35.4437C-81.258 38.6375 -78.0483 40.2599 -74.2046 40.2599C-68.4351 40.2599 -63.7945 36.6605 -63.7945 31.0331C-63.7945 18.8904 -77.1652 22.6639 -77.1652 17.3989M5.5533 35.0924C2.24615 35.0924 1.30559 33.6616 1.30559 31.4707V21.7696H6.44756V16.8544H1.30559V10.3695L-4.36974 12.9165V32.6763C-4.36974 37.7304 -0.882141 40.2775 3.89893 40.2775C4.64946 40.2902 5.39999 40.2296 6.13776 40.0986L7.52225 35.0014C6.89787 35.0445 6.18086 35.0876 5.5533 35.0876M-97.3227 16.1342C-100.095 16.1342 -102.03 16.939 -103.902 18.7739V8.14021H-109.507V27.8505C-109.507 35.2281 -104.173 40.2839 -98.1786 40.2839C-91.5292 40.2839 -85.6798 35.1387 -85.6798 28.2114C-85.6798 21.3704 -91.0629 16.139 -97.3227 16.139M-97.3578 34.6421C-98.1932 34.6421 -99.0204 34.4775 -99.7921 34.1579C-100.564 33.8382 -101.265 33.3696 -101.856 32.7789C-102.447 32.1882 -102.915 31.487 -103.235 30.7152C-103.554 29.9434 -103.719 29.1163 -103.719 28.2809C-103.719 27.4455 -103.554 26.6183 -103.235 25.8466C-102.915 25.0748 -102.447 24.3735 -101.856 23.7829C-101.265 23.1922 -100.564 22.7236 -99.7921 22.4039C-99.0204 22.0842 -98.1932 21.9197 -97.3578 21.9197C-95.6707 21.9197 -94.0527 22.5899 -92.8598 23.7829C-91.6668 24.9758 -90.9966 26.5938 -90.9966 28.2809C-90.9966 29.968 -91.6668 31.586 -92.8598 32.7789C-94.0527 33.9719 -95.6707 34.6421 -97.3578 34.6421ZM-36.4495 27.9176C-36.4495 20.9775 -42.2861 15.8452 -48.9483 15.8452C-54.9414 15.8452 -60.2766 20.8993 -60.2766 28.2785V48H-54.6715V37.352C-52.8032 39.1836 -50.8646 39.9916 -48.0956 39.9916C-41.8358 39.9916 -36.4495 34.7602 -36.4495 27.9176ZM-41.7575 27.8473C-41.7575 29.5344 -42.4277 31.1524 -43.6207 32.3454C-44.8137 33.5383 -46.4316 34.2085 -48.1187 34.2085C-49.8058 34.2085 -51.4238 33.5383 -52.6168 32.3454C-53.8097 31.1524 -54.4799 29.5344 -54.4799 27.8473C-54.4799 26.1602 -53.8097 24.5423 -52.6168 23.3493C-51.4238 22.1563 -49.8058 21.4862 -48.1187 21.4862C-46.4316 21.4862 -44.8137 22.1563 -43.6207 23.3493C-42.4277 24.5423 -41.7575 26.1602 -41.7575 27.8473Z" fill="#BDC0C2"/>
<path d="M-18.3346 15.5728V9.94059C-17.5903 9.59274 -16.9601 9.04066 -16.5174 8.3486C-16.0747 7.65654 -15.8376 6.85297 -15.8338 6.03142V5.90208C-15.8338 3.50675 -17.7757 1.56494 -20.171 1.56494H-20.3003C-21.4506 1.56494 -22.5538 2.02189 -23.3672 2.83526C-24.1805 3.64863 -24.6375 4.7518 -24.6375 5.90208V6.03142C-24.6337 6.85297 -24.3966 7.65654 -23.9539 8.3486C-23.5112 9.04066 -22.881 9.59274 -22.1367 9.94059V15.5728C-24.2758 15.9003 -26.2905 16.7873 -27.9765 18.1438L-43.4232 6.11286C-43.313 5.71524 -43.2555 5.30644 -43.2491 4.89604C-43.2472 3.92946 -43.5321 2.98402 -44.0676 2.17933C-44.6031 1.37463 -45.3652 0.746831 -46.2575 0.37533C-47.1498 0.00382918 -48.1323 -0.0946791 -49.0807 0.0922655C-50.029 0.27921 -50.9006 0.743209 -51.5852 1.42557C-52.2698 2.10793 -52.7366 2.978 -52.9267 3.92572C-53.1167 4.87344 -53.0214 5.85623 -52.6528 6.74978C-52.2842 7.64334 -51.659 8.40751 -50.856 8.94563C-50.0531 9.48375 -49.1086 9.77166 -48.142 9.77292C-47.2964 9.76894 -46.4666 9.54318 -45.7355 9.1182L-30.5252 20.9543C-31.8916 23.0185 -32.6044 25.4465 -32.5708 27.9218C-32.5372 30.3971 -31.7587 32.8048 -30.3367 34.8312L-34.9629 39.459C-35.3369 39.3394 -35.7265 39.2759 -36.1191 39.2705C-36.9125 39.2712 -37.6879 39.507 -38.3473 39.9482C-39.0068 40.3894 -39.5206 41.0161 -39.824 41.7493C-40.1273 42.4824 -40.2065 43.289 -40.0516 44.0672C-39.8966 44.8453 -39.5145 45.5601 -38.9535 46.1211C-38.3924 46.6821 -37.6777 47.0643 -36.8995 47.2192C-36.1214 47.3741 -35.3148 47.2949 -34.5816 46.9916C-33.8485 46.6883 -33.2217 46.1744 -32.7805 45.515C-32.3393 44.8555 -32.1035 44.0801 -32.1029 43.2867C-32.108 42.8941 -32.1716 42.5045 -32.2913 42.1306L-27.7147 37.5523C-26.2222 38.7013 -24.4866 39.4934 -22.6408 39.868C-20.795 40.2425 -18.8879 40.1896 -17.0656 39.7133C-15.2434 39.237 -13.5544 38.3499 -12.1279 37.12C-10.7015 35.8901 -9.57545 34.35 -8.83617 32.6177C-8.09688 30.8854 -7.76392 29.0068 -7.86279 27.126C-7.96165 25.2451 -8.48973 23.4118 -9.40657 21.7666C-10.3234 20.1213 -11.6046 18.7077 -13.1522 17.6342C-14.6997 16.5606 -16.4724 15.8554 -18.3346 15.5728ZM-20.2317 34.0966C-21.0775 34.1199 -21.9194 33.9734 -22.7076 33.6658C-23.4959 33.3582 -24.2145 32.8957 -24.821 32.3057C-25.4274 31.7157 -25.9095 31.0101 -26.2387 30.2306C-26.5679 29.4511 -26.7375 28.6135 -26.7375 27.7674C-26.7375 26.9213 -26.5679 26.0837 -26.2387 25.3042C-25.9095 24.5247 -25.4274 23.8191 -24.821 23.2291C-24.2145 22.6391 -23.4959 22.1766 -22.7076 21.869C-21.9194 21.5614 -21.0775 21.4149 -20.2317 21.4381C-18.5923 21.4956 -17.0393 22.1869 -15.8996 23.3667C-14.7598 24.5464 -14.1225 26.1224 -14.1216 27.7627C-14.1208 29.403 -14.7566 30.9797 -15.8951 32.1606C-17.0336 33.3414 -18.586 34.0344 -20.2253 34.0934" fill="#BDC0C2"/>
</svg>
