<svg width="307" height="48" viewBox="0 0 307 48" fill="none" xmlns="http://www.w3.org/2000/svg">
<path d="M36.3041 12.5863H38.0363L42.9732 7.64944L43.2157 5.55343C40.3876 3.05719 36.9697 1.32315 33.285 0.515092C29.6004 -0.292964 25.7705 -0.148349 22.1573 0.935274C18.5441 2.0189 15.2667 4.00575 12.6349 6.70816C10.003 9.41057 8.10352 12.7393 7.11583 16.3799C7.66582 16.1545 8.27507 16.1179 8.84807 16.276L18.7218 14.6477C18.7218 14.6477 19.2242 13.8162 19.484 13.8682C21.5997 11.5447 24.5234 10.1177 27.6568 9.8794C30.7901 9.6411 33.896 10.6095 36.3387 12.5863H36.3041Z" fill="#BDC0C2"/>
<path d="M50.0093 16.3781C48.8746 12.1993 46.5447 8.44257 43.3056 5.56888L36.3766 12.4978C37.8207 13.6778 38.978 15.1702 39.7611 16.8626C40.5443 18.555 40.933 20.4032 40.8978 22.2677V23.4976C41.7076 23.4976 42.5095 23.6571 43.2577 23.967C44.0059 24.2769 44.6857 24.7311 45.2583 25.3038C45.831 25.8764 46.2852 26.5562 46.5951 27.3044C46.905 28.0526 47.0645 28.8545 47.0645 29.6643C47.0645 30.4742 46.905 31.2761 46.5951 32.0243C46.2852 32.7725 45.831 33.4523 45.2583 34.0249C44.6857 34.5975 44.0059 35.0518 43.2577 35.3617C42.5095 35.6716 41.7076 35.8311 40.8978 35.8311H28.5642L27.3343 37.0783V44.475L28.5642 45.7049H40.8978C44.3419 45.7317 47.7031 44.6492 50.4843 42.6176C53.2655 40.586 55.319 37.7132 56.3409 34.4241C57.3628 31.135 57.2989 27.6043 56.1586 24.3543C55.0183 21.1043 52.8623 18.3077 50.0093 16.3781Z" fill="#BDC0C2"/>
<path d="M16.2036 45.6379H28.5371V35.7641H16.2036C15.3249 35.7639 14.4565 35.5749 13.6572 35.2098L11.925 35.7468L6.95343 40.6837L6.52037 42.4159C9.30829 44.5211 12.7101 45.6531 16.2036 45.6379Z" fill="#BDC0C2"/>
<path d="M16.2128 13.6077C12.871 13.6276 9.61887 14.6908 6.91065 16.6488C4.20243 18.6067 2.17337 21.3617 1.10685 24.5288C0.04034 27.6959 -0.0103611 31.117 0.961832 34.3143C1.93403 37.5117 3.88056 40.3255 6.52957 42.3628L13.6837 35.2087C12.7746 34.7979 11.9787 34.1728 11.3643 33.3868C10.7498 32.6008 10.3353 31.6775 10.1562 30.6961C9.97706 29.7147 10.0387 28.7045 10.3359 27.7521C10.633 26.7998 11.1567 25.9337 11.8622 25.2283C12.5676 24.5229 13.4336 23.9991 14.386 23.702C15.3383 23.4048 16.3486 23.3432 17.33 23.5223C18.3114 23.7014 19.2347 24.116 20.0207 24.7304C20.8066 25.3448 21.4318 26.1407 21.8426 27.0498L28.9967 19.8957C27.4951 17.9326 25.5598 16.3436 23.342 15.2527C21.1243 14.1619 18.6843 13.5988 16.2128 13.6077Z" fill="#BDC0C2"/>
<path d="M89.904 38.7437C87.7805 38.7708 85.6734 38.3689 83.709 37.5623C81.7445 36.7557 79.963 35.5608 78.4712 34.0494C76.9325 32.602 75.7114 30.8507 74.8854 28.9064C74.0594 26.9621 73.6465 24.8674 73.6729 22.7551C73.6476 20.643 74.0609 18.5486 74.8869 16.6045C75.7128 14.6604 76.9334 12.9089 78.4712 11.4609C79.9557 9.9338 81.7339 8.72293 83.6987 7.90127C85.6635 7.07961 87.7744 6.66416 89.904 6.67996C91.9332 6.65291 93.9476 7.02949 95.83 7.7878C97.7124 8.54612 99.4253 9.67104 100.869 11.0972L97.7857 14.2325C95.6741 12.1919 92.8402 11.0707 89.904 11.1145C88.3809 11.0958 86.8705 11.3941 85.4689 11.9906C84.0673 12.587 82.8051 13.4685 81.7625 14.579C80.6789 15.654 79.8241 16.9371 79.2496 18.3512C78.675 19.7653 78.3926 21.281 78.4193 22.8071C78.4066 24.3158 78.6958 25.8118 79.27 27.207C79.8441 28.6023 80.6916 29.8685 81.7625 30.9313C83.9076 33.0691 86.8024 34.2852 89.8307 34.3208C92.8589 34.3563 95.7815 33.2086 97.9763 31.1219C99.335 29.6339 100.169 27.7415 100.349 25.7346H89.956V21.3001H104.663C104.807 22.1932 104.865 23.0981 104.836 24.0024C104.927 25.8739 104.638 27.7445 103.986 29.5012C103.334 31.2578 102.333 32.864 101.042 34.2226C99.6076 35.7164 97.8741 36.8911 95.955 37.6701C94.0358 38.4491 91.974 38.8149 89.904 38.7437ZM124.098 35.7989C122.125 37.6908 119.496 38.7471 116.762 38.7471C114.028 38.7471 111.4 37.6908 109.426 35.7989C108.444 34.8464 107.67 33.7001 107.154 32.4328C106.639 31.1654 106.392 29.8047 106.43 28.4369C106.393 27.0692 106.64 25.7088 107.156 24.4416C107.672 23.1744 108.445 22.028 109.426 21.0749C111.402 19.1869 114.03 18.1333 116.762 18.1333C119.495 18.1333 122.123 19.1869 124.098 21.0749C125.08 22.028 125.853 23.1744 126.369 24.4416C126.885 25.7088 127.132 27.0692 127.095 28.4369C127.131 29.806 126.881 31.1675 126.362 32.4349C125.843 33.7023 125.067 34.8479 124.081 35.7989H124.098ZM112.666 32.9061C113.191 33.4667 113.825 33.9136 114.53 34.2192C115.234 34.5247 115.994 34.6823 116.762 34.6823C117.53 34.6823 118.29 34.5247 118.995 34.2192C119.7 33.9136 120.334 33.4667 120.859 32.9061C121.432 32.3145 121.88 31.6142 122.177 30.8467C122.475 30.0791 122.616 29.2597 122.591 28.4369C122.617 27.6113 122.477 26.7889 122.179 26.0184C121.882 25.2478 121.433 24.5446 120.859 23.9504C120.327 23.3955 119.689 22.9539 118.982 22.6523C118.274 22.3507 117.514 22.1952 116.745 22.1952C115.976 22.1952 115.216 22.3507 114.509 22.6523C113.802 22.9539 113.163 23.3955 112.631 23.9504C112.057 24.5446 111.608 25.2478 111.311 26.0184C111.013 26.7889 110.873 27.6113 110.899 28.4369C110.877 29.261 111.02 30.081 111.321 30.8487C111.621 31.6163 112.073 32.3159 112.648 32.9061H112.666ZM146.652 35.7989C144.679 37.6908 142.05 38.7471 139.316 38.7471C136.582 38.7471 133.954 37.6908 131.98 35.7989C130.998 34.8464 130.224 33.7001 129.708 32.4328C129.192 31.1654 128.945 29.8047 128.983 28.4369C128.947 27.0692 129.194 25.7088 129.71 24.4416C130.226 23.1744 130.999 22.028 131.98 21.0749C133.954 19.1829 136.582 18.1267 139.316 18.1267C142.05 18.1267 144.679 19.1829 146.652 21.0749C147.634 22.028 148.407 23.1744 148.923 24.4416C149.438 25.7088 149.686 27.0692 149.649 28.4369C149.687 29.8047 149.44 31.1654 148.924 32.4328C148.408 33.7001 147.635 34.8464 146.652 35.7989ZM135.219 32.9061C135.744 33.4667 136.379 33.9136 137.084 34.2192C137.788 34.5247 138.548 34.6823 139.316 34.6823C140.084 34.6823 140.844 34.5247 141.549 34.2192C142.253 33.9136 142.888 33.4667 143.413 32.9061C143.985 32.3145 144.434 31.6142 144.731 30.8467C145.029 30.0791 145.169 29.2597 145.145 28.4369C145.171 27.6113 145.031 26.7889 144.733 26.0184C144.436 25.2478 143.987 24.5446 143.413 23.9504C142.881 23.3955 142.242 22.9539 141.535 22.6523C140.828 22.3507 140.068 22.1952 139.299 22.1952C138.53 22.1952 137.769 22.3507 137.062 22.6523C136.355 22.9539 135.717 23.3955 135.185 23.9504C134.611 24.5446 134.162 25.2478 133.865 26.0184C133.567 26.7889 133.427 27.6113 133.453 28.4369C133.431 29.261 133.574 30.081 133.875 30.8487C134.175 31.6163 134.627 32.3159 135.202 32.9061H135.219ZM161.48 47.9939C159.404 48.0599 157.368 47.4118 155.712 46.1577C154.241 45.0523 153.083 43.5839 152.351 41.8964L156.301 40.2508C156.731 41.2593 157.403 42.1459 158.258 42.8318C159.174 43.5697 160.322 43.9567 161.498 43.9231C162.243 43.9685 162.989 43.8527 163.686 43.5836C164.382 43.3146 165.012 42.8987 165.534 42.3641C166.577 41.1052 167.093 39.491 166.971 37.8603V36.3706H166.815C166.155 37.1546 165.322 37.7741 164.381 38.18C163.44 38.5859 162.417 38.767 161.394 38.7091C160.093 38.713 158.806 38.4472 157.613 37.9284C156.421 37.4096 155.348 36.6491 154.465 35.695C153.506 34.7484 152.749 33.6172 152.239 32.3696C151.73 31.122 151.48 29.7842 151.502 28.4369C151.479 27.0818 151.729 25.7357 152.238 24.4796C152.747 23.2235 153.504 22.0831 154.465 21.1268C155.346 20.1687 156.417 19.4044 157.61 18.8826C158.803 18.3607 160.092 18.0926 161.394 18.0954C162.495 18.0935 163.584 18.3361 164.581 18.8056C165.443 19.1822 166.212 19.7441 166.833 20.4513H166.989V18.8056H171.285V37.254C171.398 38.7134 171.212 40.1805 170.738 41.5655C170.265 42.9505 169.513 44.2243 168.53 45.3089C167.594 46.2046 166.488 46.9037 165.277 47.3648C164.066 47.826 162.775 48.0399 161.48 47.9939ZM161.792 34.6903C162.532 34.7065 163.266 34.5598 163.942 34.2604C164.619 33.961 165.221 33.5164 165.707 32.958C166.776 31.7332 167.339 30.1481 167.283 28.5235C167.347 26.8715 166.784 25.2564 165.707 24.0024C165.222 23.4431 164.62 22.9978 163.943 22.6983C163.266 22.3989 162.532 22.2527 161.792 22.2701C161.032 22.2545 160.278 22.4009 159.579 22.6996C158.88 22.9983 158.252 23.4424 157.739 24.0024C156.593 25.2113 155.97 26.8236 156.006 28.4889C155.989 29.3057 156.133 30.118 156.43 30.879C156.727 31.64 157.172 32.3348 157.739 32.9234C158.25 33.4888 158.876 33.9388 159.575 34.2434C160.274 34.5481 161.03 34.7004 161.792 34.6903ZM178.924 7.84056V38.1201H174.403V7.84056H178.924ZM191.327 38.7437C189.973 38.7785 188.626 38.5334 187.371 38.0237C186.116 37.514 184.98 36.7507 184.034 35.7816C183.074 34.8196 182.319 33.6725 181.816 32.4099C181.313 31.1473 181.071 29.7956 181.106 28.4369C181.055 27.0748 181.279 25.7164 181.764 24.4426C182.249 23.1689 182.986 22.0058 183.93 21.0229C184.82 20.0848 185.896 19.343 187.089 18.8448C188.282 18.3467 189.566 18.1032 190.859 18.1301C192.048 18.1175 193.227 18.3474 194.323 18.8056C195.312 19.2044 196.212 19.7929 196.974 20.5379C197.628 21.1694 198.209 21.8725 198.706 22.6339C199.108 23.2768 199.45 23.9552 199.728 24.6606L200.196 25.8385L186.338 31.5376C186.757 32.5006 187.458 33.3139 188.349 33.8705C189.239 34.4272 190.277 34.7009 191.327 34.6556C192.348 34.6584 193.352 34.3966 194.241 33.8957C195.131 33.3947 195.875 32.6718 196.402 31.7974L199.867 34.136C198.982 35.4009 197.851 36.4734 196.541 37.2886C194.982 38.2732 193.17 38.7791 191.327 38.7437ZM185.541 28.1251L194.757 24.2968C194.473 23.6218 193.965 23.0652 193.319 22.7205C192.595 22.312 191.776 22.1027 190.946 22.1142C189.536 22.1507 188.197 22.7421 187.221 23.7598C186.637 24.3189 186.184 25 185.893 25.7546C185.603 26.5092 185.482 27.3186 185.541 28.1251Z" fill="#BDC0C2"/>
<path d="M223.875 38.7426C221.952 38.7758 220.042 38.4201 218.261 37.6969C216.479 36.9737 214.861 35.8978 213.506 34.534C212.15 33.1701 211.084 31.5464 210.371 29.7602C209.658 27.9741 209.314 26.0623 209.359 24.1398C209.314 22.2173 209.658 20.3055 210.371 18.5194C211.084 16.7332 212.15 15.1095 213.506 13.7456C214.861 12.3818 216.479 11.3059 218.261 10.5827C220.042 9.85951 221.952 9.50383 223.875 9.53702C225.821 9.47617 227.756 9.85587 229.534 10.6478C231.313 11.4396 232.89 12.6232 234.147 14.1101L231.653 16.5353C230.73 15.3745 229.546 14.4479 228.197 13.8308C226.849 13.2138 225.374 12.9237 223.892 12.9842C222.466 12.952 221.048 13.2086 219.723 13.7385C218.398 14.2684 217.194 15.0606 216.184 16.0676C215.133 17.1243 214.312 18.3868 213.772 19.776C213.233 21.1651 212.986 22.6508 213.048 24.1398C212.986 25.6288 213.233 27.1145 213.772 28.5036C214.312 29.8928 215.133 31.1553 216.184 32.212C217.194 33.219 218.398 34.0112 219.723 34.5411C221.048 35.071 222.466 35.3276 223.892 35.2954C225.548 35.314 227.186 34.9592 228.686 34.2574C230.185 33.5557 231.507 32.525 232.553 31.242L235.048 33.7364C233.742 35.2982 232.102 36.5472 230.249 37.3914C228.253 38.3134 226.074 38.7751 223.875 38.7426Z" fill="#BDC0C2"/>
<path d="M241.753 38.1188H238.167V10.1431H241.753V38.1188Z" fill="#BDC0C2"/>
<path d="M247.601 21.281C249.48 19.4151 252.021 18.3678 254.669 18.3678C257.317 18.3678 259.858 19.4151 261.737 21.281C262.655 22.2511 263.373 23.3933 263.849 24.642C264.325 25.8906 264.549 27.2209 264.508 28.5564C264.549 29.892 264.325 31.2223 263.849 32.4709C263.373 33.7195 262.655 34.8618 261.737 35.8319C259.858 37.6978 257.317 38.7451 254.669 38.7451C252.021 38.7451 249.48 37.6978 247.601 35.8319C246.683 34.8618 245.965 33.7195 245.489 32.4709C245.013 31.2223 244.789 29.892 244.83 28.5564C244.789 27.2209 245.013 25.8906 245.489 24.642C245.965 23.3933 246.683 22.2511 247.601 21.281ZM250.269 33.5799C250.834 34.177 251.515 34.6526 252.27 34.9776C253.025 35.3027 253.838 35.4703 254.66 35.4703C255.482 35.4703 256.296 35.3027 257.051 34.9776C257.806 34.6526 258.487 34.177 259.052 33.5799C259.678 32.9074 260.165 32.1169 260.483 31.2545C260.801 30.392 260.945 29.4749 260.905 28.5564C260.945 27.638 260.801 26.7209 260.483 25.8584C260.165 24.996 259.678 24.2055 259.052 23.5329C258.487 22.9359 257.806 22.4603 257.051 22.1353C256.296 21.8102 255.482 21.6426 254.66 21.6426C253.838 21.6426 253.025 21.8102 252.27 22.1353C251.515 22.4603 250.834 22.9359 250.269 23.5329C249.642 24.2055 249.156 24.996 248.837 25.8584C248.519 26.7209 248.376 27.638 248.416 28.5564C248.38 29.4732 248.528 30.3878 248.849 31.2472C249.17 32.1065 249.659 32.8936 250.286 33.5626L250.269 33.5799Z" fill="#BDC0C2"/>
<path d="M284.38 38.1177H280.916V35.4674H280.812C280.195 36.474 279.323 37.2989 278.283 37.8578C277.204 38.4831 275.979 38.8118 274.732 38.8106C273.719 38.8798 272.704 38.7195 271.762 38.3416C270.821 37.9636 269.976 37.3779 269.293 36.6279C267.98 34.9682 267.321 32.8855 267.439 30.773V18.9937H271.025V30.1147C271.025 33.6831 272.601 35.4674 275.754 35.4674C276.454 35.4892 277.15 35.3434 277.783 35.0421C278.415 34.7408 278.967 34.2927 279.391 33.7351C280.321 32.5572 280.816 31.0953 280.795 29.5951V18.9937H284.38V38.1177Z" fill="#BDC0C2"/>
<path d="M296.553 38.7424C295.336 38.7464 294.133 38.4868 293.027 37.9814C291.921 37.476 290.937 36.7369 290.143 35.8149C288.347 33.8313 287.386 31.2316 287.458 28.5568C287.386 25.882 288.347 23.2822 290.143 21.2987C290.937 20.3767 291.921 19.6375 293.027 19.1322C294.133 18.6268 295.336 18.3672 296.553 18.3712C297.915 18.3497 299.262 18.6714 300.467 19.3066C301.527 19.8398 302.424 20.6474 303.066 21.6452H303.222L303.066 18.9948V10.1431H306.652V38.1188H303.187V35.4684H303.031C302.39 36.4662 301.492 37.2737 300.433 37.8069C299.237 38.4366 297.904 38.7581 296.553 38.7424ZM297.142 35.4684C297.952 35.4802 298.756 35.3195 299.499 34.997C300.243 34.6744 300.91 34.1974 301.455 33.5976C302.673 32.2107 303.295 30.3995 303.187 28.5568C303.295 26.7141 302.673 24.9029 301.455 23.516C300.906 22.9129 300.237 22.4311 299.492 22.1014C298.746 21.7717 297.94 21.6014 297.124 21.6014C296.309 21.6014 295.503 21.7717 294.757 22.1014C294.011 22.4311 293.342 22.9129 292.794 23.516C292.189 24.1981 291.724 24.993 291.427 25.8551C291.13 26.7171 291.005 27.6293 291.061 28.5395C291.005 29.4496 291.13 30.3618 291.427 31.2239C291.724 32.0859 292.189 32.8808 292.794 33.563C293.34 34.1735 294.01 34.6596 294.76 34.9884C295.511 35.3171 296.323 35.4808 297.142 35.4684Z" fill="#BDC0C2"/>
</svg>
