<svg width="129" height="48" viewBox="0 0 129 48" fill="none" xmlns="http://www.w3.org/2000/svg">
<path d="M34.6535 22.6275C34.9803 22.6275 35.307 22.6275 35.6337 22.6275C35.8416 22.182 35.8416 21.5285 35.6337 20.786C35.4258 19.6871 35.0991 18.9446 34.4456 19.0337C33.7922 19.1525 33.7922 20.0138 34.0001 21.1127C34.0892 21.7661 34.3268 22.3008 34.6535 22.6275Z" fill="#BDC0C2"/>
<path d="M28.8911 23.6074C29.3366 23.8153 29.6633 23.9341 29.7524 23.8153C29.8712 23.6965 29.7524 23.6074 29.6336 23.3698C29.4257 22.9243 28.8614 22.5976 28.4456 22.3896C27.3466 21.9441 26.1586 22.0629 25.1785 22.8352C24.8518 23.0431 24.5251 23.3698 24.6439 23.6074C24.6439 23.7262 24.7627 23.7262 24.8518 23.7262C25.0597 23.7262 26.0398 23.2807 27.1387 23.1916C27.7922 23.1619 28.4456 23.3995 28.8911 23.6074Z" fill="#BDC0C2"/>
<path d="M27.9111 24.1421C27.2577 24.2609 26.931 24.4688 26.7231 24.6767C26.5152 24.8846 26.3963 25.0034 26.3963 25.1222V25.241H26.5152C26.634 25.241 26.9607 25.1222 26.9607 25.1222C27.822 24.7955 28.3863 24.7955 28.9209 24.9143C29.2476 24.9143 29.3664 25.0331 29.4555 24.9143C29.4555 24.9143 29.4555 24.7955 29.4555 24.7064C29.4258 24.3797 28.7724 24.053 27.9111 24.1421Z" fill="#BDC0C2"/>
<path d="M28.2368 24.9146C28.4447 24.4691 28.4447 23.489 28.2368 22.7465C28.0289 21.6475 27.7022 20.9941 26.93 20.9941C26.2766 21.1129 26.2766 21.9742 26.4845 23.1623C26.6033 23.9345 26.93 24.3503 27.0191 24.677C27.5834 25.568 27.9101 25.3304 28.2368 24.9146Z" fill="#BDC0C2"/>
<path d="M32.6934 26.1023C33.1389 26.3102 33.5547 26.2211 33.7923 25.8944C33.9111 25.5677 33.6735 25.1222 33.2577 24.9143C32.8122 24.7064 32.3964 24.7955 32.1587 25.1222C31.9211 25.4489 32.2478 25.8944 32.6934 26.1023Z" fill="#BDC0C2"/>
<path d="M35.3961 23.7264C35.0694 23.7264 34.7427 24.0531 34.7427 24.5877C34.7427 25.0332 34.9506 25.449 35.3961 25.449C35.7228 25.449 36.0495 25.1223 36.0495 24.5877C35.9604 24.1422 35.7228 23.7264 35.3961 23.7264Z" fill="#BDC0C2"/>
<path d="M12.3769 32.1913C12.2581 32.0725 12.169 32.0725 12.0502 32.1913C11.9314 32.1913 11.8423 32.1913 11.7235 32.1913C11.5156 32.1913 11.278 32.0725 11.1889 31.8646C11.0998 31.6567 11.0701 31.33 11.1889 30.8845L11.3077 30.6766C11.6344 30.0232 12.0799 29.043 11.5156 28.0629C11.0701 27.2907 10.5354 26.8749 9.76322 26.7561C8.99101 26.6373 8.24849 26.964 7.80298 27.5283C7.03076 28.3896 6.94166 29.4886 7.03076 29.9044C7.03076 30.0232 7.14956 30.1123 7.23866 30.1123C7.35747 30.1123 7.56537 29.9935 7.68417 29.6668V29.548C7.68417 29.34 7.80298 29.1024 8.01088 28.7757C8.21879 28.449 8.54549 28.2411 8.8722 28.2411C9.19891 28.1223 9.64442 28.2411 9.97113 28.449C10.5057 28.7757 10.7433 29.4292 10.5057 30.0826C10.179 30.4093 10.0602 30.9439 10.0602 31.5082C10.179 32.4883 10.8324 32.9338 11.3671 33.0229C11.9017 33.0229 12.3472 32.6962 12.3472 32.4883C12.466 32.3101 12.3769 32.3101 12.3769 32.1913Z" fill="#BDC0C2"/>
<path d="M43.9785 30.3497C43.9785 30.2309 43.8597 29.8151 43.6518 29.1616L43.2063 28.1815C43.9785 27.0826 43.9785 26.0134 43.8597 25.4788C43.7409 24.8253 43.4142 24.1719 42.8796 23.5185C42.345 22.8651 41.0381 22.2117 39.4046 21.7662L38.5433 21.5583C38.5433 21.5583 38.5433 19.4792 38.4245 18.6179C38.4245 17.9645 38.3057 16.9844 37.979 16.0042C37.6523 14.6974 36.9988 13.5094 36.1375 12.7371C38.3057 10.4502 39.7313 7.83652 39.7313 5.66837C39.7313 1.53997 34.6228 0.233138 28.2074 2.8468L26.9006 3.38142C26.9006 3.38142 24.5245 1.00536 24.4057 1.00536C17.3667 -5.2912 -5.11677 19.8059 2.0411 25.8946L3.55584 27.2014C3.11033 28.3003 3.02122 29.4883 3.11033 30.7952C3.31823 32.4287 4.20925 34.0623 5.48638 35.3691C6.79322 36.5571 8.51586 37.3293 10.2682 37.3293C13.0898 43.8635 19.5051 47.7543 26.9897 47.9919C35.0386 48.1998 41.8698 44.3981 44.6913 37.6561C44.8992 37.2105 45.6715 35.0424 45.6715 33.0821C45.8497 31.0922 44.7507 30.3497 43.9785 30.3497ZM10.9513 35.4582C10.7434 35.4582 10.4167 35.577 10.1791 35.4582C7.80304 35.3394 5.07057 33.1712 4.86267 30.5576C4.65476 27.736 6.0507 25.5679 8.66436 25.0035C8.99107 24.8847 9.31778 24.8847 9.76329 24.8847C11.1889 25.0035 13.3571 26.0728 13.8917 29.221C14.3075 32.1911 13.6838 35.0127 10.9513 35.4582ZM8.24855 23.2809C6.61501 23.6076 5.21908 24.4689 4.32806 25.7758C3.79344 25.3303 2.81332 24.4689 2.69452 24.1422C1.26888 21.5286 4.20925 16.3309 6.2883 13.4797C11.278 6.32179 19.2081 0.886556 22.8019 1.83698C23.4553 2.04488 25.4156 4.33184 25.4156 4.33184C25.4156 4.33184 21.7327 6.41089 18.3468 9.23246C13.7729 12.6183 10.2979 17.7269 8.24855 23.2809ZM33.8803 34.3593L33.9991 34.2405C33.9991 34.1217 33.8803 34.1217 33.8803 34.1217C33.8803 34.1217 30.0786 34.6563 26.4848 33.3494C26.9303 32.0426 27.9104 32.4881 29.5143 32.696C32.3358 32.9039 34.9495 32.4881 36.7909 31.9238C38.4245 31.4783 40.5926 30.4982 42.2262 29.221C42.7608 30.4091 42.9984 31.8347 42.9984 31.8347C42.9984 31.8347 43.4439 31.7159 43.7706 31.9535C44.0973 32.1614 44.3052 32.6069 44.2161 33.7058C43.8894 35.874 42.9093 37.5075 41.5134 39.1411C40.652 40.1212 39.4343 40.9825 38.1572 41.6359C37.5038 41.9627 36.7315 42.2894 35.989 42.4973C30.1083 44.3387 24.2572 42.3785 22.4158 37.9234C22.297 37.5966 22.0891 37.2699 22.0891 36.8244C21.3169 33.8841 21.9703 30.4091 24.1681 28.2409C24.2869 28.1221 24.376 27.9142 24.376 27.7063C24.376 27.4984 24.2572 27.3796 24.1681 27.2608C23.3959 26.1619 20.812 24.3204 21.3466 20.7266C21.6733 18.113 23.9602 16.3903 26.0096 16.4794H26.5442C27.4055 16.4794 28.2965 16.6873 28.9203 16.6873C30.1083 16.6873 31.2963 16.5685 32.6031 15.4993C33.0487 15.1726 33.3754 14.8459 34.0288 14.7271C34.1476 14.7271 34.2367 14.6083 34.5634 14.7271C34.8901 14.7271 35.2168 14.8459 35.4247 15.0538C36.5236 15.826 36.6127 17.4299 36.7315 18.7367C36.7315 19.5089 36.8503 21.2315 36.8503 21.6771C36.9691 22.776 37.1771 22.9839 37.8305 23.1918C38.1572 23.3106 38.4839 23.3997 38.9294 23.5185C40.355 23.964 41.2163 24.2907 41.751 24.8253C42.0777 25.152 42.1965 25.4788 42.2856 25.8055C42.4935 26.9935 41.3055 28.5082 38.3651 29.9339C35.098 31.4486 31.2963 31.7753 28.5935 31.4486L27.6134 31.3298C25.4453 31.0031 24.2572 33.8247 25.5344 35.6661C26.3957 36.8541 28.6826 37.7451 30.8508 37.7451C36.0781 37.7451 40.0877 35.577 41.5134 33.6167L41.6322 33.4088C41.751 33.29 41.6322 33.2009 41.5134 33.29C40.3253 34.1514 34.8901 37.4184 29.1282 36.4383C29.1282 36.4383 28.4747 36.3195 27.8213 36.1116C27.2867 35.9037 26.3066 35.4582 26.069 34.3593C30.9399 35.7849 33.8803 34.3593 33.8803 34.3593ZM17.5746 13.5094C19.3269 11.4303 21.5842 9.58886 23.5444 8.60874C23.6632 8.60874 23.6632 8.60875 23.6632 8.72755C23.5444 9.05426 23.2177 9.58887 23.1286 10.0344C23.1286 10.1532 23.2474 10.1532 23.2474 10.1532C24.4354 9.29186 26.6036 8.40083 28.4747 8.31173C28.5935 8.31173 28.5935 8.43054 28.5935 8.43054C28.2668 8.63845 28.0589 8.96515 27.7322 9.29186C27.7322 9.29186 27.7322 9.41066 27.851 9.41066C29.1579 9.41066 30.9993 9.85617 32.1873 10.5987C32.3061 10.5987 32.1873 10.8066 32.0685 10.8066C30.2271 10.3611 27.2867 10.0344 24.1384 10.8066C21.3169 11.46 19.2378 12.5589 17.7231 13.6282C17.5746 13.5985 17.4855 13.5985 17.5746 13.5094Z" fill="#BDC0C2"/>
<path d="M173.086 18.3808C170.384 18.3808 169.166 20.341 168.631 21.5291C168.305 22.3013 168.305 22.5092 168.097 22.5092C167.77 22.5092 167.978 21.8558 168.215 21.2024C168.542 19.7767 168.334 18.7075 168.334 18.7075H164.533V36.9734H169.76V31.2115C170.413 32.3104 171.512 33.3797 173.235 33.3797C177.037 33.3797 178.878 30.2314 178.878 25.8951C178.848 20.9945 176.561 18.3808 173.086 18.3808ZM171.69 29.9047C170.502 29.9047 169.611 28.3899 169.611 26.3109C169.611 24.2318 170.473 22.7171 171.69 22.7171C173.116 22.7171 173.769 24.0239 173.769 26.3109C173.74 28.7166 173.205 29.9047 171.69 29.9047Z" fill="#BDC0C2"/>
<path d="M69.7575 18.3808C67.4706 18.3808 66.4014 20.2222 65.837 21.3212C65.5103 21.9746 65.5103 22.5092 65.1836 22.5092C64.8569 22.5092 65.0648 22.0637 64.8569 21.0836C64.5302 19.7767 63.4313 18.3808 61.174 18.3808C58.798 18.3808 57.6991 20.4598 57.2535 21.5291C56.9268 22.3013 56.9268 22.5092 56.7189 22.5092C56.3922 22.5092 56.6001 21.8558 56.8377 21.2024C57.1644 19.7767 56.9565 18.7075 56.9565 18.7075H53.1548V33.053H58.2634V25.8951C58.2634 24.4694 58.798 22.7468 59.8969 22.7468C61.0849 22.7468 61.3225 23.6081 61.3225 25.2417V33.053H66.5499V25.8951C66.5499 24.5882 67.0845 22.7468 68.1834 22.7468C69.3714 22.7468 69.609 24.0536 69.609 25.2417V32.9638H74.5988V24.4991C74.5394 20.7866 73.2325 18.3808 69.7575 18.3808ZM157.998 18.3808C155.711 18.3808 154.642 20.2222 154.078 21.3212C153.751 21.9746 153.751 22.5092 153.424 22.5092C153.098 22.5092 153.306 21.9746 153.098 21.0836C152.652 19.7767 151.791 18.3808 149.415 18.3808C147.039 18.3808 145.94 20.4598 145.494 21.5291C145.168 22.3013 145.168 22.5092 144.96 22.5092C144.633 22.5092 144.841 21.8558 145.079 21.2024C145.405 19.7767 145.197 18.7075 145.197 18.7075H141.396V33.053H146.623V25.8951C146.623 24.4694 147.158 22.7468 148.257 22.7468C149.445 22.7468 149.682 23.6081 149.682 25.2417V33.053H154.91V25.8951C154.91 24.5882 155.444 22.7468 156.543 22.7468C157.731 22.7468 157.969 24.0536 157.969 25.2417V32.9638H163.077V24.4991C162.78 20.7866 161.473 18.3808 157.998 18.3808ZM83.4496 18.3808C79.44 18.3808 76.5887 19.8064 76.5887 19.8064V24.1427C76.5887 24.1427 79.737 22.3013 82.3507 22.3013C84.4297 22.3013 84.6376 23.4002 84.5188 24.3803C84.5188 24.3803 83.9842 24.2615 82.1427 24.2615C77.8955 24.2615 75.7274 26.2218 75.7274 29.2513C75.7274 32.1916 78.1034 33.3797 80.1825 33.3797C83.1229 33.3797 84.4297 31.4194 84.8455 30.4393C85.1722 29.7859 85.1722 29.3404 85.3801 29.3404C85.7068 29.3404 85.588 29.6671 85.588 30.3205C85.588 31.4194 85.588 32.2807 85.7959 33.0233H89.7461V25.9545C89.6273 21.5291 88.1126 18.3808 83.4496 18.3808ZM82.1427 29.6968C80.9547 30.0235 80.3013 29.578 80.3013 28.8354C80.3013 27.7365 81.4893 27.2019 83.1229 27.2019C83.8951 27.2019 84.5485 27.3207 84.5485 27.3207C84.5188 27.7365 83.4496 29.3701 82.1427 29.6968ZM98.2108 14.3712H103.438V33.053H98.2108C98.2108 32.9639 98.2108 14.3712 98.2108 14.3712ZM109.2 25.8951C109.2 24.5882 110.388 23.4002 112.556 23.4002C114.932 23.4002 116.893 24.5882 117.338 24.8259V19.8064C117.338 19.8064 115.823 18.3808 112.111 18.3808C108.19 18.3808 104.953 20.6678 104.953 25.6575C104.953 30.6472 107.893 33.3797 112.111 33.3797C115.378 33.3797 117.427 31.5382 117.427 31.5382V26.7564C116.774 27.0831 115.051 28.2711 112.645 28.2711C110.061 28.3899 109.2 27.2019 109.2 25.8951ZM127.882 18.3808C124.852 18.3808 123.753 21.2024 123.546 21.737C123.338 22.2716 123.219 22.5092 123.011 22.5092C122.684 22.5092 122.892 21.8558 123.011 21.5291C123.219 20.7569 123.783 18.9154 123.783 16.5394C123.783 14.9058 123.575 14.3712 123.575 14.3712H119.12V33.053H124.347V25.8951C124.347 24.7071 124.793 22.7468 126.1 22.7468C127.199 22.7468 127.525 23.519 127.525 25.1229V33.053H132.753V25.4496C132.545 21.7667 132.01 18.3808 127.882 18.3808ZM134.297 18.7075V33.053H139.525V18.7075C139.525 18.7075 138.663 19.2421 136.911 19.2421C135.159 19.153 134.297 18.7075 134.297 18.7075Z" fill="#BDC0C2"/>
<path d="M136.91 18.2915C138.649 18.2915 140.059 17.3606 140.059 16.2124C140.059 15.0642 138.649 14.1334 136.91 14.1334C135.172 14.1334 133.762 15.0642 133.762 16.2124C133.762 17.3606 135.172 18.2915 136.91 18.2915Z" fill="#BDC0C2"/>
<path d="M91.3806 18.7074V33.0528H96.5782V18.7074C96.5782 18.7074 95.7169 19.242 93.9646 19.242C93.9646 19.1529 91.3806 18.7074 91.3806 18.7074Z" fill="#BDC0C2"/>
<path d="M93.9627 18.2915C95.7014 18.2915 97.111 17.3606 97.111 16.2124C97.111 15.0642 95.7014 14.1334 93.9627 14.1334C92.224 14.1334 90.8144 15.0642 90.8144 16.2124C90.8144 17.3606 92.224 18.2915 93.9627 18.2915Z" fill="#BDC0C2"/>
</svg>
