<svg width="36" height="37" viewBox="0 0 36 37" fill="none" xmlns="http://www.w3.org/2000/svg">
<path d="M34.7666 9.18763C34.7644 9.15207 34.7621 9.11985 34.7599 9.08429C34.731 8.5654 34.3488 8.12985 33.8055 8.12985C33.7933 8.12985 33.781 8.13652 33.7688 8.13763C33.6566 8.08763 33.5344 8.05652 33.4044 8.0554C32.9799 8.04874 32.5599 8.09651 32.1344 8.12096C31.6744 8.1454 31.2133 8.16429 30.751 8.1754C29.8777 8.19763 29.0044 8.18652 28.1333 8.17985C26.1977 8.16874 24.2655 8.17318 22.3321 8.18429C20.4099 8.1954 18.4833 8.19763 16.5644 8.11429C15.5988 8.07096 14.6377 8.0354 13.6721 8.02874C12.7044 8.02429 11.7366 8.01318 10.7677 7.98096C10.1377 7.95651 9.50548 7.95207 8.87104 7.94207C8.21215 7.92874 7.55548 7.89763 6.89437 7.88874C5.54548 7.87096 4.20104 7.83429 2.8577 7.72207C2.83659 7.72096 2.81548 7.71985 2.79437 7.71985C2.53548 7.71985 2.30326 7.85652 2.1377 8.05207C1.79104 8.1954 1.55437 8.53874 1.53881 8.93318C1.52215 9.38429 1.5477 9.83985 1.54993 10.291C1.55437 10.7465 1.56104 11.1998 1.56993 11.6521C1.59437 12.6198 1.64437 13.5832 1.78659 14.5398C1.85659 15.011 1.96659 15.4743 2.06881 15.9365C2.1677 16.3921 2.25437 16.8498 2.33104 17.3087C2.40993 17.7898 2.4977 18.2676 2.64215 18.7365C2.7977 19.2398 3.00326 19.7198 3.23993 20.1876C3.45215 20.6121 3.70437 21.0176 3.93993 21.4265C4.18326 21.851 4.44548 22.2632 4.73659 22.6565C5.33437 23.4643 6.04326 24.2021 6.82548 24.8321C7.59993 25.4576 8.44548 25.9487 9.32104 26.4165C10.221 26.8998 11.1288 27.3487 12.0944 27.691C12.5321 27.8443 12.9766 27.9776 13.421 28.1132C13.8433 28.2443 14.2766 28.3521 14.7166 28.4221C15.7255 28.5821 16.7433 28.7176 17.7655 28.7421C19.7177 28.7921 21.6466 28.5432 23.521 27.9887C24.5433 27.6865 25.541 27.341 26.4933 26.8565C27.4277 26.3821 28.301 25.8232 29.1177 25.1665C29.9033 24.5321 30.6155 23.7832 31.221 22.9776C31.7966 22.2154 32.361 21.4298 32.841 20.6043C33.3621 19.7132 33.8044 18.7743 34.0821 17.7765C34.3321 16.8743 34.4877 15.9554 34.6166 15.0287C34.6933 14.4832 34.7544 13.9365 34.8133 13.3865C34.8633 12.9054 34.8677 12.421 34.8633 11.9354C34.8588 11.0221 34.8177 10.0998 34.7666 9.18763ZM21.041 23.4776C20.5833 23.5332 20.1233 23.5754 19.6621 23.6098C19.6533 23.2243 19.6144 22.8376 19.5821 22.4543C19.5455 22.001 19.4877 21.5498 19.4488 21.0976C19.3633 20.1521 19.3499 19.1954 19.3433 18.2476C19.3344 16.3798 19.3366 14.5154 19.3721 12.6476C19.3799 12.2521 19.3699 11.8576 19.3721 11.4621C19.7888 11.8876 20.1977 12.3187 20.6166 12.7421C20.9366 13.0643 21.2466 13.3943 21.5399 13.7398C21.8133 14.0598 22.0855 14.381 22.3721 14.6876C22.9833 15.3354 23.6199 15.9554 24.2544 16.5787C24.8799 17.1898 25.4844 17.8221 26.0955 18.4487C26.3499 18.7087 26.6055 18.9721 26.8577 19.2343C27.0588 19.4421 27.2788 19.6387 27.471 19.8565C27.4744 19.8632 27.4777 19.8687 27.4799 19.8754C27.4899 19.8976 27.5166 19.9121 27.5299 19.9332C27.5044 19.9687 27.4844 20.0076 27.4588 20.0432C27.0421 20.561 26.5655 21.0132 26.0488 21.431C25.4199 21.8998 24.7688 22.3332 24.0577 22.6654C23.561 22.8632 23.0566 23.0376 22.5455 23.1943C22.0566 23.3432 21.5477 23.4098 21.041 23.4776ZM8.70215 9.78874C9.63437 9.79763 10.5655 9.82207 11.4977 9.84318C12.4721 9.8654 13.4477 9.85874 14.4244 9.86763C15.2044 9.87652 15.9833 9.93096 16.7621 9.97096C15.8444 10.9954 14.8366 11.9354 13.8999 12.9443C13.5999 13.2687 13.2999 13.5921 12.991 13.9076C12.6666 14.2398 12.3099 14.5421 11.9688 14.8554C11.2621 15.4987 10.5433 16.1298 9.82548 16.7621C9.43326 17.1076 9.47326 17.7665 9.82548 18.1199C10.2088 18.501 10.7977 18.4721 11.1821 18.1199C11.9021 17.461 12.6077 16.7821 13.2788 16.0732C13.9066 15.4143 14.5133 14.7354 15.1377 14.0743C15.7488 13.4265 16.4077 12.8287 17.0355 12.1965C17.191 12.0387 17.3421 11.8743 17.4955 11.7132C17.5366 13.0143 17.571 14.3143 17.571 15.6154C17.571 17.5087 17.5799 19.4065 17.731 21.2943C17.7933 22.0832 17.9199 22.8732 17.921 23.6665C17.3544 23.6632 16.7888 23.6432 16.2255 23.5821C15.6821 23.4954 15.1566 23.3598 14.6299 23.2032C14.0799 23.0398 13.5388 22.8665 13.0055 22.6543C12.0821 22.2498 11.2066 21.7543 10.3988 21.1521C9.9577 20.8021 9.53326 20.4276 9.11326 20.0532C8.72659 19.7121 8.39326 19.3032 8.07326 18.8976C7.82215 18.5521 7.61993 18.1821 7.44326 17.7921C7.23437 17.2799 7.03437 16.7643 6.84993 16.2421C6.65548 15.6943 6.52548 15.1287 6.43104 14.5532C6.37993 14.141 6.33548 13.7298 6.30215 13.3143C6.26437 12.8454 6.20326 12.3798 6.16881 11.9087C6.13215 11.4354 6.12215 10.9576 6.1277 10.481C6.13104 10.2398 6.13659 9.9954 6.1477 9.75207C6.99881 9.75429 7.85104 9.77874 8.70215 9.78874ZM32.7777 14.2954C32.5888 15.5987 32.3855 16.931 31.911 18.1654C31.6144 18.8432 31.2755 19.4943 30.8755 20.1154C30.4888 20.7154 30.0799 21.2998 29.6544 21.871C29.3377 22.2532 29.011 22.6243 28.6655 22.981C28.341 23.3154 27.9788 23.6176 27.6155 23.9098C26.7644 24.5298 25.851 25.0343 24.8877 25.4598C24.1633 25.7432 23.4133 25.9565 22.6633 26.171C21.9188 26.3854 21.1655 26.5465 20.401 26.6698C18.9299 26.8443 17.451 26.851 15.981 26.6643C15.2899 26.5665 14.6055 26.4565 13.9366 26.251C13.2299 26.0354 12.5288 25.8098 11.8444 25.5298C11.2066 25.2443 10.5899 24.9221 9.97215 24.5943C9.37326 24.2776 8.79437 23.9332 8.2477 23.531C7.54548 22.9554 6.8877 22.3265 6.31215 21.6232C5.97881 21.1765 5.68659 20.7054 5.39993 20.2254C5.10993 19.7398 4.8177 19.2632 4.57993 18.7532C4.44215 18.3921 4.31326 18.0254 4.22881 17.6498C4.13437 17.2165 4.06437 16.781 3.98326 16.3454C3.83437 15.5576 3.64659 14.7776 3.52548 13.9865C3.43437 13.151 3.41437 12.3132 3.41437 11.4732C3.41437 11.0554 3.41881 10.6387 3.42104 10.221C3.42215 10.0465 3.42104 9.87096 3.42215 9.6954C3.69659 9.70985 3.97104 9.72763 4.24437 9.73429C4.24437 9.95874 4.24881 10.1832 4.25104 10.4065C4.2577 10.8398 4.27104 11.271 4.29215 11.7043C4.31659 12.1598 4.37993 12.611 4.4277 13.061C4.47326 13.501 4.50437 13.941 4.56104 14.3787C4.62437 14.8598 4.69881 15.3376 4.80659 15.8132C4.90548 16.2487 5.05659 16.6665 5.20548 17.0854C5.52548 17.9921 5.84437 18.9265 6.37881 19.7276C6.66326 20.1543 7.01993 20.5598 7.36881 20.9365C7.66215 21.2565 7.99437 21.5321 8.32104 21.8165C8.72548 22.1665 9.13993 22.4976 9.56437 22.821C9.92104 23.0943 10.3066 23.3243 10.6966 23.5498C11.5377 24.0376 12.4388 24.4321 13.3633 24.7343C14.2699 25.0299 15.1933 25.3076 16.1433 25.4087C18.0844 25.6165 20.0644 25.4898 21.9899 25.1987C22.8877 25.0632 23.7721 24.7521 24.6077 24.411C25.501 24.0454 26.2866 23.4998 27.051 22.9154C27.8899 22.2765 28.6188 21.5298 29.1988 20.6432C29.8033 19.7221 30.1821 18.6754 30.5455 17.6376C30.7033 17.1821 30.3677 16.6721 29.9255 16.5498C29.4421 16.4165 28.9933 16.7121 28.8377 17.1698C28.6944 17.5898 28.5555 18.0087 28.3944 18.421C28.2744 18.3032 28.1555 18.1854 28.0355 18.0676C27.7288 17.7676 27.4333 17.4565 27.1333 17.1532C26.5177 16.5287 25.8966 15.9165 25.2766 15.2987C24.6588 14.6821 24.0355 14.071 23.4333 13.4376C23.1244 13.1132 22.8444 12.7654 22.5533 12.4265C22.2866 12.1154 21.9999 11.8221 21.7188 11.5221C21.271 11.0398 20.841 10.5387 20.3921 10.0565C22.2577 10.0676 24.121 10.0687 25.9866 10.0776C27.2566 10.0821 28.5233 10.091 29.7933 10.0887C29.9355 10.0887 30.0777 10.0754 30.2199 10.0721C30.2399 10.6798 30.2621 11.2876 30.2588 11.8954C30.2566 12.5198 30.2644 13.151 30.1988 13.7721C30.1777 13.8954 30.1544 14.0176 30.1277 14.1387C30.0166 14.6287 30.2699 15.1365 30.771 15.2754C31.2633 15.411 31.7644 15.111 31.9077 14.6298C32.1444 13.8332 32.1266 12.9643 32.1199 12.1387C32.1144 11.4221 32.1066 10.7054 32.0888 9.98874C32.251 9.97763 32.4133 9.9654 32.5755 9.9554C32.681 9.94874 32.7855 9.94207 32.8899 9.9354C32.9177 10.4932 32.951 11.051 32.9588 11.6087C32.9655 12.5087 32.8955 13.3987 32.7777 14.2954Z" fill="white"/>
</svg>
