<svg width="37" height="37" viewBox="0 0 37 37" fill="none" xmlns="http://www.w3.org/2000/svg">
<g clip-path="url(#clip0_973_635)">
<path d="M24.2504 27.1807V32.6666L26.8788 33.7606V25.743C26.0532 26.3093 25.1726 26.7909 24.2504 27.1807ZM10.0536 25.743V33.7059L12.682 32.6119V27.1807C11.7599 26.7909 10.8793 26.3093 10.0536 25.743ZM18.4662 28.3478C17.2251 28.3484 15.9887 28.194 14.7859 27.888V36.1677L18.4662 34.636L22.1465 36.1677V27.888C20.9437 28.1939 19.7073 28.3484 18.4662 28.3478ZM18.4662 0.612183C11.3995 0.612183 5.65039 6.36134 5.65039 13.4281C5.65039 20.4948 11.3995 26.2439 18.4662 26.2439C25.5329 26.2439 31.2821 20.4947 31.2821 13.428C31.2821 6.36127 25.5329 0.612183 18.4662 0.612183ZM18.4662 23.5358C12.8639 23.5358 8.30608 18.9779 8.30608 13.3756C8.30608 7.77328 12.8639 3.21544 18.4662 3.21544C24.0685 3.21544 28.6263 7.77328 28.6263 13.3756C28.6263 18.978 24.0685 23.5358 18.4662 23.5358ZM18.4662 5.31926C14.024 5.31926 10.4099 8.93328 10.4099 13.3756C10.4099 17.818 14.024 21.4319 18.4662 21.4319C22.9084 21.4319 26.5225 17.8178 26.5225 13.3756C26.5225 8.93328 22.9085 5.31926 18.4662 5.31926ZM21.7774 18.0774L18.4662 16.3367L15.1551 18.0774L15.7875 14.3905L13.1087 11.7794L16.8107 11.2414L18.4662 7.88682L20.1217 11.2414L23.8238 11.7794L21.145 14.3905L21.7774 18.0774Z" fill="white"/>
</g>
<defs>
<clipPath id="clip0_973_635">
<rect width="35.5556" height="35.5556" fill="white" transform="translate(0.688477 0.612305)"/>
</clipPath>
</defs>
</svg>
