<svg width="278" height="290" viewBox="0 0 278 290" fill="none" xmlns="http://www.w3.org/2000/svg">
<path d="M39.8413 0.741019C15.8337 -0.257906 8.50048 10.7405 9.50037 24.7908L21.5321 252.741H243.858C259.501 252.741 265.591 234.407 262.167 200.459C255.303 132.414 246.928 93.6271 234.442 24.7908C228.146 15.2479 226.777 8.87603 202.008 8.06052L39.8413 0.741019Z" fill="#CFB58C"/>
<path d="M1.26753 225.869L26.2808 37.7604C28.6009 23.4057 32.2675 13.4057 55.2962 9.74421C111.218 4.49768 156.515 3.37805 232.39 0.739014C252.934 0.739014 272.534 9.07235 273.412 37.7604C275.734 113.636 278.179 167.788 277.915 217.364C277.116 239.391 272.213 248.157 254.902 256.887C149.999 276.133 92.5922 286.509 43.2899 289.406C11.6009 289.406 -3.06546 265.739 1.26753 225.869Z" fill="#8B3A2C"/>
</svg>
