<svg width="389" height="386" viewBox="0 0 389 386" fill="none" xmlns="http://www.w3.org/2000/svg">
<path d="M90.857 0.639718C58.8469 -0.692181 49.0693 13.9723 50.4025 32.7061L66.4448 336.64H362.879C383.736 336.64 391.857 312.195 387.291 266.93C378.14 176.204 366.973 124.488 350.324 32.7061C341.93 19.9822 340.105 11.4864 307.08 10.3991L90.857 0.639718Z" fill="#CFB58C"/>
<path d="M1.51325 300.812L34.8643 50.001C37.9577 30.8614 42.8466 17.528 73.5515 12.6461C148.114 5.65072 208.51 4.15787 309.677 0.63916C337.069 0.63916 363.202 11.7503 364.373 50.001C367.469 151.168 370.728 223.371 370.376 289.473C369.311 318.842 362.774 330.529 339.693 342.17C199.822 367.831 123.279 381.666 57.543 385.528C15.291 385.528 -4.26408 353.973 1.51325 300.812Z" fill="#8B3A2C"/>
</svg>
