<svg width="23" height="22" viewBox="0 0 23 22" fill="none" xmlns="http://www.w3.org/2000/svg">
<path d="M21.9043 4.76533C21.1621 5.09422 20.3647 5.31644 19.5265 5.41689C20.3914 4.89937 21.0385 4.08486 21.347 3.12533C20.5344 3.60799 19.6451 3.94773 18.7176 4.12977C18.094 3.46388 17.2679 3.02251 16.3677 2.8742C15.4675 2.72588 14.5435 2.87892 13.7392 3.30956C12.9349 3.74019 12.2952 4.42432 11.9196 5.25573C11.5439 6.08715 11.4532 7.01933 11.6616 7.90755C10.0151 7.82488 8.40442 7.39693 6.93401 6.65147C5.46361 5.90601 4.16638 4.8597 3.12652 3.58044C2.77097 4.19377 2.56652 4.90489 2.56652 5.66222C2.56613 6.34399 2.73402 7.01532 3.05531 7.61665C3.37659 8.21797 3.84133 8.7307 4.4083 9.10933C3.75077 9.08841 3.10775 8.91074 2.53275 8.59111V8.64444C2.53268 9.60066 2.86344 10.5274 3.46891 11.2675C4.07438 12.0077 4.91725 12.5155 5.85453 12.7049C5.24455 12.87 4.60505 12.8943 3.9843 12.776C4.24874 13.5988 4.76385 14.3182 5.45752 14.8337C6.15118 15.3492 6.98867 15.6348 7.85275 15.6507C6.38593 16.8021 4.57442 17.4267 2.70964 17.424C2.37931 17.4241 2.04926 17.4048 1.72119 17.3662C3.61406 18.5833 5.81749 19.2292 8.06786 19.2267C15.6856 19.2267 19.8501 12.9173 19.8501 7.44533C19.8501 7.26755 19.8456 7.088 19.8376 6.91022C20.6477 6.32442 21.3469 5.59902 21.9025 4.768L21.9043 4.76533Z" fill="#010101"/>
</svg>
