<svg width="18" height="17" viewBox="0 0 18 17" fill="none" xmlns="http://www.w3.org/2000/svg">
<path d="M8.11266 1.03856C8.42342 0.08215 9.77648 0.0821495 10.0872 1.03856L11.3141 4.81441C11.4531 5.24213 11.8516 5.53171 12.3014 5.53171H16.2715C17.2772 5.53171 17.6953 6.81855 16.8817 7.40965L13.6698 9.74325C13.3059 10.0076 13.1537 10.4762 13.2927 10.9039L14.5195 14.6797C14.8303 15.6361 13.7356 16.4314 12.9221 15.8404L9.71013 13.5067C9.34629 13.2424 8.85361 13.2424 8.48977 13.5067L5.27784 15.8404C4.46427 16.4314 3.36962 15.6361 3.68038 14.6797L4.90723 10.9039C5.0462 10.4762 4.89396 10.0076 4.53012 9.74325L1.31819 7.40965C0.504618 6.81855 0.922737 5.53171 1.92836 5.53171H5.89853C6.34826 5.53171 6.74684 5.24213 6.88581 4.81441L8.11266 1.03856Z" fill="#FFC107"/>
</svg>
