<svg width="24" height="25" viewBox="0 0 24 25" fill="none" xmlns="http://www.w3.org/2000/svg">
<path d="M11.5143 2.89326C11.8265 2.7689 12.1735 2.7689 12.4857 2.89326C13.4921 3.29405 13.6887 4.83743 14.8762 4.92335C15.7124 4.98385 16.533 4.28676 17.3721 4.49573C17.7105 4.58002 18.0028 4.79578 18.186 5.09656C18.7472 6.01823 18.0229 7.37291 18.9383 8.13767C19.5743 8.66876 20.6251 8.60003 21.178 9.25109C21.4108 9.52533 21.5252 9.88302 21.4953 10.2437C21.4068 11.3166 20.0389 11.9876 20.3395 13.1439C20.5475 13.9443 21.4253 14.507 21.4953 15.3563C21.5252 15.717 21.4108 16.0747 21.178 16.3489C20.4832 17.1669 18.9808 16.8975 18.5476 18.0062C18.2434 18.7844 18.634 19.7677 18.186 20.5034C18.0028 20.8042 17.7105 21.02 17.3721 21.1043C16.3302 21.3637 15.2727 20.2445 14.2701 20.8758C13.5543 21.3264 13.2978 22.3835 12.4857 22.7067C12.1735 22.8311 11.8265 22.8311 11.5143 22.7067C10.7022 22.3835 10.4457 21.3264 9.72989 20.8758C8.73971 20.2524 7.65213 21.3593 6.62791 21.1043C6.28947 21.02 5.9972 20.8042 5.81405 20.5034C5.25286 19.5818 5.97704 18.227 5.0617 17.4623C4.42582 16.9312 3.37494 17 2.82204 16.3489C2.58921 16.0747 2.47484 15.717 2.50465 15.3563C2.57485 14.507 3.4524 13.9443 3.6605 13.1439C3.95808 11.9997 2.59204 11.3009 2.50465 10.2437C2.47484 9.88302 2.58921 9.52533 2.82204 9.25109C3.51676 8.43283 5.01899 8.70252 5.45238 7.59382C5.75662 6.81559 5.36608 5.83226 5.81405 5.09656C5.9972 4.79578 6.28947 4.58002 6.62791 4.49573C7.46705 4.28676 8.28757 4.98386 9.12378 4.92335C10.3113 4.83745 10.5079 3.29405 11.5143 2.89326Z" stroke="#01F82E" stroke-width="1.5" stroke-linejoin="round"/>
<path d="M9 14.1333C9 14.1333 9.875 14.1333 10.75 15.8C10.75 15.8 13.5294 11.6333 16 10.8" stroke="#01F82E" stroke-width="1.5" stroke-linecap="round" stroke-linejoin="round"/>
</svg>
