<svg width="30" height="29" viewBox="0 0 30 29" fill="none" xmlns="http://www.w3.org/2000/svg">
<path fill-rule="evenodd" clip-rule="evenodd" d="M9.51988 1.28806C10.9373 1.22281 11.3892 1.20831 14.9997 1.20831C18.6102 1.20831 19.0621 1.22402 20.4783 1.28806C21.8944 1.3521 22.8611 1.57806 23.7069 1.90552C24.5926 2.24023 25.3962 2.76344 26.0608 3.4401C26.7374 4.10348 27.2594 4.90581 27.5929 5.79273C27.9216 6.63856 28.1463 7.60523 28.2116 9.01898C28.2768 10.4388 28.2913 10.8907 28.2913 14.5C28.2913 18.1105 28.2756 18.5624 28.2116 19.9798C28.1476 21.3935 27.9216 22.3602 27.5929 23.206C27.2594 24.0931 26.7366 24.8967 26.0608 25.5611C25.3962 26.2377 24.5926 26.7597 23.7069 27.0932C22.8611 27.4219 21.8944 27.6466 20.4807 27.7119C19.0621 27.7771 18.6102 27.7916 14.9997 27.7916C11.3892 27.7916 10.9373 27.7759 9.51988 27.7119C8.10613 27.6479 7.13947 27.4219 6.29363 27.0932C5.40662 26.7597 4.60296 26.2368 3.93859 25.5611C3.26238 24.8973 2.7391 24.094 2.40522 23.2072C2.07776 22.3614 1.85301 21.3947 1.78776 19.981C1.72251 18.5612 1.70801 18.1093 1.70801 14.5C1.70801 10.8895 1.72372 10.4376 1.78776 9.0214C1.8518 7.60523 2.07776 6.63856 2.40522 5.79273C2.73959 4.90591 3.26328 4.10265 3.9398 3.4389C4.60322 2.76284 5.40608 2.23956 6.29242 1.90552C7.13826 1.57806 8.10493 1.35331 9.51867 1.28806H9.51988ZM20.3707 3.68056C18.969 3.61652 18.5485 3.60323 14.9997 3.60323C11.4508 3.60323 11.0303 3.61652 9.62863 3.68056C8.33209 3.73977 7.62884 3.95606 7.16001 4.13852C6.54013 4.38019 6.09667 4.66656 5.63147 5.13177C5.19048 5.56079 4.8511 6.08307 4.63822 6.66031C4.45576 7.12915 4.23947 7.8324 4.18026 9.12894C4.11622 10.5306 4.10292 10.9511 4.10292 14.5C4.10292 18.0489 4.11622 18.4694 4.18026 19.871C4.23947 21.1676 4.45576 21.8708 4.63822 22.3396C4.85088 22.916 5.19042 23.4392 5.63147 23.8682C6.06042 24.3092 6.58363 24.6488 7.16001 24.8614C7.62884 25.0439 8.33209 25.2602 9.62863 25.3194C11.0303 25.3834 11.4496 25.3967 14.9997 25.3967C18.5498 25.3967 18.969 25.3834 20.3707 25.3194C21.6673 25.2602 22.3705 25.0439 22.8393 24.8614C23.4592 24.6198 23.9027 24.3334 24.3679 23.8682C24.8089 23.4392 25.1485 22.916 25.3611 22.3396C25.5436 21.8708 25.7599 21.1676 25.8191 19.871C25.8831 18.4694 25.8964 18.0489 25.8964 14.5C25.8964 10.9511 25.8831 10.5306 25.8191 9.12894C25.7599 7.8324 25.5436 7.12915 25.3611 6.66031C25.1195 6.04044 24.8331 5.59698 24.3679 5.13177C23.9388 4.69082 23.4166 4.35144 22.8393 4.13852C22.3705 3.95606 21.6673 3.73977 20.3707 3.68056ZM13.302 18.5974C14.2501 18.9921 15.3058 19.0454 16.2889 18.7481C17.2719 18.4509 18.1213 17.8216 18.6919 16.9677C19.2625 16.1138 19.5189 15.0883 19.4174 14.0663C19.3159 13.0443 18.8627 12.0893 18.1353 11.3644C17.6716 10.9009 17.1109 10.5461 16.4936 10.3254C15.8763 10.1046 15.2177 10.0235 14.5653 10.0879C13.9129 10.1522 13.2828 10.3604 12.7205 10.6975C12.1582 11.0346 11.6777 11.4921 11.3134 12.0372C10.9492 12.5823 10.7103 13.2014 10.614 13.8498C10.5178 14.4983 10.5665 15.1601 10.7567 15.7875C10.9468 16.4149 11.2738 16.9923 11.7139 17.4782C12.154 17.9641 12.6964 18.3463 13.302 18.5974ZM10.1688 9.66906C10.8032 9.03466 11.5563 8.53142 12.3852 8.18808C13.2141 7.84475 14.1025 7.66803 14.9997 7.66803C15.8969 7.66803 16.7853 7.84475 17.6141 8.18808C18.443 8.53142 19.1962 9.03466 19.8306 9.66906C20.465 10.3035 20.9682 11.0566 21.3116 11.8855C21.6549 12.7144 21.8316 13.6028 21.8316 14.5C21.8316 15.3972 21.6549 16.2856 21.3116 17.1145C20.9682 17.9433 20.465 18.6965 19.8306 19.3309C18.5494 20.6121 16.8116 21.3319 14.9997 21.3319C13.1877 21.3319 11.45 20.6121 10.1688 19.3309C8.88752 18.0497 8.16773 16.3119 8.16773 14.5C8.16773 12.688 8.88752 10.9503 10.1688 9.66906ZM23.3468 8.68548C23.5041 8.53718 23.6299 8.35884 23.717 8.16103C23.804 7.96322 23.8505 7.74995 23.8536 7.53385C23.8568 7.31776 23.8165 7.10322 23.7353 6.90296C23.6541 6.70269 23.5334 6.52076 23.3806 6.36794C23.2278 6.21512 23.0459 6.09452 22.8456 6.01327C22.6453 5.93202 22.4308 5.89178 22.2147 5.89493C21.9986 5.89808 21.7854 5.94456 21.5875 6.03161C21.3897 6.11866 21.2114 6.24452 21.0631 6.40173C20.7747 6.70747 20.6168 7.11358 20.6229 7.53385C20.629 7.95412 20.7987 8.35546 21.0959 8.65267C21.3931 8.94987 21.7944 9.11955 22.2147 9.12567C22.635 9.1318 23.0411 8.9739 23.3468 8.68548Z" fill="white"/>
</svg>
