<svg width="14" height="14" viewBox="0 0 14 14" fill="none" xmlns="http://www.w3.org/2000/svg">
<path fill-rule="evenodd" clip-rule="evenodd" d="M6.81323 8.79619e-06C7.15899 8.80936e-06 7.43928 0.280299 7.43928 0.626055L7.43928 6.18719L13.0004 6.18719C13.3462 6.18719 13.6265 6.46748 13.6265 6.81324C13.6265 7.15899 13.3462 7.43928 13.0004 7.43928L7.43928 7.43928L7.43928 13.0004C7.43928 13.3462 7.15899 13.6265 6.81323 13.6265C6.46748 13.6265 6.18719 13.3462 6.18719 13.0004L6.18719 7.43928L0.626049 7.43928C0.280293 7.43928 2.94034e-06 7.15899 2.75068e-06 6.81324C2.57419e-06 6.46748 0.280293 6.18719 0.626049 6.18719L6.18719 6.18719L6.18719 0.626055C6.18719 0.280299 6.46748 8.80936e-06 6.81323 8.79619e-06Z" fill="#30353A"/>
</svg>
