<svg width="39" height="39" viewBox="0 0 39 39" fill="none" xmlns="http://www.w3.org/2000/svg">
<path d="M14.2849 20.9252H13.5582C11.209 20.9252 10.0344 20.9252 9.53368 20.1506C9.033 19.3762 9.51006 18.2972 10.4642 16.1391L13.3326 9.65126C14.2001 7.68914 14.6339 6.70808 15.4753 6.15836C16.3168 5.60864 17.3847 5.60864 19.5208 5.60864H22.829C25.4238 5.60864 26.7211 5.60864 27.2104 6.45628C27.6998 7.30392 27.0562 8.43629 25.7688 10.701L24.0716 13.6866C23.4316 14.8125 23.1116 15.3754 23.1161 15.8362C23.1219 16.4351 23.4403 16.9868 23.9547 17.2889C24.3506 17.5215 24.9955 17.5215 26.2854 17.5215C27.9161 17.5215 28.7315 17.5215 29.1562 17.8038C29.7078 18.1705 29.9966 18.8266 29.8954 19.4837C29.8175 19.9894 29.269 20.5958 28.1721 21.8088L19.4082 31.4998C17.6868 33.4033 16.8261 34.355 16.2481 34.0539C15.6702 33.7526 15.9477 32.4971 16.5028 29.986L17.5902 25.0672C18.0128 23.1551 18.2242 22.1991 17.7159 21.5622C17.2077 20.9252 16.2334 20.9252 14.2849 20.9252Z" stroke="white" stroke-width="1.5" stroke-linejoin="round"/>
</svg>
