<svg width="37" height="37" viewBox="0 0 37 37" fill="none" xmlns="http://www.w3.org/2000/svg">
<path d="M30.7334 30.75L30.0293 30.0399L30.0292 30.0399L30.7334 30.75ZM22.552 33.1073L21.8448 32.4001L21.8448 32.4002L22.552 33.1073ZM14.448 33.1073L15.1551 32.4002L15.1551 32.4001L14.448 33.1073ZM6.26661 30.75L6.97075 30.0399L6.97072 30.0399L6.26661 30.75ZM3.79891 22.4581L4.50603 21.7511L4.50601 21.751L3.79891 22.4581ZM1 18.5L0 18.5V18.5L1 18.5ZM6.25 6.26652L5.53994 5.56238L5.53994 5.56238L6.25 6.26652ZM22.4581 3.7989L21.751 4.50599L21.751 4.506L22.4581 3.7989ZM30.7336 6.25L31.4377 5.53997L31.4377 5.53995L30.7336 6.25ZM33.201 14.5418L32.4939 15.2489L32.494 15.2489L33.201 14.5418ZM33.201 22.4581L32.494 21.751L32.4939 21.751L33.201 22.4581ZM13.916 19.3166C13.504 18.9488 12.8719 18.9846 12.5041 19.3966C12.1362 19.8085 12.172 20.4407 12.584 20.8085L13.916 19.3166ZM16.4 22.875L15.734 23.6209C15.9357 23.8011 16.2018 23.8918 16.4716 23.8724C16.7413 23.8531 16.9918 23.7253 17.1657 23.5182L16.4 22.875ZM24.5157 14.7682C24.8709 14.3453 24.8161 13.7145 24.3932 13.3593C23.9703 13.0041 23.3395 13.0589 22.9843 13.4818L24.5157 14.7682ZM30.7334 31.75H30.75V29.75H30.7334V31.75ZM30.0292 30.0399C29.7335 30.3332 29.2547 30.5038 28.5352 30.5645C27.7811 30.6282 27.0955 30.5615 26.2838 30.5615V32.5615C26.8571 32.5615 27.8514 32.6294 28.7034 32.5574C29.59 32.4826 30.6435 32.2475 31.4375 31.4601L30.0292 30.0399ZM26.2838 30.5615C25.3745 30.5615 24.5958 30.6488 23.8538 30.955C23.1117 31.2614 22.4948 31.7502 21.8448 32.4001L23.2591 33.8144C23.8224 33.251 24.2215 32.967 24.6169 32.8037C25.0126 32.6404 25.4932 32.5615 26.2838 32.5615V30.5615ZM21.8448 32.4002C21.226 33.0191 20.753 33.6114 20.0932 34.1882C19.4609 34.7409 18.9415 35 18.5 35V37C19.6925 37 20.6826 36.3293 21.4094 35.694C22.1089 35.0826 22.8449 34.2286 23.2591 33.8143L21.8448 32.4002ZM18.5 35C18.0585 35 17.5391 34.7409 16.9068 34.1882C16.2469 33.6114 15.774 33.0191 15.1551 32.4002L13.7408 33.8143C14.1551 34.2286 14.8912 35.0827 15.5906 35.694C16.3174 36.3293 17.3075 37 18.5 37V35ZM15.1551 32.4001C14.5052 31.7502 13.8883 31.2614 13.1461 30.955C12.4042 30.6488 11.6254 30.5615 10.7161 30.5615V32.5615C11.5068 32.5615 11.9873 32.6404 12.383 32.8037C12.7785 32.967 13.1775 33.251 13.7409 33.8144L15.1551 32.4001ZM10.7161 30.5615C9.90441 30.5615 9.21882 30.6282 8.46477 30.5645C7.74529 30.5038 7.26645 30.3332 6.97075 30.0399L5.56247 31.4601C6.35648 32.2475 7.40992 32.4826 8.29654 32.5574C9.14858 32.6294 10.1429 32.5615 10.7161 32.5615V30.5615ZM6.97072 30.0399C6.67248 29.7442 6.49923 29.2655 6.43691 28.545C6.37159 27.7897 6.43849 27.0995 6.43849 26.2838H4.43849C4.43849 26.8621 4.37023 27.8603 4.44435 28.7173C4.52148 29.6091 4.76229 30.6666 5.56249 31.4601L6.97072 30.0399ZM6.43849 26.2838C6.43849 25.3332 6.3356 24.5364 6.00548 23.7806C5.6785 23.032 5.16617 22.4112 4.50603 21.7511L3.0918 23.1652C3.68603 23.7595 3.99348 24.1709 4.17269 24.5811C4.34877 24.9843 4.43849 25.473 4.43849 26.2838H6.43849ZM4.50601 21.751C3.55308 20.7981 2.91099 20.153 2.49477 19.6075C2.09614 19.085 2.00001 18.773 2 18.5L0 18.5C2.67625e-05 19.3862 0.370392 20.1203 0.904727 20.8207C1.42148 21.4979 2.17883 22.2523 3.09182 23.1653L4.50601 21.751ZM2 18.5C2 18.2269 2.09614 17.9149 2.49475 17.3924C2.91096 16.8469 3.55303 16.2018 4.50597 15.2489L3.09176 13.8347C2.1788 14.7476 1.42144 15.502 0.904703 16.1793C0.370353 16.8796 1.33514e-05 17.6138 0 18.5L2 18.5ZM4.50597 15.2489C5.79259 13.9623 6.43849 12.6056 6.43849 10.7161H4.43849C4.43849 12.0194 4.04461 12.8818 3.09176 13.8347L4.50597 15.2489ZM6.43849 10.7161C6.43849 9.9044 6.3718 9.21878 6.43546 8.46472C6.4962 7.74523 6.66681 7.26637 6.96006 6.97066L5.53994 5.56238C4.75254 6.35639 4.5174 7.40984 4.44255 8.29647C4.37061 9.14853 4.43849 10.1428 4.43849 10.7161H6.43849ZM6.96006 6.97066C7.25582 6.67242 7.73447 6.49918 8.45501 6.43687C9.21031 6.37155 9.90051 6.43846 10.7161 6.43846V4.43846C10.1379 4.43846 9.13969 4.37019 8.28269 4.4443C7.39093 4.52142 6.33343 4.76222 5.53994 5.56238L6.96006 6.97066ZM10.7161 6.43846C12.6055 6.43846 13.9623 5.7926 15.2489 4.506L13.8347 3.09179C12.8818 4.0446 12.0194 4.43846 10.7161 4.43846V6.43846ZM15.2489 4.506C16.2018 3.55304 16.8469 2.91096 17.3924 2.49474C17.9149 2.09613 18.2269 2 18.5 2V0C17.6138 0 16.8796 0.370347 16.1793 0.904703C15.502 1.42145 14.7476 2.17882 13.8347 3.09179L15.2489 4.506ZM18.5 2C18.7731 2 19.0851 2.09613 19.6076 2.49474C20.1531 2.91095 20.7981 3.55303 21.751 4.50599L23.1653 3.09181C22.2523 2.17883 21.498 1.42146 20.8207 0.904708C20.1204 0.370347 19.3862 0 18.5 0V2ZM21.751 4.506C23.0374 5.79233 24.394 6.43846 26.2838 6.43846V4.43846C24.9802 4.43846 24.1179 4.04441 23.1653 3.09179L21.751 4.506ZM26.2838 6.43846C27.0955 6.43846 27.7812 6.37176 28.5353 6.43543C29.2548 6.49618 29.7337 6.6668 30.0294 6.96005L31.4377 5.53995C30.6437 4.75252 29.5902 4.51737 28.7035 4.44252C27.8514 4.37058 26.8571 4.43846 26.2838 4.43846V6.43846ZM30.0294 6.96003C30.3276 7.25577 30.5008 7.73442 30.5631 8.45497C30.6284 9.21029 30.5615 9.90046 30.5615 10.7161H32.5615C32.5615 10.1379 32.6297 9.13967 32.5557 8.28271C32.4786 7.39097 32.2378 6.33348 31.4377 5.53997L30.0294 6.96003ZM30.5615 10.7161C30.5615 11.6667 30.6644 12.4636 30.9945 13.2194C31.3215 13.968 31.8339 14.5887 32.4939 15.2489L33.9082 13.8347C33.314 13.2405 33.0065 12.8291 32.8273 12.4188C32.6512 12.0157 32.5615 11.5269 32.5615 10.7161H30.5615ZM32.494 15.2489C33.447 16.2019 34.0891 16.8469 34.5053 17.3924C34.9039 17.9149 35 18.2269 35 18.5H37C37 17.6138 36.6297 16.8796 36.0953 16.1793C35.5785 15.502 34.8212 14.7476 33.9081 13.8347L32.494 15.2489ZM35 18.5C35 18.773 34.9039 19.085 34.5053 19.6075C34.0891 20.153 33.447 20.7981 32.494 21.751L33.9081 23.1653C34.8212 22.2523 35.5786 21.498 36.0953 20.8207C36.6297 20.1203 37 19.3862 37 18.5H35ZM32.4939 21.751C31.8338 22.4112 31.3214 23.032 30.9945 23.7806C30.6644 24.5364 30.5615 25.3332 30.5615 26.2838H32.5615C32.5615 25.473 32.6512 24.9843 32.8273 24.5811C33.0065 24.1709 33.3139 23.7595 33.9082 23.1653L32.4939 21.751ZM30.5615 26.2838C30.5615 27.0995 30.6284 27.7897 30.5631 28.545C30.5008 29.2656 30.3275 29.7442 30.0293 30.0399L31.4375 31.4601C32.2377 30.6666 32.4785 29.6091 32.5556 28.7173C32.6297 27.8603 32.5615 26.862 32.5615 26.2838H30.5615ZM12.584 20.8085L15.734 23.6209L17.066 22.1291L13.916 19.3166L12.584 20.8085ZM17.1657 23.5182L24.5157 14.7682L22.9843 13.4818L15.6343 22.2318L17.1657 23.5182Z" fill="white"/>
</svg>
