<svg width="20" height="21" viewBox="0 0 20 21" fill="none" xmlns="http://www.w3.org/2000/svg">
<g clip-path="url(#clip0_6_805)">
<path d="M10.0059 1.92803C12.6777 1.92803 12.9941 1.93975 14.0449 1.98663C15.0215 2.0296 15.5488 2.19366 15.9004 2.33038C16.3652 2.51007 16.7012 2.72882 17.0488 3.07647C17.4004 3.42803 17.6152 3.76007 17.7949 4.22491C17.9316 4.57647 18.0957 5.10772 18.1387 6.08038C18.1855 7.13507 18.1973 7.45147 18.1973 10.1194C18.1973 12.7913 18.1855 13.1077 18.1387 14.1585C18.0957 15.1351 17.9316 15.6624 17.7949 16.014C17.6152 16.4788 17.3965 16.8148 17.0488 17.1624C16.6973 17.514 16.3652 17.7288 15.9004 17.9085C15.5488 18.0452 15.0176 18.2093 14.0449 18.2523C12.9902 18.2991 12.6738 18.3108 10.0059 18.3108C7.33399 18.3108 7.01758 18.2991 5.9668 18.2523C4.99024 18.2093 4.46289 18.0452 4.11133 17.9085C3.64648 17.7288 3.31055 17.5101 2.96289 17.1624C2.61133 16.8108 2.39648 16.4788 2.2168 16.014C2.08008 15.6624 1.91602 15.1312 1.87305 14.1585C1.82617 13.1038 1.81445 12.7874 1.81445 10.1194C1.81445 7.44757 1.82617 7.13116 1.87305 6.08038C1.91602 5.10382 2.08008 4.57647 2.2168 4.22491C2.39648 3.76007 2.61523 3.42413 2.96289 3.07647C3.31445 2.72491 3.64648 2.51007 4.11133 2.33038C4.46289 2.19366 4.99414 2.0296 5.9668 1.98663C7.01758 1.93975 7.33399 1.92803 10.0059 1.92803ZM10.0059 0.127253C7.29102 0.127253 6.95117 0.138971 5.88477 0.185846C4.82227 0.232721 4.0918 0.404596 3.45898 0.65069C2.79883 0.908503 2.24023 1.24835 1.68555 1.80694C1.12695 2.36163 0.787109 2.92022 0.529297 3.57647C0.283203 4.21319 0.111328 4.93975 0.0644531 6.00225C0.0175781 7.07257 0.00585938 7.41241 0.00585938 10.1273C0.00585938 12.8421 0.0175781 13.1819 0.0644531 14.2483C0.111328 15.3108 0.283203 16.0413 0.529297 16.6741C0.787109 17.3343 1.12695 17.8929 1.68555 18.4476C2.24023 19.0023 2.79883 19.346 3.45508 19.5999C4.0918 19.846 4.81836 20.0179 5.88086 20.0648C6.94727 20.1116 7.28711 20.1233 10.002 20.1233C12.7168 20.1233 13.0566 20.1116 14.123 20.0648C15.1855 20.0179 15.916 19.846 16.5488 19.5999C17.2051 19.346 17.7637 19.0023 18.3184 18.4476C18.873 17.8929 19.2168 17.3343 19.4707 16.678C19.7168 16.0413 19.8887 15.3148 19.9355 14.2523C19.9824 13.1858 19.9941 12.846 19.9941 10.1312C19.9941 7.41632 19.9824 7.07647 19.9355 6.01007C19.8887 4.94757 19.7168 4.2171 19.4707 3.58428C19.2246 2.92022 18.8848 2.36163 18.3262 1.80694C17.7715 1.25225 17.2129 0.908503 16.5566 0.654596C15.9199 0.408503 15.1934 0.236628 14.1309 0.189753C13.0605 0.138971 12.7207 0.127253 10.0059 0.127253Z" fill="#FCFCFC"/>
<path d="M10.0059 4.99053C7.16992 4.99053 4.86914 7.29132 4.86914 10.1273C4.86914 12.9632 7.16992 15.264 10.0059 15.264C12.8418 15.264 15.1426 12.9632 15.1426 10.1273C15.1426 7.29132 12.8418 4.99053 10.0059 4.99053ZM10.0059 13.4593C8.16602 13.4593 6.67383 11.9671 6.67383 10.1273C6.67383 8.28741 8.16602 6.79522 10.0059 6.79522C11.8457 6.79522 13.3379 8.28741 13.3379 10.1273C13.3379 11.9671 11.8457 13.4593 10.0059 13.4593Z" fill="#FCFCFC"/>
<path d="M16.5449 4.78738C16.5449 5.45144 16.0059 5.9866 15.3457 5.9866C14.6816 5.9866 14.1465 5.44754 14.1465 4.78738C14.1465 4.12332 14.6855 3.58816 15.3457 3.58816C16.0059 3.58816 16.5449 4.12722 16.5449 4.78738Z" fill="#FCFCFC"/>
</g>
<defs>
<clipPath id="clip0_6_805">
<rect width="19.9883" height="19.9961" fill="white" transform="translate(0.00585938 0.127253)"/>
</clipPath>
</defs>
</svg>
