<svg xmlns="http://www.w3.org/2000/svg" width="65" height="32" viewBox="0 0 65 32" fill="none"><path d="M30.7025 12.1336C29.8115 11.6452 28.8567 11.402 27.8362 11.402C27.2814 11.402 26.6842 11.4966 26.0425 11.6858L20.6152 13.3247V11.402H17.9886V19.3151H14.1152C13.8234 19.3151 13.5644 19.1954 13.3382 18.9541C13.1121 18.7128 13 18.4329 13 18.1124V6.70312H10.3521V22.8112C10.3521 23.3209 10.1685 23.5757 9.80509 23.5757H5.86604C5.28234 23.5757 4.74695 23.4328 4.25795 23.1491C3.76896 22.8653 3.3824 22.4753 3.09828 21.9792C2.81415 21.4831 2.67113 20.9444 2.67113 20.3614V16.624H0V20.3614C0 21.4251 0.262861 22.4058 0.788582 23.3016C1.3143 24.1973 2.02751 24.9078 2.93399 25.4329C3.83854 25.958 4.81653 26.2205 5.86604 26.2205H10.9648C11.5195 26.2205 11.9969 26.0236 12.3989 25.6298C12.8009 25.2359 13 24.7552 13 24.1877V21.456C13.1024 21.6027 13.2551 21.7224 13.46 21.817C13.6649 21.9116 13.8833 21.9599 14.1172 21.9599H31.3828C31.9801 21.9599 32.4923 21.7456 32.9156 21.3151C33.3388 20.8846 33.5495 20.3711 33.5495 19.7745V17.0641C33.5495 15.9869 33.2867 15.0101 32.7609 14.1356C32.2797 13.29 31.5935 12.624 30.7044 12.1356L30.7025 12.1336ZM30.9209 18.79C30.9209 18.9367 30.8726 19.0603 30.7779 19.1607C30.6832 19.263 30.5691 19.3132 30.4396 19.3132H20.6133V16.0564L26.806 14.1761C27.2138 14.0738 27.5578 14.0236 27.8342 14.0236C28.3889 14.0236 28.9031 14.1471 29.3766 14.3942C29.8501 14.6413 30.2193 14.9927 30.4822 15.4425C30.774 15.8942 30.919 16.4329 30.919 17.0603V18.7861L30.9209 18.79Z" fill="#F5F5F5"></path><path d="M40.8803 11.3574C39.9178 11.3574 39.0345 11.591 38.2324 12.0563C37.4303 12.5234 36.7944 13.1566 36.3286 13.9578C35.8608 14.759 35.6289 15.6412 35.6289 16.6026C35.6289 17.564 35.8628 18.4752 36.3286 19.2918C36.7963 20.1084 37.4303 20.757 38.2324 21.2377C39.0345 21.7184 39.9178 21.9598 40.8803 21.9598H43.0914L43.0702 22.2223C42.9677 22.7763 42.7571 23.1991 42.4362 23.4906C41.926 23.9578 41.3017 24.2628 40.5653 24.4095C39.8289 24.5543 38.8335 24.6277 37.5772 24.6277H36.8543V27.2512C38.2247 27.2648 39.3418 27.2261 40.2019 27.1316C41.062 27.037 41.8061 26.8536 42.4343 26.5852C43.0605 26.315 43.6442 25.925 44.1854 25.4153C45.2794 24.4385 45.8263 23.1431 45.8263 21.5254V11.3613H40.8803V11.3574ZM43.1572 19.313H40.8803C40.1497 19.313 39.5312 19.0505 39.021 18.5254C38.5107 18.0003 38.2556 17.3594 38.2556 16.6026C38.2556 15.8458 38.5068 15.2397 39.0113 14.7455C39.5138 14.2493 40.1381 14.0022 40.8822 14.0022H43.1591V19.313H43.1572Z" fill="#F5F5F5"></path><path d="M65.0009 21.3321C65.0009 27.2259 60.2211 32 54.3222 32H54.3203V21.3321H65.0009Z" fill="#F5F5F5"></path><path d="M54.3203 10.668C54.3203 4.77413 59.1001 0 65.0009 0V21.334C59.1001 21.334 54.3203 16.5599 54.3203 10.668Z" fill="#F5F5F5"></path></svg>