<svg width="38" height="45" viewBox="0 0 38 45" fill="none" xmlns="http://www.w3.org/2000/svg">
<path d="M15.5646 35.8816C13.8018 36.0561 12.0219 35.86 10.3394 35.3059C8.65683 34.7517 7.10876 33.8519 5.7946 32.664C4.48043 31.4762 3.42922 30.0266 2.70846 28.4084C1.9877 26.7902 1.61332 25.0392 1.60938 23.2678C1.60938 17.0908 11.694 5.01368 14.2833 2.01496C16.2192 4.25538 22.3451 11.5715 25.3148 17.7347C25.41 17.9226 25.5751 18.0657 25.7747 18.1332C25.9742 18.2007 26.1923 18.1873 26.382 18.0959C26.5718 18.0044 26.7182 17.8422 26.7897 17.6441C26.8612 17.4459 26.8522 17.2276 26.7646 17.0361C23.1274 9.48786 15.2172 0.628729 14.8824 0.255499C14.805 0.174722 14.7119 0.110448 14.609 0.0665407C14.506 0.0226337 14.3952 0 14.2833 0C14.1713 0 14.0605 0.0226337 13.9576 0.0665407C13.8546 0.110448 13.7616 0.174722 13.6841 0.255499C13.1253 0.878669 0 15.6047 0 23.2678C0.00308692 27.0557 1.50865 30.6878 4.18638 33.3671C6.8641 36.0464 10.4953 37.554 14.2833 37.5593C15.0609 37.5147 16.5056 37.7408 16.451 36.5951C16.4397 36.49 16.4078 36.3882 16.3571 36.2955C16.3064 36.2027 16.238 36.1209 16.1557 36.0546C16.0733 35.9884 15.9788 35.939 15.8773 35.9093C15.7759 35.8796 15.6696 35.8702 15.5646 35.8816Z" fill="#434A51"/>
<path d="M27.173 19.7342C26.7974 20.1527 17.9768 30.042 17.9768 35.2552C18.5139 48.248 37.0297 48.2484 37.5668 35.2551C37.5668 30.042 28.7462 20.1527 28.3706 19.7342C28.2932 19.6535 28.2002 19.5893 28.0973 19.5455C27.9944 19.5016 27.8837 19.479 27.7718 19.479C27.6599 19.479 27.5492 19.5016 27.4463 19.5455C27.3434 19.5893 27.2504 19.6535 27.173 19.7342ZM27.7718 43.4412C25.6015 43.4387 23.5209 42.5754 21.9863 41.0408C20.4518 39.5061 19.5886 37.4255 19.5862 35.2552C19.5862 31.7182 25.0281 24.6748 27.7718 21.491C30.5155 24.6732 35.9574 31.7166 35.9574 35.2552C35.955 37.4254 35.0919 39.5061 33.5573 41.0408C32.0227 42.5754 29.942 43.4387 27.7718 43.4412Z" fill="#434A51"/>
<path d="M26.967 40.1251C26.967 40.2308 26.9878 40.3354 27.0282 40.4331C27.0687 40.5307 27.1279 40.6194 27.2027 40.6941C27.2774 40.7689 27.3661 40.8281 27.4638 40.8686C27.5614 40.909 27.666 40.9298 27.7717 40.9298C29.3258 40.9281 30.8158 40.31 31.9147 39.2111C33.0136 38.1123 33.6318 36.6224 33.6337 35.0683C33.634 34.9624 33.6135 34.8574 33.5732 34.7595C33.533 34.6615 33.4737 34.5725 33.399 34.4974C33.3242 34.4224 33.2354 34.3629 33.1376 34.3223C33.0398 34.2817 32.9349 34.2607 32.829 34.2607C32.7231 34.2607 32.6182 34.2817 32.5204 34.3223C32.4226 34.3629 32.3337 34.4224 32.259 34.4974C32.1842 34.5725 32.125 34.6615 32.0847 34.7595C32.0445 34.8574 32.0239 34.9624 32.0243 35.0683C32.023 36.1957 31.5745 37.2765 30.7773 38.0737C29.9801 38.8709 28.8991 39.3192 27.7717 39.3204C27.666 39.3204 27.5614 39.3412 27.4638 39.3816C27.3661 39.422 27.2774 39.4813 27.2027 39.556C27.1279 39.6308 27.0687 39.7195 27.0282 39.8171C26.9878 39.9148 26.967 40.0194 26.967 40.1251Z" fill="#434A51"/>
</svg>
