<svg width="57" height="57" viewBox="0 0 57 57" fill="none" xmlns="http://www.w3.org/2000/svg">
<path d="M21.4375 54.1499C21.2291 54.1499 21.0271 54.0729 20.8711 53.9318C20.6536 53.7353 15.5336 49.0333 14.7209 42.322C14.6649 41.8593 14.9944 41.4387 15.4569 41.3826C15.9167 41.3272 16.34 41.6569 16.3959 42.1191C17.0341 47.3847 20.7216 51.4045 21.7423 52.4274C32.1787 51.3338 39.4275 47.5066 43.2917 41.0491C49.4783 30.711 45.324 16.3392 43.737 11.7635C40.3586 16.2407 35.3389 20.4391 28.7898 24.2607C28.3363 24.5254 27.8969 24.7907 27.4724 25.0565C27.0782 25.3029 26.5574 25.1839 26.3096 24.7888C26.0625 24.3939 26.1822 23.8733 26.5773 23.626C27.0163 23.3511 27.4701 23.0772 27.9395 22.8033C34.9035 18.7394 40.0634 14.2661 43.2755 9.50777C43.4493 9.25059 43.7502 9.1106 44.0584 9.14012C44.3671 9.17079 44.6342 9.36824 44.7536 9.65438C45.0772 10.4296 52.5906 28.7871 44.7433 41.9099C40.5423 48.9349 32.7287 53.0516 21.5197 54.1458C21.4922 54.1487 21.4648 54.1499 21.4375 54.1499Z" fill="#434A51"/>
<path d="M21.4366 54.15C21.0427 54.15 20.6903 53.8725 20.6102 53.4717C20.5884 53.3636 18.5756 42.5713 29.3069 34.8828C38.8237 28.0648 43.7341 19.2402 43.1329 10.0349C43.1026 9.56993 43.4549 9.16853 43.9199 9.13787C44.3892 9.11416 44.7864 9.45992 44.8171 9.92492C45.4575 19.7336 40.298 29.0843 30.2898 36.2547C20.4336 43.3163 22.2453 53.0439 22.2648 53.141C22.3561 53.5984 22.0597 54.0427 21.6026 54.1337C21.5468 54.1447 21.4912 54.15 21.4366 54.15Z" fill="#434A51"/>
<path d="M16.8389 38.4741C12.3476 38.4741 8.6933 34.8198 8.6933 30.3284C9.02686 22.5174 15.9158 14.6943 16.2087 14.3651C16.369 14.1851 16.5981 14.0823 16.8389 14.0823C17.0798 14.0823 17.309 14.1852 17.4691 14.3651C17.7621 14.6943 24.6507 22.5174 24.9839 30.2922C24.9846 34.8199 21.3303 38.4741 16.8389 38.4741ZM16.8389 16.2454C15.1491 18.354 10.6304 24.5134 10.3802 30.3643C10.3808 33.8893 13.2779 36.7865 16.8389 36.7865C20.4 36.7865 23.297 33.8894 23.297 30.3284C23.0472 24.5071 18.5291 18.3532 16.8389 16.2454Z" fill="#434A51"/>
<path d="M28.1923 16.5357C25.597 16.5357 23.4856 14.4244 23.4856 11.8291C23.6686 7.54055 27.4033 3.29816 27.5621 3.11986C27.8825 2.75985 28.502 2.75985 28.8225 3.11986C28.9813 3.29816 32.7163 7.54044 32.8983 11.7932C32.8989 14.4244 30.7874 16.5357 28.1923 16.5357ZM28.1931 5.02321C27.1793 6.35746 25.2868 9.18899 25.1723 11.8654C25.173 13.4939 26.5273 14.8482 28.1922 14.8482C29.8569 14.8482 31.2113 13.4939 31.2113 11.829C31.0974 9.17292 29.207 6.35381 28.1931 5.02321Z" fill="#434A51"/>
</svg>
