<svg width="62" height="62" viewBox="0 0 62 62" fill="none" xmlns="http://www.w3.org/2000/svg">
<path d="M47.4941 22.5458C47.3 13.5986 39.9624 6.38013 30.9697 6.38013C21.9771 6.38013 14.6395 13.5986 14.4454 22.5458C7.25321 24.3356 1.90723 30.8477 1.90723 38.5866C1.90723 47.7005 9.32185 55.1152 18.4362 55.1152C23.443 55.1152 27.9361 52.8776 30.9697 49.3502C34.0033 52.8776 38.4965 55.1152 43.5033 55.1152C52.6172 55.1152 60.0322 47.7005 60.0322 38.5866C60.0322 30.8477 54.6862 24.3356 47.4941 22.5458ZM34.9069 37.2033C34.6607 34.2488 33.6344 31.5125 32.0344 29.2016C34.7554 25.882 38.886 23.7605 43.5033 23.7605C44.2703 23.7605 45.0238 23.819 45.76 23.9315C45.3243 30.2918 40.8603 35.5618 34.9069 37.2033ZM16.1795 23.9315C16.9156 23.819 17.6692 23.7605 18.4362 23.7605C23.0531 23.7605 27.184 25.882 29.9051 29.2016C28.3054 31.5125 27.2787 34.2488 27.0325 37.2033C21.0792 35.5618 16.6152 30.2918 16.1795 23.9315ZM30.9697 37.7351C30.2027 37.7351 29.4492 37.6766 28.7131 37.5634C28.8858 35.0439 29.6904 32.6953 30.9697 30.6756C32.249 32.6957 33.0536 35.0439 33.2264 37.5634C32.4903 37.6762 31.7367 37.7351 30.9697 37.7351ZM33.2456 39.2805C33.1232 41.9246 32.3044 44.3898 30.9697 46.4975C29.6351 44.3898 28.8163 41.9246 28.6939 39.2805C29.4378 39.3834 30.1978 39.4377 30.9697 39.4377C31.7417 39.4377 32.5009 39.3834 33.2456 39.2805ZM30.9697 8.08301C38.9122 8.08301 45.4155 14.361 45.7791 22.2151C45.0348 22.1116 44.2753 22.0576 43.5033 22.0576C38.4965 22.0576 34.0033 24.2951 30.9697 27.8229C27.9361 24.2951 23.443 22.0576 18.4362 22.0576C17.6642 22.0576 16.9046 22.1116 16.1603 22.2151C16.524 14.361 23.0272 8.08301 30.9697 8.08301ZM18.4362 53.4123C10.2613 53.4123 3.61011 46.7615 3.61011 38.5866C3.61011 31.7743 8.22882 26.0211 14.4993 24.2923C15.0921 31.4142 20.2196 37.2672 26.979 38.9499C27.0513 42.2942 28.1227 45.3967 29.9051 47.9716C27.184 51.2908 23.0531 53.4123 18.4362 53.4123ZM43.5033 53.4123C38.8863 53.4123 34.7554 51.2908 32.0344 47.9712C33.8167 45.3963 34.8881 42.2942 34.9605 38.9499C41.7195 37.2672 46.8473 31.4142 47.4401 24.2916C53.7106 26.0211 58.3293 31.7743 58.3293 38.5866C58.3293 46.7615 51.6782 53.4123 43.5033 53.4123Z" fill="#434A51"/>
<path d="M23.8173 16.9139C24.2877 16.9139 24.6687 16.5329 24.6687 16.0625V14.7679C24.6687 14.2979 24.2877 13.9165 23.8173 13.9165C23.3472 13.9165 22.9658 14.2979 22.9658 14.7679V16.0625C22.9658 16.5329 23.3472 16.9139 23.8173 16.9139Z" fill="#434A51"/>
<path d="M38.1222 16.9139C38.5923 16.9139 38.9736 16.5329 38.9736 16.0625V14.7679C38.9736 14.2979 38.5923 13.9165 38.1222 13.9165C37.6518 13.9165 37.2708 14.2979 37.2708 14.7679V16.0625C37.2708 16.5329 37.6518 16.9139 38.1222 16.9139Z" fill="#434A51"/>
<path d="M30.9697 17.6054C31.9035 17.6054 32.7805 17.2141 33.3758 16.533C33.6855 16.1793 33.6497 15.6414 33.2952 15.3317C32.9415 15.0224 32.4034 15.0582 32.094 15.4126C31.8219 15.7237 31.4118 15.9025 30.9697 15.9025C30.5277 15.9025 30.1176 15.7237 29.8455 15.4126C29.5361 15.0582 28.998 15.0224 28.6442 15.3317C28.2898 15.6414 28.254 16.1793 28.5637 16.533C29.159 17.2141 30.036 17.6054 30.9697 17.6054Z" fill="#434A51"/>
</svg>
