<svg width="124" height="124" viewBox="0 0 124 124" fill="none" xmlns="http://www.w3.org/2000/svg">
<g opacity="0.25">
<path fill-rule="evenodd" clip-rule="evenodd" d="M72.4682 11.625C81.6752 11.6248 89.0961 11.6247 94.9328 12.4077C100.993 13.2205 106.095 14.9594 110.147 19.0023C114.199 23.0451 115.943 28.1355 116.757 34.1813C117.542 40.0043 117.542 47.4082 117.542 56.5936V67.4064C117.542 76.5917 117.542 83.9955 116.757 89.8189C115.943 95.8644 114.199 100.955 110.147 104.998C106.095 109.04 100.993 110.78 94.9328 111.592C89.0961 112.375 81.6752 112.375 72.4682 112.375H51.5319C42.3249 112.375 34.9038 112.375 29.0672 111.592C23.0073 110.78 17.9051 109.04 13.8528 104.998C9.80049 100.955 8.05752 95.8644 7.24279 89.8189C6.45807 83.9955 6.45818 76.5917 6.45833 67.4064V56.5941C6.45818 47.4088 6.45807 40.0044 7.24279 34.1812C8.05752 28.1355 9.80049 23.0451 13.8528 19.0023C17.9051 14.9594 23.0073 13.2205 29.0672 12.4077C34.9038 11.6247 42.325 11.6248 51.532 11.625H72.4682ZM51.6667 43.9167C51.6667 48.1969 48.1969 51.6667 43.9167 51.6667C39.6364 51.6667 36.1667 48.1969 36.1667 43.9167C36.1667 39.6364 39.6364 36.1667 43.9167 36.1667C48.1969 36.1667 51.6667 39.6364 51.6667 43.9167ZM20.9935 97.8737C19.1303 96.0147 17.9154 93.4051 17.2512 88.4761L17.2109 88.1692L31.7978 71.7588C32.9335 70.4811 34.5614 69.75 36.271 69.75C37.8583 69.75 39.3806 70.3803 40.5029 71.5031L51.6667 82.6667L75.7284 58.605C76.863 57.4709 78.4016 56.8333 80.0058 56.8333C81.7015 56.8333 83.3192 57.5448 84.4647 58.7951L107.191 83.5879C107.09 85.3781 106.948 86.9974 106.749 88.4761C106.085 93.4051 104.87 96.0147 103.006 97.8737C101.143 99.7327 98.5273 100.945 93.5875 101.607C88.5019 102.289 81.762 102.3 72.0988 102.3H51.9018C42.2379 102.3 35.4981 102.289 30.4128 101.607C25.4728 100.945 22.8568 99.7327 20.9935 97.8737Z" fill="#898E93"/>
</g>
</svg>
