<svg width="36" height="36" viewBox="0 0 36 36" fill="none" xmlns="http://www.w3.org/2000/svg">
<path d="M18 0C18.3234 0 18.6468 0.0703125 18.9422 0.203906L32.182 5.82188C33.7289 6.47578 34.882 8.00156 34.875 9.84375C34.8398 16.8187 31.9711 29.5805 19.8562 35.3812C18.682 35.9437 17.3179 35.9437 16.1437 35.3812C4.02888 29.5805 1.16013 16.8187 1.12497 9.84375C1.11794 8.00156 2.27106 6.47578 3.81794 5.82188L17.0648 0.203906C17.3531 0.0703125 17.6765 0 18 0V0M18 4.69688V31.275C27.7031 26.5781 30.3117 16.1789 30.375 9.94219L18 4.69688V4.69688V4.69688" fill="#634D3B"/>
</svg>
