<svg width="27" height="36" viewBox="0 0 27 36" fill="none" xmlns="http://www.w3.org/2000/svg">
<path d="M12.2203 0.386731C12.9937 -0.12655 14.0062 -0.12655 14.7797 0.386731L16.0312 1.20939C16.4531 1.48361 16.9453 1.6172 17.4445 1.58907L18.9422 1.49767C19.8703 1.44142 20.7422 1.94767 21.157 2.77736L21.832 4.12032C22.057 4.57032 22.4226 4.92892 22.8656 5.15392L24.2226 5.83595C25.0523 6.25079 25.5586 7.12267 25.5023 8.05079L25.4109 9.54845C25.3828 10.0477 25.5164 10.5469 25.7906 10.9617L26.6203 12.2133C27.1336 12.9867 27.1336 13.9992 26.6203 14.7727L25.7906 16.0313C25.5164 16.4531 25.3828 16.9453 25.4109 17.4445L25.5023 18.9422C25.5586 19.8703 25.0523 20.7422 24.2226 21.157L22.8797 21.832C22.4297 22.057 22.0711 22.4227 21.8461 22.8656L21.164 24.2227C20.7492 25.0524 19.8773 25.5586 18.9492 25.5024L17.4515 25.4109C16.9523 25.3828 16.4531 25.5164 16.0383 25.7906L14.7867 26.6203C14.0133 27.1336 13.0008 27.1336 12.2273 26.6203L10.9687 25.7906C10.5469 25.5164 10.0547 25.3828 9.55544 25.4109L8.05779 25.5024C7.12966 25.5586 6.25779 25.0524 5.84294 24.2227L5.16794 22.8797C4.94294 22.4297 4.57732 22.0711 4.13435 21.8461L2.77732 21.1641C1.94763 20.7492 1.44138 19.8774 1.49763 18.9492L1.58904 17.4516C1.61716 16.9524 1.48357 16.4531 1.20935 16.0383L0.386694 14.7797C-0.126588 14.0063 -0.126588 12.9938 0.386694 12.2203L1.20935 10.9688C1.48357 10.5469 1.61716 10.0547 1.58904 9.55548L1.49763 8.05783C1.44138 7.1297 1.94763 6.25782 2.77732 5.84298L4.12029 5.16798C4.57029 4.93595 4.93591 4.57032 5.16091 4.12032L5.83591 2.77736C6.25076 1.94767 7.12263 1.44142 8.05076 1.49767L9.54841 1.58907C10.0476 1.6172 10.5469 1.48361 10.9617 1.20939L12.2203 0.386731V0.386731M19.125 13.5C19.125 10.3955 16.6045 7.87501 13.5 7.87501C10.3955 7.87501 7.87497 10.3955 7.87497 13.5C7.87497 16.6045 10.3955 19.125 13.5 19.125C16.6045 19.125 19.125 16.6045 19.125 13.5V13.5M0.091381 31.0641L3.12185 23.857C3.13591 23.8641 3.14294 23.8711 3.14997 23.8852L3.82497 25.2281C4.64763 26.8594 6.35623 27.8508 8.18435 27.7453L9.68201 27.6539C9.69607 27.6539 9.71716 27.6539 9.73123 27.668L10.9828 28.4977C11.3414 28.7297 11.7211 28.9125 12.1148 29.0391L9.47107 35.318C9.30935 35.7047 8.95076 35.9649 8.53591 36Cnan nan 7.72029 35.8453 7.49529 35.4938L5.23122 32.0274L1.28669 32.611C0.885912 32.6672 0.485131 32.5055 0.232006 32.1891Cnan nan -0.0703378 31.4367 0.0843497 31.0641H0.091381M17.5289 35.311L14.8851 29.0391C15.2789 28.9125 15.6586 28.7367 16.0172 28.4977L17.2687 27.668C17.2828 27.6609 17.2968 27.6539 17.3179 27.6539L18.8156 27.7453C20.6437 27.8508 22.3523 26.8594 23.175 25.2281L23.85 23.8852C23.857 23.8711 23.864 23.8641 23.8781 23.857L26.9156 31.0641C27.0703 31.4367 27.014 31.8656 26.7679 32.1891Cnan nan 26.114 32.6742 25.7133 32.611L21.7687 32.0274L19.5047 35.4867C19.2797 35.8383 18.8789 36.0281 18.464 35.993Cnan nan 17.6906 35.6906 17.5289 35.311V35.311" fill="#634D3B"/>
</svg>
