<svg width="14" height="14" viewBox="0 0 14 14" fill="none" xmlns="http://www.w3.org/2000/svg">
<path d="M7 14C10.8634 14 14 10.8634 14 7C14 3.13659 10.8634 0 7 0C3.13659 0 0 3.13659 0 7C0 10.8634 3.13659 14 7 14V14M10.0898 5.71484L6.58984 9.21484C6.33281 9.47188 5.91719 9.47188 5.66289 9.21484L3.91289 7.46484C3.65586 7.20781 3.65586 6.79219 3.91289 6.53789Cnan nan 4.58555 6.28086 4.83984 6.53789L6.125 7.82305L9.16016 4.78516C9.41719 4.52812 9.83281 4.52812 10.0871 4.78516Cnan nan 10.3441 5.45781 10.0871 5.71211L10.0898 5.71484" fill="#22C55E"/>
</svg>
