<svg width="18" height="20" viewBox="0 0 18 20" fill="none" xmlns="http://www.w3.org/2000/svg">
<path d="M6.25 4.375C6.25 2.99609 7.37109 1.875 8.75 1.875C10.1289 1.875 11.25 2.99609 11.25 4.375V6.25H6.25V4.375V4.375M4.375 6.25H1.875C0.839844 6.25 0 7.08984 0 8.125V16.25C0 18.3203 1.67969 20 3.75 20H13.75C15.8203 20 17.5 18.3203 17.5 16.25V8.125C17.5 7.08984 16.6602 6.25 15.625 6.25H13.125V4.375C13.125 1.95703 11.168 0 8.75 0C6.33203 0 4.375 1.95703 4.375 4.375V6.25V6.25M5.3125 8.125C5.82992 8.125 6.25 8.54508 6.25 9.0625C6.25 9.57992 5.82992 10 5.3125 10C4.79508 10 4.375 9.57992 4.375 9.0625C4.375 8.54508 4.79508 8.125 5.3125 8.125V8.125M11.25 9.0625C11.25 8.54508 11.6701 8.125 12.1875 8.125C12.7049 8.125 13.125 8.54508 13.125 9.0625C13.125 9.57992 12.7049 10 12.1875 10C11.6701 10 11.25 9.57992 11.25 9.0625V9.0625" fill="#967859"/>
</svg>
