<svg width="14" height="16" viewBox="0 0 14 16" fill="none" xmlns="http://www.w3.org/2000/svg">
<path d="M4.225 0.553125C4.39375 0.2125 4.74063 0 5.11875 0H8.88125C9.25938 0 9.60625 0.2125 9.775 0.553125L10 1H13C13.5531 1 14 1.44687 14 2C14 2.55313 13.5531 3 13 3H1C0.446875 3 0 2.55313 0 2C0 1.44687 0.446875 1 1 1H4L4.225 0.553125V0.553125M1 4H13V14C13 15.1031 12.1031 16 11 16H3C1.89688 16 1 15.1031 1 14V4V4M4 6C3.725 6 3.5 6.225 3.5 6.5V13.5C3.5 13.775 3.725 14 4 14Cnan nan 4.5 13.775 4.5 13.5V6.5C4.5 6.225 4.275 6 4 6V6M7 6C6.725 6 6.5 6.225 6.5 6.5V13.5C6.5 13.775 6.725 14 7 14Cnan nan 7.5 13.775 7.5 13.5V6.5C7.5 6.225 7.275 6 7 6V6M10 6C9.725 6 9.5 6.225 9.5 6.5V13.5C9.5 13.775 9.725 14 10 14Cnan nan 10.5 13.775 10.5 13.5V6.5C10.5 6.225 10.275 6 10 6V6" fill="#967859"/>
</svg>
