<svg width="14" height="16" viewBox="0 0 14 16" fill="none" xmlns="http://www.w3.org/2000/svg">
<path d="M7.00547 4.40635C5.01797 4.40635 3.41484 6.00947 3.41484 7.99697C3.41484 9.98447 5.01797 11.5876 7.00547 11.5876C7.00547 11.5876 10.5961 9.98447 10.5961 7.99697C10.5961 7.99697 8.99297 4.40635 7.00547 4.40635V4.40635M7.00547 10.3313C5.72109 10.3313 4.67109 9.28447 4.67109 7.99697Cnan nan 5.71797 5.6626 7.00547 5.6626Cnan nan 9.33984 6.70947 9.33984 7.99697Cnan nan 8.28984 10.3313 7.00547 10.3313V10.3313M11.5805 4.25947C11.5805 4.7251 11.2055 5.09697 10.743 5.09697C10.2773 5.09697 9.90547 4.72197 9.90547 4.25947Cnan nan 10.2805 3.42197 10.743 3.42197Cnan nan 11.5805 3.79697 11.5805 4.25947V4.25947M13.9586 5.10947C13.9055 3.9876 13.6492 2.99385 12.8273 2.1751C12.0086 1.35635 11.0148 1.1001 9.89297 1.04385C8.73672 0.978223 5.27109 0.978223 4.11484 1.04385C2.99609 1.09697 2.00234 1.35322 1.18047 2.17197Cnan nan 0.105469 3.98447 0.0492188 5.10635C-0.0164062 6.2626 -0.0164062 9.72822 0.0492188 10.8845C0.102344 12.0063 0.358594 13.0001 1.18047 13.8188Cnan nan 2.99297 14.8938 4.11484 14.9501C5.27109 15.0157 8.73672 15.0157 9.89297 14.9501C11.0148 14.897 12.0086 14.6407 12.8273 13.8188C13.6461 13.0001 13.9023 12.0063 13.9586 10.8845C14.0242 9.72822 14.0242 6.26572 13.9586 5.10947V5.10947M12.4648 12.1251C12.2211 12.7376 11.7492 13.2095 11.1336 13.4563C10.2117 13.822 8.02422 13.7376 7.00547 13.7376Cnan nan 3.79609 13.8188 2.87734 13.4563C2.26484 13.2126 1.79297 12.7407 1.54609 12.1251C1.18047 11.2032 1.26484 9.01572 1.26484 7.99697Cnan nan 1.18359 4.7876 1.54609 3.86885C1.78984 3.25635 2.26172 2.78447 2.87734 2.5376C3.79922 2.17197 5.98672 2.25635 7.00547 2.25635Cnan nan 10.2148 2.1751 11.1336 2.5376C11.7461 2.78135 12.218 3.25322 12.4648 3.86885C12.8305 4.79072 12.7461 6.97822 12.7461 7.99697Cnan nan 12.8305 11.2063 12.4648 12.1251V12.1251" fill="#F2EFE9"/>
</svg>
